<?xml version="1.0" encoding="utf-8"?>
<!-- Generator: Adobe Illustrator 15.1.0, SVG Export Plug-In . SVG Version: 6.00 Build 0)  -->
<!DOCTYPE svg PUBLIC "-//W3C//DTD SVG 1.1//EN" "http://www.w3.org/Graphics/SVG/1.1/DTD/svg11.dtd">
<svg version="1.1" id="Layer_1" xmlns="http://www.w3.org/2000/svg" xmlns:xlink="http://www.w3.org/1999/xlink" x="0px" y="0px"
	 width="536.378px" height="780.521px" viewBox="0 0 536.378 780.521" enable-background="new 0 0 536.378 780.521"
	 xml:space="preserve">
<g enable-background="new    ">
	<path fill="#19152B" d="M286.319,333.147V231.949h-24v-20.6c15.6-0.8,25.799-6.601,28.6-18.2h23.199v139.998H286.319z"/>
</g>
<rect x="90.689" y="365.761" fill="none" width="434" height="216"/>
<g enable-background="new    ">
	<path fill="#19152B" d="M188.196,461.647l-3.64-8.111c15.393-0.729,18.721-4.889,18.721-16.225v-0.937
		c-3.952,3.64-8.424,6.345-14.145,6.345c-11.648,0-21.009-8.529-21.009-29.33c0-18.721,10.296-27.561,21.529-27.561
		c5.512,0,10.712,2.912,13.625,6.24v-5.096h10.712v49.401C213.989,453.016,207.957,461.024,188.196,461.647z M203.484,402.886
		c-2.392-3.225-7.384-7.176-12.792-7.176c-7.696,0-11.856,5.824-11.856,17.368c0,13.729,4.368,19.761,12.272,19.761
		c5.096,0,9.568-3.432,12.376-6.969V402.886z"/>
	<path fill="#19152B" d="M261.1,441.575v-5.408c-3.744,3.744-9.048,6.553-14.977,6.553c-8.84,0-18.929-4.992-18.929-18.409
		c0-12.169,9.36-17.681,21.737-17.681c5.096,0,9.152,0.729,12.168,2.08v-4.057c0-5.928-3.64-9.256-10.296-9.256
		c-5.616,0-9.984,1.04-14.249,3.432l-4.16-8.111c5.2-3.225,11.024-4.889,18.721-4.889c12.168,0,20.489,5.928,20.489,18.305v37.441
		H261.1z M261.1,418.278c-2.912-1.456-6.656-2.393-12.48-2.393c-6.864,0-11.232,3.121-11.232,8.113
		c0,5.408,3.432,9.048,10.504,9.048c5.72,0,10.712-3.536,13.208-6.968V418.278z"/>
	<path fill="#19152B" d="M287.513,441.575v-70.203l10.713-5.615v75.818H287.513z"/>
	<path fill="#19152B" d="M315.074,441.575v-70.203l10.712-5.615v75.818H315.074z"/>
	<path fill="#19152B" d="M363.538,442.72c-13.729,0-24.024-11.337-24.024-28.394c0-17.889,10.607-28.497,24.336-28.497
		c13.938,0,24.338,11.129,24.338,28.186C388.187,432.11,377.578,442.72,363.538,442.72z M363.433,396.021
		c-8.111,0-13.104,7.177-13.104,17.993c0,11.96,5.512,18.512,13.624,18.512s13.417-8.216,13.417-18.2
		C377.371,403.198,372.066,396.021,363.433,396.021z"/>
	<path fill="#19152B" d="M434.57,441.575v-30.889c0-11.025-4.16-14.977-11.232-14.977c-7.177,0-11.232,5.096-11.232,13.936v31.93
		h-10.713v-54.602h10.713v5.199c2.703-3.951,8.111-6.344,13.729-6.344c12.688,0,19.448,8.32,19.448,24.441v31.305H434.57z"/>
</g>
</svg>
