<?xml version="1.0" encoding="utf-8"?>
<!-- Generator: Adobe Illustrator 15.1.0, SVG Export Plug-In . SVG Version: 6.00 Build 0)  -->
<!DOCTYPE svg PUBLIC "-//W3C//DTD SVG 1.1//EN" "http://www.w3.org/Graphics/SVG/1.1/DTD/svg11.dtd">
<svg version="1.1" id="Layer_1" xmlns="http://www.w3.org/2000/svg" xmlns:xlink="http://www.w3.org/1999/xlink" x="0px" y="0px"
	 width="536.378px" height="780.521px" viewBox="0 0 536.378 780.521" enable-background="new 0 0 536.378 780.521"
	 xml:space="preserve">
<rect x="130.958" y="187.35" fill="none" width="380.723" height="157.991"/>
<text transform="matrix(1 0 0 1 254.5195 333.1475)" fill="#19162B" font-family="'Interstate-Bold'" font-size="200">5</text>
<text transform="matrix(1 0 0 1 388.1196 333.1475)" fill="#19162B" font-family="'Interstate-Bold'" font-size="150"> </text>
<rect x="-17.884" y="389.2" fill="none" width="587.719" height="91.228"/>
<text transform="matrix(1 0 0 1 65.6943 410.5)" fill="#19162B" font-family="'MyriadPro-Regular'" font-size="30">amount an average African family  </text>
<text transform="matrix(1 0 0 1 215.3325 446.5)" fill="#19162B" font-family="'MyriadPro-Regular'" font-size="30">uses daily</text>
<g>
	<path fill="#19162B" d="M272.58,501.599c0,0-9.244-2.521-10.084-5.884c-0.841-3.361-14.288-2.521-14.288-2.521l0.841-6.725
		l0.84-5.043c0,0-24.375,0.84-24.375,5.043c0,4.202-13.448,7.564-17.65,5.043c0,0-12.606,6.726-12.606,18.49l-11.766,8.403
		c0,0-4.203,20.172-8.407,20.172c-4.199,0,3.364,15.968-2.52,21.853c0,0,9.244,15.97,9.244,20.17l12.607,10.087l8.404-3.362
		l6.723,2.521c0,0,15.129-7.563,17.652-6.724l4.2,7.563l5.884-2.521c0,0,6.723,4.204,3.364,23.534c0,0,9.244,9.245,9.244,15.128
		l2.519,5.042l1.682,6.725l-5.042,22.691l9.242,12.606l2.523,11.768c0,0,8.406,9.245,8.406,13.445l-1.682,3.363
		c0,0,9.245,2.521,12.605-0.842c0,0,20.172-2.521,23.532-11.766c0,0,5.043-1.682,5.043-10.086c0,0,15.129-3.362,5.883-14.286
		c0,0,10.086-11.769,14.287-11.769c0,0,4.205-2.521,4.205-6.724l3.359-11.768c0,0-5.883-5.043-5.041-10.086
		c0,0-1.684-9.243,6.723-19.33c0,0,8.404-12.605,10.928-12.605c0,0,21.012-20.171,15.967-32.777l-15.127,6.724l-5.041-4.202v-5.043
		c0,0-5.887-8.404-10.928-5.884c0,0,0-10.927-4.203-10.927l-5.043-15.128l-11.766-20.171l-5.045-5.043
		c0,0-13.445-6.723-18.488-3.361C289.389,497.396,277.623,483.108,272.58,501.599z"/>
	<g>
		<path fill="#6BBDC4" d="M290.16,545.714v17.568c-0.164,1.717-2.123,1.717-2.123,1.717c-1.718-0.245-2.045-1.636-2.045-1.636
			v-29.905c-0.408-1.063-0.896,0-0.896,0v10.704c-0.165,1.307-1.637,1.307-1.637,1.307c-1.472-0.245-1.633-1.307-1.633-1.307
			v-12.666c0.899-4.494,4.493-4.331,4.493-4.331h4.249h0.165h4.246c0,0,3.599-0.163,4.495,4.331v12.666c0,0-0.164,1.062-1.637,1.307
			c0,0-1.471,0-1.631-1.307v-10.704c0,0-0.492-1.063-0.9,0v29.905c0,0-0.327,1.391-2.042,1.636c0,0-1.964,0-2.122-1.717v-17.568
			C291.143,545.714,290.691,544.692,290.16,545.714z"/>
		<path fill="#6BBDC4" d="M294.164,522.344c0,1.852-1.5,3.354-3.351,3.354c-1.853,0-3.353-1.502-3.353-3.354
			c0-1.849,1.5-3.349,3.353-3.349C292.664,518.995,294.164,520.495,294.164,522.344z"/>
	</g>
	<path fill="#6BBDC4" d="M267.503,545.715v17.567c-0.164,1.715-2.128,1.715-2.128,1.715c-1.714-0.243-2.039-1.634-2.039-1.634
		v-29.905c-0.409-1.062-0.9,0-0.9,0v10.704c-0.162,1.307-1.633,1.307-1.633,1.307c-1.471-0.244-1.635-1.307-1.635-1.307v-12.665
		c0.899-4.495,4.493-4.33,4.493-4.33h4.25h0.162h4.249c0,0,3.598-0.165,4.495,4.33v12.665c0,0-0.162,1.062-1.633,1.307
		c0,0-1.472,0-1.636-1.307v-10.704c0,0-0.487-1.062-0.897,0v29.905c0,0-0.329,1.391-2.043,1.634c0,0-1.961,0-2.125-1.715v-17.567
		C268.482,545.715,268.033,544.693,267.503,545.715z"/>
	<path fill="#6BBDC4" d="M271.505,522.346c0,1.851-1.5,3.352-3.348,3.352c-1.854,0-3.351-1.501-3.351-3.352s1.497-3.351,3.351-3.351
		C270.005,518.995,271.505,520.495,271.505,522.346z"/>
	<path fill="#6BBDC4" d="M243.933,545.714v17.568c-0.16,1.717-2.125,1.717-2.125,1.717c-1.714-0.245-2.041-1.636-2.041-1.636
		v-29.905c-0.407-1.063-0.901,0-0.901,0v10.704c-0.163,1.307-1.632,1.307-1.632,1.307c-1.47-0.245-1.635-1.307-1.635-1.307v-12.666
		c0.898-4.494,4.494-4.331,4.494-4.331h4.249h0.164h4.249c0,0,3.595-0.163,4.495,4.331v12.666c0,0-0.162,1.062-1.633,1.307
		c0,0-1.47,0-1.635-1.307v-10.704c0,0-0.492-1.063-0.9,0v29.905c0,0-0.327,1.391-2.042,1.636c0,0-1.959,0-2.125-1.717v-17.568
		C244.915,545.714,244.466,544.692,243.933,545.714z"/>
	<path fill="#6BBDC4" d="M247.937,522.344c0,1.852-1.499,3.354-3.349,3.354c-1.851,0-3.349-1.502-3.349-3.354
		c0-1.849,1.498-3.349,3.349-3.349C246.438,518.995,247.937,520.495,247.937,522.344z"/>
	<path fill="#6BBDC4" d="M221.241,545.714v17.568c-0.162,1.717-2.124,1.717-2.124,1.717c-1.716-0.245-2.042-1.636-2.042-1.636
		v-29.905c-0.409-1.063-0.899,0-0.899,0v10.704c-0.162,1.307-1.634,1.307-1.634,1.307c-1.472-0.245-1.634-1.307-1.634-1.307v-12.666
		c0.898-4.494,4.493-4.331,4.493-4.331h4.249h0.165h4.249c0,0,3.595-0.163,4.493,4.331v12.666c0,0-0.162,1.062-1.634,1.307
		c0,0-1.472,0-1.634-1.307v-10.704c0,0-0.492-1.063-0.901,0v29.905c0,0-0.324,1.391-2.04,1.636c0,0-1.962,0-2.124-1.717v-17.568
		C222.224,545.714,221.774,544.692,221.241,545.714z"/>
	<path fill="#6BBDC4" d="M225.245,522.344c0,1.852-1.497,3.354-3.351,3.354c-1.848,0-3.348-1.502-3.348-3.354
		c0-1.849,1.5-3.349,3.348-3.349C223.748,518.995,225.245,520.495,225.245,522.344z"/>
</g>
</svg>
