<?xml version="1.0" encoding="utf-8"?>
<!-- Generator: Adobe Illustrator 15.1.0, SVG Export Plug-In . SVG Version: 6.00 Build 0)  -->
<!DOCTYPE svg PUBLIC "-//W3C//DTD SVG 1.1//EN" "http://www.w3.org/Graphics/SVG/1.1/DTD/svg11.dtd">
<svg version="1.1" id="Layer_1" xmlns="http://www.w3.org/2000/svg" xmlns:xlink="http://www.w3.org/1999/xlink" x="0px" y="0px"
	 width="536.378px" height="780.521px" viewBox="0 0 536.378 780.521" enable-background="new 0 0 536.378 780.521"
	 xml:space="preserve">
<g enable-background="new    ">
	<path d="M319.318,335.348c-20.199,0-36.998-4-54.599-15l13.601-23.8c12.999,7.4,26.799,11.8,40.998,11.8c19,0,30-8,30-22.999
		c0-14.601-10.6-20.8-23.799-20.8c-12.601,0-21,3.8-27.6,8.399l-26.6-9.8l4.799-69.999h93.199v27h-67.398l-1.601,24.199
		c7.8-4.2,16.2-6.399,29.399-6.399c31.399,0,48,19.999,48,46.399C377.718,317.947,353.718,335.348,319.318,335.348z"/>
</g>
<rect x="-17.884" y="389.2" fill="none" width="587.719" height="91.228"/>
<g enable-background="new    ">
	<path d="M78.084,407.021c0,1.26,0.06,2.489,0.21,3.479h-2.37l-0.21-1.83h-0.09c-0.81,1.14-2.37,2.16-4.44,2.16
		c-2.94,0-4.44-2.07-4.44-4.17c0-3.51,3.12-5.43,8.73-5.399v-0.301c0-1.17-0.33-3.359-3.3-3.329c-1.38,0-2.79,0.39-3.81,1.08
		l-0.6-1.771c1.2-0.75,2.97-1.26,4.8-1.26c4.44,0,5.52,3.03,5.52,5.91V407.021z M75.534,403.09c-2.88-0.06-6.15,0.45-6.15,3.271
		c0,1.739,1.14,2.52,2.46,2.52c1.92,0,3.15-1.2,3.57-2.43c0.09-0.3,0.12-0.6,0.12-0.84V403.09z"/>
	<path d="M82.344,399.91c0-1.529-0.06-2.729-0.12-3.93h2.31l0.12,2.37h0.09c0.81-1.38,2.16-2.67,4.59-2.67
		c1.95,0,3.45,1.2,4.08,2.91h0.06c0.45-0.84,1.05-1.44,1.65-1.891c0.87-0.659,1.8-1.02,3.18-1.02c1.95,0,4.8,1.26,4.8,6.3v8.52
		h-2.58v-8.189c0-2.82-1.05-4.47-3.15-4.47c-1.53,0-2.67,1.109-3.15,2.369c-0.12,0.391-0.21,0.841-0.21,1.32v8.97h-2.58v-8.699
		c0-2.311-1.02-3.96-3.03-3.96c-1.62,0-2.85,1.319-3.27,2.64c-0.15,0.36-0.21,0.84-0.21,1.29v8.729h-2.58V399.91z"/>
	<path d="M120.504,403.12c0,5.37-3.75,7.71-7.23,7.71c-3.9,0-6.959-2.88-6.959-7.47c0-4.83,3.209-7.68,7.2-7.68
		C117.684,395.681,120.504,398.711,120.504,403.12z M109.014,403.271c0,3.18,1.8,5.579,4.38,5.579c2.52,0,4.41-2.369,4.41-5.64
		c0-2.46-1.23-5.55-4.35-5.55C110.364,397.66,109.014,400.54,109.014,403.271z"/>
	<path d="M135.983,406.51c0,1.53,0.03,2.851,0.12,3.99h-2.34l-0.15-2.37h-0.06c-0.66,1.17-2.22,2.7-4.8,2.7
		c-2.28,0-5.01-1.29-5.01-6.359v-8.49h2.64v8.01c0,2.76,0.87,4.649,3.24,4.649c1.77,0,3-1.229,3.48-2.43
		c0.15-0.359,0.24-0.84,0.24-1.35v-8.88h2.64V406.51z"/>
	<path d="M140.364,399.91c0-1.529-0.03-2.729-0.12-3.93h2.34l0.15,2.4h0.06c0.72-1.351,2.4-2.7,4.8-2.7c2.01,0,5.13,1.2,5.13,6.18
		v8.64h-2.64v-8.37c0-2.34-0.87-4.289-3.36-4.289c-1.71,0-3.06,1.229-3.54,2.699c-0.12,0.33-0.18,0.78-0.18,1.23v8.729h-2.64V399.91
		z"/>
	<path d="M160.073,392.501v3.479h3.78v2.01h-3.78v7.83c0,1.8,0.51,2.819,1.98,2.819c0.72,0,1.14-0.06,1.53-0.18l0.12,2.01
		c-0.51,0.181-1.32,0.36-2.34,0.36c-1.23,0-2.22-0.42-2.85-1.11c-0.72-0.81-1.02-2.1-1.02-3.81v-7.92h-2.25v-2.01h2.25v-2.7
		L160.073,392.501z"/>
	<path d="M183.383,407.021c0,1.26,0.06,2.489,0.21,3.479h-2.37l-0.21-1.83h-0.09c-0.81,1.14-2.37,2.16-4.44,2.16
		c-2.94,0-4.44-2.07-4.44-4.17c0-3.51,3.12-5.43,8.73-5.399v-0.301c0-1.17-0.33-3.359-3.3-3.329c-1.38,0-2.79,0.39-3.81,1.08
		l-0.6-1.771c1.2-0.75,2.97-1.26,4.8-1.26c4.44,0,5.52,3.03,5.52,5.91V407.021z M180.833,403.09c-2.88-0.06-6.15,0.45-6.15,3.271
		c0,1.739,1.14,2.52,2.46,2.52c1.92,0,3.15-1.2,3.57-2.43c0.09-0.3,0.12-0.6,0.12-0.84V403.09z"/>
	<path d="M187.643,399.91c0-1.529-0.03-2.729-0.12-3.93h2.34l0.15,2.4h0.06c0.72-1.351,2.4-2.7,4.8-2.7c2.01,0,5.13,1.2,5.13,6.18
		v8.64h-2.64v-8.37c0-2.34-0.87-4.289-3.36-4.289c-1.71,0-3.06,1.229-3.54,2.699c-0.12,0.33-0.18,0.78-0.18,1.23v8.729h-2.64V399.91
		z"/>
	<path d="M220.852,407.021c0,1.26,0.06,2.489,0.21,3.479h-2.37l-0.21-1.83h-0.09c-0.81,1.14-2.37,2.16-4.44,2.16
		c-2.94,0-4.44-2.07-4.44-4.17c0-3.51,3.12-5.43,8.73-5.399v-0.301c0-1.17-0.33-3.359-3.3-3.329c-1.38,0-2.79,0.39-3.81,1.08
		l-0.6-1.771c1.2-0.75,2.97-1.26,4.8-1.26c4.44,0,5.52,3.03,5.52,5.91V407.021z M218.302,403.09c-2.88-0.06-6.149,0.45-6.149,3.271
		c0,1.739,1.14,2.52,2.46,2.52c1.92,0,3.15-1.2,3.57-2.43c0.09-0.3,0.12-0.6,0.12-0.84V403.09z"/>
	<path d="M225.893,395.98l2.85,8.13c0.48,1.35,0.87,2.55,1.17,3.75h0.09c0.33-1.2,0.75-2.4,1.23-3.75l2.82-8.13h2.76l-5.7,14.52
		h-2.52l-5.52-14.52H225.893z"/>
	<path d="M240.472,403.721c0.06,3.569,2.31,5.039,4.98,5.039c1.89,0,3.06-0.33,4.02-0.75l0.48,1.891c-0.93,0.42-2.55,0.93-4.86,0.93
		c-4.47,0-7.14-2.97-7.14-7.35s2.58-7.8,6.81-7.8c4.77,0,6,4.14,6,6.81c0,0.54-0.03,0.93-0.09,1.23H240.472z M248.212,401.83
		c0.03-1.649-0.69-4.26-3.66-4.26c-2.7,0-3.84,2.43-4.05,4.26H248.212z"/>
	<path d="M254.032,400.511c0-1.71-0.03-3.181-0.12-4.53h2.31l0.12,2.88h0.09c0.66-1.95,2.28-3.18,4.05-3.18
		c0.27,0,0.48,0.03,0.72,0.06v2.49c-0.27-0.06-0.54-0.06-0.9-0.06c-1.86,0-3.18,1.38-3.54,3.359c-0.06,0.36-0.09,0.81-0.09,1.23
		v7.739h-2.64V400.511z"/>
	<path d="M273.892,407.021c0,1.26,0.061,2.489,0.21,3.479h-2.37l-0.21-1.83h-0.09c-0.81,1.14-2.37,2.16-4.44,2.16
		c-2.94,0-4.44-2.07-4.44-4.17c0-3.51,3.12-5.43,8.73-5.399v-0.301c0-1.17-0.33-3.359-3.3-3.329c-1.38,0-2.79,0.39-3.81,1.08
		l-0.6-1.771c1.2-0.75,2.97-1.26,4.8-1.26c4.44,0,5.52,3.03,5.52,5.91V407.021z M271.341,403.09c-2.879-0.06-6.149,0.45-6.149,3.271
		c0,1.739,1.14,2.52,2.46,2.52c1.919,0,3.15-1.2,3.57-2.43c0.09-0.3,0.119-0.6,0.119-0.84V403.09z"/>
	<path d="M290.572,408.37c0,3.359-0.69,5.37-2.07,6.66c-1.439,1.289-3.48,1.739-5.311,1.739c-1.739,0-3.659-0.42-4.829-1.2
		l0.66-2.039c0.96,0.63,2.46,1.17,4.26,1.17c2.7,0,4.68-1.41,4.68-5.101v-1.59h-0.06c-0.78,1.351-2.37,2.431-4.62,2.431
		c-3.601,0-6.18-3.061-6.18-7.08c0-4.92,3.21-7.68,6.569-7.68c2.52,0,3.87,1.29,4.529,2.49h0.061l0.09-2.19h2.34
		c-0.09,1.021-0.119,2.22-0.119,3.96V408.37z M287.931,401.71c0-0.449-0.029-0.84-0.15-1.17c-0.479-1.56-1.739-2.819-3.689-2.819
		c-2.52,0-4.319,2.13-4.319,5.489c0,2.851,1.47,5.22,4.29,5.22c1.649,0,3.119-1.02,3.66-2.699c0.149-0.45,0.209-0.96,0.209-1.41
		V401.71z"/>
	<path d="M296.392,403.721c0.06,3.569,2.31,5.039,4.979,5.039c1.89,0,3.06-0.33,4.021-0.75l0.479,1.891
		c-0.931,0.42-2.55,0.93-4.86,0.93c-4.469,0-7.139-2.97-7.139-7.35s2.579-7.8,6.809-7.8c4.77,0,6,4.14,6,6.81
		c0,0.54-0.029,0.93-0.09,1.23H296.392z M304.131,401.83c0.03-1.649-0.69-4.26-3.659-4.26c-2.701,0-3.84,2.43-4.051,4.26H304.131z"
		/>
	<path d="M319.671,404.141l-2.101,6.359h-2.7l6.9-20.219h3.119l6.9,20.219H329l-2.159-6.359H319.671z M326.331,402.101l-2.01-5.82
		c-0.45-1.319-0.75-2.52-1.05-3.689h-0.061c-0.3,1.17-0.6,2.43-1.02,3.66l-1.98,5.85H326.331z"/>
	<path d="M334.732,410.5v-12.51h-2.01v-2.01h2.01v-0.689c0-2.04,0.479-3.9,1.68-5.07c0.99-0.96,2.31-1.35,3.539-1.35
		c0.961,0,1.74,0.21,2.25,0.42l-0.359,2.04c-0.391-0.181-0.9-0.33-1.68-0.33c-2.25,0-2.82,1.95-2.82,4.199v0.78h3.51v2.01h-3.51
		v12.51H334.732z"/>
	<path d="M343.221,400.511c0-1.71-0.03-3.181-0.12-4.53h2.311l0.119,2.88h0.09c0.66-1.95,2.28-3.18,4.051-3.18
		c0.27,0,0.479,0.03,0.719,0.06v2.49c-0.27-0.06-0.539-0.06-0.899-0.06c-1.86,0-3.18,1.38-3.54,3.359
		c-0.06,0.36-0.09,0.81-0.09,1.23v7.739h-2.64V400.511z"/>
	<path d="M356.091,391.9c0,0.9-0.63,1.62-1.68,1.62c-0.961,0-1.59-0.72-1.59-1.62c0-0.899,0.66-1.649,1.649-1.649
		C355.431,390.251,356.091,390.971,356.091,391.9z M353.152,410.5v-14.52h2.639v14.52H353.152z"/>
	<path d="M370.521,409.99c-0.69,0.33-2.221,0.84-4.17,0.84c-4.381,0-7.23-2.97-7.23-7.41c0-4.47,3.061-7.739,7.8-7.739
		c1.56,0,2.94,0.39,3.66,0.78l-0.601,2.01c-0.629-0.33-1.619-0.69-3.06-0.69c-3.329,0-5.13,2.49-5.13,5.49
		c0,3.359,2.16,5.43,5.04,5.43c1.5,0,2.489-0.36,3.239-0.69L370.521,409.99z"/>
	<path d="M383.81,407.021c0,1.26,0.061,2.489,0.211,3.479h-2.371l-0.209-1.83h-0.09c-0.811,1.14-2.371,2.16-4.44,2.16
		c-2.94,0-4.44-2.07-4.44-4.17c0-3.51,3.121-5.43,8.73-5.399v-0.301c0-1.17-0.33-3.359-3.301-3.329c-1.379,0-2.789,0.39-3.809,1.08
		l-0.601-1.771c1.2-0.75,2.97-1.26,4.8-1.26c4.439,0,5.52,3.03,5.52,5.91V407.021z M381.261,403.09
		c-2.881-0.06-6.15,0.45-6.15,3.271c0,1.739,1.14,2.52,2.46,2.52c1.92,0,3.149-1.2,3.569-2.43c0.09-0.3,0.121-0.6,0.121-0.84V403.09
		z"/>
	<path d="M388.071,399.91c0-1.529-0.03-2.729-0.12-3.93h2.34l0.15,2.4h0.06c0.72-1.351,2.399-2.7,4.8-2.7c2.01,0,5.13,1.2,5.13,6.18
		v8.64h-2.64v-8.37c0-2.34-0.87-4.289-3.359-4.289c-1.711,0-3.061,1.229-3.541,2.699c-0.119,0.33-0.18,0.78-0.18,1.23v8.729h-2.64
		V399.91z"/>
	<path d="M411.35,410.5v-12.51h-2.01v-2.01h2.01v-0.689c0-2.04,0.479-3.9,1.68-5.07c0.99-0.96,2.31-1.35,3.54-1.35
		c0.96,0,1.74,0.21,2.25,0.42l-0.359,2.04c-0.391-0.181-0.9-0.33-1.681-0.33c-2.25,0-2.819,1.95-2.819,4.199v0.78h3.51v2.01h-3.51
		v12.51H411.35z"/>
	<path d="M430.04,407.021c0,1.26,0.06,2.489,0.21,3.479h-2.37l-0.21-1.83h-0.09c-0.811,1.14-2.37,2.16-4.439,2.16
		c-2.94,0-4.44-2.07-4.44-4.17c0-3.51,3.12-5.43,8.729-5.399v-0.301c0-1.17-0.33-3.359-3.299-3.329c-1.381,0-2.791,0.39-3.811,1.08
		l-0.6-1.771c1.199-0.75,2.969-1.26,4.799-1.26c4.44,0,5.521,3.03,5.521,5.91V407.021z M427.49,403.09
		c-2.881-0.06-6.15,0.45-6.15,3.271c0,1.739,1.141,2.52,2.461,2.52c1.92,0,3.149-1.2,3.569-2.43c0.09-0.3,0.12-0.6,0.12-0.84V403.09
		z"/>
	<path d="M434.3,399.91c0-1.529-0.061-2.729-0.121-3.93h2.311l0.12,2.37h0.09c0.81-1.38,2.159-2.67,4.59-2.67
		c1.95,0,3.45,1.2,4.079,2.91h0.061c0.45-0.84,1.051-1.44,1.65-1.891c0.869-0.659,1.8-1.02,3.18-1.02c1.949,0,4.8,1.26,4.8,6.3v8.52
		h-2.58v-8.189c0-2.82-1.05-4.47-3.149-4.47c-1.53,0-2.67,1.109-3.15,2.369c-0.12,0.391-0.21,0.841-0.21,1.32v8.97h-2.579v-8.699
		c0-2.311-1.021-3.96-3.031-3.96c-1.619,0-2.85,1.319-3.27,2.64c-0.15,0.36-0.209,0.84-0.209,1.29v8.729h-2.58V399.91z"/>
	<path d="M462.259,391.9c0,0.9-0.629,1.62-1.68,1.62c-0.96,0-1.59-0.72-1.59-1.62c0-0.899,0.66-1.649,1.65-1.649
		C461.599,390.251,462.259,390.971,462.259,391.9z M459.32,410.5v-14.52h2.64v14.52H459.32z"/>
	<path d="M466.339,389.201h2.641V410.5h-2.641V389.201z"/>
	<path d="M474.378,395.98l3.15,8.58c0.361,0.96,0.721,2.1,0.961,2.97h0.059c0.271-0.87,0.57-1.98,0.932-3.03l2.879-8.52h2.791
		l-3.961,10.35c-1.891,4.979-3.18,7.5-4.98,9.09c-1.318,1.109-2.578,1.56-3.238,1.68l-0.66-2.189c0.66-0.21,1.529-0.63,2.309-1.29
		c0.721-0.57,1.59-1.59,2.221-2.94c0.119-0.27,0.209-0.479,0.209-0.63c0-0.149-0.059-0.359-0.209-0.689l-5.34-13.38H474.378z"/>
</g>
<g enable-background="new    ">
	<path d="M229.672,442.51c0,1.53,0.03,2.851,0.12,3.99h-2.34l-0.15-2.37h-0.06c-0.66,1.17-2.22,2.7-4.8,2.7
		c-2.28,0-5.01-1.29-5.01-6.359v-8.49h2.64v8.01c0,2.76,0.87,4.649,3.24,4.649c1.77,0,3-1.229,3.48-2.43
		c0.15-0.359,0.24-0.84,0.24-1.35v-8.88h2.64V442.51z"/>
	<path d="M233.692,443.83c0.81,0.48,2.19,1.02,3.51,1.02c1.89,0,2.79-0.93,2.79-2.159c0-1.26-0.75-1.92-2.67-2.641
		c-2.64-0.96-3.87-2.369-3.87-4.109c0-2.34,1.92-4.26,5.01-4.26c1.47,0,2.76,0.39,3.54,0.899l-0.63,1.92
		c-0.57-0.359-1.62-0.869-2.97-0.869c-1.56,0-2.4,0.899-2.4,1.979c0,1.2,0.84,1.74,2.73,2.49c2.49,0.93,3.81,2.189,3.81,4.35
		c0,2.58-2.01,4.38-5.4,4.38c-1.59,0-3.06-0.42-4.08-1.021L233.692,443.83z"/>
	<path d="M247.402,439.721c0.06,3.569,2.31,5.039,4.98,5.039c1.89,0,3.06-0.33,4.02-0.75l0.48,1.891c-0.93,0.42-2.55,0.93-4.86,0.93
		c-4.47,0-7.14-2.97-7.14-7.35s2.58-7.8,6.81-7.8c4.77,0,6,4.14,6,6.81c0,0.54-0.03,0.93-0.09,1.23H247.402z M255.142,437.83
		c0.03-1.649-0.69-4.26-3.66-4.26c-2.7,0-3.84,2.43-4.05,4.26H255.142z"/>
	<path d="M260.602,443.83c0.81,0.48,2.19,1.02,3.51,1.02c1.89,0,2.79-0.93,2.79-2.159c0-1.26-0.75-1.92-2.67-2.641
		c-2.64-0.96-3.87-2.369-3.87-4.109c0-2.34,1.92-4.26,5.01-4.26c1.47,0,2.76,0.39,3.54,0.899l-0.63,1.92
		c-0.57-0.359-1.62-0.869-2.97-0.869c-1.56,0-2.4,0.899-2.4,1.979c0,1.2,0.84,1.74,2.73,2.49c2.49,0.93,3.81,2.189,3.81,4.35
		c0,2.58-2.01,4.38-5.4,4.38c-1.59,0-3.06-0.42-4.08-1.021L260.602,443.83z"/>
	<path d="M291.71,425.201v17.549c0,1.29,0.061,2.76,0.121,3.75h-2.34l-0.121-2.52h-0.09c-0.779,1.619-2.52,2.85-4.889,2.85
		c-3.511,0-6.24-2.97-6.24-7.38c-0.03-4.83,3-7.77,6.51-7.77c2.25,0,3.72,1.05,4.379,2.189h0.061v-8.669H291.71z M289.101,437.891
		c0-0.33-0.029-0.78-0.119-1.11c-0.391-1.649-1.83-3.029-3.811-3.029c-2.73,0-4.35,2.399-4.35,5.579c0,2.94,1.47,5.37,4.289,5.37
		c1.771,0,3.391-1.2,3.871-3.15c0.09-0.359,0.119-0.72,0.119-1.14V437.891z"/>
	<path d="M306.322,443.021c0,1.26,0.06,2.489,0.209,3.479h-2.369l-0.211-1.83h-0.09c-0.81,1.14-2.369,2.16-4.439,2.16
		c-2.939,0-4.439-2.07-4.439-4.17c0-3.51,3.119-5.43,8.729-5.399v-0.301c0-1.17-0.33-3.359-3.3-3.329c-1.381,0-2.79,0.39-3.811,1.08
		l-0.6-1.771c1.2-0.75,2.97-1.26,4.8-1.26c4.44,0,5.521,3.03,5.521,5.91V443.021z M303.771,439.09
		c-2.88-0.06-6.149,0.45-6.149,3.271c0,1.739,1.14,2.52,2.46,2.52c1.92,0,3.15-1.2,3.57-2.43c0.09-0.3,0.119-0.6,0.119-0.84V439.09z
		"/>
	<path d="M313.521,427.9c0,0.9-0.63,1.62-1.68,1.62c-0.961,0-1.59-0.72-1.59-1.62c0-0.899,0.66-1.649,1.649-1.649
		C312.861,426.251,313.521,426.971,313.521,427.9z M310.582,446.5v-14.52h2.639v14.52H310.582z"/>
	<path d="M317.601,425.201h2.64V446.5h-2.64V425.201z"/>
	<path d="M325.64,431.98l3.15,8.58c0.359,0.96,0.72,2.1,0.96,2.97h0.06c0.271-0.87,0.57-1.98,0.93-3.03l2.881-8.52h2.789
		l-3.959,10.35c-1.891,4.979-3.18,7.5-4.98,9.09c-1.32,1.109-2.58,1.56-3.24,1.68l-0.659-2.189c0.659-0.21,1.53-0.63,2.31-1.29
		c0.721-0.57,1.59-1.59,2.221-2.94c0.119-0.27,0.209-0.479,0.209-0.63c0-0.149-0.06-0.359-0.209-0.689l-5.34-13.38H325.64z"/>
</g>
<g>
	<path fill="#19162B" d="M272.58,501.599c0,0-9.244-2.521-10.084-5.884c-0.841-3.361-14.288-2.521-14.288-2.521l0.841-6.725
		l0.84-5.043c0,0-24.375,0.84-24.375,5.043c0,4.202-13.448,7.564-17.65,5.043c0,0-12.606,6.726-12.606,18.49l-11.766,8.403
		c0,0-4.203,20.172-8.407,20.172c-4.199,0,3.364,15.968-2.52,21.853c0,0,9.244,15.97,9.244,20.17l12.607,10.087l8.404-3.362
		l6.723,2.521c0,0,15.129-7.563,17.652-6.724l4.2,7.563l5.884-2.521c0,0,6.723,4.204,3.364,23.534c0,0,9.244,9.245,9.244,15.128
		l2.519,5.042l1.682,6.725l-5.042,22.691l9.242,12.606l2.523,11.768c0,0,8.406,9.245,8.406,13.445l-1.682,3.363
		c0,0,9.245,2.521,12.605-0.842c0,0,20.172-2.521,23.532-11.766c0,0,5.043-1.682,5.043-10.086c0,0,15.129-3.362,5.884-14.286
		c0,0,10.085-11.769,14.286-11.769c0,0,4.205-2.521,4.205-6.724l3.359-11.768c0,0-5.884-5.043-5.041-10.086
		c0,0-1.683-9.243,6.723-19.33c0,0,8.404-12.605,10.928-12.605c0,0,21.011-20.171,15.967-32.777l-15.128,6.724l-5.041-4.202v-5.043
		c0,0-5.885-8.404-10.926-5.884c0,0,0-10.927-4.204-10.927l-5.043-15.128l-11.766-20.171l-5.045-5.043
		c0,0-13.445-6.723-18.488-3.361C289.389,497.396,277.623,483.108,272.58,501.599z"/>
	<g>
		<path fill="#6BBDC4" d="M290.16,545.714v17.568c-0.164,1.717-2.123,1.717-2.123,1.717c-1.718-0.245-2.045-1.636-2.045-1.636
			v-29.905c-0.408-1.063-0.896,0-0.896,0v10.704c-0.165,1.307-1.637,1.307-1.637,1.307c-1.472-0.245-1.633-1.307-1.633-1.307
			v-12.666c0.899-4.494,4.493-4.331,4.493-4.331h4.249h0.165h4.246c0,0,3.599-0.163,4.495,4.331v12.666c0,0-0.164,1.062-1.637,1.307
			c0,0-1.471,0-1.631-1.307v-10.704c0,0-0.492-1.063-0.9,0v29.905c0,0-0.327,1.391-2.042,1.636c0,0-1.964,0-2.122-1.717v-17.568
			C291.143,545.714,290.691,544.692,290.16,545.714z"/>
		<path fill="#6BBDC4" d="M294.164,522.344c0,1.852-1.5,3.354-3.351,3.354c-1.853,0-3.353-1.502-3.353-3.354
			c0-1.849,1.5-3.349,3.353-3.349C292.664,518.995,294.164,520.495,294.164,522.344z"/>
	</g>
	<path fill="#6BBDC4" d="M267.503,545.715v17.567c-0.164,1.715-2.128,1.715-2.128,1.715c-1.714-0.243-2.039-1.634-2.039-1.634
		v-29.905c-0.409-1.062-0.9,0-0.9,0v10.704c-0.162,1.307-1.633,1.307-1.633,1.307c-1.471-0.244-1.635-1.307-1.635-1.307v-12.665
		c0.899-4.495,4.493-4.33,4.493-4.33h4.25h0.162h4.249c0,0,3.598-0.165,4.495,4.33v12.665c0,0-0.162,1.062-1.633,1.307
		c0,0-1.472,0-1.636-1.307v-10.704c0,0-0.487-1.062-0.897,0v29.905c0,0-0.329,1.391-2.043,1.634c0,0-1.961,0-2.125-1.715v-17.567
		C268.482,545.715,268.033,544.693,267.503,545.715z"/>
	<path fill="#6BBDC4" d="M271.505,522.346c0,1.851-1.5,3.352-3.348,3.352c-1.854,0-3.351-1.501-3.351-3.352s1.497-3.351,3.351-3.351
		C270.005,518.995,271.505,520.495,271.505,522.346z"/>
	<path fill="#6BBDC4" d="M243.933,545.714v17.568c-0.16,1.717-2.125,1.717-2.125,1.717c-1.714-0.245-2.041-1.636-2.041-1.636
		v-29.905c-0.407-1.063-0.901,0-0.901,0v10.704c-0.163,1.307-1.632,1.307-1.632,1.307c-1.47-0.245-1.635-1.307-1.635-1.307v-12.666
		c0.898-4.494,4.494-4.331,4.494-4.331h4.249h0.164h4.249c0,0,3.595-0.163,4.495,4.331v12.666c0,0-0.162,1.062-1.633,1.307
		c0,0-1.47,0-1.635-1.307v-10.704c0,0-0.492-1.063-0.9,0v29.905c0,0-0.327,1.391-2.042,1.636c0,0-1.959,0-2.125-1.717v-17.568
		C244.915,545.714,244.466,544.692,243.933,545.714z"/>
	<path fill="#6BBDC4" d="M247.937,522.344c0,1.852-1.499,3.354-3.349,3.354c-1.851,0-3.349-1.502-3.349-3.354
		c0-1.849,1.498-3.349,3.349-3.349C246.438,518.995,247.937,520.495,247.937,522.344z"/>
	<path fill="#6BBDC4" d="M221.241,545.714v17.568c-0.162,1.717-2.124,1.717-2.124,1.717c-1.716-0.245-2.042-1.636-2.042-1.636
		v-29.905c-0.409-1.063-0.899,0-0.899,0v10.704c-0.162,1.307-1.634,1.307-1.634,1.307c-1.472-0.245-1.634-1.307-1.634-1.307v-12.666
		c0.898-4.494,4.493-4.331,4.493-4.331h4.249h0.165h4.249c0,0,3.595-0.163,4.493,4.331v12.666c0,0-0.162,1.062-1.634,1.307
		c0,0-1.472,0-1.634-1.307v-10.704c0,0-0.492-1.063-0.901,0v29.905c0,0-0.324,1.391-2.04,1.636c0,0-1.962,0-2.124-1.717v-17.568
		C222.224,545.714,221.774,544.692,221.241,545.714z"/>
	<path fill="#6BBDC4" d="M225.245,522.344c0,1.852-1.497,3.354-3.351,3.354c-1.848,0-3.348-1.502-3.348-3.354
		c0-1.849,1.5-3.349,3.348-3.349C223.748,518.995,225.245,520.495,225.245,522.344z"/>
</g>
</svg>
