<?xml version="1.0" encoding="utf-8"?>
<!-- Generator: Adobe Illustrator 15.1.0, SVG Export Plug-In . SVG Version: 6.00 Build 0)  -->
<!DOCTYPE svg PUBLIC "-//W3C//DTD SVG 1.1//EN" "http://www.w3.org/Graphics/SVG/1.1/DTD/svg11.dtd">
<svg version="1.1" id="Layer_1" xmlns="http://www.w3.org/2000/svg" xmlns:xlink="http://www.w3.org/1999/xlink" x="0px" y="0px"
	 width="536.378px" height="780.521px" viewBox="0 0 536.378 780.521" enable-background="new 0 0 536.378 780.521"
	 xml:space="preserve">
<g>
	<path fill="#6ABCC3" d="M330.794,47.392l-2.105,10.53c18.959,9.479,17.902,17.903,17.902,17.903
		c20.01,5.263,109.521,70.558,109.521,70.558c43.176,28.433,43.176,48.442,43.176,48.442
		c50.553,211.678,34.752,419.134,34.752,419.134c-26.328,106.364-67.396,119.005-67.396,119.005
		C435.048,754.024,331.851,779.3,331.851,779.3c-36.859,7.373-57.921-21.062-57.921-21.062c-20.01-28.437-41.069,0-41.069,0
		c-16.853,31.595-57.922,15.798-57.922,15.798c-17.903-3.157-101.101-38.964-101.101-38.964
		c-61.081-27.386-73.72-130.586-73.72-130.586c-1.052-20.013,5.267-153.751,5.267-153.751
		c4.915-23.522,67.401-314.881,67.401-314.881c12.635-31.595,121.105-69.508,121.105-69.508v-5.267
		c7.373-1.051,12.637-6.318,12.637-6.318l1.055-4.212l-3.161-6.318l8.424-12.636l2.175-18.333l100.025,15.161L330.794,47.392z
		 M163.352,163.23c0,0-30.543-35.806-51.604,10.534c0,0-23.17,112.683-9.479,171.655c0,0,5.267,15.797,15.798,7.373l11.584-4.212
		C129.651,348.581,139.13,358.056,163.352,163.23z"/>
	<path fill="#19152B" d="M210.215,35.279c0,0,45.303,0.528,111.105,0.528V0H212.368L210.215,35.279z"/>
</g>
<rect x="56.69" y="386.761" fill="none" width="434.001" height="82"/>
<text transform="matrix(1 0 0 1 72.1382 408.6309)" fill="#19152B" font-family="'Interstate-Regular'" font-size="30">number of gallons the United </text>
<text transform="matrix(1 0 0 1 126.1074 444.6309)" fill="#19152B" font-family="'Interstate-Regular'" font-size="30">States uses each day</text>
<path fill="#19152B" d="M57.892,594.841c0.348,2.391-1.561,3.587-1.3,5.376c1.088,7.471,5.819,13.452,14.734,15.539
	c6.409-0.894,13.081,14.343,14.074,19.127l0.043,0.297c7.128,0,14.681-1.195,18.411,0l25.639,12.854h26.137l1.429-4.481
	c7.429,0,9.674,1.196,14.255,0c0.826,5.672,7.326,7.477,8.954,10.462c4.051,7.469,5.06,16.433,12.784,16.433
	c4.159,0,4.936-6.871,11.478-6.871c12.463,0,15.249,19.127,18.52,29.287c2.055,5.978,13.606,7.769,18.567,9.261h0.6
	c-0.653-4.482-2.762-12.848-1.548-16.735c1.219-3.884,8.424-7.466,7.641-12.848c7.126,0,10.262-2.988,14.655-5.385
	c1.947-0.886,0.03-3.876,3.208-4.479c0,0,1.532,0.298,3.31,0.298c1.785,0,1.394-2.688,4.661-2.688c4.156,0,6.629,2.688,10.786,2.688
	c2.075,0,3.478-0.595,5.769-1.19c2.176,2.686,4.346,5.371,8.799,5.371c2.972,0,2.457-1.487,6.021-1.487
	c2.08,0,2.812,2.986,5.191,2.986c0.295,0,0.76-0.896,0.76-0.896l-0.262-1.79c-1.779,0-3.234-1.804-3.32-2.396
	c-0.307-2.095-0.436-2.987-1.088-7.464c2.67,0,7.93-0.605,9.584-1.501l6.707,1.194c1.193,0,2.377,0,3.051-1.498h8.91
	c0.771,1.197,7.436,2.095,7.783,4.481c0.131,0.9-0.246,2.396,0.438,2.994l1.521,0.296c3.479-0.599,4.32-2.987,7.756-3.883
	c3.105,0.896,7.004,1.189,7.525,4.777c0.438,2.994,2.314,5.68,5.416,6.575c-0.371,3.586-2.725,4.296-2.201,7.881
	c0.221,1.501,1.977,2.878,3.004,3.771c-0.854,0.303-1.271,1.501-1.141,2.396c0.479,3.29,2.064,5.979,4.787,8.372
	c0.516,1.486,0.393,2.688,0.74,5.08c0.521,3.582,6.146,9.563,8.814,9.563c0.891,0,2.074,0,2.971,0
	c-0.391-2.692,0.49-4.785,0.994-7.473l0.043,0.297c-0.348-2.39,1.303-3.281,0.865-6.277c-0.609-4.183,0.186-6.877-0.424-11.06
	c-0.914-6.271-6.412-13.445-7.674-22.106c-1.523-10.463,2.059-18.533,7.373-24.812c3.24,1.804,3.729-2.986,6.568-3.884
	c6.527-2.092,3.613-9.864,11.633-9.864l-0.26-1.785c0.68,0.594,2.076,0,2.971,0c3.254-2.095,3.363-7.476,8.713-7.476
	c1.779,0,3.857,0,4.828-1.489c-3.387-3.858,1.244-4.404,4.99-6.608l0.037,0.332c0.795-2.692,3.555-2.096,4.949-4.785
	c-2.379-2.088-1.518-6.273-4.232-8.668c-1.359-1.188-2.504-0.896-3.703-2.987c1.484,0,2.125,0.301,3.947,0.593
	c-2.254-1.186-0.174-1.186-0.219-3.574c0.678,0.594,1.604,0.891,2.5,0.891c1.486,0,2.242-0.891,3.645-1.489
	c-1.027-2.986-1.377-5.382-3.301-8.37l-0.305-2.094c1.455,1.796,2.02,5.68,6.176,5.68c2.082,0,2.58-2.689,2.271-4.783
	c-0.303-2.081-0.91-6.271-1.479-10.162c0,0,0.436,2.946,1.918,2.946c-0.674,1.495,0.162,1.646,1.66,3.738
	c0.887-2.093,1.865-3.987,4.062-5.187l0.342,0.303c1.652-0.896,4.6-7.173,4.771-8.073c0.238-2.392-2.271-5.38,0.568-6.271
	c0.297,0,3.303,0.296,5.385,0.296c3.57,0,5.262-0.601,7.461-1.791h-9.803c4.703-2.392,11.154-0.9,16.666-3.891
	c1.395-0.593,1.895-3.282,3.09-3.282c4.148,0,8.662,2.389,10.766-1.495l-1.359-1.194c-0.551,0.296-1.311,1.194-2.205,1.194
	c-0.889,0-1.477,0-2.371,0c1.012-1.194-0.436-2.991-0.695-4.781c-0.609-4.188,2.475-6.156,2.459-10.338
	c6.535-6.942,21.006-8.646,30.293-13.566c-0.729-0.9-4.271-8.968-4.449-10.164c-0.52-3.583,1.635-5.082,2.602-8.663l-10.279-3.287
	c-10.396,0-9.344,21.514-22.109,21.514c-1.186,0-2.252,0.902-3.438,0.902c-5.986-0.302-1.779,0-17.232,0
	c-11.188,2.686-16.445,15.536-27.432,15.536c-2.371,0-3.875-2.092-6.246-2.092c-6.535,0-4.941,6.872-7.602,8.961
	c-3.73,2.987-20.668,11.061-25.729,11.061c-2.371,0-7.592-1.196-7.852-2.987c-1.045-7.173,11.518-6.575,10.518-13.447
	c-0.131-0.896-2.256-1.2-2.387-2.094c-0.434-2.986,1.047-2.986-1.896-6.872c-1.354,0.896-2.404,1.793-2.99,3.886H376
	c1.26-3.586,7.312-6.875,6.443-12.854c-0.521-3.584-3.92-4.479-5.105-4.479c-1.791,0-4.379,0.594-5.938,0
	c-3.891,5.977-11.012,8.066-15.059,14.94c-3.541,6.271,2.584,21.813-10.789,21.813c-1.475,0-3.98-0.896-4.199-2.389
	c-1.307-8.969,5.486-19.427,9.115-25.104c-1.334-5.082,7.418-12.253,12.182-12.253c2.66,0,5.336,0,9.787,0
	c3.568,0,4.16-2.093,6.908-3.583c-6.543-2.093-11.246,0.296-15.193-2.391c-3.398-0.901-8.789,0.891-9.789-5.979
	c-1.346,0.895-2.791,1.195-4.584-0.896c0.303,0,1.355-0.896,2.762-1.491c-8.658,1.787-15.555,5.373-23.875,5.373
	c0,0-4.068,0.599-6.021-0.595c3.836-6.279,9.945-5.081,15.697-10.461c-3.266,0-9.762-1.794-12.23-2.394l0.131,0.899
	c-2.545-1.197-3.904-2.395-6.291-2.395c-1.482,0-2.369,0-3.854,0c-3.867,0-8.283-1.791-8.979-6.572H96.822
	c-2.023,2.389-0.248,12.551-5.589,12.551h-0.601c-0.479-3.287-4.084-3.584-8.075-4.483c0,0-10.525,35.513-20.468,43.733
	c-3.476,2.872-6.744,15.008-6.744,15.008s0.576,8.899-5.394,16.371c1.069,1.196,0.983,3.488,1.287,5.574
	c0.13,0.896,0.174,1.189,0.306,2.1c-1.401,0.592-1.096,2.688-0.966,3.58c0.479,3.292,3.944,10.755,3.944,10.755
	c1.483,0,3.605-1.79,3.605-1.79c1.483,0,4.281,0.896,4.281,0.896c-1.951,0.894-5.64,0-5.334,2.092
	c0.13,0.896,0.557,1.791,0.983,2.688c-0.889,0-2.464-0.594-3.143-1.19c0.043,0.296-0.419,1.19-0.375,1.498
	c0.348,2.39,1.166,5.972,3.543,5.972c0.13,0.896,0.218,1.498,0.349,2.396c0.13,0.895-0.08,1.488-0.843,2.391h0.304V594.841z"/>
<text transform="matrix(1 0 0 1 206.8838 288.8154)" fill="#19152B" font-family="'Interstate-Bold'" font-size="120">400</text>
<text transform="matrix(1 0 0 1 260.418 350.21)" fill="#19152B" font-family="'Interstate-Bold'" font-size="50">billion</text>
<text transform="matrix(1 0 0 1 259.999 621.6016)" fill="#6BBDC4" font-family="'Interstate-Regular'" font-size="41.7067"> </text>
<g>
	<text transform="matrix(1 0 0 1 183.5757 590.6572)" fill="#6BBDC4" font-family="'Interstate-Regular'" font-size="41.7067">2</text>
	<text transform="matrix(1 0 0 1 209.9756 590.6572)" fill="#6BBDC4" font-family="'Interstate-Regular'" font-size="41.7067">4</text>
	<text transform="matrix(1 0 0 1 249.0542 590.6572)" fill="#6BBDC4" font-family="'Interstate-Regular'" font-size="41.7067">h</text>
	<text transform="matrix(1 0 0 1 272.8257 590.6572)" fill="#6BBDC4" font-family="'Interstate-Regular'" font-size="41.7067">r</text>
	<text transform="matrix(1 0 0 1 290.2593 590.6572)" fill="#6BBDC4" font-family="'Interstate-Regular'" font-size="41.7067">s</text>
</g>
</svg>
