<?xml version="1.0" encoding="utf-8"?>
<!-- Generator: Adobe Illustrator 15.1.0, SVG Export Plug-In . SVG Version: 6.00 Build 0)  -->
<!DOCTYPE svg PUBLIC "-//W3C//DTD SVG 1.1//EN" "http://www.w3.org/Graphics/SVG/1.1/DTD/svg11.dtd">
<svg version="1.1" id="Layer_1" xmlns="http://www.w3.org/2000/svg" xmlns:xlink="http://www.w3.org/1999/xlink" x="0px" y="0px"
	 width="536.378px" height="780.521px" viewBox="0 0 536.378 780.521" enable-background="new 0 0 536.378 780.521"
	 xml:space="preserve">
<path fill="#19152B" d="M57.892,594.841c0.348,2.392-1.561,3.587-1.3,5.376c1.088,7.471,5.819,13.452,14.734,15.539
	c6.409-0.894,13.081,14.343,14.074,19.127l0.043,0.297c7.128,0,14.681-1.194,18.411,0l25.639,12.854h26.137l1.429-4.481
	c7.429,0,9.674,1.196,14.255,0c0.826,5.672,7.326,7.478,8.954,10.462c4.051,7.47,5.06,16.434,12.784,16.434
	c4.159,0,4.936-6.871,11.478-6.871c12.463,0,15.249,19.127,18.52,29.287c2.055,5.978,13.606,7.769,18.567,9.261h0.6
	c-0.653-4.482-2.762-12.848-1.548-16.735c1.219-3.884,8.424-7.466,7.641-12.848c7.126,0,10.262-2.988,14.655-5.385
	c1.947-0.887,0.03-3.876,3.208-4.479c0,0,1.532,0.298,3.31,0.298c1.785,0,1.394-2.688,4.661-2.688c4.156,0,6.629,2.688,10.786,2.688
	c2.075,0,3.478-0.595,5.769-1.189c2.176,2.686,4.346,5.371,8.799,5.371c2.973,0,2.457-1.487,6.021-1.487
	c2.08,0,2.812,2.986,5.191,2.986c0.295,0,0.76-0.896,0.76-0.896l-0.262-1.79c-1.779,0-3.234-1.804-3.32-2.396
	c-0.307-2.096-0.436-2.987-1.088-7.464c2.67,0,7.93-0.605,9.584-1.501l6.707,1.193c1.193,0,2.377,0,3.051-1.498h8.91
	c0.771,1.197,7.436,2.096,7.783,4.481c0.131,0.899-0.246,2.396,0.438,2.994l1.521,0.296c3.479-0.6,4.32-2.987,7.756-3.883
	c3.105,0.896,7.004,1.188,7.525,4.776c0.438,2.994,2.312,5.681,5.416,6.575c-0.371,3.586-2.727,4.296-2.201,7.881
	c0.221,1.501,1.977,2.878,3.004,3.771c-0.854,0.303-1.271,1.501-1.141,2.396c0.479,3.29,2.062,5.979,4.787,8.372
	c0.516,1.486,0.393,2.688,0.738,5.08c0.521,3.582,6.146,9.563,8.814,9.563c0.891,0,2.074,0,2.971,0
	c-0.391-2.692,0.49-4.785,0.994-7.474l0.043,0.297c-0.348-2.39,1.303-3.28,0.865-6.276c-0.609-4.184,0.186-6.877-0.424-11.061
	c-0.914-6.271-6.412-13.444-7.674-22.105c-1.523-10.463,2.059-18.533,7.373-24.812c3.24,1.804,3.729-2.985,6.568-3.884
	c6.527-2.092,3.613-9.864,11.633-9.864l-0.26-1.785c0.68,0.595,2.076,0,2.971,0c3.254-2.095,3.363-7.476,8.713-7.476
	c1.779,0,3.857,0,4.828-1.489c-3.387-3.857,1.244-4.403,4.99-6.607l0.037,0.332c0.795-2.692,3.555-2.097,4.949-4.785
	c-2.379-2.088-1.52-6.273-4.232-8.668c-1.359-1.188-2.504-0.896-3.703-2.987c1.484,0,2.125,0.301,3.947,0.593
	c-2.254-1.186-0.174-1.186-0.219-3.573c0.678,0.594,1.604,0.891,2.5,0.891c1.484,0,2.24-0.891,3.645-1.489
	c-1.027-2.985-1.377-5.382-3.301-8.37l-0.305-2.094c1.453,1.796,2.02,5.68,6.176,5.68c2.082,0,2.58-2.688,2.27-4.782
	c-0.303-2.081-0.91-6.271-1.479-10.162c0,0,0.436,2.945,1.918,2.945c-0.674,1.495,0.162,1.646,1.66,3.738
	c0.887-2.093,1.865-3.987,4.062-5.187l0.342,0.303c1.652-0.896,4.6-7.173,4.771-8.073c0.238-2.392-2.271-5.38,0.568-6.271
	c0.297,0,3.303,0.296,5.385,0.296c3.568,0,5.262-0.602,7.461-1.791h-9.803c4.701-2.393,11.152-0.9,16.666-3.892
	c1.395-0.593,1.895-3.281,3.09-3.281c4.146,0,8.662,2.389,10.766-1.495l-1.359-1.194c-0.551,0.296-1.311,1.194-2.205,1.194
	c-0.889,0-1.477,0-2.371,0c1.012-1.194-0.436-2.991-0.695-4.781c-0.609-4.188,2.475-6.156,2.459-10.338
	c6.535-6.942,21.006-8.646,30.293-13.566c-0.729-0.899-4.27-8.968-4.449-10.164c-0.52-3.583,1.635-5.082,2.604-8.663l-10.279-3.286
	c-10.396,0-9.344,21.514-22.109,21.514c-1.186,0-2.252,0.901-3.438,0.901c-5.986-0.302-1.779,0-17.232,0
	c-11.188,2.687-16.445,15.536-27.432,15.536c-2.371,0-3.875-2.092-6.246-2.092c-6.535,0-4.941,6.872-7.602,8.961
	c-3.73,2.987-20.668,11.062-25.73,11.062c-2.371,0-7.592-1.196-7.852-2.987c-1.045-7.173,11.518-6.575,10.518-13.447
	c-0.131-0.896-2.256-1.2-2.387-2.094c-0.434-2.986,1.047-2.986-1.896-6.872c-1.354,0.896-2.402,1.793-2.988,3.886H376
	c1.26-3.586,7.312-6.875,6.443-12.854c-0.521-3.584-3.92-4.479-5.105-4.479c-1.791,0-4.379,0.595-5.938,0
	c-3.891,5.978-11.012,8.066-15.059,14.94c-3.541,6.271,2.584,21.812-10.789,21.812c-1.475,0-3.98-0.896-4.199-2.389
	c-1.307-8.969,5.486-19.427,9.115-25.104c-1.334-5.082,7.418-12.253,12.182-12.253c2.66,0,5.336,0,9.787,0
	c3.568,0,4.16-2.094,6.908-3.584c-6.543-2.093-11.246,0.297-15.193-2.391c-3.398-0.9-8.789,0.891-9.789-5.979
	c-1.346,0.895-2.791,1.194-4.584-0.896c0.303,0,1.355-0.896,2.762-1.491c-8.658,1.787-15.555,5.373-23.875,5.373
	c0,0-4.068,0.6-6.021-0.595c3.836-6.279,9.945-5.081,15.697-10.461c-3.266,0-9.762-1.794-12.229-2.395l0.131,0.899
	c-2.545-1.197-3.904-2.395-6.291-2.395c-1.482,0-2.369,0-3.855,0c-3.867,0-8.281-1.791-8.979-6.572H96.822
	c-2.023,2.389-0.248,12.551-5.589,12.551h-0.601c-0.479-3.287-4.084-3.584-8.075-4.483c0,0-10.525,35.514-20.468,43.733
	c-3.476,2.872-6.744,15.008-6.744,15.008s0.576,8.899-5.394,16.371c1.069,1.196,0.983,3.488,1.287,5.574
	c0.13,0.896,0.174,1.188,0.306,2.1c-1.401,0.592-1.096,2.688-0.966,3.58c0.479,3.292,3.944,10.755,3.944,10.755
	c1.483,0,3.605-1.79,3.605-1.79c1.483,0,4.281,0.896,4.281,0.896c-1.951,0.894-5.64,0-5.334,2.092
	c0.13,0.896,0.557,1.791,0.983,2.688c-0.889,0-2.464-0.595-3.143-1.19c0.043,0.296-0.419,1.19-0.375,1.498
	c0.348,2.39,1.166,5.972,3.543,5.972c0.13,0.896,0.218,1.498,0.349,2.396c0.13,0.895-0.08,1.487-0.843,2.391h0.304V594.841z"/>
<g enable-background="new    ">
	<path fill="#19152B" d="M245.643,288.815v-60.718h-14.399v-12.359c9.36-0.479,15.479-3.96,17.159-10.919h13.92v83.996H245.643z"/>
	<path fill="#19152B" d="M340.201,271.656v17.159H324v-17.159h-45.958v-15.119l44.518-51.718h17.641v51.237h11.039v15.6H340.201z
		 M316.921,233.498l-12,14.039c-2.641,3.12-6.119,6.96-7.92,8.76c2.881,0,11.88-0.24,16.68-0.24H324v-13.68
		c0-4.8,0.36-15.239,0.36-18.358C322.8,226.178,319.681,230.258,316.921,233.498z"/>
	<path fill="#19152B" d="M369.961,290.136v-16.319c19.438,0,31.798-6.84,36.599-19.68c-5.4,3.6-10.68,5.28-19.199,5.28
		c-16.68,0-29.639-8.52-29.639-27.119c0-18.72,15.6-28.799,35.398-28.799c18.719,0,33.358,10.439,33.358,33.959
		C426.479,259.536,413.519,290.136,369.961,290.136z M392.4,219.099c-11.159,0-17.639,4.8-17.639,12.6
		c0,8.52,6.24,12.479,16.799,12.479c11.4,0,17.52-3.84,17.52-12.599C409.08,223.778,403.32,219.099,392.4,219.099z"/>
</g>
<g enable-background="new    ">
	<path fill="#19152B" d="M270.72,349.16c-1.15,0.899-3.201,1.6-5.351,1.6c-4.25,0-7-3.3-7-7.9v-12.4h-4.4v-6.501h4.4v-6.75l6.9-3.45
		v10.2h6.3v6.501h-6.3v10.551c0,2.5,0.9,3.149,2.55,3.149c1.25,0,2.2-0.55,3.9-2L270.72,349.16z"/>
	<path fill="#19152B" d="M293.519,332.009c-1.1-1-2.45-1.7-4-1.7c-2.701,0-4.451,1.15-4.451,5.7v14.201h-6.9v-26.252h6.9v1.75
		c1.201-1.25,2.951-2.3,5.4-2.3c2.25,0,3.951,0.9,4.852,1.851L293.519,332.009z"/>
	<path fill="#19152B" d="M303.268,321.809c-2.149,0-3.95-1.801-3.95-3.95c0-2.15,1.801-3.95,3.95-3.95c2.15,0,3.95,1.8,3.95,3.95
		C307.218,320.008,305.418,321.809,303.268,321.809z M299.818,350.21v-26.252h6.9v26.252H299.818z"/>
	<path fill="#19152B" d="M313.917,350.21v-33.002l6.9-3.45v36.452H313.917z"/>
	<path fill="#19152B" d="M328.017,350.21v-33.002l6.9-3.45v36.452H328.017z"/>
	<path fill="#19152B" d="M345.568,321.809c-2.15,0-3.95-1.801-3.95-3.95c0-2.15,1.8-3.95,3.95-3.95s3.95,1.8,3.95,3.95
		C349.518,320.008,347.718,321.809,345.568,321.809z M342.118,350.21v-26.252h6.9v26.252H342.118z"/>
	<path fill="#19152B" d="M366.468,350.76c-6.851,0-11.852-5.601-11.852-13.65c0-8.051,5.001-13.701,11.852-13.701
		c6.85,0,11.9,5.65,11.9,13.701C378.369,345.159,373.318,350.76,366.468,350.76z M366.468,330.059c-3.301,0-4.851,3-4.851,7.051
		c0,4.05,1.55,7,4.851,7c3.3,0,4.9-3.35,4.9-7C371.369,333.109,369.768,330.059,366.468,330.059z"/>
	<path fill="#19152B" d="M399.568,350.21v-14.201c0-4.7-1.6-6.1-4.45-6.1s-4.501,1.399-4.501,5.95v14.351h-6.9v-26.252h6.9v1.75
		c1.201-1.25,3.4-2.3,6.15-2.3c6.701,0,9.701,4.601,9.701,12.001v14.801H399.568z"/>
</g>
<g enable-background="new    ">
	<path fill="#6BBDC4" d="M194.383,590.657v-20.954h-4.848v-2.854c2.815-0.195,5.121-1.134,5.629-3.558h3.323v27.365H194.383z"/>
</g>
<g enable-background="new    ">
	<path fill="#6BBDC4" d="M222.841,597.89h-4.261l2.971-7.623l-7.545-20.133h4.417l3.362,10.047c0.626,1.798,1.564,4.848,1.798,5.98
		c0.352-1.212,1.212-4.144,1.837-5.902l3.479-10.125h4.261L222.841,597.89z"/>
</g>
<g enable-background="new    ">
	<path fill="#6BBDC4" d="M253.958,581.822h-13.565c0.43,3.948,2.658,5.629,5.16,5.629c1.72,0,3.088-0.625,4.457-1.642l2.385,2.58
		c-1.798,1.721-3.949,2.697-7.076,2.697c-4.808,0-8.874-3.87-8.874-10.672c0-6.959,3.675-10.712,8.992-10.712
		c5.825,0,8.639,4.73,8.639,10.281C254.075,580.728,253.997,581.393,253.958,581.822z M245.162,573.339
		c-2.697,0-4.339,1.877-4.691,5.16h9.539C249.814,575.685,248.484,573.339,245.162,573.339z"/>
</g>
<g enable-background="new    ">
	<path fill="#6BBDC4" d="M270.843,590.657v-2.033c-1.408,1.408-3.401,2.463-5.629,2.463c-3.323,0-7.115-1.876-7.115-6.919
		c0-4.574,3.519-6.646,8.17-6.646c1.916,0,3.44,0.273,4.574,0.781v-1.524c0-2.229-1.369-3.479-3.871-3.479
		c-2.111,0-3.753,0.391-5.355,1.29l-1.564-3.049c1.955-1.212,4.144-1.838,7.037-1.838c4.573,0,7.701,2.229,7.701,6.881v14.073
		H270.843z M270.843,581.9c-1.095-0.547-2.502-0.899-4.691-0.899c-2.58,0-4.222,1.173-4.222,3.05c0,2.032,1.29,3.4,3.949,3.4
		c2.15,0,4.026-1.329,4.965-2.619V581.9z"/>
</g>
<g enable-background="new    ">
	<path fill="#6BBDC4" d="M291.718,574.395c-0.861-0.469-1.76-0.743-3.089-0.743c-2.541,0-4.026,1.799-4.026,5.278v11.728h-4.027
		v-20.523h4.027v1.954c0.938-1.368,2.658-2.385,4.691-2.385c1.641,0,2.658,0.313,3.479,0.86L291.718,574.395z"/>
</g>
<rect x="56.69" y="386.761" fill="none" width="434.001" height="82"/>
<g enable-background="new    ">
	<path fill="#19152B" d="M83.988,408.631v-8.909c0-3.181-1.2-4.32-3.24-4.32c-2.07,0-3.24,1.47-3.24,4.02v9.21h-3.09v-15.749h3.09
		v1.5c0.78-1.141,2.34-1.83,3.96-1.83c3.66,0,5.61,2.399,5.61,7.05v9.029H83.988z"/>
	<path fill="#19152B" d="M100.967,408.631v-1.5c-0.78,1.14-2.34,1.83-3.96,1.83c-3.66,0-5.609-2.4-5.609-7.05v-9.029h3.09v8.909
		c0,3.18,1.2,4.32,3.24,4.32c2.07,0,3.24-1.471,3.24-4.021v-9.209h3.09v15.749H100.967z"/>
	<path fill="#19152B" d="M126.917,408.631v-8.909c0-3.181-0.99-4.32-3.03-4.32c-2.07,0-3.03,1.47-3.03,4.02v9.21h-3.09v-8.909
		c0-3.181-0.99-4.32-3.03-4.32c-2.07,0-3.03,1.47-3.03,4.02v9.21h-3.09v-15.749h3.09v1.5c0.78-1.141,2.13-1.83,3.75-1.83
		c2.13,0,3.48,0.81,4.32,2.31c1.14-1.41,2.37-2.31,4.83-2.31c3.66,0,5.4,2.399,5.4,7.05v9.029H126.917z"/>
	<path fill="#19152B" d="M141.467,408.961c-1.59,0-3.09-0.84-3.96-1.8v1.47h-3.06v-20.279l3.06-1.59v7.62
		c1.14-1.051,2.46-1.83,4.11-1.83c3.39,0,6.06,2.46,6.06,8.459C147.677,406.411,144.737,408.961,141.467,408.961z M141.047,395.401
		c-1.47,0-2.76,0.99-3.57,2.01v6.63c0.69,0.93,2.13,2.07,3.69,2.07c2.22,0,3.42-1.681,3.42-5.01
		C144.587,397.142,143.327,395.401,141.047,395.401z"/>
	<path fill="#19152B" d="M164.236,401.852h-10.41c0.33,3.029,2.04,4.319,3.96,4.319c1.32,0,2.37-0.479,3.42-1.26l1.83,1.979
		c-1.38,1.32-3.03,2.07-5.43,2.07c-3.69,0-6.81-2.97-6.81-8.189c0-5.34,2.82-8.22,6.9-8.22c4.47,0,6.63,3.63,6.63,7.89
		C164.327,401.011,164.267,401.521,164.236,401.852z M157.487,395.342c-2.07,0-3.33,1.439-3.6,3.959h7.32
		C161.057,397.142,160.037,395.342,157.487,395.342z"/>
	<path fill="#19152B" d="M176.716,396.151c-0.66-0.36-1.35-0.57-2.37-0.57c-1.95,0-3.09,1.38-3.09,4.05v9h-3.09v-15.749h3.09v1.5
		c0.72-1.051,2.04-1.83,3.6-1.83c1.26,0,2.04,0.239,2.67,0.66L176.716,396.151z"/>
	<path fill="#19152B" d="M194.986,408.961c-3.959,0-6.93-3.27-6.93-8.189c0-5.16,3.06-8.22,7.02-8.22c4.02,0,7.02,3.21,7.02,8.13
		C202.096,405.901,199.036,408.961,194.986,408.961z M194.956,395.491c-2.34,0-3.78,2.07-3.78,5.19c0,3.449,1.59,5.339,3.93,5.339
		s3.87-2.369,3.87-5.249C198.976,397.562,197.446,395.491,194.956,395.491z"/>
	<path fill="#19152B" d="M211.036,389.552c-1.02,0-1.44,0.39-1.44,1.53v1.8h2.91v2.88h-2.91v12.869h-3.09v-12.869h-2.04v-2.88h2.04
		v-2.07c0-2.88,1.77-3.96,3.99-3.96c0.81,0,1.68,0.12,2.34,0.3v2.7C212.116,389.642,211.576,389.552,211.036,389.552z"/>
	<path fill="#19152B" d="M229.516,414.421l-1.05-2.34c4.44-0.21,5.4-1.41,5.4-4.68v-0.271c-1.14,1.05-2.43,1.83-4.08,1.83
		c-3.36,0-6.06-2.46-6.06-8.46c0-5.399,2.97-7.949,6.21-7.949c1.59,0,3.09,0.84,3.93,1.8v-1.47h3.09v14.249
		C236.955,411.931,235.215,414.24,229.516,414.421z M233.925,397.472c-0.69-0.931-2.13-2.07-3.69-2.07c-2.22,0-3.42,1.68-3.42,5.01
		c0,3.96,1.26,5.7,3.54,5.7c1.47,0,2.76-0.99,3.57-2.011V397.472z"/>
	<path fill="#19152B" d="M250.545,408.631v-1.56c-1.08,1.079-2.61,1.89-4.32,1.89c-2.55,0-5.46-1.44-5.46-5.31
		c0-3.51,2.7-5.101,6.27-5.101c1.47,0,2.64,0.211,3.51,0.601v-1.17c0-1.71-1.05-2.67-2.97-2.67c-1.62,0-2.88,0.3-4.11,0.99
		l-1.2-2.34c1.5-0.931,3.18-1.41,5.4-1.41c3.51,0,5.91,1.71,5.91,5.279v10.8H250.545z M250.545,401.911
		c-0.84-0.42-1.92-0.69-3.6-0.69c-1.979,0-3.24,0.9-3.24,2.341c0,1.56,0.99,2.609,3.03,2.609c1.65,0,3.09-1.02,3.81-2.01V401.911z"
		/>
	<path fill="#19152B" d="M258.165,408.631v-20.249l3.09-1.62v21.869H258.165z"/>
	<path fill="#19152B" d="M266.115,408.631v-20.249l3.09-1.62v21.869H266.115z"/>
	<path fill="#19152B" d="M280.095,408.961c-3.96,0-6.93-3.27-6.93-8.189c0-5.16,3.06-8.22,7.02-8.22c4.02,0,7.02,3.21,7.02,8.13
		C287.205,405.901,284.144,408.961,280.095,408.961z M280.065,395.491c-2.34,0-3.78,2.07-3.78,5.19c0,3.449,1.59,5.339,3.93,5.339
		s3.871-2.369,3.871-5.249C284.085,397.562,282.554,395.491,280.065,395.491z"/>
	<path fill="#19152B" d="M300.584,408.631v-8.909c0-3.181-1.2-4.32-3.239-4.32c-2.07,0-3.24,1.47-3.24,4.02v9.21h-3.09v-15.749h3.09
		v1.5c0.779-1.141,2.34-1.83,3.959-1.83c3.66,0,5.61,2.399,5.61,7.05v9.029H300.584z"/>
	<path fill="#19152B" d="M313.214,408.961c-2.129,0-4.439-0.84-6.029-2.01l1.41-2.34c1.47,1.02,3.119,1.56,4.59,1.56
		c1.949,0,2.879-0.63,2.879-1.74c0-1.199-1.379-1.77-3.659-2.64c-3.39-1.32-4.62-2.46-4.62-4.949c0-2.82,2.221-4.29,5.37-4.29
		c1.979,0,3.93,0.72,5.34,1.739l-1.351,2.37c-1.289-0.899-2.58-1.35-4.08-1.35c-1.499,0-2.159,0.6-2.159,1.439
		c0,0.78,0.54,1.351,2.909,2.28c3.511,1.35,5.311,2.31,5.311,5.279C319.125,407.791,316.304,408.961,313.214,408.961z"/>
	<path fill="#19152B" d="M338.714,408.241c-0.75,0.42-1.801,0.72-3.03,0.72c-2.19,0-3.54-1.35-3.54-4.17v-9.09h-2.25v-2.819h2.25
		v-4.5l3.029-1.62v6.12h3.9v2.819h-3.9v8.55c0,1.47,0.48,1.89,1.621,1.89c0.81,0,1.709-0.3,2.279-0.63L338.714,408.241z"/>
	<path fill="#19152B" d="M352.843,408.631v-8.909c0-3.181-1.199-4.32-3.239-4.32c-2.07,0-3.24,1.47-3.24,4.02v9.21h-3.09v-20.249
		l3.09-1.62v7.62c0.78-1.141,2.34-1.83,3.96-1.83c3.66,0,5.609,2.399,5.609,7.05v9.029H352.843z"/>
	<path fill="#19152B" d="M373.064,401.852h-10.41c0.33,3.029,2.04,4.319,3.96,4.319c1.32,0,2.37-0.479,3.42-1.26l1.83,1.979
		c-1.38,1.32-3.03,2.07-5.43,2.07c-3.69,0-6.81-2.97-6.81-8.189c0-5.34,2.819-8.22,6.899-8.22c4.47,0,6.63,3.63,6.63,7.89
		C373.154,401.011,373.093,401.521,373.064,401.852z M366.314,395.342c-2.07,0-3.33,1.439-3.6,3.959h7.319
		C369.884,397.142,368.864,395.342,366.314,395.342z"/>
	<path fill="#19152B" d="M393.283,408.961c-5.189,0-7.89-3.36-7.89-9.149v-12.18h3.149v12.09c0,3.959,1.65,6.089,4.8,6.089
		c3.3,0,4.86-2.039,4.86-5.879v-12.3h3.149v12.239C401.352,405.751,398.502,408.961,393.283,408.961z"/>
	<path fill="#19152B" d="M415.783,408.631v-8.909c0-3.181-1.2-4.32-3.24-4.32c-2.069,0-3.239,1.47-3.239,4.02v9.21h-3.09v-15.749
		h3.09v1.5c0.779-1.141,2.34-1.83,3.96-1.83c3.659,0,5.609,2.399,5.609,7.05v9.029H415.783z"/>
	<path fill="#19152B" d="M425.023,390.842c-1.11,0-2.011-0.9-2.011-1.98c0-1.109,0.9-2.01,2.011-2.01c1.079,0,1.979,0.9,1.979,2.01
		C427.002,389.941,426.102,390.842,425.023,390.842z M423.462,408.631v-15.749h3.09v15.749H423.462z"/>
	<path fill="#19152B" d="M438.792,408.241c-0.75,0.42-1.8,0.72-3.03,0.72c-2.189,0-3.539-1.35-3.539-4.17v-9.09h-2.25v-2.819h2.25
		v-4.5l3.029-1.62v6.12h3.9v2.819h-3.9v8.55c0,1.47,0.48,1.89,1.62,1.89c0.81,0,1.71-0.3,2.28-0.63L438.792,408.241z"/>
	<path fill="#19152B" d="M455.443,401.852h-10.41c0.33,3.029,2.04,4.319,3.96,4.319c1.32,0,2.37-0.479,3.42-1.26l1.83,1.979
		c-1.38,1.32-3.03,2.07-5.43,2.07c-3.69,0-6.81-2.97-6.81-8.189c0-5.34,2.819-8.22,6.899-8.22c4.47,0,6.63,3.63,6.63,7.89
		C455.533,401.011,455.472,401.521,455.443,401.852z M448.693,395.342c-2.07,0-3.33,1.439-3.6,3.959h7.319
		C452.262,397.142,451.243,395.342,448.693,395.342z"/>
	<path fill="#19152B" d="M468.852,408.631v-1.5c-1.141,1.05-2.46,1.83-4.11,1.83c-3.39,0-6.06-2.46-6.06-8.46
		c0-5.399,2.94-7.949,6.21-7.949c1.59,0,3.09,0.84,3.96,1.8v-6l3.06-1.59v21.869H468.852z M468.881,397.472
		c-0.689-0.931-2.13-2.07-3.689-2.07c-2.22,0-3.42,1.68-3.42,5.01c0,3.96,1.26,5.7,3.54,5.7c1.47,0,2.76-0.99,3.569-2.011V397.472z"
		/>
</g>
<g enable-background="new    ">
	<path fill="#19152B" d="M129.107,444.961c-3.06,0-5.7-1.32-7.47-3.39l2.25-2.19c1.41,1.53,3.479,2.49,5.459,2.49
		c2.94,0,4.35-1.021,4.35-3.06c0-1.62-1.23-2.431-4.74-3.48c-4.44-1.319-6.57-2.43-6.57-6.18c0-3.63,3.06-5.85,6.93-5.85
		c2.85,0,5.01,1.05,6.87,2.85l-2.22,2.25c-1.32-1.35-2.82-2.01-4.89-2.01c-2.46,0-3.51,1.2-3.51,2.61c0,1.47,0.96,2.189,4.59,3.27
		c4.14,1.26,6.72,2.58,6.72,6.33C136.876,442.381,134.477,444.961,129.107,444.961z"/>
	<path fill="#19152B" d="M148.216,444.241c-0.75,0.42-1.8,0.72-3.03,0.72c-2.19,0-3.54-1.35-3.54-4.17v-9.09h-2.25v-2.819h2.25v-4.5
		l3.03-1.62v6.12h3.9v2.819h-3.9v8.55c0,1.47,0.48,1.89,1.62,1.89c0.81,0,1.71-0.3,2.28-0.63L148.216,444.241z"/>
	<path fill="#19152B" d="M161.356,444.631v-1.56c-1.08,1.079-2.61,1.89-4.32,1.89c-2.55,0-5.46-1.44-5.46-5.31
		c0-3.51,2.7-5.101,6.27-5.101c1.47,0,2.64,0.211,3.51,0.601v-1.17c0-1.71-1.05-2.67-2.97-2.67c-1.62,0-2.88,0.3-4.11,0.99
		l-1.2-2.34c1.5-0.931,3.18-1.41,5.4-1.41c3.51,0,5.91,1.71,5.91,5.279v10.8H161.356z M161.356,437.911
		c-0.84-0.42-1.92-0.69-3.6-0.69c-1.979,0-3.24,0.9-3.24,2.341c0,1.56,0.99,2.609,3.03,2.609c1.65,0,3.09-1.02,3.81-2.01V437.911z"
		/>
	<path fill="#19152B" d="M176.356,444.241c-0.75,0.42-1.8,0.72-3.03,0.72c-2.19,0-3.54-1.35-3.54-4.17v-9.09h-2.25v-2.819h2.25v-4.5
		l3.03-1.62v6.12h3.9v2.819h-3.9v8.55c0,1.47,0.48,1.89,1.62,1.89c0.81,0,1.71-0.3,2.28-0.63L176.356,444.241z"/>
	<path fill="#19152B" d="M193.006,437.852h-10.41c0.33,3.029,2.04,4.319,3.96,4.319c1.32,0,2.37-0.479,3.42-1.26l1.83,1.979
		c-1.38,1.32-3.03,2.07-5.43,2.07c-3.69,0-6.81-2.97-6.81-8.189c0-5.34,2.82-8.22,6.9-8.22c4.47,0,6.63,3.63,6.63,7.89
		C193.097,437.011,193.037,437.521,193.006,437.852z M186.257,431.342c-2.07,0-3.33,1.439-3.6,3.959h7.32
		C189.827,433.142,188.807,431.342,186.257,431.342z"/>
	<path fill="#19152B" d="M201.736,444.961c-2.13,0-4.44-0.84-6.03-2.01l1.41-2.34c1.47,1.02,3.12,1.56,4.59,1.56
		c1.95,0,2.88-0.63,2.88-1.74c0-1.199-1.38-1.77-3.66-2.64c-3.39-1.32-4.62-2.46-4.62-4.949c0-2.82,2.22-4.29,5.37-4.29
		c1.98,0,3.93,0.72,5.34,1.739l-1.35,2.37c-1.29-0.899-2.58-1.35-4.08-1.35c-1.5,0-2.16,0.6-2.16,1.439c0,0.78,0.54,1.351,2.91,2.28
		c3.51,1.35,5.31,2.31,5.31,5.279C207.646,443.791,204.826,444.961,201.736,444.961z"/>
	<path fill="#19152B" d="M229.156,444.631v-1.5c-0.78,1.14-2.34,1.83-3.96,1.83c-3.66,0-5.61-2.4-5.61-7.05v-9.029h3.09v8.909
		c0,3.18,1.2,4.32,3.24,4.32c2.07,0,3.24-1.471,3.24-4.021v-9.209h3.09v15.749H229.156z"/>
	<path fill="#19152B" d="M241.906,444.961c-2.13,0-4.44-0.84-6.03-2.01l1.41-2.34c1.47,1.02,3.12,1.56,4.59,1.56
		c1.95,0,2.88-0.63,2.88-1.74c0-1.199-1.38-1.77-3.66-2.64c-3.39-1.32-4.62-2.46-4.62-4.949c0-2.82,2.22-4.29,5.37-4.29
		c1.98,0,3.93,0.72,5.34,1.739l-1.35,2.37c-1.29-0.899-2.58-1.35-4.08-1.35c-1.5,0-2.16,0.6-2.16,1.439c0,0.78,0.54,1.351,2.91,2.28
		c3.51,1.35,5.31,2.31,5.31,5.279C247.815,443.791,244.996,444.961,241.906,444.961z"/>
	<path fill="#19152B" d="M264.165,437.852h-10.409c0.33,3.029,2.04,4.319,3.959,4.319c1.32,0,2.37-0.479,3.42-1.26l1.83,1.979
		c-1.38,1.32-3.03,2.07-5.43,2.07c-3.69,0-6.81-2.97-6.81-8.189c0-5.34,2.82-8.22,6.9-8.22c4.47,0,6.63,3.63,6.63,7.89
		C264.255,437.011,264.195,437.521,264.165,437.852z M257.416,431.342c-2.07,0-3.33,1.439-3.6,3.959h7.32
		C260.985,433.142,259.965,431.342,257.416,431.342z"/>
	<path fill="#19152B" d="M272.896,444.961c-2.131,0-4.44-0.84-6.03-2.01l1.41-2.34c1.47,1.02,3.121,1.56,4.589,1.56
		c1.951,0,2.881-0.63,2.881-1.74c0-1.199-1.381-1.77-3.66-2.64c-3.391-1.32-4.62-2.46-4.62-4.949c0-2.82,2.22-4.29,5.37-4.29
		c1.98,0,3.93,0.72,5.34,1.739l-1.35,2.37c-1.291-0.899-2.58-1.35-4.08-1.35s-2.16,0.6-2.16,1.439c0,0.78,0.54,1.351,2.91,2.28
		c3.51,1.35,5.31,2.31,5.31,5.279C278.805,443.791,275.986,444.961,272.896,444.961z"/>
	<path fill="#19152B" d="M303.554,437.852h-10.41c0.33,3.029,2.041,4.319,3.961,4.319c1.32,0,2.369-0.479,3.42-1.26l1.83,1.979
		c-1.381,1.32-3.03,2.07-5.43,2.07c-3.69,0-6.811-2.97-6.811-8.189c0-5.34,2.82-8.22,6.9-8.22c4.469,0,6.629,3.63,6.629,7.89
		C303.644,437.011,303.584,437.521,303.554,437.852z M296.804,431.342c-2.069,0-3.33,1.439-3.6,3.959h7.32
		C300.375,433.142,299.355,431.342,296.804,431.342z"/>
	<path fill="#19152B" d="M316.304,444.631v-1.56c-1.08,1.079-2.609,1.89-4.319,1.89c-2.55,0-5.46-1.44-5.46-5.31
		c0-3.51,2.7-5.101,6.27-5.101c1.471,0,2.641,0.211,3.51,0.601v-1.17c0-1.71-1.049-2.67-2.969-2.67c-1.621,0-2.881,0.3-4.11,0.99
		l-1.2-2.34c1.5-0.931,3.18-1.41,5.4-1.41c3.51,0,5.909,1.71,5.909,5.279v10.8H316.304z M316.304,437.911
		c-0.84-0.42-1.92-0.69-3.6-0.69c-1.979,0-3.24,0.9-3.24,2.341c0,1.56,0.99,2.609,3.03,2.609c1.649,0,3.09-1.02,3.81-2.01V437.911z"
		/>
	<path fill="#19152B" d="M333.674,433.411c-1.29-1.319-2.431-1.92-3.84-1.92c-2.25,0-3.69,2.01-3.69,5.22
		c0,3.09,1.32,5.31,3.78,5.31c1.47,0,2.34-0.659,3.569-1.949l1.98,1.949c-1.23,1.561-2.79,2.94-5.64,2.94
		c-3.84,0-6.81-3.24-6.81-8.16c0-5.22,3.06-8.249,6.899-8.249c2.31,0,4.11,0.93,5.579,2.67L333.674,433.411z"/>
	<path fill="#19152B" d="M349.003,444.631v-8.909c0-3.181-1.199-4.32-3.239-4.32c-2.07,0-3.24,1.47-3.24,4.02v9.21h-3.09v-20.249
		l3.09-1.62v7.62c0.78-1.141,2.34-1.83,3.96-1.83c3.66,0,5.609,2.399,5.609,7.05v9.029H349.003z"/>
	<path fill="#19152B" d="M370.123,450.181h-3.27l2.28-5.85l-5.79-15.449h3.391l2.58,7.709c0.479,1.38,1.199,3.72,1.379,4.59
		c0.271-0.93,0.93-3.18,1.41-4.529l2.67-7.77h3.27L370.123,450.181z"/>
	<path fill="#19152B" d="M393.253,437.852h-10.41c0.33,3.029,2.04,4.319,3.96,4.319c1.319,0,2.37-0.479,3.42-1.26l1.83,1.979
		c-1.38,1.32-3.03,2.07-5.43,2.07c-3.69,0-6.81-2.97-6.81-8.189c0-5.34,2.819-8.22,6.899-8.22c4.47,0,6.63,3.63,6.63,7.89
		C393.343,437.011,393.283,437.521,393.253,437.852z M386.503,431.342c-2.07,0-3.33,1.439-3.6,3.959h7.319
		C390.074,433.142,389.053,431.342,386.503,431.342z"/>
	<path fill="#19152B" d="M406.003,444.631v-1.56c-1.08,1.079-2.609,1.89-4.32,1.89c-2.549,0-5.459-1.44-5.459-5.31
		c0-3.51,2.699-5.101,6.27-5.101c1.47,0,2.64,0.211,3.51,0.601v-1.17c0-1.71-1.05-2.67-2.97-2.67c-1.62,0-2.88,0.3-4.11,0.99
		l-1.199-2.34c1.5-0.931,3.18-1.41,5.399-1.41c3.51,0,5.909,1.71,5.909,5.279v10.8H406.003z M406.003,437.911
		c-0.84-0.42-1.92-0.69-3.6-0.69c-1.98,0-3.24,0.9-3.24,2.341c0,1.56,0.99,2.609,3.029,2.609c1.65,0,3.09-1.02,3.811-2.01V437.911z"
		/>
	<path fill="#19152B" d="M422.023,432.151c-0.66-0.36-1.35-0.57-2.37-0.57c-1.95,0-3.09,1.38-3.09,4.05v9h-3.09v-15.749h3.09v1.5
		c0.72-1.051,2.04-1.83,3.601-1.83c1.26,0,2.039,0.239,2.67,0.66L422.023,432.151z"/>
</g>
</svg>
