<?xml version="1.0" encoding="utf-8"?>
<!-- Generator: Adobe Illustrator 15.1.0, SVG Export Plug-In . SVG Version: 6.00 Build 0)  -->
<!DOCTYPE svg PUBLIC "-//W3C//DTD SVG 1.1//EN" "http://www.w3.org/Graphics/SVG/1.1/DTD/svg11.dtd">
<svg version="1.1" id="Layer_1" xmlns="http://www.w3.org/2000/svg" xmlns:xlink="http://www.w3.org/1999/xlink" x="0px" y="0px"
	 width="536.378px" height="780.521px" viewBox="0 0 536.378 780.521" enable-background="new 0 0 536.378 780.521"
	 xml:space="preserve">
<rect x="56.69" y="386.761" fill="none" width="434.001" height="82"/>
<g enable-background="new    ">
	<path fill="#19152B" d="M83.988,408.631v-8.909c0-3.181-1.2-4.32-3.24-4.32c-2.07,0-3.24,1.47-3.24,4.02v9.21h-3.09v-15.749h3.09
		v1.5c0.78-1.141,2.34-1.83,3.96-1.83c3.66,0,5.61,2.399,5.61,7.05v9.029H83.988z"/>
	<path fill="#19152B" d="M100.967,408.631v-1.5c-0.78,1.14-2.34,1.83-3.96,1.83c-3.66,0-5.609-2.4-5.609-7.05v-9.029h3.09v8.909
		c0,3.18,1.2,4.32,3.24,4.32c2.07,0,3.24-1.471,3.24-4.021v-9.209h3.09v15.749H100.967z"/>
	<path fill="#19152B" d="M126.917,408.631v-8.909c0-3.181-0.99-4.32-3.03-4.32c-2.07,0-3.03,1.47-3.03,4.02v9.21h-3.09v-8.909
		c0-3.181-0.99-4.32-3.03-4.32c-2.07,0-3.03,1.47-3.03,4.02v9.21h-3.09v-15.749h3.09v1.5c0.78-1.141,2.13-1.83,3.75-1.83
		c2.13,0,3.48,0.81,4.32,2.31c1.14-1.41,2.37-2.31,4.83-2.31c3.66,0,5.4,2.399,5.4,7.05v9.029H126.917z"/>
	<path fill="#19152B" d="M141.467,408.961c-1.59,0-3.09-0.84-3.96-1.8v1.47h-3.06v-20.279l3.06-1.59v7.62
		c1.14-1.051,2.46-1.83,4.11-1.83c3.39,0,6.06,2.46,6.06,8.459C147.677,406.411,144.737,408.961,141.467,408.961z M141.047,395.401
		c-1.47,0-2.76,0.99-3.57,2.01v6.63c0.69,0.93,2.13,2.07,3.69,2.07c2.22,0,3.42-1.681,3.42-5.01
		C144.587,397.142,143.327,395.401,141.047,395.401z"/>
	<path fill="#19152B" d="M164.236,401.852h-10.41c0.33,3.029,2.04,4.319,3.96,4.319c1.32,0,2.37-0.479,3.42-1.26l1.83,1.979
		c-1.38,1.32-3.03,2.07-5.43,2.07c-3.69,0-6.81-2.97-6.81-8.189c0-5.34,2.82-8.22,6.9-8.22c4.47,0,6.63,3.63,6.63,7.89
		C164.327,401.011,164.267,401.521,164.236,401.852z M157.487,395.342c-2.07,0-3.33,1.439-3.6,3.959h7.32
		C161.057,397.142,160.037,395.342,157.487,395.342z"/>
	<path fill="#19152B" d="M176.716,396.151c-0.66-0.36-1.35-0.57-2.37-0.57c-1.95,0-3.09,1.38-3.09,4.05v9h-3.09v-15.749h3.09v1.5
		c0.72-1.051,2.04-1.83,3.6-1.83c1.26,0,2.04,0.239,2.67,0.66L176.716,396.151z"/>
	<path fill="#19152B" d="M194.986,408.961c-3.959,0-6.93-3.27-6.93-8.189c0-5.16,3.06-8.22,7.02-8.22c4.02,0,7.02,3.21,7.02,8.13
		C202.096,405.901,199.036,408.961,194.986,408.961z M194.956,395.491c-2.34,0-3.78,2.07-3.78,5.19c0,3.449,1.59,5.339,3.93,5.339
		s3.87-2.369,3.87-5.249C198.976,397.562,197.446,395.491,194.956,395.491z"/>
	<path fill="#19152B" d="M211.036,389.552c-1.02,0-1.44,0.39-1.44,1.53v1.8h2.91v2.88h-2.91v12.869h-3.09v-12.869h-2.04v-2.88h2.04
		v-2.07c0-2.88,1.77-3.96,3.99-3.96c0.81,0,1.68,0.12,2.34,0.3v2.7C212.116,389.642,211.576,389.552,211.036,389.552z"/>
	<path fill="#19152B" d="M229.516,414.421l-1.05-2.34c4.44-0.21,5.4-1.41,5.4-4.68v-0.271c-1.14,1.05-2.43,1.83-4.08,1.83
		c-3.36,0-6.06-2.46-6.06-8.46c0-5.399,2.97-7.949,6.21-7.949c1.59,0,3.09,0.84,3.93,1.8v-1.47h3.09v14.249
		C236.955,411.931,235.215,414.24,229.516,414.421z M233.925,397.472c-0.69-0.931-2.13-2.07-3.69-2.07c-2.22,0-3.42,1.68-3.42,5.01
		c0,3.96,1.26,5.7,3.54,5.7c1.47,0,2.76-0.99,3.57-2.011V397.472z"/>
	<path fill="#19152B" d="M250.545,408.631v-1.56c-1.08,1.079-2.61,1.89-4.32,1.89c-2.55,0-5.46-1.44-5.46-5.31
		c0-3.51,2.7-5.101,6.27-5.101c1.47,0,2.64,0.211,3.51,0.601v-1.17c0-1.71-1.05-2.67-2.97-2.67c-1.62,0-2.88,0.3-4.11,0.99
		l-1.2-2.34c1.5-0.931,3.18-1.41,5.4-1.41c3.51,0,5.91,1.71,5.91,5.279v10.8H250.545z M250.545,401.911
		c-0.84-0.42-1.92-0.69-3.6-0.69c-1.979,0-3.24,0.9-3.24,2.341c0,1.56,0.99,2.609,3.03,2.609c1.65,0,3.09-1.02,3.81-2.01V401.911z"
		/>
	<path fill="#19152B" d="M258.165,408.631v-20.249l3.09-1.62v21.869H258.165z"/>
	<path fill="#19152B" d="M266.115,408.631v-20.249l3.09-1.62v21.869H266.115z"/>
	<path fill="#19152B" d="M280.095,408.961c-3.96,0-6.93-3.27-6.93-8.189c0-5.16,3.06-8.22,7.02-8.22c4.02,0,7.02,3.21,7.02,8.13
		C287.205,405.901,284.144,408.961,280.095,408.961z M280.065,395.491c-2.34,0-3.78,2.07-3.78,5.19c0,3.449,1.59,5.339,3.93,5.339
		s3.871-2.369,3.871-5.249C284.085,397.562,282.554,395.491,280.065,395.491z"/>
	<path fill="#19152B" d="M300.584,408.631v-8.909c0-3.181-1.2-4.32-3.239-4.32c-2.07,0-3.24,1.47-3.24,4.02v9.21h-3.09v-15.749h3.09
		v1.5c0.779-1.141,2.34-1.83,3.959-1.83c3.66,0,5.61,2.399,5.61,7.05v9.029H300.584z"/>
	<path fill="#19152B" d="M313.214,408.961c-2.129,0-4.439-0.84-6.029-2.01l1.41-2.34c1.47,1.02,3.119,1.56,4.59,1.56
		c1.949,0,2.879-0.63,2.879-1.74c0-1.199-1.379-1.77-3.659-2.64c-3.39-1.32-4.62-2.46-4.62-4.949c0-2.82,2.221-4.29,5.37-4.29
		c1.979,0,3.93,0.72,5.34,1.739l-1.351,2.37c-1.289-0.899-2.58-1.35-4.08-1.35c-1.499,0-2.159,0.6-2.159,1.439
		c0,0.78,0.54,1.351,2.909,2.28c3.511,1.35,5.311,2.31,5.311,5.279C319.125,407.791,316.304,408.961,313.214,408.961z"/>
	<path fill="#19152B" d="M338.714,408.241c-0.75,0.42-1.801,0.72-3.03,0.72c-2.19,0-3.54-1.35-3.54-4.17v-9.09h-2.25v-2.819h2.25
		v-4.5l3.029-1.62v6.12h3.9v2.819h-3.9v8.55c0,1.47,0.48,1.89,1.621,1.89c0.81,0,1.709-0.3,2.279-0.63L338.714,408.241z"/>
	<path fill="#19152B" d="M352.843,408.631v-8.909c0-3.181-1.199-4.32-3.239-4.32c-2.07,0-3.24,1.47-3.24,4.02v9.21h-3.09v-20.249
		l3.09-1.62v7.62c0.78-1.141,2.34-1.83,3.96-1.83c3.66,0,5.609,2.399,5.609,7.05v9.029H352.843z"/>
	<path fill="#19152B" d="M373.064,401.852h-10.41c0.33,3.029,2.04,4.319,3.96,4.319c1.32,0,2.37-0.479,3.42-1.26l1.83,1.979
		c-1.38,1.32-3.03,2.07-5.43,2.07c-3.69,0-6.81-2.97-6.81-8.189c0-5.34,2.819-8.22,6.899-8.22c4.47,0,6.63,3.63,6.63,7.89
		C373.154,401.011,373.093,401.521,373.064,401.852z M366.314,395.342c-2.07,0-3.33,1.439-3.6,3.959h7.319
		C369.884,397.142,368.864,395.342,366.314,395.342z"/>
	<path fill="#19152B" d="M393.283,408.961c-5.189,0-7.89-3.36-7.89-9.149v-12.18h3.149v12.09c0,3.959,1.65,6.089,4.8,6.089
		c3.3,0,4.86-2.039,4.86-5.879v-12.3h3.149v12.239C401.352,405.751,398.502,408.961,393.283,408.961z"/>
	<path fill="#19152B" d="M415.783,408.631v-8.909c0-3.181-1.2-4.32-3.24-4.32c-2.069,0-3.239,1.47-3.239,4.02v9.21h-3.09v-15.749
		h3.09v1.5c0.779-1.141,2.34-1.83,3.96-1.83c3.659,0,5.609,2.399,5.609,7.05v9.029H415.783z"/>
	<path fill="#19152B" d="M425.023,390.842c-1.11,0-2.011-0.9-2.011-1.98c0-1.109,0.9-2.01,2.011-2.01c1.079,0,1.979,0.9,1.979,2.01
		C427.002,389.941,426.102,390.842,425.023,390.842z M423.462,408.631v-15.749h3.09v15.749H423.462z"/>
	<path fill="#19152B" d="M438.792,408.241c-0.75,0.42-1.8,0.72-3.03,0.72c-2.189,0-3.539-1.35-3.539-4.17v-9.09h-2.25v-2.819h2.25
		v-4.5l3.029-1.62v6.12h3.9v2.819h-3.9v8.55c0,1.47,0.48,1.89,1.62,1.89c0.81,0,1.71-0.3,2.28-0.63L438.792,408.241z"/>
	<path fill="#19152B" d="M455.443,401.852h-10.41c0.33,3.029,2.04,4.319,3.96,4.319c1.32,0,2.37-0.479,3.42-1.26l1.83,1.979
		c-1.38,1.32-3.03,2.07-5.43,2.07c-3.69,0-6.81-2.97-6.81-8.189c0-5.34,2.819-8.22,6.899-8.22c4.47,0,6.63,3.63,6.63,7.89
		C455.533,401.011,455.472,401.521,455.443,401.852z M448.693,395.342c-2.07,0-3.33,1.439-3.6,3.959h7.319
		C452.262,397.142,451.243,395.342,448.693,395.342z"/>
	<path fill="#19152B" d="M468.852,408.631v-1.5c-1.141,1.05-2.46,1.83-4.11,1.83c-3.39,0-6.06-2.46-6.06-8.46
		c0-5.399,2.94-7.949,6.21-7.949c1.59,0,3.09,0.84,3.96,1.8v-6l3.06-1.59v21.869H468.852z M468.881,397.472
		c-0.689-0.931-2.13-2.07-3.689-2.07c-2.22,0-3.42,1.68-3.42,5.01c0,3.96,1.26,5.7,3.54,5.7c1.47,0,2.76-0.99,3.569-2.011V397.472z"
		/>
</g>
<g enable-background="new    ">
	<path fill="#19152B" d="M135.137,444.961c-3.06,0-5.7-1.32-7.47-3.39l2.25-2.19c1.41,1.53,3.479,2.49,5.459,2.49
		c2.94,0,4.35-1.021,4.35-3.06c0-1.62-1.23-2.431-4.74-3.48c-4.44-1.319-6.57-2.43-6.57-6.18c0-3.63,3.06-5.85,6.93-5.85
		c2.85,0,5.01,1.05,6.87,2.85l-2.22,2.25c-1.32-1.35-2.82-2.01-4.89-2.01c-2.46,0-3.51,1.2-3.51,2.61c0,1.47,0.96,2.189,4.59,3.27
		c4.14,1.26,6.72,2.58,6.72,6.33C142.907,442.381,140.507,444.961,135.137,444.961z"/>
	<path fill="#19152B" d="M154.247,444.241c-0.75,0.42-1.8,0.72-3.03,0.72c-2.19,0-3.54-1.35-3.54-4.17v-9.09h-2.25v-2.819h2.25v-4.5
		l3.03-1.62v6.12h3.9v2.819h-3.9v8.55c0,1.47,0.48,1.89,1.62,1.89c0.81,0,1.71-0.3,2.28-0.63L154.247,444.241z"/>
	<path fill="#19152B" d="M167.387,444.631v-1.56c-1.08,1.079-2.61,1.89-4.32,1.89c-2.55,0-5.46-1.44-5.46-5.31
		c0-3.51,2.7-5.101,6.27-5.101c1.47,0,2.64,0.211,3.51,0.601v-1.17c0-1.71-1.05-2.67-2.97-2.67c-1.62,0-2.88,0.3-4.11,0.99
		l-1.2-2.34c1.5-0.931,3.18-1.41,5.4-1.41c3.51,0,5.91,1.71,5.91,5.279v10.8H167.387z M167.387,437.911
		c-0.84-0.42-1.92-0.69-3.6-0.69c-1.979,0-3.24,0.9-3.24,2.341c0,1.56,0.99,2.609,3.03,2.609c1.65,0,3.09-1.02,3.81-2.01V437.911z"
		/>
	<path fill="#19152B" d="M182.386,444.241c-0.75,0.42-1.8,0.72-3.03,0.72c-2.19,0-3.54-1.35-3.54-4.17v-9.09h-2.25v-2.819h2.25v-4.5
		l3.03-1.62v6.12h3.9v2.819h-3.9v8.55c0,1.47,0.48,1.89,1.62,1.89c0.81,0,1.71-0.3,2.28-0.63L182.386,444.241z"/>
	<path fill="#19152B" d="M199.037,437.852h-10.41c0.33,3.029,2.04,4.319,3.96,4.319c1.32,0,2.37-0.479,3.42-1.26l1.83,1.979
		c-1.38,1.32-3.03,2.07-5.43,2.07c-3.69,0-6.81-2.97-6.81-8.189c0-5.34,2.82-8.22,6.9-8.22c4.47,0,6.63,3.63,6.63,7.89
		C199.127,437.011,199.067,437.521,199.037,437.852z M192.287,431.342c-2.07,0-3.33,1.439-3.6,3.959h7.32
		C195.857,433.142,194.837,431.342,192.287,431.342z"/>
	<path fill="#19152B" d="M207.767,444.961c-2.13,0-4.44-0.84-6.03-2.01l1.41-2.34c1.47,1.02,3.12,1.56,4.59,1.56
		c1.95,0,2.88-0.63,2.88-1.74c0-1.199-1.38-1.77-3.66-2.64c-3.39-1.32-4.62-2.46-4.62-4.949c0-2.82,2.22-4.29,5.37-4.29
		c1.98,0,3.93,0.72,5.34,1.739l-1.35,2.37c-1.29-0.899-2.58-1.35-4.08-1.35c-1.5,0-2.16,0.6-2.16,1.439c0,0.78,0.54,1.351,2.91,2.28
		c3.51,1.35,5.31,2.31,5.31,5.279C213.676,443.791,210.856,444.961,207.767,444.961z"/>
	<path fill="#19152B" d="M235.186,444.631v-1.5c-0.78,1.14-2.34,1.83-3.96,1.83c-3.66,0-5.61-2.4-5.61-7.05v-9.029h3.09v8.909
		c0,3.18,1.2,4.32,3.24,4.32c2.07,0,3.24-1.471,3.24-4.021v-9.209h3.09v15.749H235.186z"/>
	<path fill="#19152B" d="M247.936,444.961c-2.13,0-4.44-0.84-6.03-2.01l1.41-2.34c1.47,1.02,3.12,1.56,4.59,1.56
		c1.95,0,2.88-0.63,2.88-1.74c0-1.199-1.38-1.77-3.66-2.64c-3.39-1.32-4.62-2.46-4.62-4.949c0-2.82,2.22-4.29,5.37-4.29
		c1.98,0,3.93,0.72,5.34,1.739l-1.35,2.37c-1.29-0.899-2.58-1.35-4.08-1.35c-1.5,0-2.16,0.6-2.16,1.439c0,0.78,0.54,1.351,2.91,2.28
		c3.51,1.35,5.31,2.31,5.31,5.279C253.846,443.791,251.026,444.961,247.936,444.961z"/>
	<path fill="#19152B" d="M270.195,437.852h-10.409c0.33,3.029,2.04,4.319,3.959,4.319c1.32,0,2.37-0.479,3.42-1.26l1.83,1.979
		c-1.38,1.32-3.03,2.07-5.43,2.07c-3.69,0-6.81-2.97-6.81-8.189c0-5.34,2.82-8.22,6.9-8.22c4.47,0,6.63,3.63,6.63,7.89
		C270.286,437.011,270.226,437.521,270.195,437.852z M263.446,431.342c-2.07,0-3.33,1.439-3.6,3.959h7.32
		C267.016,433.142,265.996,431.342,263.446,431.342z"/>
	<path fill="#19152B" d="M278.925,444.961c-2.129,0-4.439-0.84-6.029-2.01l1.41-2.34c1.47,1.02,3.119,1.56,4.59,1.56
		c1.949,0,2.879-0.63,2.879-1.74c0-1.199-1.379-1.77-3.659-2.64c-3.39-1.32-4.62-2.46-4.62-4.949c0-2.82,2.221-4.29,5.37-4.29
		c1.979,0,3.93,0.72,5.34,1.739l-1.351,2.37c-1.289-0.899-2.58-1.35-4.08-1.35c-1.499,0-2.159,0.6-2.159,1.439
		c0,0.78,0.54,1.351,2.909,2.28c3.511,1.35,5.311,2.31,5.311,5.279C284.835,443.791,282.015,444.961,278.925,444.961z"/>
	<path fill="#19152B" d="M309.584,437.852h-10.409c0.33,3.029,2.039,4.319,3.959,4.319c1.32,0,2.371-0.479,3.42-1.26l1.83,1.979
		c-1.379,1.32-3.029,2.07-5.43,2.07c-3.689,0-6.81-2.97-6.81-8.189c0-5.34,2.819-8.22,6.899-8.22c4.471,0,6.631,3.63,6.631,7.89
		C309.675,437.011,309.615,437.521,309.584,437.852z M302.835,431.342c-2.07,0-3.33,1.439-3.601,3.959h7.319
		C306.405,433.142,305.384,431.342,302.835,431.342z"/>
	<path fill="#19152B" d="M322.335,444.631v-1.56c-1.08,1.079-2.61,1.89-4.32,1.89c-2.55,0-5.46-1.44-5.46-5.31
		c0-3.51,2.7-5.101,6.271-5.101c1.469,0,2.639,0.211,3.51,0.601v-1.17c0-1.71-1.051-2.67-2.971-2.67c-1.619,0-2.879,0.3-4.109,0.99
		l-1.2-2.34c1.5-0.931,3.181-1.41,5.399-1.41c3.51,0,5.91,1.71,5.91,5.279v10.8H322.335z M322.335,437.911
		c-0.84-0.42-1.92-0.69-3.601-0.69c-1.979,0-3.239,0.9-3.239,2.341c0,1.56,0.99,2.609,3.029,2.609c1.65,0,3.09-1.02,3.811-2.01
		V437.911z"/>
	<path fill="#19152B" d="M339.705,433.411c-1.29-1.319-2.43-1.92-3.84-1.92c-2.25,0-3.689,2.01-3.689,5.22
		c0,3.09,1.319,5.31,3.779,5.31c1.47,0,2.34-0.659,3.57-1.949l1.979,1.949c-1.229,1.561-2.79,2.94-5.64,2.94
		c-3.84,0-6.811-3.24-6.811-8.16c0-5.22,3.061-8.249,6.9-8.249c2.311,0,4.109,0.93,5.58,2.67L339.705,433.411z"/>
	<path fill="#19152B" d="M355.035,444.631v-8.909c0-3.181-1.201-4.32-3.24-4.32c-2.07,0-3.24,1.47-3.24,4.02v9.21h-3.09v-20.249
		l3.09-1.62v7.62c0.78-1.141,2.34-1.83,3.96-1.83c3.659,0,5.61,2.399,5.61,7.05v9.029H355.035z"/>
	<path fill="#19152B" d="M380.144,444.631v-1.5c-1.141,1.05-2.461,1.83-4.11,1.83c-3.39,0-6.06-2.46-6.06-8.46
		c0-5.399,2.939-7.949,6.209-7.949c1.59,0,3.09,0.84,3.961,1.8v-6l3.059-1.59v21.869H380.144z M380.173,433.472
		c-0.689-0.931-2.13-2.07-3.689-2.07c-2.221,0-3.42,1.68-3.42,5.01c0,3.96,1.26,5.7,3.539,5.7c1.471,0,2.76-0.99,3.57-2.011V433.472
		z"/>
	<path fill="#19152B" d="M396.792,444.631v-1.56c-1.08,1.079-2.609,1.89-4.319,1.89c-2.55,0-5.46-1.44-5.46-5.31
		c0-3.51,2.7-5.101,6.27-5.101c1.471,0,2.641,0.211,3.51,0.601v-1.17c0-1.71-1.049-2.67-2.969-2.67c-1.621,0-2.881,0.3-4.11,0.99
		l-1.2-2.34c1.5-0.931,3.18-1.41,5.4-1.41c3.51,0,5.909,1.71,5.909,5.279v10.8H396.792z M396.792,437.911
		c-0.84-0.42-1.92-0.69-3.6-0.69c-1.979,0-3.24,0.9-3.24,2.341c0,1.56,0.99,2.609,3.03,2.609c1.649,0,3.09-1.02,3.81-2.01V437.911z"
		/>
	<path fill="#19152B" d="M409.302,450.181h-3.27l2.28-5.85l-5.79-15.449h3.391l2.58,7.709c0.479,1.38,1.199,3.72,1.379,4.59
		c0.271-0.93,0.93-3.18,1.41-4.529l2.67-7.77h3.27L409.302,450.181z"/>
</g>
<path fill="#19152B" d="M57.892,594.841c0.348,2.392-1.561,3.587-1.3,5.376c1.088,7.471,5.819,13.452,14.734,15.539
	c6.409-0.894,13.081,14.343,14.074,19.127l0.043,0.297c7.128,0,14.681-1.194,18.411,0l25.639,12.854h26.137l1.429-4.481
	c7.429,0,9.674,1.196,14.255,0c0.826,5.672,7.326,7.478,8.954,10.462c4.051,7.47,5.06,16.434,12.784,16.434
	c4.159,0,4.936-6.871,11.478-6.871c12.463,0,15.249,19.127,18.52,29.287c2.055,5.978,13.606,7.769,18.567,9.261h0.6
	c-0.653-4.482-2.762-12.848-1.548-16.735c1.219-3.884,8.424-7.466,7.641-12.848c7.126,0,10.262-2.988,14.655-5.385
	c1.947-0.887,0.03-3.876,3.208-4.479c0,0,1.532,0.298,3.31,0.298c1.785,0,1.394-2.688,4.661-2.688c4.156,0,6.629,2.688,10.786,2.688
	c2.075,0,3.478-0.595,5.769-1.189c2.176,2.686,4.346,5.371,8.799,5.371c2.973,0,2.457-1.487,6.021-1.487
	c2.08,0,2.812,2.986,5.191,2.986c0.295,0,0.76-0.896,0.76-0.896l-0.262-1.79c-1.779,0-3.234-1.804-3.32-2.396
	c-0.307-2.096-0.436-2.987-1.088-7.464c2.67,0,7.93-0.605,9.584-1.501l6.707,1.193c1.193,0,2.377,0,3.051-1.498h8.91
	c0.771,1.197,7.436,2.096,7.783,4.481c0.131,0.899-0.246,2.396,0.438,2.994l1.521,0.296c3.479-0.6,4.32-2.987,7.756-3.883
	c3.105,0.896,7.004,1.188,7.525,4.776c0.438,2.994,2.312,5.681,5.416,6.575c-0.371,3.586-2.727,4.296-2.201,7.881
	c0.221,1.501,1.977,2.878,3.004,3.771c-0.854,0.303-1.271,1.501-1.141,2.396c0.479,3.29,2.062,5.979,4.787,8.372
	c0.516,1.486,0.393,2.688,0.738,5.08c0.521,3.582,6.146,9.563,8.814,9.563c0.891,0,2.074,0,2.971,0
	c-0.391-2.692,0.49-4.785,0.994-7.474l0.043,0.297c-0.348-2.39,1.303-3.28,0.865-6.276c-0.609-4.184,0.186-6.877-0.424-11.061
	c-0.914-6.271-6.412-13.444-7.674-22.105c-1.523-10.463,2.059-18.533,7.373-24.812c3.24,1.804,3.729-2.985,6.568-3.884
	c6.527-2.092,3.613-9.864,11.633-9.864l-0.26-1.785c0.68,0.595,2.076,0,2.971,0c3.254-2.095,3.363-7.476,8.713-7.476
	c1.779,0,3.857,0,4.828-1.489c-3.387-3.857,1.244-4.403,4.99-6.607l0.037,0.332c0.795-2.692,3.555-2.097,4.949-4.785
	c-2.379-2.088-1.52-6.273-4.232-8.668c-1.359-1.188-2.504-0.896-3.703-2.987c1.484,0,2.125,0.301,3.947,0.593
	c-2.254-1.186-0.174-1.186-0.219-3.573c0.678,0.594,1.604,0.891,2.5,0.891c1.484,0,2.24-0.891,3.645-1.489
	c-1.027-2.985-1.377-5.382-3.301-8.37l-0.305-2.094c1.453,1.796,2.02,5.68,6.176,5.68c2.082,0,2.58-2.688,2.27-4.782
	c-0.303-2.081-0.91-6.271-1.479-10.162c0,0,0.436,2.945,1.918,2.945c-0.674,1.495,0.162,1.646,1.66,3.738
	c0.887-2.093,1.865-3.987,4.062-5.187l0.342,0.303c1.652-0.896,4.6-7.173,4.771-8.073c0.238-2.392-2.271-5.38,0.568-6.271
	c0.297,0,3.303,0.296,5.385,0.296c3.568,0,5.262-0.602,7.461-1.791h-9.803c4.701-2.393,11.152-0.9,16.666-3.892
	c1.395-0.593,1.895-3.281,3.09-3.281c4.146,0,8.662,2.389,10.766-1.495l-1.359-1.194c-0.551,0.296-1.311,1.194-2.205,1.194
	c-0.889,0-1.477,0-2.371,0c1.012-1.194-0.436-2.991-0.695-4.781c-0.609-4.188,2.475-6.156,2.459-10.338
	c6.535-6.942,21.006-8.646,30.293-13.566c-0.729-0.899-4.27-8.968-4.449-10.164c-0.52-3.583,1.635-5.082,2.604-8.663l-10.279-3.286
	c-10.396,0-9.344,21.514-22.109,21.514c-1.186,0-2.252,0.901-3.438,0.901c-5.986-0.302-1.779,0-17.232,0
	c-11.188,2.687-16.445,15.536-27.432,15.536c-2.371,0-3.875-2.092-6.246-2.092c-6.535,0-4.941,6.872-7.602,8.961
	c-3.73,2.987-20.668,11.062-25.73,11.062c-2.371,0-7.592-1.196-7.852-2.987c-1.045-7.173,11.518-6.575,10.518-13.447
	c-0.131-0.896-2.256-1.2-2.387-2.094c-0.434-2.986,1.047-2.986-1.896-6.872c-1.354,0.896-2.402,1.793-2.988,3.886H376
	c1.26-3.586,7.312-6.875,6.443-12.854c-0.521-3.584-3.92-4.479-5.105-4.479c-1.791,0-4.379,0.595-5.938,0
	c-3.891,5.978-11.012,8.066-15.059,14.94c-3.541,6.271,2.584,21.812-10.789,21.812c-1.475,0-3.98-0.896-4.199-2.389
	c-1.307-8.969,5.486-19.427,9.115-25.104c-1.334-5.082,7.418-12.253,12.182-12.253c2.66,0,5.336,0,9.787,0
	c3.568,0,4.16-2.094,6.908-3.584c-6.543-2.093-11.246,0.297-15.193-2.391c-3.398-0.9-8.789,0.891-9.789-5.979
	c-1.346,0.895-2.791,1.194-4.584-0.896c0.303,0,1.355-0.896,2.762-1.491c-8.658,1.787-15.555,5.373-23.875,5.373
	c0,0-4.068,0.6-6.021-0.595c3.836-6.279,9.945-5.081,15.697-10.461c-3.266,0-9.762-1.794-12.229-2.395l0.131,0.899
	c-2.545-1.197-3.904-2.395-6.291-2.395c-1.482,0-2.369,0-3.855,0c-3.867,0-8.281-1.791-8.979-6.572H96.822
	c-2.023,2.389-0.248,12.551-5.589,12.551h-0.601c-0.479-3.287-4.084-3.584-8.075-4.483c0,0-10.525,35.514-20.468,43.733
	c-3.476,2.872-6.744,15.008-6.744,15.008s0.576,8.899-5.394,16.371c1.069,1.196,0.983,3.488,1.287,5.574
	c0.13,0.896,0.174,1.188,0.306,2.1c-1.401,0.592-1.096,2.688-0.966,3.58c0.479,3.292,3.944,10.755,3.944,10.755
	c1.483,0,3.605-1.79,3.605-1.79c1.483,0,4.281,0.896,4.281,0.896c-1.951,0.894-5.64,0-5.334,2.092
	c0.13,0.896,0.557,1.791,0.983,2.688c-0.889,0-2.464-0.595-3.143-1.19c0.043,0.296-0.419,1.19-0.375,1.498
	c0.348,2.39,1.166,5.972,3.543,5.972c0.13,0.896,0.218,1.498,0.349,2.396c0.13,0.895-0.08,1.487-0.843,2.391h0.304V594.841z"/>
<g enable-background="new    ">
	<path fill="#19152B" d="M274.322,271.656v17.159h-16.2v-17.159h-45.958v-15.119l44.518-51.718h17.64v51.237h11.039v15.6H274.322z
		 M251.042,233.498l-12,14.039c-2.64,3.12-6.12,6.96-7.919,8.76c2.88,0,11.879-0.24,16.679-0.24h10.319v-13.68
		c0-4.8,0.36-15.239,0.36-18.358C256.922,226.178,253.802,230.258,251.042,233.498z"/>
	<path fill="#19152B" d="M331.441,290.136c-22.919,0-35.158-17.76-35.158-43.318c0-25.56,12.359-43.318,35.278-43.318
		s35.278,17.52,35.278,43.078S354.361,290.136,331.441,290.136z M331.441,219.938c-12.84,0-18.119,11.64-18.119,26.639
		s5.4,27.119,18.239,27.119s18.239-11.88,18.239-26.879C349.8,231.817,344.281,219.938,331.441,219.938z"/>
	<path fill="#19152B" d="M414,290.136c-22.919,0-35.158-17.76-35.158-43.318c0-25.56,12.359-43.318,35.278-43.318
		s35.278,17.52,35.278,43.078S436.919,290.136,414,290.136z M414,219.938c-12.84,0-18.119,11.64-18.119,26.639
		s5.4,27.119,18.239,27.119s18.239-11.88,18.239-26.879C432.359,231.817,426.839,219.938,414,219.938z"/>
</g>
<g enable-background="new    ">
	<path fill="#19152B" d="M276.218,350.76c-2.299,0-4.3-0.899-5.55-2.05v1.5h-6.9v-33.002l6.9-3.45v11.851
		c1.3-1.15,3.05-2.2,5.55-2.2c5.602,0,10.201,4.2,10.201,14.001C286.419,345.26,282.719,350.76,276.218,350.76z M274.919,329.909
		c-2.15,0-3.251,0.899-4.251,2.199v9.901c1.05,1.45,2.65,2.25,4.65,2.25c2.65,0,4.101-2.301,4.101-6.7
		C279.419,332.159,277.619,329.909,274.919,329.909z"/>
	<path fill="#19152B" d="M295.568,321.809c-2.15,0-3.95-1.801-3.95-3.95c0-2.15,1.8-3.95,3.95-3.95s3.95,1.8,3.95,3.95
		C299.518,320.008,297.718,321.809,295.568,321.809z M292.118,350.21v-26.252h6.9v26.252H292.118z"/>
	<path fill="#19152B" d="M306.218,350.21v-33.002l6.9-3.45v36.452H306.218z"/>
	<path fill="#19152B" d="M320.318,350.21v-33.002l6.9-3.45v36.452H320.318z"/>
	<path fill="#19152B" d="M337.868,321.809c-2.149,0-3.95-1.801-3.95-3.95c0-2.15,1.801-3.95,3.95-3.95c2.15,0,3.95,1.8,3.95,3.95
		C341.818,320.008,340.018,321.809,337.868,321.809z M334.417,350.21v-26.252h6.9v26.252H334.417z"/>
	<path fill="#19152B" d="M358.769,350.76c-6.852,0-11.852-5.601-11.852-13.65c0-8.051,5-13.701,11.852-13.701
		c6.85,0,11.9,5.65,11.9,13.701C370.669,345.159,365.619,350.76,358.769,350.76z M358.769,330.059c-3.301,0-4.852,3-4.852,7.051
		c0,4.05,1.551,7,4.852,7c3.299,0,4.899-3.35,4.899-7C363.668,333.109,362.068,330.059,358.769,330.059z"/>
	<path fill="#19152B" d="M391.869,350.21v-14.201c0-4.7-1.601-6.1-4.451-6.1c-2.85,0-4.5,1.399-4.5,5.95v14.351h-6.9v-26.252h6.9
		v1.75c1.2-1.25,3.4-2.3,6.15-2.3c6.701,0,9.701,4.601,9.701,12.001v14.801H391.869z"/>
</g>
<g>
	<g enable-background="new    ">
		<path fill="#6BBDC4" d="M185.578,590.657c0.292-8.549,5.463-12.344,11.218-15.764c3.961-2.335,4.962-3.628,4.962-5.671
			c0-2.336-1.584-3.837-5.588-3.837c-2.46,0-5.171,1.126-7.048,2.919l-2.794-3.336c2.627-2.461,6.339-3.962,9.967-3.962
			c6.047,0,9.925,2.586,9.925,7.965c0,4.504-2.21,6.423-7.34,9.467c-5.588,3.295-7.173,5.171-7.84,7.965h15.471v4.254H185.578z"/>
	</g>
	<g enable-background="new    ">
		<path fill="#6BBDC4" d="M231.744,584.11v6.547h-4.253v-6.422h-15.805v-4.171l15.054-18.599h5.004v18.766h3.878v3.879H231.744z
			 M224.988,569.848l-5.63,7.173c-0.875,1.126-2.126,2.586-2.752,3.253c1,0,3.211-0.042,4.712-0.042h6.172v-8.507
			c0-1.668,0.125-4.254,0.125-5.338C227.074,567.137,225.948,568.639,224.988,569.848z"/>
	</g>
	<g enable-background="new    ">
		<path fill="#6BBDC4" d="M265.526,590.657v-12.386c0-4.42-1.668-6.005-4.503-6.005c-2.877,0-4.504,2.043-4.504,5.588v12.803h-4.295
			v-28.149l4.295-2.252v10.593c1.084-1.585,3.252-2.544,5.504-2.544c5.088,0,7.798,3.336,7.798,9.8v12.553H265.526z"/>
	</g>
	<g enable-background="new    ">
		<path fill="#6BBDC4" d="M287.88,573.31c-0.918-0.501-1.877-0.793-3.295-0.793c-2.711,0-4.295,1.918-4.295,5.63v12.511h-4.295
			v-21.894h4.295v2.085c1-1.46,2.836-2.544,5.004-2.544c1.752,0,2.836,0.334,3.712,0.918L287.88,573.31z"/>
	</g>
	<g enable-background="new    ">
		<path fill="#6BBDC4" d="M300.518,591.116c-2.961,0-6.172-1.168-8.382-2.794l1.959-3.253c2.044,1.418,4.338,2.168,6.381,2.168
			c2.711,0,4.004-0.875,4.004-2.418c0-1.669-1.918-2.461-5.088-3.67c-4.713-1.835-6.422-3.42-6.422-6.881
			c0-3.92,3.086-5.964,7.465-5.964c2.752,0,5.463,1.001,7.422,2.419l-1.876,3.294c-1.793-1.251-3.587-1.876-5.671-1.876
			c-2.086,0-3.003,0.834-3.003,2.002c0,1.084,0.751,1.876,4.045,3.169c4.88,1.877,7.382,3.211,7.382,7.34
			C308.734,589.489,304.814,591.116,300.518,591.116z"/>
	</g>
</g>
</svg>
