<?xml version="1.0" encoding="utf-8"?>
<!-- Generator: Adobe Illustrator 15.1.0, SVG Export Plug-In . SVG Version: 6.00 Build 0)  -->
<!DOCTYPE svg PUBLIC "-//W3C//DTD SVG 1.1//EN" "http://www.w3.org/Graphics/SVG/1.1/DTD/svg11.dtd">
<svg version="1.1" id="Layer_1" xmlns="http://www.w3.org/2000/svg" xmlns:xlink="http://www.w3.org/1999/xlink" x="0px" y="0px"
	 width="536.378px" height="780.521px" viewBox="0 0 536.378 780.521" enable-background="new 0 0 536.378 780.521"
	 xml:space="preserve">
<g>
	<path fill="#6ABCC3" d="M330.794,47.392l-2.105,10.53c18.959,9.479,17.902,17.903,17.902,17.903
		c20.01,5.263,109.521,70.558,109.521,70.558c43.176,28.433,43.176,48.442,43.176,48.442
		c50.553,211.678,34.752,419.134,34.752,419.134c-26.328,106.364-67.396,119.005-67.396,119.005
		C435.048,754.024,331.851,779.3,331.851,779.3c-36.859,7.373-57.921-21.062-57.921-21.062c-20.01-28.438-41.069,0-41.069,0
		c-16.853,31.595-57.922,15.798-57.922,15.798c-17.903-3.157-101.101-38.964-101.101-38.964
		c-61.081-27.388-73.72-130.586-73.72-130.586c-1.052-20.015,5.267-153.751,5.267-153.751
		c4.915-23.522,67.401-314.881,67.401-314.881c12.635-31.595,121.105-69.508,121.105-69.508v-5.267
		c7.373-1.051,12.637-6.318,12.637-6.318l1.055-4.212l-3.161-6.318l8.424-12.636l2.175-18.333l100.025,15.161L330.794,47.392z
		 M163.352,163.23c0,0-30.543-35.806-51.604,10.534c0,0-23.17,112.683-9.479,171.655c0,0,5.267,15.797,15.798,7.373l11.584-4.212
		C129.651,348.581,139.13,358.056,163.352,163.23z"/>
	<path fill="#19152B" d="M210.215,35.279c0,0,45.303,0.528,111.105,0.528V0H212.368L210.215,35.279z"/>
</g>
<rect x="56.69" y="386.761" fill="none" width="434.001" height="82"/>
<text transform="matrix(1 0 0 1 75.1978 408.6309)" fill="#19152B" font-family="'Interstate-Regular'" font-size="30">number of gallons estimated </text>
<text transform="matrix(1 0 0 1 107.373 444.6309)" fill="#19152B" font-family="'Interstate-Regular'" font-size="30">to be in the atmosphere</text>
<text transform="matrix(1 0 0 1 222.7314 288.8154)" fill="#19152B" font-family="'Interstate-Bold'" font-size="120">341</text>
<text transform="matrix(1 0 0 1 201.3555 350.21)" fill="#19152B" font-family="'Interstate-Bold'" font-size="50">quadrillion</text>
<path fill="none" stroke="#19162B" stroke-width="6" stroke-miterlimit="10" d="M393.408,504.457
	c1.258-2.55,1.967-5.418,1.967-8.454c0-10.578-8.572-19.151-19.15-19.151c-5.812,0-11.021,2.599-14.531,6.69
	c-3.098-2.147-6.852-3.408-10.9-3.408c-10.578,0-19.152,8.574-19.152,19.15c0,1.202,0.117,2.377,0.328,3.518
	c-9.635,1.002-17.146,9.146-17.146,19.048c0,10.575,8.572,19.149,19.148,19.149c4.672,0,8.953-1.675,12.275-4.455
	c3.387,3.024,7.854,4.865,12.752,4.865c5.875,0,11.131-2.649,14.645-6.817c3.496,4.639,9.049,7.638,15.305,7.638
	c10.578,0,19.148-8.572,19.148-19.148C408.091,514.041,401.832,506.471,393.408,504.457z"/>
<path fill="none" stroke="#19162B" stroke-width="8" stroke-miterlimit="10" d="M456.488,603.316
	c1.906-3.862,2.979-8.207,2.979-12.808c0-16.021-12.979-29.007-29.004-29.007c-8.809,0-16.695,3.935-22.016,10.135
	c-4.688-3.253-10.373-5.162-16.51-5.162c-16.02,0-29.006,12.986-29.006,29.006c0,1.819,0.176,3.602,0.496,5.327
	c-14.594,1.519-25.973,13.854-25.973,28.851c0,16.019,12.984,29.005,29.006,29.005c7.076,0,13.559-2.537,18.592-6.748
	c5.129,4.58,11.895,7.369,19.312,7.369c8.896,0,16.857-4.015,22.182-10.325c5.295,7.024,13.705,11.567,23.18,11.567
	c16.02,0,29.004-12.987,29.004-29.005C478.73,617.832,469.246,606.366,456.488,603.316z"/>
<path fill="none" stroke="#19162B" stroke-width="8" stroke-miterlimit="10" d="M254.337,549.917
	c2.869-5.812,4.482-12.354,4.482-19.272c0-24.106-19.542-43.65-43.651-43.65c-13.259,0-25.126,5.92-33.134,15.249
	c-7.053-4.895-15.611-7.769-24.843-7.769c-24.111,0-43.652,19.545-43.652,43.65c0,2.74,0.264,5.42,0.747,8.02
	c-21.964,2.282-39.089,20.848-39.089,43.414c0,24.108,19.543,43.652,43.651,43.652c10.65,0,20.405-3.818,27.982-10.156
	c7.718,6.896,17.898,11.089,29.062,11.089c13.396,0,25.376-6.038,33.382-15.533c7.969,10.566,20.625,17.404,34.884,17.404
	c24.107,0,43.651-19.542,43.651-43.65C287.81,571.763,273.535,554.506,254.337,549.917z"/>
</svg>
