<?xml version="1.0" encoding="utf-8"?>
<!-- Generator: Adobe Illustrator 15.1.0, SVG Export Plug-In . SVG Version: 6.00 Build 0)  -->
<!DOCTYPE svg PUBLIC "-//W3C//DTD SVG 1.1//EN" "http://www.w3.org/Graphics/SVG/1.1/DTD/svg11.dtd">
<svg version="1.1" id="Layer_1" xmlns="http://www.w3.org/2000/svg" xmlns:xlink="http://www.w3.org/1999/xlink" x="0px" y="0px"
	 width="536.378px" height="780.521px" viewBox="0 0 536.378 780.521" enable-background="new 0 0 536.378 780.521"
	 xml:space="preserve">
<g>
	<rect x="56.69" y="386.761" fill="none" width="434.001" height="82"/>
</g>
<g enable-background="new    ">
	<g>
		<path fill="#19152B" d="M87.047,408.631v-8.909c0-3.181-1.2-4.32-3.24-4.32c-2.07,0-3.24,1.47-3.24,4.02v9.21h-3.09v-15.749h3.09
			v1.5c0.78-1.141,2.34-1.83,3.96-1.83c3.66,0,5.61,2.399,5.61,7.05v9.029H87.047z"/>
	</g>
	<g>
		<path fill="#19152B" d="M104.027,408.631v-1.5c-0.78,1.14-2.34,1.83-3.96,1.83c-3.66,0-5.609-2.4-5.609-7.05v-9.029h3.09v8.909
			c0,3.18,1.2,4.32,3.24,4.32c2.07,0,3.24-1.471,3.24-4.021v-9.209h3.09v15.749H104.027z"/>
	</g>
	<g>
		<path fill="#19152B" d="M129.977,408.631v-8.909c0-3.181-0.99-4.32-3.03-4.32c-2.07,0-3.03,1.47-3.03,4.02v9.21h-3.09v-8.909
			c0-3.181-0.99-4.32-3.03-4.32c-2.07,0-3.03,1.47-3.03,4.02v9.21h-3.09v-15.749h3.09v1.5c0.78-1.141,2.13-1.83,3.75-1.83
			c2.13,0,3.48,0.81,4.32,2.31c1.14-1.41,2.37-2.31,4.83-2.31c3.66,0,5.4,2.399,5.4,7.05v9.029H129.977z"/>
	</g>
	<g>
		<path fill="#19152B" d="M144.527,408.961c-1.59,0-3.09-0.84-3.96-1.8v1.47h-3.06v-20.279l3.06-1.59v7.62
			c1.14-1.051,2.46-1.83,4.11-1.83c3.39,0,6.06,2.46,6.06,8.459C150.736,406.411,147.796,408.961,144.527,408.961z M144.107,395.401
			c-1.47,0-2.76,0.99-3.57,2.01v6.63c0.69,0.93,2.13,2.07,3.69,2.07c2.22,0,3.42-1.681,3.42-5.01
			C147.646,397.142,146.387,395.401,144.107,395.401z"/>
	</g>
	<g>
		<path fill="#19152B" d="M167.296,401.852h-10.41c0.33,3.029,2.04,4.319,3.96,4.319c1.32,0,2.37-0.479,3.42-1.26l1.83,1.979
			c-1.38,1.32-3.03,2.07-5.43,2.07c-3.69,0-6.81-2.97-6.81-8.189c0-5.34,2.82-8.22,6.9-8.22c4.47,0,6.63,3.63,6.63,7.89
			C167.386,401.011,167.326,401.521,167.296,401.852z M160.546,395.342c-2.07,0-3.33,1.439-3.6,3.959h7.32
			C164.116,397.142,163.096,395.342,160.546,395.342z"/>
	</g>
	<g>
		<path fill="#19152B" d="M179.776,396.151c-0.66-0.36-1.35-0.57-2.37-0.57c-1.95,0-3.09,1.38-3.09,4.05v9h-3.09v-15.749h3.09v1.5
			c0.72-1.051,2.04-1.83,3.6-1.83c1.26,0,2.04,0.239,2.67,0.66L179.776,396.151z"/>
	</g>
	<g>
		<path fill="#19152B" d="M198.045,408.961c-3.959,0-6.93-3.27-6.93-8.189c0-5.16,3.06-8.22,7.02-8.22c4.02,0,7.02,3.21,7.02,8.13
			C205.155,405.901,202.095,408.961,198.045,408.961z M198.016,395.491c-2.34,0-3.78,2.07-3.78,5.19c0,3.449,1.59,5.339,3.93,5.339
			s3.87-2.369,3.87-5.249C202.036,397.562,200.505,395.491,198.016,395.491z"/>
	</g>
	<g>
		<path fill="#19152B" d="M214.096,389.552c-1.02,0-1.44,0.39-1.44,1.53v1.8h2.91v2.88h-2.91v12.869h-3.09v-12.869h-2.04v-2.88h2.04
			v-2.07c0-2.88,1.77-3.96,3.99-3.96c0.81,0,1.68,0.12,2.34,0.3v2.7C215.175,389.642,214.635,389.552,214.096,389.552z"/>
	</g>
	<g>
		<path fill="#19152B" d="M232.575,414.421l-1.05-2.34c4.44-0.21,5.4-1.41,5.4-4.68v-0.271c-1.14,1.05-2.43,1.83-4.08,1.83
			c-3.36,0-6.06-2.46-6.06-8.46c0-5.399,2.97-7.949,6.21-7.949c1.59,0,3.09,0.84,3.93,1.8v-1.47h3.09v14.249
			C240.015,411.931,238.275,414.24,232.575,414.421z M236.985,397.472c-0.69-0.931-2.13-2.07-3.69-2.07c-2.22,0-3.42,1.68-3.42,5.01
			c0,3.96,1.26,5.7,3.54,5.7c1.47,0,2.76-0.99,3.57-2.011V397.472z"/>
	</g>
	<g>
		<path fill="#19152B" d="M253.605,408.631v-1.56c-1.08,1.079-2.61,1.89-4.32,1.89c-2.55,0-5.46-1.44-5.46-5.31
			c0-3.51,2.7-5.101,6.27-5.101c1.47,0,2.64,0.211,3.51,0.601v-1.17c0-1.71-1.05-2.67-2.97-2.67c-1.62,0-2.88,0.3-4.11,0.99
			l-1.2-2.34c1.5-0.931,3.18-1.41,5.4-1.41c3.51,0,5.91,1.71,5.91,5.279v10.8H253.605z M253.605,401.911
			c-0.84-0.42-1.92-0.69-3.6-0.69c-1.979,0-3.24,0.9-3.24,2.341c0,1.56,0.99,2.609,3.03,2.609c1.65,0,3.09-1.02,3.81-2.01V401.911z"
			/>
	</g>
	<g>
		<path fill="#19152B" d="M261.225,408.631v-20.249l3.09-1.62v21.869H261.225z"/>
	</g>
	<g>
		<path fill="#19152B" d="M269.174,408.631v-20.249l3.09-1.62v21.869H269.174z"/>
	</g>
	<g>
		<path fill="#19152B" d="M283.154,408.961c-3.959,0-6.93-3.27-6.93-8.189c0-5.16,3.061-8.22,7.021-8.22c4.02,0,7.02,3.21,7.02,8.13
			C290.264,405.901,287.205,408.961,283.154,408.961z M283.125,395.491c-2.34,0-3.779,2.07-3.779,5.19
			c0,3.449,1.59,5.339,3.93,5.339s3.869-2.369,3.869-5.249C287.144,397.562,285.615,395.491,283.125,395.491z"/>
	</g>
	<g>
		<path fill="#19152B" d="M303.644,408.631v-8.909c0-3.181-1.2-4.32-3.24-4.32c-2.07,0-3.24,1.47-3.24,4.02v9.21h-3.09v-15.749h3.09
			v1.5c0.781-1.141,2.34-1.83,3.961-1.83c3.659,0,5.609,2.399,5.609,7.05v9.029H303.644z"/>
	</g>
	<g>
		<path fill="#19152B" d="M316.275,408.961c-2.131,0-4.44-0.84-6.03-2.01l1.409-2.34c1.471,1.02,3.121,1.56,4.59,1.56
			c1.951,0,2.881-0.63,2.881-1.74c0-1.199-1.381-1.77-3.66-2.64c-3.391-1.32-4.62-2.46-4.62-4.949c0-2.82,2.22-4.29,5.37-4.29
			c1.98,0,3.93,0.72,5.34,1.739l-1.35,2.37c-1.291-0.899-2.58-1.35-4.08-1.35s-2.16,0.6-2.16,1.439c0,0.78,0.54,1.351,2.91,2.28
			c3.51,1.35,5.31,2.31,5.31,5.279C322.184,407.791,319.365,408.961,316.275,408.961z"/>
	</g>
	<g>
		<path fill="#19152B" d="M346.933,401.852h-10.409c0.329,3.029,2.04,4.319,3.96,4.319c1.319,0,2.369-0.479,3.42-1.26l1.83,1.979
			c-1.381,1.32-3.03,2.07-5.43,2.07c-3.69,0-6.811-2.97-6.811-8.189c0-5.34,2.82-8.22,6.9-8.22c4.469,0,6.629,3.63,6.629,7.89
			C347.023,401.011,346.963,401.521,346.933,401.852z M340.183,395.342c-2.069,0-3.33,1.439-3.6,3.959h7.32
			C343.753,397.142,342.734,395.342,340.183,395.342z"/>
	</g>
	<g>
		<path fill="#19152B" d="M355.664,408.961c-2.13,0-4.439-0.84-6.029-2.01l1.409-2.34c1.47,1.02,3.12,1.56,4.59,1.56
			c1.95,0,2.88-0.63,2.88-1.74c0-1.199-1.38-1.77-3.66-2.64c-3.39-1.32-4.619-2.46-4.619-4.949c0-2.82,2.22-4.29,5.369-4.29
			c1.98,0,3.93,0.72,5.34,1.739l-1.35,2.37c-1.29-0.899-2.58-1.35-4.08-1.35s-2.16,0.6-2.16,1.439c0,0.78,0.541,1.351,2.91,2.28
			c3.51,1.35,5.311,2.31,5.311,5.279C361.574,407.791,358.753,408.961,355.664,408.961z"/>
	</g>
	<g>
		<path fill="#19152B" d="M372.763,408.241c-0.75,0.42-1.8,0.72-3.029,0.72c-2.19,0-3.541-1.35-3.541-4.17v-9.09h-2.25v-2.819h2.25
			v-4.5l3.03-1.62v6.12h3.899v2.819h-3.899v8.55c0,1.47,0.479,1.89,1.62,1.89c0.811,0,1.71-0.3,2.279-0.63L372.763,408.241z"/>
	</g>
	<g>
		<path fill="#19152B" d="M379.033,390.842c-1.109,0-2.01-0.9-2.01-1.98c0-1.109,0.9-2.01,2.01-2.01c1.08,0,1.98,0.9,1.98,2.01
			C381.013,389.941,380.113,390.842,379.033,390.842z M377.473,408.631v-15.749h3.09v15.749H377.473z"/>
	</g>
	<g>
		<path fill="#19152B" d="M403.573,408.631v-8.909c0-3.181-0.99-4.32-3.03-4.32c-2.069,0-3.029,1.47-3.029,4.02v9.21h-3.09v-8.909
			c0-3.181-0.99-4.32-3.03-4.32c-2.069,0-3.029,1.47-3.029,4.02v9.21h-3.09v-15.749h3.09v1.5c0.779-1.141,2.13-1.83,3.75-1.83
			c2.13,0,3.479,0.81,4.319,2.31c1.14-1.41,2.37-2.31,4.83-2.31c3.659,0,5.399,2.399,5.399,7.05v9.029H403.573z"/>
	</g>
	<g>
		<path fill="#19152B" d="M420.132,408.631v-1.56c-1.08,1.079-2.61,1.89-4.32,1.89c-2.55,0-5.459-1.44-5.459-5.31
			c0-3.51,2.699-5.101,6.27-5.101c1.47,0,2.64,0.211,3.51,0.601v-1.17c0-1.71-1.05-2.67-2.97-2.67c-1.62,0-2.88,0.3-4.11,0.99
			l-1.199-2.34c1.5-0.931,3.18-1.41,5.399-1.41c3.51,0,5.91,1.71,5.91,5.279v10.8H420.132z M420.132,401.911
			c-0.84-0.42-1.92-0.69-3.6-0.69c-1.98,0-3.24,0.9-3.24,2.341c0,1.56,0.99,2.609,3.03,2.609c1.649,0,3.09-1.02,3.81-2.01V401.911z"
			/>
	</g>
	<g>
		<path fill="#19152B" d="M435.132,408.241c-0.75,0.42-1.8,0.72-3.03,0.72c-2.189,0-3.539-1.35-3.539-4.17v-9.09h-2.25v-2.819h2.25
			v-4.5l3.029-1.62v6.12h3.9v2.819h-3.9v8.55c0,1.47,0.48,1.89,1.62,1.89c0.81,0,1.71-0.3,2.28-0.63L435.132,408.241z"/>
	</g>
	<g>
		<path fill="#19152B" d="M451.783,401.852h-10.41c0.33,3.029,2.04,4.319,3.96,4.319c1.32,0,2.37-0.479,3.42-1.26l1.83,1.979
			c-1.38,1.32-3.03,2.07-5.43,2.07c-3.69,0-6.81-2.97-6.81-8.189c0-5.34,2.819-8.22,6.899-8.22c4.47,0,6.63,3.63,6.63,7.89
			C451.873,401.011,451.812,401.521,451.783,401.852z M445.033,395.342c-2.07,0-3.33,1.439-3.6,3.959h7.319
			C448.602,397.142,447.583,395.342,445.033,395.342z"/>
	</g>
	<g>
		<path fill="#19152B" d="M465.193,408.631v-1.5c-1.141,1.05-2.46,1.83-4.11,1.83c-3.39,0-6.06-2.46-6.06-8.46
			c0-5.399,2.94-7.949,6.21-7.949c1.59,0,3.09,0.84,3.96,1.8v-6l3.06-1.59v21.869H465.193z M465.222,397.472
			c-0.689-0.931-2.13-2.07-3.689-2.07c-2.22,0-3.42,1.68-3.42,5.01c0,3.96,1.26,5.7,3.54,5.7c1.47,0,2.76-0.99,3.569-2.011V397.472z
			"/>
	</g>
</g>
<g enable-background="new    ">
	<g>
		<path fill="#19152B" d="M117.183,444.241c-0.75,0.42-1.8,0.72-3.03,0.72c-2.19,0-3.54-1.35-3.54-4.17v-9.09h-2.25v-2.819h2.25
			v-4.5l3.03-1.62v6.12h3.9v2.819h-3.9v8.55c0,1.47,0.48,1.89,1.62,1.89c0.81,0,1.71-0.3,2.28-0.63L117.183,444.241z"/>
	</g>
	<g>
		<path fill="#19152B" d="M127.323,444.961c-3.959,0-6.93-3.27-6.93-8.189c0-5.16,3.06-8.22,7.02-8.22c4.02,0,7.02,3.21,7.02,8.13
			C134.433,441.901,131.373,444.961,127.323,444.961z M127.293,431.491c-2.34,0-3.78,2.07-3.78,5.19c0,3.449,1.59,5.339,3.93,5.339
			s3.87-2.369,3.87-5.249C131.313,433.562,129.783,431.491,127.293,431.491z"/>
	</g>
	<g>
		<path fill="#19152B" d="M153.363,444.961c-1.59,0-3.09-0.84-3.96-1.8v1.47h-3.06v-20.279l3.06-1.59v7.62
			c1.14-1.051,2.46-1.83,4.11-1.83c3.39,0,6.06,2.46,6.06,8.459C159.572,442.411,156.632,444.961,153.363,444.961z M152.942,431.401
			c-1.47,0-2.76,0.99-3.57,2.01v6.63c0.69,0.93,2.13,2.07,3.69,2.07c2.22,0,3.42-1.681,3.42-5.01
			C156.482,433.142,155.223,431.401,152.942,431.401z"/>
	</g>
	<g>
		<path fill="#19152B" d="M176.132,437.852h-10.409c0.33,3.029,2.04,4.319,3.959,4.319c1.32,0,2.37-0.479,3.42-1.26l1.83,1.979
			c-1.38,1.32-3.03,2.07-5.43,2.07c-3.69,0-6.81-2.97-6.81-8.189c0-5.34,2.82-8.22,6.9-8.22c4.47,0,6.63,3.63,6.63,7.89
			C176.222,437.011,176.162,437.521,176.132,437.852z M169.382,431.342c-2.07,0-3.33,1.439-3.6,3.959h7.32
			C172.952,433.142,171.932,431.342,169.382,431.342z"/>
	</g>
	<g>
		<path fill="#19152B" d="M189.872,426.842c-1.11,0-2.01-0.9-2.01-1.98c0-1.109,0.9-2.01,2.01-2.01c1.08,0,1.98,0.9,1.98,2.01
			C191.852,425.941,190.952,426.842,189.872,426.842z M188.312,444.631v-15.749h3.09v15.749H188.312z"/>
	</g>
	<g>
		<path fill="#19152B" d="M205.682,444.631v-8.909c0-3.181-1.2-4.32-3.24-4.32c-2.07,0-3.24,1.47-3.24,4.02v9.21h-3.09v-15.749h3.09
			v1.5c0.78-1.141,2.34-1.83,3.96-1.83c3.66,0,5.61,2.399,5.61,7.05v9.029H205.682z"/>
	</g>
	<g>
		<path fill="#19152B" d="M228.841,444.241c-0.75,0.42-1.8,0.72-3.03,0.72c-2.19,0-3.54-1.35-3.54-4.17v-9.09h-2.25v-2.819h2.25
			v-4.5l3.03-1.62v6.12h3.9v2.819h-3.9v8.55c0,1.47,0.48,1.89,1.62,1.89c0.81,0,1.71-0.3,2.28-0.63L228.841,444.241z"/>
	</g>
	<g>
		<path fill="#19152B" d="M242.971,444.631v-8.909c0-3.181-1.2-4.32-3.24-4.32c-2.07,0-3.24,1.47-3.24,4.02v9.21h-3.09v-20.249
			l3.09-1.62v7.62c0.78-1.141,2.34-1.83,3.96-1.83c3.66,0,5.61,2.399,5.61,7.05v9.029H242.971z"/>
	</g>
	<g>
		<path fill="#19152B" d="M263.19,437.852h-10.409c0.33,3.029,2.04,4.319,3.959,4.319c1.32,0,2.37-0.479,3.42-1.26l1.83,1.979
			c-1.38,1.32-3.03,2.07-5.43,2.07c-3.69,0-6.81-2.97-6.81-8.189c0-5.34,2.82-8.22,6.9-8.22c4.47,0,6.63,3.63,6.63,7.89
			C263.281,437.011,263.221,437.521,263.19,437.852z M256.441,431.342c-2.07,0-3.33,1.439-3.6,3.959h7.32
			C260.011,433.142,258.991,431.342,256.441,431.342z"/>
	</g>
	<g>
		<path fill="#19152B" d="M284.25,444.631v-1.56c-1.08,1.079-2.609,1.89-4.319,1.89c-2.55,0-5.46-1.44-5.46-5.31
			c0-3.51,2.7-5.101,6.27-5.101c1.471,0,2.641,0.211,3.51,0.601v-1.17c0-1.71-1.049-2.67-2.969-2.67c-1.621,0-2.881,0.3-4.11,0.99
			l-1.2-2.34c1.5-0.931,3.18-1.41,5.4-1.41c3.51,0,5.909,1.71,5.909,5.279v10.8H284.25z M284.25,437.911
			c-0.84-0.42-1.92-0.69-3.6-0.69c-1.979,0-3.24,0.9-3.24,2.341c0,1.56,0.99,2.609,3.03,2.609c1.649,0,3.09-1.02,3.81-2.01V437.911z
			"/>
	</g>
	<g>
		<path fill="#19152B" d="M299.25,444.241c-0.75,0.42-1.8,0.72-3.029,0.72c-2.19,0-3.541-1.35-3.541-4.17v-9.09h-2.25v-2.819h2.25
			v-4.5l3.03-1.62v6.12h3.899v2.819h-3.899v8.55c0,1.47,0.479,1.89,1.62,1.89c0.811,0,1.71-0.3,2.279-0.63L299.25,444.241z"/>
	</g>
	<g>
		<path fill="#19152B" d="M322.109,444.631v-8.909c0-3.181-0.99-4.32-3.029-4.32c-2.07,0-3.03,1.47-3.03,4.02v9.21h-3.09v-8.909
			c0-3.181-0.99-4.32-3.03-4.32c-2.07,0-3.029,1.47-3.029,4.02v9.21h-3.09v-15.749h3.09v1.5c0.779-1.141,2.129-1.83,3.75-1.83
			c2.129,0,3.479,0.81,4.319,2.31c1.14-1.41,2.37-2.31,4.829-2.31c3.66,0,5.4,2.399,5.4,7.05v9.029H322.109z"/>
	</g>
	<g>
		<path fill="#19152B" d="M335.819,444.961c-3.96,0-6.93-3.27-6.93-8.189c0-5.16,3.06-8.22,7.021-8.22c4.02,0,7.02,3.21,7.02,8.13
			C342.929,441.901,339.869,444.961,335.819,444.961z M335.789,431.491c-2.34,0-3.779,2.07-3.779,5.19
			c0,3.449,1.59,5.339,3.93,5.339s3.87-2.369,3.87-5.249C339.809,433.562,338.279,431.491,335.789,431.491z"/>
	</g>
	<g>
		<path fill="#19152B" d="M351.54,444.961c-2.13,0-4.44-0.84-6.03-2.01l1.41-2.34c1.471,1.02,3.12,1.56,4.59,1.56
			c1.95,0,2.88-0.63,2.88-1.74c0-1.199-1.38-1.77-3.659-2.64c-3.391-1.32-4.621-2.46-4.621-4.949c0-2.82,2.221-4.29,5.371-4.29
			c1.979,0,3.93,0.72,5.34,1.739l-1.351,2.37c-1.29-0.899-2.58-1.35-4.08-1.35c-1.499,0-2.159,0.6-2.159,1.439
			c0,0.78,0.539,1.351,2.909,2.28c3.511,1.35,5.31,2.31,5.31,5.279C357.449,443.791,354.629,444.961,351.54,444.961z"/>
	</g>
	<g>
		<path fill="#19152B" d="M368.429,444.961c-1.59,0-3.09-0.84-3.96-1.8v5.67l-3.06,1.59v-21.539h3.06v1.5
			c1.14-1.051,2.46-1.83,4.11-1.83c3.389,0,6.059,2.46,6.059,8.459C374.638,442.411,371.699,444.961,368.429,444.961z
			 M368.009,431.401c-1.471,0-2.76,0.99-3.57,2.01v6.63c0.689,0.93,2.131,2.07,3.689,2.07c2.221,0,3.42-1.681,3.42-5.01
			C371.548,433.142,370.289,431.401,368.009,431.401z"/>
	</g>
	<g>
		<path fill="#19152B" d="M388.079,444.631v-8.909c0-3.181-1.2-4.32-3.239-4.32c-2.07,0-3.24,1.47-3.24,4.02v9.21h-3.09v-20.249
			l3.09-1.62v7.62c0.779-1.141,2.34-1.83,3.959-1.83c3.66,0,5.61,2.399,5.61,7.05v9.029H388.079z"/>
	</g>
	<g>
		<path fill="#19152B" d="M408.298,437.852h-10.41c0.33,3.029,2.041,4.319,3.961,4.319c1.32,0,2.369-0.479,3.42-1.26l1.83,1.979
			c-1.381,1.32-3.03,2.07-5.43,2.07c-3.69,0-6.811-2.97-6.811-8.189c0-5.34,2.82-8.22,6.9-8.22c4.469,0,6.629,3.63,6.629,7.89
			C408.388,437.011,408.329,437.521,408.298,437.852z M401.548,431.342c-2.069,0-3.33,1.439-3.6,3.959h7.32
			C405.119,433.142,404.099,431.342,401.548,431.342z"/>
	</g>
	<g>
		<path fill="#19152B" d="M420.777,432.151c-0.658-0.36-1.35-0.57-2.369-0.57c-1.949,0-3.09,1.38-3.09,4.05v9h-3.09v-15.749h3.09
			v1.5c0.721-1.051,2.041-1.83,3.6-1.83c1.26,0,2.041,0.239,2.67,0.66L420.777,432.151z"/>
	</g>
	<g>
		<path fill="#19152B" d="M436.708,437.852h-10.41c0.33,3.029,2.039,4.319,3.959,4.319c1.32,0,2.371-0.479,3.42-1.26l1.83,1.979
			c-1.379,1.32-3.029,2.07-5.43,2.07c-3.689,0-6.809-2.97-6.809-8.189c0-5.34,2.818-8.22,6.898-8.22c4.471,0,6.631,3.63,6.631,7.89
			C436.798,437.011,436.738,437.521,436.708,437.852z M429.958,431.342c-2.07,0-3.33,1.439-3.6,3.959h7.318
			C433.527,433.142,432.507,431.342,429.958,431.342z"/>
	</g>
</g>
<g enable-background="new    ">
	<g>
		<path fill="#19152B" d="M258.49,290.136c-12.6,0-23.879-4.92-33.239-16.08l12.719-10.319c6.96,7.319,13.56,9.96,22.079,9.96
			c11.04,0,16.2-3.96,16.2-10.68c0-6.479-4.439-9.6-12.36-9.6h-9.959v-16.439h9c6.96,0,9.839-3,9.839-8.52
			c0-4.32-3.479-8.52-14.039-8.52c-6.48,0-11.759,2.279-16.439,7.079l-12.239-11.159c8.04-8.399,16.439-12.359,28.918-12.359
			c17.16,0,30.838,7.92,30.838,23.759c0,9.12-4.799,14.64-9.719,17.159c5.399,2.04,13.199,7.32,13.199,18.359
			C293.289,280.896,279.369,290.136,258.49,290.136z"/>
	</g>
	<g>
		<path fill="#19152B" d="M367.568,271.656v17.159h-16.2v-17.159H305.41v-15.119l44.518-51.718h17.641v51.237h11.039v15.6H367.568z
			 M344.289,233.498l-12,14.039c-2.641,3.12-6.119,6.96-7.92,8.76c2.881,0,11.88-0.24,16.68-0.24h10.319v-13.68
			c0-4.8,0.36-15.239,0.36-18.358C350.167,226.178,347.048,230.258,344.289,233.498z"/>
	</g>
	<g>
		<path fill="#19152B" d="M400.808,288.815v-60.718H386.41v-12.359c9.359-0.479,15.479-3.96,17.158-10.919h13.92v83.996H400.808z"/>
	</g>
</g>
<g enable-background="new    ">
	<g>
		<path fill="#19152B" d="M219.106,359.86V348.56c-1.3,1.15-3.05,2.2-5.55,2.2c-5.6,0-10.201-4.2-10.201-14.001
			c0-7.851,3.7-13.351,10.201-13.351c2.3,0,4.3,0.9,5.55,2.05v-1.5h6.9v32.452L219.106,359.86z M219.106,332.159
			c-1.05-1.45-2.65-2.25-4.65-2.25c-2.65,0-4.1,2.3-4.1,6.7c0,5.4,1.8,7.65,4.5,7.65c2.15,0,3.25-0.9,4.25-2.2V332.159z"/>
	</g>
	<g>
		<path fill="#19152B" d="M248.406,350.21v-1.75c-1.2,1.25-3.4,2.3-6.15,2.3c-6.7,0-9.701-4.6-9.701-12.001v-14.801h6.9v14.201
			c0,4.7,1.6,6.101,4.45,6.101c2.851,0,4.5-1.4,4.5-5.95v-14.352h6.9v26.252H248.406z"/>
	</g>
	<g>
		<path fill="#19152B" d="M276.457,350.21v-1.75c-1.25,1.3-3.45,2.3-5.9,2.3c-4.9,0-9.801-3-9.801-9.351c0-5.8,4.7-8.7,10.65-8.7
			c2.4,0,3.951,0.5,5.051,1.05v-1.3c0-1.851-1.25-3.351-3.75-3.351c-3.15,0-4.801,0.45-7.201,1.75l-2.65-4.8
			c3.05-1.75,5.601-2.65,9.851-2.65c6.35,0,10.65,3.301,10.65,9.2v17.602H276.457z M276.457,339.209c-1.2-0.75-2.35-1.1-4.801-1.1
			c-2.6,0-4,1.2-4,3.3c0,1.851,1.051,3.5,4,3.5c2.25,0,4.051-1.149,4.801-2.399V339.209z"/>
	</g>
	<g>
		<path fill="#19152B" d="M304.207,350.21v-1.65c-1.301,1.15-3.051,2.2-5.551,2.2c-5.6,0-10.201-4.2-10.201-14.001
			c0-7.851,3.701-13.351,10.201-13.351c2.301,0,4.301,0.9,5.551,2.05v-8.25l6.9-3.45v36.452H304.207z M304.207,332.159
			c-1.051-1.45-2.65-2.25-4.65-2.25c-2.65,0-4.101,2.3-4.101,6.7c0,5.4,1.8,7.65,4.501,7.65c2.149,0,3.25-0.9,4.25-2.2V332.159z"/>
	</g>
	<g>
		<path fill="#19152B" d="M333.256,332.009c-1.101-1-2.45-1.7-4.001-1.7c-2.699,0-4.449,1.15-4.449,5.7v14.201h-6.9v-26.252h6.9
			v1.75c1.199-1.25,2.949-2.3,5.4-2.3c2.25,0,3.949,0.9,4.85,1.851L333.256,332.009z"/>
	</g>
	<g>
		<path fill="#19152B" d="M343.005,321.809c-2.15,0-3.951-1.801-3.951-3.95c0-2.15,1.801-3.95,3.951-3.95s3.949,1.8,3.949,3.95
			C346.955,320.008,345.156,321.809,343.005,321.809z M339.554,350.21v-26.252h6.9v26.252H339.554z"/>
	</g>
	<g>
		<path fill="#19152B" d="M353.655,350.21v-33.002l6.9-3.45v36.452H353.655z"/>
	</g>
	<g>
		<path fill="#19152B" d="M367.754,350.21v-33.002l6.9-3.45v36.452H367.754z"/>
	</g>
	<g>
		<path fill="#19152B" d="M385.304,321.809c-2.149,0-3.949-1.801-3.949-3.95c0-2.15,1.8-3.95,3.949-3.95
			c2.15,0,3.951,1.8,3.951,3.95C389.255,320.008,387.455,321.809,385.304,321.809z M381.855,350.21v-26.252h6.9v26.252H381.855z"/>
	</g>
	<g>
		<path fill="#19152B" d="M406.206,350.76c-6.851,0-11.851-5.601-11.851-13.65c0-8.051,5-13.701,11.851-13.701
			s11.9,5.65,11.9,13.701C418.106,345.159,413.056,350.76,406.206,350.76z M406.206,330.059c-3.3,0-4.851,3-4.851,7.051
			c0,4.05,1.551,7,4.851,7s4.899-3.35,4.899-7C411.105,333.109,409.505,330.059,406.206,330.059z"/>
	</g>
	<g>
		<path fill="#19152B" d="M439.305,350.21v-14.201c0-4.7-1.601-6.1-4.45-6.1s-4.5,1.399-4.5,5.95v14.351h-6.9v-26.252h6.9v1.75
			c1.199-1.25,3.4-2.3,6.15-2.3c6.7,0,9.7,4.601,9.7,12.001v14.801H439.305z"/>
	</g>
</g>
<g>
	<path fill="#19162B" d="M388.949,545.229c-5.858,0-11.322-2.243-15.428-6.249c-4.004,3.482-9.139,5.429-14.521,5.429
		c-4.618,0-9.085-1.437-12.814-4.084c-3.604,2.383-7.858,3.674-12.213,3.674c-12.213,0-22.148-9.937-22.148-22.149
		c0-10.355,7.057-19.129,16.844-21.515c-0.017-0.352-0.025-0.702-0.025-1.051c0-12.214,9.938-22.15,22.152-22.15
		c3.662,0,7.216,0.893,10.411,2.6c4.072-3.765,9.419-5.882,15.019-5.882c12.214,0,22.15,9.938,22.15,22.151
		c0,2.265-0.334,4.47-0.997,6.589c8.218,3.36,13.714,11.36,13.72,20.488C411.097,535.294,401.162,545.229,388.949,545.229z
		 M373.775,529.781l2.265,3.005c3.087,4.095,7.792,6.443,12.909,6.443c8.904,0,16.148-7.244,16.148-16.147
		c-0.005-7.505-5.099-13.965-12.387-15.707l-3.656-0.874l1.663-3.371c1.1-2.229,1.657-4.627,1.657-7.127
		c0-8.906-7.245-16.151-16.15-16.151c-4.709,0-9.175,2.057-12.252,5.644l-1.762,2.054l-2.224-1.541
		c-2.715-1.88-5.893-2.874-9.192-2.874c-8.906,0-16.152,7.245-16.152,16.15c0,0.975,0.094,1.975,0.278,2.972l0.591,3.194
		l-3.23,0.336c-8.242,0.856-14.457,7.763-14.457,16.063c0,8.905,7.244,16.149,16.148,16.149c3.78,0,7.456-1.334,10.35-3.756
		l1.989-1.664l1.935,1.728c2.963,2.646,6.782,4.103,10.754,4.103c4.768,0,9.27-2.096,12.351-5.751L373.775,529.781z"/>
</g>
<g>
	<path fill="#19162B" d="M449.726,664.526c-8.9,0-17.188-3.475-23.347-9.666c-6.022,5.398-13.827,8.424-22.015,8.424
		c-7.006,0-13.779-2.219-19.396-6.303c-5.437,3.683-11.896,5.682-18.509,5.682c-18.199,0-33.006-14.806-33.006-33.005
		c0-15.584,10.728-28.764,25.539-32.163c-0.041-0.674-0.062-1.346-0.062-2.015c0-18.2,14.807-33.007,33.006-33.007
		c5.594,0,11.012,1.394,15.855,4.057c6.104-5.774,14.192-9.029,22.67-9.029c18.198,0,33.004,14.807,33.004,33.007
		c0,3.549-0.55,6.998-1.638,10.3c12.506,4.894,20.901,16.942,20.901,30.714C482.73,649.721,467.924,664.526,449.726,664.526z
		 M426.723,642.548l3.018,4.003c4.778,6.34,12.062,9.976,19.985,9.976c13.787,0,25.004-11.217,25.004-25.005
		c0-11.617-7.884-21.616-19.172-24.314l-4.876-1.166l2.219-4.495c1.702-3.449,2.565-7.163,2.565-11.038
		c0-13.789-11.217-25.007-25.004-25.007c-7.296,0-14.214,3.186-18.98,8.739l-2.351,2.739l-2.965-2.058
		c-4.193-2.91-9.114-4.448-14.229-4.448c-13.788,0-25.006,11.218-25.006,25.007c0,1.518,0.145,3.063,0.429,4.596l0.791,4.26
		l-4.31,0.449c-12.763,1.329-22.387,12.021-22.387,24.873c0,13.788,11.218,25.005,25.006,25.005c5.852,0,11.542-2.065,16.025-5.816
		l2.651-2.218l2.579,2.303c4.588,4.097,10.5,6.353,16.648,6.353c7.378,0,14.349-3.246,19.125-8.905L426.723,642.548z"/>
</g>
<g>
	<path fill="#19162B" d="M244.158,640.015c-13.507,0-26.041-5.544-35.052-15.36c-8.862,8.624-20.727,13.489-33.214,13.489
		c-10.599,0-20.827-3.515-29.147-9.958c-8.086,5.841-17.869,9.025-27.897,9.025c-26.275,0-47.651-21.377-47.651-47.652
		c0-23.093,16.314-42.526,38.573-46.788c-0.154-1.554-0.231-3.106-0.231-4.646c0-26.274,21.376-47.65,47.652-47.65
		c8.576,0,16.866,2.271,24.181,6.595c8.926-8.984,21.058-14.074,33.796-14.074c26.275,0,47.651,21.375,47.651,47.649
		c0,5.786-1.011,11.386-3.012,16.704c19.06,6.579,32.003,24.47,32.002,45.017C291.809,618.64,270.433,640.015,244.158,640.015z
		 M209.448,612.2l3.019,4.002c7.58,10.049,19.13,15.812,31.691,15.812c21.864,0,39.651-17.787,39.651-39.649
		c0.001-18.424-12.501-34.279-30.402-38.558l-4.876-1.166l2.219-4.495c2.7-5.469,4.069-11.357,4.069-17.502
		c0-21.862-17.787-39.649-39.651-39.649c-11.57,0-22.541,5.05-30.099,13.854l-2.351,2.738l-2.965-2.058
		c-6.65-4.616-14.452-7.056-22.562-7.056c-21.864,0-39.652,17.787-39.652,39.65c0,2.408,0.229,4.86,0.68,7.289l0.792,4.261
		l-4.311,0.448c-20.24,2.104-35.503,19.057-35.503,39.436c0,21.864,17.788,39.652,39.651,39.652c9.278,0,18.304-3.276,25.416-9.225
		l2.653-2.219l2.579,2.305c7.269,6.494,16.643,10.071,26.397,10.071c11.709,0,22.762-5.144,30.324-14.11L209.448,612.2z"/>
</g>
</svg>
