<?xml version="1.0" encoding="utf-8"?>
<!-- Generator: Adobe Illustrator 15.1.0, SVG Export Plug-In . SVG Version: 6.00 Build 0)  -->
<!DOCTYPE svg PUBLIC "-//W3C//DTD SVG 1.1//EN" "http://www.w3.org/Graphics/SVG/1.1/DTD/svg11.dtd">
<svg version="1.1" id="Layer_1" xmlns="http://www.w3.org/2000/svg" xmlns:xlink="http://www.w3.org/1999/xlink" x="0px" y="0px"
	 width="536.378px" height="780.521px" viewBox="0 0 536.378 780.521" enable-background="new 0 0 536.378 780.521"
	 xml:space="preserve">
<rect x="49.689" y="381.761" fill="none" width="434" height="82"/>
<g enable-background="new    ">
	<path fill="#19162B" d="M79.192,403.631v-8.909c0-3.181-1.2-4.32-3.24-4.32c-2.07,0-3.24,1.47-3.24,4.02v9.21h-3.09v-15.749h3.09
		v1.5c0.78-1.141,2.34-1.83,3.96-1.83c3.66,0,5.61,2.399,5.61,7.05v9.029H79.192z"/>
	<path fill="#19162B" d="M96.171,403.631v-1.5c-0.78,1.14-2.34,1.83-3.96,1.83c-3.66,0-5.609-2.4-5.609-7.05v-9.029h3.09v8.909
		c0,3.18,1.2,4.32,3.24,4.32c2.07,0,3.24-1.471,3.24-4.021v-9.209h3.09v15.749H96.171z"/>
	<path fill="#19162B" d="M122.121,403.631v-8.909c0-3.181-0.99-4.32-3.03-4.32c-2.07,0-3.03,1.47-3.03,4.02v9.21h-3.09v-8.909
		c0-3.181-0.99-4.32-3.03-4.32c-2.07,0-3.03,1.47-3.03,4.02v9.21h-3.09v-15.749h3.09v1.5c0.78-1.141,2.13-1.83,3.75-1.83
		c2.13,0,3.48,0.81,4.32,2.31c1.14-1.41,2.37-2.31,4.83-2.31c3.66,0,5.4,2.399,5.4,7.05v9.029H122.121z"/>
	<path fill="#19162B" d="M136.671,403.961c-1.59,0-3.09-0.84-3.96-1.8v1.47h-3.06v-20.279l3.06-1.59v7.62
		c1.14-1.051,2.46-1.83,4.11-1.83c3.39,0,6.06,2.46,6.06,8.459C142.881,401.411,139.941,403.961,136.671,403.961z M136.251,390.401
		c-1.47,0-2.76,0.99-3.57,2.01v6.63c0.69,0.93,2.13,2.07,3.69,2.07c2.22,0,3.42-1.681,3.42-5.01
		C139.791,392.142,138.531,390.401,136.251,390.401z"/>
	<path fill="#19162B" d="M159.44,396.852h-10.41c0.33,3.029,2.04,4.319,3.96,4.319c1.32,0,2.37-0.479,3.42-1.26l1.83,1.979
		c-1.38,1.32-3.03,2.07-5.43,2.07c-3.69,0-6.81-2.97-6.81-8.189c0-5.34,2.82-8.22,6.9-8.22c4.47,0,6.63,3.63,6.63,7.89
		C159.531,396.011,159.471,396.521,159.44,396.852z M152.691,390.342c-2.07,0-3.33,1.439-3.6,3.959h7.32
		C156.261,392.142,155.241,390.342,152.691,390.342z"/>
	<path fill="#19162B" d="M171.92,391.151c-0.66-0.36-1.35-0.57-2.37-0.57c-1.95,0-3.09,1.38-3.09,4.05v9h-3.09v-15.749h3.09v1.5
		c0.72-1.051,2.04-1.83,3.6-1.83c1.26,0,2.04,0.239,2.67,0.66L171.92,391.151z"/>
	<path fill="#19162B" d="M190.19,403.961c-3.959,0-6.93-3.27-6.93-8.189c0-5.16,3.06-8.22,7.02-8.22c4.02,0,7.02,3.21,7.02,8.13
		C197.3,400.901,194.24,403.961,190.19,403.961z M190.16,390.491c-2.34,0-3.78,2.07-3.78,5.19c0,3.449,1.59,5.339,3.93,5.339
		s3.87-2.369,3.87-5.249C194.18,392.562,192.65,390.491,190.16,390.491z"/>
	<path fill="#19162B" d="M206.24,384.552c-1.02,0-1.44,0.39-1.44,1.53v1.8h2.91v2.88h-2.91v12.869h-3.09v-12.869h-2.04v-2.88h2.04
		v-2.07c0-2.88,1.77-3.96,3.99-3.96c0.81,0,1.68,0.12,2.34,0.3v2.7C207.32,384.642,206.78,384.552,206.24,384.552z"/>
	<path fill="#19162B" d="M224.72,409.421l-1.05-2.34c4.44-0.21,5.4-1.41,5.4-4.68v-0.271c-1.14,1.05-2.43,1.83-4.08,1.83
		c-3.36,0-6.06-2.46-6.06-8.46c0-5.399,2.97-7.949,6.21-7.949c1.59,0,3.09,0.84,3.93,1.8v-1.47h3.09v14.249
		C232.159,406.931,230.419,409.24,224.72,409.421z M229.129,392.472c-0.69-0.931-2.13-2.07-3.69-2.07c-2.22,0-3.42,1.68-3.42,5.01
		c0,3.96,1.26,5.7,3.54,5.7c1.47,0,2.76-0.99,3.57-2.011V392.472z"/>
	<path fill="#19162B" d="M245.75,403.631v-1.56c-1.08,1.079-2.61,1.89-4.32,1.89c-2.55,0-5.46-1.44-5.46-5.31
		c0-3.51,2.7-5.101,6.27-5.101c1.47,0,2.64,0.211,3.51,0.601v-1.17c0-1.71-1.05-2.67-2.97-2.67c-1.62,0-2.88,0.3-4.11,0.99
		l-1.2-2.34c1.5-0.931,3.18-1.41,5.4-1.41c3.51,0,5.91,1.71,5.91,5.279v10.8H245.75z M245.75,396.911c-0.84-0.42-1.92-0.69-3.6-0.69
		c-1.979,0-3.24,0.9-3.24,2.341c0,1.56,0.99,2.609,3.03,2.609c1.65,0,3.09-1.02,3.81-2.01V396.911z"/>
	<path fill="#19162B" d="M253.369,403.631v-20.249l3.09-1.62v21.869H253.369z"/>
	<path fill="#19162B" d="M261.319,403.631v-20.249l3.09-1.62v21.869H261.319z"/>
	<path fill="#19162B" d="M275.298,403.961c-3.959,0-6.929-3.27-6.929-8.189c0-5.16,3.06-8.22,7.02-8.22c4.02,0,7.02,3.21,7.02,8.13
		C282.409,400.901,279.349,403.961,275.298,403.961z M275.269,390.491c-2.34,0-3.779,2.07-3.779,5.19c0,3.449,1.59,5.339,3.93,5.339
		s3.869-2.369,3.869-5.249C279.289,392.562,277.759,390.491,275.269,390.491z"/>
	<path fill="#19162B" d="M295.789,403.631v-8.909c0-3.181-1.2-4.32-3.24-4.32c-2.07,0-3.24,1.47-3.24,4.02v9.21h-3.09v-15.749h3.09
		v1.5c0.781-1.141,2.34-1.83,3.961-1.83c3.659,0,5.609,2.399,5.609,7.05v9.029H295.789z"/>
	<path fill="#19162B" d="M308.419,403.961c-2.131,0-4.44-0.84-6.03-2.01l1.409-2.34c1.471,1.02,3.121,1.56,4.59,1.56
		c1.951,0,2.881-0.63,2.881-1.74c0-1.199-1.381-1.77-3.66-2.64c-3.391-1.32-4.62-2.46-4.62-4.949c0-2.82,2.22-4.29,5.37-4.29
		c1.98,0,3.93,0.72,5.34,1.739l-1.35,2.37c-1.291-0.899-2.58-1.35-4.08-1.35s-2.16,0.6-2.16,1.439c0,0.78,0.54,1.351,2.91,2.28
		c3.51,1.35,5.31,2.31,5.31,5.279C314.329,402.791,311.509,403.961,308.419,403.961z"/>
	<path fill="#19162B" d="M328.098,385.842c-1.11,0-2.01-0.9-2.01-1.98c0-1.109,0.899-2.01,2.01-2.01c1.08,0,1.979,0.9,1.979,2.01
		C330.078,384.941,329.178,385.842,328.098,385.842z M326.539,403.631v-15.749h3.09v15.749H326.539z"/>
	<path fill="#19162B" d="M341.868,403.241c-0.75,0.42-1.8,0.72-3.03,0.72c-2.189,0-3.539-1.35-3.539-4.17v-9.09h-2.25v-2.819h2.25
		v-4.5l3.029-1.62v6.12h3.9v2.819h-3.9v8.55c0,1.47,0.48,1.89,1.62,1.89c0.81,0,1.71-0.3,2.28-0.63L341.868,403.241z"/>
	<path fill="#19162B" d="M362.058,403.241c-0.75,0.42-1.801,0.72-3.03,0.72c-2.19,0-3.54-1.35-3.54-4.17v-9.09h-2.25v-2.819h2.25
		v-4.5l3.029-1.62v6.12h3.9v2.819h-3.9v8.55c0,1.47,0.48,1.89,1.621,1.89c0.81,0,1.709-0.3,2.279-0.63L362.058,403.241z"/>
	<path fill="#19162B" d="M375.198,403.631v-1.56c-1.08,1.079-2.61,1.89-4.319,1.89c-2.551,0-5.461-1.44-5.461-5.31
		c0-3.51,2.701-5.101,6.271-5.101c1.47,0,2.64,0.211,3.51,0.601v-1.17c0-1.71-1.05-2.67-2.97-2.67c-1.62,0-2.88,0.3-4.109,0.99
		l-1.201-2.34c1.5-0.931,3.181-1.41,5.4-1.41c3.51,0,5.91,1.71,5.91,5.279v10.8H375.198z M375.198,396.911
		c-0.84-0.42-1.92-0.69-3.601-0.69c-1.979,0-3.239,0.9-3.239,2.341c0,1.56,0.99,2.609,3.03,2.609c1.649,0,3.09-1.02,3.81-2.01
		V396.911z"/>
	<path fill="#19162B" d="M391.637,403.631l-3.48-7.83l-2.399,3.181v4.649h-3.09v-20.249l3.09-1.62v9.93c0,0.96-0.03,2.58-0.03,3.359
		c0.42-0.63,1.229-1.829,1.74-2.579l3.27-4.59h3.51l-3.99,5.279l4.74,10.47H391.637z"/>
	<path fill="#19162B" d="M410.477,396.852h-10.41c0.33,3.029,2.04,4.319,3.96,4.319c1.32,0,2.37-0.479,3.42-1.26l1.83,1.979
		c-1.38,1.32-3.03,2.07-5.43,2.07c-3.69,0-6.81-2.97-6.81-8.189c0-5.34,2.819-8.22,6.899-8.22c4.47,0,6.63,3.63,6.63,7.89
		C410.567,396.011,410.506,396.521,410.477,396.852z M403.727,390.342c-2.07,0-3.33,1.439-3.6,3.959h7.319
		C407.296,392.142,406.277,390.342,403.727,390.342z"/>
	<path fill="#19162B" d="M419.208,403.961c-2.13,0-4.44-0.84-6.03-2.01l1.41-2.34c1.47,1.02,3.12,1.56,4.59,1.56
		c1.95,0,2.88-0.63,2.88-1.74c0-1.199-1.38-1.77-3.66-2.64c-3.39-1.32-4.619-2.46-4.619-4.949c0-2.82,2.22-4.29,5.369-4.29
		c1.98,0,3.931,0.72,5.34,1.739l-1.35,2.37c-1.29-0.899-2.58-1.35-4.08-1.35s-2.16,0.6-2.16,1.439c0,0.78,0.54,1.351,2.91,2.28
		c3.51,1.35,5.31,2.31,5.31,5.279C425.117,402.791,422.297,403.961,419.208,403.961z"/>
	<path fill="#19162B" d="M444.707,403.241c-0.75,0.42-1.8,0.72-3.03,0.72c-2.189,0-3.539-1.35-3.539-4.17v-9.09h-2.25v-2.819h2.25
		v-4.5l3.029-1.62v6.12h3.9v2.819h-3.9v8.55c0,1.47,0.48,1.89,1.62,1.89c0.81,0,1.71-0.3,2.28-0.63L444.707,403.241z"/>
	<path fill="#19162B" d="M454.847,403.961c-3.96,0-6.93-3.27-6.93-8.189c0-5.16,3.06-8.22,7.02-8.22c4.02,0,7.02,3.21,7.02,8.13
		C461.957,400.901,458.897,403.961,454.847,403.961z M454.817,390.491c-2.34,0-3.78,2.07-3.78,5.19c0,3.449,1.591,5.339,3.931,5.339
		s3.869-2.369,3.869-5.249C458.836,392.562,457.307,390.491,454.817,390.491z"/>
</g>
<g enable-background="new    ">
	<path fill="#19162B" d="M186.41,420.552c-1.02,0-1.44,0.39-1.44,1.53v1.8h2.91v2.88h-2.91v12.869h-3.09v-12.869h-2.04v-2.88h2.04
		v-2.07c0-2.88,1.77-3.96,3.99-3.96c0.81,0,1.68,0.12,2.34,0.3v2.7C187.49,420.642,186.95,420.552,186.41,420.552z M193.19,421.842
		c-1.11,0-2.01-0.9-2.01-1.98c0-1.109,0.9-2.01,2.01-2.01c1.08,0,1.979,0.9,1.979,2.01
		C195.169,420.941,194.27,421.842,193.19,421.842z M191.63,439.631v-15.749h3.09v15.749H191.63z"/>
	<path fill="#19162B" d="M199.58,439.631v-20.249l3.09-1.62v21.869H199.58z"/>
	<path fill="#19162B" d="M207.53,439.631v-20.249l3.09-1.62v21.869H207.53z"/>
	<path fill="#19162B" d="M232.459,439.631v-1.56c-1.08,1.079-2.61,1.89-4.32,1.89c-2.55,0-5.46-1.44-5.46-5.31
		c0-3.51,2.7-5.101,6.27-5.101c1.47,0,2.64,0.211,3.51,0.601v-1.17c0-1.71-1.05-2.67-2.97-2.67c-1.62,0-2.88,0.3-4.11,0.99
		l-1.2-2.34c1.5-0.931,3.18-1.41,5.4-1.41c3.51,0,5.91,1.71,5.91,5.279v10.8H232.459z M232.459,432.911
		c-0.84-0.42-1.92-0.69-3.6-0.69c-1.979,0-3.24,0.9-3.24,2.341c0,1.56,0.99,2.609,3.03,2.609c1.65,0,3.09-1.02,3.81-2.01V432.911z"
		/>
	<path fill="#19162B" d="M255.049,439.961c-1.59,0-3.09-0.84-3.96-1.8v1.47h-3.06v-20.279l3.06-1.59v7.62
		c1.14-1.051,2.46-1.83,4.11-1.83c3.39,0,6.06,2.46,6.06,8.459C261.258,437.411,258.318,439.961,255.049,439.961z M254.628,426.401
		c-1.47,0-2.76,0.99-3.57,2.01v6.63c0.69,0.93,2.13,2.07,3.69,2.07c2.22,0,3.42-1.681,3.42-5.01
		C258.168,428.142,256.909,426.401,254.628,426.401z"/>
	<path fill="#19162B" d="M273.918,439.631v-1.56c-1.08,1.079-2.61,1.89-4.319,1.89c-2.55,0-5.46-1.44-5.46-5.31
		c0-3.51,2.7-5.101,6.27-5.101c1.47,0,2.64,0.211,3.51,0.601v-1.17c0-1.71-1.05-2.67-2.97-2.67c-1.62,0-2.88,0.3-4.11,0.99
		l-1.2-2.34c1.5-0.931,3.18-1.41,5.4-1.41c3.51,0,5.91,1.71,5.91,5.279v10.8H273.918z M273.918,432.911
		c-0.84-0.42-1.92-0.69-3.601-0.69c-1.979,0-3.239,0.9-3.239,2.341c0,1.56,0.99,2.609,3.03,2.609c1.649,0,3.09-1.02,3.81-2.01
		V432.911z"/>
	<path fill="#19162B" d="M288.917,439.241c-0.75,0.42-1.799,0.72-3.029,0.72c-2.189,0-3.54-1.35-3.54-4.17v-9.09h-2.25v-2.819h2.25
		v-4.5l3.03-1.62v6.12h3.899v2.819h-3.899v8.55c0,1.47,0.479,1.89,1.619,1.89c0.811,0,1.711-0.3,2.28-0.63L288.917,439.241z"/>
	<path fill="#19162B" d="M303.048,439.631v-8.909c0-3.181-1.2-4.32-3.24-4.32c-2.07,0-3.24,1.47-3.24,4.02v9.21h-3.09v-20.249
		l3.09-1.62v7.62c0.781-1.141,2.34-1.83,3.961-1.83c3.659,0,5.609,2.399,5.609,7.05v9.029H303.048z"/>
	<path fill="#19162B" d="M317.958,439.241c-0.75,0.42-1.8,0.72-3.029,0.72c-2.19,0-3.541-1.35-3.541-4.17v-9.09h-2.25v-2.819h2.25
		v-4.5l3.03-1.62v6.12h3.899v2.819h-3.899v8.55c0,1.47,0.479,1.89,1.62,1.89c0.811,0,1.71-0.3,2.279-0.63L317.958,439.241z"/>
	<path fill="#19162B" d="M331.728,439.631v-1.5c-0.779,1.14-2.34,1.83-3.959,1.83c-3.66,0-5.61-2.4-5.61-7.05v-9.029h3.091v8.909
		c0,3.18,1.199,4.32,3.239,4.32c2.069,0,3.239-1.471,3.239-4.021v-9.209h3.09v15.749H331.728z"/>
	<path fill="#19162B" d="M346.398,439.961c-1.59,0-3.09-0.84-3.959-1.8v1.47h-3.061v-20.279l3.061-1.59v7.62
		c1.14-1.051,2.459-1.83,4.109-1.83c3.39,0,6.06,2.46,6.06,8.459C352.608,437.411,349.667,439.961,346.398,439.961z
		 M345.978,426.401c-1.47,0-2.76,0.99-3.57,2.01v6.63c0.69,0.93,2.131,2.07,3.69,2.07c2.22,0,3.42-1.681,3.42-5.01
		C349.518,428.142,348.258,426.401,345.978,426.401z"/>
</g>
<g id="Layer_1_1_">
	<g enable-background="new    ">
		<path fill="#19162B" d="M295.419,304.548v28.6H268.42v-28.6h-76.599v-25.199l74.199-86.199h29.399v85.398h18.4v26H295.419z
			 M256.62,240.949l-20,23.399c-4.4,5.2-10.2,11.6-13.2,14.6c4.8,0,19.8-0.4,27.799-0.4h17.2v-22.799c0-8,0.6-25.4,0.6-30.6
			C266.42,228.749,261.22,235.549,256.62,240.949z"/>
		<path fill="#19162B" d="M390.619,335.348c-38.199,0-58.599-29.6-58.599-72.199s20.6-72.199,58.799-72.199
			c38.2,0,58.8,29.2,58.8,71.8C449.619,305.348,428.818,335.348,390.619,335.348z M390.619,218.35
			c-21.399,0-30.199,19.399-30.199,44.399c0,24.999,9,45.199,30.399,45.199s30.399-19.8,30.399-44.8S412.019,218.35,390.619,218.35z
			"/>
	</g>
	<path fill="#19162B" d="M163.297,625.917C164.402,628.681,164.402,628.681,163.297,625.917
		c-2.412-6.026-7.233-55.433-13.258-77.125c-6.027-21.693-22.898-20.487-22.898-20.487h277.251c0,0-16.873-1.203-22.896,20.488
		c-6.023,21.692-10.861,65.899-13.271,71.927c-2.406,6.026,0.018,5.197,0.018,5.197 M371.931,528.292V492.14
		c0,0-10.395-27.113-26.664,0v5.426h3.164l1.809-4.975c0,0,9.941-16.269,15.816-0.451l0.904,36.152H371.931L371.931,528.292z
		 M345.267,626.185c6.779,0,13.332,27.116,13.332,27.116h13.332v-5.875c-0.451-9.491-7.684-4.064-7.684-4.064
		c-1.355-10.396-10.846-17.176-10.846-17.176S338.488,626.185,345.267,626.185z M178.098,626.185c0,0-9.491,6.779-10.846,17.177
		c0,0-7.231-5.427-7.683,4.064v5.875H172.9c0,0,6.553-27.116,13.332-27.116C193.011,626.185,178.098,626.185,178.098,626.185z"/>
</g>
</svg>
