<?xml version="1.0" encoding="utf-8"?>
<!-- Generator: Adobe Illustrator 15.1.0, SVG Export Plug-In . SVG Version: 6.00 Build 0)  -->
<!DOCTYPE svg PUBLIC "-//W3C//DTD SVG 1.1//EN" "http://www.w3.org/Graphics/SVG/1.1/DTD/svg11.dtd">
<svg version="1.1" id="Layer_1" xmlns="http://www.w3.org/2000/svg" xmlns:xlink="http://www.w3.org/1999/xlink" x="0px" y="0px"
	 width="536.378px" height="780.521px" viewBox="0 0 536.378 780.521" enable-background="new 0 0 536.378 780.521"
	 xml:space="preserve">
<rect x="32.689" y="381.761" fill="none" width="468" height="82"/>
<g enable-background="new    ">
	<path fill="#19152B" d="M202.08,313.152v-55.66h-13.2v-11.33c8.58-0.44,14.19-3.63,15.73-10.01h12.76v77H202.08z"/>
	<path fill="#19152B" d="M242.779,327.013h-10.34l1.65-32.45h17.93L242.779,327.013z"/>
	<path fill="#19152B" d="M292.498,314.362c-11.109,0-20.35-2.2-30.03-8.25l7.48-13.09c7.15,4.069,14.74,6.49,22.55,6.49
		c10.451,0,16.5-4.4,16.5-12.65c0-8.03-5.83-11.44-13.09-11.44c-6.93,0-11.55,2.09-15.18,4.62l-14.63-5.39l2.64-38.5h51.26v14.85
		h-37.069l-0.88,13.311c4.289-2.311,8.91-3.521,16.17-3.521c17.27,0,26.4,11,26.4,25.521
		C324.619,304.792,311.417,314.362,292.498,314.362z"/>
	<path fill="#19152B" d="M368.068,314.362c-21.01,0-32.23-16.28-32.23-39.71c0-23.431,11.33-39.71,32.341-39.71
		c21.01,0,32.34,16.06,32.34,39.489C400.518,297.862,389.078,314.362,368.068,314.362z M368.068,250.012
		c-11.77,0-16.609,10.67-16.609,24.42c0,13.751,4.949,24.86,16.72,24.86s16.72-10.89,16.72-24.64S379.838,250.012,368.068,250.012z"
		/>
	<path fill="#19152B" d="M443.747,314.362c-21.01,0-32.229-16.28-32.229-39.71c0-23.431,11.33-39.71,32.34-39.71
		s32.34,16.06,32.34,39.489C476.197,297.862,464.757,314.362,443.747,314.362z M443.747,250.012c-11.771,0-16.61,10.67-16.61,24.42
		c0,13.751,4.951,24.86,16.721,24.86s16.721-10.89,16.721-24.64S455.517,250.012,443.747,250.012z"/>
</g>
<g>
	<path fill="#19162B" d="M356.066,492.689c0,0-100.304-36.931-200.109,1.992c0,0-25.45,65.871,1.996,133.241
		c0,0,79.844,42.913,198.113,2.992C356.066,630.919,374.863,574.697,356.066,492.689z"/>
	<polyline fill="#19162B" points="358.56,589.001 391.164,589.001 391.164,606.303 359.226,606.303 	"/>
	<path fill="#19162B" d="M379.189,604.306v21.291c0,0-4.66,9.979-8.65,0v-21.958L379.189,604.306z"/>
	<polygon fill="#19162B" points="379.853,590.998 379.853,581.684 385.843,576.359 365.88,576.359 371.287,581.518 371.537,591.497 
			"/>
	<rect x="188.56" y="540.431" fill="none" width="131.74" height="39.26"/>
	<g enable-background="new    ">
		<path fill="#6BBDC4" d="M206.972,576.808h-13.871V541.88h14.37c6.087,0,10.029,3.193,10.029,9.081
			c0,3.543-1.896,5.738-4.441,6.986c2.744,0.748,5.888,3.293,5.888,8.133C218.947,573.165,214.606,576.808,206.972,576.808z
			 M207.421,546.67h-9.38v9.031h9.38c3.443,0,4.84-2.146,4.84-4.44C212.261,548.666,210.914,546.67,207.421,546.67z
			 M207.521,560.441h-9.48v11.576h9.331c4.64,0,6.336-2.345,6.336-5.788C213.708,562.637,211.462,560.441,207.521,560.441z"/>
	</g>
	<g enable-background="new    ">
		<path fill="#6BBDC4" d="M226.785,576.808V541.88h22.503v5.09h-17.264v8.632h10.029v5.09h-10.029v11.026h18.012v5.09H226.785z"/>
	</g>
	<g enable-background="new    ">
		<path fill="#6BBDC4" d="M257.475,576.808V541.88h22.503v5.09h-17.264v8.632h10.029v5.09h-10.029v11.026h18.012v5.09H257.475z"/>
	</g>
	<g enable-background="new    ">
		<path fill="#6BBDC4" d="M307.024,562.537l7.136,14.271h-6.038l-6.936-13.821h-7.884v13.821h-5.139V541.88h15.318
			c6.087,0,11.227,3.243,11.227,10.429C314.708,557.896,311.764,561.34,307.024,562.537z M303.482,546.82h-10.18v11.227h10.18
			c3.492,0,5.938-1.797,5.938-5.589C309.419,548.815,307.024,546.82,303.482,546.82z"/>
	</g>
</g>
<rect x="33.267" y="386.891" fill="none" width="475" height="162"/>
<g enable-background="new    ">
	<path fill="#19152B" d="M46.764,411.783l-0.945-2.105c3.995-0.189,4.859-1.269,4.859-4.211v-0.243
		c-1.026,0.944-2.187,1.646-3.671,1.646c-3.023,0-5.453-2.213-5.453-7.612c0-4.858,2.672-7.152,5.587-7.152
		c1.431,0,2.78,0.756,3.536,1.619v-1.322h2.78v12.821C53.458,409.542,51.893,411.621,46.764,411.783z M50.732,396.532
		c-0.621-0.837-1.917-1.863-3.32-1.863c-1.998,0-3.077,1.512-3.077,4.508c0,3.563,1.134,5.129,3.185,5.129
		c1.323,0,2.483-0.891,3.212-1.809V396.532z"/>
	<path fill="#19152B" d="M65.689,406.573v-1.403c-0.972,0.972-2.348,1.7-3.887,1.7c-2.294,0-4.913-1.296-4.913-4.777
		c0-3.158,2.43-4.589,5.642-4.589c1.323,0,2.375,0.188,3.158,0.54v-1.053c0-1.539-0.945-2.402-2.672-2.402
		c-1.458,0-2.591,0.27-3.698,0.891l-1.08-2.105c1.35-0.837,2.861-1.269,4.859-1.269c3.158,0,5.317,1.538,5.317,4.75v9.718H65.689z
		 M65.689,400.526c-0.756-0.377-1.728-0.62-3.239-0.62c-1.781,0-2.915,0.81-2.915,2.105c0,1.403,0.891,2.348,2.726,2.348
		c1.485,0,2.78-0.917,3.428-1.808V400.526z"/>
	<path fill="#19152B" d="M72.549,406.573v-18.22l2.78-1.458v19.678H72.549z"/>
	<path fill="#19152B" d="M79.705,406.573v-18.22l2.78-1.458v19.678H79.705z"/>
	<path fill="#19152B" d="M92.285,406.87c-3.563,0-6.235-2.942-6.235-7.369c0-4.643,2.753-7.396,6.316-7.396
		c3.617,0,6.316,2.888,6.316,7.314C98.682,404.117,95.929,406.87,92.285,406.87z M92.258,394.75c-2.105,0-3.401,1.863-3.401,4.67
		c0,3.104,1.431,4.805,3.536,4.805c2.105,0,3.482-2.132,3.482-4.724C95.875,396.613,94.498,394.75,92.258,394.75z"/>
	<path fill="#19152B" d="M110.725,406.573v-8.017c0-2.861-1.08-3.888-2.915-3.888c-1.863,0-2.916,1.323-2.916,3.617v8.287h-2.78
		v-14.171h2.78v1.35c0.702-1.026,2.105-1.646,3.563-1.646c3.293,0,5.048,2.159,5.048,6.343v8.125H110.725z"/>
	<path fill="#19152B" d="M122.093,406.87c-1.917,0-3.995-0.756-5.425-1.809l1.269-2.105c1.323,0.918,2.807,1.403,4.13,1.403
		c1.754,0,2.591-0.566,2.591-1.565c0-1.079-1.242-1.592-3.293-2.375c-3.05-1.188-4.157-2.214-4.157-4.454
		c0-2.537,1.998-3.859,4.832-3.859c1.781,0,3.536,0.647,4.805,1.565l-1.215,2.132c-1.161-0.81-2.321-1.214-3.671-1.214
		s-1.943,0.539-1.943,1.295c0,0.702,0.486,1.215,2.618,2.052c3.158,1.215,4.778,2.078,4.778,4.751
		C127.411,405.817,124.873,406.87,122.093,406.87z"/>
	<path fill="#19152B" d="M146.877,406.573v-8.017c0-2.861-1.08-3.888-2.915-3.888c-1.863,0-2.916,1.323-2.916,3.617v8.287h-2.78
		v-14.171h2.78v1.35c0.702-1.026,2.105-1.646,3.563-1.646c3.293,0,5.048,2.159,5.048,6.343v8.125H146.877z"/>
	<path fill="#19152B" d="M165.074,400.473h-9.366c0.297,2.727,1.835,3.887,3.563,3.887c1.188,0,2.132-0.432,3.077-1.133l1.646,1.781
		c-1.242,1.188-2.726,1.862-4.886,1.862c-3.32,0-6.127-2.672-6.127-7.369c0-4.805,2.538-7.396,6.208-7.396
		c4.022,0,5.965,3.266,5.965,7.099C165.155,399.717,165.102,400.176,165.074,400.473z M159.001,394.615
		c-1.862,0-2.996,1.296-3.239,3.563h6.586C162.213,396.235,161.295,394.615,159.001,394.615z"/>
	<path fill="#19152B" d="M180.032,400.473h-9.366c0.297,2.727,1.835,3.887,3.563,3.887c1.188,0,2.132-0.432,3.077-1.133l1.646,1.781
		c-1.242,1.188-2.726,1.862-4.886,1.862c-3.32,0-6.127-2.672-6.127-7.369c0-4.805,2.538-7.396,6.208-7.396
		c4.022,0,5.965,3.266,5.965,7.099C180.113,399.717,180.059,400.176,180.032,400.473z M173.958,394.615
		c-1.862,0-2.996,1.296-3.239,3.563h6.586C177.171,396.235,176.253,394.615,173.958,394.615z"/>
	<path fill="#19152B" d="M192.101,406.573v-1.35c-1.025,0.944-2.213,1.646-3.698,1.646c-3.05,0-5.453-2.213-5.453-7.612
		c0-4.858,2.645-7.152,5.587-7.152c1.431,0,2.78,0.756,3.563,1.619v-5.398l2.753-1.431v19.678H192.101z M192.128,396.532
		c-0.621-0.837-1.917-1.863-3.32-1.863c-1.998,0-3.077,1.512-3.077,4.508c0,3.563,1.134,5.129,3.185,5.129
		c1.323,0,2.483-0.891,3.212-1.809V396.532z"/>
	<path fill="#19152B" d="M210.379,400.473h-9.366c0.297,2.727,1.835,3.887,3.563,3.887c1.188,0,2.132-0.432,3.077-1.133l1.646,1.781
		c-1.242,1.188-2.726,1.862-4.886,1.862c-3.32,0-6.127-2.672-6.127-7.369c0-4.805,2.538-7.396,6.208-7.396
		c4.022,0,5.965,3.266,5.965,7.099C210.46,399.717,210.406,400.176,210.379,400.473z M204.306,394.615
		c-1.862,0-2.996,1.296-3.239,3.563h6.586C207.518,396.235,206.6,394.615,204.306,394.615z"/>
	<path fill="#19152B" d="M222.449,406.573v-1.35c-1.025,0.944-2.213,1.646-3.698,1.646c-3.05,0-5.453-2.213-5.453-7.612
		c0-4.858,2.645-7.152,5.587-7.152c1.431,0,2.78,0.756,3.563,1.619v-5.398l2.753-1.431v19.678H222.449z M222.476,396.532
		c-0.621-0.837-1.917-1.863-3.32-1.863c-1.998,0-3.077,1.512-3.077,4.508c0,3.563,1.134,5.129,3.185,5.129
		c1.323,0,2.483-0.891,3.212-1.809V396.532z"/>
	<path fill="#19152B" d="M243.374,406.223c-0.675,0.378-1.62,0.647-2.726,0.647c-1.971,0-3.186-1.215-3.186-3.752v-8.179h-2.024
		v-2.537h2.024v-4.049l2.727-1.458v5.507h3.509v2.537h-3.509v7.692c0,1.323,0.432,1.701,1.458,1.701
		c0.729,0,1.539-0.271,2.051-0.567L243.374,406.223z"/>
	<path fill="#19152B" d="M252.5,406.87c-3.563,0-6.235-2.942-6.235-7.369c0-4.643,2.753-7.396,6.316-7.396
		c3.617,0,6.316,2.888,6.316,7.314C258.897,404.117,256.144,406.87,252.5,406.87z M252.473,394.75c-2.105,0-3.401,1.863-3.401,4.67
		c0,3.104,1.43,4.805,3.536,4.805s3.482-2.132,3.482-4.724C256.09,396.613,254.713,394.75,252.473,394.75z"/>
	<path fill="#19152B" d="M275.935,406.87c-1.43,0-2.779-0.756-3.562-1.619v5.102l-2.754,1.431v-19.381h2.754v1.35
		c1.025-0.945,2.213-1.646,3.698-1.646c3.05,0,5.452,2.213,5.452,7.611C281.523,404.576,278.878,406.87,275.935,406.87z
		 M275.558,394.669c-1.323,0-2.484,0.892-3.213,1.809v5.966c0.621,0.837,1.917,1.862,3.32,1.862c1.998,0,3.077-1.512,3.077-4.508
		C278.743,396.235,277.609,394.669,275.558,394.669z"/>
	<path fill="#19152B" d="M292.703,395.345c-0.595-0.324-1.215-0.514-2.133-0.514c-1.755,0-2.781,1.242-2.781,3.645v8.098h-2.779
		v-14.171h2.779v1.35c0.648-0.945,1.836-1.646,3.24-1.646c1.133,0,1.835,0.216,2.402,0.594L292.703,395.345z"/>
	<path fill="#19152B" d="M301.181,406.87c-3.563,0-6.236-2.942-6.236-7.369c0-4.643,2.754-7.396,6.316-7.396
		c3.617,0,6.316,2.888,6.316,7.314C307.578,404.117,304.825,406.87,301.181,406.87z M301.154,394.75c-2.105,0-3.4,1.863-3.4,4.67
		c0,3.104,1.43,4.805,3.535,4.805s3.482-2.132,3.482-4.724C304.771,396.613,303.394,394.75,301.154,394.75z"/>
	<path fill="#19152B" d="M319.917,396.478c-1.16-1.188-2.187-1.728-3.455-1.728c-2.024,0-3.32,1.809-3.32,4.697
		c0,2.78,1.188,4.777,3.401,4.777c1.323,0,2.105-0.594,3.212-1.754l1.781,1.754c-1.105,1.404-2.51,2.646-5.074,2.646
		c-3.455,0-6.127-2.915-6.127-7.342c0-4.697,2.753-7.423,6.208-7.423c2.079,0,3.698,0.836,5.021,2.402L319.917,396.478z"/>
	<path fill="#19152B" d="M336.062,400.473h-9.365c0.297,2.727,1.835,3.887,3.562,3.887c1.188,0,2.133-0.432,3.077-1.133l1.646,1.781
		c-1.241,1.188-2.726,1.862-4.886,1.862c-3.32,0-6.127-2.672-6.127-7.369c0-4.805,2.537-7.396,6.208-7.396
		c4.022,0,5.966,3.266,5.966,7.099C336.144,399.717,336.089,400.176,336.062,400.473z M329.99,394.615
		c-1.863,0-2.996,1.296-3.24,3.563h6.587C333.202,396.235,332.284,394.615,329.99,394.615z"/>
	<path fill="#19152B" d="M343.921,406.87c-1.917,0-3.995-0.756-5.426-1.809l1.269-2.105c1.323,0.918,2.808,1.403,4.13,1.403
		c1.754,0,2.591-0.566,2.591-1.565c0-1.079-1.241-1.592-3.292-2.375c-3.051-1.188-4.158-2.214-4.158-4.454
		c0-2.537,1.998-3.859,4.832-3.859c1.781,0,3.536,0.647,4.805,1.565l-1.214,2.132c-1.161-0.81-2.321-1.214-3.671-1.214
		s-1.943,0.539-1.943,1.295c0,0.702,0.485,1.215,2.617,2.052c3.158,1.215,4.778,2.078,4.778,4.751
		C349.239,405.817,346.702,406.87,343.921,406.87z"/>
	<path fill="#19152B" d="M357.125,406.87c-1.917,0-3.995-0.756-5.426-1.809l1.269-2.105c1.322,0.918,2.808,1.403,4.13,1.403
		c1.755,0,2.591-0.566,2.591-1.565c0-1.079-1.241-1.592-3.293-2.375c-3.05-1.188-4.156-2.214-4.156-4.454
		c0-2.537,1.997-3.859,4.831-3.859c1.782,0,3.536,0.647,4.805,1.565l-1.214,2.132c-1.161-0.81-2.322-1.214-3.672-1.214
		s-1.943,0.539-1.943,1.295c0,0.702,0.486,1.215,2.618,2.052c3.158,1.215,4.778,2.078,4.778,4.751
		C362.442,405.817,359.905,406.87,357.125,406.87z"/>
	<path fill="#19152B" d="M378.859,406.87c-3.563,0-6.235-2.942-6.235-7.369c0-4.643,2.753-7.396,6.316-7.396
		c3.616,0,6.315,2.888,6.315,7.314C385.255,404.117,382.502,406.87,378.859,406.87z M378.832,394.75
		c-2.105,0-3.401,1.863-3.401,4.67c0,3.104,1.431,4.805,3.536,4.805s3.482-2.132,3.482-4.724
		C382.449,396.613,381.072,394.75,378.832,394.75z"/>
	<path fill="#19152B" d="M397.298,406.573v-8.017c0-2.861-1.08-3.888-2.915-3.888c-1.862,0-2.915,1.323-2.915,3.617v8.287h-2.78
		v-14.171h2.78v1.35c0.701-1.026,2.105-1.646,3.562-1.646c3.293,0,5.048,2.159,5.048,6.343v8.125H397.298z"/>
	<path fill="#19152B" d="M415.496,400.473h-9.367c0.297,2.727,1.836,3.887,3.563,3.887c1.188,0,2.133-0.432,3.077-1.133l1.646,1.781
		c-1.241,1.188-2.727,1.862-4.886,1.862c-3.32,0-6.127-2.672-6.127-7.369c0-4.805,2.537-7.396,6.208-7.396
		c4.021,0,5.966,3.266,5.966,7.099C415.577,399.717,415.522,400.176,415.496,400.473z M409.422,394.615
		c-1.863,0-2.997,1.296-3.239,3.563h6.586C412.634,396.235,411.716,394.615,409.422,394.615z"/>
	<path fill="#19152B" d="M432.641,406.87c-1.431,0-2.78-0.756-3.563-1.619v1.322h-2.753v-18.247l2.753-1.431v6.856
		c1.025-0.945,2.214-1.646,3.698-1.646c3.05,0,5.452,2.213,5.452,7.611C438.228,404.576,435.583,406.87,432.641,406.87z
		 M432.263,394.669c-1.323,0-2.483,0.892-3.213,1.809v5.966c0.621,0.837,1.917,1.862,3.32,1.862c1.998,0,3.077-1.512,3.077-4.508
		C435.448,396.235,434.314,394.669,432.263,394.669z"/>
	<path fill="#19152B" d="M449.624,406.573v-1.403c-0.973,0.972-2.349,1.7-3.888,1.7c-2.294,0-4.912-1.296-4.912-4.777
		c0-3.158,2.429-4.589,5.642-4.589c1.322,0,2.375,0.188,3.158,0.54v-1.053c0-1.539-0.945-2.402-2.673-2.402
		c-1.458,0-2.591,0.27-3.698,0.891l-1.079-2.105c1.35-0.837,2.861-1.269,4.858-1.269c3.158,0,5.317,1.538,5.317,4.75v9.718H449.624z
		 M449.624,400.526c-0.756-0.377-1.728-0.62-3.239-0.62c-1.782,0-2.916,0.81-2.916,2.105c0,1.403,0.892,2.348,2.727,2.348
		c1.484,0,2.78-0.917,3.429-1.808V400.526z"/>
	<path fill="#19152B" d="M464.041,395.345c-0.594-0.324-1.215-0.514-2.132-0.514c-1.755,0-2.78,1.242-2.78,3.645v8.098h-2.78
		v-14.171h2.78v1.35c0.647-0.945,1.835-1.646,3.239-1.646c1.133,0,1.835,0.216,2.402,0.594L464.041,395.345z"/>
	<path fill="#19152B" d="M475.327,395.345c-0.594-0.324-1.215-0.514-2.132-0.514c-1.755,0-2.78,1.242-2.78,3.645v8.098h-2.78
		v-14.171h2.78v1.35c0.647-0.945,1.835-1.646,3.239-1.646c1.133,0,1.835,0.216,2.402,0.594L475.327,395.345z"/>
	<path fill="#19152B" d="M489.664,400.473h-9.367c0.297,2.727,1.836,3.887,3.563,3.887c1.188,0,2.133-0.432,3.077-1.133l1.646,1.781
		c-1.241,1.188-2.727,1.862-4.886,1.862c-3.32,0-6.127-2.672-6.127-7.369c0-4.805,2.537-7.396,6.208-7.396
		c4.021,0,5.966,3.266,5.966,7.099C489.745,399.717,489.69,400.176,489.664,400.473z M483.59,394.615
		c-1.863,0-2.997,1.296-3.239,3.563h6.586C486.802,396.235,485.884,394.615,483.59,394.615z"/>
	<path fill="#19152B" d="M493.338,406.573v-18.22l2.78-1.458v19.678H493.338z"/>
</g>
<g enable-background="new    ">
	<path fill="#19152B" d="M158.974,441.942c-2.699-2.563-5.264-6.181-5.264-11.066c0-5.048,2.51-8.611,5.264-11.229l1.404,1.215
		c-2.402,2.673-3.725,5.776-3.725,9.88c0,4.427,1.431,7.396,3.725,9.987L158.974,441.942z"/>
	<path fill="#19152B" d="M169.206,439.271c-2.672,0-5.479-1.188-6.802-3.131l2.159-1.836c1.161,1.458,2.942,2.159,4.643,2.159
		c3.023,0,4.13-1.16,4.13-3.104s-1.458-2.835-3.428-2.835h-1.755v-2.753h1.728c1.755,0,2.672-1.16,2.672-2.591
		c0-1.08-0.783-2.592-3.563-2.592c-1.484,0-2.672,0.648-3.725,1.755l-2.105-1.998c1.593-1.646,3.509-2.563,5.885-2.563
		c3.563,0,6.451,1.835,6.451,5.128c0,2.268-0.999,3.401-2.294,4.13c1.782,0.513,3.077,1.971,3.077,4.319
		C176.278,437.219,173.633,439.271,169.206,439.271z"/>
	<path fill="#19152B" d="M181.79,438.974v-14.468h-3.347v-1.971c1.944-0.135,3.536-0.783,3.887-2.456h2.294v18.895H181.79z"/>
	<path fill="#19152B" d="M201.093,444.184l-0.945-2.105c3.995-0.189,4.859-1.269,4.859-4.211v-0.243
		c-1.026,0.944-2.187,1.646-3.671,1.646c-3.023,0-5.453-2.213-5.453-7.612c0-4.858,2.672-7.152,5.587-7.152
		c1.431,0,2.78,0.756,3.536,1.619v-1.322h2.78v12.821C207.788,441.942,206.222,444.021,201.093,444.184z M205.062,428.933
		c-0.621-0.837-1.917-1.863-3.32-1.863c-1.998,0-3.077,1.512-3.077,4.508c0,3.563,1.134,5.129,3.185,5.129
		c1.323,0,2.483-0.891,3.212-1.809V428.933z"/>
	<path fill="#19152B" d="M220.019,438.974v-1.403c-0.972,0.972-2.348,1.7-3.887,1.7c-2.294,0-4.913-1.296-4.913-4.777
		c0-3.158,2.43-4.589,5.642-4.589c1.323,0,2.375,0.188,3.158,0.54v-1.053c0-1.539-0.945-2.402-2.672-2.402
		c-1.458,0-2.591,0.27-3.698,0.891l-1.08-2.105c1.35-0.837,2.861-1.269,4.859-1.269c3.158,0,5.317,1.538,5.317,4.75v9.718H220.019z
		 M220.019,432.927c-0.756-0.377-1.728-0.62-3.239-0.62c-1.781,0-2.915,0.81-2.915,2.105c0,1.403,0.891,2.348,2.726,2.348
		c1.485,0,2.78-0.917,3.428-1.808V432.927z"/>
	<path fill="#19152B" d="M226.879,438.974v-18.22l2.78-1.458v19.678H226.879z"/>
	<path fill="#19152B" d="M234.034,438.974v-18.22l2.78-1.458v19.678H234.034z"/>
	<path fill="#19152B" d="M246.614,439.271c-3.563,0-6.235-2.942-6.235-7.369c0-4.643,2.753-7.396,6.316-7.396
		c3.617,0,6.316,2.888,6.316,7.314C253.012,436.518,250.258,439.271,246.614,439.271z M246.587,427.15
		c-2.105,0-3.401,1.863-3.401,4.67c0,3.104,1.431,4.805,3.536,4.805c2.105,0,3.482-2.132,3.482-4.724
		C250.205,429.014,248.828,427.15,246.587,427.15z"/>
	<path fill="#19152B" d="M265.055,438.974v-8.017c0-2.861-1.08-3.888-2.915-3.888c-1.863,0-2.916,1.323-2.916,3.617v8.287h-2.78
		v-14.171h2.78v1.35c0.702-1.026,2.105-1.646,3.563-1.646c3.293,0,5.048,2.159,5.048,6.343v8.125H265.055z"/>
	<path fill="#19152B" d="M276.422,439.271c-1.917,0-3.995-0.756-5.425-1.809l1.268-2.105c1.323,0.918,2.808,1.403,4.131,1.403
		c1.754,0,2.591-0.566,2.591-1.565c0-1.079-1.241-1.592-3.293-2.375c-3.05-1.188-4.157-2.214-4.157-4.454
		c0-2.537,1.998-3.859,4.832-3.859c1.781,0,3.535,0.647,4.805,1.565l-1.215,2.132c-1.16-0.81-2.321-1.214-3.671-1.214
		s-1.943,0.539-1.943,1.295c0,0.702,0.485,1.215,2.618,2.052c3.158,1.215,4.777,2.078,4.777,4.751
		C281.74,438.218,279.203,439.271,276.422,439.271z"/>
	<path fill="#19152B" d="M285.009,441.916l-1.404-1.215c2.403-2.672,3.726-5.776,3.726-9.879c0-4.428-1.431-7.396-3.726-9.987
		l1.404-1.215c2.699,2.564,5.264,6.181,5.264,11.066C290.273,435.734,287.763,439.298,285.009,441.916z"/>
	<path fill="#19152B" d="M306.743,439.271c-3.563,0-6.235-2.942-6.235-7.369c0-4.643,2.754-7.396,6.316-7.396
		c3.617,0,6.316,2.888,6.316,7.314C313.14,436.518,310.386,439.271,306.743,439.271z M306.716,427.15
		c-2.105,0-3.401,1.863-3.401,4.67c0,3.104,1.431,4.805,3.536,4.805s3.482-2.132,3.482-4.724
		C310.333,429.014,308.957,427.15,306.716,427.15z"/>
	<path fill="#19152B" d="M321.188,421.807c-0.918,0-1.296,0.351-1.296,1.376v1.62h2.618v2.591h-2.618v11.58h-2.78v-11.58h-1.835
		v-2.591h1.835v-1.863c0-2.591,1.593-3.562,3.591-3.562c0.729,0,1.511,0.107,2.105,0.27v2.43
		C322.16,421.887,321.673,421.807,321.188,421.807z"/>
	<path fill="#19152B" d="M339.546,439.271c-1.43,0-2.779-0.756-3.562-1.619v1.322h-2.754v-18.247l2.754-1.431v6.856
		c1.025-0.945,2.213-1.646,3.698-1.646c3.05,0,5.452,2.213,5.452,7.611C345.134,436.977,342.49,439.271,339.546,439.271z
		 M339.169,427.069c-1.323,0-2.484,0.892-3.213,1.809v5.966c0.621,0.837,1.917,1.862,3.32,1.862c1.998,0,3.077-1.512,3.077-4.508
		C342.354,428.636,341.22,427.069,339.169,427.069z"/>
	<path fill="#19152B" d="M360.039,432.873h-9.366c0.297,2.727,1.835,3.887,3.563,3.887c1.188,0,2.132-0.432,3.076-1.133l1.646,1.781
		c-1.241,1.188-2.726,1.862-4.885,1.862c-3.32,0-6.128-2.672-6.128-7.369c0-4.805,2.538-7.396,6.208-7.396
		c4.022,0,5.966,3.266,5.966,7.099C360.12,432.117,360.066,432.576,360.039,432.873z M353.965,427.016
		c-1.862,0-2.996,1.296-3.239,3.563h6.586C357.177,428.636,356.259,427.016,353.965,427.016z"/>
	<path fill="#19152B" d="M374.996,432.873h-9.365c0.297,2.727,1.835,3.887,3.562,3.887c1.188,0,2.133-0.432,3.077-1.133l1.646,1.781
		c-1.241,1.188-2.726,1.862-4.886,1.862c-3.32,0-6.127-2.672-6.127-7.369c0-4.805,2.537-7.396,6.208-7.396
		c4.022,0,5.966,3.266,5.966,7.099C375.078,432.117,375.023,432.576,374.996,432.873z M368.923,427.016
		c-1.863,0-2.996,1.296-3.24,3.563h6.587C372.135,428.636,371.217,427.016,368.923,427.016z"/>
	<path fill="#19152B" d="M386.229,427.745c-0.595-0.324-1.215-0.514-2.133-0.514c-1.755,0-2.78,1.242-2.78,3.645v8.098h-2.78
		v-14.171h2.78v1.35c0.648-0.945,1.836-1.646,3.239-1.646c1.134,0,1.835,0.216,2.402,0.594L386.229,427.745z"/>
</g>
</svg>
