<?xml version="1.0" encoding="utf-8"?>
<!-- Generator: Adobe Illustrator 15.1.0, SVG Export Plug-In . SVG Version: 6.00 Build 0)  -->
<!DOCTYPE svg PUBLIC "-//W3C//DTD SVG 1.1//EN" "http://www.w3.org/Graphics/SVG/1.1/DTD/svg11.dtd">
<svg version="1.1" id="Layer_1" xmlns="http://www.w3.org/2000/svg" xmlns:xlink="http://www.w3.org/1999/xlink" x="0px" y="0px"
	 width="536.378px" height="780.521px" viewBox="0 0 536.378 780.521" enable-background="new 0 0 536.378 780.521"
	 xml:space="preserve">
<g>
	<g>
		<path fill="#6ABCC3" d="M329.795,47.392l-2.106,10.53c18.959,9.479,17.903,17.903,17.903,17.903
			c20.01,5.263,109.521,70.558,109.521,70.558c43.176,28.433,43.176,48.442,43.176,48.442
			c50.553,211.678,34.752,419.134,34.752,419.134c-26.328,106.364-67.396,119.005-67.396,119.005
			C434.049,754.024,330.852,779.3,330.852,779.3c-36.861,7.373-57.922-21.062-57.922-21.062c-20.01-28.435-41.069,0-41.069,0
			c-16.853,31.595-57.922,15.798-57.922,15.798c-17.903-3.157-101.101-38.964-101.101-38.964
			c-61.081-27.384-73.72-130.586-73.72-130.586c-1.052-20.011,5.267-153.751,5.267-153.751
			C9.3,427.212,71.786,135.853,71.786,135.853c12.635-31.595,121.105-69.508,121.105-69.508v-5.267
			c7.373-1.051,12.637-6.318,12.637-6.318l1.055-4.212l-3.161-6.318l8.424-12.636l2.175-18.333l100.026,15.161L329.795,47.392z
			 M162.352,163.23c0,0-30.543-35.806-51.604,10.534c0,0-23.17,112.683-9.479,171.655c0,0,5.267,15.797,15.798,7.373l11.584-4.212
			C128.651,348.581,138.13,358.056,162.352,163.23z"/>
	</g>
	<path fill="#19152B" d="M209.215,35.279c0,0,45.303,0.528,111.104,0.528V0H211.368L209.215,35.279z"/>
</g>
<rect x="32.689" y="381.761" fill="none" width="468" height="82"/>
<text transform="matrix(1 0 0 1 106.7271 402.9014)"><tspan x="0" y="0" font-family="'Interstate-Regular'" font-size="29">gallons of bottled water </tspan><tspan x="-66.887" y="34.8" font-family="'Interstate-Regular'" font-size="29">consumed by Americans one year</tspan></text>
<text transform="matrix(1 0 0 1 234.8428 288.8154)" font-family="'Interstate-Bold'" font-size="120">8.7</text>
<text transform="matrix(1 0 0 1 260.418 350.21)" font-family="'Interstate-Bold'" font-size="50">billion</text>
<path fill="#19162B" d="M295.639,574.145v79.232l3.964,3.932c2.84,41.002-7.896,38.756-7.896,38.756
	c-12.918,11.233-21.906,0-21.906,0l-4.271-0.562l-3.59,3.369c-19.096,6.179-24.713-6.739-24.713-6.739
	c-6.177-7.862-5.765-35.947-5.765-35.947l3.519-4.492v-77.548h-3.37c-2.248-40.475,21.905-54.444,21.905-54.444l1.122-6.179h-3.37
	v-16.881c15.165-7.33,29.206,0,29.206,0v18.565h-2.808v5.054c27.522,25.275,21.344,53.885,21.344,53.885H295.639z M269.632,578.694
	c0,0-25.269,27.314-22.056,48.786c0,0,2.482,15.482,18.411,15.482c0,0,16.943,1.535,18.253-19.607c0,0,0.297-8.872-7.887-21.729
	C276.354,601.626,269.93,592.133,269.632,578.694z"/>
</svg>
