<?xml version="1.0" encoding="utf-8"?>
<!-- Generator: Adobe Illustrator 15.1.0, SVG Export Plug-In . SVG Version: 6.00 Build 0)  -->
<!DOCTYPE svg PUBLIC "-//W3C//DTD SVG 1.1//EN" "http://www.w3.org/Graphics/SVG/1.1/DTD/svg11.dtd">
<svg version="1.1" id="Layer_1" xmlns="http://www.w3.org/2000/svg" xmlns:xlink="http://www.w3.org/1999/xlink" x="0px" y="0px"
	 width="536.378px" height="780.521px" viewBox="0 0 536.378 780.521" enable-background="new 0 0 536.378 780.521"
	 xml:space="preserve">
<rect x="32.689" y="381.761" fill="none" width="468" height="82"/>
<g enable-background="new    ">
	<path fill="#19152B" d="M276.96,290.136c-21.718,0-35.158-9.96-35.158-26.52c0-11.64,6.959-17.639,13.319-20.398
		c-6-3.24-9.72-8.521-9.72-14.76c0-16.56,13.919-24.959,31.558-24.959c16.561,0,31.559,7.8,31.559,24.239
		c0,5.999-3.239,11.879-9.719,15.479c6.479,2.999,13.319,8.879,13.319,19.559C312.12,279.696,298.68,290.136,276.96,290.136z
		 M276.96,251.377c-12.599,0-18.359,4.68-18.359,11.88c0,7.68,7.68,12.119,18.359,12.119c11.52,0,18.359-4.32,18.359-12
		S289.681,251.377,276.96,251.377z M276.96,218.019c-10.439,0-14.759,4.56-14.759,9.959c0,5.4,5.04,9.6,14.759,9.6
		c10.32,0,14.76-3.959,14.76-9.479C291.72,222.698,288,218.019,276.96,218.019z"/>
	<path fill="#19152B" d="M335.402,290.136c-6.12,0-11.279-5.16-11.279-11.28c0-6.119,5.159-11.279,11.279-11.279
		c6.119,0,11.279,5.16,11.279,11.279C346.681,284.976,341.521,290.136,335.402,290.136z"/>
	<path fill="#19152B" d="M384.601,288.815h-17.16c0-27.239,9.119-50.158,24.719-68.037h-42.718v-15.959h62.997v16.199
		C395.4,237.697,384.601,259.776,384.601,288.815z"/>
</g>
<g enable-background="new    ">
	<path fill="#19152B" d="M276.218,350.76c-2.299,0-4.3-0.899-5.55-2.05v1.5h-6.9v-33.002l6.9-3.45v11.851
		c1.3-1.15,3.05-2.2,5.55-2.2c5.602,0,10.201,4.2,10.201,14.001C286.419,345.26,282.719,350.76,276.218,350.76z M274.919,329.909
		c-2.15,0-3.251,0.899-4.251,2.199v9.901c1.05,1.45,2.65,2.25,4.65,2.25c2.65,0,4.101-2.301,4.101-6.7
		C279.419,332.159,277.619,329.909,274.919,329.909z"/>
	<path fill="#19152B" d="M295.568,321.809c-2.15,0-3.95-1.801-3.95-3.95c0-2.15,1.8-3.95,3.95-3.95s3.95,1.8,3.95,3.95
		C299.518,320.008,297.718,321.809,295.568,321.809z M292.118,350.21v-26.252h6.9v26.252H292.118z"/>
	<path fill="#19152B" d="M306.218,350.21v-33.002l6.9-3.45v36.452H306.218z"/>
	<path fill="#19152B" d="M320.318,350.21v-33.002l6.9-3.45v36.452H320.318z"/>
	<path fill="#19152B" d="M337.868,321.809c-2.149,0-3.95-1.801-3.95-3.95c0-2.15,1.801-3.95,3.95-3.95c2.15,0,3.95,1.8,3.95,3.95
		C341.818,320.008,340.018,321.809,337.868,321.809z M334.417,350.21v-26.252h6.9v26.252H334.417z"/>
	<path fill="#19152B" d="M358.769,350.76c-6.852,0-11.852-5.601-11.852-13.65c0-8.051,5-13.701,11.852-13.701
		c6.85,0,11.9,5.65,11.9,13.701C370.669,345.159,365.619,350.76,358.769,350.76z M358.769,330.059c-3.301,0-4.852,3-4.852,7.051
		c0,4.05,1.551,7,4.852,7c3.299,0,4.899-3.35,4.899-7C363.668,333.109,362.068,330.059,358.769,330.059z"/>
	<path fill="#19152B" d="M391.869,350.21v-14.201c0-4.7-1.601-6.1-4.451-6.1c-2.85,0-4.5,1.399-4.5,5.95v14.351h-6.9v-26.252h6.9
		v1.75c1.2-1.25,3.4-2.3,6.15-2.3c6.701,0,9.701,4.601,9.701,12.001v14.801H391.869z"/>
</g>
<path fill="#19162B" d="M295.639,574.145v79.232l3.964,3.932c2.84,41.002-7.896,38.759-7.896,38.759
	c-12.918,11.23-21.906,0-21.906,0l-4.271-0.562l-3.59,3.369c-19.096,6.179-24.713-6.739-24.713-6.739
	c-6.177-7.859-5.765-35.945-5.765-35.945l3.519-4.491V574.15h-3.37c-2.248-40.478,21.905-54.444,21.905-54.444l1.122-6.179h-3.37
	v-16.883c15.165-7.328,29.206,0,29.206,0v18.564h-2.809v5.054c27.521,25.275,21.344,53.888,21.344,53.888h-3.37V574.145z
	 M269.632,578.694c0,0-25.271,27.312-22.056,48.786c0,0,2.482,15.479,18.411,15.479c0,0,16.943,1.535,18.253-19.604
	c0,0,0.297-8.872-7.887-21.729C276.354,601.626,269.93,592.133,269.632,578.694z"/>
<rect x="31.053" y="394.761" fill="none" width="474.271" height="72"/>
<g enable-background="new    ">
	<path fill="#19152B" d="M43.067,421.5l-1.015-2.263c4.293-0.203,5.221-1.363,5.221-4.525v-0.261c-1.103,1.015-2.35,1.77-3.945,1.77
		c-3.249,0-5.859-2.379-5.859-8.181c0-5.221,2.872-7.687,6.004-7.687c1.537,0,2.987,0.812,3.8,1.74v-1.421h2.988v13.778
		C50.261,419.092,48.578,421.325,43.067,421.5z M47.331,405.11c-0.667-0.898-2.06-2.001-3.568-2.001
		c-2.146,0-3.307,1.624-3.307,4.844c0,3.829,1.218,5.512,3.423,5.512c1.421,0,2.669-0.957,3.452-1.943V405.11z"/>
	<path fill="#19152B" d="M63.396,415.901v-1.509c-1.044,1.045-2.523,1.828-4.177,1.828c-2.466,0-5.279-1.393-5.279-5.135
		c0-3.394,2.61-4.931,6.062-4.931c1.421,0,2.552,0.203,3.394,0.58v-1.132c0-1.653-1.015-2.581-2.872-2.581
		c-1.566,0-2.785,0.29-3.974,0.957l-1.16-2.263c1.45-0.899,3.075-1.363,5.221-1.363c3.394,0,5.714,1.653,5.714,5.105v10.442H63.396z
		 M63.396,409.403c-0.812-0.405-1.856-0.667-3.481-0.667c-1.914,0-3.132,0.87-3.132,2.263c0,1.509,0.957,2.523,2.93,2.523
		c1.595,0,2.987-0.986,3.684-1.943V409.403z"/>
	<path fill="#19152B" d="M70.76,415.901v-19.58l2.988-1.566v21.146H70.76z"/>
	<path fill="#19152B" d="M78.445,415.901v-19.58l2.988-1.566v21.146H78.445z"/>
	<path fill="#19152B" d="M91.961,416.221c-3.829,0-6.701-3.162-6.701-7.919c0-4.989,2.958-7.948,6.788-7.948
		c3.887,0,6.788,3.104,6.788,7.861C98.835,413.262,95.876,416.221,91.961,416.221z M91.932,403.196
		c-2.263,0-3.655,2.002-3.655,5.019c0,3.336,1.537,5.163,3.8,5.163s3.742-2.292,3.742-5.076
		C95.819,405.198,94.339,403.196,91.932,403.196z"/>
	<path fill="#19152B" d="M111.768,415.901v-8.615c0-3.074-1.16-4.177-3.132-4.177c-2.001,0-3.133,1.421-3.133,3.887v8.905h-2.988
		v-15.229h2.988v1.45c0.754-1.103,2.262-1.77,3.829-1.77c3.539,0,5.424,2.32,5.424,6.816v8.731H111.768z"/>
	<path fill="#19152B" d="M123.976,416.221c-2.06,0-4.293-0.812-5.831-1.943l1.363-2.263c1.421,0.986,3.017,1.508,4.438,1.508
		c1.885,0,2.785-0.608,2.785-1.682c0-1.161-1.334-1.712-3.539-2.553c-3.278-1.276-4.467-2.379-4.467-4.786
		c0-2.727,2.146-4.148,5.192-4.148c1.915,0,3.8,0.696,5.163,1.683l-1.305,2.291c-1.247-0.87-2.495-1.305-3.945-1.305
		s-2.088,0.58-2.088,1.393c0,0.754,0.522,1.305,2.813,2.204c3.394,1.306,5.134,2.233,5.134,5.105
		C129.69,415.089,126.963,416.221,123.976,416.221z"/>
	<path fill="#19152B" d="M147.321,416.221c-3.829,0-6.701-3.162-6.701-7.919c0-4.989,2.958-7.948,6.788-7.948
		c3.887,0,6.788,3.104,6.788,7.861C154.195,413.262,151.236,416.221,147.321,416.221z M147.292,403.196
		c-2.263,0-3.655,2.002-3.655,5.019c0,3.336,1.538,5.163,3.8,5.163c2.263,0,3.742-2.292,3.742-5.076
		C151.179,405.198,149.699,403.196,147.292,403.196z"/>
	<path fill="#19152B" d="M162.835,397.453c-0.986,0-1.392,0.377-1.392,1.479v1.74h2.813v2.784h-2.813v12.444h-2.988v-12.444h-1.973
		v-2.784h1.973v-2.002c0-2.784,1.711-3.828,3.858-3.828c0.783,0,1.625,0.115,2.263,0.29v2.61
		C163.879,397.54,163.357,397.453,162.835,397.453z"/>
	<path fill="#19152B" d="M182.555,416.221c-1.538,0-2.988-0.812-3.829-1.74v1.421h-2.958v-19.608l2.958-1.538v7.368
		c1.103-1.016,2.379-1.77,3.974-1.77c3.278,0,5.859,2.379,5.859,8.18C188.56,413.755,185.717,416.221,182.555,416.221z
		 M182.149,403.109c-1.421,0-2.668,0.957-3.452,1.943v6.41c0.667,0.899,2.06,2.002,3.568,2.002c2.146,0,3.307-1.624,3.307-4.844
		C185.572,404.792,184.354,403.109,182.149,403.109z"/>
	<path fill="#19152B" d="M198.273,416.221c-3.829,0-6.701-3.162-6.701-7.919c0-4.989,2.958-7.948,6.788-7.948
		c3.887,0,6.788,3.104,6.788,7.861C205.147,413.262,202.188,416.221,198.273,416.221z M198.244,403.196
		c-2.263,0-3.655,2.002-3.655,5.019c0,3.336,1.538,5.163,3.8,5.163c2.263,0,3.742-2.292,3.742-5.076
		C202.131,405.198,200.651,403.196,198.244,403.196z"/>
	<path fill="#19152B" d="M215.963,415.524c-0.725,0.406-1.741,0.696-2.93,0.696c-2.118,0-3.423-1.306-3.423-4.032v-8.789h-2.176
		v-2.727h2.176v-4.352l2.93-1.566v5.918h3.771v2.727h-3.771v8.267c0,1.422,0.464,1.828,1.566,1.828c0.783,0,1.653-0.29,2.205-0.609
		L215.963,415.524z"/>
	<path fill="#19152B" d="M227.215,415.524c-0.725,0.406-1.741,0.696-2.93,0.696c-2.118,0-3.423-1.306-3.423-4.032v-8.789h-2.176
		v-2.727h2.176v-4.352l2.93-1.566v5.918h3.771v2.727h-3.771v8.267c0,1.422,0.464,1.828,1.566,1.828c0.783,0,1.653-0.29,2.205-0.609
		L227.215,415.524z"/>
	<path fill="#19152B" d="M231.767,415.901v-19.58l2.988-1.566v21.146H231.767z"/>
	<path fill="#19152B" d="M251.577,409.346h-10.065c0.319,2.93,1.972,4.177,3.829,4.177c1.276,0,2.292-0.464,3.307-1.218l1.769,1.914
		c-1.334,1.276-2.93,2.002-5.25,2.002c-3.568,0-6.584-2.872-6.584-7.919c0-5.163,2.727-7.948,6.671-7.948
		c4.322,0,6.411,3.51,6.411,7.629C251.664,408.533,251.605,409.026,251.577,409.346z M245.05,403.052
		c-2.001,0-3.22,1.392-3.48,3.828h7.078C248.502,404.792,247.516,403.052,245.05,403.052z"/>
	<path fill="#19152B" d="M264.538,415.901v-1.45c-1.102,1.015-2.378,1.77-3.974,1.77c-3.278,0-5.859-2.379-5.859-8.181
		c0-5.221,2.842-7.687,6.004-7.687c1.537,0,2.987,0.812,3.829,1.74v-5.801l2.959-1.538v21.146H264.538z M264.567,405.11
		c-0.667-0.898-2.06-2.001-3.568-2.001c-2.146,0-3.307,1.624-3.307,4.844c0,3.829,1.218,5.512,3.423,5.512
		c1.421,0,2.669-0.957,3.452-1.943V405.11z"/>
	<path fill="#19152B" d="M293.625,415.901h-2.552l-2.061-7.687c-0.318-1.16-0.638-2.524-0.783-3.249
		c-0.145,0.725-0.464,2.117-0.783,3.277l-2.03,7.658h-2.552l-4.178-15.229h2.959l1.799,7.396c0.289,1.16,0.608,2.61,0.754,3.336
		c0.174-0.754,0.521-2.146,0.841-3.336l2.03-7.396h2.408l2.059,7.426c0.32,1.189,0.639,2.553,0.812,3.307
		c0.174-0.754,0.465-2.176,0.754-3.336l1.799-7.396h2.959L293.625,415.901z"/>
	<path fill="#19152B" d="M308.937,415.901v-1.509c-1.045,1.045-2.523,1.828-4.178,1.828c-2.465,0-5.279-1.393-5.279-5.135
		c0-3.394,2.611-4.931,6.062-4.931c1.422,0,2.553,0.203,3.395,0.58v-1.132c0-1.653-1.016-2.581-2.872-2.581
		c-1.566,0-2.784,0.29-3.974,0.957l-1.16-2.263c1.449-0.899,3.074-1.363,5.221-1.363c3.395,0,5.715,1.653,5.715,5.105v10.442
		H308.937z M308.937,409.403c-0.812-0.405-1.857-0.667-3.481-0.667c-1.914,0-3.132,0.87-3.132,2.263c0,1.509,0.957,2.523,2.93,2.523
		c1.595,0,2.986-0.986,3.684-1.943V409.403z"/>
	<path fill="#19152B" d="M323.436,415.524c-0.726,0.406-1.741,0.696-2.93,0.696c-2.118,0-3.423-1.306-3.423-4.032v-8.789h-2.176
		v-2.727h2.176v-4.352l2.93-1.566v5.918h3.771v2.727h-3.771v8.267c0,1.422,0.464,1.828,1.566,1.828c0.783,0,1.653-0.29,2.205-0.609
		L323.436,415.524z"/>
	<path fill="#19152B" d="M339.533,409.346h-10.065c0.319,2.93,1.972,4.177,3.829,4.177c1.275,0,2.291-0.464,3.307-1.218l1.77,1.914
		c-1.334,1.276-2.93,2.002-5.25,2.002c-3.568,0-6.585-2.872-6.585-7.919c0-5.163,2.727-7.948,6.671-7.948
		c4.322,0,6.411,3.51,6.411,7.629C339.62,408.533,339.562,409.026,339.533,409.346z M333.005,403.052
		c-2.001,0-3.219,1.392-3.48,3.828h7.078C336.458,404.792,335.472,403.052,333.005,403.052z"/>
	<path fill="#19152B" d="M351.595,403.835c-0.639-0.349-1.306-0.552-2.292-0.552c-1.885,0-2.987,1.334-2.987,3.916v8.702h-2.988
		v-15.229h2.988v1.45c0.696-1.016,1.973-1.77,3.48-1.77c1.219,0,1.973,0.232,2.582,0.639L351.595,403.835z"/>
	<path fill="#19152B" d="M372.852,405.053c-1.247-1.276-2.349-1.856-3.713-1.856c-2.175,0-3.567,1.943-3.567,5.047
		c0,2.988,1.276,5.135,3.655,5.135c1.421,0,2.262-0.639,3.451-1.886l1.915,1.886c-1.189,1.508-2.698,2.843-5.454,2.843
		c-3.713,0-6.584-3.133-6.584-7.891c0-5.047,2.959-7.977,6.672-7.977c2.233,0,3.974,0.899,5.395,2.582L372.852,405.053z"/>
	<path fill="#19152B" d="M383.9,416.221c-3.829,0-6.7-3.162-6.7-7.919c0-4.989,2.959-7.948,6.787-7.948
		c3.888,0,6.788,3.104,6.788,7.861C390.775,413.262,387.816,416.221,383.9,416.221z M383.872,403.196
		c-2.263,0-3.655,2.002-3.655,5.019c0,3.336,1.537,5.163,3.8,5.163s3.742-2.292,3.742-5.076
		C387.758,405.198,386.279,403.196,383.872,403.196z"/>
	<path fill="#19152B" d="M403.708,415.901v-8.615c0-3.074-1.16-4.177-3.133-4.177c-2.002,0-3.133,1.421-3.133,3.887v8.905h-2.988
		v-15.229h2.988v1.45c0.754-1.103,2.263-1.77,3.829-1.77c3.538,0,5.424,2.32,5.424,6.816v8.731H403.708z"/>
	<path fill="#19152B" d="M415.916,416.221c-2.06,0-4.293-0.812-5.83-1.943l1.363-2.263c1.421,0.986,3.017,1.508,4.438,1.508
		c1.886,0,2.785-0.608,2.785-1.682c0-1.161-1.335-1.712-3.539-2.553c-3.277-1.276-4.467-2.379-4.467-4.786
		c0-2.727,2.146-4.148,5.192-4.148c1.914,0,3.8,0.696,5.163,1.683l-1.306,2.291c-1.247-0.87-2.494-1.305-3.945-1.305
		c-1.45,0-2.088,0.58-2.088,1.393c0,0.754,0.521,1.305,2.813,2.204c3.394,1.306,5.134,2.233,5.134,5.105
		C421.629,415.089,418.903,416.221,415.916,416.221z"/>
	<path fill="#19152B" d="M434.592,415.901v-1.45c-0.754,1.103-2.263,1.77-3.829,1.77c-3.539,0-5.424-2.321-5.424-6.817v-8.73h2.987
		v8.615c0,3.074,1.16,4.177,3.133,4.177c2.001,0,3.133-1.422,3.133-3.887v-8.905h2.987v15.229H434.592z"/>
	<path fill="#19152B" d="M459.678,415.901v-8.615c0-3.074-0.957-4.177-2.93-4.177c-2.001,0-2.93,1.421-2.93,3.887v8.905h-2.987
		v-8.615c0-3.074-0.957-4.177-2.93-4.177c-2.002,0-2.93,1.421-2.93,3.887v8.905h-2.988v-15.229h2.988v1.45
		c0.754-1.103,2.06-1.77,3.626-1.77c2.06,0,3.364,0.783,4.177,2.233c1.103-1.363,2.292-2.233,4.67-2.233
		c3.539,0,5.222,2.32,5.222,6.816v8.731H459.678z"/>
	<path fill="#19152B" d="M479.223,409.346h-10.065c0.319,2.93,1.973,4.177,3.829,4.177c1.276,0,2.291-0.464,3.307-1.218l1.77,1.914
		c-1.335,1.276-2.93,2.002-5.251,2.002c-3.567,0-6.584-2.872-6.584-7.919c0-5.163,2.727-7.948,6.672-7.948
		c4.321,0,6.41,3.51,6.41,7.629C479.31,408.533,479.252,409.026,479.223,409.346z M472.697,403.052c-2.002,0-3.22,1.392-3.481,3.828
		h7.078C476.148,404.792,475.162,403.052,472.697,403.052z"/>
	<path fill="#19152B" d="M492.186,415.901v-1.45c-1.103,1.015-2.379,1.77-3.975,1.77c-3.277,0-5.859-2.379-5.859-8.181
		c0-5.221,2.843-7.687,6.005-7.687c1.537,0,2.987,0.812,3.829,1.74v-5.801l2.958-1.538v21.146H492.186z M492.214,405.11
		c-0.667-0.898-2.06-2.001-3.567-2.001c-2.146,0-3.307,1.624-3.307,4.844c0,3.829,1.218,5.512,3.423,5.512
		c1.421,0,2.668-0.957,3.451-1.943V405.11z"/>
</g>
<g enable-background="new    ">
	<path fill="#19152B" d="M106.606,451.021c-1.538,0-2.988-0.812-3.829-1.74v1.421h-2.958v-19.608l2.958-1.538v7.368
		c1.103-1.016,2.379-1.77,3.974-1.77c3.278,0,5.859,2.379,5.859,8.18C112.611,448.555,109.768,451.021,106.606,451.021z
		 M106.2,437.909c-1.421,0-2.668,0.957-3.452,1.943v6.41c0.667,0.899,2.06,2.002,3.568,2.002c2.146,0,3.307-1.624,3.307-4.844
		C109.623,439.592,108.405,437.909,106.2,437.909z"/>
	<path fill="#19152B" d="M121.077,456.067h-3.162l2.205-5.656l-5.599-14.938h3.278l2.495,7.455c0.464,1.334,1.16,3.597,1.334,4.438
		c0.261-0.899,0.899-3.074,1.363-4.38l2.582-7.513h3.162L121.077,456.067z"/>
	<path fill="#19152B" d="M153.559,450.701l-1.711-4.815h-8.122l-1.683,4.815h-3.162l7.31-20.305h3.22l7.396,20.305H153.559z
		 M149.295,438.489c-0.493-1.45-1.305-3.8-1.538-4.67c-0.232,0.87-0.957,3.19-1.479,4.699l-1.625,4.641h6.266L149.295,438.489z"/>
	<path fill="#19152B" d="M178.064,450.701v-8.615c0-3.074-0.958-4.177-2.93-4.177c-2.001,0-2.93,1.421-2.93,3.887v8.905h-2.988
		v-8.615c0-3.074-0.958-4.177-2.93-4.177c-2.001,0-2.93,1.421-2.93,3.887v8.905h-2.988v-15.229h2.988v1.45
		c0.754-1.103,2.06-1.77,3.625-1.77c2.06,0,3.365,0.783,4.177,2.233c1.102-1.363,2.292-2.233,4.67-2.233
		c3.539,0,5.222,2.32,5.222,6.816v8.731H178.064z"/>
	<path fill="#19152B" d="M197.609,444.146h-10.065c0.319,2.93,1.972,4.177,3.829,4.177c1.276,0,2.292-0.464,3.307-1.218l1.769,1.914
		c-1.334,1.276-2.93,2.002-5.25,2.002c-3.568,0-6.584-2.872-6.584-7.919c0-5.163,2.727-7.948,6.671-7.948
		c4.322,0,6.411,3.51,6.411,7.629C197.696,443.333,197.638,443.826,197.609,444.146z M191.083,437.852
		c-2.001,0-3.22,1.392-3.48,3.828h7.078C194.535,439.592,193.548,437.852,191.083,437.852z"/>
	<path fill="#19152B" d="M209.672,438.635c-0.638-0.349-1.306-0.552-2.292-0.552c-1.886,0-2.988,1.334-2.988,3.916v8.702h-2.988
		v-15.229h2.988v1.45c0.696-1.016,1.972-1.77,3.48-1.77c1.219,0,1.973,0.232,2.582,0.639L209.672,438.635z"/>
	<path fill="#19152B" d="M215.18,433.5c-1.073,0-1.943-0.87-1.943-1.914c0-1.073,0.87-1.943,1.943-1.943
		c1.044,0,1.915,0.87,1.915,1.943C217.095,432.63,216.225,433.5,215.18,433.5z M213.672,450.701v-15.229h2.988v15.229H213.672z"/>
	<path fill="#19152B" d="M230.784,439.853c-1.248-1.276-2.35-1.856-3.713-1.856c-2.176,0-3.568,1.943-3.568,5.047
		c0,2.988,1.276,5.135,3.655,5.135c1.421,0,2.263-0.639,3.452-1.886l1.915,1.886c-1.189,1.508-2.697,2.843-5.453,2.843
		c-3.713,0-6.584-3.133-6.584-7.891c0-5.047,2.958-7.977,6.671-7.977c2.233,0,3.974,0.899,5.396,2.582L230.784,439.853z"/>
	<path fill="#19152B" d="M244.587,450.701v-1.509c-1.044,1.045-2.523,1.828-4.177,1.828c-2.466,0-5.279-1.393-5.279-5.135
		c0-3.394,2.61-4.931,6.062-4.931c1.421,0,2.552,0.203,3.394,0.58v-1.132c0-1.653-1.015-2.581-2.872-2.581
		c-1.566,0-2.785,0.29-3.974,0.957l-1.16-2.263c1.45-0.899,3.075-1.363,5.221-1.363c3.394,0,5.714,1.653,5.714,5.105v10.442H244.587
		z M244.587,444.203c-0.812-0.405-1.856-0.667-3.481-0.667c-1.914,0-3.132,0.87-3.132,2.263c0,1.509,0.957,2.523,2.93,2.523
		c1.595,0,2.987-0.986,3.684-1.943V444.203z"/>
	<path fill="#19152B" d="M261.059,450.701v-8.615c0-3.074-1.16-4.177-3.132-4.177c-2.001,0-3.133,1.421-3.133,3.887v8.905h-2.988
		v-15.229h2.988v1.45c0.754-1.103,2.262-1.77,3.829-1.77c3.539,0,5.424,2.32,5.424,6.816v8.731H261.059z"/>
	<path fill="#19152B" d="M273.267,451.021c-2.06,0-4.293-0.812-5.831-1.943l1.364-2.263c1.421,0.986,3.017,1.508,4.438,1.508
		c1.886,0,2.785-0.608,2.785-1.682c0-1.161-1.334-1.712-3.539-2.553c-3.277-1.276-4.467-2.379-4.467-4.786
		c0-2.727,2.147-4.148,5.192-4.148c1.915,0,3.801,0.696,5.164,1.683l-1.306,2.291c-1.247-0.87-2.495-1.305-3.944-1.305
		c-1.451,0-2.089,0.58-2.089,1.393c0,0.754,0.522,1.305,2.813,2.204c3.395,1.306,5.135,2.233,5.135,5.105
		C278.982,449.889,276.255,451.021,273.267,451.021z"/>
	<path fill="#19152B" d="M292.29,433.5c-1.073,0-1.943-0.87-1.943-1.914c0-1.073,0.87-1.943,1.943-1.943
		c1.044,0,1.915,0.87,1.915,1.943C294.205,432.63,293.333,433.5,292.29,433.5z M290.781,450.701v-15.229h2.988v15.229H290.781z"/>
	<path fill="#19152B" d="M307.574,450.701v-8.615c0-3.074-1.16-4.177-3.132-4.177c-2.001,0-3.133,1.421-3.133,3.887v8.905h-2.987
		v-15.229h2.987v1.45c0.754-1.103,2.263-1.77,3.829-1.77c3.539,0,5.424,2.32,5.424,6.816v8.731H307.574z"/>
	<path fill="#19152B" d="M328.656,451.021c-3.828,0-6.7-3.162-6.7-7.919c0-4.989,2.958-7.948,6.788-7.948
		c3.887,0,6.787,3.104,6.787,7.861C335.531,448.062,332.572,451.021,328.656,451.021z M328.626,437.996
		c-2.262,0-3.654,2.002-3.654,5.019c0,3.336,1.537,5.163,3.8,5.163s3.742-2.292,3.742-5.076
		C332.514,439.998,331.035,437.996,328.626,437.996z"/>
	<path fill="#19152B" d="M348.463,450.701v-8.615c0-3.074-1.16-4.177-3.132-4.177c-2.002,0-3.133,1.421-3.133,3.887v8.905h-2.988
		v-15.229h2.988v1.45c0.754-1.103,2.262-1.77,3.828-1.77c3.539,0,5.424,2.32,5.424,6.816v8.731H348.463z"/>
	<path fill="#19152B" d="M368.01,444.146h-10.065c0.318,2.93,1.973,4.177,3.828,4.177c1.277,0,2.292-0.464,3.308-1.218l1.769,1.914
		c-1.334,1.276-2.93,2.002-5.25,2.002c-3.567,0-6.584-2.872-6.584-7.919c0-5.163,2.727-7.948,6.672-7.948
		c4.322,0,6.41,3.51,6.41,7.629C368.097,443.333,368.039,443.826,368.01,444.146z M361.484,437.852c-2.002,0-3.221,1.392-3.48,3.828
		h7.077C364.935,439.592,363.949,437.852,361.484,437.852z"/>
	<path fill="#19152B" d="M384.943,456.067h-3.161l2.204-5.656l-5.598-14.938h3.277l2.494,7.455c0.465,1.334,1.16,3.597,1.335,4.438
		c0.261-0.899,0.899-3.074,1.363-4.38l2.581-7.513h3.162L384.943,456.067z"/>
	<path fill="#19152B" d="M407.304,444.146H397.24c0.318,2.93,1.972,4.177,3.828,4.177c1.276,0,2.291-0.464,3.307-1.218l1.77,1.914
		c-1.334,1.276-2.93,2.002-5.25,2.002c-3.568,0-6.584-2.872-6.584-7.919c0-5.163,2.727-7.948,6.671-7.948
		c4.321,0,6.411,3.51,6.411,7.629C407.392,443.333,407.333,443.826,407.304,444.146z M400.778,437.852
		c-2.001,0-3.22,1.392-3.48,3.828h7.077C404.23,439.592,403.244,437.852,400.778,437.852z"/>
	<path fill="#19152B" d="M419.628,450.701v-1.509c-1.043,1.045-2.523,1.828-4.176,1.828c-2.467,0-5.279-1.393-5.279-5.135
		c0-3.394,2.609-4.931,6.062-4.931c1.42,0,2.553,0.203,3.393,0.58v-1.132c0-1.653-1.016-2.581-2.871-2.581
		c-1.566,0-2.785,0.29-3.975,0.957l-1.16-2.263c1.451-0.899,3.076-1.363,5.223-1.363c3.393,0,5.713,1.653,5.713,5.105v10.442
		H419.628z M419.628,444.203c-0.812-0.405-1.855-0.667-3.48-0.667c-1.914,0-3.133,0.87-3.133,2.263c0,1.509,0.957,2.523,2.93,2.523
		c1.596,0,2.988-0.986,3.684-1.943V444.203z"/>
	<path fill="#19152B" d="M435.115,438.635c-0.639-0.349-1.307-0.552-2.293-0.552c-1.885,0-2.986,1.334-2.986,3.916v8.702h-2.988
		v-15.229h2.988v1.45c0.695-1.016,1.973-1.77,3.48-1.77c1.219,0,1.973,0.232,2.582,0.639L435.115,438.635z"/>
</g>
</svg>
