<?xml version="1.0" encoding="utf-8"?>
<!-- Generator: Adobe Illustrator 15.1.0, SVG Export Plug-In . SVG Version: 6.00 Build 0)  -->
<!DOCTYPE svg PUBLIC "-//W3C//DTD SVG 1.1//EN" "http://www.w3.org/Graphics/SVG/1.1/DTD/svg11.dtd">
<svg version="1.1" id="Layer_1" xmlns="http://www.w3.org/2000/svg" xmlns:xlink="http://www.w3.org/1999/xlink" x="0px" y="0px"
	 width="536.378px" height="780.521px" viewBox="0 0 536.378 780.521" enable-background="new 0 0 536.378 780.521"
	 xml:space="preserve">
<rect x="165.537" y="232.964" fill="none" width="335.21" height="115.885"/>
<g enable-background="new    ">
	<path d="M195.984,299.563c-9.45,0-17.909-3.69-24.929-12.06l9.54-7.74c5.22,5.49,10.169,7.47,16.559,7.47
		c8.28,0,12.149-2.97,12.149-8.01c0-4.859-3.33-7.199-9.27-7.199h-7.47v-12.33h6.75c5.22,0,7.379-2.249,7.379-6.39
		c0-3.239-2.61-6.39-10.529-6.39c-4.86,0-8.82,1.71-12.33,5.311l-9.18-8.37c6.03-6.3,12.33-9.27,21.689-9.27
		c12.87,0,23.129,5.939,23.129,17.819c0,6.84-3.6,10.979-7.29,12.869c4.05,1.53,9.9,5.49,9.9,13.77
		C222.083,292.634,211.644,299.563,195.984,299.563z"/>
	<path d="M237.925,299.563v-12.24c14.58,0,23.849-5.129,27.449-14.759c-4.05,2.7-8.01,3.96-14.399,3.96
		c-12.51,0-22.229-6.39-22.229-20.34c0-14.039,11.7-21.599,26.549-21.599c14.039,0,25.02,7.829,25.02,25.469
		C280.314,276.614,270.593,299.563,237.925,299.563z M254.754,246.285c-8.37,0-13.229,3.6-13.229,9.45c0,6.39,4.68,9.359,12.6,9.359
		c8.549,0,13.139-2.88,13.139-9.45C267.264,249.795,262.944,246.285,254.754,246.285z"/>
	<path d="M292.826,309.913h-8.459l1.35-26.549h14.669L292.826,309.913z"/>
	<path d="M332.875,299.563c-17.189,0-26.368-13.319-26.368-32.489c0-19.169,9.27-32.488,26.458-32.488
		c17.189,0,26.459,13.14,26.459,32.309S350.064,299.563,332.875,299.563z M332.875,246.915c-9.629,0-13.589,8.729-13.589,19.979
		s4.05,20.339,13.679,20.339c9.631,0,13.68-8.909,13.68-20.159C346.644,255.825,342.505,246.915,332.875,246.915z"/>
	<path d="M394.794,299.563c-17.189,0-26.369-13.319-26.369-32.489c0-19.169,9.27-32.488,26.459-32.488s26.459,13.14,26.459,32.309
		S411.984,299.563,394.794,299.563z M394.794,246.915c-9.63,0-13.59,8.729-13.59,19.979s4.05,20.339,13.68,20.339
		c9.629,0,13.68-8.909,13.68-20.159C408.564,255.825,404.423,246.915,394.794,246.915z"/>
	<path d="M456.712,299.563c-17.189,0-26.368-13.319-26.368-32.489c0-19.169,9.27-32.488,26.458-32.488
		c17.189,0,26.459,13.14,26.459,32.309S473.902,299.563,456.712,299.563z M456.712,246.915c-9.629,0-13.589,8.729-13.589,19.979
		s4.05,20.339,13.679,20.339c9.631,0,13.68-8.909,13.68-20.159C470.482,255.825,466.343,246.915,456.712,246.915z"/>
</g>
<rect x="-19.884" y="403.235" fill="none" width="587.719" height="62.175"/>
<g enable-background="new    ">
	<path d="M85.998,421.056c0,1.26,0.06,2.489,0.21,3.479h-2.37l-0.21-1.83h-0.09c-0.81,1.14-2.37,2.16-4.44,2.16
		c-2.94,0-4.44-2.07-4.44-4.17c0-3.51,3.12-5.43,8.73-5.399v-0.301c0-1.17-0.33-3.359-3.3-3.329c-1.38,0-2.79,0.39-3.81,1.08
		l-0.6-1.771c1.2-0.75,2.97-1.26,4.8-1.26c4.44,0,5.52,3.03,5.52,5.91V421.056z M83.448,417.125c-2.88-0.06-6.15,0.45-6.15,3.271
		c0,1.739,1.14,2.52,2.46,2.52c1.92,0,3.15-1.2,3.57-2.43c0.09-0.3,0.12-0.6,0.12-0.84V417.125z"/>
	<path d="M90.258,413.945c0-1.529-0.06-2.729-0.12-3.93h2.31l0.12,2.37h0.09c0.81-1.38,2.16-2.67,4.59-2.67
		c1.95,0,3.45,1.2,4.08,2.91h0.06c0.45-0.84,1.05-1.44,1.65-1.891c0.87-0.659,1.8-1.02,3.18-1.02c1.95,0,4.8,1.26,4.8,6.3v8.52
		h-2.58v-8.189c0-2.82-1.05-4.47-3.15-4.47c-1.53,0-2.67,1.109-3.15,2.369c-0.12,0.391-0.21,0.841-0.21,1.32v8.97h-2.58v-8.699
		c0-2.311-1.02-3.96-3.03-3.96c-1.62,0-2.85,1.319-3.27,2.64c-0.15,0.36-0.21,0.84-0.21,1.29v8.729h-2.58V413.945z"/>
	<path d="M128.418,417.155c0,5.37-3.75,7.71-7.23,7.71c-3.9,0-6.959-2.88-6.959-7.47c0-4.83,3.209-7.68,7.2-7.68
		C125.598,409.716,128.418,412.746,128.418,417.155z M116.928,417.306c0,3.18,1.8,5.579,4.38,5.579c2.52,0,4.41-2.369,4.41-5.64
		c0-2.46-1.23-5.55-4.35-5.55C118.278,411.695,116.928,414.575,116.928,417.306z"/>
	<path d="M143.897,420.545c0,1.53,0.03,2.851,0.12,3.99h-2.34l-0.15-2.37h-0.06c-0.66,1.17-2.22,2.7-4.8,2.7
		c-2.28,0-5.01-1.29-5.01-6.359v-8.49h2.64v8.01c0,2.76,0.87,4.649,3.24,4.649c1.77,0,3-1.229,3.48-2.43
		c0.15-0.359,0.24-0.84,0.24-1.35v-8.88h2.64V420.545z"/>
	<path d="M148.278,413.945c0-1.529-0.03-2.729-0.12-3.93h2.34l0.15,2.4h0.06c0.72-1.351,2.4-2.7,4.8-2.7c2.01,0,5.13,1.2,5.13,6.18
		v8.64h-2.64v-8.37c0-2.34-0.87-4.289-3.36-4.289c-1.71,0-3.06,1.229-3.54,2.699c-0.12,0.33-0.18,0.78-0.18,1.23v8.729h-2.64
		V413.945z"/>
	<path d="M167.987,406.536v3.479h3.78v2.01h-3.78v7.83c0,1.8,0.51,2.819,1.98,2.819c0.72,0,1.14-0.06,1.53-0.18l0.12,2.01
		c-0.51,0.181-1.32,0.36-2.34,0.36c-1.23,0-2.22-0.42-2.85-1.11c-0.72-0.81-1.02-2.1-1.02-3.81v-7.92h-2.25v-2.01h2.25v-2.7
		L167.987,406.536z"/>
	<path d="M181.097,413.945c0-1.529-0.03-2.729-0.12-3.93h2.34l0.15,2.4h0.06c0.72-1.351,2.4-2.7,4.8-2.7c2.01,0,5.13,1.2,5.13,6.18
		v8.64h-2.64v-8.37c0-2.34-0.87-4.289-3.36-4.289c-1.71,0-3.06,1.229-3.54,2.699c-0.12,0.33-0.18,0.78-0.18,1.23v8.729h-2.64
		V413.945z"/>
	<path d="M199.217,417.756c0.06,3.569,2.31,5.039,4.98,5.039c1.89,0,3.06-0.33,4.02-0.75l0.48,1.891c-0.93,0.42-2.55,0.93-4.86,0.93
		c-4.47,0-7.14-2.97-7.14-7.35s2.58-7.8,6.81-7.8c4.77,0,6,4.14,6,6.81c0,0.54-0.03,0.93-0.09,1.23H199.217z M206.957,415.865
		c0.03-1.649-0.69-4.26-3.66-4.26c-2.7,0-3.84,2.43-4.05,4.26H206.957z"/>
	<path d="M214.247,417.756c0.06,3.569,2.31,5.039,4.98,5.039c1.89,0,3.06-0.33,4.02-0.75l0.48,1.891c-0.93,0.42-2.55,0.93-4.86,0.93
		c-4.47,0-7.14-2.97-7.14-7.35s2.58-7.8,6.81-7.8c4.77,0,6,4.14,6,6.81c0,0.54-0.03,0.93-0.09,1.23H214.247z M221.986,415.865
		c0.03-1.649-0.69-4.26-3.66-4.26c-2.7,0-3.84,2.43-4.05,4.26H221.986z"/>
	<path d="M240.316,403.236v17.549c0,1.29,0.06,2.76,0.12,3.75h-2.34l-0.12-2.52h-0.09c-0.78,1.619-2.52,2.85-4.89,2.85
		c-3.51,0-6.24-2.97-6.24-7.38c-0.03-4.83,3-7.77,6.51-7.77c2.25,0,3.72,1.05,4.379,2.189h0.06v-8.669H240.316z M237.706,415.926
		c0-0.33-0.03-0.78-0.12-1.11c-0.39-1.649-1.83-3.029-3.81-3.029c-2.73,0-4.35,2.399-4.35,5.579c0,2.94,1.47,5.37,4.29,5.37
		c1.77,0,3.39-1.2,3.87-3.15c0.09-0.359,0.12-0.72,0.12-1.14V415.926z"/>
	<path d="M246.196,417.756c0.06,3.569,2.31,5.039,4.98,5.039c1.89,0,3.06-0.33,4.02-0.75l0.48,1.891c-0.93,0.42-2.55,0.93-4.86,0.93
		c-4.47,0-7.14-2.97-7.14-7.35s2.58-7.8,6.81-7.8c4.77,0,6,4.14,6,6.81c0,0.54-0.03,0.93-0.09,1.23H246.196z M253.936,415.865
		c0.03-1.649-0.69-4.26-3.66-4.26c-2.7,0-3.84,2.43-4.05,4.26H253.936z"/>
	<path d="M272.265,403.236v17.549c0,1.29,0.061,2.76,0.121,3.75h-2.34l-0.121-2.52h-0.09c-0.779,1.619-2.52,2.85-4.889,2.85
		c-3.51,0-6.24-2.97-6.24-7.38c-0.03-4.83,3-7.77,6.51-7.77c2.25,0,3.72,1.05,4.379,2.189h0.061v-8.669H272.265z M269.656,415.926
		c0-0.33-0.029-0.78-0.119-1.11c-0.391-1.649-1.831-3.029-3.811-3.029c-2.73,0-4.35,2.399-4.35,5.579c0,2.94,1.47,5.37,4.29,5.37
		c1.77,0,3.39-1.2,3.871-3.15c0.09-0.359,0.119-0.72,0.119-1.14V415.926z"/>
	<path d="M286.215,406.536v3.479h3.78v2.01h-3.78v7.83c0,1.8,0.511,2.819,1.979,2.819c0.721,0,1.141-0.06,1.531-0.18l0.119,2.01
		c-0.51,0.181-1.32,0.36-2.34,0.36c-1.23,0-2.22-0.42-2.85-1.11c-0.721-0.81-1.02-2.1-1.02-3.81v-7.92h-2.25v-2.01h2.25v-2.7
		L286.215,406.536z"/>
	<path d="M305.925,417.155c0,5.37-3.75,7.71-7.23,7.71c-3.899,0-6.959-2.88-6.959-7.47c0-4.83,3.209-7.68,7.199-7.68
		C303.105,409.716,305.925,412.746,305.925,417.155z M294.435,417.306c0,3.18,1.801,5.579,4.381,5.579
		c2.52,0,4.409-2.369,4.409-5.64c0-2.46-1.229-5.55-4.35-5.55C295.786,411.695,294.435,414.575,294.435,417.306z"/>
	<path d="M315.615,413.945c0-1.529-0.06-2.729-0.119-3.93h2.31l0.12,2.37h0.09c0.811-1.38,2.16-2.67,4.59-2.67
		c1.949,0,3.449,1.2,4.08,2.91h0.06c0.45-0.84,1.05-1.44,1.649-1.891c0.871-0.659,1.801-1.02,3.181-1.02c1.95,0,4.8,1.26,4.8,6.3
		v8.52h-2.58v-8.189c0-2.82-1.05-4.47-3.15-4.47c-1.529,0-2.67,1.109-3.149,2.369c-0.12,0.391-0.21,0.841-0.21,1.32v8.97h-2.58
		v-8.699c0-2.311-1.02-3.96-3.029-3.96c-1.62,0-2.85,1.319-3.27,2.64c-0.15,0.36-0.211,0.84-0.211,1.29v8.729h-2.58V413.945z"/>
	<path d="M350.835,421.056c0,1.26,0.06,2.489,0.209,3.479h-2.369l-0.211-1.83h-0.09c-0.81,1.14-2.369,2.16-4.439,2.16
		c-2.939,0-4.439-2.07-4.439-4.17c0-3.51,3.119-5.43,8.729-5.399v-0.301c0-1.17-0.33-3.359-3.3-3.329c-1.381,0-2.79,0.39-3.811,1.08
		l-0.6-1.771c1.2-0.75,2.971-1.26,4.8-1.26c4.44,0,5.521,3.03,5.521,5.91V421.056z M348.285,417.125
		c-2.879-0.06-6.149,0.45-6.149,3.271c0,1.739,1.14,2.52,2.46,2.52c1.92,0,3.15-1.2,3.57-2.43c0.09-0.3,0.119-0.6,0.119-0.84
		V417.125z"/>
	<path d="M355.095,413.945c0-1.529-0.029-2.729-0.12-3.93h2.34l0.149,2.4h0.061c0.721-1.351,2.4-2.7,4.8-2.7
		c2.011,0,5.13,1.2,5.13,6.18v8.64h-2.64v-8.37c0-2.34-0.87-4.289-3.36-4.289c-1.709,0-3.06,1.229-3.539,2.699
		c-0.121,0.33-0.181,0.78-0.181,1.23v8.729h-2.64V413.945z"/>
	<path d="M383.894,420.545c0,1.53,0.03,2.851,0.12,3.99h-2.34l-0.149-2.37h-0.061c-0.66,1.17-2.221,2.7-4.8,2.7
		c-2.28,0-5.01-1.29-5.01-6.359v-8.49h2.64v8.01c0,2.76,0.87,4.649,3.24,4.649c1.77,0,3-1.229,3.479-2.43
		c0.149-0.359,0.24-0.84,0.24-1.35v-8.88h2.64V420.545z"/>
	<path d="M388.544,424.535v-12.51h-2.01v-2.01h2.01v-0.689c0-2.04,0.48-3.9,1.68-5.07c0.99-0.96,2.311-1.35,3.541-1.35
		c0.959,0,1.739,0.21,2.25,0.42l-0.36,2.04c-0.39-0.181-0.9-0.33-1.681-0.33c-2.25,0-2.819,1.95-2.819,4.199v0.78h3.51v2.01h-3.51
		v12.51H388.544z"/>
	<path d="M407.234,421.056c0,1.26,0.061,2.489,0.211,3.479h-2.371l-0.209-1.83h-0.09c-0.811,1.14-2.371,2.16-4.44,2.16
		c-2.94,0-4.44-2.07-4.44-4.17c0-3.51,3.121-5.43,8.73-5.399v-0.301c0-1.17-0.33-3.359-3.301-3.329c-1.379,0-2.789,0.39-3.809,1.08
		l-0.601-1.771c1.2-0.75,2.97-1.26,4.8-1.26c4.439,0,5.52,3.03,5.52,5.91V421.056z M404.685,417.125
		c-2.881-0.06-6.15,0.45-6.15,3.271c0,1.739,1.14,2.52,2.46,2.52c1.92,0,3.149-1.2,3.569-2.43c0.09-0.3,0.121-0.6,0.121-0.84
		V417.125z"/>
	<path d="M421.843,424.025c-0.689,0.33-2.219,0.84-4.17,0.84c-4.379,0-7.229-2.97-7.229-7.41c0-4.47,3.059-7.739,7.799-7.739
		c1.561,0,2.939,0.39,3.66,0.78l-0.6,2.01c-0.631-0.33-1.621-0.69-3.061-0.69c-3.33,0-5.129,2.49-5.129,5.49
		c0,3.359,2.159,5.43,5.039,5.43c1.5,0,2.49-0.36,3.24-0.69L421.843,424.025z"/>
	<path d="M428.503,406.536v3.479h3.779v2.01h-3.779v7.83c0,1.8,0.51,2.819,1.98,2.819c0.72,0,1.14-0.06,1.529-0.18l0.12,2.01
		c-0.51,0.181-1.319,0.36-2.34,0.36c-1.229,0-2.22-0.42-2.85-1.11c-0.72-0.81-1.021-2.1-1.021-3.81v-7.92h-2.25v-2.01h2.25v-2.7
		L428.503,406.536z"/>
	<path d="M447.403,420.545c0,1.53,0.03,2.851,0.12,3.99h-2.34l-0.15-2.37h-0.06c-0.66,1.17-2.22,2.7-4.8,2.7
		c-2.28,0-5.01-1.29-5.01-6.359v-8.49h2.64v8.01c0,2.76,0.87,4.649,3.239,4.649c1.771,0,3-1.229,3.48-2.43
		c0.15-0.359,0.24-0.84,0.24-1.35v-8.88h2.64V420.545z"/>
	<path d="M451.784,414.546c0-1.71-0.03-3.181-0.12-4.53h2.311l0.119,2.88h0.09c0.66-1.95,2.28-3.18,4.051-3.18
		c0.27,0,0.479,0.03,0.719,0.06v2.49c-0.27-0.06-0.539-0.06-0.899-0.06c-1.86,0-3.18,1.38-3.54,3.359
		c-0.06,0.36-0.09,0.81-0.09,1.23v7.739h-2.64V414.546z"/>
	<path d="M462.763,417.756c0.061,3.569,2.311,5.039,4.98,5.039c1.89,0,3.06-0.33,4.02-0.75l0.48,1.891
		c-0.931,0.42-2.551,0.93-4.86,0.93c-4.47,0-7.14-2.97-7.14-7.35s2.58-7.8,6.81-7.8c4.771,0,5.999,4.14,5.999,6.81
		c0,0.54-0.029,0.93-0.09,1.23H462.763z M470.503,415.865c0.029-1.649-0.69-4.26-3.66-4.26c-2.699,0-3.84,2.43-4.05,4.26H470.503z"
		/>
</g>
<g enable-background="new    ">
	<path d="M227.042,457.056c0,1.26,0.06,2.489,0.21,3.479h-2.37l-0.21-1.83h-0.09c-0.81,1.14-2.37,2.16-4.44,2.16
		c-2.94,0-4.44-2.07-4.44-4.17c0-3.51,3.12-5.43,8.73-5.399v-0.301c0-1.17-0.33-3.359-3.3-3.329c-1.38,0-2.79,0.39-3.81,1.08
		l-0.6-1.771c1.2-0.75,2.97-1.26,4.8-1.26c4.44,0,5.52,3.03,5.52,5.91V457.056z M224.492,453.125c-2.88-0.06-6.15,0.45-6.15,3.271
		c0,1.739,1.14,2.52,2.46,2.52c1.92,0,3.15-1.2,3.57-2.43c0.09-0.3,0.12-0.6,0.12-0.84V453.125z"/>
	<path d="M237.662,449.945c0-1.529-0.03-2.729-0.12-3.93h2.34l0.15,2.4h0.06c0.72-1.351,2.4-2.7,4.8-2.7c2.01,0,5.13,1.2,5.13,6.18
		v8.64h-2.64v-8.37c0-2.34-0.87-4.289-3.36-4.289c-1.71,0-3.06,1.229-3.54,2.699c-0.12,0.33-0.18,0.78-0.18,1.23v8.729h-2.64
		V449.945z"/>
	<path d="M255.781,453.756c0.06,3.569,2.31,5.039,4.98,5.039c1.89,0,3.06-0.33,4.02-0.75l0.48,1.891c-0.93,0.42-2.55,0.93-4.86,0.93
		c-4.47,0-7.14-2.97-7.14-7.35s2.58-7.8,6.81-7.8c4.77,0,6,4.14,6,6.81c0,0.54-0.03,0.93-0.09,1.23H255.781z M263.521,451.865
		c0.03-1.649-0.69-4.26-3.66-4.26c-2.7,0-3.84,2.43-4.05,4.26H263.521z"/>
	<path d="M270.391,446.016l1.95,7.38c0.39,1.62,0.779,3.12,1.05,4.62h0.09c0.33-1.471,0.81-3.03,1.29-4.59l2.37-7.41h2.22l2.25,7.26
		c0.54,1.74,0.96,3.27,1.29,4.74h0.09c0.239-1.471,0.63-3,1.11-4.71l2.069-7.29h2.61l-4.68,14.52h-2.4l-2.22-6.93
		c-0.511-1.62-0.931-3.06-1.29-4.77h-0.061c-0.359,1.739-0.81,3.239-1.319,4.8l-2.34,6.899h-2.399l-4.38-14.52H270.391z"/>
	<path d="M308.13,460.025c-0.689,0.33-2.221,0.84-4.17,0.84c-4.38,0-7.229-2.97-7.229-7.41c0-4.47,3.06-7.739,7.8-7.739
		c1.56,0,2.939,0.39,3.66,0.78l-0.601,2.01c-0.63-0.33-1.62-0.69-3.06-0.69c-3.33,0-5.13,2.49-5.13,5.49
		c0,3.359,2.159,5.43,5.04,5.43c1.5,0,2.489-0.36,3.239-0.69L308.13,460.025z"/>
	<path d="M321.42,457.056c0,1.26,0.06,2.489,0.21,3.479h-2.37l-0.21-1.83h-0.09c-0.811,1.14-2.37,2.16-4.439,2.16
		c-2.94,0-4.44-2.07-4.44-4.17c0-3.51,3.12-5.43,8.729-5.399v-0.301c0-1.17-0.33-3.359-3.299-3.329c-1.381,0-2.791,0.39-3.811,1.08
		l-0.6-1.771c1.199-0.75,2.969-1.26,4.799-1.26c4.44,0,5.521,3.03,5.521,5.91V457.056z M318.871,453.125
		c-2.881-0.06-6.15,0.45-6.15,3.271c0,1.739,1.141,2.52,2.461,2.52c1.92,0,3.149-1.2,3.569-2.43c0.09-0.3,0.12-0.6,0.12-0.84
		V453.125z"/>
	<path d="M325.681,450.546c0-1.71-0.031-3.181-0.121-4.53h2.311l0.12,2.88h0.09c0.66-1.95,2.28-3.18,4.05-3.18
		c0.27,0,0.48,0.03,0.721,0.06v2.49c-0.271-0.06-0.541-0.06-0.9-0.06c-1.86,0-3.18,1.38-3.54,3.359
		c-0.06,0.36-0.091,0.81-0.091,1.23v7.739h-2.639V450.546z"/>
</g>
<path fill="#19162B" stroke="#19162B" stroke-miterlimit="10" d="M343.082,542.948c2.981,3.981,11.926,15.932,11.926,15.932
	l31.305,10.354c19.379,20.71,13.416,46.999,13.416,46.999l-5.962,3.98c-0.744,20.709-14.907,25.487-14.907,25.487
	c-17.145,4.78-24.596-11.149-24.596-11.149l-79.75,27.081c-3.725,24.694-15.652,27.082-15.652,27.082
	c-14.162,5.577-28.322-10.353-28.322-10.353l-17.143,3.981c-5.218,3.982-19.378,0-19.378,0l-76.024-42.218v-14.338l5.962-3.184
	c8.198-31.067,46.21-40.625,46.21-40.625l7.454-7.171c4.471-12.742,36.521-31.86,36.521-31.86
	c13.416-11.946,67.825-18.319,67.825-18.319C311.778,526.221,340.103,538.967,343.082,542.948z M199.233,645.7l-19.378-7.963
	l-0.744,12.743l19.378,7.967L199.233,645.7z M145.57,617.426l-14.355-7.967l-0.552,12.745l14.354,7.965L145.57,617.426z
	 M261.841,590.74l4.472-23.101c1.272-4.969-1.938-7.484-1.938-7.484s0.642,0.229-1.043-0.479
	c-2.079-0.874-51.43-13.542-51.43-13.542c-23.105,11.947-31.303,30.267-31.303,30.267c26.086,26.286,70.806,23.897,70.806,23.897
	C258.114,601.096,261.841,590.74,261.841,590.74z M266.302,600.409l41.305-10.29l-5.352-33.622l-28.463,5.717L266.302,600.409z
	 M306.751,555.582l6.205,33.393l41.307-9.835l-23.113-27.219L306.751,555.582z"/>
</svg>
