<?xml version="1.0" encoding="utf-8"?>
<!-- Generator: Adobe Illustrator 15.1.0, SVG Export Plug-In . SVG Version: 6.00 Build 0)  -->
<!DOCTYPE svg PUBLIC "-//W3C//DTD SVG 1.1//EN" "http://www.w3.org/Graphics/SVG/1.1/DTD/svg11.dtd">
<svg version="1.1" id="Layer_1" xmlns="http://www.w3.org/2000/svg" xmlns:xlink="http://www.w3.org/1999/xlink" x="0px" y="0px"
	 width="536.378px" height="780.521px" viewBox="0 0 536.378 780.521" enable-background="new 0 0 536.378 780.521"
	 xml:space="preserve">
<rect x="32.689" y="390.261" fill="none" width="468" height="63.5"/>
<g enable-background="new    ">
	<path fill="#19162B" d="M198.004,288.815c0.48-28.799,18.119-41.278,38.639-50.278c7.2-3.119,9.479-6.479,9.479-10.079
		c0-4.32-3.72-8.52-13.799-8.52c-9.959,0-18,4.439-23.879,10.079l-10.799-12.6c8.879-8.999,20.759-13.919,34.079-13.919
		c19.919,0,31.199,8.039,31.199,24.119c0,13.56-7.32,19.439-21.599,26.039c-14.879,6.84-20.639,12.479-22.199,18.959h44.638v16.199
		H198.004z"/>
	<path fill="#19162B" d="M311.283,290.136c-22.919,0-35.158-17.76-35.158-43.318c0-25.56,12.359-43.318,35.278-43.318
		s35.278,17.52,35.278,43.078S334.203,290.136,311.283,290.136z M311.283,219.938c-12.84,0-18.119,11.64-18.119,26.639
		s5.4,27.119,18.239,27.119s18.239-11.88,18.239-26.879C329.642,231.817,324.123,219.938,311.283,219.938z"/>
	<path fill="#19162B" d="M365.884,290.136c-6.119,0-11.279-5.16-11.279-11.28c0-6.119,5.16-11.279,11.279-11.279
		s11.279,5.16,11.279,11.279C377.164,284.976,372.003,290.136,365.884,290.136z"/>
	<path fill="#19162B" d="M424.322,290.136c-21.719,0-35.158-9.96-35.158-26.52c0-11.64,6.959-17.639,13.318-20.398
		c-6-3.24-9.719-8.521-9.719-14.76c0-16.56,13.919-24.959,31.559-24.959c16.559,0,31.559,7.8,31.559,24.239
		c0,5.999-3.24,11.879-9.72,15.479c6.479,2.999,13.319,8.879,13.319,19.559C459.48,279.696,446.041,290.136,424.322,290.136z
		 M424.322,251.377c-12.6,0-18.359,4.68-18.359,11.88c0,7.68,7.68,12.119,18.359,12.119c11.52,0,18.359-4.32,18.359-12
		S437.041,251.377,424.322,251.377z M424.322,218.019c-10.439,0-14.76,4.56-14.76,9.959c0,5.4,5.039,9.6,14.76,9.6
		c10.319,0,14.76-3.959,14.76-9.479C439.082,222.698,435.361,218.019,424.322,218.019z"/>
</g>
<g enable-background="new    ">
	<path fill="#19162B" d="M224.919,359.86V348.56c-1.3,1.15-3.05,2.2-5.55,2.2c-5.6,0-10.201-4.2-10.201-14.001
		c0-7.851,3.7-13.351,10.201-13.351c2.3,0,4.3,0.9,5.55,2.05v-1.5h6.9v32.452L224.919,359.86z M224.919,332.159
		c-1.05-1.45-2.65-2.25-4.65-2.25c-2.65,0-4.1,2.3-4.1,6.7c0,5.4,1.8,7.65,4.5,7.65c2.15,0,3.25-0.9,4.25-2.2V332.159z"/>
	<path fill="#19162B" d="M254.219,350.21v-1.75c-1.2,1.25-3.4,2.3-6.15,2.3c-6.7,0-9.701-4.6-9.701-12.001v-14.801h6.9v14.201
		c0,4.7,1.6,6.101,4.45,6.101c2.851,0,4.5-1.4,4.5-5.95v-14.352h6.9v26.252H254.219z"/>
	<path fill="#19162B" d="M282.269,350.21v-1.75c-1.25,1.3-3.45,2.3-5.9,2.3c-4.9,0-9.801-3-9.801-9.351c0-5.8,4.7-8.7,10.65-8.7
		c2.4,0,3.951,0.5,5.051,1.05v-1.3c0-1.851-1.25-3.351-3.75-3.351c-3.15,0-4.801,0.45-7.201,1.75l-2.65-4.8
		c3.05-1.75,5.601-2.65,9.851-2.65c6.35,0,10.65,3.301,10.65,9.2v17.602H282.269z M282.269,339.209c-1.2-0.75-2.35-1.1-4.801-1.1
		c-2.6,0-4,1.2-4,3.3c0,1.851,1.051,3.5,4,3.5c2.25,0,4.051-1.149,4.801-2.399V339.209z"/>
	<path fill="#19162B" d="M310.019,350.21v-1.65c-1.301,1.15-3.051,2.2-5.551,2.2c-5.6,0-10.201-4.2-10.201-14.001
		c0-7.851,3.701-13.351,10.201-13.351c2.301,0,4.301,0.9,5.551,2.05v-8.25l6.9-3.45v36.452H310.019z M310.019,332.159
		c-1.051-1.45-2.65-2.25-4.65-2.25c-2.65,0-4.101,2.3-4.101,6.7c0,5.4,1.8,7.65,4.501,7.65c2.149,0,3.25-0.9,4.25-2.2V332.159z"/>
	<path fill="#19162B" d="M339.069,332.009c-1.101-1-2.45-1.7-4.001-1.7c-2.699,0-4.449,1.15-4.449,5.7v14.201h-6.9v-26.252h6.9v1.75
		c1.199-1.25,2.949-2.3,5.4-2.3c2.25,0,3.949,0.9,4.85,1.851L339.069,332.009z"/>
	<path fill="#19162B" d="M348.818,321.809c-2.15,0-3.951-1.801-3.951-3.95c0-2.15,1.801-3.95,3.951-3.95s3.949,1.8,3.949,3.95
		C352.767,320.008,350.968,321.809,348.818,321.809z M345.367,350.21v-26.252h6.9v26.252H345.367z"/>
	<path fill="#19162B" d="M359.467,350.21v-33.002l6.9-3.45v36.452H359.467z"/>
	<path fill="#19162B" d="M373.567,350.21v-33.002l6.9-3.45v36.452H373.567z"/>
	<path fill="#19162B" d="M391.117,321.809c-2.149,0-3.949-1.801-3.949-3.95c0-2.15,1.8-3.95,3.949-3.95c2.15,0,3.951,1.8,3.951,3.95
		C395.068,320.008,393.267,321.809,391.117,321.809z M387.667,350.21v-26.252h6.9v26.252H387.667z"/>
	<path fill="#19162B" d="M412.018,350.76c-6.851,0-11.851-5.601-11.851-13.65c0-8.051,5-13.701,11.851-13.701s11.9,5.65,11.9,13.701
		C423.918,345.159,418.869,350.76,412.018,350.76z M412.018,330.059c-3.3,0-4.851,3-4.851,7.051c0,4.05,1.551,7,4.851,7
		s4.899-3.35,4.899-7C416.917,333.109,415.318,330.059,412.018,330.059z"/>
	<path fill="#19162B" d="M445.118,350.21v-14.201c0-4.7-1.601-6.1-4.45-6.1s-4.5,1.399-4.5,5.95v14.351h-6.9v-26.252h6.9v1.75
		c1.199-1.25,3.4-2.3,6.15-2.3c6.7,0,9.7,4.601,9.7,12.001v14.801H445.118z"/>
</g>
<path fill="#19162B" d="M303.804,506.724l-2.102-3.358l2.102-3.783v-6.304v-3.362v-5.464v-5.042l-6.725-2.943l-7.986,2.943
	l-7.145-2.943v-1.681h-9.246l-8.408,4.624l-5.884,2.938l-3.782,5.044l-3.783,3.363l-3.782-2.94l-3.362,2.94v4.202l-5.464,1.681
	v7.564h-3.362v-6.304l-2.102,2.521v4.623l-2.942-0.841l-2.521-0.84l-4.203-4.204l-2.521,7.562l-2.521,2.522l-2.102,5.042
	l-2.102,5.045l-2.102,2.102h-4.203l-3.362,5.044v5.886c0,0,5.884,2.102,7.144,3.358c1.261,1.265,1.682,0,2.942,2.104
	c1.261,2.102,1.682,6.724,1.682,6.724l3.362-3.782l2.942,0.844l-3.782,5.884l-1.681,5.884c0,0-0.84,0.421,0.421,1.682
	c1.26,1.264-0.842,5.043-0.842,5.043l0.842,5.046l4.623,6.306l1.26,4.202c0,0,1.682,2.101,2.942,3.36
	c1.261,1.263,2.522,2.94,2.522,4.201c0,1.264,1.26,4.202,2.101,5.464c0.84,1.264,2.943,3.47,2.943,3.47s1.68,3.258,2.101,4.519
	c0.42,1.262,3.363,5.464,4.203,6.725c0.84,1.263,1.261,2.104,2.101,3.782c0.841,1.684,2.103,3.783,2.943,5.043
	c0.84,1.265,2.521,3.362,3.783,4.624c1.26,1.262,7.144,3.782,7.144,3.782l2.853,1.314l2.612,1.206l2.101,3.781
	c0,0-10.086-3.783-11.348-2.94c-1.261,0.842-5.043,2.94-5.043,2.94s-2.101,3.781-2.521,5.883c-0.42,2.104-0.42,4.204-0.42,5.468
	c0,1.26,1.261,4.199,1.261,4.199l0.84,3.362l-2.102,3.362h-1.681l-0.84,4.203l-2.522-3.782l-2.941,6.723c0,0,0.42,3.784,0.42,5.887
	s-0.839,4.202-0.42,6.727c0.42,2.521,0.841,4.621,1.261,6.304c0.42,1.684,0.42,4.202,1.68,5.886
	c1.261,1.682,3.363,3.359,3.363,3.359s0.421,3.363,1.681,4.203c1.261,0.841,9.877,2.521,9.877,2.521h2.731
	c0,0,16.812,15.131,23.956,15.552h6.307h7.146h6.726h5.043l6.305-2.942h3.361l7.984-0.84l3.783-2.521c0,0-2.102-5.043-2.102-6.725
	c0-1.681,0-6.726,0-6.726l-2.105-5.884c0,0-0.422-6.307,0.42-7.984c0.844-1.684,1.264-5.884,1.264-5.884s-1.264-3.783-0.844-5.044
	c0.424-1.264,1.266-6.307,1.266-6.307l-1.266-2.521c0,0-0.42-0.421-1.682-1.683c-1.26-1.264-3.781-3.361-3.781-3.361l-2.52-2.104
	h-4.203l-2.521-2.102l1.262-4.623l1.684-2.521l1.26,3.36l4.623-0.841c0,0-3.781-4.623-1.68-6.306l-5.465-1.262l-3.361-0.841
	l0.84,5.885l-3.361-2.521l-0.84-2.943l-0.842-4.622l0.842-6.305l2.1-5.463l0.422-5.044l-0.422-3.783l-2.1-4.622
	c0,0-2.104-2.942-3.783-4.203c-1.682-1.262-3.361-5.044-3.781-6.725c-0.422-1.683-1.262-4.202-1.262-6.727
	c0-2.521,2.102-5.464,2.521-6.726c0.418-1.263,1.681-2.103,1.681-4.623c0-2.521-1.261-5.463-1.261-5.463l-3.361,0.42l-3.361-2.103
	c0,0-2.103,3.36-3.783,2.939c-1.682-0.421-4.201-9.666-4.201-9.666l-6.727,2.103l0.422-5.043l0.84-4.203l-3.047-4.201v-3.782
	l-3.678-3.361l-1.681-2.939c0,0-2.103,1.261-3.994-0.843c-1.89-2.103-4.411-3.78-4.832-5.043s-0.421-1.263-0.421-1.263l5.253-2.102
	l4.834-0.841l4.519,0.419v2.941l5.988-1.681l-2.102-2.104l-3.887-2.521l-2.838-0.421l4.623-6.726l2.94-2.103v-3.36l6.728-0.422
	l6.305-0.842l4.623-0.839h3.361L303.804,506.724z"/>
<rect x="87.82" y="401.761" fill="none" width="367.869" height="33"/>
<g enable-background="new    ">
	<path fill="#19162B" d="M95.2,429.42l-1.05-2.34c4.44-0.21,5.4-1.41,5.4-4.68v-0.271c-1.14,1.05-2.43,1.83-4.08,1.83
		c-3.36,0-6.06-2.46-6.06-8.46c0-5.399,2.97-7.949,6.21-7.949c1.59,0,3.09,0.84,3.93,1.8v-1.47h3.09v14.249
		C102.639,426.93,100.899,429.239,95.2,429.42z M99.609,412.471c-0.69-0.931-2.13-2.07-3.69-2.07c-2.22,0-3.42,1.68-3.42,5.01
		c0,3.96,1.26,5.7,3.54,5.7c1.47,0,2.76-0.99,3.57-2.011V412.471z"/>
	<path fill="#19162B" d="M116.229,423.63v-1.56c-1.08,1.079-2.61,1.89-4.32,1.89c-2.55,0-5.46-1.44-5.46-5.31
		c0-3.51,2.7-5.101,6.27-5.101c1.47,0,2.64,0.211,3.51,0.601v-1.17c0-1.71-1.05-2.67-2.97-2.67c-1.62,0-2.88,0.3-4.11,0.99
		l-1.2-2.34c1.5-0.931,3.18-1.41,5.4-1.41c3.51,0,5.91,1.71,5.91,5.279v10.8H116.229z M116.229,416.91
		c-0.84-0.42-1.92-0.69-3.6-0.69c-1.979,0-3.24,0.9-3.24,2.341c0,1.56,0.99,2.609,3.03,2.609c1.65,0,3.09-1.02,3.81-2.01V416.91z"/>
	<path fill="#19162B" d="M123.849,423.63v-20.249l3.09-1.62v21.869H123.849z"/>
	<path fill="#19162B" d="M131.799,423.63v-20.249l3.09-1.62v21.869H131.799z"/>
	<path fill="#19162B" d="M145.779,423.96c-3.959,0-6.93-3.27-6.93-8.189c0-5.16,3.06-8.22,7.02-8.22c4.02,0,7.02,3.21,7.02,8.13
		C152.889,420.9,149.829,423.96,145.779,423.96z M145.749,410.49c-2.34,0-3.78,2.07-3.78,5.19c0,3.449,1.59,5.339,3.93,5.339
		s3.87-2.369,3.87-5.249C149.769,412.561,148.239,410.49,145.749,410.49z"/>
	<path fill="#19162B" d="M166.269,423.63v-8.909c0-3.181-1.2-4.32-3.24-4.32c-2.07,0-3.24,1.47-3.24,4.02v9.21h-3.09v-15.749h3.09
		v1.5c0.78-1.141,2.34-1.83,3.96-1.83c3.66,0,5.61,2.399,5.61,7.05v9.029H166.269z"/>
	<path fill="#19162B" d="M178.898,423.96c-2.13,0-4.44-0.84-6.03-2.01l1.41-2.34c1.47,1.02,3.12,1.56,4.59,1.56
		c1.95,0,2.88-0.63,2.88-1.74c0-1.199-1.38-1.77-3.66-2.64c-3.39-1.32-4.62-2.46-4.62-4.949c0-2.82,2.22-4.29,5.37-4.29
		c1.98,0,3.93,0.72,5.34,1.739l-1.35,2.37c-1.29-0.899-2.58-1.35-4.08-1.35c-1.5,0-2.16,0.6-2.16,1.439c0,0.78,0.54,1.351,2.91,2.28
		c3.51,1.35,5.31,2.31,5.31,5.279C184.808,422.79,181.988,423.96,178.898,423.96z"/>
	<path fill="#19162B" d="M198.578,405.841c-1.11,0-2.01-0.9-2.01-1.98c0-1.109,0.9-2.01,2.01-2.01c1.08,0,1.98,0.9,1.98,2.01
		C200.558,404.94,199.658,405.841,198.578,405.841z M197.018,423.63v-15.749h3.09v15.749H197.018z"/>
	<path fill="#19162B" d="M214.388,423.63v-8.909c0-3.181-1.2-4.32-3.24-4.32c-2.07,0-3.24,1.47-3.24,4.02v9.21h-3.09v-15.749h3.09
		v1.5c0.78-1.141,2.34-1.83,3.96-1.83c3.66,0,5.61,2.399,5.61,7.05v9.029H214.388z"/>
	<path fill="#19162B" d="M237.547,423.24c-0.75,0.42-1.8,0.72-3.03,0.72c-2.19,0-3.54-1.35-3.54-4.17v-9.09h-2.25v-2.819h2.25v-4.5
		l3.03-1.62v6.12h3.9v2.819h-3.9v8.55c0,1.47,0.48,1.89,1.62,1.89c0.81,0,1.71-0.3,2.28-0.63L237.547,423.24z"/>
	<path fill="#19162B" d="M251.677,423.63v-8.909c0-3.181-1.2-4.32-3.24-4.32c-2.07,0-3.24,1.47-3.24,4.02v9.21h-3.09v-20.249
		l3.09-1.62v7.62c0.78-1.141,2.34-1.83,3.96-1.83c3.66,0,5.61,2.399,5.61,7.05v9.029H251.677z"/>
	<path fill="#19162B" d="M271.896,416.851h-10.409c0.33,3.029,2.04,4.319,3.96,4.319c1.32,0,2.37-0.479,3.42-1.26l1.83,1.979
		c-1.38,1.32-3.03,2.07-5.43,2.07c-3.69,0-6.81-2.97-6.81-8.189c0-5.34,2.82-8.22,6.9-8.22c4.47,0,6.63,3.63,6.63,7.89
		C271.987,416.01,271.927,416.521,271.896,416.851z M265.147,410.341c-2.07,0-3.33,1.439-3.6,3.959h7.32
		C268.716,412.141,267.697,410.341,265.147,410.341z"/>
	<path fill="#19162B" d="M292.266,423.96c-5.43,0-8.88-4.47-8.88-10.83c0-6.359,3.45-10.829,8.88-10.829c3.42,0,5.7,1.38,7.14,3.93
		l-2.79,1.74c-1.079-1.71-2.19-2.521-4.35-2.521c-3.66,0-5.64,2.971-5.64,7.68c0,4.71,1.979,7.68,5.64,7.68
		c2.19,0,3.54-0.899,4.62-2.609l2.609,1.74C297.996,422.52,295.446,423.96,292.266,423.96z"/>
	<path fill="#19162B" d="M312.156,423.63v-1.56c-1.08,1.079-2.609,1.89-4.319,1.89c-2.55,0-5.46-1.44-5.46-5.31
		c0-3.51,2.7-5.101,6.27-5.101c1.471,0,2.641,0.211,3.51,0.601v-1.17c0-1.71-1.049-2.67-2.969-2.67c-1.621,0-2.881,0.3-4.11,0.99
		l-1.2-2.34c1.5-0.931,3.18-1.41,5.4-1.41c3.51,0,5.909,1.71,5.909,5.279v10.8H312.156z M312.156,416.91
		c-0.84-0.42-1.92-0.69-3.6-0.69c-1.979,0-3.24,0.9-3.24,2.341c0,1.56,0.99,2.609,3.03,2.609c1.649,0,3.09-1.02,3.81-2.01V416.91z"
		/>
	<path fill="#19162B" d="M324.726,423.96c-2.13,0-4.439-0.84-6.029-2.01l1.409-2.34c1.47,1.02,3.12,1.56,4.59,1.56
		c1.95,0,2.88-0.63,2.88-1.74c0-1.199-1.38-1.77-3.66-2.64c-3.39-1.32-4.619-2.46-4.619-4.949c0-2.82,2.22-4.29,5.369-4.29
		c1.98,0,3.93,0.72,5.34,1.739l-1.35,2.37c-1.29-0.899-2.58-1.35-4.08-1.35s-2.16,0.6-2.16,1.439c0,0.78,0.541,1.351,2.91,2.28
		c3.51,1.35,5.311,2.31,5.311,5.279C330.636,422.79,327.816,423.96,324.726,423.96z"/>
	<path fill="#19162B" d="M341.616,423.96c-1.591,0-3.09-0.84-3.96-1.8v5.67l-3.061,1.59v-21.539h3.061v1.5
		c1.14-1.051,2.46-1.83,4.109-1.83c3.391,0,6.061,2.46,6.061,8.459C347.826,421.41,344.885,423.96,341.616,423.96z M341.196,410.4
		c-1.47,0-2.761,0.99-3.57,2.01v6.63c0.69,0.93,2.13,2.07,3.69,2.07c2.22,0,3.42-1.681,3.42-5.01
		C344.736,412.141,343.476,410.4,341.196,410.4z"/>
	<path fill="#19162B" d="M353.406,405.841c-1.11,0-2.01-0.9-2.01-1.98c0-1.109,0.899-2.01,2.01-2.01c1.08,0,1.979,0.9,1.979,2.01
		C355.385,404.94,354.486,405.841,353.406,405.841z M351.845,423.63v-15.749h3.09v15.749H351.845z"/>
	<path fill="#19162B" d="M368.675,423.63v-1.56c-1.08,1.079-2.609,1.89-4.32,1.89c-2.549,0-5.459-1.44-5.459-5.31
		c0-3.51,2.699-5.101,6.27-5.101c1.47,0,2.64,0.211,3.51,0.601v-1.17c0-1.71-1.05-2.67-2.97-2.67c-1.62,0-2.88,0.3-4.11,0.99
		l-1.199-2.34c1.5-0.931,3.18-1.41,5.399-1.41c3.51,0,5.909,1.71,5.909,5.279v10.8H368.675z M368.675,416.91
		c-0.84-0.42-1.92-0.69-3.6-0.69c-1.98,0-3.24,0.9-3.24,2.341c0,1.56,0.99,2.609,3.029,2.609c1.65,0,3.09-1.02,3.811-2.01V416.91z"
		/>
	<path fill="#19162B" d="M385.714,423.63v-8.909c0-3.181-1.199-4.32-3.239-4.32c-2.07,0-3.24,1.47-3.24,4.02v9.21h-3.09v-15.749
		h3.09v1.5c0.78-1.141,2.34-1.83,3.96-1.83c3.66,0,5.609,2.399,5.609,7.05v9.029H385.714z"/>
	<path fill="#19162B" d="M408.094,423.96c-3.06,0-5.699-1.32-7.47-3.39l2.25-2.19c1.41,1.53,3.48,2.49,5.46,2.49
		c2.94,0,4.35-1.021,4.35-3.06c0-1.62-1.229-2.431-4.739-3.48c-4.44-1.319-6.57-2.43-6.57-6.18c0-3.63,3.061-5.85,6.93-5.85
		c2.851,0,5.01,1.05,6.87,2.85l-2.22,2.25c-1.32-1.35-2.82-2.01-4.89-2.01c-2.46,0-3.51,1.2-3.51,2.61c0,1.47,0.96,2.189,4.589,3.27
		c4.141,1.26,6.721,2.58,6.721,6.33C415.865,421.38,413.464,423.96,408.094,423.96z"/>
	<path fill="#19162B" d="M432.514,416.851h-10.41c0.33,3.029,2.04,4.319,3.96,4.319c1.32,0,2.37-0.479,3.42-1.26l1.83,1.979
		c-1.38,1.32-3.03,2.07-5.43,2.07c-3.69,0-6.81-2.97-6.81-8.189c0-5.34,2.819-8.22,6.899-8.22c4.47,0,6.63,3.63,6.63,7.89
		C432.604,416.01,432.543,416.521,432.514,416.851z M425.764,410.341c-2.07,0-3.33,1.439-3.6,3.959h7.319
		C429.333,412.141,428.314,410.341,425.764,410.341z"/>
	<path fill="#19162B" d="M445.264,423.63v-1.56c-1.08,1.079-2.61,1.89-4.32,1.89c-2.55,0-5.459-1.44-5.459-5.31
		c0-3.51,2.699-5.101,6.27-5.101c1.47,0,2.64,0.211,3.51,0.601v-1.17c0-1.71-1.05-2.67-2.97-2.67c-1.62,0-2.88,0.3-4.11,0.99
		l-1.199-2.34c1.5-0.931,3.18-1.41,5.399-1.41c3.51,0,5.91,1.71,5.91,5.279v10.8H445.264z M445.264,416.91
		c-0.84-0.42-1.92-0.69-3.6-0.69c-1.98,0-3.24,0.9-3.24,2.341c0,1.56,0.99,2.609,3.03,2.609c1.649,0,3.09-1.02,3.81-2.01V416.91z"/>
</g>
</svg>
