<?xml version="1.0" encoding="utf-8"?>
<!-- Generator: Adobe Illustrator 15.1.0, SVG Export Plug-In . SVG Version: 6.00 Build 0)  -->
<!DOCTYPE svg PUBLIC "-//W3C//DTD SVG 1.1//EN" "http://www.w3.org/Graphics/SVG/1.1/DTD/svg11.dtd">
<svg version="1.1" id="Layer_1" xmlns="http://www.w3.org/2000/svg" xmlns:xlink="http://www.w3.org/1999/xlink" x="0px" y="0px"
	 width="536.378px" height="780.521px" viewBox="0 0 536.378 780.521" enable-background="new 0 0 536.378 780.521"
	 xml:space="preserve">
<g>
	<g>
		<path fill="#6ABCC3" d="M329.795,47.392l-2.106,10.53c18.959,9.479,17.903,17.903,17.903,17.903
			c20.01,5.263,109.521,70.558,109.521,70.558c43.176,28.433,43.176,48.442,43.176,48.442
			c50.553,211.678,34.752,419.134,34.752,419.134c-26.328,106.364-67.396,119.005-67.396,119.005
			C434.049,754.024,330.852,779.3,330.852,779.3c-36.861,7.373-57.922-21.062-57.922-21.062c-20.01-28.435-41.069,0-41.069,0
			c-16.853,31.595-57.922,15.798-57.922,15.798c-17.903-3.157-101.101-38.964-101.101-38.964
			c-61.081-27.384-73.72-130.586-73.72-130.586c-1.052-20.011,5.267-153.751,5.267-153.751
			C9.3,427.212,71.786,135.853,71.786,135.853c12.635-31.595,121.105-69.508,121.105-69.508v-5.267
			c7.373-1.051,12.637-6.318,12.637-6.318l1.055-4.212l-3.161-6.318l8.424-12.636l2.175-18.333l100.026,15.161L329.795,47.392z
			 M162.352,163.23c0,0-30.543-35.806-51.604,10.534c0,0-23.17,112.683-9.479,171.655c0,0,5.267,15.797,15.798,7.373l11.584-4.212
			C128.651,348.581,138.13,358.056,162.352,163.23z"/>
	</g>
	<path fill="#19152B" d="M209.215,35.279c0,0,45.303,0.528,111.104,0.528V0H211.368L209.215,35.279z"/>
</g>
<rect x="32.689" y="390.261" fill="none" width="468" height="63.5"/>
<text transform="matrix(1 0 0 1 173.8252 412.1309)"><tspan x="0" y="0" font-family="'Interstate-Regular'" font-size="30">gallons in the</tspan><tspan x="7.98" y="36" font-family="'Interstate-Regular'" font-size="30">Caspian Sea</tspan></text>
<text transform="matrix(1 0 0 1 190.4443 288.8154)" font-family="'Interstate-Bold'" font-size="120">20.8 </text>
<text transform="matrix(1 0 0 1 207.168 350.21)" font-family="'Interstate-Bold'" font-size="50">quadrillion</text>
<path fill="#19162B" d="M303.804,506.724l-2.102-3.36l2.102-3.783v-6.304v-3.362v-5.464v-5.042l-6.725-2.943l-7.986,2.943
	l-7.145-2.943v-1.681h-9.246l-8.406,4.624l-5.884,2.939l-3.782,5.044l-3.783,3.363l-3.782-2.942l-3.362,2.942v4.202l-5.464,1.681
	v7.564h-3.362v-6.304l-2.102,2.521v4.623l-2.942-0.841l-2.521-0.84l-4.203-4.204l-2.521,7.564l-2.521,2.522l-2.102,5.042
	l-2.102,5.045l-2.102,2.102h-4.203l-3.362,5.044v5.884c0,0,5.884,2.102,7.144,3.36c1.261,1.263,1.682,0,2.942,2.104
	c1.261,2.102,1.682,6.724,1.682,6.724l3.362-3.782l2.942,0.842l-3.782,5.884l-1.681,5.884c0,0-0.84,0.421,0.421,1.682
	c1.26,1.262-0.842,5.043-0.842,5.043l0.842,5.045l4.623,6.305l1.26,4.202c0,0,1.682,2.101,2.942,3.362
	c1.261,1.261,2.522,2.94,2.522,4.201c0,1.263,1.26,4.202,2.101,5.464c0.84,1.262,2.943,3.469,2.943,3.469s1.68,3.257,2.101,4.518
	c0.42,1.262,3.363,5.464,4.203,6.725c0.84,1.261,1.261,2.103,2.101,3.782c0.841,1.683,2.103,3.783,2.943,5.043
	c0.84,1.264,2.521,3.362,3.783,4.624c1.26,1.261,7.144,3.782,7.144,3.782l2.853,1.315l2.612,1.206l2.101,3.782
	c0,0-10.086-3.783-11.348-2.942c-1.261,0.842-5.043,2.942-5.043,2.942s-2.101,3.781-2.521,5.883c-0.42,2.103-0.42,4.204-0.42,5.466
	c0,1.26,1.261,4.201,1.261,4.201l0.84,3.362l-2.102,3.362h-1.681l-0.84,4.203l-2.522-3.782l-2.941,6.723c0,0,0.42,3.784,0.42,5.886
	s-0.839,4.203-0.42,6.726c0.42,2.521,0.841,4.621,1.261,6.304c0.42,1.682,0.42,4.202,1.68,5.885c1.261,1.681,3.363,3.36,3.363,3.36
	s0.421,3.363,1.681,4.203c1.261,0.841,9.877,2.521,9.877,2.521h2.731c0,0,16.812,15.13,23.956,15.551h6.305h7.146h6.726h5.043
	l6.305-2.942h3.361l7.984-0.84l3.783-2.521c0,0-2.102-5.043-2.102-6.725c0-1.681,0-6.726,0-6.726l-2.102-5.883
	c0,0-0.422-6.306,0.419-7.985c0.842-1.682,1.262-5.884,1.262-5.884s-1.262-3.783-0.841-5.044c0.421-1.262,1.262-6.305,1.262-6.305
	l-1.262-2.521c0,0-0.421-0.421-1.682-1.681c-1.26-1.264-3.781-3.363-3.781-3.363l-2.521-2.103h-4.203l-2.521-2.102l1.26-4.623
	l1.683-2.521l1.261,3.36l4.623-0.841c0,0-3.782-4.623-1.681-6.304l-5.465-1.262l-3.361-0.841l0.84,5.885l-3.361-2.521l-0.84-2.943
	l-0.842-4.622l0.842-6.305l2.1-5.463l0.422-5.044l-0.422-3.783l-2.1-4.622c0,0-2.104-2.942-3.783-4.203
	c-1.682-1.262-3.361-5.044-3.781-6.725c-0.422-1.681-1.262-4.202-1.262-6.725c0-2.523,2.102-5.464,2.521-6.726
	c0.42-1.261,1.681-2.101,1.681-4.623c0-2.521-1.261-5.463-1.261-5.463l-3.361,0.42l-3.361-2.101c0,0-2.103,3.36-3.783,2.939
	c-1.682-0.421-4.203-9.666-4.203-9.666l-6.725,2.103l0.422-5.043l0.84-4.203l-3.047-4.203v-3.782l-3.678-3.361l-1.681-2.941
	c0,0-2.103,1.261-3.994-0.841c-1.89-2.103-4.411-3.782-4.832-5.043c-0.421-1.263-0.421-1.263-0.421-1.263l5.253-2.102l4.834-0.839
	l4.519,0.419v2.941l5.988-1.681l-2.102-2.102l-3.887-2.522l-2.838-0.421l4.623-6.724l2.942-2.103v-3.36l6.726-0.422l6.305-0.842
	l4.623-0.839h3.361L303.804,506.724z"/>
</svg>
