<?xml version="1.0" encoding="utf-8"?>
<!-- Generator: Adobe Illustrator 15.1.0, SVG Export Plug-In . SVG Version: 6.00 Build 0)  -->
<!DOCTYPE svg PUBLIC "-//W3C//DTD SVG 1.1//EN" "http://www.w3.org/Graphics/SVG/1.1/DTD/svg11.dtd">
<svg version="1.1" id="Layer_1" xmlns="http://www.w3.org/2000/svg" xmlns:xlink="http://www.w3.org/1999/xlink" x="0px" y="0px"
	 width="536.379px" height="780.521px" viewBox="0 0 536.379 780.521" enable-background="new 0 0 536.379 780.521"
	 xml:space="preserve">
<rect x="56.69" y="386.761" fill="none" width="434" height="82"/>
<g enable-background="new    ">
	<path fill="#19152B" d="M87.708,408.631v-8.909c0-3.181-1.2-4.32-3.24-4.32c-2.07,0-3.24,1.47-3.24,4.02v9.21h-3.09v-15.749h3.09
		v1.5c0.78-1.141,2.34-1.83,3.96-1.83c3.66,0,5.61,2.399,5.61,7.05v9.029H87.708z"/>
	<path fill="#19152B" d="M104.688,408.631v-1.5c-0.78,1.14-2.34,1.83-3.96,1.83c-3.66,0-5.609-2.4-5.609-7.05v-9.029h3.09v8.909
		c0,3.18,1.2,4.32,3.24,4.32c2.07,0,3.24-1.471,3.24-4.021v-9.209h3.09v15.749H104.688z"/>
	<path fill="#19152B" d="M130.637,408.631v-8.909c0-3.181-0.99-4.32-3.03-4.32c-2.07,0-3.03,1.47-3.03,4.02v9.21h-3.09v-8.909
		c0-3.181-0.99-4.32-3.03-4.32c-2.07,0-3.03,1.47-3.03,4.02v9.21h-3.09v-15.749h3.09v1.5c0.78-1.141,2.13-1.83,3.75-1.83
		c2.13,0,3.48,0.81,4.32,2.31c1.14-1.41,2.37-2.31,4.83-2.31c3.66,0,5.4,2.399,5.4,7.05v9.029H130.637z"/>
	<path fill="#19152B" d="M145.188,408.961c-1.59,0-3.09-0.84-3.96-1.8v1.47h-3.06v-20.279l3.06-1.59v7.62
		c1.14-1.051,2.46-1.83,4.11-1.83c3.39,0,6.06,2.46,6.06,8.459C151.397,406.411,148.457,408.961,145.188,408.961z M144.768,395.401
		c-1.47,0-2.76,0.99-3.57,2.01v6.63c0.69,0.93,2.13,2.07,3.69,2.07c2.22,0,3.42-1.681,3.42-5.01
		C148.307,397.142,147.047,395.401,144.768,395.401z"/>
	<path fill="#19152B" d="M167.957,401.852h-10.41c0.33,3.029,2.04,4.319,3.96,4.319c1.32,0,2.37-0.479,3.42-1.26l1.83,1.979
		c-1.38,1.32-3.03,2.07-5.43,2.07c-3.69,0-6.81-2.97-6.81-8.189c0-5.34,2.82-8.22,6.9-8.22c4.47,0,6.63,3.63,6.63,7.89
		C168.047,401.011,167.987,401.521,167.957,401.852z M161.207,395.342c-2.07,0-3.33,1.439-3.6,3.959h7.32
		C164.777,397.142,163.757,395.342,161.207,395.342z"/>
	<path fill="#19152B" d="M180.437,396.151c-0.66-0.36-1.35-0.57-2.37-0.57c-1.95,0-3.09,1.38-3.09,4.05v9h-3.09v-15.749h3.09v1.5
		c0.72-1.051,2.04-1.83,3.6-1.83c1.26,0,2.04,0.239,2.67,0.66L180.437,396.151z"/>
	<path fill="#19152B" d="M198.706,408.961c-3.959,0-6.93-3.27-6.93-8.189c0-5.16,3.06-8.22,7.02-8.22c4.02,0,7.02,3.21,7.02,8.13
		C205.816,405.901,202.756,408.961,198.706,408.961z M198.676,395.491c-2.34,0-3.78,2.07-3.78,5.19c0,3.449,1.59,5.339,3.93,5.339
		s3.87-2.369,3.87-5.249C202.696,397.562,201.166,395.491,198.676,395.491z"/>
	<path fill="#19152B" d="M214.756,389.552c-1.02,0-1.44,0.39-1.44,1.53v1.8h2.91v2.88h-2.91v12.869h-3.09v-12.869h-2.04v-2.88h2.04
		v-2.07c0-2.88,1.77-3.96,3.99-3.96c0.81,0,1.68,0.12,2.34,0.3v2.7C215.836,389.642,215.296,389.552,214.756,389.552z"/>
	<path fill="#19152B" d="M233.236,414.421l-1.05-2.34c4.44-0.21,5.4-1.41,5.4-4.68v-0.271c-1.14,1.05-2.43,1.83-4.08,1.83
		c-3.36,0-6.06-2.46-6.06-8.46c0-5.399,2.97-7.949,6.21-7.949c1.59,0,3.09,0.84,3.93,1.8v-1.47h3.09v14.249
		C240.675,411.931,238.936,414.24,233.236,414.421z M237.646,397.472c-0.69-0.931-2.13-2.07-3.69-2.07c-2.22,0-3.42,1.68-3.42,5.01
		c0,3.96,1.26,5.7,3.54,5.7c1.47,0,2.76-0.99,3.57-2.011V397.472z"/>
	<path fill="#19152B" d="M254.266,408.631v-1.56c-1.08,1.079-2.61,1.89-4.32,1.89c-2.55,0-5.46-1.44-5.46-5.31
		c0-3.51,2.7-5.101,6.27-5.101c1.47,0,2.64,0.211,3.51,0.601v-1.17c0-1.71-1.05-2.67-2.97-2.67c-1.62,0-2.88,0.3-4.11,0.99
		l-1.2-2.34c1.5-0.931,3.18-1.41,5.4-1.41c3.51,0,5.91,1.71,5.91,5.279v10.8H254.266z M254.266,401.911
		c-0.84-0.42-1.92-0.69-3.6-0.69c-1.979,0-3.24,0.9-3.24,2.341c0,1.56,0.99,2.609,3.03,2.609c1.65,0,3.09-1.02,3.81-2.01V401.911z"
		/>
	<path fill="#19152B" d="M261.885,408.631v-20.249l3.09-1.62v21.869H261.885z"/>
	<path fill="#19152B" d="M269.835,408.631v-20.249l3.09-1.62v21.869H269.835z"/>
	<path fill="#19152B" d="M283.814,408.961c-3.959,0-6.93-3.27-6.93-8.189c0-5.16,3.061-8.22,7.021-8.22c4.02,0,7.02,3.21,7.02,8.13
		C290.925,405.901,287.865,408.961,283.814,408.961z M283.785,395.491c-2.34,0-3.779,2.07-3.779,5.19c0,3.449,1.59,5.339,3.93,5.339
		s3.869-2.369,3.869-5.249C287.805,397.562,286.275,395.491,283.785,395.491z"/>
	<path fill="#19152B" d="M304.305,408.631v-8.909c0-3.181-1.2-4.32-3.24-4.32c-2.07,0-3.24,1.47-3.24,4.02v9.21h-3.09v-15.749h3.09
		v1.5c0.781-1.141,2.34-1.83,3.961-1.83c3.659,0,5.609,2.399,5.609,7.05v9.029H304.305z"/>
	<path fill="#19152B" d="M316.936,408.961c-2.131,0-4.44-0.84-6.03-2.01l1.409-2.34c1.471,1.02,3.121,1.56,4.59,1.56
		c1.951,0,2.881-0.63,2.881-1.74c0-1.199-1.381-1.77-3.66-2.64c-3.391-1.32-4.62-2.46-4.62-4.949c0-2.82,2.22-4.29,5.37-4.29
		c1.98,0,3.93,0.72,5.34,1.739l-1.35,2.37c-1.291-0.899-2.58-1.35-4.08-1.35s-2.16,0.6-2.16,1.439c0,0.78,0.54,1.351,2.91,2.28
		c3.51,1.35,5.31,2.31,5.31,5.279C322.845,407.791,320.025,408.961,316.936,408.961z"/>
	<path fill="#19152B" d="M344.475,408.631v-8.909c0-3.181-1.201-4.32-3.24-4.32c-2.07,0-3.24,1.47-3.24,4.02v9.21h-3.09v-15.749
		h3.09v1.5c0.78-1.141,2.34-1.83,3.96-1.83c3.659,0,5.61,2.399,5.61,7.05v9.029H344.475z"/>
	<path fill="#19152B" d="M364.693,401.852h-10.409c0.329,3.029,2.04,4.319,3.96,4.319c1.319,0,2.369-0.479,3.42-1.26l1.83,1.979
		c-1.381,1.32-3.03,2.07-5.43,2.07c-3.69,0-6.811-2.97-6.811-8.189c0-5.34,2.82-8.22,6.9-8.22c4.469,0,6.629,3.63,6.629,7.89
		C364.783,401.011,364.724,401.521,364.693,401.852z M357.943,395.342c-2.069,0-3.33,1.439-3.6,3.959h7.32
		C361.514,397.142,360.494,395.342,357.943,395.342z"/>
	<path fill="#19152B" d="M381.312,401.852h-10.409c0.33,3.029,2.04,4.319,3.96,4.319c1.32,0,2.37-0.479,3.42-1.26l1.83,1.979
		c-1.38,1.32-3.029,2.07-5.43,2.07c-3.689,0-6.811-2.97-6.811-8.189c0-5.34,2.82-8.22,6.9-8.22c4.47,0,6.63,3.63,6.63,7.89
		C381.403,401.011,381.344,401.521,381.312,401.852z M374.563,395.342c-2.069,0-3.33,1.439-3.601,3.959h7.32
		C378.133,397.142,377.113,395.342,374.563,395.342z"/>
	<path fill="#19152B" d="M394.723,408.631v-1.5c-1.141,1.05-2.46,1.83-4.11,1.83c-3.39,0-6.06-2.46-6.06-8.46
		c0-5.399,2.94-7.949,6.21-7.949c1.59,0,3.09,0.84,3.96,1.8v-6l3.06-1.59v21.869H394.723z M394.752,397.472
		c-0.689-0.931-2.13-2.07-3.689-2.07c-2.22,0-3.42,1.68-3.42,5.01c0,3.96,1.26,5.7,3.54,5.7c1.47,0,2.76-0.99,3.569-2.011V397.472z"
		/>
	<path fill="#19152B" d="M415.033,401.852h-10.41c0.33,3.029,2.04,4.319,3.96,4.319c1.32,0,2.37-0.479,3.42-1.26l1.83,1.979
		c-1.38,1.32-3.03,2.07-5.43,2.07c-3.69,0-6.81-2.97-6.81-8.189c0-5.34,2.819-8.22,6.899-8.22c4.47,0,6.63,3.63,6.63,7.89
		C415.123,401.011,415.062,401.521,415.033,401.852z M408.283,395.342c-2.07,0-3.33,1.439-3.6,3.959h7.319
		C411.853,397.142,410.833,395.342,408.283,395.342z"/>
	<path fill="#19152B" d="M428.442,408.631v-1.5c-1.141,1.05-2.46,1.83-4.11,1.83c-3.39,0-6.06-2.46-6.06-8.46
		c0-5.399,2.94-7.949,6.21-7.949c1.59,0,3.09,0.84,3.96,1.8v-6l3.06-1.59v21.869H428.442z M428.472,397.472
		c-0.689-0.931-2.13-2.07-3.689-2.07c-2.22,0-3.42,1.68-3.42,5.01c0,3.96,1.26,5.7,3.54,5.7c1.47,0,2.76-0.99,3.569-2.011V397.472z"
		/>
	<path fill="#19152B" d="M451.691,408.241c-0.75,0.42-1.8,0.72-3.03,0.72c-2.189,0-3.539-1.35-3.539-4.17v-9.09h-2.25v-2.819h2.25
		v-4.5l3.029-1.62v6.12h3.9v2.819h-3.9v8.55c0,1.47,0.48,1.89,1.62,1.89c0.81,0,1.71-0.3,2.28-0.63L451.691,408.241z"/>
	<path fill="#19152B" d="M461.832,408.961c-3.96,0-6.93-3.27-6.93-8.189c0-5.16,3.06-8.22,7.02-8.22c4.02,0,7.02,3.21,7.02,8.13
		C468.941,405.901,465.882,408.961,461.832,408.961z M461.802,395.491c-2.34,0-3.78,2.07-3.78,5.19c0,3.449,1.591,5.339,3.931,5.339
		s3.869-2.369,3.869-5.249C465.821,397.562,464.292,395.491,461.802,395.491z"/>
</g>
<g enable-background="new    ">
	<path fill="#19152B" d="M89.313,425.552c-1.02,0-1.44,0.39-1.44,1.53v1.8h2.91v2.88h-2.91v12.869h-3.09v-12.869h-2.04v-2.88h2.04
		v-2.07c0-2.88,1.77-3.96,3.99-3.96c0.81,0,1.68,0.12,2.34,0.3v2.7C90.393,425.642,89.853,425.552,89.313,425.552z M96.093,426.842
		c-1.11,0-2.01-0.9-2.01-1.98c0-1.109,0.9-2.01,2.01-2.01c1.08,0,1.979,0.9,1.979,2.01
		C98.073,425.941,97.173,426.842,96.093,426.842z M94.533,444.631v-15.749h3.09v15.749H94.533z"/>
	<path fill="#19152B" d="M102.483,444.631v-20.249l3.09-1.62v21.869H102.483z"/>
	<path fill="#19152B" d="M110.433,444.631v-20.249l3.09-1.62v21.869H110.433z"/>
	<path fill="#19152B" d="M135.363,444.631v-1.56c-1.08,1.079-2.61,1.89-4.32,1.89c-2.55,0-5.46-1.44-5.46-5.31
		c0-3.51,2.7-5.101,6.27-5.101c1.47,0,2.64,0.211,3.51,0.601v-1.17c0-1.71-1.05-2.67-2.97-2.67c-1.62,0-2.88,0.3-4.11,0.99
		l-1.2-2.34c1.5-0.931,3.18-1.41,5.4-1.41c3.51,0,5.91,1.71,5.91,5.279v10.8H135.363z M135.363,437.911
		c-0.84-0.42-1.92-0.69-3.6-0.69c-1.979,0-3.24,0.9-3.24,2.341c0,1.56,0.99,2.609,3.03,2.609c1.65,0,3.09-1.02,3.81-2.01V437.911z"
		/>
	<path fill="#19152B" d="M156.032,444.961c-2.13,0-4.44-0.84-6.03-2.01l1.41-2.34c1.47,1.02,3.12,1.56,4.59,1.56
		c1.95,0,2.88-0.63,2.88-1.74c0-1.199-1.38-1.77-3.66-2.64c-3.39-1.32-4.62-2.46-4.62-4.949c0-2.82,2.22-4.29,5.37-4.29
		c1.98,0,3.93,0.72,5.34,1.739l-1.35,2.37c-1.29-0.899-2.58-1.35-4.08-1.35c-1.5,0-2.16,0.6-2.16,1.439c0,0.78,0.54,1.351,2.91,2.28
		c3.51,1.35,5.31,2.31,5.31,5.279C161.942,443.791,159.122,444.961,156.032,444.961z"/>
	<path fill="#19152B" d="M173.132,444.241c-0.75,0.42-1.8,0.72-3.03,0.72c-2.19,0-3.54-1.35-3.54-4.17v-9.09h-2.25v-2.819h2.25v-4.5
		l3.03-1.62v6.12h3.9v2.819h-3.9v8.55c0,1.47,0.48,1.89,1.62,1.89c0.81,0,1.71-0.3,2.28-0.63L173.132,444.241z"/>
	<path fill="#19152B" d="M186.272,444.631v-1.56c-1.08,1.079-2.61,1.89-4.32,1.89c-2.55,0-5.46-1.44-5.46-5.31
		c0-3.51,2.7-5.101,6.27-5.101c1.47,0,2.64,0.211,3.51,0.601v-1.17c0-1.71-1.05-2.67-2.97-2.67c-1.62,0-2.88,0.3-4.11,0.99
		l-1.2-2.34c1.5-0.931,3.18-1.41,5.4-1.41c3.51,0,5.91,1.71,5.91,5.279v10.8H186.272z M186.272,437.911
		c-0.84-0.42-1.92-0.69-3.6-0.69c-1.979,0-3.24,0.9-3.24,2.341c0,1.56,0.99,2.609,3.03,2.609c1.65,0,3.09-1.02,3.81-2.01V437.911z"
		/>
	<path fill="#19152B" d="M203.312,444.631v-8.909c0-3.181-1.2-4.32-3.24-4.32c-2.07,0-3.24,1.47-3.24,4.02v9.21h-3.09v-15.749h3.09
		v1.5c0.78-1.141,2.34-1.83,3.96-1.83c3.66,0,5.61,2.399,5.61,7.05v9.029H203.312z"/>
	<path fill="#19152B" d="M220.322,444.631v-1.5c-1.14,1.05-2.46,1.83-4.11,1.83c-3.39,0-6.06-2.46-6.06-8.46
		c0-5.399,2.94-7.949,6.21-7.949c1.59,0,3.09,0.84,3.96,1.8v-6l3.06-1.59v21.869H220.322z M220.352,433.472
		c-0.69-0.931-2.13-2.07-3.69-2.07c-2.22,0-3.42,1.68-3.42,5.01c0,3.96,1.26,5.7,3.54,5.7c1.47,0,2.76-0.99,3.57-2.011V433.472z"/>
	<path fill="#19152B" d="M236.971,444.631v-1.56c-1.08,1.079-2.61,1.89-4.32,1.89c-2.55,0-5.46-1.44-5.46-5.31
		c0-3.51,2.7-5.101,6.27-5.101c1.47,0,2.64,0.211,3.51,0.601v-1.17c0-1.71-1.05-2.67-2.97-2.67c-1.62,0-2.88,0.3-4.11,0.99
		l-1.2-2.34c1.5-0.931,3.18-1.41,5.4-1.41c3.51,0,5.91,1.71,5.91,5.279v10.8H236.971z M236.971,437.911
		c-0.84-0.42-1.92-0.69-3.6-0.69c-1.979,0-3.24,0.9-3.24,2.341c0,1.56,0.99,2.609,3.03,2.609c1.65,0,3.09-1.02,3.81-2.01V437.911z"
		/>
	<path fill="#19152B" d="M252.991,432.151c-0.66-0.36-1.35-0.57-2.37-0.57c-1.95,0-3.09,1.38-3.09,4.05v9h-3.09v-15.749h3.09v1.5
		c0.72-1.051,2.04-1.83,3.6-1.83c1.26,0,2.04,0.239,2.67,0.66L252.991,432.151z"/>
	<path fill="#19152B" d="M265.621,444.631v-1.5c-1.14,1.05-2.459,1.83-4.109,1.83c-3.39,0-6.06-2.46-6.06-8.46
		c0-5.399,2.94-7.949,6.21-7.949c1.59,0,3.09,0.84,3.959,1.8v-6l3.06-1.59v21.869H265.621z M265.651,433.472
		c-0.69-0.931-2.13-2.07-3.69-2.07c-2.22,0-3.42,1.68-3.42,5.01c0,3.96,1.26,5.7,3.54,5.7c1.47,0,2.76-0.99,3.57-2.011V433.472z"/>
	<path fill="#19152B" d="M291.24,433.411c-1.29-1.319-2.43-1.92-3.84-1.92c-2.25,0-3.689,2.01-3.689,5.22
		c0,3.09,1.319,5.31,3.779,5.31c1.47,0,2.34-0.659,3.57-1.949l1.979,1.949c-1.229,1.561-2.79,2.94-5.64,2.94
		c-3.84,0-6.811-3.24-6.811-8.16c0-5.22,3.061-8.249,6.9-8.249c2.311,0,4.109,0.93,5.58,2.67L291.24,433.411z"/>
	<path fill="#19152B" d="M309.18,437.852h-10.41c0.33,3.029,2.041,4.319,3.961,4.319c1.32,0,2.369-0.479,3.42-1.26l1.83,1.979
		c-1.381,1.32-3.03,2.07-5.43,2.07c-3.69,0-6.811-2.97-6.811-8.189c0-5.34,2.82-8.22,6.9-8.22c4.469,0,6.629,3.63,6.629,7.89
		C309.27,437.011,309.21,437.521,309.18,437.852z M302.43,431.342c-2.069,0-3.33,1.439-3.6,3.959h7.32
		C306,433.142,304.98,431.342,302.43,431.342z"/>
	<path fill="#19152B" d="M331.408,444.631v-8.909c0-3.181-0.989-4.32-3.029-4.32c-2.07,0-3.029,1.47-3.029,4.02v9.21h-3.09v-8.909
		c0-3.181-0.99-4.32-3.031-4.32c-2.069,0-3.029,1.47-3.029,4.02v9.21h-3.09v-15.749h3.09v1.5c0.78-1.141,2.13-1.83,3.75-1.83
		c2.13,0,3.48,0.81,4.32,2.31c1.14-1.41,2.369-2.31,4.829-2.31c3.66,0,5.399,2.399,5.399,7.05v9.029H331.408z"/>
	<path fill="#19152B" d="M351.629,437.852h-10.41c0.33,3.029,2.041,4.319,3.961,4.319c1.32,0,2.369-0.479,3.42-1.26l1.83,1.979
		c-1.381,1.32-3.03,2.07-5.43,2.07c-3.69,0-6.811-2.97-6.811-8.189c0-5.34,2.82-8.22,6.9-8.22c4.469,0,6.629,3.63,6.629,7.89
		C351.719,437.011,351.659,437.521,351.629,437.852z M344.879,431.342c-2.069,0-3.33,1.439-3.6,3.959h7.32
		C348.449,433.142,347.43,431.342,344.879,431.342z"/>
	<path fill="#19152B" d="M365.129,444.631v-8.909c0-3.181-1.2-4.32-3.24-4.32c-2.07,0-3.24,1.47-3.24,4.02v9.21h-3.09v-15.749h3.09
		v1.5c0.781-1.141,2.34-1.83,3.961-1.83c3.659,0,5.609,2.399,5.609,7.05v9.029H365.129z"/>
	<path fill="#19152B" d="M380.039,444.241c-0.75,0.42-1.801,0.72-3.03,0.72c-2.19,0-3.54-1.35-3.54-4.17v-9.09h-2.25v-2.819h2.25
		v-4.5l3.029-1.62v6.12h3.9v2.819h-3.9v8.55c0,1.47,0.48,1.89,1.621,1.89c0.81,0,1.709-0.3,2.279-0.63L380.039,444.241z"/>
	<path fill="#19152B" d="M400.229,444.241c-0.75,0.42-1.801,0.72-3.031,0.72c-2.189,0-3.539-1.35-3.539-4.17v-9.09h-2.25v-2.819
		h2.25v-4.5l3.029-1.62v6.12h3.9v2.819h-3.9v8.55c0,1.47,0.48,1.89,1.621,1.89c0.809,0,1.709-0.3,2.279-0.63L400.229,444.241z"/>
	<path fill="#19152B" d="M413.338,432.151c-0.658-0.36-1.35-0.57-2.369-0.57c-1.949,0-3.09,1.38-3.09,4.05v9h-3.09v-15.749h3.09v1.5
		c0.721-1.051,2.041-1.83,3.6-1.83c1.26,0,2.041,0.239,2.67,0.66L413.338,432.151z"/>
	<path fill="#19152B" d="M426.779,444.631v-1.5c-0.781,1.14-2.34,1.83-3.961,1.83c-3.66,0-5.609-2.4-5.609-7.05v-9.029h3.09v8.909
		c0,3.18,1.201,4.32,3.24,4.32c2.07,0,3.24-1.471,3.24-4.021v-9.209h3.09v15.749H426.779z"/>
	<path fill="#19152B" d="M444.328,433.411c-1.289-1.319-2.43-1.92-3.84-1.92c-2.25,0-3.689,2.01-3.689,5.22
		c0,3.09,1.32,5.31,3.779,5.31c1.471,0,2.34-0.659,3.57-1.949l1.98,1.949c-1.23,1.561-2.791,2.94-5.641,2.94
		c-3.84,0-6.809-3.24-6.809-8.16c0-5.22,3.059-8.249,6.898-8.249c2.311,0,4.109,0.93,5.58,2.67L444.328,433.411z"/>
	<path fill="#19152B" d="M459.059,444.631l-3.48-7.83l-2.4,3.181v4.649h-3.09v-20.249l3.09-1.62v9.93c0,0.96-0.029,2.58-0.029,3.359
		c0.42-0.63,1.229-1.829,1.74-2.579l3.27-4.59h3.51l-3.99,5.279l4.74,10.47H459.059z"/>
</g>
<g enable-background="new    ">
	<path fill="#19152B" d="M172.85,288.815c0.48-28.799,18.119-41.278,38.639-50.278c7.2-3.119,9.479-6.479,9.479-10.079
		c0-4.32-3.72-8.52-13.799-8.52c-9.959,0-18,4.439-23.879,10.079l-10.799-12.6c8.879-8.999,20.759-13.919,34.079-13.919
		c19.919,0,31.199,8.039,31.199,24.119c0,13.56-7.32,19.439-21.599,26.039c-14.879,6.84-20.639,12.479-22.199,18.959h44.638v16.199
		H172.85z"/>
	<path fill="#19152B" d="M264.529,303.935H253.25l1.8-35.398h19.56L264.529,303.935z"/>
	<path fill="#19152B" d="M317.928,290.136c-22.918,0-35.158-17.76-35.158-43.318c0-25.56,12.359-43.318,35.279-43.318
		c22.918,0,35.278,17.52,35.278,43.078S340.848,290.136,317.928,290.136z M317.928,219.938c-12.839,0-18.119,11.64-18.119,26.639
		s5.4,27.119,18.24,27.119c12.839,0,18.238-11.88,18.238-26.879C336.287,231.817,330.768,219.938,317.928,219.938z"/>
	<path fill="#19152B" d="M378.408,288.815v-60.718h-14.4v-12.359c9.36-0.479,15.48-3.96,17.16-10.919h13.919v83.996H378.408z"/>
	<path fill="#19152B" d="M422.928,290.136v-16.319c19.439,0,31.799-6.84,36.599-19.68c-5.399,3.6-10.68,5.28-19.199,5.28
		c-16.68,0-29.64-8.52-29.64-27.119c0-18.72,15.6-28.799,35.399-28.799c18.719,0,33.358,10.439,33.358,33.959
		C479.445,259.536,466.486,290.136,422.928,290.136z M445.367,219.099c-11.16,0-17.64,4.8-17.64,12.6
		c0,8.52,6.239,12.479,16.8,12.479c11.398,0,17.519-3.84,17.519-12.599C462.046,223.778,456.286,219.099,445.367,219.099z"/>
</g>
<g>
	<path stroke="#6ABDC4" stroke-linecap="round" stroke-miterlimit="10" d="M135.749,645.626l86.376-7.857l-3.645-45.012
		l-53.408-0.911c0,0-38.942,24.888-29.323,52.415"/>
	<polygon stroke="#6ABDC4" stroke-linecap="round" stroke-miterlimit="10" points="265.061,635.89 392.665,618.295 383.836,573.396 
		266.73,568.927 	"/>
	<path stroke="#6ABDC4" stroke-linecap="round" stroke-miterlimit="10" d="M411.113,507.603l6.834,18.448c0,0,4.1,2.733,2.049,5.466
		l-23.914,41.342c0,0-4.441,5.979-14.691,4.524l-105.824,7.466l-8.834-57.337L411.113,507.603z"/>
	<path stroke="#6ABDC4" stroke-linecap="round" stroke-miterlimit="10" d="M251.566,529.126c0,0-4.1-6.491,0-13.324l24-18.791
		c0,0,7.432-5.124,14.604-5.466l15.736-6.491c0,0,4.762-1.708,15.354,0l57.057-0.76c0,0,2.73-8.123,15.715-2.998
		c0,0,14.689,7.174,17.082,26.307c0,0-36.312,49.196-45.998,53.298c0,0-56.324,11.483-89.549-4.509
		C242.341,540.4,251.566,529.126,251.566,529.126z"/>
	<path stroke="#6ABDC4" stroke-linecap="round" stroke-miterlimit="10" d="M111.834,568.073c0,0-11.274,0.342-7.174,11.614v1.537
		v31.433h-4.271c0,0-7.004-0.854-7.516,3.588c0,0-1.538,5.295,1.708,8.199l17.253,18.446c0,0,3.417,3.075,9.054,1.196l14.861,1.537
		c0,0,1.879,0.171,1.196-4.1l0.149-9.056l17.958-22.378c0,0,4.441-2.902,11.103-3.245l36.727-3.587c0,0,6.491,0.171,9.566,8.541
		l8.712,26.818l43.901-2.732l12.128-33.821c0,0,1.879-5.81,10.078-5.81l88.996-5.467c0,0,6.834-1.195,8.885,3.759l7.517,23.744
		c0,0,10.591,1.366,15.203-2.732v-29.895c0,0,0.342-8.712-11.616-8.37l-4.953,0.685l-102.835,5.467c0,0-7.687,1.708-8.37-5.467
		l-8.883-42.363c0,0-1.367-10.591-9.396-8.712l-69.354-2.733c0,0-5.808-1.194-9.737,4.612l-17.253,27.502
		c0,0-1.879,3.929-7.687,4.612L111.834,568.073z"/>
	<polyline stroke="#6ABDC4" stroke-linecap="round" stroke-miterlimit="10" points="104.66,579.688 127.727,590.244 
		125.701,624.615 137.094,632.473 	"/>
	<polygon stroke="#6ABDC4" stroke-linecap="round" stroke-miterlimit="10" points="167.522,557.995 200.149,565.854 
		211.936,537.667 182.213,533.567 	"/>
	<polygon stroke="#6ABDC4" stroke-linecap="round" stroke-miterlimit="10" points="227.48,543.475 254.128,543.475 254.128,564.998 
		217.061,564.998 	"/>
	<polyline fill="none" stroke="#6ABDC4" stroke-linecap="round" stroke-miterlimit="10" points="254.128,564.998 254.128,587.034 
		217.061,588.23 217.061,564.998 	"/>
	<path fill="none" stroke="#6ABDC4" stroke-linecap="round" stroke-miterlimit="10" d="M200.491,577.383v10.85h-45.097
		c0,0-9.566-1.709-9.224,6.659v4.783h-12.128c0,0-6.867,5.157-3.417,17.938c0,0,2.37,7.488,11.291,8.854"/>
	
		<line fill="none" stroke="#6ABDC4" stroke-linecap="round" stroke-miterlimit="10" x1="127.727" y1="590.244" x2="200.491" y2="577.383"/>
	<circle stroke="#6ABDC4" stroke-linecap="round" stroke-miterlimit="10" cx="180.893" cy="641.407" r="29.979"/>
	<circle stroke="#6ABDC4" stroke-linecap="round" stroke-miterlimit="10" cx="180.894" cy="641.407" r="18.377"/>
	<circle stroke="#6ABDC4" stroke-linecap="round" stroke-miterlimit="10" cx="180.894" cy="641.407" r="6.149"/>
	<circle stroke="#6ABDC4" stroke-linecap="round" stroke-miterlimit="10" cx="181.359" cy="654.68" r="1.366"/>
	<circle stroke="#6ABDC4" stroke-linecap="round" stroke-miterlimit="10" cx="188.41" cy="651.946" r="1.367"/>
	<circle stroke="#6ABDC4" stroke-linecap="round" stroke-miterlimit="10" cx="192.291" cy="645.628" r="1.366"/>
	<circle stroke="#6ABDC4" stroke-linecap="round" stroke-miterlimit="10" cx="193.658" cy="639.135" r="1.367"/>
	<circle stroke="#6ABDC4" stroke-linecap="round" stroke-miterlimit="10" cx="189.776" cy="632.473" r="1.366"/>
	<circle stroke="#6ABDC4" stroke-linecap="round" stroke-miterlimit="10" cx="182.725" cy="629.739" r="1.367"/>
	<circle stroke="#6ABDC4" stroke-linecap="round" stroke-miterlimit="10" cx="174.744" cy="631.106" r="1.366"/>
	<circle stroke="#6ABDC4" stroke-linecap="round" stroke-miterlimit="10" cx="170.255" cy="636.401" r="1.366"/>
	<circle stroke="#6ABDC4" stroke-linecap="round" stroke-miterlimit="10" cx="170.255" cy="645.628" r="1.366"/>
	<circle stroke="#6ABDC4" stroke-linecap="round" stroke-miterlimit="10" cx="174.744" cy="651.946" r="1.366"/>
	<circle stroke="#6ABDC4" stroke-linecap="round" stroke-miterlimit="10" cx="302.982" cy="628.544" r="27.417"/>
	<circle stroke="#6ABDC4" stroke-linecap="round" stroke-miterlimit="10" cx="302.982" cy="628.544" r="16.806"/>
	<circle stroke="#6ABDC4" stroke-linecap="round" stroke-miterlimit="10" cx="302.982" cy="628.544" r="5.624"/>
	<circle stroke="#6ABDC4" stroke-linecap="round" stroke-miterlimit="10" cx="303.408" cy="640.682" r="1.25"/>
	<circle stroke="#6ABDC4" stroke-linecap="round" stroke-miterlimit="10" cx="309.857" cy="638.182" r="1.25"/>
	<circle stroke="#6ABDC4" stroke-linecap="round" stroke-miterlimit="10" cx="313.407" cy="632.403" r="1.25"/>
	<circle stroke="#6ABDC4" stroke-linecap="round" stroke-miterlimit="10" cx="314.656" cy="626.466" r="1.25"/>
	<circle stroke="#6ABDC4" stroke-linecap="round" stroke-miterlimit="10" cx="311.107" cy="620.372" r="1.25"/>
	<circle stroke="#6ABDC4" stroke-linecap="round" stroke-miterlimit="10" cx="304.658" cy="617.873" r="1.25"/>
	<circle stroke="#6ABDC4" stroke-linecap="round" stroke-miterlimit="10" cx="297.243" cy="619.006" r="1.25"/>
	<circle stroke="#6ABDC4" stroke-linecap="round" stroke-miterlimit="10" cx="293.137" cy="625.216" r="1.25"/>
	<circle stroke="#6ABDC4" stroke-linecap="round" stroke-miterlimit="10" cx="293.254" cy="632.403" r="1.25"/>
	<circle stroke="#6ABDC4" stroke-linecap="round" stroke-miterlimit="10" cx="297.359" cy="638.182" r="1.25"/>
	<ellipse stroke="#6ABDC4" stroke-linecap="round" stroke-miterlimit="10" cx="359.184" cy="623.764" rx="23.659" ry="25.965"/>
	<ellipse stroke="#6ABDC4" stroke-linecap="round" stroke-miterlimit="10" cx="359.184" cy="623.764" rx="14.502" ry="15.917"/>
	<ellipse stroke="#6ABDC4" stroke-linecap="round" stroke-miterlimit="10" cx="359.184" cy="623.764" rx="4.854" ry="5.326"/>
	<ellipse stroke="#6ABDC4" stroke-linecap="round" stroke-miterlimit="10" cx="359.551" cy="635.258" rx="1.078" ry="1.184"/>
	<ellipse stroke="#6ABDC4" stroke-linecap="round" stroke-miterlimit="10" cx="365.115" cy="632.892" rx="1.079" ry="1.184"/>
	<ellipse stroke="#6ABDC4" stroke-linecap="round" stroke-miterlimit="10" cx="368.179" cy="627.419" rx="1.078" ry="1.183"/>
	<ellipse stroke="#6ABDC4" stroke-linecap="round" stroke-miterlimit="10" cx="369.257" cy="621.795" rx="1.079" ry="1.184"/>
	<ellipse stroke="#6ABDC4" stroke-linecap="round" stroke-miterlimit="10" cx="366.194" cy="616.024" rx="1.078" ry="1.186"/>
	<ellipse stroke="#6ABDC4" stroke-linecap="round" stroke-miterlimit="10" cx="360.628" cy="613.657" rx="1.079" ry="1.185"/>
	<ellipse stroke="#6ABDC4" stroke-linecap="round" stroke-miterlimit="10" cx="354.043" cy="614.658" rx="1.078" ry="1.185"/>
	<ellipse stroke="#6ABDC4" stroke-linecap="round" stroke-miterlimit="10" cx="350.499" cy="620.611" rx="1.079" ry="1.184"/>
	<ellipse stroke="#6ABDC4" stroke-linecap="round" stroke-miterlimit="10" cx="350.789" cy="627.419" rx="1.079" ry="1.183"/>
	<ellipse stroke="#6ABDC4" stroke-linecap="round" stroke-miterlimit="10" cx="354.33" cy="632.892" rx="1.078" ry="1.184"/>
	<path fill="none" stroke="#6ABDC4" stroke-linecap="round" stroke-miterlimit="10" d="M254.128,513.796
		c0,0,27.372,5.127,32.049,46.613"/>
	<path fill="none" stroke="#6ABDC4" stroke-linecap="round" stroke-miterlimit="10" d="M321.262,485.054
		c0,0,24.227,11.396,34.148,77.443"/>
</g>
</svg>
