<?xml version="1.0" encoding="utf-8"?>
<!-- Generator: Adobe Illustrator 15.1.0, SVG Export Plug-In . SVG Version: 6.00 Build 0)  -->
<!DOCTYPE svg PUBLIC "-//W3C//DTD SVG 1.1//EN" "http://www.w3.org/Graphics/SVG/1.1/DTD/svg11.dtd">
<svg version="1.1" id="Layer_1" xmlns="http://www.w3.org/2000/svg" xmlns:xlink="http://www.w3.org/1999/xlink" x="0px" y="0px"
	 width="536.378px" height="780.521px" viewBox="0 0 536.378 780.521" enable-background="new 0 0 536.378 780.521"
	 xml:space="preserve">
<rect x="32.689" y="390.261" fill="none" width="468" height="66.5"/>
<g enable-background="new    ">
	<path fill="#19152B" d="M99.352,412.131v-8.909c0-3.181-1.2-4.32-3.24-4.32c-2.07,0-3.24,1.47-3.24,4.02v9.21h-3.09v-15.749h3.09
		v1.5c0.78-1.141,2.34-1.83,3.96-1.83c3.66,0,5.61,2.399,5.61,7.05v9.029H99.352z"/>
	<path fill="#19152B" d="M116.331,412.131v-1.5c-0.78,1.14-2.34,1.83-3.96,1.83c-3.66,0-5.609-2.4-5.609-7.05v-9.029h3.09v8.909
		c0,3.18,1.2,4.32,3.24,4.32c2.07,0,3.24-1.471,3.24-4.021v-9.209h3.09v15.749H116.331z"/>
	<path fill="#19152B" d="M142.281,412.131v-8.909c0-3.181-0.99-4.32-3.03-4.32c-2.07,0-3.03,1.47-3.03,4.02v9.21h-3.09v-8.909
		c0-3.181-0.99-4.32-3.03-4.32c-2.07,0-3.03,1.47-3.03,4.02v9.21h-3.09v-15.749h3.09v1.5c0.78-1.141,2.13-1.83,3.75-1.83
		c2.13,0,3.48,0.81,4.32,2.31c1.14-1.41,2.37-2.31,4.83-2.31c3.66,0,5.4,2.399,5.4,7.05v9.029H142.281z"/>
	<path fill="#19152B" d="M156.831,412.461c-1.59,0-3.09-0.84-3.96-1.8v1.47h-3.06v-20.279l3.06-1.59v7.62
		c1.14-1.051,2.46-1.83,4.11-1.83c3.39,0,6.06,2.46,6.06,8.459C163.041,409.911,160.101,412.461,156.831,412.461z M156.411,398.901
		c-1.47,0-2.76,0.99-3.57,2.01v6.63c0.69,0.93,2.13,2.07,3.69,2.07c2.22,0,3.42-1.681,3.42-5.01
		C159.951,400.642,158.691,398.901,156.411,398.901z"/>
	<path fill="#19152B" d="M179.6,405.352h-10.41c0.33,3.029,2.04,4.319,3.96,4.319c1.32,0,2.37-0.479,3.42-1.26l1.83,1.979
		c-1.38,1.32-3.03,2.07-5.43,2.07c-3.69,0-6.81-2.97-6.81-8.189c0-5.34,2.82-8.22,6.9-8.22c4.47,0,6.63,3.63,6.63,7.89
		C179.69,404.511,179.63,405.021,179.6,405.352z M172.851,398.842c-2.07,0-3.33,1.439-3.6,3.959h7.32
		C176.42,400.642,175.4,398.842,172.851,398.842z"/>
	<path fill="#19152B" d="M192.08,399.651c-0.66-0.36-1.35-0.57-2.37-0.57c-1.95,0-3.09,1.38-3.09,4.05v9h-3.09v-15.749h3.09v1.5
		c0.72-1.051,2.04-1.83,3.6-1.83c1.26,0,2.04,0.239,2.67,0.66L192.08,399.651z"/>
	<path fill="#19152B" d="M210.35,412.461c-3.959,0-6.93-3.27-6.93-8.189c0-5.16,3.06-8.22,7.02-8.22c4.02,0,7.02,3.21,7.02,8.13
		C217.459,409.401,214.399,412.461,210.35,412.461z M210.32,398.991c-2.34,0-3.78,2.07-3.78,5.19c0,3.449,1.59,5.339,3.93,5.339
		s3.87-2.369,3.87-5.249C214.34,401.062,212.81,398.991,210.32,398.991z"/>
	<path fill="#19152B" d="M226.4,393.052c-1.02,0-1.44,0.39-1.44,1.53v1.8h2.91v2.88h-2.91v12.869h-3.09v-12.869h-2.04v-2.88h2.04
		v-2.07c0-2.88,1.77-3.96,3.99-3.96c0.81,0,1.68,0.12,2.34,0.3v2.7C227.479,393.142,226.939,393.052,226.4,393.052z"/>
	<path fill="#19152B" d="M244.879,417.921l-1.05-2.34c4.44-0.21,5.4-1.41,5.4-4.68v-0.271c-1.14,1.05-2.43,1.83-4.08,1.83
		c-3.36,0-6.06-2.46-6.06-8.46c0-5.399,2.97-7.949,6.21-7.949c1.59,0,3.09,0.84,3.93,1.8v-1.47h3.09v14.249
		C252.319,415.431,250.579,417.74,244.879,417.921z M249.289,400.972c-0.69-0.931-2.13-2.07-3.69-2.07c-2.22,0-3.42,1.68-3.42,5.01
		c0,3.96,1.26,5.7,3.54,5.7c1.47,0,2.76-0.99,3.57-2.011V400.972z"/>
	<path fill="#19152B" d="M265.909,412.131v-1.56c-1.08,1.079-2.61,1.89-4.32,1.89c-2.55,0-5.46-1.44-5.46-5.31
		c0-3.51,2.7-5.101,6.27-5.101c1.47,0,2.64,0.211,3.51,0.601v-1.17c0-1.71-1.05-2.67-2.97-2.67c-1.62,0-2.88,0.3-4.11,0.99
		l-1.2-2.34c1.5-0.931,3.18-1.41,5.4-1.41c3.51,0,5.91,1.71,5.91,5.279v10.8H265.909z M265.909,405.411
		c-0.84-0.42-1.92-0.69-3.6-0.69c-1.979,0-3.24,0.9-3.24,2.341c0,1.56,0.99,2.609,3.03,2.609c1.65,0,3.09-1.02,3.81-2.01V405.411z"
		/>
	<path fill="#19152B" d="M273.529,412.131v-20.249l3.09-1.62v21.869H273.529z"/>
	<path fill="#19152B" d="M281.478,412.131v-20.249l3.09-1.62v21.869H281.478z"/>
	<path fill="#19152B" d="M295.458,412.461c-3.959,0-6.93-3.27-6.93-8.189c0-5.16,3.061-8.22,7.02-8.22c4.02,0,7.02,3.21,7.02,8.13
		C302.568,409.401,299.508,412.461,295.458,412.461z M295.429,398.991c-2.34,0-3.78,2.07-3.78,5.19c0,3.449,1.59,5.339,3.93,5.339
		s3.87-2.369,3.87-5.249C299.449,401.062,297.918,398.991,295.429,398.991z"/>
	<path fill="#19152B" d="M315.949,412.131v-8.909c0-3.181-1.201-4.32-3.24-4.32c-2.07,0-3.24,1.47-3.24,4.02v9.21h-3.09v-15.749
		h3.09v1.5c0.78-1.141,2.34-1.83,3.96-1.83c3.659,0,5.61,2.399,5.61,7.05v9.029H315.949z"/>
	<path fill="#19152B" d="M328.579,412.461c-2.13,0-4.44-0.84-6.03-2.01l1.41-2.34c1.471,1.02,3.12,1.56,4.59,1.56
		c1.95,0,2.88-0.63,2.88-1.74c0-1.199-1.38-1.77-3.659-2.64c-3.391-1.32-4.621-2.46-4.621-4.949c0-2.82,2.221-4.29,5.371-4.29
		c1.979,0,3.93,0.72,5.34,1.739l-1.351,2.37c-1.29-0.899-2.58-1.35-4.08-1.35c-1.499,0-2.159,0.6-2.159,1.439
		c0,0.78,0.539,1.351,2.909,2.28c3.511,1.35,5.31,2.31,5.31,5.279C334.488,411.291,331.668,412.461,328.579,412.461z"/>
	<path fill="#19152B" d="M356.118,412.131v-8.909c0-3.181-1.2-4.32-3.239-4.32c-2.07,0-3.24,1.47-3.24,4.02v9.21h-3.09v-15.749h3.09
		v1.5c0.779-1.141,2.34-1.83,3.959-1.83c3.66,0,5.61,2.399,5.61,7.05v9.029H356.118z"/>
	<path fill="#19152B" d="M376.337,405.352h-10.41c0.33,3.029,2.04,4.319,3.96,4.319c1.319,0,2.37-0.479,3.42-1.26l1.83,1.979
		c-1.38,1.32-3.03,2.07-5.43,2.07c-3.69,0-6.81-2.97-6.81-8.189c0-5.34,2.819-8.22,6.899-8.22c4.47,0,6.63,3.63,6.63,7.89
		C376.427,404.511,376.367,405.021,376.337,405.352z M369.587,398.842c-2.07,0-3.33,1.439-3.6,3.959h7.319
		C373.158,400.642,372.137,398.842,369.587,398.842z"/>
	<path fill="#19152B" d="M392.957,405.352h-10.41c0.33,3.029,2.041,4.319,3.961,4.319c1.32,0,2.369-0.479,3.42-1.26l1.83,1.979
		c-1.381,1.32-3.03,2.07-5.43,2.07c-3.69,0-6.811-2.97-6.811-8.189c0-5.34,2.82-8.22,6.9-8.22c4.469,0,6.629,3.63,6.629,7.89
		C393.046,404.511,392.987,405.021,392.957,405.352z M386.207,398.842c-2.069,0-3.33,1.439-3.6,3.959h7.32
		C389.777,400.642,388.757,398.842,386.207,398.842z"/>
	<path fill="#19152B" d="M406.367,412.131v-1.5c-1.141,1.05-2.461,1.83-4.111,1.83c-3.389,0-6.059-2.46-6.059-8.46
		c0-5.399,2.939-7.949,6.209-7.949c1.59,0,3.09,0.84,3.961,1.8v-6l3.059-1.59v21.869H406.367z M406.396,400.972
		c-0.689-0.931-2.131-2.07-3.689-2.07c-2.221,0-3.42,1.68-3.42,5.01c0,3.96,1.26,5.7,3.539,5.7c1.471,0,2.76-0.99,3.57-2.011
		V400.972z"/>
	<path fill="#19152B" d="M426.677,405.352h-10.41c0.33,3.029,2.039,4.319,3.959,4.319c1.32,0,2.371-0.479,3.42-1.26l1.83,1.979
		c-1.379,1.32-3.029,2.07-5.43,2.07c-3.689,0-6.809-2.97-6.809-8.189c0-5.34,2.818-8.22,6.898-8.22c4.471,0,6.631,3.63,6.631,7.89
		C426.767,404.511,426.707,405.021,426.677,405.352z M419.927,398.842c-2.07,0-3.33,1.439-3.6,3.959h7.318
		C423.496,400.642,422.476,398.842,419.927,398.842z"/>
	<path fill="#19152B" d="M440.085,412.131v-1.5c-1.141,1.05-2.459,1.83-4.109,1.83c-3.391,0-6.061-2.46-6.061-8.46
		c0-5.399,2.941-7.949,6.211-7.949c1.59,0,3.09,0.84,3.959,1.8v-6l3.061-1.59v21.869H440.085z M440.115,400.972
		c-0.689-0.931-2.129-2.07-3.689-2.07c-2.219,0-3.42,1.68-3.42,5.01c0,3.96,1.26,5.7,3.541,5.7c1.469,0,2.76-0.99,3.568-2.011
		V400.972z"/>
</g>
<g enable-background="new    ">
	<path fill="#19152B" d="M100.162,447.741c-0.75,0.42-1.8,0.72-3.03,0.72c-2.19,0-3.54-1.35-3.54-4.17v-9.09h-2.25v-2.819h2.25v-4.5
		l3.03-1.62v6.12h3.9v2.819h-3.9v8.55c0,1.47,0.48,1.89,1.62,1.89c0.81,0,1.71-0.3,2.28-0.63L100.162,447.741z"/>
	<path fill="#19152B" d="M110.302,448.461c-3.959,0-6.93-3.27-6.93-8.189c0-5.16,3.06-8.22,7.02-8.22c4.02,0,7.02,3.21,7.02,8.13
		C117.412,445.401,114.352,448.461,110.302,448.461z M110.272,434.991c-2.34,0-3.78,2.07-3.78,5.19c0,3.449,1.59,5.339,3.93,5.339
		s3.87-2.369,3.87-5.249C114.292,437.062,112.762,434.991,110.272,434.991z"/>
	<path fill="#19152B" d="M134.422,453.921l-1.05-2.34c4.44-0.21,5.4-1.41,5.4-4.68v-0.271c-1.14,1.05-2.43,1.83-4.08,1.83
		c-3.36,0-6.06-2.46-6.06-8.46c0-5.399,2.97-7.949,6.21-7.949c1.59,0,3.09,0.84,3.93,1.8v-1.47h3.09v14.249
		C141.861,451.431,140.122,453.74,134.422,453.921z M138.832,436.972c-0.69-0.931-2.13-2.07-3.69-2.07c-2.22,0-3.42,1.68-3.42,5.01
		c0,3.96,1.26,5.7,3.54,5.7c1.47,0,2.76-0.99,3.57-2.011V436.972z"/>
	<path fill="#19152B" d="M154.971,435.651c-0.66-0.36-1.35-0.57-2.37-0.57c-1.95,0-3.09,1.38-3.09,4.05v9h-3.09v-15.749h3.09v1.5
		c0.72-1.051,2.04-1.83,3.6-1.83c1.26,0,2.04,0.239,2.67,0.66L154.971,435.651z"/>
	<path fill="#19152B" d="M164.391,448.461c-3.959,0-6.93-3.27-6.93-8.189c0-5.16,3.06-8.22,7.02-8.22c4.02,0,7.02,3.21,7.02,8.13
		C171.501,445.401,168.441,448.461,164.391,448.461z M164.361,434.991c-2.34,0-3.78,2.07-3.78,5.19c0,3.449,1.59,5.339,3.93,5.339
		s3.87-2.369,3.87-5.249C168.381,437.062,166.851,434.991,164.361,434.991z"/>
	<path fill="#19152B" d="M189.141,448.131h-2.64l-2.13-7.949c-0.33-1.2-0.66-2.61-0.81-3.36c-0.15,0.75-0.48,2.19-0.81,3.39
		l-2.1,7.92h-2.64l-4.319-15.749h3.06l1.86,7.649c0.3,1.2,0.63,2.7,0.78,3.45c0.18-0.78,0.54-2.221,0.87-3.45l2.1-7.649h2.49
		l2.13,7.68c0.33,1.229,0.66,2.64,0.84,3.42c0.18-0.78,0.48-2.25,0.78-3.45l1.86-7.649h3.06L189.141,448.131z"/>
	<path fill="#19152B" d="M214.131,448.131v-1.56c-1.08,1.079-2.61,1.89-4.32,1.89c-2.55,0-5.46-1.44-5.46-5.31
		c0-3.51,2.7-5.101,6.27-5.101c1.47,0,2.64,0.211,3.51,0.601v-1.17c0-1.71-1.05-2.67-2.97-2.67c-1.62,0-2.88,0.3-4.11,0.99
		l-1.2-2.34c1.5-0.931,3.18-1.41,5.4-1.41c3.51,0,5.91,1.71,5.91,5.279v10.8H214.131z M214.131,441.411
		c-0.84-0.42-1.92-0.69-3.6-0.69c-1.979,0-3.24,0.9-3.24,2.341c0,1.56,0.99,2.609,3.03,2.609c1.65,0,3.09-1.02,3.81-2.01V441.411z"
		/>
	<path fill="#19152B" d="M231.17,448.131v-8.909c0-3.181-1.2-4.32-3.24-4.32c-2.07,0-3.24,1.47-3.24,4.02v9.21h-3.09v-15.749h3.09
		v1.5c0.78-1.141,2.34-1.83,3.96-1.83c3.66,0,5.61,2.399,5.61,7.05v9.029H231.17z"/>
	<path fill="#19152B" d="M255.83,448.131v-1.56c-1.08,1.079-2.61,1.89-4.32,1.89c-2.55,0-5.46-1.44-5.46-5.31
		c0-3.51,2.7-5.101,6.27-5.101c1.47,0,2.64,0.211,3.51,0.601v-1.17c0-1.71-1.05-2.67-2.97-2.67c-1.62,0-2.88,0.3-4.11,0.99
		l-1.2-2.34c1.5-0.931,3.18-1.41,5.4-1.41c3.51,0,5.91,1.71,5.91,5.279v10.8H255.83z M255.83,441.411c-0.84-0.42-1.92-0.69-3.6-0.69
		c-1.979,0-3.24,0.9-3.24,2.341c0,1.56,0.99,2.609,3.03,2.609c1.65,0,3.09-1.02,3.81-2.01V441.411z"/>
	<path fill="#19152B" d="M273.2,436.911c-1.29-1.319-2.431-1.92-3.84-1.92c-2.25,0-3.69,2.01-3.69,5.22c0,3.09,1.32,5.31,3.78,5.31
		c1.47,0,2.34-0.659,3.569-1.949l1.98,1.949c-1.23,1.561-2.79,2.94-5.64,2.94c-3.84,0-6.81-3.24-6.81-8.16
		c0-5.22,3.06-8.249,6.9-8.249c2.31,0,4.11,0.93,5.579,2.67L273.2,436.911z"/>
	<path fill="#19152B" d="M287.509,435.651c-0.66-0.36-1.35-0.57-2.37-0.57c-1.95,0-3.09,1.38-3.09,4.05v9h-3.09v-15.749h3.09v1.5
		c0.72-1.051,2.04-1.83,3.601-1.83c1.26,0,2.039,0.239,2.67,0.66L287.509,435.651z"/>
	<path fill="#19152B" d="M303.439,441.352H293.03c0.329,3.029,2.04,4.319,3.96,4.319c1.319,0,2.369-0.479,3.42-1.26l1.83,1.979
		c-1.381,1.32-3.03,2.07-5.43,2.07c-3.69,0-6.811-2.97-6.811-8.189c0-5.34,2.82-8.22,6.9-8.22c4.469,0,6.629,3.63,6.629,7.89
		C303.529,440.511,303.469,441.021,303.439,441.352z M296.689,434.842c-2.069,0-3.33,1.439-3.6,3.959h7.32
		C300.259,436.642,299.24,434.842,296.689,434.842z"/>
	<path fill="#19152B" d="M321.648,448.461c-3.959,0-6.93-3.27-6.93-8.189c0-5.16,3.061-8.22,7.021-8.22c4.02,0,7.02,3.21,7.02,8.13
		C328.758,445.401,325.699,448.461,321.648,448.461z M321.619,434.991c-2.34,0-3.779,2.07-3.779,5.19c0,3.449,1.59,5.339,3.93,5.339
		s3.869-2.369,3.869-5.249C325.638,437.062,324.109,434.991,321.619,434.991z"/>
	<path fill="#19152B" d="M337.699,429.052c-1.02,0-1.439,0.39-1.439,1.53v1.8h2.909v2.88h-2.909v12.869h-3.09v-12.869h-2.041v-2.88
		h2.041v-2.07c0-2.88,1.77-3.96,3.989-3.96c0.81,0,1.68,0.12,2.34,0.3v2.7C338.779,429.142,338.239,429.052,337.699,429.052z"/>
	<path fill="#19152B" d="M360.978,436.911c-1.29-1.319-2.43-1.92-3.84-1.92c-2.25,0-3.689,2.01-3.689,5.22
		c0,3.09,1.319,5.31,3.779,5.31c1.47,0,2.34-0.659,3.57-1.949l1.979,1.949c-1.229,1.561-2.79,2.94-5.64,2.94
		c-3.84,0-6.811-3.24-6.811-8.16c0-5.22,3.061-8.249,6.9-8.249c2.311,0,4.109,0.93,5.58,2.67L360.978,436.911z"/>
	<path fill="#19152B" d="M372.408,448.461c-3.959,0-6.93-3.27-6.93-8.189c0-5.16,3.061-8.22,7.02-8.22c4.02,0,7.02,3.21,7.02,8.13
		C379.517,445.401,376.458,448.461,372.408,448.461z M372.378,434.991c-2.34,0-3.78,2.07-3.78,5.19c0,3.449,1.59,5.339,3.93,5.339
		s3.87-2.369,3.87-5.249C376.398,437.062,374.868,434.991,372.378,434.991z"/>
	<path fill="#19152B" d="M390.708,447.741c-0.75,0.42-1.801,0.72-3.03,0.72c-2.19,0-3.54-1.35-3.54-4.17v-9.09h-2.25v-2.819h2.25
		v-4.5l3.029-1.62v6.12h3.9v2.819h-3.9v8.55c0,1.47,0.48,1.89,1.621,1.89c0.81,0,1.709-0.3,2.279-0.63L390.708,447.741z"/>
	<path fill="#19152B" d="M402.348,447.741c-0.75,0.42-1.8,0.72-3.03,0.72c-2.189,0-3.539-1.35-3.539-4.17v-9.09h-2.25v-2.819h2.25
		v-4.5l3.029-1.62v6.12h3.9v2.819h-3.9v8.55c0,1.47,0.48,1.89,1.62,1.89c0.81,0,1.71-0.3,2.28-0.63L402.348,447.741z"/>
	<path fill="#19152B" d="M412.489,448.461c-3.96,0-6.93-3.27-6.93-8.189c0-5.16,3.06-8.22,7.02-8.22c4.02,0,7.02,3.21,7.02,8.13
		C419.598,445.401,416.539,448.461,412.489,448.461z M412.458,434.991c-2.34,0-3.78,2.07-3.78,5.19c0,3.449,1.59,5.339,3.931,5.339
		c2.34,0,3.869-2.369,3.869-5.249C416.478,437.062,414.949,434.991,412.458,434.991z"/>
	<path fill="#19152B" d="M432.978,448.131v-8.909c0-3.181-1.2-4.32-3.24-4.32c-2.069,0-3.239,1.47-3.239,4.02v9.21h-3.09v-15.749
		h3.09v1.5c0.779-1.141,2.34-1.83,3.96-1.83c3.659,0,5.609,2.399,5.609,7.05v9.029H432.978z"/>
</g>
<g enable-background="new    ">
	<path fill="#19152B" d="M248.582,290.136c-21.719,0-35.158-9.96-35.158-26.52c0-11.64,6.959-17.639,13.319-20.398
		c-6-3.24-9.72-8.521-9.72-14.76c0-16.56,13.919-24.959,31.559-24.959c16.56,0,31.558,7.8,31.558,24.239
		c0,5.999-3.239,11.879-9.719,15.479c6.479,2.999,13.319,8.879,13.319,19.559C283.741,279.696,270.301,290.136,248.582,290.136z
		 M248.582,251.377c-12.6,0-18.359,4.68-18.359,11.88c0,7.68,7.68,12.119,18.359,12.119c11.52,0,18.359-4.32,18.359-12
		S261.302,251.377,248.582,251.377z M248.582,218.019c-10.439,0-14.759,4.56-14.759,9.959c0,5.4,5.04,9.6,14.759,9.6
		c10.32,0,14.76-3.959,14.76-9.479C263.342,222.698,259.622,218.019,248.582,218.019z"/>
	<path fill="#19152B" d="M331.861,290.136c-22.918,0-35.158-17.76-35.158-43.318c0-25.56,12.359-43.318,35.279-43.318
		c22.918,0,35.277,17.52,35.277,43.078S354.781,290.136,331.861,290.136z M331.861,219.938c-12.839,0-18.119,11.64-18.119,26.639
		s5.4,27.119,18.24,27.119c12.839,0,18.238-11.88,18.238-26.879C350.22,231.817,344.701,219.938,331.861,219.938z"/>
	<path fill="#19152B" d="M414.419,290.136c-22.918,0-35.158-17.76-35.158-43.318c0-25.56,12.359-43.318,35.279-43.318
		c22.918,0,35.277,17.52,35.277,43.078S437.339,290.136,414.419,290.136z M414.419,219.938c-12.839,0-18.119,11.64-18.119,26.639
		s5.4,27.119,18.24,27.119c12.839,0,18.238-11.88,18.238-26.879C432.779,231.817,427.259,219.938,414.419,219.938z"/>
</g>
<g enable-background="new    ">
	<path fill="#19152B" d="M239.045,349.16c-1.15,0.899-3.2,1.6-5.35,1.6c-4.25,0-7-3.3-7-7.9v-12.4h-4.4v-6.501h4.4v-6.75l6.9-3.45
		v10.2h6.3v6.501h-6.3v10.551c0,2.5,0.9,3.149,2.55,3.149c1.25,0,2.2-0.55,3.9-2L239.045,349.16z"/>
	<path fill="#19152B" d="M262.344,350.21v-14.201c0-4.7-1.6-6.1-4.45-6.1s-4.5,1.399-4.5,5.95v14.351h-6.9v-33.002l6.9-3.45v11.95
		c1.2-1.25,3.4-2.3,6.15-2.3c6.701,0,9.701,4.601,9.701,12.001v14.801H262.344z"/>
	<path fill="#19152B" d="M286.195,350.76c-6.852,0-11.852-5.601-11.852-13.65c0-8.051,5-13.701,11.852-13.701
		c6.85,0,11.9,5.65,11.9,13.701C298.095,345.159,293.044,350.76,286.195,350.76z M286.195,330.059c-3.301,0-4.852,3-4.852,7.051
		c0,4.05,1.551,7,4.852,7c3.299,0,4.899-3.35,4.899-7C291.094,333.109,289.494,330.059,286.195,330.059z"/>
	<path fill="#19152B" d="M319.044,350.21v-1.75c-1.201,1.25-3.4,2.3-6.15,2.3c-6.701,0-9.701-4.6-9.701-12.001v-14.801h6.9v14.201
		c0,4.7,1.6,6.101,4.45,6.101s4.501-1.4,4.501-5.95v-14.352h6.9v26.252H319.044z"/>
	<path fill="#19152B" d="M342.694,350.76c-4.15,0-8.2-1.2-11.001-3.05l2.301-5.25c2.8,1.55,5.75,2.399,9.1,2.399
		c2.701,0,3.501-0.649,3.501-2c0-1.2-0.95-1.8-3.851-2.65c-6.301-1.899-10.351-3.45-10.351-9c0-5.45,4.351-7.801,10.501-7.801
		c3.3,0,6.9,1,9.7,2.55l-2.2,5.451c-2.6-1.4-5.45-2.101-7.65-2.101c-2.8,0-3.551,0.55-3.551,1.7c0,1.1,0.801,1.55,5.451,3.05
		c4.7,1.551,8.75,3.251,8.75,8.501C353.394,348.61,348.594,350.76,342.694,350.76z"/>
	<path fill="#19152B" d="M373.694,350.21v-1.75c-1.251,1.3-3.45,2.3-5.9,2.3c-4.9,0-9.801-3-9.801-9.351c0-5.8,4.7-8.7,10.651-8.7
		c2.399,0,3.949,0.5,5.05,1.05v-1.3c0-1.851-1.251-3.351-3.751-3.351c-3.149,0-4.8,0.45-7.199,1.75l-2.65-4.8
		c3.05-1.75,5.6-2.65,9.85-2.65c6.352,0,10.651,3.301,10.651,9.2v17.602H373.694z M373.694,339.209c-1.2-0.75-2.351-1.1-4.8-1.1
		c-2.602,0-4.001,1.2-4.001,3.3c0,1.851,1.05,3.5,4.001,3.5c2.25,0,4.05-1.149,4.8-2.399V339.209z"/>
	<path fill="#19152B" d="M402.894,350.21v-14.201c0-4.7-1.6-6.1-4.45-6.1s-4.501,1.399-4.501,5.95v14.351h-6.9v-26.252h6.9v1.75
		c1.201-1.25,3.4-2.3,6.15-2.3c6.701,0,9.701,4.601,9.701,12.001v14.801H402.894z"/>
	<path fill="#19152B" d="M430.644,350.21v-1.65c-1.301,1.15-3.051,2.2-5.551,2.2c-5.6,0-10.201-4.2-10.201-14.001
		c0-7.851,3.701-13.351,10.201-13.351c2.301,0,4.301,0.9,5.551,2.05v-8.25l6.9-3.45v36.452H430.644z M430.644,332.159
		c-1.051-1.45-2.65-2.25-4.65-2.25c-2.65,0-4.101,2.3-4.101,6.7c0,5.4,1.8,7.65,4.501,7.65c2.149,0,3.25-0.9,4.25-2.2V332.159z"/>
</g>
<g>
	<path fill="#19162B" d="M215.601,684.712c0,0-6.892-28.928,23.229-54.703c0,0,13.5,2.217,18.749-2.157
		c0,0,25.368,14.871,38.49,0.875c0,0,11.372-7.873,14.87-4.374c0,0-4.373-12.247-24.493-6.122c0,0-13.12,7.871-20.994-0.875
		c0,0,12.247-6.121,13.122-13.994c0,0,6.123-11.372,18.369-12.247c0,0-22.742-20.994-35.864,16.621c0,0-6.124,6.12-9.623-2.625
		c0,0,6.998-22.743-13.996-38.488c0,0,6.998,19.244,1.75,20.994c0,0-4.374,18.369,2.625,19.244l-5.249,5.248l-0.875,10.495
		c0,0-36.74,20.993-35.865,68.231C199.845,690.835,206.863,696.958,215.601,684.712z"/>
	<path fill="none" stroke="#19162B" stroke-width="3" stroke-miterlimit="10" d="M261.078,628.727c0,0,6.123,40.239,29.741,18.369
		l6.123-8.747c0,0,11.372,27.993,41.987,10.497c0,0,16.621-9.622,3.5-42.86c0,0,44.613-41.988-18.369-53.359
		c0,0,14.869-33.241-16.621-27.118c0,0-23.618-48.983-55.109,0.875c0,0-20.12-9.622-22.744,1.749c0,0-37.615-9.622-39.364,26.243
		c0,0-1.75,26.243,20.994,31.491c0,0-6.998,19.244,25.368,26.242"/>
</g>
</svg>
