<?xml version="1.0" encoding="utf-8"?>
<!-- Generator: Adobe Illustrator 15.1.0, SVG Export Plug-In . SVG Version: 6.00 Build 0)  -->
<!DOCTYPE svg PUBLIC "-//W3C//DTD SVG 1.1//EN" "http://www.w3.org/Graphics/SVG/1.1/DTD/svg11.dtd">
<svg version="1.1" id="Layer_1" xmlns="http://www.w3.org/2000/svg" xmlns:xlink="http://www.w3.org/1999/xlink" x="0px" y="0px"
	 width="536.378px" height="780.521px" viewBox="0 0 536.378 780.521" enable-background="new 0 0 536.378 780.521"
	 xml:space="preserve">
<rect x="32.689" y="390.261" fill="none" width="468" height="66.5"/>
<g enable-background="new    ">
	<path d="M85.501,412.131v-8.909c0-3.181-1.2-4.32-3.24-4.32c-2.07,0-3.24,1.47-3.24,4.02v9.21h-3.09v-15.749h3.09v1.5
		c0.78-1.141,2.34-1.83,3.96-1.83c3.66,0,5.61,2.399,5.61,7.05v9.029H85.501z"/>
	<path d="M102.481,412.131v-1.5c-0.78,1.14-2.34,1.83-3.96,1.83c-3.66,0-5.609-2.4-5.609-7.05v-9.029h3.09v8.909
		c0,3.18,1.2,4.32,3.24,4.32c2.07,0,3.24-1.471,3.24-4.021v-9.209h3.09v15.749H102.481z"/>
	<path d="M128.431,412.131v-8.909c0-3.181-0.99-4.32-3.03-4.32c-2.07,0-3.03,1.47-3.03,4.02v9.21h-3.09v-8.909
		c0-3.181-0.99-4.32-3.03-4.32c-2.07,0-3.03,1.47-3.03,4.02v9.21h-3.09v-15.749h3.09v1.5c0.78-1.141,2.13-1.83,3.75-1.83
		c2.13,0,3.48,0.81,4.32,2.31c1.14-1.41,2.37-2.31,4.83-2.31c3.66,0,5.4,2.399,5.4,7.05v9.029H128.431z"/>
	<path d="M142.981,412.461c-1.59,0-3.09-0.84-3.96-1.8v1.47h-3.06v-20.279l3.06-1.59v7.62c1.14-1.051,2.46-1.83,4.11-1.83
		c3.39,0,6.06,2.46,6.06,8.459C149.19,409.911,146.25,412.461,142.981,412.461z M142.561,398.901c-1.47,0-2.76,0.99-3.57,2.01v6.63
		c0.69,0.93,2.13,2.07,3.69,2.07c2.22,0,3.42-1.681,3.42-5.01C146.101,400.642,144.841,398.901,142.561,398.901z"/>
	<path d="M165.75,405.352h-10.41c0.33,3.029,2.04,4.319,3.96,4.319c1.32,0,2.37-0.479,3.42-1.26l1.83,1.979
		c-1.38,1.32-3.03,2.07-5.43,2.07c-3.69,0-6.81-2.97-6.81-8.189c0-5.34,2.82-8.22,6.9-8.22c4.47,0,6.63,3.63,6.63,7.89
		C165.84,404.511,165.78,405.021,165.75,405.352z M159,398.842c-2.07,0-3.33,1.439-3.6,3.959h7.32
		C162.57,400.642,161.55,398.842,159,398.842z"/>
	<path d="M178.23,399.651c-0.66-0.36-1.35-0.57-2.37-0.57c-1.95,0-3.09,1.38-3.09,4.05v9h-3.09v-15.749h3.09v1.5
		c0.72-1.051,2.04-1.83,3.6-1.83c1.26,0,2.04,0.239,2.67,0.66L178.23,399.651z"/>
	<path d="M196.5,412.461c-3.959,0-6.93-3.27-6.93-8.189c0-5.16,3.06-8.22,7.02-8.22c4.02,0,7.02,3.21,7.02,8.13
		C203.609,409.401,200.549,412.461,196.5,412.461z M196.47,398.991c-2.34,0-3.78,2.07-3.78,5.19c0,3.449,1.59,5.339,3.93,5.339
		s3.87-2.369,3.87-5.249C200.49,401.062,198.959,398.991,196.47,398.991z"/>
	<path d="M212.553,393.052c-1.02,0-1.44,0.39-1.44,1.53v1.8h2.91v2.88h-2.91v12.869h-3.09v-12.869h-2.04v-2.88h2.04v-2.07
		c0-2.88,1.77-3.96,3.99-3.96c0.81,0,1.68,0.12,2.34,0.3v2.7C213.632,393.142,213.092,393.052,212.553,393.052z"/>
	<path d="M231.033,417.921l-1.05-2.34c4.44-0.21,5.4-1.41,5.4-4.68v-0.271c-1.14,1.05-2.43,1.83-4.08,1.83
		c-3.36,0-6.06-2.46-6.06-8.46c0-5.399,2.97-7.949,6.21-7.949c1.59,0,3.09,0.84,3.93,1.8v-1.47h3.09v14.249
		C238.472,415.431,236.732,417.74,231.033,417.921z M235.442,400.972c-0.69-0.931-2.13-2.07-3.69-2.07c-2.22,0-3.42,1.68-3.42,5.01
		c0,3.96,1.26,5.7,3.54,5.7c1.47,0,2.76-0.99,3.57-2.011V400.972z"/>
	<path d="M252.062,412.131v-1.56c-1.08,1.079-2.61,1.89-4.32,1.89c-2.55,0-5.46-1.44-5.46-5.31c0-3.51,2.7-5.101,6.27-5.101
		c1.47,0,2.64,0.211,3.51,0.601v-1.17c0-1.71-1.05-2.67-2.97-2.67c-1.62,0-2.88,0.3-4.11,0.99l-1.2-2.34
		c1.5-0.931,3.18-1.41,5.4-1.41c3.51,0,5.91,1.71,5.91,5.279v10.8H252.062z M252.062,405.411c-0.84-0.42-1.92-0.69-3.6-0.69
		c-1.979,0-3.24,0.9-3.24,2.341c0,1.56,0.99,2.609,3.03,2.609c1.65,0,3.09-1.02,3.81-2.01V405.411z"/>
	<path d="M259.682,412.131v-20.249l3.09-1.62v21.869H259.682z"/>
	<path d="M267.632,412.131v-20.249l3.09-1.62v21.869H267.632z"/>
	<path d="M281.612,412.461c-3.96,0-6.93-3.27-6.93-8.189c0-5.16,3.06-8.22,7.021-8.22c4.02,0,7.02,3.21,7.02,8.13
		C288.722,409.401,285.662,412.461,281.612,412.461z M281.582,398.991c-2.34,0-3.779,2.07-3.779,5.19c0,3.449,1.59,5.339,3.93,5.339
		s3.87-2.369,3.87-5.249C285.602,401.062,284.072,398.991,281.582,398.991z"/>
	<path d="M302.101,412.131v-8.909c0-3.181-1.199-4.32-3.239-4.32c-2.07,0-3.24,1.47-3.24,4.02v9.21h-3.09v-15.749h3.09v1.5
		c0.78-1.141,2.34-1.83,3.96-1.83c3.66,0,5.609,2.399,5.609,7.05v9.029H302.101z"/>
	<path d="M314.732,412.461c-2.131,0-4.44-0.84-6.03-2.01l1.409-2.34c1.471,1.02,3.121,1.56,4.59,1.56c1.951,0,2.881-0.63,2.881-1.74
		c0-1.199-1.381-1.77-3.66-2.64c-3.391-1.32-4.62-2.46-4.62-4.949c0-2.82,2.22-4.29,5.37-4.29c1.98,0,3.93,0.72,5.34,1.739
		l-1.35,2.37c-1.291-0.899-2.58-1.35-4.08-1.35s-2.16,0.6-2.16,1.439c0,0.78,0.54,1.351,2.91,2.28c3.51,1.35,5.31,2.31,5.31,5.279
		C320.641,411.291,317.822,412.461,314.732,412.461z"/>
	<path d="M341.73,412.131v-1.56c-1.08,1.079-2.609,1.89-4.319,1.89c-2.55,0-5.46-1.44-5.46-5.31c0-3.51,2.7-5.101,6.27-5.101
		c1.471,0,2.641,0.211,3.51,0.601v-1.17c0-1.71-1.049-2.67-2.969-2.67c-1.621,0-2.881,0.3-4.11,0.99l-1.2-2.34
		c1.5-0.931,3.18-1.41,5.4-1.41c3.51,0,5.909,1.71,5.909,5.279v10.8H341.73z M341.73,405.411c-0.84-0.42-1.92-0.69-3.6-0.69
		c-1.979,0-3.24,0.9-3.24,2.341c0,1.56,0.99,2.609,3.03,2.609c1.649,0,3.09-1.02,3.81-2.01V405.411z"/>
	<path d="M358.771,412.131v-8.909c0-3.181-1.201-4.32-3.24-4.32c-2.07,0-3.24,1.47-3.24,4.02v9.21h-3.09v-15.749h3.09v1.5
		c0.78-1.141,2.34-1.83,3.96-1.83c3.659,0,5.61,2.399,5.61,7.05v9.029H358.771z"/>
	<path d="M383.429,412.131v-1.56c-1.08,1.079-2.609,1.89-4.319,1.89c-2.55,0-5.46-1.44-5.46-5.31c0-3.51,2.7-5.101,6.27-5.101
		c1.471,0,2.641,0.211,3.51,0.601v-1.17c0-1.71-1.049-2.67-2.969-2.67c-1.621,0-2.881,0.3-4.11,0.99l-1.2-2.34
		c1.5-0.931,3.18-1.41,5.4-1.41c3.51,0,5.909,1.71,5.909,5.279v10.8H383.429z M383.429,405.411c-0.84-0.42-1.92-0.69-3.6-0.69
		c-1.979,0-3.24,0.9-3.24,2.341c0,1.56,0.99,2.609,3.03,2.609c1.649,0,3.09-1.02,3.81-2.01V405.411z"/>
	<path d="M397.892,412.131h-3.09l-5.64-15.749h3.24l2.819,8.55c0.51,1.529,0.961,2.999,1.17,3.869c0.181-0.87,0.601-2.34,1.08-3.869
		l2.7-8.55h3.271L397.892,412.131z"/>
	<path d="M418.86,405.352h-10.409c0.33,3.029,2.039,4.319,3.959,4.319c1.32,0,2.371-0.479,3.42-1.26l1.83,1.979
		c-1.379,1.32-3.029,2.07-5.43,2.07c-3.689,0-6.81-2.97-6.81-8.189c0-5.34,2.819-8.22,6.899-8.22c4.471,0,6.631,3.63,6.631,7.89
		C418.951,404.511,418.89,405.021,418.86,405.352z M412.111,398.842c-2.07,0-3.33,1.439-3.601,3.959h7.319
		C415.68,400.642,414.66,398.842,412.111,398.842z"/>
	<path d="M431.339,399.651c-0.66-0.36-1.35-0.57-2.369-0.57c-1.95,0-3.09,1.38-3.09,4.05v9h-3.09v-15.749h3.09v1.5
		c0.72-1.051,2.039-1.83,3.6-1.83c1.26,0,2.04,0.239,2.67,0.66L431.339,399.651z"/>
	<path d="M443.312,412.131v-1.56c-1.08,1.079-2.609,1.89-4.319,1.89c-2.55,0-5.46-1.44-5.46-5.31c0-3.51,2.7-5.101,6.27-5.101
		c1.471,0,2.641,0.211,3.51,0.601v-1.17c0-1.71-1.049-2.67-2.969-2.67c-1.621,0-2.881,0.3-4.11,0.99l-1.2-2.34
		c1.5-0.931,3.18-1.41,5.4-1.41c3.51,0,5.909,1.71,5.909,5.279v10.8H443.312z M443.312,405.411c-0.84-0.42-1.92-0.69-3.6-0.69
		c-1.979,0-3.24,0.9-3.24,2.341c0,1.56,0.99,2.609,3.03,2.609c1.649,0,3.09-1.02,3.81-2.01V405.411z"/>
	<path d="M455.882,417.921l-1.051-2.34c4.44-0.21,5.4-1.41,5.4-4.68v-0.271c-1.141,1.05-2.43,1.83-4.08,1.83
		c-3.359,0-6.06-2.46-6.06-8.46c0-5.399,2.97-7.949,6.21-7.949c1.59,0,3.09,0.84,3.93,1.8v-1.47h3.09v14.249
		C463.322,415.431,461.582,417.74,455.882,417.921z M460.292,400.972c-0.69-0.931-2.131-2.07-3.69-2.07c-2.22,0-3.42,1.68-3.42,5.01
		c0,3.96,1.261,5.7,3.54,5.7c1.47,0,2.76-0.99,3.57-2.011V400.972z"/>
	<path d="M480.572,405.352h-10.409c0.329,3.029,2.04,4.319,3.96,4.319c1.319,0,2.369-0.479,3.42-1.26l1.83,1.979
		c-1.381,1.32-3.03,2.07-5.43,2.07c-3.69,0-6.811-2.97-6.811-8.189c0-5.34,2.82-8.22,6.9-8.22c4.469,0,6.629,3.63,6.629,7.89
		C480.662,404.511,480.602,405.021,480.572,405.352z M473.822,398.842c-2.069,0-3.33,1.439-3.6,3.959h7.32
		C477.392,400.642,476.373,398.842,473.822,398.842z"/>
</g>
<g enable-background="new    ">
	<path fill="#19162B" d="M54.212,448.461c-1.59,0-3.09-0.84-3.96-1.8v5.67l-3.06,1.59v-21.539h3.06v1.5
		c1.14-1.051,2.46-1.83,4.11-1.83c3.39,0,6.06,2.46,6.06,8.459C60.421,445.911,57.481,448.461,54.212,448.461z M53.792,434.901
		c-1.47,0-2.76,0.99-3.57,2.01v6.63c0.69,0.93,2.13,2.07,3.69,2.07c2.22,0,3.42-1.681,3.42-5.01
		C57.332,436.642,56.072,434.901,53.792,434.901z"/>
	<path fill="#19162B" d="M76.981,441.352h-10.41c0.33,3.029,2.04,4.319,3.96,4.319c1.32,0,2.37-0.479,3.42-1.26l1.83,1.979
		c-1.38,1.32-3.03,2.07-5.43,2.07c-3.69,0-6.81-2.97-6.81-8.189c0-5.34,2.82-8.22,6.9-8.22c4.47,0,6.63,3.63,6.63,7.89
		C77.071,440.511,77.011,441.021,76.981,441.352z M70.231,434.842c-2.07,0-3.33,1.439-3.6,3.959h7.32
		C73.801,436.642,72.781,434.842,70.231,434.842z"/>
	<path fill="#19162B" d="M89.461,435.651c-0.66-0.36-1.35-0.57-2.37-0.57c-1.95,0-3.09,1.38-3.09,4.05v9h-3.09v-15.749h3.09v1.5
		c0.72-1.051,2.04-1.83,3.6-1.83c1.26,0,2.04,0.239,2.67,0.66L89.461,435.651z"/>
	<path fill="#19162B" d="M97.951,448.461c-2.13,0-4.44-0.84-6.03-2.01l1.41-2.34c1.47,1.02,3.12,1.56,4.59,1.56
		c1.95,0,2.88-0.63,2.88-1.74c0-1.199-1.38-1.77-3.66-2.64c-3.39-1.32-4.62-2.46-4.62-4.949c0-2.82,2.22-4.29,5.37-4.29
		c1.98,0,3.93,0.72,5.34,1.739l-1.35,2.37c-1.29-0.899-2.58-1.35-4.08-1.35c-1.5,0-2.16,0.6-2.16,1.439c0,0.78,0.54,1.351,2.91,2.28
		c3.51,1.35,5.31,2.31,5.31,5.279C103.86,447.291,101.041,448.461,97.951,448.461z"/>
	<path fill="#19162B" d="M113.7,448.461c-3.959,0-6.93-3.27-6.93-8.189c0-5.16,3.06-8.22,7.02-8.22c4.02,0,7.02,3.21,7.02,8.13
		C120.81,445.401,117.75,448.461,113.7,448.461z M113.67,434.991c-2.34,0-3.78,2.07-3.78,5.19c0,3.449,1.59,5.339,3.93,5.339
		s3.87-2.369,3.87-5.249C117.69,437.062,116.16,434.991,113.67,434.991z"/>
	<path fill="#19162B" d="M134.189,448.131v-8.909c0-3.181-1.2-4.32-3.24-4.32c-2.07,0-3.24,1.47-3.24,4.02v9.21h-3.09v-15.749h3.09
		v1.5c0.78-1.141,2.34-1.83,3.96-1.83c3.66,0,5.61,2.399,5.61,7.05v9.029H134.189z"/>
	<path fill="#19162B" d="M159.299,448.131v-1.5c-1.14,1.05-2.459,1.83-4.109,1.83c-3.39,0-6.06-2.46-6.06-8.46
		c0-5.399,2.94-7.949,6.21-7.949c1.59,0,3.09,0.84,3.959,1.8v-6l3.06-1.59v21.869H159.299z M159.329,436.972
		c-0.69-0.931-2.13-2.07-3.69-2.07c-2.22,0-3.42,1.68-3.42,5.01c0,3.96,1.26,5.7,3.54,5.7c1.47,0,2.76-0.99,3.57-2.011V436.972z"/>
	<path fill="#19162B" d="M175.469,435.651c-0.66-0.36-1.35-0.57-2.37-0.57c-1.95,0-3.09,1.38-3.09,4.05v9h-3.09v-15.749h3.09v1.5
		c0.72-1.051,2.04-1.83,3.6-1.83c1.26,0,2.04,0.239,2.67,0.66L175.469,435.651z"/>
	<path fill="#19162B" d="M181.169,430.342c-1.11,0-2.01-0.9-2.01-1.98c0-1.109,0.9-2.01,2.01-2.01c1.08,0,1.98,0.9,1.98,2.01
		C183.149,429.441,182.249,430.342,181.169,430.342z M179.609,448.131v-15.749h3.09v15.749H179.609z"/>
	<path fill="#19162B" d="M196.979,448.131v-8.909c0-3.181-1.2-4.32-3.24-4.32c-2.07,0-3.24,1.47-3.24,4.02v9.21h-3.09v-15.749h3.09
		v1.5c0.78-1.141,2.34-1.83,3.96-1.83c3.66,0,5.61,2.399,5.61,7.05v9.029H196.979z"/>
	<path fill="#19162B" d="M213.479,448.131l-3.48-7.83l-2.4,3.181v4.649h-3.09v-20.249l3.09-1.62v9.93c0,0.96-0.03,2.58-0.03,3.359
		c0.42-0.63,1.23-1.829,1.74-2.579l3.27-4.59h3.51l-3.99,5.279l4.74,10.47H213.479z"/>
	<path fill="#19162B" d="M225.032,448.461c-2.13,0-4.44-0.84-6.03-2.01l1.41-2.34c1.47,1.02,3.12,1.56,4.59,1.56
		c1.95,0,2.88-0.63,2.88-1.74c0-1.199-1.38-1.77-3.66-2.64c-3.39-1.32-4.62-2.46-4.62-4.949c0-2.82,2.22-4.29,5.37-4.29
		c1.98,0,3.93,0.72,5.34,1.739l-1.35,2.37c-1.29-0.899-2.58-1.35-4.08-1.35c-1.5,0-2.16,0.6-2.16,1.439c0,0.78,0.54,1.351,2.91,2.28
		c3.51,1.35,5.31,2.31,5.31,5.279C230.941,447.291,228.122,448.461,225.032,448.461z"/>
	<path fill="#19162B" d="M244.711,430.342c-1.11,0-2.01-0.9-2.01-1.98c0-1.109,0.9-2.01,2.01-2.01c1.08,0,1.98,0.9,1.98,2.01
		C246.691,429.441,245.792,430.342,244.711,430.342z M243.151,448.131v-15.749h3.09v15.749H243.151z"/>
	<path fill="#19162B" d="M260.521,448.131v-8.909c0-3.181-1.2-4.32-3.24-4.32c-2.07,0-3.24,1.47-3.24,4.02v9.21h-3.09v-15.749h3.09
		v1.5c0.78-1.141,2.34-1.83,3.96-1.83c3.66,0,5.61,2.399,5.61,7.05v9.029H260.521z"/>
	<path fill="#19162B" d="M285.72,448.131v-8.909c0-3.181-1.199-4.32-3.239-4.32c-2.07,0-3.24,1.47-3.24,4.02v9.21h-3.09v-20.249
		l3.09-1.62v7.62c0.78-1.141,2.34-1.83,3.96-1.83c3.66,0,5.609,2.399,5.609,7.05v9.029H285.72z"/>
	<path fill="#19162B" d="M294.96,430.342c-1.109,0-2.01-0.9-2.01-1.98c0-1.109,0.9-2.01,2.01-2.01c1.08,0,1.98,0.9,1.98,2.01
		C296.941,429.441,296.041,430.342,294.96,430.342z M293.4,448.131v-15.749h3.09v15.749H293.4z"/>
	<path fill="#19162B" d="M306.3,448.461c-2.13,0-4.439-0.84-6.029-2.01l1.409-2.34c1.47,1.02,3.12,1.56,4.59,1.56
		c1.95,0,2.88-0.63,2.88-1.74c0-1.199-1.38-1.77-3.66-2.64c-3.39-1.32-4.619-2.46-4.619-4.949c0-2.82,2.22-4.29,5.369-4.29
		c1.98,0,3.93,0.72,5.34,1.739l-1.35,2.37c-1.29-0.899-2.58-1.35-4.08-1.35s-2.16,0.6-2.16,1.439c0,0.78,0.541,1.351,2.91,2.28
		c3.51,1.35,5.311,2.31,5.311,5.279C312.21,447.291,309.39,448.461,306.3,448.461z"/>
	<path fill="#19162B" d="M330.45,448.461c-3.96,0-6.93-3.27-6.93-8.189c0-5.16,3.06-8.22,7.021-8.22c4.02,0,7.02,3.21,7.02,8.13
		C337.56,445.401,334.5,448.461,330.45,448.461z M330.419,434.991c-2.34,0-3.779,2.07-3.779,5.19c0,3.449,1.59,5.339,3.93,5.339
		s3.87-2.369,3.87-5.249C334.44,437.062,332.91,434.991,330.419,434.991z"/>
	<path fill="#19162B" d="M349.919,435.651c-0.66-0.36-1.35-0.57-2.37-0.57c-1.95,0-3.09,1.38-3.09,4.05v9h-3.09v-15.749h3.09v1.5
		c0.72-1.051,2.04-1.83,3.601-1.83c1.26,0,2.039,0.239,2.67,0.66L349.919,435.651z"/>
	<path fill="#19162B" d="M371.58,448.131v-8.909c0-3.181-1.201-4.32-3.24-4.32c-2.07,0-3.24,1.47-3.24,4.02v9.21h-3.09v-20.249
		l3.09-1.62v7.62c0.78-1.141,2.34-1.83,3.96-1.83c3.659,0,5.61,2.399,5.61,7.05v9.029H371.58z"/>
	<path fill="#19162B" d="M391.798,441.352h-10.41c0.33,3.029,2.041,4.319,3.961,4.319c1.32,0,2.369-0.479,3.42-1.26l1.83,1.979
		c-1.381,1.32-3.03,2.07-5.43,2.07c-3.69,0-6.811-2.97-6.811-8.189c0-5.34,2.82-8.22,6.9-8.22c4.469,0,6.629,3.63,6.629,7.89
		C391.888,440.511,391.829,441.021,391.798,441.352z M385.048,434.842c-2.069,0-3.33,1.439-3.6,3.959h7.32
		C388.619,436.642,387.599,434.842,385.048,434.842z"/>
	<path fill="#19162B" d="M404.279,435.651c-0.66-0.36-1.351-0.57-2.371-0.57c-1.949,0-3.09,1.38-3.09,4.05v9h-3.09v-15.749h3.09v1.5
		c0.721-1.051,2.041-1.83,3.601-1.83c1.26,0,2.04,0.239,2.67,0.66L404.279,435.651z"/>
	<path fill="#19162B" d="M416.518,448.131v-20.249l3.091-1.62v21.869H416.518z"/>
	<path fill="#19162B" d="M426.029,430.342c-1.11,0-2.01-0.9-2.01-1.98c0-1.109,0.899-2.01,2.01-2.01c1.08,0,1.979,0.9,1.979,2.01
		C428.008,429.441,427.109,430.342,426.029,430.342z M424.468,448.131v-15.749h3.09v15.749H424.468z"/>
	<path fill="#19162B" d="M437.848,429.052c-1.021,0-1.44,0.39-1.44,1.53v1.8h2.91v2.88h-2.91v12.869h-3.09v-12.869h-2.039v-2.88
		h2.039v-2.07c0-2.88,1.77-3.96,3.99-3.96c0.811,0,1.68,0.12,2.34,0.3v2.7C438.927,429.142,438.388,429.052,437.848,429.052z"/>
	<path fill="#19162B" d="M455.159,441.352H444.75c0.33,3.029,2.039,4.319,3.959,4.319c1.32,0,2.371-0.479,3.42-1.26l1.83,1.979
		c-1.379,1.32-3.029,2.07-5.43,2.07c-3.689,0-6.81-2.97-6.81-8.189c0-5.34,2.819-8.22,6.899-8.22c4.471,0,6.631,3.63,6.631,7.89
		C455.25,440.511,455.189,441.021,455.159,441.352z M448.41,434.842c-2.07,0-3.33,1.439-3.601,3.959h7.319
		C451.979,436.642,450.958,434.842,448.41,434.842z"/>
	<path fill="#19162B" d="M466.376,447.741c-0.75,0.42-1.8,0.72-3.029,0.72c-2.19,0-3.541-1.35-3.541-4.17v-9.09h-2.25v-2.819h2.25
		v-4.5l3.03-1.62v6.12h3.899v2.819h-3.899v8.55c0,1.47,0.479,1.89,1.62,1.89c0.811,0,1.71-0.3,2.279-0.63L466.376,447.741z"/>
	<path fill="#19162B" d="M472.647,430.342c-1.11,0-2.01-0.9-2.01-1.98c0-1.109,0.899-2.01,2.01-2.01c1.08,0,1.979,0.9,1.979,2.01
		C474.626,429.441,473.727,430.342,472.647,430.342z M471.087,448.131v-15.749h3.09v15.749H471.087z"/>
	<path fill="#19162B" d="M497.186,448.131v-8.909c0-3.181-0.989-4.32-3.03-4.32c-2.069,0-3.029,1.47-3.029,4.02v9.21h-3.09v-8.909
		c0-3.181-0.99-4.32-3.029-4.32c-2.07,0-3.031,1.47-3.031,4.02v9.21h-3.09v-15.749h3.09v1.5c0.781-1.141,2.131-1.83,3.75-1.83
		c2.131,0,3.48,0.81,4.32,2.31c1.141-1.41,2.37-2.31,4.83-2.31c3.66,0,5.399,2.399,5.399,7.05v9.029H497.186z"/>
	<path fill="#19162B" d="M517.406,441.352h-10.408c0.329,3.029,2.039,4.319,3.959,4.319c1.32,0,2.37-0.479,3.42-1.26l1.83,1.979
		c-1.38,1.32-3.029,2.07-5.43,2.07c-3.689,0-6.811-2.97-6.811-8.189c0-5.34,2.82-8.22,6.9-8.22c4.47,0,6.63,3.63,6.63,7.89
		C517.497,440.511,517.437,441.021,517.406,441.352z M510.657,434.842c-2.069,0-3.33,1.439-3.601,3.959h7.32
		C514.226,436.642,513.207,434.842,510.657,434.842z"/>
</g>
<g>
	<path fill="#19162B" d="M208.331,613.545v67.512c-0.628,6.603-8.161,6.603-8.161,6.603c-6.594-0.945-7.855-6.285-7.855-6.285
		V566.45c-1.572-4.086-3.45,0-3.45,0v41.133c-0.633,5.025-6.288,5.025-6.288,5.025c-5.649-0.945-6.272-5.025-6.272-5.025V558.91
		c3.455-17.271,17.271-16.646,17.271-16.646h16.327h0.633h16.316c0,0,13.826-0.627,17.275,16.646v48.672c0,0-0.633,4.08-6.287,5.025
		c0,0-5.65,0-6.272-5.025v-41.133c0,0-1.888-4.086-3.46,0v114.92c0,0-1.256,5.34-7.845,6.285c0,0-7.543,0-8.155-6.603V613.54
		C212.107,613.545,210.375,609.621,208.331,613.545z"/>
	<path fill="#19162B" d="M223.718,523.744c0,7.104-5.764,12.877-12.876,12.877c-7.112,0-12.876-5.771-12.876-12.877
		c0-7.107,5.764-12.871,12.876-12.871C217.954,510.873,223.718,516.637,223.718,523.744z"/>
</g>
<path fill="#19162B" d="M279.468,549.275c0,0,53.674-16.812,107.348,1.627l-11.385,101.383
	c-51.309,15.146-84.094-1.205-84.094-1.205l-11.387-101.383 M337.728,562.336c0,0-29.99,32.422-26.18,57.906
	c0,0,2.947,18.377,21.854,18.377c0,0,20.109,1.822,21.666-23.271c0,0,0.352-10.528-9.361-25.793
	C345.707,589.555,338.08,578.287,337.728,562.336z"/>
<g enable-background="new    ">
	<path fill="#19162B" d="M239.489,288.815c0.48-28.799,18.119-41.278,38.639-50.278c7.2-3.119,9.479-6.479,9.479-10.079
		c0-4.32-3.72-8.52-13.799-8.52c-9.96,0-18,4.439-23.88,10.079l-10.799-12.6c8.879-8.999,20.759-13.919,34.079-13.919
		c19.919,0,31.198,8.039,31.198,24.119c0,13.56-7.319,19.439-21.599,26.039c-14.879,6.84-20.639,12.479-22.199,18.959h44.638v16.199
		H239.489z"/>
	<path fill="#19162B" d="M352.762,290.136c-22.919,0-35.158-17.76-35.158-43.318c0-25.56,12.359-43.318,35.278-43.318
		s35.278,17.52,35.278,43.078S375.681,290.136,352.762,290.136z M352.762,219.938c-12.839,0-18.119,11.64-18.119,26.639
		s5.399,27.119,18.239,27.119s18.239-11.88,18.239-26.879C371.122,231.817,365.602,219.938,352.762,219.938z"/>
</g>
<g enable-background="new    ">
	<path fill="#19162B" d="M222.09,349.16c-1.15,0.899-3.2,1.6-5.35,1.6c-4.25,0-7-3.3-7-7.9v-12.4h-4.4v-6.501h4.4v-6.75l6.9-3.45
		v10.2h6.3v6.501h-6.3v10.551c0,2.5,0.9,3.149,2.55,3.149c1.25,0,2.2-0.55,3.9-2L222.09,349.16z"/>
	<path fill="#19162B" d="M245.39,350.21v-14.201c0-4.7-1.6-6.1-4.45-6.1s-4.5,1.399-4.5,5.95v14.351h-6.9v-33.002l6.9-3.45v11.95
		c1.2-1.25,3.4-2.3,6.15-2.3c6.701,0,9.701,4.601,9.701,12.001v14.801H245.39z"/>
	<path fill="#19162B" d="M269.24,350.76c-6.851,0-11.851-5.601-11.851-13.65c0-8.051,5-13.701,11.851-13.701
		c6.85,0,11.9,5.65,11.9,13.701C281.14,345.159,276.089,350.76,269.24,350.76z M269.24,330.059c-3.3,0-4.851,3-4.851,7.051
		c0,4.05,1.55,7,4.851,7c3.3,0,4.9-3.35,4.9-7C274.14,333.109,272.54,330.059,269.24,330.059z"/>
	<path fill="#19162B" d="M302.089,350.21v-1.75c-1.2,1.25-3.4,2.3-6.15,2.3c-6.7,0-9.701-4.6-9.701-12.001v-14.801h6.9v14.201
		c0,4.7,1.601,6.101,4.451,6.101c2.85,0,4.5-1.4,4.5-5.95v-14.352h6.9v26.252H302.089z"/>
	<path fill="#19162B" d="M325.74,350.76c-4.15,0-8.201-1.2-11.001-3.05l2.3-5.25c2.801,1.55,5.75,2.399,9.101,2.399
		c2.7,0,3.501-0.649,3.501-2c0-1.2-0.951-1.8-3.852-2.65c-6.3-1.899-10.35-3.45-10.35-9c0-5.45,4.35-7.801,10.5-7.801
		c3.301,0,6.9,1,9.701,2.55l-2.201,5.451c-2.6-1.4-5.449-2.101-7.65-2.101c-2.799,0-3.55,0.55-3.55,1.7c0,1.1,0.8,1.55,5.45,3.05
		c4.701,1.551,8.751,3.251,8.751,8.501C336.44,348.61,331.64,350.76,325.74,350.76z"/>
	<path fill="#19162B" d="M356.732,350.21v-1.75c-1.25,1.3-3.449,2.3-5.9,2.3c-4.9,0-9.801-3-9.801-9.351c0-5.8,4.701-8.7,10.651-8.7
		c2.399,0,3.95,0.5,5.05,1.05v-1.3c0-1.851-1.25-3.351-3.75-3.351c-3.15,0-4.801,0.45-7.2,1.75l-2.65-4.8
		c3.05-1.75,5.601-2.65,9.851-2.65c6.351,0,10.65,3.301,10.65,9.2v17.602H356.732z M356.732,339.209c-1.199-0.75-2.35-1.1-4.8-1.1
		c-2.601,0-4.001,1.2-4.001,3.3c0,1.851,1.051,3.5,4.001,3.5c2.25,0,4.05-1.149,4.8-2.399V339.209z"/>
	<path fill="#19162B" d="M385.933,350.21v-14.201c0-4.7-1.601-6.1-4.451-6.1c-2.85,0-4.5,1.399-4.5,5.95v14.351h-6.9v-26.252h6.9
		v1.75c1.2-1.25,3.4-2.3,6.15-2.3c6.701,0,9.701,4.601,9.701,12.001v14.801H385.933z"/>
	<path fill="#19162B" d="M413.682,350.21v-1.65c-1.3,1.15-3.05,2.2-5.55,2.2c-5.601,0-10.201-4.2-10.201-14.001
		c0-7.851,3.7-13.351,10.201-13.351c2.3,0,4.3,0.9,5.55,2.05v-8.25l6.9-3.45v36.452H413.682z M413.682,332.159
		c-1.05-1.45-2.649-2.25-4.65-2.25c-2.649,0-4.101,2.3-4.101,6.7c0,5.4,1.801,7.65,4.501,7.65c2.149,0,3.25-0.9,4.25-2.2V332.159z"
		/>
</g>
</svg>
