<?xml version="1.0" encoding="utf-8"?>
<!-- Generator: Adobe Illustrator 15.1.0, SVG Export Plug-In . SVG Version: 6.00 Build 0)  -->
<!DOCTYPE svg PUBLIC "-//W3C//DTD SVG 1.1//EN" "http://www.w3.org/Graphics/SVG/1.1/DTD/svg11.dtd">
<svg version="1.1" id="Layer_1" xmlns="http://www.w3.org/2000/svg" xmlns:xlink="http://www.w3.org/1999/xlink" x="0px" y="0px"
	 width="536.379px" height="780.521px" viewBox="0 0 536.379 780.521" enable-background="new 0 0 536.379 780.521"
	 xml:space="preserve">
<rect x="56.69" y="386.761" fill="none" width="434" height="82"/>
<g enable-background="new    ">
	<path d="M106.304,406.443v-8.017c0-2.861-1.08-3.888-2.915-3.888c-1.863,0-2.916,1.323-2.916,3.617v8.287h-2.78v-14.171h2.78v1.35
		c0.702-1.026,2.105-1.646,3.563-1.646c3.293,0,5.048,2.159,5.048,6.343v8.125H106.304z"/>
	<path d="M121.585,406.443v-1.35c-0.702,1.025-2.105,1.646-3.563,1.646c-3.293,0-5.048-2.159-5.048-6.344v-8.124h2.78v8.017
		c0,2.861,1.08,3.887,2.916,3.887c1.862,0,2.915-1.322,2.915-3.617v-8.286h2.78v14.171H121.585z"/>
	<path d="M144.938,406.443v-8.017c0-2.861-0.891-3.888-2.726-3.888c-1.863,0-2.727,1.323-2.727,3.617v8.287h-2.78v-8.017
		c0-2.861-0.891-3.888-2.726-3.888c-1.863,0-2.727,1.323-2.727,3.617v8.287h-2.78v-14.171h2.78v1.35
		c0.702-1.026,1.917-1.646,3.374-1.646c1.917,0,3.131,0.729,3.887,2.078c1.026-1.269,2.132-2.078,4.346-2.078
		c3.293,0,4.859,2.159,4.859,6.343v8.125H144.938z"/>
	<path d="M158.036,406.74c-1.431,0-2.78-0.756-3.563-1.619v1.322h-2.753v-18.247l2.753-1.431v6.856
		c1.026-0.945,2.213-1.646,3.698-1.646c3.05,0,5.452,2.213,5.452,7.611C163.623,404.446,160.978,406.74,158.036,406.74z
		 M157.658,394.539c-1.323,0-2.483,0.892-3.212,1.809v5.966c0.621,0.837,1.917,1.862,3.32,1.862c1.998,0,3.077-1.512,3.077-4.508
		C160.843,396.105,159.709,394.539,157.658,394.539z"/>
	<path d="M178.527,400.343h-9.366c0.297,2.727,1.835,3.887,3.563,3.887c1.188,0,2.132-0.432,3.077-1.133l1.646,1.781
		c-1.242,1.188-2.726,1.862-4.886,1.862c-3.32,0-6.127-2.672-6.127-7.369c0-4.805,2.538-7.396,6.208-7.396
		c4.022,0,5.965,3.266,5.965,7.099C178.608,399.587,178.554,400.046,178.527,400.343z M172.454,394.485
		c-1.862,0-2.996,1.296-3.239,3.563h6.586C175.666,396.105,174.748,394.485,172.454,394.485z"/>
	<path d="M189.76,395.215c-0.594-0.324-1.215-0.514-2.133-0.514c-1.754,0-2.78,1.242-2.78,3.645v8.098h-2.78v-14.171h2.78v1.35
		c0.648-0.945,1.835-1.646,3.239-1.646c1.134,0,1.835,0.216,2.402,0.594L189.76,395.215z"/>
	<path d="M206.203,406.74c-3.563,0-6.235-2.942-6.235-7.369c0-4.643,2.753-7.396,6.316-7.396c3.617,0,6.316,2.888,6.316,7.314
		C212.6,403.987,209.847,406.74,206.203,406.74z M206.176,394.62c-2.105,0-3.401,1.863-3.401,4.67c0,3.104,1.43,4.805,3.536,4.805
		s3.482-2.132,3.482-4.724C209.793,396.483,208.416,394.62,206.176,394.62z"/>
	<path d="M220.648,389.276c-0.918,0-1.296,0.351-1.296,1.376v1.62h2.618v2.591h-2.618v11.58h-2.78v-11.58h-1.835v-2.591h1.835
		v-1.863c0-2.591,1.593-3.562,3.59-3.562c0.729,0,1.511,0.107,2.105,0.27v2.43C221.62,389.356,221.134,389.276,220.648,389.276z"/>
	<path d="M237.28,411.653l-0.945-2.105c3.995-0.189,4.859-1.269,4.859-4.211v-0.243c-1.026,0.944-2.187,1.646-3.671,1.646
		c-3.023,0-5.453-2.213-5.453-7.612c0-4.858,2.672-7.152,5.587-7.152c1.431,0,2.78,0.756,3.536,1.619v-1.322h2.78v12.821
		C243.974,409.412,242.409,411.491,237.28,411.653z M241.248,396.402c-0.621-0.837-1.917-1.863-3.32-1.863
		c-1.998,0-3.077,1.512-3.077,4.508c0,3.563,1.134,5.129,3.185,5.129c1.323,0,2.483-0.891,3.212-1.809V396.402z"/>
	<path d="M256.206,406.443v-1.403c-0.972,0.972-2.348,1.7-3.887,1.7c-2.294,0-4.913-1.296-4.913-4.777
		c0-3.158,2.43-4.589,5.642-4.589c1.323,0,2.375,0.188,3.158,0.54v-1.053c0-1.539-0.945-2.402-2.672-2.402
		c-1.458,0-2.591,0.27-3.698,0.891l-1.08-2.105c1.35-0.837,2.861-1.269,4.859-1.269c3.158,0,5.317,1.538,5.317,4.75v9.718H256.206z
		 M256.206,400.396c-0.756-0.377-1.728-0.62-3.239-0.62c-1.781,0-2.915,0.81-2.915,2.105c0,1.403,0.891,2.348,2.726,2.348
		c1.485,0,2.78-0.917,3.428-1.808V400.396z"/>
	<path d="M263.065,406.443v-18.22l2.78-1.458v19.678H263.065z"/>
	<path d="M270.221,406.443v-18.22l2.78-1.458v19.678H270.221z"/>
	<path d="M282.801,406.74c-3.562,0-6.235-2.942-6.235-7.369c0-4.643,2.753-7.396,6.316-7.396c3.617,0,6.316,2.888,6.316,7.314
		C289.198,403.987,286.445,406.74,282.801,406.74z M282.773,394.62c-2.105,0-3.4,1.863-3.4,4.67c0,3.104,1.431,4.805,3.535,4.805
		c2.105,0,3.482-2.132,3.482-4.724C286.391,396.483,285.014,394.62,282.773,394.62z"/>
	<path d="M301.24,406.443v-8.017c0-2.861-1.079-3.888-2.914-3.888c-1.863,0-2.916,1.323-2.916,3.617v8.287h-2.78v-14.171h2.78v1.35
		c0.702-1.026,2.105-1.646,3.562-1.646c3.294,0,5.049,2.159,5.049,6.343v8.125H301.24z"/>
	<path d="M312.609,406.74c-1.917,0-3.995-0.756-5.426-1.809l1.269-2.105c1.323,0.918,2.808,1.403,4.13,1.403
		c1.754,0,2.592-0.566,2.592-1.565c0-1.079-1.242-1.592-3.293-2.375c-3.051-1.188-4.158-2.214-4.158-4.454
		c0-2.537,1.998-3.859,4.832-3.859c1.781,0,3.536,0.647,4.805,1.565l-1.215,2.132c-1.16-0.81-2.32-1.214-3.67-1.214
		s-1.943,0.539-1.943,1.295c0,0.702,0.485,1.215,2.617,2.052c3.158,1.215,4.778,2.078,4.778,4.751
		C317.927,405.688,315.389,406.74,312.609,406.74z"/>
	<path d="M337.393,406.443v-8.017c0-2.861-1.079-3.888-2.914-3.888c-1.863,0-2.916,1.323-2.916,3.617v8.287h-2.78v-14.171h2.78v1.35
		c0.702-1.026,2.105-1.646,3.562-1.646c3.294,0,5.049,2.159,5.049,6.343v8.125H337.393z"/>
	<path d="M355.59,400.343h-9.366c0.297,2.727,1.835,3.887,3.563,3.887c1.188,0,2.132-0.432,3.076-1.133l1.646,1.781
		c-1.241,1.188-2.726,1.862-4.885,1.862c-3.32,0-6.128-2.672-6.128-7.369c0-4.805,2.538-7.396,6.208-7.396
		c4.022,0,5.966,3.266,5.966,7.099C355.671,399.587,355.617,400.046,355.59,400.343z M349.517,394.485
		c-1.862,0-2.996,1.296-3.239,3.563h6.586C352.729,396.105,351.811,394.485,349.517,394.485z"/>
	<path d="M370.548,400.343h-9.366c0.297,2.727,1.836,3.887,3.562,3.887c1.188,0,2.133-0.432,3.078-1.133l1.646,1.781
		c-1.242,1.188-2.727,1.862-4.887,1.862c-3.319,0-6.127-2.672-6.127-7.369c0-4.805,2.537-7.396,6.209-7.396
		c4.021,0,5.965,3.266,5.965,7.099C370.629,399.587,370.575,400.046,370.548,400.343z M364.475,394.485
		c-1.862,0-2.996,1.296-3.239,3.563h6.587C367.688,396.105,366.77,394.485,364.475,394.485z"/>
	<path d="M382.617,406.443v-1.35c-1.025,0.944-2.213,1.646-3.697,1.646c-3.051,0-5.453-2.213-5.453-7.612
		c0-4.858,2.645-7.152,5.588-7.152c1.43,0,2.779,0.756,3.562,1.619v-5.398l2.754-1.431v19.678H382.617z M382.645,396.402
		c-0.621-0.837-1.916-1.863-3.32-1.863c-1.998,0-3.077,1.512-3.077,4.508c0,3.563,1.134,5.129,3.185,5.129
		c1.323,0,2.484-0.891,3.213-1.809V396.402z"/>
	<path d="M400.895,400.343h-9.365c0.297,2.727,1.835,3.887,3.562,3.887c1.188,0,2.133-0.432,3.077-1.133l1.646,1.781
		c-1.241,1.188-2.726,1.862-4.886,1.862c-3.32,0-6.127-2.672-6.127-7.369c0-4.805,2.537-7.396,6.208-7.396
		c4.022,0,5.966,3.266,5.966,7.099C400.977,399.587,400.922,400.046,400.895,400.343z M394.822,394.485
		c-1.863,0-2.996,1.296-3.24,3.563h6.587C398.034,396.105,397.116,394.485,394.822,394.485z"/>
	<path d="M412.965,406.443v-1.35c-1.025,0.944-2.213,1.646-3.698,1.646c-3.05,0-5.452-2.213-5.452-7.612
		c0-4.858,2.646-7.152,5.588-7.152c1.431,0,2.78,0.756,3.562,1.619v-5.398l2.753-1.431v19.678H412.965z M412.992,396.402
		c-0.621-0.837-1.917-1.863-3.32-1.863c-1.997,0-3.077,1.512-3.077,4.508c0,3.563,1.134,5.129,3.186,5.129
		c1.322,0,2.482-0.891,3.212-1.809V396.402z"/>
	<path d="M433.889,406.093c-0.675,0.378-1.619,0.647-2.726,0.647c-1.971,0-3.186-1.215-3.186-3.752v-8.179h-2.024v-2.537h2.024
		v-4.049l2.727-1.458v5.507h3.509v2.537h-3.509v7.692c0,1.323,0.432,1.701,1.457,1.701c0.729,0,1.539-0.271,2.052-0.567
		L433.889,406.093z"/>
	<path d="M443.017,406.74c-3.563,0-6.235-2.942-6.235-7.369c0-4.643,2.753-7.396,6.316-7.396c3.616,0,6.315,2.888,6.315,7.314
		C449.413,403.987,446.66,406.74,443.017,406.74z M442.989,394.62c-2.105,0-3.401,1.863-3.401,4.67c0,3.104,1.431,4.805,3.536,4.805
		s3.482-2.132,3.482-4.724C446.606,396.483,445.229,394.62,442.989,394.62z"/>
</g>
<g enable-background="new    ">
	<path fill="#19152B" d="M100.864,421.677c-0.918,0-1.296,0.351-1.296,1.376v1.62h2.618v2.591h-2.618v11.58h-2.78v-11.58h-1.835
		v-2.591h1.835v-1.863c0-2.591,1.593-3.562,3.59-3.562c0.729,0,1.511,0.107,2.105,0.27v2.43
		C101.835,421.757,101.35,421.677,100.864,421.677z M106.964,422.837c-0.999,0-1.809-0.81-1.809-1.781
		c0-0.999,0.81-1.809,1.809-1.809c0.972,0,1.782,0.81,1.782,1.809C108.746,422.027,107.936,422.837,106.964,422.837z
		 M105.561,438.844v-14.171h2.78v14.171H105.561z"/>
	<path fill="#19152B" d="M112.718,438.844v-18.22l2.78-1.458v19.678H112.718z"/>
	<path fill="#19152B" d="M119.873,438.844v-18.22l2.78-1.458v19.678H119.873z"/>
	<path fill="#19152B" d="M140.958,438.493c-0.675,0.378-1.62,0.647-2.726,0.647c-1.971,0-3.186-1.215-3.186-3.752v-8.179h-2.024
		v-2.537h2.024v-4.049l2.727-1.458v5.507h3.509v2.537h-3.509v7.692c0,1.323,0.432,1.701,1.458,1.701
		c0.729,0,1.539-0.271,2.051-0.567L140.958,438.493z"/>
	<path fill="#19152B" d="M153.674,438.844v-8.017c0-2.861-1.08-3.888-2.915-3.888c-1.863,0-2.916,1.323-2.916,3.617v8.287h-2.78
		v-18.22l2.78-1.458v6.856c0.702-1.026,2.105-1.646,3.563-1.646c3.293,0,5.048,2.159,5.048,6.343v8.125H153.674z"/>
	<path fill="#19152B" d="M171.871,432.743h-9.366c0.297,2.727,1.835,3.887,3.563,3.887c1.188,0,2.132-0.432,3.077-1.133l1.646,1.781
		c-1.242,1.188-2.726,1.862-4.886,1.862c-3.32,0-6.127-2.672-6.127-7.369c0-4.805,2.538-7.396,6.208-7.396
		c4.022,0,5.965,3.266,5.965,7.099C171.952,431.987,171.898,432.446,171.871,432.743z M165.798,426.886
		c-1.862,0-2.996,1.296-3.239,3.563h6.586C169.01,428.506,168.092,426.886,165.798,426.886z"/>
	<path fill="#19152B" d="M183.105,438.844v-18.895h12.173v2.753h-9.339v4.67h5.426v2.753h-5.426v5.966h9.745v2.753H183.105z"/>
	<path fill="#19152B" d="M215.771,438.844v-8.017c0-2.861-0.891-3.888-2.726-3.888c-1.863,0-2.727,1.323-2.727,3.617v8.287h-2.78
		v-8.017c0-2.861-0.891-3.888-2.726-3.888c-1.863,0-2.727,1.323-2.727,3.617v8.287h-2.78v-14.171h2.78v1.35
		c0.702-1.026,1.917-1.646,3.374-1.646c1.917,0,3.131,0.729,3.887,2.078c1.026-1.269,2.132-2.078,4.346-2.078
		c3.293,0,4.859,2.159,4.859,6.343v8.125H215.771z"/>
	<path fill="#19152B" d="M228.868,439.141c-1.431,0-2.78-0.756-3.563-1.619v5.102l-2.753,1.431v-19.381h2.753v1.35
		c1.026-0.945,2.213-1.646,3.698-1.646c3.05,0,5.452,2.213,5.452,7.611C234.456,436.847,231.811,439.141,228.868,439.141z
		 M228.49,426.939c-1.323,0-2.483,0.892-3.212,1.809v5.966c0.621,0.837,1.917,1.862,3.32,1.862c1.998,0,3.077-1.512,3.077-4.508
		C231.675,428.506,230.542,426.939,228.49,426.939z"/>
	<path fill="#19152B" d="M239.48,422.837c-0.999,0-1.808-0.81-1.808-1.781c0-0.999,0.81-1.809,1.808-1.809
		c0.972,0,1.782,0.81,1.782,1.809C241.262,422.027,240.453,422.837,239.48,422.837z M238.077,438.844v-14.171h2.78v14.171H238.077z"
		/>
	<path fill="#19152B" d="M252.79,427.615c-0.594-0.324-1.215-0.514-2.133-0.514c-1.754,0-2.78,1.242-2.78,3.645v8.098h-2.78v-14.171
		h2.78v1.35c0.648-0.945,1.835-1.646,3.239-1.646c1.134,0,1.835,0.216,2.402,0.594L252.79,427.615z"/>
	<path fill="#19152B" d="M267.126,432.743h-9.366c0.297,2.727,1.835,3.887,3.563,3.887c1.188,0,2.132-0.432,3.077-1.133l1.646,1.781
		c-1.242,1.188-2.726,1.862-4.886,1.862c-3.32,0-6.127-2.672-6.127-7.369c0-4.805,2.538-7.396,6.208-7.396
		c4.022,0,5.965,3.266,5.965,7.099C267.207,431.987,267.153,432.446,267.126,432.743z M261.053,426.886
		c-1.862,0-2.996,1.296-3.239,3.563h6.586C264.265,428.506,263.347,426.886,261.053,426.886z"/>
	<path fill="#19152B" d="M284.029,439.141c-2.754,0-5.129-1.188-6.722-3.05l2.024-1.971c1.269,1.377,3.131,2.24,4.912,2.24
		c2.646,0,3.914-0.918,3.914-2.753c0-1.458-1.106-2.187-4.265-3.132c-3.995-1.188-5.911-2.186-5.911-5.561
		c0-3.266,2.753-5.263,6.235-5.263c2.563,0,4.508,0.944,6.181,2.563l-1.997,2.024c-1.188-1.214-2.537-1.809-4.399-1.809
		c-2.214,0-3.158,1.08-3.158,2.349c0,1.323,0.863,1.971,4.129,2.942c3.726,1.134,6.047,2.321,6.047,5.695
		C291.02,436.819,288.86,439.141,284.029,439.141z"/>
	<path fill="#19152B" d="M301.228,438.493c-0.675,0.378-1.62,0.647-2.726,0.647c-1.971,0-3.186-1.215-3.186-3.752v-8.179h-2.025
		v-2.537h2.025v-4.049l2.727-1.458v5.507h3.508v2.537h-3.508v7.692c0,1.323,0.432,1.701,1.457,1.701
		c0.729,0,1.539-0.271,2.051-0.567L301.228,438.493z"/>
	<path fill="#19152B" d="M313.053,438.844v-1.403c-0.972,0.972-2.348,1.7-3.887,1.7c-2.295,0-4.913-1.296-4.913-4.777
		c0-3.158,2.43-4.589,5.642-4.589c1.322,0,2.375,0.188,3.158,0.54v-1.053c0-1.539-0.945-2.402-2.672-2.402
		c-1.458,0-2.592,0.27-3.698,0.891l-1.08-2.105c1.35-0.837,2.861-1.269,4.858-1.269c3.158,0,5.318,1.538,5.318,4.75v9.718H313.053z
		 M313.053,432.797c-0.756-0.377-1.728-0.62-3.239-0.62c-1.781,0-2.915,0.81-2.915,2.105c0,1.403,0.891,2.348,2.727,2.348
		c1.484,0,2.779-0.917,3.428-1.808V432.797z"/>
	<path fill="#19152B" d="M326.553,438.493c-0.674,0.378-1.619,0.647-2.726,0.647c-1.971,0-3.186-1.215-3.186-3.752v-8.179h-2.024
		v-2.537h2.024v-4.049l2.727-1.458v5.507h3.509v2.537h-3.509v7.692c0,1.323,0.432,1.701,1.458,1.701
		c0.729,0,1.538-0.271,2.051-0.567L326.553,438.493z"/>
	<path fill="#19152B" d="M341.537,432.743h-9.366c0.297,2.727,1.835,3.887,3.563,3.887c1.188,0,2.132-0.432,3.076-1.133l1.646,1.781
		c-1.241,1.188-2.726,1.862-4.885,1.862c-3.32,0-6.128-2.672-6.128-7.369c0-4.805,2.538-7.396,6.208-7.396
		c4.022,0,5.966,3.266,5.966,7.099C341.618,431.987,341.564,432.446,341.537,432.743z M335.464,426.886
		c-1.862,0-2.996,1.296-3.239,3.563h6.586C338.676,428.506,337.758,426.886,335.464,426.886z"/>
	<path fill="#19152B" d="M360.275,438.844h-7.504v-18.895h7.773c3.293,0,5.426,1.728,5.426,4.912c0,1.917-1.025,3.104-2.402,3.779
		c1.484,0.404,3.186,1.781,3.186,4.399C366.754,436.873,364.405,438.844,360.275,438.844z M360.518,422.54h-5.074v4.886h5.074
		c1.863,0,2.619-1.161,2.619-2.402C363.137,423.62,362.408,422.54,360.518,422.54z M360.572,429.99h-5.129v6.262h5.048
		c2.511,0,3.429-1.269,3.429-3.131C363.92,431.178,362.705,429.99,360.572,429.99z"/>
	<path fill="#19152B" d="M378.824,438.844v-1.35c-0.701,1.025-2.105,1.646-3.562,1.646c-3.293,0-5.049-2.159-5.049-6.344v-8.124
		h2.781v8.017c0,2.861,1.079,3.887,2.915,3.887c1.862,0,2.915-1.322,2.915-3.617v-8.286h2.78v14.171H378.824z"/>
	<path fill="#19152B" d="M387.25,422.837c-0.999,0-1.809-0.81-1.809-1.781c0-0.999,0.81-1.809,1.809-1.809
		c0.972,0,1.781,0.81,1.781,1.809C389.031,422.027,388.222,422.837,387.25,422.837z M385.846,438.844v-14.171h2.781v14.171H385.846z
		"/>
	<path fill="#19152B" d="M393.001,438.844v-18.22l2.78-1.458v19.678H393.001z"/>
	<path fill="#19152B" d="M408.551,438.844v-1.35c-1.025,0.944-2.213,1.646-3.699,1.646c-3.049,0-5.451-2.213-5.451-7.612
		c0-4.858,2.645-7.152,5.588-7.152c1.43,0,2.779,0.756,3.562,1.619v-5.398l2.752-1.431v19.678H408.551z M408.578,428.803
		c-0.621-0.837-1.918-1.863-3.32-1.863c-1.998,0-3.078,1.512-3.078,4.508c0,3.563,1.135,5.129,3.186,5.129
		c1.322,0,2.482-0.891,3.213-1.809V428.803z"/>
	<path fill="#19152B" d="M416.949,422.837c-1,0-1.809-0.81-1.809-1.781c0-0.999,0.809-1.809,1.809-1.809
		c0.971,0,1.781,0.81,1.781,1.809C418.73,422.027,417.92,422.837,416.949,422.837z M415.545,438.844v-14.171h2.781v14.171H415.545z"
		/>
	<path fill="#19152B" d="M431.176,438.844v-8.017c0-2.861-1.08-3.888-2.914-3.888c-1.863,0-2.916,1.323-2.916,3.617v8.287h-2.779
		v-14.171h2.779v1.35c0.701-1.026,2.105-1.646,3.562-1.646c3.293,0,5.049,2.159,5.049,6.343v8.125H431.176z"/>
	<path fill="#19152B" d="M442.545,444.054l-0.945-2.105c3.994-0.189,4.857-1.269,4.857-4.211v-0.243
		c-1.025,0.944-2.186,1.646-3.67,1.646c-3.023,0-5.453-2.213-5.453-7.612c0-4.858,2.672-7.152,5.588-7.152
		c1.432,0,2.781,0.756,3.535,1.619v-1.322h2.781v12.821C449.238,441.812,447.672,443.892,442.545,444.054z M446.512,428.803
		c-0.621-0.837-1.916-1.863-3.32-1.863c-1.996,0-3.076,1.512-3.076,4.508c0,3.563,1.133,5.129,3.186,5.129
		c1.322,0,2.482-0.891,3.211-1.809V428.803z"/>
</g>
<g enable-background="new    ">
	<path fill="#19152B" d="M203.129,288.815c0.48-28.799,18.119-41.278,38.639-50.278c7.2-3.119,9.479-6.479,9.479-10.079
		c0-4.32-3.72-8.52-13.799-8.52c-9.959,0-18,4.439-23.879,10.079l-10.799-12.6c8.879-8.999,20.759-13.919,34.079-13.919
		c19.919,0,31.199,8.039,31.199,24.119c0,13.56-7.32,19.439-21.599,26.039c-14.879,6.84-20.639,12.479-22.199,18.959h44.639v16.199
		H203.129z"/>
	<path fill="#19152B" d="M314.85,288.815H297.69c0-27.239,9.119-50.158,24.719-68.037h-42.718v-15.959h62.997v16.199
		C325.648,237.697,314.85,259.776,314.85,288.815z"/>
	<path fill="#19152B" d="M380.73,290.136c-18.72,0-33.359-10.439-33.359-33.959c0-22.079,12.959-52.678,56.518-52.678v16.319
		c-19.439,0-31.799,6.84-36.598,19.679c5.399-3.6,10.679-5.279,19.199-5.279c16.679,0,29.639,8.52,29.639,27.119
		C416.129,280.056,400.529,290.136,380.73,290.136z M382.29,249.457c-11.399,0-17.52,3.84-17.52,12.6
		c0,7.8,5.76,12.479,16.679,12.479c11.16,0,17.64-4.8,17.64-12.6C399.089,253.417,392.85,249.457,382.29,249.457z"/>
</g>
<g enable-background="new    ">
	<path fill="#19152B" d="M269.541,350.21v-14.201c0-4.7-1.35-6.1-4.2-6.1c-2.851,0-4.25,1.399-4.25,5.95v14.351h-6.9v-14.201
		c0-4.7-1.35-6.1-4.2-6.1s-4.25,1.399-4.25,5.95v14.351h-6.9v-26.252h6.9v1.75c1.2-1.25,3-2.3,5.75-2.3c3.35,0,5.3,0.95,7.25,3.351
		c1.8-1.851,4-3.351,8.351-3.351c6.7,0,9.351,4.601,9.351,12.001v14.801H269.541z"/>
	<path fill="#19152B" d="M286.589,321.809c-2.149,0-3.95-1.801-3.95-3.95c0-2.15,1.801-3.95,3.95-3.95c2.15,0,3.95,1.8,3.95,3.95
		C290.539,320.008,288.739,321.809,286.589,321.809z M283.139,350.21v-26.252h6.9v26.252H283.139z"/>
	<path fill="#19152B" d="M297.238,350.21v-33.002l6.9-3.45v36.452H297.238z"/>
	<path fill="#19152B" d="M311.338,350.21v-33.002l6.9-3.45v36.452H311.338z"/>
	<path fill="#19152B" d="M328.889,321.809c-2.15,0-3.95-1.801-3.95-3.95c0-2.15,1.8-3.95,3.95-3.95s3.95,1.8,3.95,3.95
		C332.839,320.008,331.039,321.809,328.889,321.809z M325.438,350.21v-26.252h6.9v26.252H325.438z"/>
	<path fill="#19152B" d="M349.789,350.76c-6.851,0-11.852-5.601-11.852-13.65c0-8.051,5.001-13.701,11.852-13.701
		c6.85,0,11.9,5.65,11.9,13.701C361.689,345.159,356.639,350.76,349.789,350.76z M349.789,330.059c-3.301,0-4.851,3-4.851,7.051
		c0,4.05,1.55,7,4.851,7c3.3,0,4.9-3.35,4.9-7C354.689,333.109,353.089,330.059,349.789,330.059z"/>
	<path fill="#19152B" d="M382.889,350.21v-14.201c0-4.7-1.6-6.1-4.449-6.1c-2.851,0-4.501,1.399-4.501,5.95v14.351h-6.9v-26.252h6.9
		v1.75c1.2-1.25,3.4-2.3,6.15-2.3c6.7,0,9.7,4.601,9.7,12.001v14.801H382.889z"/>
</g>
<g>
	<polygon fill="#19152B" points="269.077,452.761 270.835,454.523 270.835,470.997 272.311,470.997 272.311,475.991 
		272.311,482.169 273.781,482.169 273.781,485.407 275.838,485.407 275.838,489.821 279.962,489.821 279.962,495.403 
		282.016,495.403 282.016,512.173 284.956,512.173 284.956,535.702 286.721,535.702 286.721,645.121 289.958,645.121 
		289.958,658.646 291.134,658.646 291.134,669.239 298.488,669.239 298.488,708.354 311.723,708.354 311.723,722.473 
		224.656,722.473 224.656,708.354 237.891,708.354 237.891,669.239 245.244,669.239 245.244,658.646 246.421,658.646 
		246.421,645.114 249.666,645.114 249.666,535.702 251.423,535.702 251.423,512.173 254.37,512.173 254.37,495.403 256.425,495.403 
		256.425,489.821 260.549,489.821 260.549,485.407 262.604,485.407 262.604,482.169 264.075,482.169 264.075,475.991 
		264.075,470.997 265.542,470.997 265.542,454.523 267.308,452.761 	"/>
</g>
</svg>
