<?xml version="1.0" encoding="utf-8"?>
<!-- Generator: Adobe Illustrator 15.1.0, SVG Export Plug-In . SVG Version: 6.00 Build 0)  -->
<!DOCTYPE svg PUBLIC "-//W3C//DTD SVG 1.1//EN" "http://www.w3.org/Graphics/SVG/1.1/DTD/svg11.dtd">
<svg version="1.1" id="Layer_1" xmlns="http://www.w3.org/2000/svg" xmlns:xlink="http://www.w3.org/1999/xlink" x="0px" y="0px"
	 width="536.378px" height="780.521px" viewBox="0 0 536.378 780.521" enable-background="new 0 0 536.378 780.521"
	 xml:space="preserve">
<g>
	<g>
		<path fill="#6ABCC3" d="M329.795,47.392l-2.106,10.53c18.959,9.479,17.903,17.903,17.903,17.903
			c20.01,5.263,109.521,70.558,109.521,70.558c43.176,28.433,43.176,48.442,43.176,48.442
			c50.553,211.678,34.752,419.134,34.752,419.134c-26.328,106.364-67.396,119.005-67.396,119.005
			C434.049,754.024,330.852,779.3,330.852,779.3c-36.861,7.373-57.922-21.062-57.922-21.062c-20.01-28.435-41.069,0-41.069,0
			c-16.853,31.595-57.922,15.798-57.922,15.798c-17.903-3.157-101.101-38.964-101.101-38.964
			c-61.081-27.384-73.72-130.586-73.72-130.586c-1.052-20.011,5.267-153.751,5.267-153.751
			C9.3,427.212,71.786,135.853,71.786,135.853c12.635-31.595,121.105-69.508,121.105-69.508v-5.267
			c7.373-1.051,12.637-6.318,12.637-6.318l1.055-4.212l-3.161-6.318l8.424-12.636l2.175-18.333l100.026,15.161L329.795,47.392z
			 M162.352,163.23c0,0-30.543-35.806-51.604,10.534c0,0-23.17,112.683-9.479,171.655c0,0,5.267,15.797,15.798,7.373l11.584-4.212
			C128.651,348.581,138.13,358.056,162.352,163.23z"/>
	</g>
	<path fill="#19152B" d="M209.215,35.279c0,0,45.303,0.528,111.104,0.528V0H211.368L209.215,35.279z"/>
</g>
<rect x="32.689" y="381.761" fill="none" width="468" height="82"/>
<text transform="matrix(1 0 0 1 146.2827 402.9014)"><tspan x="0" y="0" font-family="'Interstate-Regular'" font-size="29">number of gallons</tspan><tspan x="-70.439" y="34.8" font-family="'Interstate-Regular'" font-size="29"> in a fire engine’s water tank</tspan></text>
<text transform="matrix(1 0 0 1 183.4902 313.1523)" font-family="'Interstate-Bold'" font-size="110">1,000 </text>
<rect x="-19.884" y="411.235" fill="none" width="587.719" height="32.22"/>
<g>
	<path fill="#19162B" d="M305.059,554.959l-1.054-37.925h-15.803l-15.802,38.979H133.354l-10.536,50.566h-8.427v13.695l28.443,1.048
		c0,0,6.326-32.651,32.658-29.491c0,0,27.377-3.16,32.65,30.549h138.001c0,0,5.256-33.716,32.649-29.498c0,0,26.338,0,32.656,28.44
		h10.537v-9.48l-4.213-5.263V570.76l-49.51-14.747l-11.594-34.76l-7.369-1.058l10.529,36.874l-9.479,16.853l-9.481-3.162
		l-7.369-24.229c0,0-12.641-11.582-12.641,0l-5.27,11.589L305.059,554.959z"/>
	<path fill="#19162B" d="M331.654,536.788l2.373-8.691l6.32-3.159l-7.111-1.58c0,0-9.482-11.852-15.802,3.95l-5.531,9.48l4.742-1.58
		C316.646,535.208,318.226,540.738,331.654,536.788z"/>
	<line fill="none" stroke="#19162B" stroke-width="3" stroke-miterlimit="10" x1="266.872" y1="542.318" x2="126.24" y2="542.318"/>
	
		<line fill="none" stroke="#19162B" stroke-width="3" stroke-miterlimit="10" x1="266.079" y1="516.248" x2="125.452" y2="516.248"/>
	
		<line fill="none" stroke="#19162B" stroke-width="3" stroke-miterlimit="10" x1="137.301" y1="543.109" x2="137.301" y2="518.616"/>
	<line fill="none" stroke="#19162B" stroke-width="3" stroke-miterlimit="10" x1="157.055" y1="541.53" x2="157.055" y2="517.034"/>
	
		<line fill="none" stroke="#19162B" stroke-width="3" stroke-miterlimit="10" x1="176.806" y1="543.109" x2="176.806" y2="518.616"/>
	
		<line fill="none" stroke="#19162B" stroke-width="3" stroke-miterlimit="10" x1="197.347" y1="542.318" x2="197.347" y2="517.827"/>
	
		<line fill="none" stroke="#19162B" stroke-width="3" stroke-miterlimit="10" x1="216.307" y1="542.318" x2="216.307" y2="517.827"/>
	
		<line fill="none" stroke="#19162B" stroke-width="3" stroke-miterlimit="10" x1="237.641" y1="542.318" x2="237.641" y2="517.827"/>
	<line fill="none" stroke="#19162B" stroke-width="3" stroke-miterlimit="10" x1="255.019" y1="541.53" x2="255.019" y2="517.034"/>
	<path fill="#19162B" d="M198.928,621.72c0,12.437-10.082,22.518-22.516,22.518c-12.438,0-22.517-10.081-22.517-22.518
		s10.078-22.515,22.517-22.515C188.846,599.205,198.928,609.283,198.928,621.72z"/>
	<path fill="#19162B" d="M400.937,621.72c0,12.437-10.077,22.518-22.516,22.518c-12.434,0-22.518-10.081-22.518-22.518
		s10.084-22.515,22.518-22.515C390.86,599.205,400.937,609.283,400.937,621.72z"/>
</g>
</svg>
