<?xml version="1.0" encoding="utf-8"?>
<!-- Generator: Adobe Illustrator 15.1.0, SVG Export Plug-In . SVG Version: 6.00 Build 0)  -->
<!DOCTYPE svg PUBLIC "-//W3C//DTD SVG 1.1//EN" "http://www.w3.org/Graphics/SVG/1.1/DTD/svg11.dtd">
<svg version="1.1" id="Layer_1" xmlns="http://www.w3.org/2000/svg" xmlns:xlink="http://www.w3.org/1999/xlink" x="0px" y="0px"
	 width="536.378px" height="780.521px" viewBox="0 0 536.378 780.521" enable-background="new 0 0 536.378 780.521"
	 xml:space="preserve">
<rect x="32.689" y="381.761" fill="none" width="468" height="82"/>
<g enable-background="new    ">
	<path fill="#19162B" d="M157.74,402.901v-8.615c0-3.074-1.16-4.177-3.132-4.177c-2.001,0-3.133,1.421-3.133,3.887v8.905h-2.988
		v-15.229h2.988v1.45c0.754-1.103,2.262-1.77,3.829-1.77c3.539,0,5.424,2.32,5.424,6.816v8.731H157.74z"/>
	<path fill="#19162B" d="M174.154,402.901v-1.45c-0.754,1.103-2.263,1.77-3.829,1.77c-3.539,0-5.424-2.321-5.424-6.817v-8.73h2.988
		v8.615c0,3.074,1.16,4.177,3.133,4.177c2.001,0,3.133-1.422,3.133-3.887v-8.905h2.988v15.229H174.154z"/>
	<path fill="#19162B" d="M199.241,402.901v-8.615c0-3.074-0.958-4.177-2.93-4.177c-2.001,0-2.93,1.421-2.93,3.887v8.905h-2.988
		v-8.615c0-3.074-0.958-4.177-2.93-4.177c-2.001,0-2.93,1.421-2.93,3.887v8.905h-2.988v-15.229h2.988v1.45
		c0.754-1.103,2.06-1.77,3.626-1.77c2.059,0,3.365,0.783,4.177,2.233c1.102-1.363,2.292-2.233,4.67-2.233
		c3.539,0,5.222,2.32,5.222,6.816v8.731H199.241z"/>
	<path fill="#19162B" d="M213.303,403.221c-1.538,0-2.988-0.812-3.829-1.74v1.421h-2.958v-19.608l2.958-1.538v7.368
		c1.103-1.016,2.379-1.77,3.974-1.77c3.278,0,5.859,2.379,5.859,8.18C219.308,400.755,216.465,403.221,213.303,403.221z
		 M212.897,390.109c-1.421,0-2.668,0.957-3.452,1.943v6.41c0.667,0.899,2.06,2.002,3.568,2.002c2.146,0,3.307-1.624,3.307-4.844
		C216.32,391.792,215.102,390.109,212.897,390.109z"/>
	<path fill="#19162B" d="M235.315,396.346H225.25c0.319,2.93,1.972,4.177,3.829,4.177c1.276,0,2.292-0.464,3.307-1.218l1.769,1.914
		c-1.334,1.276-2.93,2.002-5.25,2.002c-3.568,0-6.584-2.872-6.584-7.919c0-5.163,2.727-7.948,6.671-7.948
		c4.322,0,6.411,3.51,6.411,7.629C235.402,395.533,235.344,396.026,235.315,396.346z M228.789,390.052
		c-2.001,0-3.22,1.392-3.48,3.828h7.078C232.241,391.792,231.254,390.052,228.789,390.052z"/>
	<path fill="#19162B" d="M247.378,390.835c-0.638-0.349-1.306-0.552-2.292-0.552c-1.886,0-2.988,1.334-2.988,3.916v8.702h-2.988
		v-15.229h2.988v1.45c0.696-1.016,1.972-1.77,3.48-1.77c1.219,0,1.973,0.232,2.582,0.639L247.378,390.835z"/>
	<path fill="#19162B" d="M265.038,403.221c-3.829,0-6.701-3.162-6.701-7.919c0-4.989,2.958-7.948,6.788-7.948
		c3.886,0,6.788,3.104,6.788,7.861C271.913,400.262,268.954,403.221,265.038,403.221z M265.009,390.196
		c-2.263,0-3.655,2.002-3.655,5.019c0,3.336,1.537,5.163,3.8,5.163s3.742-2.292,3.742-5.076
		C268.896,392.198,267.417,390.196,265.009,390.196z"/>
	<path fill="#19162B" d="M280.552,384.453c-0.986,0-1.393,0.377-1.393,1.479v1.74h2.814v2.784h-2.814v12.444h-2.987v-12.444H274.2
		v-2.784h1.973v-2.002c0-2.784,1.712-3.828,3.858-3.828c0.783,0,1.624,0.115,2.262,0.29v2.61
		C281.597,384.54,281.075,384.453,280.552,384.453z"/>
	<path fill="#19162B" d="M298.416,408.5l-1.015-2.263c4.293-0.203,5.222-1.363,5.222-4.525v-0.261
		c-1.104,1.015-2.35,1.77-3.945,1.77c-3.249,0-5.859-2.379-5.859-8.181c0-5.221,2.871-7.687,6.004-7.687
		c1.537,0,2.988,0.812,3.801,1.74v-1.421h2.987v13.778C305.61,406.092,303.927,408.325,298.416,408.5z M302.68,392.11
		c-0.667-0.898-2.06-2.001-3.567-2.001c-2.146,0-3.308,1.624-3.308,4.844c0,3.829,1.218,5.512,3.423,5.512
		c1.422,0,2.669-0.957,3.452-1.943V392.11z"/>
	<path fill="#19162B" d="M318.746,402.901v-1.509c-1.044,1.045-2.523,1.828-4.177,1.828c-2.466,0-5.279-1.393-5.279-5.135
		c0-3.394,2.61-4.931,6.062-4.931c1.421,0,2.552,0.203,3.394,0.58v-1.132c0-1.653-1.016-2.581-2.871-2.581
		c-1.566,0-2.785,0.29-3.975,0.957l-1.16-2.263c1.45-0.899,3.074-1.363,5.221-1.363c3.395,0,5.715,1.653,5.715,5.105v10.442H318.746
		z M318.746,396.403c-0.812-0.405-1.856-0.667-3.48-0.667c-1.914,0-3.133,0.87-3.133,2.263c0,1.509,0.957,2.523,2.93,2.523
		c1.596,0,2.987-0.986,3.684-1.943V396.403z"/>
	<path fill="#19162B" d="M326.109,402.901v-19.58l2.988-1.566v21.146H326.109z"/>
	<path fill="#19162B" d="M333.794,402.901v-19.58l2.988-1.566v21.146H333.794z"/>
	<path fill="#19162B" d="M347.31,403.221c-3.829,0-6.701-3.162-6.701-7.919c0-4.989,2.959-7.948,6.788-7.948
		c3.887,0,6.788,3.104,6.788,7.861C354.185,400.262,351.226,403.221,347.31,403.221z M347.281,390.196
		c-2.263,0-3.654,2.002-3.654,5.019c0,3.336,1.537,5.163,3.799,5.163c2.264,0,3.742-2.292,3.742-5.076
		C351.167,392.198,349.689,390.196,347.281,390.196z"/>
	<path fill="#19162B" d="M367.117,402.901v-8.615c0-3.074-1.16-4.177-3.132-4.177c-2.001,0-3.133,1.421-3.133,3.887v8.905h-2.987
		v-15.229h2.987v1.45c0.754-1.103,2.263-1.77,3.829-1.77c3.539,0,5.424,2.32,5.424,6.816v8.731H367.117z"/>
	<path fill="#19162B" d="M379.326,403.221c-2.061,0-4.293-0.812-5.831-1.943l1.363-2.263c1.421,0.986,3.017,1.508,4.438,1.508
		c1.885,0,2.785-0.608,2.785-1.682c0-1.161-1.335-1.712-3.539-2.553c-3.278-1.276-4.468-2.379-4.468-4.786
		c0-2.727,2.146-4.148,5.192-4.148c1.914,0,3.8,0.696,5.163,1.683l-1.306,2.291c-1.246-0.87-2.494-1.305-3.944-1.305
		s-2.089,0.58-2.089,1.393c0,0.754,0.522,1.305,2.814,2.204c3.394,1.306,5.134,2.233,5.134,5.105
		C385.04,402.089,382.313,403.221,379.326,403.221z"/>
</g>
<g enable-background="new    ">
	<path fill="#19162B" d="M87.531,420.5c-1.073,0-1.943-0.87-1.943-1.914c0-1.073,0.87-1.943,1.943-1.943
		c1.044,0,1.915,0.87,1.915,1.943C89.446,419.63,88.576,420.5,87.531,420.5z M86.023,437.701v-15.229h2.988v15.229H86.023z"/>
	<path fill="#19162B" d="M102.816,437.701v-8.615c0-3.074-1.16-4.177-3.132-4.177c-2.001,0-3.133,1.421-3.133,3.887v8.905h-2.988
		v-15.229h2.988v1.45c0.754-1.103,2.262-1.77,3.829-1.77c3.539,0,5.424,2.32,5.424,6.816v8.731H102.816z"/>
	<path fill="#19162B" d="M126.653,437.701v-1.509c-1.044,1.045-2.523,1.828-4.177,1.828c-2.466,0-5.279-1.393-5.279-5.135
		c0-3.394,2.61-4.931,6.062-4.931c1.421,0,2.552,0.203,3.394,0.58v-1.132c0-1.653-1.015-2.581-2.872-2.581
		c-1.566,0-2.785,0.29-3.974,0.957l-1.16-2.263c1.45-0.899,3.075-1.363,5.221-1.363c3.394,0,5.714,1.653,5.714,5.105v10.442H126.653
		z M126.653,431.203c-0.812-0.405-1.856-0.667-3.481-0.667c-1.914,0-3.132,0.87-3.132,2.263c0,1.509,0.957,2.523,2.93,2.523
		c1.595,0,2.987-0.986,3.684-1.943V431.203z"/>
	<path fill="#19162B" d="M147.097,419.253c-0.986,0-1.392,0.377-1.392,1.479v1.74h2.813v2.784h-2.813v12.444h-2.988v-12.444h-1.973
		v-2.784h1.973v-2.002c0-2.784,1.711-3.828,3.858-3.828c0.783,0,1.625,0.115,2.263,0.29v2.61
		C148.141,419.34,147.619,419.253,147.097,419.253z M153.652,420.5c-1.073,0-1.943-0.87-1.943-1.914c0-1.073,0.87-1.943,1.943-1.943
		c1.044,0,1.915,0.87,1.915,1.943C155.567,419.63,154.697,420.5,153.652,420.5z M152.144,437.701v-15.229h2.988v15.229H152.144z"/>
	<path fill="#19162B" d="M167.949,425.635c-0.638-0.349-1.306-0.552-2.292-0.552c-1.886,0-2.988,1.334-2.988,3.916v8.702h-2.988
		v-15.229h2.988v1.45c0.696-1.016,1.972-1.77,3.48-1.77c1.219,0,1.973,0.232,2.582,0.639L167.949,425.635z"/>
	<path fill="#19162B" d="M183.349,431.146h-10.065c0.319,2.93,1.972,4.177,3.829,4.177c1.276,0,2.292-0.464,3.307-1.218l1.769,1.914
		c-1.334,1.276-2.93,2.002-5.25,2.002c-3.568,0-6.584-2.872-6.584-7.919c0-5.163,2.727-7.948,6.671-7.948
		c4.322,0,6.411,3.51,6.411,7.629C183.436,430.333,183.377,430.826,183.349,431.146z M176.822,424.852
		c-2.001,0-3.22,1.392-3.48,3.828h7.078C180.274,426.592,179.288,424.852,176.822,424.852z"/>
	<path fill="#19162B" d="M207.244,431.146h-10.065c0.319,2.93,1.972,4.177,3.829,4.177c1.276,0,2.292-0.464,3.307-1.218l1.769,1.914
		c-1.334,1.276-2.93,2.002-5.25,2.002c-3.568,0-6.584-2.872-6.584-7.919c0-5.163,2.727-7.948,6.671-7.948
		c4.322,0,6.411,3.51,6.411,7.629C207.331,430.333,207.273,430.826,207.244,431.146z M200.717,424.852
		c-2.001,0-3.22,1.392-3.48,3.828h7.078C204.169,426.592,203.183,424.852,200.717,424.852z"/>
	<path fill="#19162B" d="M220.292,437.701v-8.615c0-3.074-1.16-4.177-3.132-4.177c-2.001,0-3.133,1.421-3.133,3.887v8.905h-2.988
		v-15.229h2.988v1.45c0.754-1.103,2.262-1.77,3.829-1.77c3.539,0,5.424,2.32,5.424,6.816v8.731H220.292z"/>
	<path fill="#19162B" d="M232.5,443.3l-1.015-2.263c4.293-0.203,5.221-1.363,5.221-4.525v-0.261c-1.103,1.015-2.35,1.77-3.945,1.77
		c-3.249,0-5.859-2.379-5.859-8.181c0-5.221,2.872-7.687,6.004-7.687c1.537,0,2.987,0.812,3.8,1.74v-1.421h2.988v13.778
		C239.694,440.892,238.012,443.125,232.5,443.3z M236.765,426.91c-0.667-0.898-2.06-2.001-3.568-2.001
		c-2.146,0-3.307,1.624-3.307,4.844c0,3.829,1.218,5.512,3.423,5.512c1.421,0,2.669-0.957,3.452-1.943V426.91z"/>
	<path fill="#19162B" d="M245.752,420.5c-1.073,0-1.943-0.87-1.943-1.914c0-1.073,0.87-1.943,1.943-1.943
		c1.044,0,1.915,0.87,1.915,1.943C247.667,419.63,246.797,420.5,245.752,420.5z M244.244,437.701v-15.229h2.988v15.229H244.244z"/>
	<path fill="#19162B" d="M261.037,437.701v-8.615c0-3.074-1.16-4.177-3.132-4.177c-2.001,0-3.133,1.421-3.133,3.887v8.905h-2.988
		v-15.229h2.988v1.45c0.754-1.103,2.262-1.77,3.829-1.77c3.539,0,5.424,2.32,5.424,6.816v8.731H261.037z"/>
	<path fill="#19162B" d="M280.583,431.146h-10.064c0.318,2.93,1.972,4.177,3.828,4.177c1.276,0,2.291-0.464,3.307-1.218l1.77,1.914
		c-1.334,1.276-2.93,2.002-5.25,2.002c-3.568,0-6.584-2.872-6.584-7.919c0-5.163,2.727-7.948,6.671-7.948
		c4.322,0,6.411,3.51,6.411,7.629C280.671,430.333,280.613,430.826,280.583,431.146z M274.057,424.852
		c-2.001,0-3.22,1.392-3.48,3.828h7.077C277.509,426.592,276.523,424.852,274.057,424.852z"/>
	<path fill="#19162B" d="M285.423,424.677h-2.001l0.406-7.28h3.8L285.423,424.677z"/>
	<path fill="#19162B" d="M294.908,438.021c-2.059,0-4.293-0.812-5.83-1.943l1.363-2.263c1.422,0.986,3.018,1.508,4.438,1.508
		c1.886,0,2.784-0.608,2.784-1.682c0-1.161-1.334-1.712-3.539-2.553c-3.277-1.276-4.467-2.379-4.467-4.786
		c0-2.727,2.146-4.148,5.192-4.148c1.915,0,3.8,0.696,5.163,1.683l-1.305,2.291c-1.248-0.87-2.495-1.305-3.945-1.305
		s-2.088,0.58-2.088,1.393c0,0.754,0.521,1.305,2.812,2.204c3.395,1.306,5.135,2.233,5.135,5.105
		C300.623,436.889,297.896,438.021,294.908,438.021z"/>
	<path fill="#19162B" d="M326.171,437.701h-2.552l-2.06-7.687c-0.319-1.16-0.639-2.524-0.783-3.249
		c-0.145,0.725-0.465,2.117-0.783,3.277l-2.031,7.658h-2.552l-4.177-15.229h2.959l1.798,7.396c0.29,1.16,0.608,2.61,0.754,3.336
		c0.175-0.754,0.522-2.146,0.841-3.336l2.031-7.396h2.407l2.06,7.426c0.319,1.189,0.639,2.553,0.812,3.307
		c0.174-0.754,0.464-2.176,0.754-3.336l1.799-7.396h2.959L326.171,437.701z"/>
	<path fill="#19162B" d="M341.483,437.701v-1.509c-1.044,1.045-2.523,1.828-4.177,1.828c-2.466,0-5.279-1.393-5.279-5.135
		c0-3.394,2.61-4.931,6.062-4.931c1.422,0,2.553,0.203,3.394,0.58v-1.132c0-1.653-1.015-2.581-2.872-2.581
		c-1.566,0-2.784,0.29-3.974,0.957l-1.16-2.263c1.45-0.899,3.075-1.363,5.222-1.363c3.394,0,5.714,1.653,5.714,5.105v10.442H341.483
		z M341.483,431.203c-0.812-0.405-1.856-0.667-3.481-0.667c-1.914,0-3.132,0.87-3.132,2.263c0,1.509,0.957,2.523,2.93,2.523
		c1.595,0,2.987-0.986,3.684-1.943V431.203z"/>
	<path fill="#19162B" d="M355.982,437.324c-0.725,0.406-1.74,0.696-2.93,0.696c-2.117,0-3.422-1.306-3.422-4.032v-8.789h-2.176
		v-2.727h2.176v-4.352l2.93-1.566v5.918h3.771v2.727h-3.771v8.267c0,1.422,0.463,1.828,1.566,1.828c0.783,0,1.652-0.29,2.204-0.609
		L355.982,437.324z"/>
	<path fill="#19162B" d="M372.08,431.146h-10.066c0.319,2.93,1.973,4.177,3.829,4.177c1.276,0,2.292-0.464,3.308-1.218l1.769,1.914
		c-1.334,1.276-2.93,2.002-5.25,2.002c-3.567,0-6.585-2.872-6.585-7.919c0-5.163,2.727-7.948,6.672-7.948
		c4.322,0,6.41,3.51,6.41,7.629C372.166,430.333,372.108,430.826,372.08,431.146z M365.552,424.852c-2.002,0-3.22,1.392-3.48,3.828
		h7.078C369.004,426.592,368.018,424.852,365.552,424.852z"/>
	<path fill="#19162B" d="M384.142,425.635c-0.639-0.349-1.307-0.552-2.293-0.552c-1.885,0-2.986,1.334-2.986,3.916v8.702h-2.988
		v-15.229h2.988v1.45c0.695-1.016,1.972-1.77,3.48-1.77c1.219,0,1.973,0.232,2.582,0.639L384.142,425.635z"/>
	<path fill="#19162B" d="M403.107,437.324c-0.727,0.406-1.74,0.696-2.93,0.696c-2.117,0-3.424-1.306-3.424-4.032v-8.789h-2.176
		v-2.727h2.176v-4.352l2.93-1.566v5.918h3.771v2.727h-3.771v8.267c0,1.422,0.465,1.828,1.566,1.828c0.783,0,1.654-0.29,2.205-0.609
		L403.107,437.324z"/>
	<path fill="#19162B" d="M415.81,437.701v-1.509c-1.045,1.045-2.523,1.828-4.178,1.828c-2.465,0-5.279-1.393-5.279-5.135
		c0-3.394,2.611-4.931,6.062-4.931c1.422,0,2.553,0.203,3.395,0.58v-1.132c0-1.653-1.016-2.581-2.873-2.581
		c-1.566,0-2.783,0.29-3.973,0.957l-1.16-2.263c1.449-0.899,3.074-1.363,5.221-1.363c3.395,0,5.715,1.653,5.715,5.105v10.442H415.81
		z M415.81,431.203c-0.812-0.405-1.857-0.667-3.48-0.667c-1.916,0-3.133,0.87-3.133,2.263c0,1.509,0.957,2.523,2.93,2.523
		c1.594,0,2.986-0.986,3.684-1.943V431.203z"/>
	<path fill="#19162B" d="M432.281,437.701v-8.615c0-3.074-1.16-4.177-3.133-4.177c-2.002,0-3.133,1.421-3.133,3.887v8.905h-2.988
		v-15.229h2.988v1.45c0.754-1.103,2.264-1.77,3.83-1.77c3.537,0,5.424,2.32,5.424,6.816v8.731H432.281z"/>
	<path fill="#19162B" d="M448.232,437.701l-3.365-7.571l-2.32,3.075v4.496h-2.988v-19.58l2.988-1.566v9.602
		c0,0.929-0.029,2.495-0.029,3.249c0.406-0.609,1.189-1.77,1.682-2.495l3.162-4.438h3.395l-3.859,5.105l4.584,10.123H448.232z"/>
</g>
<g enable-background="new    ">
	<path fill="#19162B" d="M200.98,313.152v-55.66h-13.2v-11.33c8.58-0.44,14.19-3.63,15.73-10.01h12.76v77H200.98z"/>
	<path fill="#19162B" d="M241.68,327.013h-10.34l1.65-32.45h17.93L241.68,327.013z"/>
	<path fill="#19162B" d="M290.63,314.362c-21.01,0-32.23-16.28-32.23-39.71c0-23.431,11.33-39.71,32.34-39.71
		s32.34,16.06,32.34,39.489C323.08,297.862,311.64,314.362,290.63,314.362z M290.63,250.012c-11.771,0-16.61,10.67-16.61,24.42
		c0,13.751,4.95,24.86,16.72,24.86c11.771,0,16.721-10.89,16.721-24.64S302.4,250.012,290.63,250.012z"/>
	<path fill="#19162B" d="M366.308,314.362c-21.01,0-32.229-16.28-32.229-39.71c0-23.431,11.33-39.71,32.341-39.71
		c21.01,0,32.34,16.06,32.34,39.489C398.759,297.862,387.319,314.362,366.308,314.362z M366.308,250.012
		c-11.77,0-16.609,10.67-16.609,24.42c0,13.751,4.95,24.86,16.721,24.86c11.77,0,16.719-10.89,16.719-24.64
		S378.08,250.012,366.308,250.012z"/>
	<path fill="#19162B" d="M441.988,314.362c-21.01,0-32.23-16.28-32.23-39.71c0-23.431,11.33-39.71,32.34-39.71
		s32.34,16.06,32.34,39.489C474.437,297.862,462.998,314.362,441.988,314.362z M441.988,250.012c-11.771,0-16.61,10.67-16.61,24.42
		c0,13.751,4.95,24.86,16.72,24.86c11.771,0,16.721-10.89,16.721-24.64S453.757,250.012,441.988,250.012z"/>
</g>
<rect x="-19.884" y="411.235" fill="none" width="587.719" height="32.22"/>
<g>
	<path fill="#19162B" d="M305.059,554.959l-1.054-37.925h-15.803L272.4,556.013H133.354l-10.536,50.566h-8.427v13.695l28.443,1.048
		c0,0,6.326-32.651,32.658-29.491c0,0,27.377-3.16,32.65,30.549h138c0,0,5.258-33.716,32.65-29.498c0,0,26.338,0,32.656,28.44
		h10.537v-9.48l-4.217-5.263V570.76l-49.51-14.747l-11.594-34.76l-7.369-1.058l10.529,36.874l-9.479,16.853l-9.48-3.162
		l-7.369-24.229c0,0-12.641-11.582-12.641,0l-5.271,11.589L305.059,554.959z"/>
	<path fill="#19162B" d="M331.654,536.788l2.373-8.691l6.32-3.157l-7.111-1.58c0,0-9.482-11.854-15.803,3.948l-5.529,9.48l4.74-1.58
		C316.646,535.208,318.226,540.738,331.654,536.788z"/>
	<line fill="none" stroke="#19162B" stroke-width="3" stroke-miterlimit="10" x1="266.872" y1="542.318" x2="126.24" y2="542.318"/>
	
		<line fill="none" stroke="#19162B" stroke-width="3" stroke-miterlimit="10" x1="266.079" y1="516.248" x2="125.452" y2="516.248"/>
	
		<line fill="none" stroke="#19162B" stroke-width="3" stroke-miterlimit="10" x1="137.301" y1="543.109" x2="137.301" y2="518.616"/>
	<line fill="none" stroke="#19162B" stroke-width="3" stroke-miterlimit="10" x1="157.055" y1="541.53" x2="157.055" y2="517.034"/>
	
		<line fill="none" stroke="#19162B" stroke-width="3" stroke-miterlimit="10" x1="176.806" y1="543.109" x2="176.806" y2="518.616"/>
	
		<line fill="none" stroke="#19162B" stroke-width="3" stroke-miterlimit="10" x1="197.347" y1="542.318" x2="197.347" y2="517.827"/>
	
		<line fill="none" stroke="#19162B" stroke-width="3" stroke-miterlimit="10" x1="216.307" y1="542.318" x2="216.307" y2="517.827"/>
	
		<line fill="none" stroke="#19162B" stroke-width="3" stroke-miterlimit="10" x1="237.641" y1="542.318" x2="237.641" y2="517.827"/>
	<line fill="none" stroke="#19162B" stroke-width="3" stroke-miterlimit="10" x1="255.019" y1="541.53" x2="255.019" y2="517.034"/>
	<path fill="#19162B" d="M198.928,621.72c0,12.438-10.082,22.52-22.516,22.52c-12.438,0-22.517-10.081-22.517-22.52
		c0-12.437,10.078-22.515,22.517-22.515C188.846,599.205,198.928,609.283,198.928,621.72z"/>
	<path fill="#19162B" d="M400.937,621.72c0,12.438-10.076,22.52-22.516,22.52c-12.434,0-22.518-10.081-22.518-22.52
		c0-12.437,10.084-22.515,22.518-22.515C390.861,599.205,400.937,609.283,400.937,621.72z"/>
</g>
</svg>
