<?xml version="1.0" encoding="utf-8"?>
<!-- Generator: Adobe Illustrator 15.1.0, SVG Export Plug-In . SVG Version: 6.00 Build 0)  -->
<!DOCTYPE svg PUBLIC "-//W3C//DTD SVG 1.1//EN" "http://www.w3.org/Graphics/SVG/1.1/DTD/svg11.dtd">
<svg version="1.1" id="Layer_1" xmlns="http://www.w3.org/2000/svg" xmlns:xlink="http://www.w3.org/1999/xlink" x="0px" y="0px"
	 width="536.379px" height="780.521px" viewBox="0 0 536.379 780.521" enable-background="new 0 0 536.379 780.521"
	 xml:space="preserve">
<g>
	<path fill="#6ABCC3" d="M330.795,47.392l-2.104,10.53c18.959,9.479,17.9,17.903,17.9,17.903
		c20.01,5.263,109.521,70.558,109.521,70.558c43.176,28.433,43.176,48.442,43.176,48.442
		c50.553,211.678,34.752,419.134,34.752,419.134c-26.328,106.364-67.396,119.005-67.396,119.005
		C435.049,754.024,331.852,779.3,331.852,779.3c-36.858,7.373-57.922-21.062-57.922-21.062c-20.01-28.438-41.069,0-41.069,0
		c-16.853,31.595-57.922,15.798-57.922,15.798c-17.903-3.157-101.101-38.964-101.101-38.964
		c-61.081-27.387-73.72-130.586-73.72-130.586c-1.052-20.014,5.267-153.751,5.267-153.751
		c4.915-23.522,67.401-314.881,67.401-314.881c12.635-31.595,121.105-69.508,121.105-69.508v-5.267
		c7.373-1.051,12.637-6.318,12.637-6.318l1.055-4.212l-3.161-6.318l8.424-12.636l2.175-18.333l100.026,15.161L330.795,47.392z
		 M163.352,163.23c0,0-30.543-35.806-51.604,10.534c0,0-23.17,112.683-9.479,171.655c0,0,5.267,15.797,15.798,7.373l11.584-4.212
		C129.651,348.581,139.13,358.056,163.352,163.23z"/>
	<path fill="#19152B" d="M210.215,35.279c0,0,45.303,0.528,111.104,0.528V0h-108.95L210.215,35.279z"/>
</g>
<rect x="56.69" y="386.761" fill="none" width="434" height="82"/>
<text transform="matrix(1 0 0 1 91.9209 406.4434)" font-family="'Interstate-Regular'" font-size="27">number of gallons needed to</text>
<text transform="matrix(1 0 0 1 48.8823 438.8438)" fill="#19152B" font-family="'Interstate-Regular'" font-size="27">cover a football field one foot deep </text>
<text transform="matrix(1 0 0 1 224.437 288.8154)" fill="#19152B" font-family="'Interstate-Bold'" font-size="120">431</text>
<text transform="matrix(1 0 0 1 217.3618 350.21)" fill="#19152B" font-family="'Interstate-Bold'" font-size="50">thousand</text>
<path d="M209.689,466.443h4.858v126.971c0,0-0.972,2.915,2.268,2.915h82.919c0,0,4.535,0,4.211-2.915V466.443h5.507v127.94
	c0,0,0,6.479-5.507,6.479H261.19v46.966h4.066c0,0,1.458-0.236,1.278,2.104v51.018c0,0-6.154,4.856-14.414,0v-50.69
	c0,0-0.486-2.43,1.296-2.43h2.591v-47.29l-40.974,0.324c0,0-3.887,0.81-5.345-4.049L209.689,466.443L209.689,466.443z"/>
</svg>
