<?xml version="1.0" encoding="utf-8"?>
<!-- Generator: Adobe Illustrator 15.1.0, SVG Export Plug-In . SVG Version: 6.00 Build 0)  -->
<!DOCTYPE svg PUBLIC "-//W3C//DTD SVG 1.1//EN" "http://www.w3.org/Graphics/SVG/1.1/DTD/svg11.dtd">
<svg version="1.1" id="Layer_1" xmlns="http://www.w3.org/2000/svg" xmlns:xlink="http://www.w3.org/1999/xlink" x="0px" y="0px"
	 width="536.379px" height="780.521px" viewBox="0 0 536.379 780.521" enable-background="new 0 0 536.379 780.521"
	 xml:space="preserve">
<rect x="56.69" y="386.761" fill="none" width="434" height="82"/>
<g enable-background="new    ">
	<path d="M102.583,406.443v-8.017c0-2.861-1.08-3.888-2.915-3.888c-1.863,0-2.916,1.323-2.916,3.617v8.287h-2.78v-14.171h2.78v1.35
		c0.702-1.026,2.105-1.646,3.563-1.646c3.293,0,5.048,2.159,5.048,6.343v8.125H102.583z"/>
	<path d="M117.865,406.443v-1.35c-0.702,1.025-2.105,1.646-3.563,1.646c-3.293,0-5.048-2.159-5.048-6.344v-8.124h2.78v8.017
		c0,2.861,1.08,3.887,2.916,3.887c1.862,0,2.915-1.322,2.915-3.617v-8.286h2.78v14.171H117.865z"/>
	<path d="M141.218,406.443v-8.017c0-2.861-0.891-3.888-2.726-3.888c-1.863,0-2.727,1.323-2.727,3.617v8.287h-2.78v-8.017
		c0-2.861-0.891-3.888-2.726-3.888c-1.863,0-2.727,1.323-2.727,3.617v8.287h-2.78v-14.171h2.78v1.35
		c0.702-1.026,1.917-1.646,3.374-1.646c1.917,0,3.131,0.729,3.887,2.078c1.026-1.269,2.132-2.078,4.346-2.078
		c3.293,0,4.859,2.159,4.859,6.343v8.125H141.218z"/>
	<path d="M154.315,406.74c-1.431,0-2.78-0.756-3.563-1.619v1.322h-2.753v-18.247l2.753-1.431v6.856
		c1.026-0.945,2.213-1.646,3.698-1.646c3.05,0,5.452,2.213,5.452,7.611C159.902,404.446,157.257,406.74,154.315,406.74z
		 M153.937,394.539c-1.323,0-2.483,0.892-3.212,1.809v5.966c0.621,0.837,1.917,1.862,3.32,1.862c1.998,0,3.077-1.512,3.077-4.508
		C157.122,396.105,155.989,394.539,153.937,394.539z"/>
	<path d="M174.806,400.343h-9.366c0.297,2.727,1.835,3.887,3.563,3.887c1.188,0,2.132-0.432,3.077-1.133l1.646,1.781
		c-1.242,1.188-2.726,1.862-4.886,1.862c-3.32,0-6.127-2.672-6.127-7.369c0-4.805,2.538-7.396,6.208-7.396
		c4.022,0,5.965,3.266,5.965,7.099C174.887,399.587,174.833,400.046,174.806,400.343z M168.733,394.485
		c-1.862,0-2.996,1.296-3.239,3.563h6.586C171.945,396.105,171.027,394.485,168.733,394.485z"/>
	<path d="M186.039,395.215c-0.594-0.324-1.215-0.514-2.133-0.514c-1.754,0-2.78,1.242-2.78,3.645v8.098h-2.78v-14.171h2.78v1.35
		c0.648-0.945,1.835-1.646,3.239-1.646c1.134,0,1.835,0.216,2.402,0.594L186.039,395.215z"/>
	<path d="M202.482,406.74c-3.563,0-6.235-2.942-6.235-7.369c0-4.643,2.753-7.396,6.316-7.396c3.617,0,6.316,2.888,6.316,7.314
		C208.879,403.987,206.126,406.74,202.482,406.74z M202.455,394.62c-2.105,0-3.401,1.863-3.401,4.67c0,3.104,1.43,4.805,3.536,4.805
		s3.482-2.132,3.482-4.724C206.072,396.483,204.695,394.62,202.455,394.62z"/>
	<path d="M216.927,389.276c-0.918,0-1.296,0.351-1.296,1.376v1.62h2.618v2.591h-2.618v11.58h-2.78v-11.58h-1.835v-2.591h1.835
		v-1.863c0-2.591,1.593-3.562,3.59-3.562c0.729,0,1.511,0.107,2.105,0.27v2.43C217.899,389.356,217.413,389.276,216.927,389.276z"/>
	<path d="M233.559,411.653l-0.945-2.105c3.995-0.189,4.859-1.269,4.859-4.211v-0.243c-1.026,0.944-2.187,1.646-3.671,1.646
		c-3.023,0-5.453-2.213-5.453-7.612c0-4.858,2.672-7.152,5.587-7.152c1.431,0,2.78,0.756,3.536,1.619v-1.322h2.78v12.821
		C240.253,409.412,238.688,411.491,233.559,411.653z M237.527,396.402c-0.621-0.837-1.917-1.863-3.32-1.863
		c-1.998,0-3.077,1.512-3.077,4.508c0,3.563,1.134,5.129,3.185,5.129c1.323,0,2.483-0.891,3.212-1.809V396.402z"/>
	<path d="M252.485,406.443v-1.403c-0.972,0.972-2.348,1.7-3.887,1.7c-2.294,0-4.913-1.296-4.913-4.777
		c0-3.158,2.43-4.589,5.642-4.589c1.323,0,2.375,0.188,3.158,0.54v-1.053c0-1.539-0.945-2.402-2.672-2.402
		c-1.458,0-2.591,0.27-3.698,0.891l-1.08-2.105c1.35-0.837,2.861-1.269,4.859-1.269c3.158,0,5.317,1.538,5.317,4.75v9.718H252.485z
		 M252.485,400.396c-0.756-0.377-1.728-0.62-3.239-0.62c-1.781,0-2.915,0.81-2.915,2.105c0,1.403,0.891,2.348,2.726,2.348
		c1.485,0,2.78-0.917,3.428-1.808V400.396z"/>
	<path d="M259.345,406.443v-18.22l2.78-1.458v19.678H259.345z"/>
	<path d="M266.5,406.443v-18.22l2.78-1.458v19.678H266.5z"/>
	<path d="M279.08,406.74c-3.562,0-6.235-2.942-6.235-7.369c0-4.643,2.753-7.396,6.316-7.396c3.617,0,6.316,2.888,6.316,7.314
		C285.478,403.987,282.725,406.74,279.08,406.74z M279.053,394.62c-2.105,0-3.4,1.863-3.4,4.67c0,3.104,1.431,4.805,3.535,4.805
		c2.105,0,3.482-2.132,3.482-4.724C282.67,396.483,281.293,394.62,279.053,394.62z"/>
	<path d="M297.52,406.443v-8.017c0-2.861-1.079-3.888-2.914-3.888c-1.863,0-2.916,1.323-2.916,3.617v8.287h-2.78v-14.171h2.78v1.35
		c0.702-1.026,2.105-1.646,3.562-1.646c3.294,0,5.049,2.159,5.049,6.343v8.125H297.52z"/>
	<path d="M308.889,406.74c-1.917,0-3.995-0.756-5.426-1.809l1.269-2.105c1.323,0.918,2.808,1.403,4.13,1.403
		c1.754,0,2.592-0.566,2.592-1.565c0-1.079-1.242-1.592-3.293-2.375c-3.051-1.188-4.158-2.214-4.158-4.454
		c0-2.537,1.998-3.859,4.832-3.859c1.781,0,3.536,0.647,4.805,1.565l-1.215,2.132c-1.16-0.81-2.32-1.214-3.67-1.214
		s-1.943,0.539-1.943,1.295c0,0.702,0.485,1.215,2.617,2.052c3.158,1.215,4.778,2.078,4.778,4.751
		C314.206,405.688,311.668,406.74,308.889,406.74z"/>
	<path d="M333.672,406.443v-8.017c0-2.861-1.079-3.888-2.914-3.888c-1.863,0-2.916,1.323-2.916,3.617v8.287h-2.78v-14.171h2.78v1.35
		c0.702-1.026,2.105-1.646,3.562-1.646c3.294,0,5.049,2.159,5.049,6.343v8.125H333.672z"/>
	<path d="M351.869,400.343h-9.366c0.297,2.727,1.835,3.887,3.563,3.887c1.188,0,2.132-0.432,3.076-1.133l1.646,1.781
		c-1.241,1.188-2.726,1.862-4.885,1.862c-3.32,0-6.128-2.672-6.128-7.369c0-4.805,2.538-7.396,6.208-7.396
		c4.022,0,5.966,3.266,5.966,7.099C351.95,399.587,351.896,400.046,351.869,400.343z M345.796,394.485
		c-1.862,0-2.996,1.296-3.239,3.563h6.586C349.008,396.105,348.09,394.485,345.796,394.485z"/>
	<path d="M366.827,400.343h-9.366c0.297,2.727,1.836,3.887,3.562,3.887c1.188,0,2.133-0.432,3.078-1.133l1.646,1.781
		c-1.242,1.188-2.727,1.862-4.887,1.862c-3.319,0-6.127-2.672-6.127-7.369c0-4.805,2.537-7.396,6.209-7.396
		c4.021,0,5.965,3.266,5.965,7.099C366.908,399.587,366.854,400.046,366.827,400.343z M360.754,394.485
		c-1.862,0-2.996,1.296-3.239,3.563h6.587C363.967,396.105,363.049,394.485,360.754,394.485z"/>
	<path d="M378.896,406.443v-1.35c-1.025,0.944-2.213,1.646-3.697,1.646c-3.051,0-5.453-2.213-5.453-7.612
		c0-4.858,2.645-7.152,5.588-7.152c1.43,0,2.779,0.756,3.562,1.619v-5.398l2.754-1.431v19.678H378.896z M378.924,396.402
		c-0.621-0.837-1.916-1.863-3.32-1.863c-1.998,0-3.077,1.512-3.077,4.508c0,3.563,1.134,5.129,3.185,5.129
		c1.323,0,2.484-0.891,3.213-1.809V396.402z"/>
	<path d="M397.174,400.343h-9.365c0.297,2.727,1.835,3.887,3.562,3.887c1.188,0,2.133-0.432,3.077-1.133l1.646,1.781
		c-1.241,1.188-2.726,1.862-4.886,1.862c-3.32,0-6.127-2.672-6.127-7.369c0-4.805,2.537-7.396,6.208-7.396
		c4.022,0,5.966,3.266,5.966,7.099C397.256,399.587,397.201,400.046,397.174,400.343z M391.102,394.485
		c-1.863,0-2.996,1.296-3.24,3.563h6.587C394.313,396.105,393.396,394.485,391.102,394.485z"/>
	<path d="M409.244,406.443v-1.35c-1.025,0.944-2.213,1.646-3.698,1.646c-3.05,0-5.452-2.213-5.452-7.612
		c0-4.858,2.646-7.152,5.588-7.152c1.431,0,2.78,0.756,3.562,1.619v-5.398l2.753-1.431v19.678H409.244z M409.271,396.402
		c-0.621-0.837-1.917-1.863-3.32-1.863c-1.997,0-3.077,1.512-3.077,4.508c0,3.563,1.134,5.129,3.186,5.129
		c1.322,0,2.482-0.891,3.212-1.809V396.402z"/>
	<path d="M430.168,406.093c-0.675,0.378-1.619,0.647-2.726,0.647c-1.971,0-3.186-1.215-3.186-3.752v-8.179h-2.024v-2.537h2.024
		v-4.049l2.727-1.458v5.507h3.509v2.537h-3.509v7.692c0,1.323,0.432,1.701,1.457,1.701c0.729,0,1.539-0.271,2.052-0.567
		L430.168,406.093z"/>
	<path d="M439.296,406.74c-3.563,0-6.235-2.942-6.235-7.369c0-4.643,2.753-7.396,6.316-7.396c3.616,0,6.315,2.888,6.315,7.314
		C445.692,403.987,442.939,406.74,439.296,406.74z M439.269,394.62c-2.105,0-3.401,1.863-3.401,4.67
		c0,3.104,1.431,4.805,3.536,4.805s3.482-2.132,3.482-4.724C442.886,396.483,441.509,394.62,439.269,394.62z"/>
</g>
<g enable-background="new    ">
	<path fill="#19152B" d="M59.841,428.748c-1.161-1.188-2.187-1.728-3.455-1.728c-2.024,0-3.32,1.809-3.32,4.697
		c0,2.78,1.188,4.777,3.401,4.777c1.323,0,2.105-0.594,3.212-1.754l1.782,1.754c-1.106,1.404-2.51,2.646-5.075,2.646
		c-3.455,0-6.127-2.915-6.127-7.342c0-4.697,2.753-7.423,6.208-7.423c2.079,0,3.698,0.836,5.021,2.402L59.841,428.748z"/>
	<path fill="#19152B" d="M70.129,439.141c-3.563,0-6.235-2.942-6.235-7.369c0-4.643,2.753-7.396,6.316-7.396
		c3.617,0,6.316,2.888,6.316,7.314C76.526,436.388,73.773,439.141,70.129,439.141z M70.102,427.021c-2.105,0-3.401,1.863-3.401,4.67
		c0,3.104,1.43,4.805,3.536,4.805s3.482-2.132,3.482-4.724C73.719,428.884,72.342,427.021,70.102,427.021z"/>
	<path fill="#19152B" d="M86.167,438.844h-2.78l-5.075-14.171h2.916l2.537,7.692c0.459,1.377,0.864,2.699,1.053,3.482
		c0.162-0.783,0.54-2.105,0.972-3.482l2.43-7.692h2.942L86.167,438.844z"/>
	<path fill="#19152B" d="M105.039,432.743h-9.366c0.297,2.727,1.835,3.887,3.563,3.887c1.188,0,2.132-0.432,3.077-1.133l1.646,1.781
		c-1.242,1.188-2.726,1.862-4.886,1.862c-3.32,0-6.127-2.672-6.127-7.369c0-4.805,2.538-7.396,6.208-7.396
		c4.022,0,5.965,3.266,5.965,7.099C105.12,431.987,105.066,432.446,105.039,432.743z M98.965,426.886
		c-1.862,0-2.996,1.296-3.239,3.563h6.586C102.178,428.506,101.26,426.886,98.965,426.886z"/>
	<path fill="#19152B" d="M116.271,427.615c-0.594-0.324-1.215-0.514-2.133-0.514c-1.754,0-2.78,1.242-2.78,3.645v8.098h-2.78
		v-14.171h2.78v1.35c0.648-0.945,1.835-1.646,3.239-1.646c1.134,0,1.835,0.216,2.402,0.594L116.271,427.615z"/>
	<path fill="#19152B" d="M135.279,438.844v-1.403c-0.972,0.972-2.348,1.7-3.887,1.7c-2.294,0-4.913-1.296-4.913-4.777
		c0-3.158,2.43-4.589,5.642-4.589c1.323,0,2.375,0.188,3.158,0.54v-1.053c0-1.539-0.945-2.402-2.672-2.402
		c-1.458,0-2.591,0.27-3.698,0.891l-1.08-2.105c1.35-0.837,2.861-1.269,4.859-1.269c3.158,0,5.317,1.538,5.317,4.75v9.718H135.279z
		 M135.279,432.797c-0.756-0.377-1.728-0.62-3.239-0.62c-1.781,0-2.915,0.81-2.915,2.105c0,1.403,0.891,2.348,2.726,2.348
		c1.485,0,2.78-0.917,3.428-1.808V432.797z"/>
	<path fill="#19152B" d="M154.314,421.677c-0.918,0-1.296,0.351-1.296,1.376v1.62h2.618v2.591h-2.618v11.58h-2.78v-11.58h-1.835
		v-2.591h1.835v-1.863c0-2.591,1.593-3.562,3.59-3.562c0.729,0,1.511,0.107,2.105,0.27v2.43
		C155.286,421.757,154.8,421.677,154.314,421.677z"/>
	<path fill="#19152B" d="M164.034,439.141c-3.563,0-6.235-2.942-6.235-7.369c0-4.643,2.753-7.396,6.316-7.396
		c3.617,0,6.316,2.888,6.316,7.314C170.432,436.388,167.678,439.141,164.034,439.141z M164.007,427.021
		c-2.105,0-3.401,1.863-3.401,4.67c0,3.104,1.43,4.805,3.536,4.805s3.482-2.132,3.482-4.724
		C167.625,428.884,166.248,427.021,164.007,427.021z"/>
	<path fill="#19152B" d="M179.424,439.141c-3.563,0-6.235-2.942-6.235-7.369c0-4.643,2.753-7.396,6.316-7.396
		c3.617,0,6.316,2.888,6.316,7.314C185.821,436.388,183.068,439.141,179.424,439.141z M179.397,427.021
		c-2.105,0-3.401,1.863-3.401,4.67c0,3.104,1.43,4.805,3.536,4.805s3.482-2.132,3.482-4.724
		C183.014,428.884,181.637,427.021,179.397,427.021z"/>
	<path fill="#19152B" d="M195.894,438.493c-0.675,0.378-1.62,0.647-2.726,0.647c-1.971,0-3.186-1.215-3.186-3.752v-8.179h-2.024
		v-2.537h2.024v-4.049l2.727-1.458v5.507h3.509v2.537h-3.509v7.692c0,1.323,0.432,1.701,1.458,1.701
		c0.729,0,1.539-0.271,2.051-0.567L195.894,438.493z"/>
	<path fill="#19152B" d="M206.315,439.141c-1.431,0-2.78-0.756-3.563-1.619v1.322h-2.753v-18.247l2.753-1.431v6.856
		c1.026-0.945,2.213-1.646,3.698-1.646c3.05,0,5.452,2.213,5.452,7.611C211.903,436.847,209.258,439.141,206.315,439.141z
		 M205.938,426.939c-1.323,0-2.483,0.892-3.212,1.809v5.966c0.621,0.837,1.917,1.862,3.32,1.862c1.998,0,3.077-1.512,3.077-4.508
		C209.123,428.506,207.989,426.939,205.938,426.939z"/>
	<path fill="#19152B" d="M223.298,438.844v-1.403c-0.972,0.972-2.348,1.7-3.887,1.7c-2.294,0-4.913-1.296-4.913-4.777
		c0-3.158,2.43-4.589,5.642-4.589c1.323,0,2.375,0.188,3.158,0.54v-1.053c0-1.539-0.945-2.402-2.672-2.402
		c-1.458,0-2.591,0.27-3.698,0.891l-1.08-2.105c1.35-0.837,2.861-1.269,4.859-1.269c3.158,0,5.317,1.538,5.317,4.75v9.718H223.298z
		 M223.298,432.797c-0.756-0.377-1.728-0.62-3.239-0.62c-1.781,0-2.915,0.81-2.915,2.105c0,1.403,0.891,2.348,2.726,2.348
		c1.485,0,2.78-0.917,3.428-1.808V432.797z"/>
	<path fill="#19152B" d="M230.158,438.844v-18.22l2.78-1.458v19.678H230.158z"/>
	<path fill="#19152B" d="M237.313,438.844v-18.22l2.78-1.458v19.678H237.313z"/>
	<path fill="#19152B" d="M256.644,421.677c-0.918,0-1.296,0.351-1.296,1.376v1.62h2.618v2.591h-2.618v11.58h-2.78v-11.58h-1.835
		v-2.591h1.835v-1.863c0-2.591,1.593-3.562,3.59-3.562c0.729,0,1.511,0.107,2.105,0.27v2.43
		C257.615,421.757,257.129,421.677,256.644,421.677z M262.744,422.837c-0.999,0-1.809-0.81-1.809-1.781
		c0-0.999,0.81-1.809,1.809-1.809c0.972,0,1.782,0.81,1.782,1.809C264.525,422.027,263.715,422.837,262.744,422.837z
		 M261.34,438.844v-14.171h2.78v14.171H261.34z"/>
	<path fill="#19152B" d="M279.78,432.743h-9.366c0.297,2.727,1.836,3.887,3.562,3.887c1.188,0,2.133-0.432,3.078-1.133l1.646,1.781
		c-1.242,1.188-2.727,1.862-4.887,1.862c-3.319,0-6.127-2.672-6.127-7.369c0-4.805,2.537-7.396,6.209-7.396
		c4.021,0,5.965,3.266,5.965,7.099C279.861,431.987,279.808,432.446,279.78,432.743z M273.707,426.886
		c-1.862,0-2.996,1.296-3.239,3.563h6.587C276.92,428.506,276.002,426.886,273.707,426.886z"/>
	<path fill="#19152B" d="M283.455,438.844v-18.22l2.78-1.458v19.678H283.455z"/>
	<path fill="#19152B" d="M299.005,438.844v-1.35c-1.025,0.944-2.214,1.646-3.698,1.646c-3.05,0-5.452-2.213-5.452-7.612
		c0-4.858,2.646-7.152,5.587-7.152c1.432,0,2.781,0.756,3.563,1.619v-5.398l2.753-1.431v19.678H299.005z M299.032,428.803
		c-0.621-0.837-1.917-1.863-3.32-1.863c-1.997,0-3.077,1.512-3.077,4.508c0,3.563,1.134,5.129,3.186,5.129
		c1.322,0,2.482-0.891,3.212-1.809V428.803z"/>
	<path fill="#19152B" d="M318.715,439.141c-3.562,0-6.235-2.942-6.235-7.369c0-4.643,2.753-7.396,6.316-7.396
		c3.617,0,6.316,2.888,6.316,7.314C325.112,436.388,322.359,439.141,318.715,439.141z M318.688,427.021c-2.105,0-3.4,1.863-3.4,4.67
		c0,3.104,1.43,4.805,3.535,4.805s3.482-2.132,3.482-4.724C322.305,428.884,320.928,427.021,318.688,427.021z"/>
	<path fill="#19152B" d="M337.155,438.844v-8.017c0-2.861-1.079-3.888-2.915-3.888c-1.863,0-2.916,1.323-2.916,3.617v8.287h-2.779
		v-14.171h2.779v1.35c0.703-1.026,2.105-1.646,3.563-1.646c3.294,0,5.048,2.159,5.048,6.343v8.125H337.155z"/>
	<path fill="#19152B" d="M355.352,432.743h-9.365c0.297,2.727,1.835,3.887,3.562,3.887c1.188,0,2.133-0.432,3.077-1.133l1.646,1.781
		c-1.241,1.188-2.726,1.862-4.886,1.862c-3.32,0-6.127-2.672-6.127-7.369c0-4.805,2.537-7.396,6.208-7.396
		c4.022,0,5.966,3.266,5.966,7.099C355.434,431.987,355.379,432.446,355.352,432.743z M349.279,426.886
		c-1.863,0-2.996,1.296-3.24,3.563h6.587C352.491,428.506,351.573,426.886,349.279,426.886z"/>
	<path fill="#19152B" d="M371.203,421.677c-0.918,0-1.297,0.351-1.297,1.376v1.62h2.619v2.591h-2.619v11.58h-2.779v-11.58h-1.836
		v-2.591h1.836v-1.863c0-2.591,1.592-3.562,3.59-3.562c0.729,0,1.512,0.107,2.105,0.27v2.43
		C372.174,421.757,371.688,421.677,371.203,421.677z"/>
	<path fill="#19152B" d="M380.922,439.141c-3.562,0-6.234-2.942-6.234-7.369c0-4.643,2.752-7.396,6.316-7.396
		c3.615,0,6.314,2.888,6.314,7.314C387.318,436.388,384.566,439.141,380.922,439.141z M380.895,427.021c-2.105,0-3.4,1.863-3.4,4.67
		c0,3.104,1.43,4.805,3.535,4.805s3.482-2.132,3.482-4.724C384.512,428.884,383.135,427.021,380.895,427.021z"/>
	<path fill="#19152B" d="M396.312,439.141c-3.564,0-6.236-2.942-6.236-7.369c0-4.643,2.754-7.396,6.316-7.396
		c3.617,0,6.316,2.888,6.316,7.314C402.709,436.388,399.955,439.141,396.312,439.141z M396.285,427.021
		c-2.105,0-3.402,1.863-3.402,4.67c0,3.104,1.432,4.805,3.537,4.805s3.482-2.132,3.482-4.724
		C399.902,428.884,398.525,427.021,396.285,427.021z"/>
	<path fill="#19152B" d="M412.781,438.493c-0.674,0.378-1.619,0.647-2.725,0.647c-1.971,0-3.186-1.215-3.186-3.752v-8.179h-2.025
		v-2.537h2.025v-4.049l2.727-1.458v5.507h3.508v2.537h-3.508v7.692c0,1.323,0.432,1.701,1.457,1.701
		c0.729,0,1.539-0.271,2.051-0.567L412.781,438.493z"/>
	<path fill="#19152B" d="M432.707,438.844v-1.35c-1.025,0.944-2.213,1.646-3.699,1.646c-3.049,0-5.451-2.213-5.451-7.612
		c0-4.858,2.645-7.152,5.588-7.152c1.43,0,2.779,0.756,3.562,1.619v-5.398l2.752-1.431v19.678H432.707z M432.734,428.803
		c-0.621-0.837-1.918-1.863-3.32-1.863c-1.998,0-3.078,1.512-3.078,4.508c0,3.563,1.135,5.129,3.186,5.129
		c1.322,0,2.482-0.891,3.213-1.809V428.803z"/>
	<path fill="#19152B" d="M450.986,432.743h-9.367c0.297,2.727,1.836,3.887,3.562,3.887c1.188,0,2.133-0.432,3.078-1.133l1.646,1.781
		c-1.242,1.188-2.727,1.862-4.887,1.862c-3.32,0-6.127-2.672-6.127-7.369c0-4.805,2.537-7.396,6.209-7.396
		c4.021,0,5.965,3.266,5.965,7.099C451.066,431.987,451.012,432.446,450.986,432.743z M444.912,426.886
		c-1.863,0-2.996,1.296-3.238,3.563h6.586C448.125,428.506,447.207,426.886,444.912,426.886z"/>
	<path fill="#19152B" d="M465.943,432.743h-9.367c0.297,2.727,1.836,3.887,3.562,3.887c1.188,0,2.133-0.432,3.078-1.133l1.646,1.781
		c-1.242,1.188-2.727,1.862-4.887,1.862c-3.32,0-6.127-2.672-6.127-7.369c0-4.805,2.537-7.396,6.209-7.396
		c4.021,0,5.965,3.266,5.965,7.099C466.023,431.987,465.969,432.446,465.943,432.743z M459.869,426.886
		c-1.863,0-2.996,1.296-3.238,3.563h6.586C463.082,428.506,462.164,426.886,459.869,426.886z"/>
	<path fill="#19152B" d="M475.799,439.141c-1.43,0-2.779-0.756-3.562-1.619v5.102l-2.754,1.431v-19.381h2.754v1.35
		c1.025-0.945,2.213-1.646,3.697-1.646c3.051,0,5.453,2.213,5.453,7.611C481.387,436.847,478.74,439.141,475.799,439.141z
		 M475.422,426.939c-1.324,0-2.484,0.892-3.213,1.809v5.966c0.621,0.837,1.916,1.862,3.32,1.862c1.998,0,3.076-1.512,3.076-4.508
		C478.605,428.506,477.473,426.939,475.422,426.939z"/>
</g>
<g enable-background="new    ">
	<path fill="#19152B" d="M291.875,271.656v17.159h-16.2v-17.159h-45.958v-15.119l44.518-51.718h17.641v51.237h11.039v15.6H291.875z
		 M268.595,233.498l-12,14.039c-2.64,3.12-6.12,6.96-7.919,8.76c2.88,0,11.879-0.24,16.679-0.24h10.319v-13.68
		c0-4.8,0.36-15.239,0.36-18.358C274.475,226.178,271.355,230.258,268.595,233.498z"/>
	<path fill="#19152B" d="M343.594,290.136c-12.599,0-23.879-4.92-33.238-16.08l12.72-10.319c6.96,7.319,13.56,9.96,22.079,9.96
		c11.039,0,16.199-3.96,16.199-10.68c0-6.479-4.439-9.6-12.359-9.6h-9.959v-16.439h8.999c6.96,0,9.84-3,9.84-8.52
		c0-4.32-3.479-8.52-14.04-8.52c-6.479,0-11.76,2.279-16.439,7.079l-12.238-11.159c8.039-8.399,16.439-12.359,28.918-12.359
		c17.16,0,30.839,7.92,30.839,23.759c0,9.12-4.8,14.64-9.72,17.159c5.4,2.04,13.199,7.32,13.199,18.359
		C378.393,280.896,364.474,290.136,343.594,290.136z"/>
	<path fill="#19152B" d="M403.115,288.815v-60.718h-14.4v-12.359c9.36-0.479,15.48-3.96,17.16-10.919h13.92v83.996H403.115z"/>
</g>
<g enable-background="new    ">
	<path fill="#19152B" d="M235.363,349.16c-1.15,0.899-3.2,1.6-5.35,1.6c-4.25,0-7-3.3-7-7.9v-12.4h-4.4v-6.501h4.4v-6.75l6.9-3.45
		v10.2h6.3v6.501h-6.3v10.551c0,2.5,0.9,3.149,2.55,3.149c1.25,0,2.2-0.55,3.9-2L235.363,349.16z"/>
	<path fill="#19152B" d="M258.662,350.21v-14.201c0-4.7-1.6-6.1-4.45-6.1s-4.5,1.399-4.5,5.95v14.351h-6.9v-33.002l6.9-3.45v11.95
		c1.2-1.25,3.4-2.3,6.15-2.3c6.701,0,9.701,4.601,9.701,12.001v14.801H258.662z"/>
	<path fill="#19152B" d="M282.512,350.76c-6.85,0-11.851-5.601-11.851-13.65c0-8.051,5.001-13.701,11.851-13.701
		c6.851,0,11.9,5.65,11.9,13.701C294.412,345.159,289.362,350.76,282.512,350.76z M282.512,330.059c-3.3,0-4.85,3-4.85,7.051
		c0,4.05,1.55,7,4.85,7c3.301,0,4.9-3.35,4.9-7C287.412,333.109,285.812,330.059,282.512,330.059z"/>
	<path fill="#19152B" d="M315.361,350.21v-1.75c-1.199,1.25-3.4,2.3-6.15,2.3c-6.699,0-9.7-4.6-9.7-12.001v-14.801h6.9v14.201
		c0,4.7,1.601,6.101,4.45,6.101c2.851,0,4.5-1.4,4.5-5.95v-14.352h6.9v26.252H315.361z"/>
	<path fill="#19152B" d="M339.012,350.76c-4.15,0-8.201-1.2-11-3.05l2.299-5.25c2.801,1.55,5.751,2.399,9.102,2.399
		c2.699,0,3.5-0.649,3.5-2c0-1.2-0.95-1.8-3.851-2.65c-6.3-1.899-10.351-3.45-10.351-9c0-5.45,4.351-7.801,10.5-7.801
		c3.301,0,6.901,1,9.701,2.55l-2.2,5.451c-2.601-1.4-5.45-2.101-7.65-2.101c-2.8,0-3.55,0.55-3.55,1.7c0,1.1,0.8,1.55,5.45,3.05
		c4.7,1.551,8.751,3.251,8.751,8.501C349.713,348.61,344.912,350.76,339.012,350.76z"/>
	<path fill="#19152B" d="M370.012,350.21v-1.75c-1.25,1.3-3.45,2.3-5.9,2.3c-4.9,0-9.801-3-9.801-9.351c0-5.8,4.7-8.7,10.65-8.7
		c2.4,0,3.951,0.5,5.051,1.05v-1.3c0-1.851-1.25-3.351-3.75-3.351c-3.15,0-4.801,0.45-7.201,1.75l-2.65-4.8
		c3.051-1.75,5.602-2.65,9.852-2.65c6.35,0,10.65,3.301,10.65,9.2v17.602H370.012z M370.012,339.209c-1.2-0.75-2.35-1.1-4.801-1.1
		c-2.6,0-4,1.2-4,3.3c0,1.851,1.051,3.5,4,3.5c2.25,0,4.051-1.149,4.801-2.399V339.209z"/>
	<path fill="#19152B" d="M399.212,350.21v-14.201c0-4.7-1.601-6.1-4.45-6.1s-4.5,1.399-4.5,5.95v14.351h-6.9v-26.252h6.9v1.75
		c1.199-1.25,3.4-2.3,6.15-2.3c6.7,0,9.7,4.601,9.7,12.001v14.801H399.212z"/>
	<path fill="#19152B" d="M426.961,350.21v-1.65c-1.299,1.15-3.05,2.2-5.55,2.2c-5.601,0-10.2-4.2-10.2-14.001
		c0-7.851,3.699-13.351,10.2-13.351c2.3,0,4.3,0.9,5.55,2.05v-8.25l6.9-3.45v36.452H426.961z M426.961,332.159
		c-1.049-1.45-2.649-2.25-4.65-2.25c-2.649,0-4.1,2.3-4.1,6.7c0,5.4,1.801,7.65,4.5,7.65c2.15,0,3.25-0.9,4.25-2.2V332.159z"/>
</g>
<path d="M209.689,466.443h4.858v126.971c0,0-0.972,2.915,2.268,2.915h82.919c0,0,4.535,0,4.211-2.915V466.443h5.507v127.939
	c0,0,0,6.479-5.507,6.479H261.19v46.966h4.066c0,0,1.458-0.236,1.278,2.104v51.019c0,0-6.154,4.855-14.414,0v-50.69
	c0,0-0.486-2.43,1.296-2.43h2.591v-47.29l-40.974,0.324c0,0-3.887,0.81-5.345-4.049L209.689,466.443L209.689,466.443z"/>
</svg>
