<?xml version="1.0" encoding="utf-8"?>
<!-- Generator: Adobe Illustrator 15.1.0, SVG Export Plug-In . SVG Version: 6.00 Build 0)  -->
<!DOCTYPE svg PUBLIC "-//W3C//DTD SVG 1.1//EN" "http://www.w3.org/Graphics/SVG/1.1/DTD/svg11.dtd">
<svg version="1.1" id="Layer_1" xmlns="http://www.w3.org/2000/svg" xmlns:xlink="http://www.w3.org/1999/xlink" x="0px" y="0px"
	 width="536.378px" height="780.521px" viewBox="0 0 536.378 780.521" enable-background="new 0 0 536.378 780.521"
	 xml:space="preserve">
<rect x="32.689" y="385.761" fill="none" width="468" height="82"/>
<g enable-background="new    ">
	<path fill="#19162B" d="M286.142,288.815v-60.718h-14.4v-12.359c9.36-0.479,15.48-3.96,17.16-10.919h13.92v83.996H286.142z"/>
	<path fill="#19162B" d="M320.822,288.815c0.479-28.799,18.119-41.278,38.639-50.278c7.199-3.119,9.479-6.479,9.479-10.079
		c0-4.32-3.719-8.52-13.799-8.52c-9.959,0-18,4.439-23.879,10.079l-10.8-12.6c8.88-8.999,20.759-13.919,34.079-13.919
		c19.918,0,31.198,8.039,31.198,24.119c0,13.56-7.319,19.439-21.599,26.039c-14.88,6.84-20.64,12.479-22.199,18.959h44.638v16.199
		H320.822z"/>
</g>
<g enable-background="new    ">
	<path fill="#19162B" d="M230.869,359.86V348.56c-1.3,1.15-3.05,2.2-5.55,2.2c-5.6,0-10.201-4.2-10.201-14.001
		c0-7.851,3.7-13.351,10.201-13.351c2.3,0,4.3,0.9,5.55,2.05v-1.5h6.9v32.452L230.869,359.86z M230.869,332.159
		c-1.05-1.45-2.65-2.25-4.65-2.25c-2.65,0-4.1,2.3-4.1,6.7c0,5.4,1.8,7.65,4.5,7.65c2.15,0,3.25-0.9,4.25-2.2V332.159z"/>
	<path fill="#19162B" d="M260.169,350.21v-1.75c-1.2,1.25-3.4,2.3-6.15,2.3c-6.7,0-9.701-4.6-9.701-12.001v-14.801h6.9v14.201
		c0,4.7,1.6,6.101,4.45,6.101c2.851,0,4.5-1.4,4.5-5.95v-14.352h6.9v26.252H260.169z"/>
	<path fill="#19162B" d="M277.468,321.809c-2.15,0-3.95-1.801-3.95-3.95c0-2.15,1.8-3.95,3.95-3.95s3.95,1.8,3.95,3.95
		C281.418,320.008,279.619,321.809,277.468,321.809z M274.018,350.21v-26.252h6.9v26.252H274.018z"/>
	<path fill="#19162B" d="M303.719,350.21v-14.201c0-4.7-1.601-6.1-4.45-6.1s-4.5,1.399-4.5,5.95v14.351h-6.9v-26.252h6.9v1.75
		c1.199-1.25,3.4-2.3,6.15-2.3c6.7,0,9.7,4.601,9.7,12.001v14.801H303.719z"/>
	<path fill="#19162B" d="M331.469,349.16c-1.149,0.899-3.2,1.6-5.351,1.6c-4.25,0-7-3.3-7-7.9v-12.4h-4.4v-6.501h4.4v-6.75l6.9-3.45
		v10.2h6.301v6.501h-6.301v10.551c0,2.5,0.9,3.149,2.551,3.149c1.25,0,2.199-0.55,3.899-2L331.469,349.16z"/>
	<path fill="#19162B" d="M342.619,321.809c-2.15,0-3.951-1.801-3.951-3.95c0-2.15,1.801-3.95,3.951-3.95s3.949,1.8,3.949,3.95
		C346.568,320.008,344.769,321.809,342.619,321.809z M339.167,350.21v-26.252h6.9v26.252H339.167z"/>
	<path fill="#19162B" d="M353.267,350.21v-33.002l6.9-3.45v36.452H353.267z"/>
	<path fill="#19162B" d="M367.368,350.21v-33.002l6.9-3.45v36.452H367.368z"/>
	<path fill="#19162B" d="M384.917,321.809c-2.15,0-3.95-1.801-3.95-3.95c0-2.15,1.8-3.95,3.95-3.95s3.95,1.8,3.95,3.95
		C388.868,320.008,387.068,321.809,384.917,321.809z M381.467,350.21v-26.252h6.9v26.252H381.467z"/>
	<path fill="#19162B" d="M405.818,350.76c-6.85,0-11.851-5.601-11.851-13.65c0-8.051,5.001-13.701,11.851-13.701
		c6.851,0,11.9,5.65,11.9,13.701C417.718,345.159,412.668,350.76,405.818,350.76z M405.818,330.059c-3.3,0-4.85,3-4.85,7.051
		c0,4.05,1.55,7,4.85,7c3.301,0,4.9-3.35,4.9-7C410.718,333.109,409.119,330.059,405.818,330.059z"/>
	<path fill="#19162B" d="M438.917,350.21v-14.201c0-4.7-1.6-6.1-4.449-6.1c-2.851,0-4.501,1.399-4.501,5.95v14.351h-6.9v-26.252h6.9
		v1.75c1.2-1.25,3.4-2.3,6.15-2.3c6.7,0,9.7,4.601,9.7,12.001v14.801H438.917z"/>
</g>
<path fill="#19162B" d="M179.638,503.294c0,0,86.13-26.97,172.26,2.608L333.626,668.59c-82.333,24.312-134.943-1.934-134.943-1.934
	l-18.271-162.689 M273.126,524.25c0,0-48.127,52.029-42.01,92.922c0,0,4.729,29.491,35.065,29.491c0,0,32.271,2.923,34.77-37.345
	c0,0,0.563-16.902-15.021-41.394C285.929,567.928,273.691,549.848,273.126,524.25z"/>
<rect x="81.689" y="409.916" fill="none" width="397" height="35.845"/>
<g enable-background="new    ">
	<path fill="#19162B" d="M88.577,435.731l-0.98-2.185c4.144-0.195,5.04-1.315,5.04-4.368v-0.252
		c-1.064,0.98-2.268,1.708-3.808,1.708c-3.136,0-5.656-2.296-5.656-7.896c0-5.04,2.772-7.42,5.796-7.42
		c1.484,0,2.884,0.784,3.668,1.68v-1.372h2.884v13.3C95.521,433.407,93.897,435.563,88.577,435.731z M92.693,419.911
		c-0.644-0.868-1.988-1.932-3.444-1.932c-2.072,0-3.192,1.567-3.192,4.676c0,3.696,1.176,5.32,3.304,5.32
		c1.372,0,2.576-0.925,3.332-1.876V419.911z"/>
	<path fill="#19162B" d="M108.205,430.327v-1.456c-1.008,1.008-2.436,1.764-4.032,1.764c-2.38,0-5.096-1.344-5.096-4.956
		c0-3.275,2.52-4.76,5.852-4.76c1.372,0,2.464,0.196,3.276,0.561v-1.093c0-1.596-0.98-2.491-2.772-2.491
		c-1.512,0-2.688,0.279-3.836,0.924l-1.12-2.185c1.4-0.867,2.968-1.315,5.04-1.315c3.276,0,5.516,1.596,5.516,4.928v10.08H108.205z
		 M108.205,424.056c-0.784-0.393-1.792-0.645-3.36-0.645c-1.848,0-3.024,0.84-3.024,2.184c0,1.456,0.924,2.437,2.828,2.437
		c1.54,0,2.884-0.952,3.556-1.876V424.056z"/>
	<path fill="#19162B" d="M115.316,430.327v-18.9l2.884-1.512v20.412H115.316z"/>
	<path fill="#19162B" d="M122.736,430.327v-18.9l2.884-1.512v20.412H122.736z"/>
	<path fill="#19162B" d="M135.784,430.635c-3.696,0-6.468-3.052-6.468-7.644c0-4.816,2.856-7.672,6.552-7.672
		c3.752,0,6.552,2.996,6.552,7.588C142.42,427.779,139.564,430.635,135.784,430.635z M135.756,418.063
		c-2.184,0-3.528,1.932-3.528,4.844c0,3.22,1.484,4.984,3.668,4.984c2.184,0,3.612-2.213,3.612-4.9
		C139.508,419.995,138.08,418.063,135.756,418.063z"/>
	<path fill="#19162B" d="M154.908,430.327v-8.316c0-2.968-1.12-4.031-3.024-4.031c-1.932,0-3.024,1.372-3.024,3.752v8.596h-2.884
		v-14.7h2.884v1.4c0.728-1.064,2.184-1.708,3.696-1.708c3.416,0,5.236,2.24,5.236,6.58v8.428H154.908z"/>
	<path fill="#19162B" d="M166.696,430.635c-1.988,0-4.144-0.783-5.628-1.876l1.316-2.184c1.372,0.952,2.912,1.456,4.284,1.456
		c1.82,0,2.688-0.588,2.688-1.624c0-1.12-1.288-1.652-3.416-2.464c-3.164-1.232-4.312-2.296-4.312-4.62
		c0-2.632,2.072-4.004,5.012-4.004c1.848,0,3.668,0.672,4.984,1.624l-1.26,2.212c-1.204-0.84-2.408-1.26-3.808-1.26
		s-2.016,0.56-2.016,1.344c0,0.728,0.504,1.26,2.716,2.128c3.276,1.26,4.956,2.156,4.956,4.928
		C172.212,429.543,169.58,430.635,166.696,430.635z"/>
	<path fill="#19162B" d="M189.235,430.635c-3.696,0-6.468-3.052-6.468-7.644c0-4.816,2.856-7.672,6.552-7.672
		c3.752,0,6.552,2.996,6.552,7.588C195.871,427.779,193.015,430.635,189.235,430.635z M189.208,418.063
		c-2.184,0-3.528,1.932-3.528,4.844c0,3.22,1.484,4.984,3.668,4.984c2.184,0,3.612-2.213,3.612-4.9
		C192.959,419.995,191.531,418.063,189.208,418.063z"/>
	<path fill="#19162B" d="M204.215,412.52c-0.952,0-1.344,0.363-1.344,1.428v1.68h2.716v2.688h-2.716v12.012h-2.884v-12.012h-1.904
		v-2.688h1.904v-1.932c0-2.688,1.652-3.696,3.724-3.696c0.756,0,1.568,0.112,2.184,0.28v2.52
		C205.223,412.604,204.719,412.52,204.215,412.52z"/>
	<path fill="#19162B" d="M221.911,412.52c-0.952,0-1.344,0.363-1.344,1.428v1.68h2.716v2.688h-2.716v12.012h-2.884v-12.012h-1.904
		v-2.688h1.904v-1.932c0-2.688,1.652-3.696,3.724-3.696c0.756,0,1.568,0.112,2.184,0.28v2.52
		C222.918,412.604,222.415,412.52,221.911,412.52z"/>
	<path fill="#19162B" d="M234.819,418.679c-0.616-0.336-1.26-0.531-2.212-0.531c-1.82,0-2.884,1.288-2.884,3.779v8.4h-2.884v-14.7
		h2.884v1.4c0.672-0.98,1.904-1.708,3.36-1.708c1.176,0,1.904,0.224,2.492,0.616L234.819,418.679z"/>
	<path fill="#19162B" d="M249.687,423.999h-9.716c0.308,2.828,1.904,4.032,3.696,4.032c1.232,0,2.212-0.448,3.192-1.176l1.708,1.848
		c-1.288,1.232-2.828,1.932-5.068,1.932c-3.444,0-6.356-2.771-6.356-7.644c0-4.984,2.632-7.672,6.44-7.672
		c4.172,0,6.188,3.388,6.188,7.364C249.771,423.215,249.715,423.691,249.687,423.999z M243.387,417.923
		c-1.932,0-3.108,1.345-3.36,3.696h6.832C246.719,419.604,245.767,417.923,243.387,417.923z"/>
	<path fill="#19162B" d="M257.835,430.635c-1.988,0-4.144-0.783-5.628-1.876l1.316-2.184c1.372,0.952,2.912,1.456,4.284,1.456
		c1.82,0,2.688-0.588,2.688-1.624c0-1.12-1.288-1.652-3.416-2.464c-3.164-1.232-4.312-2.296-4.312-4.62
		c0-2.632,2.072-4.004,5.012-4.004c1.848,0,3.668,0.672,4.984,1.624l-1.26,2.212c-1.204-0.84-2.408-1.26-3.808-1.26
		s-2.016,0.56-2.016,1.344c0,0.728,0.504,1.26,2.716,2.128c3.276,1.26,4.956,2.156,4.956,4.928
		C263.351,429.543,260.719,430.635,257.835,430.635z"/>
	<path fill="#19162B" d="M275.978,430.327v-8.316c0-2.968-1.119-4.031-3.023-4.031c-1.932,0-3.023,1.372-3.023,3.752v8.596h-2.885
		v-18.9l2.885-1.512v7.112c0.727-1.064,2.184-1.708,3.695-1.708c3.416,0,5.236,2.24,5.236,6.58v8.428H275.978z"/>
	<path fill="#19162B" d="M295.915,430.327h-2.464l-1.988-7.42c-0.309-1.12-0.615-2.436-0.756-3.136
		c-0.141,0.7-0.448,2.044-0.756,3.164l-1.96,7.392h-2.464l-4.032-14.7h2.856l1.735,7.141c0.28,1.119,0.588,2.52,0.728,3.22
		c0.168-0.729,0.504-2.072,0.812-3.22l1.96-7.141h2.324l1.987,7.168c0.309,1.148,0.617,2.464,0.785,3.192
		c0.168-0.729,0.447-2.101,0.728-3.22l1.735-7.141h2.856L295.915,430.327z"/>
	<path fill="#19162B" d="M310.699,430.327v-1.456c-1.008,1.008-2.436,1.764-4.031,1.764c-2.381,0-5.096-1.344-5.096-4.956
		c0-3.275,2.52-4.76,5.852-4.76c1.371,0,2.464,0.196,3.275,0.561v-1.093c0-1.596-0.979-2.491-2.771-2.491
		c-1.512,0-2.688,0.279-3.836,0.924l-1.12-2.185c1.399-0.867,2.968-1.315,5.04-1.315c3.275,0,5.516,1.596,5.516,4.928v10.08H310.699
		z M310.699,424.056c-0.783-0.393-1.791-0.645-3.359-0.645c-1.848,0-3.024,0.84-3.024,2.184c0,1.456,0.925,2.437,2.828,2.437
		c1.54,0,2.884-0.952,3.556-1.876V424.056z"/>
	<path fill="#19162B" d="M324.699,429.963c-0.7,0.393-1.68,0.672-2.828,0.672c-2.044,0-3.305-1.26-3.305-3.892v-8.484h-2.1v-2.632
		h2.1v-4.2l2.828-1.512v5.712h3.641v2.632h-3.641v7.98c0,1.372,0.448,1.764,1.512,1.764c0.757,0,1.597-0.279,2.129-0.588
		L324.699,429.963z"/>
	<path fill="#19162B" d="M340.24,423.999h-9.717c0.309,2.828,1.904,4.032,3.696,4.032c1.231,0,2.212-0.448,3.192-1.176l1.707,1.848
		c-1.287,1.232-2.828,1.932-5.067,1.932c-3.444,0-6.356-2.771-6.356-7.644c0-4.984,2.633-7.672,6.44-7.672
		c4.172,0,6.188,3.388,6.188,7.364C340.324,423.215,340.267,423.691,340.24,423.999z M333.939,417.923
		c-1.932,0-3.107,1.345-3.359,3.696h6.832C337.271,419.604,336.319,417.923,333.939,417.923z"/>
	<path fill="#19162B" d="M351.886,418.679c-0.615-0.336-1.26-0.531-2.212-0.531c-1.819,0-2.884,1.288-2.884,3.779v8.4h-2.885v-14.7
		h2.885v1.4c0.672-0.98,1.904-1.708,3.359-1.708c1.176,0,1.904,0.224,2.492,0.616L351.886,418.679z"/>
	<path fill="#19162B" d="M368.938,430.635c-3.696,0-6.468-3.052-6.468-7.644c0-4.816,2.855-7.672,6.552-7.672
		c3.752,0,6.552,2.996,6.552,7.588C375.574,427.779,372.718,430.635,368.938,430.635z M368.91,418.063
		c-2.184,0-3.527,1.932-3.527,4.844c0,3.22,1.483,4.984,3.668,4.984c2.184,0,3.611-2.213,3.611-4.9
		C372.662,419.995,371.234,418.063,368.91,418.063z"/>
	<path fill="#19162B" d="M388.062,430.327v-8.316c0-2.968-1.12-4.031-3.023-4.031c-1.933,0-3.024,1.372-3.024,3.752v8.596h-2.884
		v-14.7h2.884v1.4c0.728-1.064,2.184-1.708,3.696-1.708c3.415,0,5.235,2.24,5.235,6.58v8.428H388.062z"/>
	<path fill="#19162B" d="M403.069,430.327v-19.6h12.628v2.855h-9.688v4.844h5.628v2.856h-5.628v6.188h10.107v2.856H403.069z"/>
	<path fill="#19162B" d="M427.876,430.327v-1.456c-1.008,1.008-2.436,1.764-4.031,1.764c-2.381,0-5.097-1.344-5.097-4.956
		c0-3.275,2.521-4.76,5.853-4.76c1.372,0,2.464,0.196,3.275,0.561v-1.093c0-1.596-0.979-2.491-2.771-2.491
		c-1.512,0-2.688,0.279-3.836,0.924l-1.12-2.185c1.399-0.867,2.968-1.315,5.04-1.315c3.275,0,5.516,1.596,5.516,4.928v10.08H427.876
		z M427.876,424.056c-0.784-0.393-1.792-0.645-3.359-0.645c-1.849,0-3.024,0.84-3.024,2.184c0,1.456,0.924,2.437,2.828,2.437
		c1.54,0,2.884-0.952,3.556-1.876V424.056z"/>
	<path fill="#19162B" d="M442.83,418.679c-0.616-0.336-1.261-0.531-2.213-0.531c-1.819,0-2.884,1.288-2.884,3.779v8.4h-2.884v-14.7
		h2.884v1.4c0.672-0.98,1.904-1.708,3.36-1.708c1.176,0,1.904,0.224,2.492,0.616L442.83,418.679z"/>
	<path fill="#19162B" d="M453.861,429.963c-0.7,0.393-1.681,0.672-2.828,0.672c-2.044,0-3.304-1.26-3.304-3.892v-8.484h-2.101
		v-2.632h2.101v-4.2l2.827-1.512v5.712h3.641v2.632h-3.641v7.98c0,1.372,0.448,1.764,1.513,1.764c0.756,0,1.596-0.279,2.128-0.588
		L453.861,429.963z"/>
	<path fill="#19162B" d="M467.048,430.327v-8.316c0-2.968-1.119-4.031-3.023-4.031c-1.933,0-3.024,1.372-3.024,3.752v8.596h-2.884
		v-18.9l2.884-1.512v7.112c0.729-1.064,2.185-1.708,3.696-1.708c3.416,0,5.236,2.24,5.236,6.58v8.428H467.048z"/>
</g>
</svg>
