<?xml version="1.0" encoding="utf-8"?>
<!-- Generator: Adobe Illustrator 15.1.0, SVG Export Plug-In . SVG Version: 6.00 Build 0)  -->
<!DOCTYPE svg PUBLIC "-//W3C//DTD SVG 1.1//EN" "http://www.w3.org/Graphics/SVG/1.1/DTD/svg11.dtd">
<svg version="1.1" id="Layer_1" xmlns="http://www.w3.org/2000/svg" xmlns:xlink="http://www.w3.org/1999/xlink" x="0px" y="0px"
	 width="536.378px" height="780.521px" viewBox="0 0 536.378 780.521" enable-background="new 0 0 536.378 780.521"
	 xml:space="preserve">
<g>
	<g>
		<path fill="#6ABCC3" d="M329.795,47.392l-2.106,10.53c18.959,9.479,17.903,17.903,17.903,17.903
			c20.01,5.263,109.521,70.558,109.521,70.558c43.176,28.433,43.176,48.442,43.176,48.442
			c50.553,211.678,34.752,419.134,34.752,419.134c-26.328,106.364-67.396,119.005-67.396,119.005
			C434.049,754.024,330.852,779.3,330.852,779.3c-36.861,7.373-57.922-21.062-57.922-21.062c-20.01-28.435-41.069,0-41.069,0
			c-16.853,31.595-57.922,15.798-57.922,15.798c-17.903-3.157-101.101-38.964-101.101-38.964
			c-61.081-27.384-73.72-130.586-73.72-130.586c-1.052-20.011,5.267-153.751,5.267-153.751
			C9.3,427.212,71.786,135.853,71.786,135.853c12.635-31.595,121.105-69.508,121.105-69.508v-5.267
			c7.373-1.051,12.637-6.318,12.637-6.318l1.055-4.212l-3.161-6.318l8.424-12.636l2.175-18.333l100.026,15.161L329.795,47.392z
			 M162.352,163.23c0,0-30.543-35.806-51.604,10.534c0,0-23.17,112.683-9.479,171.655c0,0,5.267,15.797,15.798,7.373l11.584-4.212
			C128.651,348.581,138.13,358.056,162.352,163.23z"/>
	</g>
	<path fill="#19152B" d="M209.215,35.279c0,0,45.303,0.528,111.104,0.528V0H211.368L209.215,35.279z"/>
</g>
<rect x="32.689" y="385.761" fill="none" width="478" height="111"/>
<text transform="matrix(1 0 0 1 101.7114 407.6309)"><tspan x="0" y="0" font-family="'Interstate-Regular'" font-size="30">gallons of water trapped </tspan><tspan x="5.221" y="36" font-family="'Interstate-Regular'" font-size="30">in glaciers, ice caps and </tspan><tspan x="91.903" y="72" font-family="'Interstate-Regular'" font-size="30">permafrost </tspan></text>
<text transform="matrix(1 0 0 1 192.3037 288.8154)" font-family="'Interstate-Bold'" font-size="120">6.35 </text>
<text transform="matrix(1 0 0 1 207.168 350.21)" font-family="'Interstate-Bold'" font-size="50">quintillion</text>
<path fill="#19162B" d="M351.466,605.803l16.922,11.09l-19.256-19.257l19.256-19.251l-16.922,11.09l-5.821,5.822h-25.438
	l19.451-19.451l-16.967,11.117h-24.807l17.611-17.608l19.524-4.071l-26.608,0.005l17.979-17.989l7.342-0.005l19.811-4.121H326.31
	l0.005-27.226l-4.126,19.803v8.235l-17.988,17.987V534.47l-4.138,19.854l-17.539,17.545v-24.904l10.933-16.684l-18.815,18.812
	v-25.434l5.192-5.188l11.084-16.928l-19.25,19.262l-19.255-19.262l11.084,16.928l5.822,5.82v25.436l-19.441-19.444l11.107,16.96
	l0.005,24.812l-17.609-17.607l-4.073-19.526l0.01,26.609l-17.988-17.989l-0.005-7.337l-4.126-19.811l0.005,27.229h-27.238
	l19.808,4.132h8.23l17.995,17.989l-27.503-0.006l19.852,4.137l17.544,17.545l-24.909-0.005l-16.679-10.934L223.12,595.3h-25.434
	l-5.198-5.191l-16.922-11.091l19.251,19.257l-19.251,19.256l16.922-11.091l5.826-5.825h25.44l-19.452,19.455l16.96-11.117
	l24.812-0.005l-17.616,17.614l-19.521,4.065h26.609l-17.982,17.982h-7.338l-19.818,4.128h27.238v27.229l4.125-19.812v-8.23
	l17.983-17.982v27.504l4.143-19.857l17.534-17.545v24.909l-10.927,16.685l18.812-18.821v25.438l-5.188,5.193l-11.09,16.921
	l19.254-19.25l19.256,19.25l-11.09-16.921l-5.82-5.827v-25.435l19.443,19.449l-11.11-16.966v-24.812l17.608,17.614L304.646,661
	l-0.005-26.616l17.987,17.989v7.343l4.127,19.802V652.29h27.238l-19.814-4.126h-8.23l-17.994-17.989l27.51,0.005l-19.852-4.143
	l-17.557-17.539h24.914l16.686,10.934l-18.824-18.82h25.44L351.466,605.803z M291.166,593.688l31.174-6.489l-2.957,1.933
	l-6.161,6.168h-23.677l1.615-1.607h0.006V593.688L291.166,593.688z M269.315,591.533l-1.598-1.604v-1.642l1.598,1.607V591.533z
	 M265.557,595.297h-2.275l-1.148-1.159h2.263L265.557,595.297z M263.922,600.609h1.635l-1.603,1.611h-1.635L263.922,600.609z
	 M274.638,604.373l1.604,1.607v1.636l-1.604-1.609V604.373z M278.401,600.609h2.269l1.16,1.164l-2.271-0.008L278.401,600.609z
	 M278.401,595.297l1.599-1.603h1.642l-1.604,1.603H278.401z M311.292,570.23l3.696-0.774l-26.431,17.317l-0.188,0.188h-1.643
	l16.73-16.73H311.292L311.292,570.23z M282.528,581.369l17.446-26.631l-0.721,3.46v8.719l-16.731,16.732v-2.271L282.528,581.369z
	 M274.638,556.086l5.533-5.539l2.07-3.156l-6.439,30.933v0.272l-1.164,1.16V556.086z M275.791,588.111v2.263l-1.151,1.159v-2.264
	L275.791,588.111z M267.713,578.771l-6.499-31.182l1.938,2.956l6.163,6.174v23.663l-1.603-1.603L267.713,578.771L267.713,578.771z
	 M260.791,581.369l0.201,0.195v1.641l-16.743-16.738v-7.829l-0.764-3.692L260.791,581.369z M255.397,587.402l-26.636-17.448
	l3.456,0.721h8.723l16.732,16.737h-2.268L255.397,587.402z M221.414,587.694l30.936,6.438h0.265l1.165,1.165h-23.67l-5.534-5.535
	L221.414,587.694z M252.789,602.223l-31.169,6.493l2.956-1.938l6.168-6.167h23.668l-1.613,1.611H252.789L252.789,602.223z
	 M232.666,625.68l-3.704,0.771l26.436-17.312l0.185-0.193h1.646l-16.737,16.73L232.666,625.68z M261.431,614.536l-17.453,26.637
	l0.721-3.454v-8.725l16.732-16.732v2.271V614.536z M269.315,639.824l-5.535,5.534l-2.068,3.163l6.448-30.938v-0.271l1.155-1.157
	V639.824z M268.161,607.8v-2.269l1.155-1.153v2.269L268.161,607.8z M276.24,617.142l6.493,31.169l-1.927-2.95l-6.169-6.167v-23.664
	l1.603,1.603V617.142z M283.155,614.536l-0.194-0.189v-1.641l16.744,16.731v7.824l0.77,3.698L283.155,614.536z M288.56,608.505
	l26.631,17.446l-3.454-0.721h-8.719l-16.731-16.732h2.271L288.56,608.505z M322.544,608.218l-30.94-6.442h-0.261l-1.17-1.164h23.675
	l5.534,5.539L322.544,608.218z"/>
</svg>
