<?xml version="1.0" encoding="utf-8"?>
<!-- Generator: Adobe Illustrator 15.1.0, SVG Export Plug-In . SVG Version: 6.00 Build 0)  -->
<!DOCTYPE svg PUBLIC "-//W3C//DTD SVG 1.1//EN" "http://www.w3.org/Graphics/SVG/1.1/DTD/svg11.dtd">
<svg version="1.1" id="Layer_1" xmlns="http://www.w3.org/2000/svg" xmlns:xlink="http://www.w3.org/1999/xlink" x="0px" y="0px"
	 width="536.378px" height="780.521px" viewBox="0 0 536.378 780.521" enable-background="new 0 0 536.378 780.521"
	 xml:space="preserve">
<rect x="32.689" y="385.761" fill="none" width="478" height="111"/>
<g enable-background="new    ">
	<path fill="#19152B" d="M231.302,290.136c-18.719,0-33.359-10.439-33.359-33.959c0-22.079,12.959-52.678,56.518-52.678v16.319
		c-19.439,0-31.798,6.84-36.598,19.679c5.4-3.6,10.679-5.279,19.199-5.279c16.679,0,29.639,8.52,29.639,27.119
		C266.701,280.056,251.102,290.136,231.302,290.136z M232.862,249.457c-11.4,0-17.52,3.84-17.52,12.6
		c0,7.8,5.76,12.479,16.679,12.479c11.16,0,17.639-4.8,17.639-12.6C249.661,253.417,243.422,249.457,232.862,249.457z"/>
	<path fill="#19152B" d="M288.183,290.136c-6.12,0-11.279-5.16-11.279-11.28c0-6.119,5.159-11.279,11.279-11.279
		c6.119,0,11.279,5.16,11.279,11.279C299.462,284.976,294.302,290.136,288.183,290.136z"/>
	<path fill="#19152B" d="M342.06,290.136c-12.6,0-23.879-4.92-33.238-16.08l12.719-10.319c6.961,7.319,13.561,9.96,22.08,9.96
		c11.039,0,16.199-3.96,16.199-10.68c0-6.479-4.439-9.6-12.359-9.6h-9.96v-16.439h8.999c6.961,0,9.84-3,9.84-8.52
		c0-4.32-3.479-8.52-14.039-8.52c-6.48,0-11.76,2.279-16.439,7.079l-12.239-11.159c8.04-8.399,16.438-12.359,28.919-12.359
		c17.159,0,30.838,7.92,30.838,23.759c0,9.12-4.799,14.64-9.719,17.159c5.399,2.04,13.199,7.32,13.199,18.359
		C376.859,280.896,362.939,290.136,342.06,290.136z"/>
	<path fill="#19152B" d="M419.099,290.136c-12.119,0-22.199-2.4-32.758-9l8.159-14.279c7.8,4.439,16.079,7.08,24.599,7.08
		c11.4,0,18-4.801,18-13.8c0-8.76-6.359-12.479-14.279-12.479c-7.561,0-12.6,2.279-16.56,5.04l-15.96-5.88l2.881-41.998h55.918
		v16.199H408.66l-0.959,14.52c4.68-2.521,9.719-3.84,17.639-3.84c18.84,0,28.799,11.999,28.799,27.838
		C454.138,279.696,439.739,290.136,419.099,290.136z"/>
</g>
<g enable-background="new    ">
	<path fill="#19152B" d="M224.919,359.86V348.56c-1.3,1.15-3.05,2.2-5.55,2.2c-5.6,0-10.201-4.2-10.201-14.001
		c0-7.851,3.7-13.351,10.201-13.351c2.3,0,4.3,0.9,5.55,2.05v-1.5h6.9v32.452L224.919,359.86z M224.919,332.159
		c-1.05-1.45-2.65-2.25-4.65-2.25c-2.65,0-4.1,2.3-4.1,6.7c0,5.4,1.8,7.65,4.5,7.65c2.15,0,3.25-0.9,4.25-2.2V332.159z"/>
	<path fill="#19152B" d="M254.219,350.21v-1.75c-1.2,1.25-3.4,2.3-6.15,2.3c-6.7,0-9.701-4.6-9.701-12.001v-14.801h6.9v14.201
		c0,4.7,1.6,6.101,4.45,6.101c2.851,0,4.5-1.4,4.5-5.95v-14.352h6.9v26.252H254.219z"/>
	<path fill="#19152B" d="M271.518,321.809c-2.149,0-3.95-1.801-3.95-3.95c0-2.15,1.801-3.95,3.95-3.95c2.15,0,3.95,1.8,3.95,3.95
		C275.468,320.008,273.668,321.809,271.518,321.809z M268.068,350.21v-26.252h6.9v26.252H268.068z"/>
	<path fill="#19152B" d="M297.769,350.21v-14.201c0-4.7-1.6-6.1-4.45-6.1s-4.501,1.399-4.501,5.95v14.351h-6.9v-26.252h6.9v1.75
		c1.201-1.25,3.4-2.3,6.15-2.3c6.701,0,9.701,4.601,9.701,12.001v14.801H297.769z"/>
	<path fill="#19152B" d="M325.519,349.16c-1.15,0.899-3.2,1.6-5.35,1.6c-4.251,0-7.001-3.3-7.001-7.9v-12.4h-4.4v-6.501h4.4v-6.75
		l6.9-3.45v10.2h6.3v6.501h-6.3v10.551c0,2.5,0.899,3.149,2.55,3.149c1.25,0,2.201-0.55,3.9-2L325.519,349.16z"/>
	<path fill="#19152B" d="M336.667,321.809c-2.149,0-3.949-1.801-3.949-3.95c0-2.15,1.8-3.95,3.949-3.95c2.15,0,3.951,1.8,3.951,3.95
		C340.619,320.008,338.818,321.809,336.667,321.809z M333.218,350.21v-26.252h6.9v26.252H333.218z"/>
	<path fill="#19152B" d="M347.318,350.21v-33.002l6.9-3.45v36.452H347.318z"/>
	<path fill="#19152B" d="M361.417,350.21v-33.002l6.9-3.45v36.452H361.417z"/>
	<path fill="#19152B" d="M378.967,321.809c-2.149,0-3.95-1.801-3.95-3.95c0-2.15,1.801-3.95,3.95-3.95c2.15,0,3.95,1.8,3.95,3.95
		C382.917,320.008,381.118,321.809,378.967,321.809z M375.517,350.21v-26.252h6.9v26.252H375.517z"/>
	<path fill="#19152B" d="M399.869,350.76c-6.852,0-11.852-5.601-11.852-13.65c0-8.051,5-13.701,11.852-13.701
		c6.85,0,11.9,5.65,11.9,13.701C411.769,345.159,406.718,350.76,399.869,350.76z M399.869,330.059c-3.301,0-4.852,3-4.852,7.051
		c0,4.05,1.551,7,4.852,7c3.299,0,4.899-3.35,4.899-7C404.768,333.109,403.167,330.059,399.869,330.059z"/>
	<path fill="#19152B" d="M432.968,350.21v-14.201c0-4.7-1.601-6.1-4.451-6.1c-2.85,0-4.5,1.399-4.5,5.95v14.351h-6.9v-26.252h6.9
		v1.75c1.2-1.25,3.4-2.3,6.15-2.3c6.701,0,9.701,4.601,9.701,12.001v14.801H432.968z"/>
</g>
<path fill="#19162B" d="M351.466,605.803l16.922,11.09l-19.256-19.257l19.256-19.251l-16.922,11.09l-5.822,5.822h-25.438
	l19.451-19.451l-16.967,11.117h-24.809l17.611-17.606l19.523-4.071l-26.607,0.005l17.98-17.99l7.342-0.005l19.811-4.121H326.31
	l0.006-27.226l-4.127,19.803v8.235l-17.988,17.985V534.47l-4.138,19.854l-17.539,17.545v-24.904l10.933-16.684l-18.813,18.812
	v-25.434l5.19-5.188l11.084-16.928l-19.25,19.262l-19.253-19.262l11.084,16.928l5.822,5.82v25.436l-19.441-19.442l11.107,16.96
	l0.005,24.812l-17.609-17.605l-4.073-19.526l0.01,26.609l-17.988-17.989l-0.005-7.337l-4.126-19.811l0.005,27.229h-27.238
	l19.808,4.132h8.23L236,565.746l-27.503-0.006l19.852,4.137l17.544,17.545l-24.909-0.005l-16.679-10.934L223.12,595.3h-25.434
	l-5.198-5.189l-16.922-11.093l19.251,19.259l-19.251,19.256l16.922-11.091l5.826-5.825h25.44l-19.452,19.455l16.96-11.117
	l24.812-0.005l-17.616,17.613l-19.521,4.064h26.609l-17.982,17.982h-7.338l-19.818,4.128h27.238v27.229l4.125-19.812v-8.23
	l17.983-17.98v27.504l4.143-19.857l17.534-17.545v24.909l-10.927,16.685l18.812-18.819v25.438l-5.188,5.193l-11.09,16.921
	l19.254-19.25l19.256,19.25l-11.09-16.921l-5.82-5.827v-25.436l19.443,19.448l-11.11-16.966v-24.812l17.608,17.612L304.646,661
	l-0.005-26.616l17.987,17.989v7.343l4.127,19.802V652.29h27.238l-19.814-4.126h-8.23l-17.994-17.989l27.51,0.005l-19.852-4.143
	l-17.557-17.539h24.914l16.686,10.934l-18.824-18.818h25.441L351.466,605.803z M291.166,593.688l31.174-6.487l-2.957,1.933
	l-6.16,6.168h-23.678l1.615-1.605h0.006V593.688L291.166,593.688z M269.315,591.533l-1.598-1.604v-1.642l1.598,1.605V591.533z
	 M265.557,595.297h-2.275l-1.148-1.159h2.263L265.557,595.297z M263.922,600.609h1.635l-1.603,1.609h-1.635L263.922,600.609z
	 M274.638,604.373l1.604,1.607v1.636l-1.604-1.609V604.373z M278.401,600.609h2.269l1.16,1.164l-2.271-0.01L278.401,600.609z
	 M278.401,595.297l1.599-1.603h1.644l-1.604,1.603H278.401z M311.292,570.23l3.695-0.774l-26.432,17.317l-0.188,0.188h-1.644
	l16.729-16.729L311.292,570.23L311.292,570.23z M282.528,581.369l17.446-26.631l-0.721,3.46v8.719l-16.731,16.732v-2.271
	L282.528,581.369z M274.638,556.086l5.533-5.539l2.07-3.156l-6.439,30.935v0.271l-1.164,1.16V556.086z M275.791,588.111v2.263
	l-1.149,1.159v-2.264L275.791,588.111z M267.713,578.771l-6.499-31.184l1.938,2.956l6.163,6.174v23.663l-1.603-1.603
	L267.713,578.771L267.713,578.771z M260.791,581.369l0.201,0.195v1.641l-16.743-16.738v-7.829l-0.764-3.69L260.791,581.369z
	 M255.397,587.402l-26.636-17.448l3.456,0.721h8.723l16.732,16.737h-2.268L255.397,587.402z M221.414,587.694l30.936,6.438h0.265
	l1.165,1.165h-23.67l-5.534-5.535L221.414,587.694z M252.789,602.223l-31.169,6.493l2.956-1.938l6.168-6.167h23.668l-1.613,1.609
	L252.789,602.223L252.789,602.223z M232.666,625.68l-3.704,0.771l26.436-17.312l0.185-0.191h1.646l-16.737,16.729L232.666,625.68z
	 M261.431,614.536l-17.453,26.637l0.721-3.454v-8.725l16.732-16.732v2.271V614.536z M269.315,639.824l-5.535,5.534l-2.068,3.163
	l6.448-30.938v-0.271l1.155-1.157V639.824z M268.161,607.8v-2.269l1.155-1.153v2.269L268.161,607.8z M276.24,617.142l6.493,31.169
	l-1.927-2.948l-6.169-6.167V615.53l1.603,1.603V617.142z M283.155,614.536l-0.194-0.189v-1.641l16.744,16.731v7.822l0.771,3.698
	L283.155,614.536z M288.56,608.505l26.631,17.446l-3.453-0.721h-8.72l-16.731-16.732h2.271L288.56,608.505z M322.544,608.218
	l-30.94-6.44h-0.261l-1.17-1.164h23.674l5.535,5.539L322.544,608.218z"/>
<rect x="13.689" y="407.891" fill="none" width="513" height="78.87"/>
<g enable-background="new    ">
	<path fill="#19152B" d="M28.512,435.551l-1.05-2.34c4.44-0.21,5.4-1.41,5.4-4.68v-0.271c-1.14,1.05-2.43,1.83-4.08,1.83
		c-3.36,0-6.06-2.46-6.06-8.46c0-5.399,2.97-7.949,6.21-7.949c1.59,0,3.09,0.84,3.93,1.8v-1.47h3.09v14.249
		C35.952,433.061,34.212,435.37,28.512,435.551z M32.922,418.602c-0.69-0.931-2.13-2.07-3.69-2.07c-2.22,0-3.42,1.68-3.42,5.01
		c0,3.96,1.26,5.7,3.54,5.7c1.47,0,2.76-0.99,3.57-2.011V418.602z"/>
	<path fill="#19152B" d="M49.542,429.761v-1.56c-1.08,1.079-2.61,1.89-4.32,1.89c-2.55,0-5.46-1.44-5.46-5.31
		c0-3.51,2.7-5.101,6.27-5.101c1.47,0,2.64,0.211,3.51,0.601v-1.17c0-1.71-1.05-2.67-2.97-2.67c-1.62,0-2.88,0.3-4.11,0.99
		l-1.2-2.34c1.5-0.931,3.18-1.41,5.4-1.41c3.51,0,5.91,1.71,5.91,5.279v10.8H49.542z M49.542,423.041c-0.84-0.42-1.92-0.69-3.6-0.69
		c-1.979,0-3.24,0.9-3.24,2.341c0,1.56,0.99,2.609,3.03,2.609c1.65,0,3.09-1.02,3.81-2.01V423.041z"/>
	<path fill="#19152B" d="M57.162,429.761v-20.249l3.09-1.62v21.869H57.162z"/>
	<path fill="#19152B" d="M65.111,429.761v-20.249l3.09-1.62v21.869H65.111z"/>
	<path fill="#19152B" d="M79.091,430.091c-3.959,0-6.93-3.27-6.93-8.189c0-5.16,3.06-8.22,7.02-8.22c4.02,0,7.02,3.21,7.02,8.13
		C86.201,427.031,83.141,430.091,79.091,430.091z M79.062,416.621c-2.34,0-3.78,2.07-3.78,5.19c0,3.449,1.59,5.339,3.93,5.339
		s3.87-2.369,3.87-5.249C83.082,418.691,81.551,416.621,79.062,416.621z"/>
	<path fill="#19152B" d="M99.581,429.761v-8.909c0-3.181-1.2-4.32-3.24-4.32c-2.07,0-3.24,1.47-3.24,4.02v9.21h-3.09v-15.749h3.09
		v1.5c0.78-1.141,2.34-1.83,3.96-1.83c3.66,0,5.61,2.399,5.61,7.05v9.029H99.581z"/>
	<path fill="#19152B" d="M112.211,430.091c-2.13,0-4.44-0.84-6.03-2.01l1.41-2.34c1.47,1.02,3.12,1.56,4.59,1.56
		c1.95,0,2.88-0.63,2.88-1.74c0-1.199-1.38-1.77-3.66-2.64c-3.39-1.32-4.62-2.46-4.62-4.949c0-2.82,2.22-4.29,5.37-4.29
		c1.98,0,3.93,0.72,5.34,1.739l-1.35,2.37c-1.29-0.899-2.58-1.35-4.08-1.35c-1.5,0-2.16,0.6-2.16,1.439c0,0.78,0.54,1.351,2.91,2.28
		c3.51,1.35,5.31,2.31,5.31,5.279C118.121,428.921,115.301,430.091,112.211,430.091z"/>
	<path fill="#19152B" d="M136.36,430.091c-3.959,0-6.93-3.27-6.93-8.189c0-5.16,3.06-8.22,7.02-8.22c4.02,0,7.02,3.21,7.02,8.13
		C143.47,427.031,140.41,430.091,136.36,430.091z M136.331,416.621c-2.34,0-3.78,2.07-3.78,5.19c0,3.449,1.59,5.339,3.93,5.339
		s3.87-2.369,3.87-5.249C140.351,418.691,138.82,416.621,136.331,416.621z"/>
	<path fill="#19152B" d="M152.41,410.682c-1.02,0-1.44,0.39-1.44,1.53v1.8h2.91v2.88h-2.91v12.869h-3.09v-12.869h-2.04v-2.88h2.04
		v-2.07c0-2.88,1.77-3.96,3.99-3.96c0.81,0,1.68,0.12,2.34,0.3v2.7C153.49,410.771,152.95,410.682,152.41,410.682z"/>
	<path fill="#19152B" d="M180.16,429.761h-2.64l-2.13-7.949c-0.33-1.2-0.66-2.61-0.81-3.36c-0.15,0.75-0.48,2.19-0.81,3.39
		l-2.1,7.92h-2.64l-4.319-15.749h3.06l1.86,7.649c0.3,1.2,0.63,2.7,0.78,3.45c0.18-0.78,0.54-2.221,0.87-3.45l2.1-7.649h2.49
		l2.13,7.68c0.33,1.229,0.66,2.64,0.84,3.42c0.18-0.78,0.48-2.25,0.78-3.45l1.86-7.649h3.06L180.16,429.761z"/>
	<path fill="#19152B" d="M196,429.761v-1.56c-1.08,1.079-2.61,1.89-4.32,1.89c-2.55,0-5.46-1.44-5.46-5.31
		c0-3.51,2.7-5.101,6.27-5.101c1.47,0,2.64,0.211,3.51,0.601v-1.17c0-1.71-1.05-2.67-2.97-2.67c-1.62,0-2.88,0.3-4.11,0.99
		l-1.2-2.34c1.5-0.931,3.18-1.41,5.4-1.41c3.51,0,5.91,1.71,5.91,5.279v10.8H196z M196,423.041c-0.84-0.42-1.92-0.69-3.6-0.69
		c-1.979,0-3.24,0.9-3.24,2.341c0,1.56,0.99,2.609,3.03,2.609c1.65,0,3.09-1.02,3.81-2.01V423.041z"/>
	<path fill="#19152B" d="M211,429.371c-0.75,0.42-1.8,0.72-3.03,0.72c-2.19,0-3.54-1.35-3.54-4.17v-9.09h-2.25v-2.819h2.25v-4.5
		l3.03-1.62v6.12h3.9v2.819h-3.9v8.55c0,1.47,0.48,1.89,1.62,1.89c0.81,0,1.71-0.3,2.28-0.63L211,429.371z"/>
	<path fill="#19152B" d="M227.649,422.981h-10.41c0.33,3.029,2.04,4.319,3.96,4.319c1.32,0,2.37-0.479,3.42-1.26l1.83,1.979
		c-1.38,1.32-3.03,2.07-5.43,2.07c-3.69,0-6.81-2.97-6.81-8.189c0-5.34,2.82-8.22,6.9-8.22c4.47,0,6.63,3.63,6.63,7.89
		C227.74,422.141,227.68,422.651,227.649,422.981z M220.9,416.472c-2.07,0-3.33,1.439-3.6,3.959h7.32
		C224.47,418.271,223.45,416.472,220.9,416.472z"/>
	<path fill="#19152B" d="M240.129,417.281c-0.66-0.36-1.35-0.57-2.37-0.57c-1.95,0-3.09,1.38-3.09,4.05v9h-3.09v-15.749h3.09v1.5
		c0.72-1.051,2.04-1.83,3.6-1.83c1.26,0,2.04,0.239,2.67,0.66L240.129,417.281z"/>
	<path fill="#19152B" d="M259.749,429.371c-0.75,0.42-1.8,0.72-3.03,0.72c-2.19,0-3.54-1.35-3.54-4.17v-9.09h-2.25v-2.819h2.25v-4.5
		l3.03-1.62v6.12h3.9v2.819h-3.9v8.55c0,1.47,0.48,1.89,1.62,1.89c0.81,0,1.71-0.3,2.28-0.63L259.749,429.371z"/>
	<path fill="#19152B" d="M272.859,417.281c-0.66-0.36-1.35-0.57-2.369-0.57c-1.95,0-3.09,1.38-3.09,4.05v9h-3.09v-15.749h3.09v1.5
		c0.72-1.051,2.04-1.83,3.6-1.83c1.26,0,2.04,0.239,2.67,0.66L272.859,417.281z"/>
	<path fill="#19152B" d="M284.83,429.761v-1.56c-1.08,1.079-2.609,1.89-4.32,1.89c-2.549,0-5.459-1.44-5.459-5.31
		c0-3.51,2.699-5.101,6.27-5.101c1.47,0,2.64,0.211,3.51,0.601v-1.17c0-1.71-1.05-2.67-2.97-2.67c-1.62,0-2.88,0.3-4.11,0.99
		l-1.199-2.34c1.5-0.931,3.18-1.41,5.399-1.41c3.51,0,5.909,1.71,5.909,5.279v10.8H284.83z M284.83,423.041
		c-0.84-0.42-1.92-0.69-3.6-0.69c-1.98,0-3.24,0.9-3.24,2.341c0,1.56,0.99,2.609,3.029,2.609c1.65,0,3.09-1.02,3.811-2.01V423.041z"
		/>
	<path fill="#19152B" d="M299.32,430.091c-1.591,0-3.09-0.84-3.961-1.8v5.67l-3.06,1.59v-21.539h3.06v1.5
		c1.141-1.051,2.461-1.83,4.11-1.83c3.39,0,6.06,2.46,6.06,8.459C305.529,427.541,302.589,430.091,299.32,430.091z M298.899,416.531
		c-1.47,0-2.76,0.99-3.569,2.01v6.63c0.689,0.93,2.13,2.07,3.689,2.07c2.221,0,3.42-1.681,3.42-5.01
		C302.439,418.271,301.179,416.531,298.899,416.531z"/>
	<path fill="#19152B" d="M316.419,430.091c-1.591,0-3.09-0.84-3.961-1.8v5.67l-3.06,1.59v-21.539h3.06v1.5
		c1.141-1.051,2.461-1.83,4.11-1.83c3.39,0,6.06,2.46,6.06,8.459C322.628,427.541,319.689,430.091,316.419,430.091z
		 M315.999,416.531c-1.47,0-2.76,0.99-3.569,2.01v6.63c0.689,0.93,2.13,2.07,3.689,2.07c2.221,0,3.42-1.681,3.42-5.01
		C319.539,418.271,318.279,416.531,315.999,416.531z"/>
	<path fill="#19152B" d="M339.189,422.981h-10.41c0.33,3.029,2.04,4.319,3.96,4.319c1.32,0,2.37-0.479,3.42-1.26l1.83,1.979
		c-1.38,1.32-3.03,2.07-5.43,2.07c-3.69,0-6.81-2.97-6.81-8.189c0-5.34,2.819-8.22,6.899-8.22c4.47,0,6.63,3.63,6.63,7.89
		C339.279,422.141,339.218,422.651,339.189,422.981z M332.439,416.472c-2.07,0-3.33,1.439-3.6,3.959h7.319
		C336.008,418.271,334.989,416.472,332.439,416.472z"/>
	<path fill="#19152B" d="M352.598,429.761v-1.5c-1.141,1.05-2.46,1.83-4.11,1.83c-3.39,0-6.06-2.46-6.06-8.46
		c0-5.399,2.94-7.949,6.21-7.949c1.59,0,3.09,0.84,3.96,1.8v-6l3.06-1.59v21.869H352.598z M352.627,418.602
		c-0.689-0.931-2.13-2.07-3.689-2.07c-2.22,0-3.42,1.68-3.42,5.01c0,3.96,1.26,5.7,3.54,5.7c1.47,0,2.76-0.99,3.569-2.011V418.602z"
		/>
	<path fill="#19152B" d="M370.028,411.972c-1.11,0-2.011-0.9-2.011-1.98c0-1.109,0.9-2.01,2.011-2.01c1.079,0,1.979,0.9,1.979,2.01
		C372.007,411.071,371.107,411.972,370.028,411.972z M368.467,429.761v-15.749h3.09v15.749H368.467z"/>
	<path fill="#19152B" d="M385.837,429.761v-8.909c0-3.181-1.2-4.32-3.24-4.32c-2.069,0-3.239,1.47-3.239,4.02v9.21h-3.09v-15.749
		h3.09v1.5c0.779-1.141,2.34-1.83,3.96-1.83c3.659,0,5.609,2.399,5.609,7.05v9.029H385.837z"/>
	<path fill="#19152B" d="M406.567,435.551l-1.05-2.34c4.439-0.21,5.399-1.41,5.399-4.68v-0.271c-1.14,1.05-2.43,1.83-4.08,1.83
		c-3.359,0-6.06-2.46-6.06-8.46c0-5.399,2.97-7.949,6.21-7.949c1.59,0,3.09,0.84,3.93,1.8v-1.47h3.09v14.249
		C414.006,433.061,412.266,435.37,406.567,435.551z M410.976,418.602c-0.689-0.931-2.13-2.07-3.689-2.07
		c-2.22,0-3.42,1.68-3.42,5.01c0,3.96,1.26,5.7,3.54,5.7c1.47,0,2.76-0.99,3.569-2.011V418.602z"/>
	<path fill="#19152B" d="M418.717,429.761v-20.249l3.09-1.62v21.869H418.717z"/>
	<path fill="#19152B" d="M435.546,429.761v-1.56c-1.08,1.079-2.61,1.89-4.32,1.89c-2.55,0-5.459-1.44-5.459-5.31
		c0-3.51,2.699-5.101,6.27-5.101c1.47,0,2.64,0.211,3.51,0.601v-1.17c0-1.71-1.05-2.67-2.97-2.67c-1.62,0-2.88,0.3-4.11,0.99
		l-1.199-2.34c1.5-0.931,3.18-1.41,5.399-1.41c3.51,0,5.91,1.71,5.91,5.279v10.8H435.546z M435.546,423.041
		c-0.84-0.42-1.92-0.69-3.6-0.69c-1.98,0-3.24,0.9-3.24,2.341c0,1.56,0.99,2.609,3.03,2.609c1.649,0,3.09-1.02,3.81-2.01V423.041z"
		/>
	<path fill="#19152B" d="M452.917,418.541c-1.29-1.319-2.43-1.92-3.84-1.92c-2.25,0-3.69,2.01-3.69,5.22c0,3.09,1.32,5.31,3.78,5.31
		c1.47,0,2.34-0.659,3.569-1.949l1.98,1.949c-1.23,1.561-2.79,2.94-5.64,2.94c-3.84,0-6.81-3.24-6.81-8.16
		c0-5.22,3.06-8.249,6.899-8.249c2.31,0,4.109,0.93,5.58,2.67L452.917,418.541z"/>
	<path fill="#19152B" d="M460.386,411.972c-1.11,0-2.011-0.9-2.011-1.98c0-1.109,0.9-2.01,2.011-2.01c1.079,0,1.979,0.9,1.979,2.01
		C462.366,411.071,461.465,411.972,460.386,411.972z M458.826,429.761v-15.749h3.09v15.749H458.826z"/>
	<path fill="#19152B" d="M479.316,422.981h-10.41c0.33,3.029,2.04,4.319,3.96,4.319c1.32,0,2.37-0.479,3.42-1.26l1.83,1.979
		c-1.38,1.32-3.03,2.07-5.43,2.07c-3.69,0-6.81-2.97-6.81-8.189c0-5.34,2.819-8.22,6.899-8.22c4.47,0,6.63,3.63,6.63,7.89
		C479.406,422.141,479.345,422.651,479.316,422.981z M472.566,416.472c-2.07,0-3.33,1.439-3.6,3.959h7.319
		C476.135,418.271,475.116,416.472,472.566,416.472z"/>
	<path fill="#19152B" d="M491.795,417.281c-0.659-0.36-1.35-0.57-2.369-0.57c-1.95,0-3.09,1.38-3.09,4.05v9h-3.09v-15.749h3.09v1.5
		c0.72-1.051,2.04-1.83,3.6-1.83c1.26,0,2.04,0.239,2.67,0.66L491.795,417.281z"/>
	<path fill="#19152B" d="M500.287,430.091c-2.13,0-4.44-0.84-6.03-2.01l1.41-2.34c1.47,1.02,3.12,1.56,4.59,1.56
		c1.95,0,2.88-0.63,2.88-1.74c0-1.199-1.38-1.77-3.66-2.64c-3.39-1.32-4.619-2.46-4.619-4.949c0-2.82,2.22-4.29,5.369-4.29
		c1.98,0,3.931,0.72,5.34,1.739l-1.35,2.37c-1.29-0.899-2.58-1.35-4.08-1.35s-2.16,0.6-2.16,1.439c0,0.78,0.54,1.351,2.91,2.28
		c3.51,1.35,5.31,2.31,5.31,5.279C506.196,428.921,503.376,430.091,500.287,430.091z"/>
	<path fill="#19152B" d="M511.296,433.541h-2.13l0.449-7.95h3.93L511.296,433.541z"/>
</g>
<g enable-background="new    ">
	<path fill="#19152B" d="M106.377,447.972c-1.11,0-2.01-0.9-2.01-1.98c0-1.109,0.9-2.01,2.01-2.01c1.08,0,1.98,0.9,1.98,2.01
		C108.357,447.071,107.457,447.972,106.377,447.972z M104.817,465.761v-15.749h3.09v15.749H104.817z"/>
	<path fill="#19152B" d="M122.517,454.541c-1.29-1.319-2.43-1.92-3.84-1.92c-2.25,0-3.69,2.01-3.69,5.22c0,3.09,1.32,5.31,3.78,5.31
		c1.47,0,2.34-0.659,3.57-1.949l1.98,1.949c-1.23,1.561-2.79,2.94-5.64,2.94c-3.84,0-6.81-3.24-6.81-8.16
		c0-5.22,3.06-8.249,6.9-8.249c2.31,0,4.11,0.93,5.58,2.67L122.517,454.541z"/>
	<path fill="#19152B" d="M140.456,458.981h-10.41c0.33,3.029,2.04,4.319,3.96,4.319c1.32,0,2.37-0.479,3.42-1.26l1.83,1.979
		c-1.38,1.32-3.03,2.07-5.43,2.07c-3.69,0-6.81-2.97-6.81-8.189c0-5.34,2.82-8.22,6.9-8.22c4.47,0,6.63,3.63,6.63,7.89
		C140.546,458.141,140.486,458.651,140.456,458.981z M133.707,452.472c-2.07,0-3.33,1.439-3.6,3.959h7.32
		C137.276,454.271,136.256,452.472,133.707,452.472z"/>
	<path fill="#19152B" d="M162.386,454.541c-1.29-1.319-2.43-1.92-3.84-1.92c-2.25,0-3.69,2.01-3.69,5.22c0,3.09,1.32,5.31,3.78,5.31
		c1.47,0,2.34-0.659,3.57-1.949l1.98,1.949c-1.23,1.561-2.79,2.94-5.64,2.94c-3.84,0-6.81-3.24-6.81-8.16
		c0-5.22,3.06-8.249,6.9-8.249c2.31,0,4.11,0.93,5.58,2.67L162.386,454.541z"/>
	<path fill="#19152B" d="M176.666,465.761v-1.56c-1.08,1.079-2.61,1.89-4.32,1.89c-2.55,0-5.46-1.44-5.46-5.31
		c0-3.51,2.7-5.101,6.27-5.101c1.47,0,2.64,0.211,3.51,0.601v-1.17c0-1.71-1.05-2.67-2.97-2.67c-1.62,0-2.88,0.3-4.11,0.99
		l-1.2-2.34c1.5-0.931,3.18-1.41,5.4-1.41c3.51,0,5.91,1.71,5.91,5.279v10.8H176.666z M176.666,459.041
		c-0.84-0.42-1.92-0.69-3.6-0.69c-1.979,0-3.24,0.9-3.24,2.341c0,1.56,0.99,2.609,3.03,2.609c1.65,0,3.09-1.02,3.81-2.01V459.041z"
		/>
	<path fill="#19152B" d="M191.155,466.091c-1.59,0-3.09-0.84-3.96-1.8v5.67l-3.06,1.59v-21.539h3.06v1.5
		c1.14-1.051,2.46-1.83,4.11-1.83c3.39,0,6.06,2.46,6.06,8.459C197.365,463.541,194.425,466.091,191.155,466.091z M190.735,452.531
		c-1.47,0-2.76,0.99-3.57,2.01v6.63c0.69,0.93,2.13,2.07,3.69,2.07c2.22,0,3.42-1.681,3.42-5.01
		C194.275,454.271,193.015,452.531,190.735,452.531z"/>
	<path fill="#19152B" d="M206.095,466.091c-2.13,0-4.44-0.84-6.03-2.01l1.41-2.34c1.47,1.02,3.12,1.56,4.59,1.56
		c1.95,0,2.88-0.63,2.88-1.74c0-1.199-1.38-1.77-3.66-2.64c-3.39-1.32-4.62-2.46-4.62-4.949c0-2.82,2.22-4.29,5.37-4.29
		c1.98,0,3.93,0.72,5.34,1.739l-1.35,2.37c-1.29-0.899-2.58-1.35-4.08-1.35c-1.5,0-2.16,0.6-2.16,1.439c0,0.78,0.54,1.351,2.91,2.28
		c3.51,1.35,5.31,2.31,5.31,5.279C212.005,464.921,209.185,466.091,206.095,466.091z"/>
	<path fill="#19152B" d="M233.094,465.761v-1.56c-1.08,1.079-2.61,1.89-4.32,1.89c-2.55,0-5.46-1.44-5.46-5.31
		c0-3.51,2.7-5.101,6.27-5.101c1.47,0,2.64,0.211,3.51,0.601v-1.17c0-1.71-1.05-2.67-2.97-2.67c-1.62,0-2.88,0.3-4.11,0.99
		l-1.2-2.34c1.5-0.931,3.18-1.41,5.4-1.41c3.51,0,5.91,1.71,5.91,5.279v10.8H233.094z M233.094,459.041
		c-0.84-0.42-1.92-0.69-3.6-0.69c-1.979,0-3.24,0.9-3.24,2.341c0,1.56,0.99,2.609,3.03,2.609c1.65,0,3.09-1.02,3.81-2.01V459.041z"
		/>
	<path fill="#19152B" d="M250.134,465.761v-8.909c0-3.181-1.2-4.32-3.24-4.32c-2.07,0-3.24,1.47-3.24,4.02v9.21h-3.09v-15.749h3.09
		v1.5c0.78-1.141,2.34-1.83,3.96-1.83c3.66,0,5.61,2.399,5.61,7.05v9.029H250.134z"/>
	<path fill="#19152B" d="M267.144,465.761v-1.5c-1.14,1.05-2.46,1.83-4.11,1.83c-3.39,0-6.06-2.46-6.06-8.46
		c0-5.399,2.94-7.949,6.21-7.949c1.59,0,3.09,0.84,3.96,1.8v-6l3.06-1.59v21.869H267.144z M267.174,454.602
		c-0.69-0.931-2.13-2.07-3.69-2.07c-2.22,0-3.42,1.68-3.42,5.01c0,3.96,1.26,5.7,3.54,5.7c1.47,0,2.76-0.99,3.57-2.011V454.602z"/>
	<path fill="#19152B" d="M289.883,466.091c-1.591,0-3.09-0.84-3.96-1.8v5.67l-3.061,1.59v-21.539h3.061v1.5
		c1.14-1.051,2.46-1.83,4.109-1.83c3.391,0,6.061,2.46,6.061,8.459C296.093,463.541,293.153,466.091,289.883,466.091z
		 M289.463,452.531c-1.47,0-2.761,0.99-3.57,2.01v6.63c0.69,0.93,2.13,2.07,3.69,2.07c2.22,0,3.42-1.681,3.42-5.01
		C293.003,454.271,291.744,452.531,289.463,452.531z"/>
	<path fill="#19152B" d="M312.653,458.981h-10.409c0.33,3.029,2.039,4.319,3.959,4.319c1.32,0,2.371-0.479,3.42-1.26l1.83,1.979
		c-1.379,1.32-3.029,2.07-5.43,2.07c-3.689,0-6.81-2.97-6.81-8.189c0-5.34,2.819-8.22,6.899-8.22c4.471,0,6.631,3.63,6.631,7.89
		C312.744,458.141,312.683,458.651,312.653,458.981z M305.904,452.472c-2.07,0-3.33,1.439-3.601,3.959h7.319
		C309.473,454.271,308.453,452.472,305.904,452.472z"/>
	<path fill="#19152B" d="M325.132,453.281c-0.66-0.36-1.35-0.57-2.37-0.57c-1.95,0-3.09,1.38-3.09,4.05v9h-3.09v-15.749h3.09v1.5
		c0.72-1.051,2.04-1.83,3.601-1.83c1.26,0,2.039,0.239,2.67,0.66L325.132,453.281z"/>
	<path fill="#19152B" d="M347.421,465.761v-8.909c0-3.181-0.989-4.32-3.029-4.32c-2.07,0-3.029,1.47-3.029,4.02v9.21h-3.09v-8.909
		c0-3.181-0.99-4.32-3.03-4.32c-2.07,0-3.03,1.47-3.03,4.02v9.21h-3.09v-15.749h3.09v1.5c0.78-1.141,2.13-1.83,3.75-1.83
		c2.13,0,3.48,0.81,4.32,2.31c1.14-1.41,2.369-2.31,4.829-2.31c3.66,0,5.399,2.399,5.399,7.05v9.029H347.421z"/>
	<path fill="#19152B" d="M363.982,465.761v-1.56c-1.08,1.079-2.609,1.89-4.319,1.89c-2.55,0-5.46-1.44-5.46-5.31
		c0-3.51,2.7-5.101,6.27-5.101c1.471,0,2.641,0.211,3.51,0.601v-1.17c0-1.71-1.049-2.67-2.969-2.67c-1.621,0-2.881,0.3-4.11,0.99
		l-1.2-2.34c1.5-0.931,3.18-1.41,5.4-1.41c3.51,0,5.909,1.71,5.909,5.279v10.8H363.982z M363.982,459.041
		c-0.84-0.42-1.92-0.69-3.6-0.69c-1.979,0-3.24,0.9-3.24,2.341c0,1.56,0.99,2.609,3.03,2.609c1.649,0,3.09-1.02,3.81-2.01V459.041z"
		/>
	<path fill="#19152B" d="M377.033,446.682c-1.021,0-1.44,0.39-1.44,1.53v1.8h2.909v2.88h-2.909v12.869h-3.09v-12.869h-2.04v-2.88
		h2.04v-2.07c0-2.88,1.77-3.96,3.989-3.96c0.811,0,1.68,0.12,2.34,0.3v2.7C378.112,446.771,377.572,446.682,377.033,446.682z"/>
	<path fill="#19152B" d="M390.862,453.281c-0.66-0.36-1.351-0.57-2.37-0.57c-1.949,0-3.09,1.38-3.09,4.05v9h-3.09v-15.749h3.09v1.5
		c0.721-1.051,2.04-1.83,3.6-1.83c1.26,0,2.041,0.239,2.67,0.66L390.862,453.281z"/>
	<path fill="#19152B" d="M400.282,466.091c-3.96,0-6.93-3.27-6.93-8.189c0-5.16,3.06-8.22,7.021-8.22c4.02,0,7.02,3.21,7.02,8.13
		C407.392,463.031,404.332,466.091,400.282,466.091z M400.251,452.621c-2.34,0-3.779,2.07-3.779,5.19c0,3.449,1.59,5.339,3.93,5.339
		s3.87-2.369,3.87-5.249C404.272,454.691,402.742,452.621,400.251,452.621z"/>
	<path fill="#19152B" d="M416.002,466.091c-2.13,0-4.44-0.84-6.03-2.01l1.41-2.34c1.47,1.02,3.12,1.56,4.59,1.56
		c1.95,0,2.88-0.63,2.88-1.74c0-1.199-1.38-1.77-3.66-2.64c-3.39-1.32-4.619-2.46-4.619-4.949c0-2.82,2.22-4.29,5.369-4.29
		c1.98,0,3.931,0.72,5.34,1.739l-1.35,2.37c-1.29-0.899-2.58-1.35-4.08-1.35s-2.16,0.6-2.16,1.439c0,0.78,0.54,1.351,2.91,2.28
		c3.51,1.35,5.31,2.31,5.31,5.279C421.912,464.921,419.092,466.091,416.002,466.091z"/>
	<path fill="#19152B" d="M433.102,465.371c-0.75,0.42-1.8,0.72-3.03,0.72c-2.189,0-3.539-1.35-3.539-4.17v-9.09h-2.25v-2.819h2.25
		v-4.5l3.029-1.62v6.12h3.9v2.819h-3.9v8.55c0,1.47,0.48,1.89,1.62,1.89c0.81,0,1.71-0.3,2.28-0.63L433.102,465.371z"/>
</g>
</svg>
