<?xml version="1.0" encoding="utf-8"?>
<!-- Generator: Adobe Illustrator 15.1.0, SVG Export Plug-In . SVG Version: 6.00 Build 0)  -->
<!DOCTYPE svg PUBLIC "-//W3C//DTD SVG 1.1//EN" "http://www.w3.org/Graphics/SVG/1.1/DTD/svg11.dtd">
<svg version="1.1" id="Layer_1" xmlns="http://www.w3.org/2000/svg" xmlns:xlink="http://www.w3.org/1999/xlink" x="0px" y="0px"
	 width="536.378px" height="780.521px" viewBox="0 0 536.378 780.521" enable-background="new 0 0 536.378 780.521"
	 xml:space="preserve">
<g enable-background="new    ">
	<path fill="#19152B" d="M247.442,290.136c-12.6,0-23.879-4.92-33.239-16.08l12.719-10.319c6.96,7.319,13.56,9.96,22.079,9.96
		c11.04,0,16.199-3.96,16.199-10.68c0-6.479-4.439-9.6-12.359-9.6h-9.959v-16.439h9c6.96,0,9.84-3,9.84-8.52
		c0-4.32-3.48-8.52-14.04-8.52c-6.48,0-11.759,2.279-16.439,7.079l-12.239-11.159c8.04-8.399,16.439-12.359,28.918-12.359
		c17.16,0,30.839,7.92,30.839,23.759c0,9.12-4.801,14.64-9.721,17.159c5.4,2.04,13.2,7.32,13.2,18.359
		C282.241,280.896,268.321,290.136,247.442,290.136z"/>
	<path fill="#19152B" d="M292.443,288.815c0.48-28.799,18.119-41.278,38.639-50.278c7.2-3.119,9.48-6.479,9.48-10.079
		c0-4.32-3.721-8.52-13.8-8.52c-9.96,0-17.999,4.439-23.88,10.079l-10.799-12.6c8.879-8.999,20.76-13.919,34.078-13.919
		c19.92,0,31.199,8.039,31.199,24.119c0,13.56-7.32,19.439-21.6,26.039c-14.879,6.84-20.639,12.479-22.199,18.959h44.639v16.199
		H292.443z"/>
	<path fill="#19152B" d="M401.523,290.136c-18.72,0-33.359-10.439-33.359-33.959c0-22.079,12.959-52.678,56.518-52.678v16.319
		c-19.439,0-31.799,6.84-36.598,19.679c5.398-3.6,10.68-5.279,19.199-5.279c16.679,0,29.639,8.52,29.639,27.119
		C436.921,280.056,421.322,290.136,401.523,290.136z M403.082,249.457c-11.398,0-17.519,3.84-17.519,12.6
		c0,7.8,5.76,12.479,16.679,12.479c11.16,0,17.641-4.8,17.641-12.6C419.882,253.417,413.642,249.457,403.082,249.457z"/>
</g>
<rect x="32.689" y="381.761" fill="none" width="468" height="82"/>
<g enable-background="new    ">
	<path fill="#19152B" d="M99.126,409.421l-1.05-2.34c4.44-0.21,5.4-1.41,5.4-4.68v-0.271c-1.14,1.05-2.43,1.83-4.08,1.83
		c-3.36,0-6.06-2.46-6.06-8.46c0-5.399,2.97-7.949,6.21-7.949c1.59,0,3.09,0.84,3.93,1.8v-1.47h3.09v14.249
		C106.566,406.931,104.826,409.24,99.126,409.421z M103.536,392.472c-0.69-0.931-2.13-2.07-3.69-2.07c-2.22,0-3.42,1.68-3.42,5.01
		c0,3.96,1.26,5.7,3.54,5.7c1.47,0,2.76-0.99,3.57-2.011V392.472z"/>
	<path fill="#19152B" d="M120.156,403.631v-1.56c-1.08,1.079-2.61,1.89-4.32,1.89c-2.55,0-5.46-1.44-5.46-5.31
		c0-3.51,2.7-5.101,6.27-5.101c1.47,0,2.64,0.211,3.51,0.601v-1.17c0-1.71-1.05-2.67-2.97-2.67c-1.62,0-2.88,0.3-4.11,0.99
		l-1.2-2.34c1.5-0.931,3.18-1.41,5.4-1.41c3.51,0,5.91,1.71,5.91,5.279v10.8H120.156z M120.156,396.911
		c-0.84-0.42-1.92-0.69-3.6-0.69c-1.979,0-3.24,0.9-3.24,2.341c0,1.56,0.99,2.609,3.03,2.609c1.65,0,3.09-1.02,3.81-2.01V396.911z"
		/>
	<path fill="#19152B" d="M127.776,403.631v-20.249l3.09-1.62v21.869H127.776z"/>
	<path fill="#19152B" d="M135.726,403.631v-20.249l3.09-1.62v21.869H135.726z"/>
	<path fill="#19152B" d="M149.706,403.961c-3.959,0-6.93-3.27-6.93-8.189c0-5.16,3.06-8.22,7.02-8.22c4.02,0,7.02,3.21,7.02,8.13
		C156.815,400.901,153.755,403.961,149.706,403.961z M149.676,390.491c-2.34,0-3.78,2.07-3.78,5.19c0,3.449,1.59,5.339,3.93,5.339
		s3.87-2.369,3.87-5.249C153.696,392.562,152.166,390.491,149.676,390.491z"/>
	<path fill="#19152B" d="M170.195,403.631v-8.909c0-3.181-1.2-4.32-3.24-4.32c-2.07,0-3.24,1.47-3.24,4.02v9.21h-3.09v-15.749h3.09
		v1.5c0.78-1.141,2.34-1.83,3.96-1.83c3.66,0,5.61,2.399,5.61,7.05v9.029H170.195z"/>
	<path fill="#19152B" d="M182.825,403.961c-2.13,0-4.44-0.84-6.03-2.01l1.41-2.34c1.47,1.02,3.12,1.56,4.59,1.56
		c1.95,0,2.88-0.63,2.88-1.74c0-1.199-1.38-1.77-3.66-2.64c-3.39-1.32-4.62-2.46-4.62-4.949c0-2.82,2.22-4.29,5.37-4.29
		c1.98,0,3.93,0.72,5.34,1.739l-1.35,2.37c-1.29-0.899-2.58-1.35-4.08-1.35c-1.5,0-2.16,0.6-2.16,1.439c0,0.78,0.54,1.351,2.91,2.28
		c3.51,1.35,5.31,2.31,5.31,5.279C188.735,402.791,185.915,403.961,182.825,403.961z"/>
	<path fill="#19152B" d="M206.975,403.961c-3.959,0-6.93-3.27-6.93-8.189c0-5.16,3.06-8.22,7.02-8.22c4.02,0,7.02,3.21,7.02,8.13
		C214.084,400.901,211.024,403.961,206.975,403.961z M206.945,390.491c-2.34,0-3.78,2.07-3.78,5.19c0,3.449,1.59,5.339,3.93,5.339
		s3.87-2.369,3.87-5.249C210.965,392.562,209.435,390.491,206.945,390.491z"/>
	<path fill="#19152B" d="M223.024,384.552c-1.02,0-1.44,0.39-1.44,1.53v1.8h2.91v2.88h-2.91v12.869h-3.09v-12.869h-2.04v-2.88h2.04
		v-2.07c0-2.88,1.77-3.96,3.99-3.96c0.81,0,1.68,0.12,2.34,0.3v2.7C224.104,384.642,223.564,384.552,223.024,384.552z"/>
	<path fill="#19152B" d="M250.774,403.631h-2.64l-2.13-7.949c-0.33-1.2-0.66-2.61-0.81-3.36c-0.15,0.75-0.48,2.19-0.81,3.39
		l-2.1,7.92h-2.64l-4.319-15.749h3.06l1.86,7.649c0.3,1.2,0.63,2.7,0.78,3.45c0.18-0.78,0.54-2.221,0.87-3.45l2.1-7.649h2.49
		l2.13,7.68c0.33,1.229,0.66,2.64,0.84,3.42c0.18-0.78,0.48-2.25,0.78-3.45l1.86-7.649h3.06L250.774,403.631z"/>
	<path fill="#19152B" d="M266.614,403.631v-1.56c-1.08,1.079-2.61,1.89-4.32,1.89c-2.55,0-5.46-1.44-5.46-5.31
		c0-3.51,2.7-5.101,6.27-5.101c1.47,0,2.64,0.211,3.51,0.601v-1.17c0-1.71-1.05-2.67-2.97-2.67c-1.62,0-2.88,0.3-4.11,0.99
		l-1.2-2.34c1.5-0.931,3.18-1.41,5.4-1.41c3.51,0,5.91,1.71,5.91,5.279v10.8H266.614z M266.614,396.911
		c-0.84-0.42-1.92-0.69-3.6-0.69c-1.979,0-3.24,0.9-3.24,2.341c0,1.56,0.99,2.609,3.03,2.609c1.65,0,3.09-1.02,3.81-2.01V396.911z"
		/>
	<path fill="#19152B" d="M281.614,403.241c-0.75,0.42-1.8,0.72-3.03,0.72c-2.189,0-3.539-1.35-3.539-4.17v-9.09h-2.25v-2.819h2.25
		v-4.5l3.029-1.62v6.12h3.9v2.819h-3.9v8.55c0,1.47,0.48,1.89,1.62,1.89c0.81,0,1.71-0.3,2.28-0.63L281.614,403.241z"/>
	<path fill="#19152B" d="M298.263,396.852h-10.409c0.33,3.029,2.04,4.319,3.96,4.319c1.32,0,2.37-0.479,3.42-1.26l1.83,1.979
		c-1.38,1.32-3.029,2.07-5.43,2.07c-3.689,0-6.811-2.97-6.811-8.189c0-5.34,2.82-8.22,6.9-8.22c4.47,0,6.63,3.63,6.63,7.89
		C298.354,396.011,298.294,396.521,298.263,396.852z M291.514,390.342c-2.069,0-3.33,1.439-3.601,3.959h7.32
		C295.083,392.142,294.064,390.342,291.514,390.342z"/>
	<path fill="#19152B" d="M310.744,391.151c-0.66-0.36-1.35-0.57-2.37-0.57c-1.95,0-3.09,1.38-3.09,4.05v9h-3.09v-15.749h3.09v1.5
		c0.72-1.051,2.04-1.83,3.601-1.83c1.26,0,2.039,0.239,2.67,0.66L310.744,391.151z"/>
	<path fill="#19152B" d="M329.013,403.961c-3.959,0-6.93-3.27-6.93-8.189c0-5.16,3.061-8.22,7.02-8.22c4.02,0,7.02,3.21,7.02,8.13
		C336.123,400.901,333.063,403.961,329.013,403.961z M328.984,390.491c-2.34,0-3.78,2.07-3.78,5.19c0,3.449,1.59,5.339,3.93,5.339
		s3.87-2.369,3.87-5.249C333.003,392.562,331.473,390.491,328.984,390.491z"/>
	<path fill="#19152B" d="M349.503,403.631v-8.909c0-3.181-1.2-4.32-3.24-4.32c-2.07,0-3.24,1.47-3.24,4.02v9.21h-3.09v-15.749h3.09
		v1.5c0.781-1.141,2.34-1.83,3.961-1.83c3.659,0,5.609,2.399,5.609,7.05v9.029H349.503z"/>
	<path fill="#19152B" d="M365.583,403.631v-20.999h13.529v3.06h-10.38v5.19h6.03v3.06h-6.03v6.63h10.829v3.06H365.583z"/>
	<path fill="#19152B" d="M392.162,403.631v-1.56c-1.08,1.079-2.609,1.89-4.319,1.89c-2.55,0-5.46-1.44-5.46-5.31
		c0-3.51,2.7-5.101,6.27-5.101c1.471,0,2.641,0.211,3.51,0.601v-1.17c0-1.71-1.049-2.67-2.969-2.67c-1.621,0-2.881,0.3-4.11,0.99
		l-1.2-2.34c1.5-0.931,3.18-1.41,5.4-1.41c3.51,0,5.909,1.71,5.909,5.279v10.8H392.162z M392.162,396.911
		c-0.84-0.42-1.92-0.69-3.6-0.69c-1.979,0-3.24,0.9-3.24,2.341c0,1.56,0.99,2.609,3.03,2.609c1.649,0,3.09-1.02,3.81-2.01V396.911z"
		/>
	<path fill="#19152B" d="M408.182,391.151c-0.66-0.36-1.35-0.57-2.37-0.57c-1.95,0-3.09,1.38-3.09,4.05v9h-3.09v-15.749h3.09v1.5
		c0.72-1.051,2.04-1.83,3.6-1.83c1.261,0,2.04,0.239,2.67,0.66L408.182,391.151z"/>
	<path fill="#19152B" d="M420.001,403.241c-0.75,0.42-1.8,0.72-3.03,0.72c-2.189,0-3.539-1.35-3.539-4.17v-9.09h-2.25v-2.819h2.25
		v-4.5l3.029-1.62v6.12h3.9v2.819h-3.9v8.55c0,1.47,0.48,1.89,1.62,1.89c0.81,0,1.71-0.3,2.28-0.63L420.001,403.241z"/>
	<path fill="#19152B" d="M434.131,403.631v-8.909c0-3.181-1.2-4.32-3.24-4.32c-2.069,0-3.239,1.47-3.239,4.02v9.21h-3.09v-20.249
		l3.09-1.62v7.62c0.779-1.141,2.34-1.83,3.96-1.83c3.659,0,5.609,2.399,5.609,7.05v9.029H434.131z"/>
</g>
<g enable-background="new    ">
	<path fill="#19152B" d="M230.869,359.86V348.56c-1.3,1.15-3.05,2.2-5.55,2.2c-5.6,0-10.201-4.2-10.201-14.001
		c0-7.851,3.7-13.351,10.201-13.351c2.3,0,4.3,0.9,5.55,2.05v-1.5h6.9v32.452L230.869,359.86z M230.869,332.159
		c-1.05-1.45-2.65-2.25-4.65-2.25c-2.65,0-4.1,2.3-4.1,6.7c0,5.4,1.8,7.65,4.5,7.65c2.15,0,3.25-0.9,4.25-2.2V332.159z"/>
	<path fill="#19152B" d="M260.169,350.21v-1.75c-1.2,1.25-3.4,2.3-6.15,2.3c-6.7,0-9.701-4.6-9.701-12.001v-14.801h6.9v14.201
		c0,4.7,1.6,6.101,4.45,6.101c2.851,0,4.5-1.4,4.5-5.95v-14.352h6.9v26.252H260.169z"/>
	<path fill="#19152B" d="M277.468,321.809c-2.15,0-3.95-1.801-3.95-3.95c0-2.15,1.8-3.95,3.95-3.95s3.95,1.8,3.95,3.95
		C281.418,320.008,279.619,321.809,277.468,321.809z M274.018,350.21v-26.252h6.9v26.252H274.018z"/>
	<path fill="#19152B" d="M303.719,350.21v-14.201c0-4.7-1.601-6.1-4.45-6.1s-4.5,1.399-4.5,5.95v14.351h-6.9v-26.252h6.9v1.75
		c1.199-1.25,3.4-2.3,6.15-2.3c6.7,0,9.7,4.601,9.7,12.001v14.801H303.719z"/>
	<path fill="#19152B" d="M331.469,349.16c-1.149,0.899-3.2,1.6-5.351,1.6c-4.25,0-7-3.3-7-7.9v-12.4h-4.4v-6.501h4.4v-6.75l6.9-3.45
		v10.2h6.301v6.501h-6.301v10.551c0,2.5,0.9,3.149,2.551,3.149c1.25,0,2.199-0.55,3.899-2L331.469,349.16z"/>
	<path fill="#19152B" d="M342.619,321.809c-2.15,0-3.951-1.801-3.951-3.95c0-2.15,1.801-3.95,3.951-3.95s3.949,1.8,3.949,3.95
		C346.568,320.008,344.769,321.809,342.619,321.809z M339.167,350.21v-26.252h6.9v26.252H339.167z"/>
	<path fill="#19152B" d="M353.267,350.21v-33.002l6.9-3.45v36.452H353.267z"/>
	<path fill="#19152B" d="M367.368,350.21v-33.002l6.9-3.45v36.452H367.368z"/>
	<path fill="#19152B" d="M384.917,321.809c-2.15,0-3.95-1.801-3.95-3.95c0-2.15,1.8-3.95,3.95-3.95s3.95,1.8,3.95,3.95
		C388.868,320.008,387.068,321.809,384.917,321.809z M381.467,350.21v-26.252h6.9v26.252H381.467z"/>
	<path fill="#19152B" d="M405.818,350.76c-6.85,0-11.851-5.601-11.851-13.65c0-8.051,5.001-13.701,11.851-13.701
		c6.851,0,11.9,5.65,11.9,13.701C417.718,345.159,412.668,350.76,405.818,350.76z M405.818,330.059c-3.3,0-4.85,3-4.85,7.051
		c0,4.05,1.55,7,4.85,7c3.301,0,4.9-3.35,4.9-7C410.718,333.109,409.119,330.059,405.818,330.059z"/>
	<path fill="#19152B" d="M438.917,350.21v-14.201c0-4.7-1.6-6.1-4.449-6.1c-2.851,0-4.501,1.399-4.501,5.95v14.351h-6.9v-26.252h6.9
		v1.75c1.2-1.25,3.4-2.3,6.15-2.3c6.7,0,9.7,4.601,9.7,12.001v14.801H438.917z"/>
</g>
<path fill="#19162B" d="M372.468,586.821c0,58.921-47.771,106.691-106.699,106.691c-58.934,0-106.703-47.771-106.703-106.691
	c0-58.938,47.769-106.702,106.703-106.702C324.695,480.119,372.468,527.887,372.468,586.821z M284.898,533.004h-1.225l-0.354-0.866
	l-0.69,2.103c-5.101-0.181-4.752-2.811-4.752-2.811l-2.107-0.702h2.471l-0.184-1.229c-2.109-1.753-7.549,3.337-7.549,3.337
	c0-1.579,4.742-5.09,4.742-5.09c8.779,0.521,9.131-2.109,9.131-2.109c3.328,0,1.752-3.333,1.752-3.333l-1.404-0.184l-1.055-0.696
	l-2.457,1.4l1.93-2.81l-4.904-1.58l1.053-0.88l-4.92-4.03c0.346,2.631-1.758,2.449-1.758,2.449l-1.052-0.875l-1.411-1.229
	l0.176-1.062c-1.753,0-3.687-1.932-3.687-1.932l-4.044,0.529c1.415,4.219-1.397,4.219-1.397,4.219
	c6.146,4.387-1.232,5.613-1.232,5.613c1.588,0.347,1.232,3.339,1.232,3.339s-0.178,1.054-0.699,1.577
	c-0.534,0.533-1.411-0.166-1.411-0.166l-1.401-2.646l-1.233-2.461c0,0,1.757,0,0.882,0c-0.882,0-7.026-3.148-7.026-3.148
	l-2.105-0.707l0.876-1.932l-1.405-1.056l0.529-1.928l1.753-0.707l2.63-1.933l3.866-1.931l-0.876,1.931l1.758,0.348l1.579-0.696
	c0,0,2.638,1.398,2.638,0.352c0-1.06-4.92-2.808-4.92-2.808l0.524-0.882l3.689-0.18l0.351-1.047
	c0.343-2.105-2.459-1.588-2.459-1.588c-0.348,1.688-2.284,1.764-2.284,1.764l-0.347-2.108l-1.229,0.704l-0.534-3.159l-2.099,0.698
	l0.876,1.584l-0.876,1.404h-0.886l0.356-2.108l-0.877,0.175l-0.529,0.872l-0.877,0.886l-2.103-0.174l-1.763-0.882
	c0,0-0.877,0-1.401,0c-0.53,0-0.704,1.4-0.704,1.4l-0.346-1.056h-1.763l-0.877-1.574c-0.876-3.688-8.605-3.511-8.605-3.511V496.3
	c-1.054-0.704-0.168-2.979-0.168-2.979l-5.451,0.347c-1.225-0.177-2.981,2.808-2.981,2.808l-0.882-1.229l-2.282,1.229
	c0.352,2.987-4.035,2.283-4.035,2.283c-2.11,0.184-5.442,4.214-5.442,4.214c0,2.108-7.555,2.812-7.555,2.812l3.689-0.178
	l3.337-0.872l3.16-1.229l3.332-0.354c0,0,0.351,1.408,0.351,2.457c0,1.06,0,1.404,0,1.937c0,0.522,0.535,1.05,0.535,1.579
	c0,0.522-0.708,1.4-0.708,1.4l-0.698,2.281l-0.886,2.112l-0.872,1.575l-0.525,1.936l-0.876,1.229l0.347,0.877l1.054,1.578v1.411
	l-0.168,0.872l-1.233,0.353h-1.055l-1.229,2.461c0,0,1.575,0,0,0.703c-1.588,0.696-5.62,7.371-5.62,7.371l-0.529,1.411
	l-0.881,10.007c2.639,1.045,2.11,3.684,2.11,3.684v5.792c2.985,4.22-0.348,3.519-0.348,3.519l0.525,0.869
	c3.155,2.816,1.579,5.975,1.579,5.975c0.881,0.354,3.164,3.691,3.164,3.691l0.343-1.056l-1.576-2.812l-0.182-1.929l-0.688-3.158
	l-0.179-1.938l-0.177-1.407l-0.704-1.398v-1.401l0.522-2.46l1.054,0.881l0.173,1.229v1.575l1.068,1.577l0.516,2.287l0.526,1.229
	l0.711,1.056l0.343,1.229l-0.521,1.403l0.521,1.058l0.881,0.88l1.406,1.581l0.702,2.634l0.352,2.45l-0.179,1.581l0.877,1.762
	l1.406,1.4l1.411,1.399c0,0,1.921,1.59,2.456,2.288c0.521,0.703,2.982,2.108,2.982,2.108s2.984,1.404,3.514,1.224
	c0.525-0.178,2.63-0.353,2.63-0.353l2.638,1.404l2.982,3.338h1.227l1.936,0.186c2.11,2.45,3.685,0.521,3.685,0.521l0.881,1.936
	l1.054,0.878l0.708,3.688c0,0,1.046,1.225,1.402,0.524c0.346-0.704,3.413,2.894,3.413,2.894l1.503,0.62l1.93,1.402l1.402,0.886
	l0.173-1.415l1.229-0.873l1.231-0.7l0.877,1.4l2.109,8.075c0,2.816-2.853,1.998-2.853,1.998c-0.739,4.455-2.419,2.574-2.419,2.574
	c0.355,3.148-1.023,5.049-1.023,5.049l1.731-0.141v2.454l-2.108,1.406l-1.703,2.295c0,0,5.917,3.682,5.917,5.789
	c0,2.104,4.216,7.361,4.216,7.361v2.109l10.535,5.269c1.408,10.188-3.861,17.567-3.861,17.567c1.054,10.888-3.167,8.422-3.167,8.422
	l-0.342,6.148l2.45-1.585l-1.756,5.972v3.159l2.471,2.812l7.016-1.761c-8.43-0.696,1.402-5.265,1.402-5.265l-1.402-1.756
	l2.109-1.579l0.352-2.281h4.216l1.403-2.111l7.373-3.161l-1.061-3.507l5.973,1.403l9.832-9.831l0.357-3.861l7.377-5.272
	c11.229,0,11.229-15.799,11.229-15.799c8.428-8.075,7.73-14.402,7.73-14.402l-2.811-0.348l-4.215-2.46l-7.031,1.05l-1.053-2.107
	l-2.102-1.041h-1.752l-2.463,1.394l0.699-2.446h-1.754l-1.758,2.097l1.055,1.757l-3.158-2.104l1.754-3.157l1.758-1.756l-0.354-1.757
	l-1.404-1.404l-3.514-2.104l-2.106-0.707h-2.454l-2.104-0.348l-1.411-0.354l-1.398-1.756l-2.113-2.11c0,0-2.809-1.054-4.562-1.403
	c-1.752-0.35-1.934-2.503-1.934-2.503l-3.688,0.743l-2.104,0.355h-1.752c0,0-3.521-2.107-5.977-2.812c-2.458-0.698-1.758,0-2.809,0
	c-1.055,0-2.109,0.353-2.109,0.353h-1.397l-2.469,0.701l-0.351,1.759l-2.101,2.461v2.104l-2.108-1.399l-1.406-1.764l-2.105,1.764
	h-2.108c0,0-1.402-0.704-2.457-1.764c-1.054-1.052-1.054-1.401-1.054-1.401l-1.407-2.107v-2.809l0.352-3.164l-1.753-2.1
	l-1.757,0.352h-1.406l-3.511-1.767v-1.396l1.056-1.758l1.751-2.101l0.704-2.113V576.2l-5.971,0.352l-2.108,4.565l-5.616-0.354
	c-3.862-2.104-2.105-13.688-2.105-13.688l1.406-1.406v-1.761l1.055-2.105l3.232-0.515c1.479-0.516,7.998,2.272,7.998,2.272
	l-1.402-2.812c0,0,0,0,0-1.051c0-1.062,9.131,1.051,9.131,1.051l1.405,1.4l1.055,2.106l0.702,1.757l0.7,2.108l0.354,2.457
	l2.101-0.703l0.708-2.804v-3.167l-1.762-3.854l0.708-2.117l2.105-2.444l3.167-1.41l2.448-2.11c-1.398-1.404-0.694-5.966-0.694-5.966
	l1.758,1.748c0.341-5.608,7.016-5.259,6.669-7.372c-0.355-2.104,6.322-5.259,6.322-5.259l-1.057,2.804l1.754,0.353l1.762-1.404
	l2.449-1.749l1.406-0.704L284.898,533.004z M293.16,511.765c0-1.057-1.406-2.988-1.406-2.988l-0.174-1.752
	c-1.578-1.757-0.184-2.278-0.184-2.278c1.934-0.175,1.061-2.987,1.061-2.987c2.812-0.702,1.226-3.341,1.226-3.341l-2.103-0.169
	l1.228-1.062h-2.457l-2.283-1.229c1.229-2.46-2.81-2.283-2.81-2.283v-0.881c0,0-0.877-0.52-1.584-0.692
	c-0.694-0.183-3.688-2.466-3.688-2.466l-2.105,0.173L277,490.519l-0.877-1.057l-3.154-0.173l-0.881,2.283h-1.057l-1.227-0.709
	l-1.406,2.636l-2.104,0.876l2.456,0.877h-2.288l1.406,1.059c6.322,0,8.43,3.16,8.43,3.16s-5.619-0.175,0.179,0.707
	c5.793,0.876,2.985,3.856,2.985,3.856l3.164,2.984l1.045,0.176v0.711l5.439,3.68l1.23-0.173
	C292.634,513.169,293.16,511.765,293.16,511.765z M270.326,509.307l3.866,1.055c1.06-0.877-1.054-2.453-1.054-2.453
	c-4.037-0.711-2.457-2.113-2.457-2.113l3.511,1.759l1.406-1.936l-5.792-2.104l0.701-1.055l-1.049-0.529l-1.763-1.229
	c-1.754,0-3.512-1.938-3.512-1.938s-2.108-0.173-3.164-0.173c-1.054,0-1.575,1.761-1.575,1.761v-2.282h-0.886l-1.05,0.879
	l-0.352,0.872v1.23l1.054,0.702l0.527,1.228l-2.284,1.763l0.703,1.049l3.689-0.177l0.351-1.047l-0.88-0.534l0.702-0.697
	l-1.575-0.877l3.333,0.173l0.352-0.702c5.97,2.812,2.812,4.743,2.812,4.743v0.693l-3.688,0.184l0.343,1.05l3.698,0.176l1.223,1.234
	l2.809,1.226h1.764L270.326,509.307z M266.295,579.015l-8.255-4.039l-0.881-0.175c0,0-5.615-2.981-8.426,0.351l4.912-0.693
	l-0.175,1.045l8.254,2.812l-1.405,1.571L266.295,579.015z M266.295,582.526c0,0,2.104-0.177,2.99-0.177
	c0.866,0,2.446,1.058,2.446,1.058l1.406-1.058l3.692-0.35l-3.34-2.115h-4.92C271.732,582.354,266.295,582.526,266.295,582.526z
	 M305.275,491.74l-1.4-0.877l-2.108-0.87l-1.933,0.351h-0.887c0,0,12.121,6.496,12.824,7.729c0.699,1.227,2.109,2.981,2.109,2.981
	s3.338,2.114,4.381,2.283c1.055,0.178,2.293,0.697,2.293,0.697l-2.109-2.456l7.195,4.739l-5.268-4.911c0,0-12.471-6.324-12.814-7.73
	c-0.352-1.397,9.482,4.57,9.482,4.57l-0.355-1.237l3.867,2.635l4.383,3.693l1.758,1.752l0.529,2.105l-0.355,0.711l-4.564-3.162
	l5.271,4.562v1.576l2.811,0.882l0.354,2.281v1.056c0,0,0.346,0.353,0.521,0.875c0.174,0.525,0.174,2.11,0.174,2.11
	s5.271,1.748,6.5,6.14l-1.576,1.062l-1.232,1.411c0,0,1.752,2.455,2.109,2.976c0.352,0.529,3.854,4.747,4.209,5.271
	c0.357,0.523-1.227,0.184,0.357,0.523c1.578,0.354,2.281,0.181,2.281,0.181l1.928-1.053c0,0,0.186-1.931,0-2.456
	c-0.18-0.54-1.928-3.339-1.928-3.339l-1.055-1.936c0,0-0.355-1.229-0.707-1.756c-0.35-0.524-1.748-2.456-1.748-2.456l0.867-0.88
	l-0.867-2.453l4.557,2.802c0,0,0.701,1.057,1.062,1.586c0.346,0.521-2.285-3.341-2.285-3.341l-4.568-3.512
	c0,0,1.752,0.886,2.465,1.059c0.693,0.175,2.105,1.58,2.105,1.58l-0.178-0.886c0,0-10.012-14.397-34.945-25.98
	C308.781,492.626,306.152,492.974,305.275,491.74z M329.507,515.274v-2.105l-1.938-2.286l-0.877,0.529c0,0-0.885-1.401-2.811-1.931
	c-1.936-0.524-4.748-2.287-4.748-2.287l-1.92-1.045l-0.354,1.218c0,0,6.15,3.866,7.729,4.218c1.58,0.353,2.104,2.99,2.104,2.99
	h1.408l0.877,1.753L329.507,515.274z M325.289,515.631l-0.174-1.758l-2.1-2.461l-1.941-0.704v1.057l0.354,1.404l1.59,0.526
	l1.225,1.936C324.238,515.631,324.937,516.502,325.289,515.631z M349.345,529.151c0,0-1.404,1.753-1.23,2.275
	c0.174,0.521,0.174,2.989,0.174,2.989l-0.348,2.453c0,0-1.404,1.229-2.281,0c-0.877-1.229,0.172,3.162,0.172,3.162l0.361,3.512
	l1.225,3.342c0,0,2.107,3.332,0.523,4.562l0.697,13.691c0,0,1.406,1.402,1.584,2.985c0.176,1.581,2.812,5.096,0.707,8.25
	c0,0,2.979,2.465,1.928,4.392c0,0,5.096,4.041,4.564,6.67c-0.523,2.646,0.352-0.877,0.352-0.877s4.047,2.986,4.047,4.743
	c0,1.753,0.348-0.702,0.348-0.702l0.877,0.35l1.578-2.63l1.23-0.351l2.811-5.271l0.881,1.938h0.877c0,0,0.703-23.007-14.045-49.173
	l-1.936-1.406h-1.582C352.855,534.06,351.625,530.375,349.345,529.151z"/>
</svg>
