<?xml version="1.0" encoding="utf-8"?>
<!-- Generator: Adobe Illustrator 15.1.0, SVG Export Plug-In . SVG Version: 6.00 Build 0)  -->
<!DOCTYPE svg PUBLIC "-//W3C//DTD SVG 1.1//EN" "http://www.w3.org/Graphics/SVG/1.1/DTD/svg11.dtd">
<svg version="1.1" id="Layer_1" xmlns="http://www.w3.org/2000/svg" xmlns:xlink="http://www.w3.org/1999/xlink" x="0px" y="0px"
	 width="536.378px" height="780.521px" viewBox="0 0 536.378 780.521" enable-background="new 0 0 536.378 780.521"
	 xml:space="preserve">
<rect x="32.689" y="381.761" fill="none" width="468" height="82"/>
<g enable-background="new    ">
	<path d="M98.188,410.631v-8.909c0-3.181-1.2-4.32-3.24-4.32c-2.07,0-3.24,1.47-3.24,4.02v9.21h-3.09v-15.749h3.09v1.5
		c0.78-1.141,2.34-1.83,3.96-1.83c3.66,0,5.61,2.399,5.61,7.05v9.029H98.188z"/>
	<path d="M115.167,410.631v-1.5c-0.78,1.14-2.34,1.83-3.96,1.83c-3.66,0-5.609-2.4-5.609-7.05v-9.029h3.09v8.909
		c0,3.18,1.2,4.32,3.24,4.32c2.07,0,3.24-1.471,3.24-4.021v-9.209h3.09v15.749H115.167z"/>
	<path d="M141.117,410.631v-8.909c0-3.181-0.99-4.32-3.03-4.32c-2.07,0-3.03,1.47-3.03,4.02v9.21h-3.09v-8.909
		c0-3.181-0.99-4.32-3.03-4.32c-2.07,0-3.03,1.47-3.03,4.02v9.21h-3.09v-15.749h3.09v1.5c0.78-1.141,2.13-1.83,3.75-1.83
		c2.13,0,3.48,0.81,4.32,2.31c1.14-1.41,2.37-2.31,4.83-2.31c3.66,0,5.4,2.399,5.4,7.05v9.029H141.117z"/>
	<path d="M155.667,410.961c-1.59,0-3.09-0.84-3.96-1.8v1.47h-3.06v-20.279l3.06-1.59v7.62c1.14-1.051,2.46-1.83,4.11-1.83
		c3.39,0,6.06,2.46,6.06,8.459C161.877,408.411,158.937,410.961,155.667,410.961z M155.248,397.401c-1.47,0-2.76,0.99-3.57,2.01
		v6.63c0.69,0.93,2.13,2.07,3.69,2.07c2.22,0,3.42-1.681,3.42-5.01C158.787,399.142,157.527,397.401,155.248,397.401z"/>
	<path d="M178.437,403.852h-10.41c0.33,3.029,2.04,4.319,3.96,4.319c1.32,0,2.37-0.479,3.42-1.26l1.83,1.979
		c-1.38,1.32-3.03,2.07-5.43,2.07c-3.69,0-6.81-2.97-6.81-8.189c0-5.34,2.82-8.22,6.9-8.22c4.47,0,6.63,3.63,6.63,7.89
		C178.527,403.011,178.467,403.521,178.437,403.852z M171.687,397.342c-2.07,0-3.33,1.439-3.6,3.959h7.32
		C175.257,399.142,174.237,397.342,171.687,397.342z"/>
	<path d="M190.917,398.151c-0.66-0.36-1.35-0.57-2.37-0.57c-1.95,0-3.09,1.38-3.09,4.05v9h-3.09v-15.749h3.09v1.5
		c0.72-1.051,2.04-1.83,3.6-1.83c1.26,0,2.04,0.239,2.67,0.66L190.917,398.151z"/>
	<path d="M209.186,410.961c-3.959,0-6.93-3.27-6.93-8.189c0-5.16,3.06-8.22,7.02-8.22c4.02,0,7.02,3.21,7.02,8.13
		C216.296,407.901,213.236,410.961,209.186,410.961z M209.156,397.491c-2.34,0-3.78,2.07-3.78,5.19c0,3.449,1.59,5.339,3.93,5.339
		s3.87-2.369,3.87-5.249C213.176,399.562,211.646,397.491,209.156,397.491z"/>
	<path d="M225.236,391.552c-1.02,0-1.44,0.39-1.44,1.53v1.8h2.91v2.88h-2.91v12.869h-3.09v-12.869h-2.04v-2.88h2.04v-2.07
		c0-2.88,1.77-3.96,3.99-3.96c0.81,0,1.68,0.12,2.34,0.3v2.7C226.316,391.642,225.776,391.552,225.236,391.552z"/>
	<path d="M243.716,416.421l-1.05-2.34c4.44-0.21,5.4-1.41,5.4-4.68v-0.271c-1.14,1.05-2.43,1.83-4.08,1.83
		c-3.36,0-6.06-2.46-6.06-8.46c0-5.399,2.97-7.949,6.21-7.949c1.59,0,3.09,0.84,3.93,1.8v-1.47h3.09v14.249
		C251.155,413.931,249.416,416.24,243.716,416.421z M248.125,399.472c-0.69-0.931-2.13-2.07-3.69-2.07c-2.22,0-3.42,1.68-3.42,5.01
		c0,3.96,1.26,5.7,3.54,5.7c1.47,0,2.76-0.99,3.57-2.011V399.472z"/>
	<path d="M264.746,410.631v-1.56c-1.08,1.079-2.61,1.89-4.32,1.89c-2.55,0-5.46-1.44-5.46-5.31c0-3.51,2.7-5.101,6.27-5.101
		c1.47,0,2.64,0.211,3.51,0.601v-1.17c0-1.71-1.05-2.67-2.97-2.67c-1.62,0-2.88,0.3-4.11,0.99l-1.2-2.34
		c1.5-0.931,3.18-1.41,5.4-1.41c3.51,0,5.91,1.71,5.91,5.279v10.8H264.746z M264.746,403.911c-0.84-0.42-1.92-0.69-3.6-0.69
		c-1.979,0-3.24,0.9-3.24,2.341c0,1.56,0.99,2.609,3.03,2.609c1.65,0,3.09-1.02,3.81-2.01V403.911z"/>
	<path d="M272.365,410.631v-20.249l3.091-1.62v21.869H272.365z"/>
	<path d="M280.315,410.631v-20.249l3.09-1.62v21.869H280.315z"/>
	<path d="M294.294,410.961c-3.959,0-6.93-3.27-6.93-8.189c0-5.16,3.061-8.22,7.021-8.22c4.02,0,7.02,3.21,7.02,8.13
		C301.405,407.901,298.345,410.961,294.294,410.961z M294.265,397.491c-2.34,0-3.779,2.07-3.779,5.19c0,3.449,1.59,5.339,3.93,5.339
		s3.869-2.369,3.869-5.249C298.285,399.562,296.755,397.491,294.265,397.491z"/>
	<path d="M314.785,410.631v-8.909c0-3.181-1.2-4.32-3.24-4.32c-2.07,0-3.24,1.47-3.24,4.02v9.21h-3.09v-15.749h3.09v1.5
		c0.781-1.141,2.34-1.83,3.961-1.83c3.659,0,5.609,2.399,5.609,7.05v9.029H314.785z"/>
	<path d="M327.416,410.961c-2.131,0-4.44-0.84-6.03-2.01l1.409-2.34c1.471,1.02,3.121,1.56,4.59,1.56c1.951,0,2.881-0.63,2.881-1.74
		c0-1.199-1.381-1.77-3.66-2.64c-3.391-1.32-4.62-2.46-4.62-4.949c0-2.82,2.22-4.29,5.37-4.29c1.98,0,3.93,0.72,5.34,1.739
		l-1.35,2.37c-1.291-0.899-2.58-1.35-4.08-1.35s-2.16,0.6-2.16,1.439c0,0.78,0.54,1.351,2.91,2.28c3.51,1.35,5.31,2.31,5.31,5.279
		C333.325,409.791,330.505,410.961,327.416,410.961z"/>
	<path d="M351.564,410.961c-3.959,0-6.93-3.27-6.93-8.189c0-5.16,3.061-8.22,7.02-8.22c4.02,0,7.02,3.21,7.02,8.13
		C358.673,407.901,355.614,410.961,351.564,410.961z M351.535,397.491c-2.34,0-3.78,2.07-3.78,5.19c0,3.449,1.59,5.339,3.93,5.339
		s3.87-2.369,3.87-5.249C355.554,399.562,354.024,397.491,351.535,397.491z"/>
	<path d="M372.054,410.631v-8.909c0-3.181-1.201-4.32-3.24-4.32c-2.07,0-3.24,1.47-3.24,4.02v9.21h-3.09v-15.749h3.09v1.5
		c0.78-1.141,2.34-1.83,3.96-1.83c3.659,0,5.61,2.399,5.61,7.05v9.029H372.054z"/>
	<path d="M392.273,403.852h-10.409c0.33,3.029,2.04,4.319,3.96,4.319c1.32,0,2.37-0.479,3.42-1.26l1.83,1.979
		c-1.38,1.32-3.029,2.07-5.43,2.07c-3.689,0-6.811-2.97-6.811-8.189c0-5.34,2.82-8.22,6.9-8.22c4.47,0,6.63,3.63,6.63,7.89
		C392.364,403.011,392.304,403.521,392.273,403.852z M385.524,397.342c-2.069,0-3.33,1.439-3.601,3.959h7.32
		C389.093,399.142,388.074,397.342,385.524,397.342z"/>
	<path d="M412.493,410.961c-5.189,0-7.89-3.36-7.89-9.149v-12.18h3.149v12.09c0,3.959,1.65,6.089,4.8,6.089
		c3.3,0,4.86-2.039,4.86-5.879v-12.3h3.149v12.239C420.562,407.751,417.712,410.961,412.493,410.961z"/>
	<path d="M426.203,410.961c-1.29,0-2.37-1.08-2.37-2.37s1.08-2.399,2.37-2.399s2.37,1.109,2.37,2.399
		S427.493,410.961,426.203,410.961z"/>
	<path d="M439.042,410.961c-3.06,0-5.699-1.32-7.47-3.39l2.25-2.19c1.41,1.53,3.48,2.49,5.46,2.49c2.94,0,4.35-1.021,4.35-3.06
		c0-1.62-1.229-2.431-4.739-3.48c-4.44-1.319-6.57-2.43-6.57-6.18c0-3.63,3.061-5.85,6.93-5.85c2.851,0,5.01,1.05,6.87,2.85
		l-2.22,2.25c-1.32-1.35-2.82-2.01-4.89-2.01c-2.46,0-3.51,1.2-3.51,2.61c0,1.47,0.96,2.189,4.589,3.27
		c4.141,1.26,6.721,2.58,6.721,6.33C446.813,408.381,444.413,410.961,439.042,410.961z"/>
	<path d="M452.153,410.961c-1.29,0-2.369-1.08-2.369-2.37s1.079-2.399,2.369-2.399s2.37,1.109,2.37,2.399
		S453.443,410.961,452.153,410.961z"/>
</g>
<g enable-background="new    ">
	<path fill="#19152B" d="M111.959,446.631v-8.909c0-3.181-1.2-4.32-3.24-4.32c-2.07,0-3.24,1.47-3.24,4.02v9.21h-3.09v-20.249
		l3.09-1.62v7.62c0.78-1.141,2.34-1.83,3.96-1.83c3.66,0,5.61,2.399,5.61,7.05v9.029H111.959z"/>
	<path fill="#19152B" d="M125.668,446.961c-3.959,0-6.93-3.27-6.93-8.189c0-5.16,3.06-8.22,7.02-8.22c4.02,0,7.02,3.21,7.02,8.13
		C132.778,443.901,129.718,446.961,125.668,446.961z M125.639,433.491c-2.34,0-3.78,2.07-3.78,5.19c0,3.449,1.59,5.339,3.93,5.339
		s3.87-2.369,3.87-5.249C129.659,435.562,128.128,433.491,125.639,433.491z"/>
	<path fill="#19152B" d="M146.039,446.631v-1.5c-0.78,1.14-2.34,1.83-3.96,1.83c-3.66,0-5.61-2.4-5.61-7.05v-9.029h3.09v8.909
		c0,3.18,1.2,4.32,3.24,4.32c2.07,0,3.24-1.471,3.24-4.021v-9.209h3.09v15.749H146.039z"/>
	<path fill="#19152B" d="M158.789,446.961c-2.13,0-4.44-0.84-6.03-2.01l1.41-2.34c1.47,1.02,3.12,1.56,4.59,1.56
		c1.95,0,2.88-0.63,2.88-1.74c0-1.199-1.38-1.77-3.66-2.64c-3.39-1.32-4.62-2.46-4.62-4.949c0-2.82,2.22-4.29,5.37-4.29
		c1.98,0,3.93,0.72,5.34,1.739l-1.35,2.37c-1.29-0.899-2.58-1.35-4.08-1.35c-1.5,0-2.16,0.6-2.16,1.439c0,0.78,0.54,1.351,2.91,2.28
		c3.51,1.35,5.31,2.31,5.31,5.279C164.698,445.791,161.878,446.961,158.789,446.961z"/>
	<path fill="#19152B" d="M181.048,439.852h-10.409c0.33,3.029,2.04,4.319,3.959,4.319c1.32,0,2.37-0.479,3.42-1.26l1.83,1.979
		c-1.38,1.32-3.03,2.07-5.43,2.07c-3.69,0-6.81-2.97-6.81-8.189c0-5.34,2.82-8.22,6.9-8.22c4.47,0,6.63,3.63,6.63,7.89
		C181.138,439.011,181.078,439.521,181.048,439.852z M174.298,433.342c-2.07,0-3.33,1.439-3.6,3.959h7.32
		C177.868,435.142,176.848,433.342,174.298,433.342z"/>
	<path fill="#19152B" d="M194.548,446.631v-8.909c0-3.181-1.2-4.32-3.24-4.32c-2.07,0-3.24,1.47-3.24,4.02v9.21h-3.09v-20.249
		l3.09-1.62v7.62c0.78-1.141,2.34-1.83,3.96-1.83c3.66,0,5.61,2.399,5.61,7.05v9.029H194.548z"/>
	<path fill="#19152B" d="M208.257,446.961c-3.959,0-6.93-3.27-6.93-8.189c0-5.16,3.06-8.22,7.02-8.22c4.02,0,7.02,3.21,7.02,8.13
		C215.367,443.901,212.307,446.961,208.257,446.961z M208.228,433.491c-2.34,0-3.78,2.07-3.78,5.19c0,3.449,1.59,5.339,3.93,5.339
		s3.87-2.369,3.87-5.249C212.248,435.562,210.717,433.491,208.228,433.491z"/>
	<path fill="#19152B" d="M219.327,446.631v-20.249l3.09-1.62v21.869H219.327z"/>
	<path fill="#19152B" d="M236.607,446.631v-1.5c-1.14,1.05-2.46,1.83-4.11,1.83c-3.39,0-6.06-2.46-6.06-8.46
		c0-5.399,2.94-7.949,6.21-7.949c1.59,0,3.09,0.84,3.96,1.8v-6l3.06-1.59v21.869H236.607z M236.637,435.472
		c-0.69-0.931-2.13-2.07-3.69-2.07c-2.22,0-3.42,1.68-3.42,5.01c0,3.96,1.26,5.7,3.54,5.7c1.47,0,2.76-0.99,3.57-2.011V435.472z"/>
	<path fill="#19152B" d="M261.776,446.631v-1.5c-0.78,1.14-2.34,1.83-3.96,1.83c-3.66,0-5.609-2.4-5.609-7.05v-9.029h3.09v8.909
		c0,3.18,1.2,4.32,3.24,4.32c2.07,0,3.24-1.471,3.24-4.021v-9.209h3.09v15.749H261.776z"/>
	<path fill="#19152B" d="M274.527,446.961c-2.13,0-4.439-0.84-6.03-2.01l1.41-2.34c1.47,1.02,3.12,1.56,4.59,1.56
		c1.95,0,2.88-0.63,2.88-1.74c0-1.199-1.38-1.77-3.66-2.64c-3.39-1.32-4.619-2.46-4.619-4.949c0-2.82,2.22-4.29,5.369-4.29
		c1.98,0,3.93,0.72,5.34,1.739l-1.35,2.37c-1.29-0.899-2.58-1.35-4.08-1.35s-2.16,0.6-2.16,1.439c0,0.78,0.541,1.351,2.91,2.28
		c3.51,1.35,5.311,2.31,5.311,5.279C280.437,445.791,277.617,446.961,274.527,446.961z"/>
	<path fill="#19152B" d="M296.787,439.852h-10.41c0.33,3.029,2.04,4.319,3.96,4.319c1.319,0,2.37-0.479,3.42-1.26l1.83,1.979
		c-1.38,1.32-3.03,2.07-5.43,2.07c-3.69,0-6.81-2.97-6.81-8.189c0-5.34,2.819-8.22,6.899-8.22c4.47,0,6.63,3.63,6.63,7.89
		C296.876,439.011,296.816,439.521,296.787,439.852z M290.037,433.342c-2.07,0-3.33,1.439-3.6,3.959h7.319
		C293.607,435.142,292.586,433.342,290.037,433.342z"/>
	<path fill="#19152B" d="M305.517,446.961c-2.131,0-4.44-0.84-6.03-2.01l1.409-2.34c1.471,1.02,3.121,1.56,4.59,1.56
		c1.951,0,2.881-0.63,2.881-1.74c0-1.199-1.381-1.77-3.66-2.64c-3.391-1.32-4.62-2.46-4.62-4.949c0-2.82,2.22-4.29,5.37-4.29
		c1.98,0,3.93,0.72,5.34,1.739l-1.35,2.37c-1.291-0.899-2.58-1.35-4.08-1.35s-2.16,0.6-2.16,1.439c0,0.78,0.54,1.351,2.91,2.28
		c3.51,1.35,5.31,2.31,5.31,5.279C311.426,445.791,308.607,446.961,305.517,446.961z"/>
	<path fill="#19152B" d="M325.196,428.842c-1.11,0-2.01-0.9-2.01-1.98c0-1.109,0.899-2.01,2.01-2.01c1.08,0,1.979,0.9,1.979,2.01
		C327.175,427.941,326.276,428.842,325.196,428.842z M323.636,446.631v-15.749h3.09v15.749H323.636z"/>
	<path fill="#19152B" d="M341.005,446.631v-8.909c0-3.181-1.199-4.32-3.239-4.32c-2.07,0-3.24,1.47-3.24,4.02v9.21h-3.09v-15.749
		h3.09v1.5c0.78-1.141,2.34-1.83,3.96-1.83c3.66,0,5.609,2.399,5.609,7.05v9.029H341.005z"/>
	<path fill="#19152B" d="M365.666,446.631v-1.56c-1.08,1.079-2.61,1.89-4.32,1.89c-2.55,0-5.46-1.44-5.46-5.31
		c0-3.51,2.7-5.101,6.271-5.101c1.469,0,2.639,0.211,3.51,0.601v-1.17c0-1.71-1.051-2.67-2.971-2.67c-1.619,0-2.879,0.3-4.109,0.99
		l-1.2-2.34c1.5-0.931,3.181-1.41,5.399-1.41c3.51,0,5.91,1.71,5.91,5.279v10.8H365.666z M365.666,439.911
		c-0.84-0.42-1.92-0.69-3.601-0.69c-1.979,0-3.239,0.9-3.239,2.341c0,1.56,0.99,2.609,3.029,2.609c1.65,0,3.09-1.02,3.811-2.01
		V439.911z"/>
	<path fill="#19152B" d="M386.724,452.181h-3.27l2.279-5.85l-5.789-15.449h3.39l2.579,7.709c0.48,1.38,1.201,3.72,1.381,4.59
		c0.27-0.93,0.93-3.18,1.41-4.529l2.67-7.77h3.27L386.724,452.181z"/>
	<path fill="#19152B" d="M409.855,439.852h-10.41c0.33,3.029,2.039,4.319,3.959,4.319c1.32,0,2.371-0.479,3.42-1.26l1.83,1.979
		c-1.379,1.32-3.029,2.07-5.43,2.07c-3.689,0-6.81-2.97-6.81-8.189c0-5.34,2.819-8.22,6.899-8.22c4.471,0,6.631,3.63,6.631,7.89
		C409.945,439.011,409.884,439.521,409.855,439.852z M403.105,433.342c-2.07,0-3.33,1.439-3.601,3.959h7.319
		C406.673,435.142,405.654,433.342,403.105,433.342z"/>
	<path fill="#19152B" d="M422.605,446.631v-1.56c-1.08,1.079-2.611,1.89-4.32,1.89c-2.551,0-5.459-1.44-5.459-5.31
		c0-3.51,2.699-5.101,6.27-5.101c1.469,0,2.639,0.211,3.51,0.601v-1.17c0-1.71-1.051-2.67-2.971-2.67c-1.619,0-2.879,0.3-4.109,0.99
		l-1.199-2.34c1.5-0.931,3.18-1.41,5.398-1.41c3.51,0,5.91,1.71,5.91,5.279v10.8H422.605z M422.605,439.911
		c-0.84-0.42-1.92-0.69-3.6-0.69c-1.98,0-3.24,0.9-3.24,2.341c0,1.56,0.99,2.609,3.029,2.609c1.65,0,3.09-1.02,3.811-2.01V439.911z"
		/>
	<path fill="#19152B" d="M438.625,434.151c-0.66-0.36-1.35-0.57-2.369-0.57c-1.951,0-3.09,1.38-3.09,4.05v9h-3.09v-15.749h3.09v1.5
		c0.719-1.051,2.039-1.83,3.6-1.83c1.26,0,2.039,0.239,2.67,0.66L438.625,434.151z"/>
</g>
<g enable-background="new    ">
	<path fill="#19152B" d="M238.282,288.815v-60.718h-14.399v-12.359c9.36-0.479,15.479-3.96,17.159-10.919h13.92v83.996H238.282z"/>
	<path fill="#19152B" d="M332.839,271.656v17.159H316.64v-17.159h-45.958v-15.119l44.519-51.718h17.639v51.237h11.039v15.6H332.839z
		 M309.56,233.498l-11.999,14.039c-2.64,3.12-6.12,6.96-7.919,8.76c2.879,0,11.879-0.24,16.679-0.24h10.319v-13.68
		c0-4.8,0.359-15.239,0.359-18.358C315.441,226.178,312.32,230.258,309.56,233.498z"/>
	<path fill="#19152B" d="M387.8,290.136c-18.719,0-33.359-10.439-33.359-33.959c0-22.079,12.96-52.678,56.518-52.678v16.319
		c-19.438,0-31.798,6.84-36.598,19.679c5.4-3.6,10.68-5.279,19.199-5.279c16.68,0,29.639,8.52,29.639,27.119
		C423.199,280.056,407.599,290.136,387.8,290.136z M389.361,249.457c-11.4,0-17.52,3.84-17.52,12.6c0,7.8,5.76,12.479,16.679,12.479
		c11.159,0,17.64-4.8,17.64-12.6C406.16,253.417,399.919,249.457,389.361,249.457z"/>
</g>
<g>
	<path fill="#19162B" stroke="#19162B" stroke-miterlimit="10" d="M330.998,677.691H202.888v-90.498h128.109V677.691
		L330.998,677.691z M171.154,587.193h189.229l-96.375-81.102L171.154,587.193z M279.433,677.545v-52.448h-27.326v52.448H279.433z
		 M240.938,613.196h-28.207v28.208h28.207V613.196z M318.951,613.196h-28.207v28.208h28.207V613.196z"/>
	<line fill="none" stroke="#19162B" stroke-miterlimit="10" x1="226.835" y1="641.404" x2="226.835" y2="613.196"/>
	<line fill="none" stroke="#19162B" stroke-miterlimit="10" x1="212.731" y1="627.301" x2="240.938" y2="627.301"/>
	<line fill="none" stroke="#19162B" stroke-miterlimit="10" x1="304.847" y1="641.404" x2="304.847" y2="613.196"/>
	<line fill="none" stroke="#19162B" stroke-miterlimit="10" x1="290.744" y1="627.301" x2="318.951" y2="627.301"/>
</g>
<g enable-background="new    ">
	<path fill="#19152B" d="M229.045,349.16c-1.15,0.899-3.2,1.6-5.35,1.6c-4.25,0-7-3.3-7-7.9v-12.4h-4.4v-6.501h4.4v-6.75l6.9-3.45
		v10.2h6.3v6.501h-6.3v10.551c0,2.5,0.9,3.149,2.55,3.149c1.25,0,2.2-0.55,3.9-2L229.045,349.16z"/>
	<path fill="#19152B" d="M252.344,350.21v-14.201c0-4.7-1.6-6.1-4.45-6.1s-4.5,1.399-4.5,5.95v14.351h-6.9v-33.002l6.9-3.45v11.95
		c1.2-1.25,3.4-2.3,6.15-2.3c6.701,0,9.701,4.601,9.701,12.001v14.801H252.344z"/>
	<path fill="#19152B" d="M276.195,350.76c-6.852,0-11.852-5.601-11.852-13.65c0-8.051,5-13.701,11.852-13.701
		c6.85,0,11.9,5.65,11.9,13.701C288.095,345.159,283.044,350.76,276.195,350.76z M276.195,330.059c-3.301,0-4.852,3-4.852,7.051
		c0,4.05,1.551,7,4.852,7c3.299,0,4.899-3.35,4.899-7C281.094,333.109,279.494,330.059,276.195,330.059z"/>
	<path fill="#19152B" d="M309.044,350.21v-1.75c-1.201,1.25-3.4,2.3-6.15,2.3c-6.701,0-9.701-4.6-9.701-12.001v-14.801h6.9v14.201
		c0,4.7,1.6,6.101,4.45,6.101s4.501-1.4,4.501-5.95v-14.352h6.9v26.252H309.044z"/>
	<path fill="#19152B" d="M332.694,350.76c-4.15,0-8.2-1.2-11.001-3.05l2.301-5.25c2.8,1.55,5.75,2.399,9.1,2.399
		c2.701,0,3.501-0.649,3.501-2c0-1.2-0.95-1.8-3.851-2.65c-6.301-1.899-10.351-3.45-10.351-9c0-5.45,4.351-7.801,10.501-7.801
		c3.3,0,6.9,1,9.7,2.55l-2.2,5.451c-2.6-1.4-5.45-2.101-7.65-2.101c-2.8,0-3.551,0.55-3.551,1.7c0,1.1,0.801,1.55,5.451,3.05
		c4.7,1.551,8.75,3.251,8.75,8.501C343.394,348.61,338.594,350.76,332.694,350.76z"/>
	<path fill="#19152B" d="M363.694,350.21v-1.75c-1.251,1.3-3.45,2.3-5.9,2.3c-4.9,0-9.801-3-9.801-9.351c0-5.8,4.7-8.7,10.651-8.7
		c2.399,0,3.949,0.5,5.05,1.05v-1.3c0-1.851-1.251-3.351-3.751-3.351c-3.149,0-4.8,0.45-7.199,1.75l-2.65-4.8
		c3.05-1.75,5.6-2.65,9.85-2.65c6.352,0,10.651,3.301,10.651,9.2v17.602H363.694z M363.694,339.209c-1.2-0.75-2.351-1.1-4.8-1.1
		c-2.602,0-4.001,1.2-4.001,3.3c0,1.851,1.05,3.5,4.001,3.5c2.25,0,4.05-1.149,4.8-2.399V339.209z"/>
	<path fill="#19152B" d="M392.894,350.21v-14.201c0-4.7-1.6-6.1-4.45-6.1s-4.501,1.399-4.501,5.95v14.351h-6.9v-26.252h6.9v1.75
		c1.201-1.25,3.4-2.3,6.15-2.3c6.701,0,9.701,4.601,9.701,12.001v14.801H392.894z"/>
	<path fill="#19152B" d="M420.644,350.21v-1.65c-1.301,1.15-3.051,2.2-5.551,2.2c-5.6,0-10.201-4.2-10.201-14.001
		c0-7.851,3.701-13.351,10.201-13.351c2.301,0,4.301,0.9,5.551,2.05v-8.25l6.9-3.45v36.452H420.644z M420.644,332.159
		c-1.051-1.45-2.65-2.25-4.65-2.25c-2.65,0-4.101,2.3-4.101,6.7c0,5.4,1.8,7.65,4.501,7.65c2.149,0,3.25-0.9,4.25-2.2V332.159z"/>
</g>
</svg>
