<?xml version="1.0" encoding="utf-8"?>
<!-- Generator: Adobe Illustrator 15.1.0, SVG Export Plug-In . SVG Version: 6.00 Build 0)  -->
<!DOCTYPE svg PUBLIC "-//W3C//DTD SVG 1.1//EN" "http://www.w3.org/Graphics/SVG/1.1/DTD/svg11.dtd">
<svg version="1.1" id="Layer_1" xmlns="http://www.w3.org/2000/svg" xmlns:xlink="http://www.w3.org/1999/xlink" x="0px" y="0px"
	 width="536.378px" height="780.521px" viewBox="0 0 536.378 780.521" enable-background="new 0 0 536.378 780.521"
	 xml:space="preserve">
<rect x="56.69" y="386.761" fill="none" width="434.001" height="82"/>
<g>
	<g>
		<rect x="-4" y="402.748" fill="none" width="532.597" height="75"/>
		<g enable-background="new    ">
			<path fill="#FFFFFF" d="M42.5,463.027c-6.553,0-12.025-2.376-16.202-6.049l2.232-2.448c4.104,3.457,8.497,5.473,14.113,5.473
				c6.84,0,12.241-3.528,12.241-10.297c0-5.544-3.168-8.425-13.177-12.097c-10.873-4.032-14.186-7.201-14.186-14.113
				c0-7.201,5.617-12.457,15.049-12.457c6.697,0,10.729,1.944,14.689,4.824l-2.16,2.593c-3.601-2.736-7.129-4.393-12.745-4.393
				c-7.921,0-11.521,4.393-11.521,9.217c0,5.112,2.304,7.633,12.673,11.377c11.161,4.176,14.689,7.633,14.689,14.905
				C58.198,457.843,51.645,463.027,42.5,463.027z"/>
			<path fill="#FFFFFF" d="M70.866,416.151c-1.368,0-2.376-1.08-2.376-2.305c0-1.296,1.008-2.304,2.376-2.304
				c1.152,0,2.232,1.008,2.232,2.304C73.099,415.071,72.019,416.151,70.866,416.151z M69.21,462.235v-37.804h3.168v37.804H69.21z"/>
			<path fill="#FFFFFF" d="M82.098,462.235v-2.376l22.754-32.763H84.114v-2.665h24.338v2.377l-22.682,32.763h22.682v2.664H82.098z"
				/>
			<path fill="#FFFFFF" d="M120.618,416.151c-1.368,0-2.376-1.08-2.376-2.305c0-1.296,1.008-2.304,2.376-2.304
				c1.152,0,2.232,1.008,2.232,2.304C122.85,415.071,121.77,416.151,120.618,416.151z M118.962,462.235v-37.804h3.168v37.804
				H118.962z"/>
			<path fill="#FFFFFF" d="M159.356,462.235v-22.61c0-9.217-4.032-13.177-10.873-13.177c-5.544,0-11.377,3.312-11.377,13.105v22.682
				h-3.168v-37.804h3.168v6.409c1.872-4.608,6.336-7.201,12.025-7.201c7.993,0,13.393,4.537,13.393,15.41v23.186H159.356z"/>
		</g>
		<g enable-background="new    ">
			<path fill="#FFFFFF" d="M179.37,476.349l-1.08-2.664c13.105-0.36,17.137-4.249,17.137-14.474v-2.664
				c-2.736,3.744-7.057,6.48-12.385,6.48c-8.065,0-13.969-5.761-13.969-19.298c0-13.681,6.121-20.09,14.329-20.09
				c5.185,0,9.289,2.521,12.025,6.337v-5.545h3.168v34.419C198.596,470.588,193.627,475.988,179.37,476.349z M195.427,433.505
				c-2.52-4.032-6.769-7.057-11.737-7.057c-7.272,0-11.377,5.545-11.377,17.21c0,11.305,4.392,16.561,11.521,16.561
				c4.68,0,8.713-2.808,11.593-6.912V433.505z"/>
		</g>
		<g enable-background="new    ">
			<path fill="#FFFFFF" d="M244.026,463.027c-11.449,0-17.498-6.624-17.498-20.162v-31.034h3.312v30.963
				c0,11.665,4.825,17.209,14.33,17.209c9.504,0,13.969-5.473,13.969-17.138v-31.034h3.312v30.963
				C261.451,456.331,255.547,463.027,244.026,463.027z"/>
		</g>
		<g enable-background="new    ">
			<path fill="#FFFFFF" d="M287.945,463.027c-5.113,0-9.217-2.521-12.025-6.337v17.426l-3.168,1.801v-51.485h3.168v5.688
				c2.809-3.744,7.129-6.48,12.457-6.48c8.064,0,13.896,5.761,13.896,19.298C302.273,456.619,296.225,463.027,287.945,463.027z
				 M287.584,426.448c-4.753,0-8.784,2.809-11.665,6.913v19.801c2.592,4.033,6.84,7.057,11.809,7.057
				c7.201,0,11.305-5.544,11.305-17.209C299.033,431.705,294.641,426.448,287.584,426.448z"/>
		</g>
		<g enable-background="new    ">
			<path fill="#FFFFFF" d="M369.017,462.379h-3.889l-12.097-45.867l-12.097,45.867h-3.816l-10.729-50.548h3.312l9.36,46.084
				l12.098-46.084h3.889l12.097,46.084l9.433-46.084h3.24L369.017,462.379z"/>
		</g>
		<g enable-background="new    ">
			<path fill="#FFFFFF" d="M413.8,462.235v-5.688c-2.881,3.672-7.273,6.48-12.817,6.48c-6.192,0-12.529-2.809-12.529-11.665
				c0-8.353,6.696-12.169,14.186-12.169c4.608,0,8.497,1.296,11.161,2.809v-5.617c0-7.2-3.168-10.08-9.865-10.08
				c-4.32,0-7.633,1.224-10.873,2.952l-1.152-2.593c3.312-1.728,7.346-3.024,12.242-3.024c8.208,0,12.816,3.312,12.816,12.386v26.21
				H413.8z M413.8,444.594c-2.881-1.656-6.337-2.809-11.305-2.809c-6.338,0-10.945,3.24-10.945,9.434
				c0,6.696,4.607,9.217,9.937,9.217s9.577-2.952,12.313-7.057V444.594z"/>
		</g>
		<g enable-background="new    ">
			<path fill="#FFFFFF" d="M442.095,461.516c-1.943,0.863-4.032,1.368-6.769,1.368c-4.177,0-6.408-2.305-6.408-7.345v-28.442h-4.896
				v-2.665h4.896v-12.889l3.168-1.8v14.688h10.009v2.665h-10.009v27.938c0,3.384,1.296,4.968,4.393,4.968
				c2.231,0,3.96-0.432,5.761-1.296L442.095,461.516z"/>
		</g>
		<g enable-background="new    ">
			<path fill="#FFFFFF" d="M477.808,444.233h-26.932c0.289,10.153,5.258,15.985,12.242,15.985c4.896,0,7.848-1.224,11.305-3.384
				l1.439,2.304c-4.031,2.521-7.416,3.889-13.104,3.889c-7.417,0-15.05-5.904-15.05-19.802c0-12.312,6.697-19.586,15.266-19.586
				c9.145,0,14.978,7.273,14.978,18.866C477.952,443.298,477.879,443.802,477.808,444.233z M462.974,426.448
				c-6.625,0-11.665,5.185-12.098,15.193h24.051C474.639,432.064,470.175,426.448,462.974,426.448z"/>
		</g>
		<g enable-background="new    ">
			<path fill="#FFFFFF" d="M506.03,427.744c-1.656-0.72-3.312-1.152-5.833-1.152c-4.896,0-9.937,3.745-9.937,12.89v22.754h-3.169
				v-37.804h3.169v6.841c1.44-4.752,5.977-7.633,10.585-7.633c2.736,0,4.68,0.36,5.977,1.009L506.03,427.744z"/>
		</g>
	</g>
</g>
<rect x="28.955" y="519.761" fill="none" width="488.734" height="172"/>
<g enable-background="new    ">
	<path fill="#FFFFFF" d="M37.295,501.682v17.762h-1.242v-17.762h-5.857v-1.133h12.957v1.133H37.295z"/>
	<path fill="#FFFFFF" d="M55.978,519.443v-8.476c0-3.455-1.511-4.939-4.076-4.939c-2.079,0-4.265,1.241-4.265,4.912v8.503H46.45
		V500.44l1.188-0.675v7.909c0.702-1.701,2.375-2.699,4.508-2.699c2.996,0,5.021,1.7,5.021,5.776v8.691H55.978z"/>
	<path fill="#FFFFFF" d="M72.205,512.695H62.109c0.108,3.806,1.971,5.992,4.589,5.992c1.835,0,2.942-0.459,4.238-1.269l0.54,0.863
		c-1.512,0.945-2.78,1.458-4.913,1.458c-2.78,0-5.642-2.213-5.642-7.423c0-4.616,2.51-7.342,5.723-7.342
		c3.428,0,5.614,2.726,5.614,7.071C72.259,512.345,72.232,512.533,72.205,512.695z M66.645,506.028
		c-2.483,0-4.373,1.943-4.535,5.695h9.016C71.017,508.134,69.344,506.028,66.645,506.028z"/>
	<path fill="#FFFFFF" d="M89.701,519.74c-4.292,0-6.559-2.483-6.559-7.558v-11.634h1.242v11.606c0,4.373,1.808,6.451,5.372,6.451
		c3.563,0,5.236-2.052,5.236-6.424v-11.634h1.242v11.606C96.233,517.229,94.02,519.74,89.701,519.74z"/>
	<path fill="#FFFFFF" d="M100.962,519.605c-0.567,0-1.026-0.459-1.026-1.025c0-0.567,0.459-1.08,1.026-1.08
		c0.54,0,1.025,0.513,1.025,1.08C101.987,519.146,101.501,519.605,100.962,519.605z"/>
	<path fill="#FFFFFF" d="M111.464,519.74c-2.457,0-4.508-0.891-6.074-2.268l0.837-0.918c1.539,1.296,3.185,2.052,5.291,2.052
		c2.564,0,4.589-1.322,4.589-3.859c0-2.079-1.188-3.158-4.94-4.535c-4.076-1.512-5.317-2.699-5.317-5.291
		c0-2.699,2.105-4.669,5.642-4.669c2.51,0,4.022,0.729,5.506,1.808l-0.81,0.972c-1.35-1.025-2.672-1.646-4.778-1.646
		c-2.969,0-4.319,1.646-4.319,3.455c0,1.917,0.864,2.861,4.751,4.266c4.184,1.565,5.506,2.861,5.506,5.587
		C117.348,517.797,114.892,519.74,111.464,519.74z"/>
	<path fill="#FFFFFF" d="M121.887,519.605c-0.567,0-1.026-0.459-1.026-1.025c0-0.567,0.459-1.08,1.026-1.08
		c0.54,0,1.025,0.513,1.025,1.08C122.913,519.146,122.427,519.605,121.887,519.605z"/>
	<path fill="#FFFFFF" d="M143.268,519.443v-2.402c-0.594,1.755-2.348,2.699-4.48,2.699c-3.023,0-5.048-1.7-5.048-5.776v-8.691h1.188
		v8.476c0,3.455,1.539,4.939,4.076,4.939c2.079,0,4.265-1.241,4.265-4.913v-8.502h1.188v14.171H143.268z"/>
	<path fill="#FFFFFF" d="M152.665,519.74c-1.862,0-3.212-0.594-4.562-1.646l0.648-0.864c1.106,0.918,2.375,1.485,3.941,1.485
		c2.186,0,3.428-0.999,3.428-2.727c0-1.458-0.836-2.24-3.617-3.428c-2.916-1.242-3.995-2.052-3.995-4.185
		c0-1.943,1.673-3.4,4.13-3.4c1.971,0,3.374,0.62,4.319,1.403l-0.675,0.863c-0.972-0.756-2.024-1.241-3.698-1.241
		c-1.835,0-2.915,1.025-2.915,2.294c0,1.512,0.783,2.16,3.455,3.294c2.78,1.188,4.13,2.078,4.13,4.372
		C157.254,518.472,155.229,519.74,152.665,519.74z"/>
	<path fill="#FFFFFF" d="M171.456,512.695H161.36c0.108,3.806,1.971,5.992,4.589,5.992c1.835,0,2.942-0.459,4.238-1.269l0.54,0.863
		c-1.512,0.945-2.78,1.458-4.913,1.458c-2.78,0-5.642-2.213-5.642-7.423c0-4.616,2.51-7.342,5.723-7.342
		c3.428,0,5.614,2.726,5.614,7.071C171.509,512.345,171.482,512.533,171.456,512.695z M165.895,506.028
		c-2.483,0-4.373,1.943-4.535,5.695h9.016C170.268,508.134,168.594,506.028,165.895,506.028z"/>
	<path fill="#FFFFFF" d="M178.774,519.74c-1.862,0-3.212-0.594-4.562-1.646l0.648-0.864c1.106,0.918,2.375,1.485,3.941,1.485
		c2.186,0,3.428-0.999,3.428-2.727c0-1.458-0.836-2.24-3.617-3.428c-2.916-1.242-3.995-2.052-3.995-4.185
		c0-1.943,1.673-3.4,4.13-3.4c1.971,0,3.374,0.62,4.319,1.403l-0.675,0.863c-0.972-0.756-2.024-1.241-3.698-1.241
		c-1.835,0-2.915,1.025-2.915,2.294c0,1.512,0.783,2.16,3.455,3.294c2.78,1.188,4.13,2.078,4.13,4.372
		C183.363,518.472,181.338,519.74,178.774,519.74z"/>
	<path fill="#FFFFFF" d="M203.936,514.611v4.832h-1.134v-4.832h-10.015v-1.025l9.826-13.118h1.323v13.091h2.807v1.053H203.936z
		 M202.802,502.006l-8.638,11.553h8.638V502.006z"/>
	<path fill="#FFFFFF" d="M211.444,519.443v-16.897c-0.189,0.432-1.728,1.188-3.375,1.188v-1.025
		c1.701-0.081,3.293-0.783,3.644-2.214h0.945v18.949H211.444z"/>
	<path fill="#FFFFFF" d="M224.051,519.74c-4.184,0-6.991-3.59-6.991-9.744s2.807-9.744,6.991-9.744c4.211,0,7.018,3.59,7.018,9.744
		S228.262,519.74,224.051,519.74z M224.051,501.358c-3.644,0-5.776,3.293-5.776,8.638s2.132,8.638,5.776,8.638
		s5.776-3.293,5.776-8.638S227.695,501.358,224.051,501.358z"/>
	<path fill="#FFFFFF" d="M247.568,519.74c-1.917,0-3.455-0.944-4.508-2.375v2.078h-1.188V500.44l1.188-0.675v7.639
		c1.053-1.403,2.672-2.429,4.669-2.429c3.023,0,5.21,2.159,5.21,7.233C252.94,517.338,250.672,519.74,247.568,519.74z
		 M247.433,506.028c-1.781,0-3.293,1.053-4.373,2.591v7.423c0.972,1.512,2.564,2.646,4.427,2.646c2.699,0,4.238-2.078,4.238-6.451
		C251.725,507.998,250.079,506.028,247.433,506.028z"/>
	<path fill="#FFFFFF" d="M257.56,502.168c-0.513,0-0.891-0.405-0.891-0.863c0-0.486,0.378-0.864,0.891-0.864
		c0.432,0,0.837,0.378,0.837,0.864C258.396,501.763,257.992,502.168,257.56,502.168z M256.939,519.443v-14.171h1.188v14.171H256.939
		z"/>
	<path fill="#FFFFFF" d="M263.041,519.443V500.44l1.188-0.675v19.678H263.041z"/>
	<path fill="#FFFFFF" d="M269.142,519.443V500.44l1.188-0.675v19.678H269.142z"/>
	<path fill="#FFFFFF" d="M275.865,502.168c-0.512,0-0.891-0.405-0.891-0.863c0-0.486,0.379-0.864,0.891-0.864
		c0.433,0,0.838,0.378,0.838,0.864C276.703,501.763,276.297,502.168,275.865,502.168z M275.245,519.443v-14.171h1.188v14.171
		H275.245z"/>
	<path fill="#FFFFFF" d="M286.501,519.74c-3.4,0-6.072-2.591-6.072-7.369c0-4.777,2.726-7.396,6.154-7.396
		c3.4,0,6.072,2.563,6.072,7.314C292.656,517.068,289.93,519.74,286.501,519.74z M286.529,506.028c-2.807,0-4.885,2.159-4.885,6.289
		c0,4.157,2.078,6.37,4.885,6.37c2.834,0,4.913-2.213,4.913-6.37C291.442,508.188,289.363,506.028,286.529,506.028z"/>
	<path fill="#FFFFFF" d="M306.048,519.443v-8.476c0-3.455-1.512-4.939-4.076-4.939c-2.078,0-4.264,1.241-4.264,4.912v8.503h-1.188
		v-14.171h1.188v2.402c0.701-1.728,2.375-2.699,4.508-2.699c2.996,0,5.02,1.7,5.02,5.776v8.691H306.048z"/>
	<path fill="#FFFFFF" d="M321.628,524.734l-0.404-0.999c4.912-0.135,6.424-1.593,6.424-5.426v-0.999
		c-1.025,1.404-2.646,2.43-4.643,2.43c-3.023,0-5.236-2.159-5.236-7.234c0-5.128,2.294-7.53,5.371-7.53
		c1.943,0,3.482,0.944,4.508,2.375v-2.078h1.188v12.902C328.835,522.574,326.973,524.599,321.628,524.734z M327.648,508.673
		c-0.945-1.511-2.537-2.645-4.4-2.645c-2.726,0-4.264,2.078-4.264,6.451c0,4.237,1.646,6.208,4.318,6.208
		c1.754,0,3.266-1.053,4.346-2.591V508.673z"/>
	<path fill="#FFFFFF" d="M342.12,519.443v-2.133c-1.08,1.377-2.727,2.43-4.805,2.43c-2.321,0-4.696-1.053-4.696-4.373
		c0-3.131,2.51-4.562,5.317-4.562c1.728,0,3.185,0.486,4.184,1.053v-2.105c0-2.699-1.188-3.779-3.698-3.779
		c-1.619,0-2.861,0.459-4.076,1.107l-0.432-0.972c1.242-0.648,2.754-1.134,4.589-1.134c3.077,0,4.805,1.241,4.805,4.643v9.825
		H342.12z M342.12,512.83c-1.08-0.621-2.375-1.053-4.237-1.053c-2.376,0-4.104,1.215-4.104,3.536c0,2.511,1.728,3.455,3.726,3.455
		c1.997,0,3.59-1.106,4.615-2.646V512.83z"/>
	<path fill="#FFFFFF" d="M347.981,519.443V500.44l1.188-0.675v19.678H347.981z"/>
	<path fill="#FFFFFF" d="M354.083,519.443V500.44l1.188-0.675v19.678H354.083z"/>
	<path fill="#FFFFFF" d="M365.341,519.74c-3.401,0-6.073-2.591-6.073-7.369c0-4.777,2.726-7.396,6.154-7.396
		c3.4,0,6.073,2.563,6.073,7.314C371.496,517.068,368.769,519.74,365.341,519.74z M365.368,506.028
		c-2.807,0-4.886,2.159-4.886,6.289c0,4.157,2.079,6.37,4.886,6.37c2.835,0,4.913-2.213,4.913-6.37
		C370.281,508.188,368.203,506.028,365.368,506.028z"/>
	<path fill="#FFFFFF" d="M384.887,519.443v-8.476c0-3.455-1.512-4.939-4.075-4.939c-2.079,0-4.266,1.241-4.266,4.912v8.503h-1.188
		v-14.171h1.188v2.402c0.702-1.728,2.376-2.699,4.508-2.699c2.996,0,5.021,1.7,5.021,5.776v8.691H384.887z"/>
	<path fill="#FFFFFF" d="M394.177,519.74c-1.863,0-3.213-0.594-4.562-1.646l0.648-0.864c1.106,0.918,2.375,1.485,3.94,1.485
		c2.187,0,3.429-0.999,3.429-2.727c0-1.458-0.837-2.24-3.617-3.428c-2.915-1.242-3.995-2.052-3.995-4.185
		c0-1.943,1.674-3.4,4.13-3.4c1.971,0,3.374,0.62,4.319,1.403l-0.675,0.863c-0.973-0.756-2.025-1.241-3.698-1.241
		c-1.836,0-2.915,1.025-2.915,2.294c0,1.512,0.782,2.16,3.455,3.294c2.78,1.188,4.13,2.078,4.13,4.372
		C398.766,518.472,396.742,519.74,394.177,519.74z"/>
	<path fill="#FFFFFF" d="M418.151,519.443v-2.133c-1.08,1.377-2.727,2.43-4.805,2.43c-2.321,0-4.696-1.053-4.696-4.373
		c0-3.131,2.51-4.562,5.317-4.562c1.728,0,3.185,0.486,4.184,1.053v-2.105c0-2.699-1.188-3.779-3.698-3.779
		c-1.619,0-2.861,0.459-4.075,1.107l-0.433-0.972c1.242-0.648,2.754-1.134,4.589-1.134c3.077,0,4.805,1.241,4.805,4.643v9.825
		H418.151z M418.151,512.83c-1.08-0.621-2.375-1.053-4.237-1.053c-2.376,0-4.104,1.215-4.104,3.536c0,2.511,1.728,3.455,3.726,3.455
		c1.997,0,3.59-1.106,4.615-2.646V512.83z"/>
	<path fill="#FFFFFF" d="M439.75,519.443v-2.133c-1.025,1.404-2.646,2.43-4.643,2.43c-3.023,0-5.236-2.159-5.236-7.234
		c0-5.128,2.294-7.53,5.371-7.53c1.943,0,3.482,0.944,4.508,2.375v-6.91l1.188-0.675v19.678H439.75z M439.75,508.673
		c-0.944-1.511-2.537-2.645-4.399-2.645c-2.727,0-4.266,2.078-4.266,6.451c0,4.237,1.646,6.208,4.319,6.208
		c1.754,0,3.266-1.053,4.346-2.591V508.673z"/>
	<path fill="#FFFFFF" d="M454.222,519.443v-2.133c-1.08,1.377-2.727,2.43-4.805,2.43c-2.321,0-4.696-1.053-4.696-4.373
		c0-3.131,2.51-4.562,5.317-4.562c1.728,0,3.185,0.486,4.184,1.053v-2.105c0-2.699-1.188-3.779-3.698-3.779
		c-1.619,0-2.861,0.459-4.075,1.107l-0.433-0.972c1.242-0.648,2.754-1.134,4.589-1.134c3.077,0,4.805,1.241,4.805,4.643v9.825
		H454.222z M454.222,512.83c-1.08-0.621-2.375-1.053-4.237-1.053c-2.376,0-4.104,1.215-4.104,3.536c0,2.511,1.728,3.455,3.726,3.455
		c1.997,0,3.59-1.106,4.615-2.646V512.83z"/>
	<path fill="#FFFFFF" d="M462.836,524.438h-1.188l1.89-5.075l-5.155-14.09h1.269l4.508,12.74l4.508-12.74h1.269L462.836,524.438z"/>
	<path fill="#FFFFFF" d="M471.639,519.605c-0.566,0-1.025-0.459-1.025-1.025c0-0.567,0.459-1.08,1.025-1.08
		c0.54,0,1.026,0.513,1.026,1.08C472.666,519.146,472.179,519.605,471.639,519.605z"/>
	<path fill="#FFFFFF" d="M489.62,501.682v17.762h-1.242v-17.762h-5.857v-1.133h12.957v1.133H489.62z"/>
	<path fill="#FFFFFF" d="M501.635,519.74c-3.401,0-6.073-2.591-6.073-7.369c0-4.777,2.726-7.396,6.154-7.396
		c3.4,0,6.073,2.563,6.073,7.314C507.79,517.068,505.063,519.74,501.635,519.74z M501.662,506.028c-2.807,0-4.886,2.159-4.886,6.289
		c0,4.157,2.079,6.37,4.886,6.37c2.835,0,4.913-2.213,4.913-6.37C506.575,508.188,504.497,506.028,501.662,506.028z"/>
</g>
<g enable-background="new    ">
	<path fill="#FFFFFF" d="M36.972,552.141c-1.917,0-3.455-0.944-4.508-2.375v6.532l-1.188,0.675v-19.3h1.188v2.132
		c1.053-1.403,2.672-2.429,4.669-2.429c3.023,0,5.21,2.159,5.21,7.233C42.343,549.738,40.076,552.141,36.972,552.141z
		 M36.836,538.429c-1.781,0-3.293,1.053-4.373,2.591v7.423c0.972,1.512,2.564,2.646,4.427,2.646c2.699,0,4.238-2.078,4.238-6.451
		C41.128,540.398,39.482,538.429,36.836,538.429z"/>
	<path fill="#FFFFFF" d="M55.627,551.844v-2.402c-0.594,1.755-2.348,2.699-4.48,2.699c-3.023,0-5.048-1.7-5.048-5.776v-8.691h1.188
		v8.476c0,3.455,1.539,4.939,4.076,4.939c2.079,0,4.265-1.241,4.265-4.913v-8.502h1.188v14.171H55.627z"/>
	<path fill="#FFFFFF" d="M66.887,551.574c-0.729,0.323-1.512,0.513-2.538,0.513c-1.565,0-2.402-0.864-2.402-2.754v-10.662h-1.835
		v-0.998h1.835v-4.832l1.188-0.675v5.507h3.752v0.998h-3.752v10.474c0,1.269,0.486,1.862,1.646,1.862
		c0.837,0,1.484-0.162,2.159-0.485L66.887,551.574z"/>
	<path fill="#FFFFFF" d="M83.06,551.574c-0.729,0.323-1.512,0.513-2.538,0.513c-1.565,0-2.402-0.864-2.402-2.754v-10.662h-1.835
		v-0.998h1.835v-4.832l1.188-0.675v5.507h3.752v0.998h-3.752v10.474c0,1.269,0.486,1.862,1.646,1.862
		c0.836,0,1.484-0.162,2.159-0.485L83.06,551.574z"/>
	<path fill="#FFFFFF" d="M96.558,551.844v-8.476c0-3.455-1.511-4.939-4.076-4.939c-2.079,0-4.265,1.241-4.265,4.912v8.503H87.03
		v-19.003l1.188-0.675v7.909c0.702-1.701,2.375-2.699,4.508-2.699c2.996,0,5.021,1.7,5.021,5.776v8.691H96.558z"/>
	<path fill="#FFFFFF" d="M110.922,551.844v-2.133c-1.08,1.377-2.726,2.43-4.805,2.43c-2.321,0-4.697-1.053-4.697-4.373
		c0-3.131,2.51-4.562,5.318-4.562c1.728,0,3.185,0.486,4.184,1.053v-2.105c0-2.699-1.188-3.779-3.698-3.779
		c-1.62,0-2.861,0.459-4.076,1.107l-0.432-0.972c1.242-0.648,2.753-1.134,4.589-1.134c3.077,0,4.805,1.241,4.805,4.643v9.825
		H110.922z M110.922,545.23c-1.08-0.621-2.375-1.053-4.238-1.053c-2.375,0-4.103,1.215-4.103,3.536c0,2.511,1.728,3.455,3.725,3.455
		s3.59-1.106,4.616-2.646V545.23z"/>
	<path fill="#FFFFFF" d="M122.074,551.574c-0.729,0.323-1.512,0.513-2.538,0.513c-1.565,0-2.402-0.864-2.402-2.754v-10.662h-1.835
		v-0.998h1.835v-4.832l1.188-0.675v5.507h3.752v0.998h-3.752v10.474c0,1.269,0.486,1.862,1.646,1.862
		c0.836,0,1.484-0.162,2.159-0.485L122.074,551.574z"/>
	<path fill="#FFFFFF" d="M133.577,534.568c-0.513,0-0.891-0.405-0.891-0.863c0-0.486,0.378-0.864,0.891-0.864
		c0.432,0,0.837,0.378,0.837,0.864C134.414,534.163,134.009,534.568,133.577,534.568z M132.956,551.844v-14.171h1.188v14.171
		H132.956z"/>
	<path fill="#FFFFFF" d="M148.451,551.844v-8.476c0-3.455-1.511-4.939-4.076-4.939c-2.079,0-4.265,1.241-4.265,4.912v8.503h-1.188
		v-14.171h1.188v2.402c0.702-1.728,2.375-2.699,4.508-2.699c2.996,0,5.021,1.7,5.021,5.776v8.691H148.451z"/>
	<path fill="#FFFFFF" d="M166.65,552.141c-1.917,0-3.455-0.944-4.508-2.375v6.532l-1.188,0.675v-19.3h1.188v2.132
		c1.053-1.403,2.672-2.429,4.669-2.429c3.023,0,5.209,2.159,5.209,7.233C172.021,549.738,169.754,552.141,166.65,552.141z
		 M166.515,538.429c-1.781,0-3.293,1.053-4.373,2.591v7.423c0.972,1.512,2.564,2.646,4.427,2.646c2.699,0,4.238-2.078,4.238-6.451
		C170.807,540.398,169.16,538.429,166.515,538.429z"/>
	<path fill="#FFFFFF" d="M186.386,545.096H176.29c0.108,3.806,1.971,5.992,4.589,5.992c1.835,0,2.942-0.459,4.238-1.269l0.54,0.863
		c-1.512,0.945-2.78,1.458-4.913,1.458c-2.78,0-5.642-2.213-5.642-7.423c0-4.616,2.51-7.342,5.723-7.342
		c3.428,0,5.614,2.726,5.614,7.071C186.439,544.745,186.413,544.934,186.386,545.096z M180.825,538.429
		c-2.483,0-4.373,1.943-4.535,5.695h9.016C185.198,540.534,183.524,538.429,180.825,538.429z"/>
	<path fill="#FFFFFF" d="M197.51,538.914c-0.621-0.27-1.242-0.432-2.187-0.432c-1.835,0-3.725,1.403-3.725,4.832v8.529h-1.188
		v-14.171h1.188v2.564c0.54-1.782,2.24-2.861,3.968-2.861c1.026,0,1.754,0.135,2.24,0.378L197.51,538.914z"/>
	<path fill="#FFFFFF" d="M204.126,552.141c-1.862,0-3.212-0.594-4.562-1.646l0.648-0.864c1.106,0.918,2.375,1.485,3.941,1.485
		c2.186,0,3.428-0.999,3.428-2.727c0-1.458-0.836-2.24-3.617-3.428c-2.916-1.242-3.995-2.052-3.995-4.185
		c0-1.943,1.673-3.4,4.13-3.4c1.971,0,3.374,0.62,4.319,1.403l-0.675,0.863c-0.972-0.756-2.024-1.241-3.698-1.241
		c-1.835,0-2.915,1.025-2.915,2.294c0,1.512,0.783,2.16,3.455,3.294c2.78,1.188,4.13,2.078,4.13,4.372
		C208.715,550.872,206.69,552.141,204.126,552.141z"/>
	<path fill="#FFFFFF" d="M218.382,552.141c-1.917,0-3.455-0.944-4.508-2.375v6.532l-1.188,0.675v-19.3h1.188v2.132
		c1.053-1.403,2.672-2.429,4.669-2.429c3.023,0,5.21,2.159,5.21,7.233C223.753,549.738,221.486,552.141,218.382,552.141z
		 M218.247,538.429c-1.781,0-3.293,1.053-4.373,2.591v7.423c0.972,1.512,2.564,2.646,4.427,2.646c2.699,0,4.238-2.078,4.238-6.451
		C222.539,540.398,220.892,538.429,218.247,538.429z"/>
	<path fill="#FFFFFF" d="M238.117,545.096h-10.096c0.108,3.806,1.971,5.992,4.589,5.992c1.835,0,2.942-0.459,4.238-1.269l0.54,0.863
		c-1.512,0.945-2.78,1.458-4.913,1.458c-2.78,0-5.642-2.213-5.642-7.423c0-4.616,2.51-7.342,5.723-7.342
		c3.428,0,5.614,2.726,5.614,7.071C238.171,544.745,238.144,544.934,238.117,545.096z M232.557,538.429
		c-2.483,0-4.373,1.943-4.535,5.695h9.016C236.929,540.534,235.256,538.429,232.557,538.429z"/>
	<path fill="#FFFFFF" d="M247.19,552.141c-2.996,0-5.831-2.268-5.831-7.342c0-5.183,2.996-7.423,5.938-7.423
		c1.943,0,3.239,0.675,4.292,1.565l-0.729,0.891c-0.999-0.864-1.998-1.403-3.644-1.403c-2.483,0-4.643,2.187-4.643,6.262
		c0,4.13,2.024,6.397,4.669,6.397c1.512,0,2.672-0.566,3.644-1.484l0.702,0.782C250.483,551.466,249.08,552.141,247.19,552.141z"/>
	<path fill="#FFFFFF" d="M260.852,551.574c-0.729,0.323-1.512,0.513-2.538,0.513c-1.565,0-2.402-0.864-2.402-2.754v-10.662h-1.835
		v-0.998h1.835v-4.832l1.188-0.675v5.507h3.752v0.998H257.1v10.474c0,1.269,0.486,1.862,1.646,1.862
		c0.837,0,1.484-0.162,2.159-0.485L260.852,551.574z"/>
	<path fill="#FFFFFF" d="M265.578,534.568c-0.513,0-0.891-0.405-0.891-0.863c0-0.486,0.378-0.864,0.891-0.864
		c0.432,0,0.837,0.378,0.837,0.864C266.415,534.163,266.01,534.568,265.578,534.568z M264.957,551.844v-14.171h1.188v14.171H264.957
		z"/>
	<path fill="#FFFFFF" d="M275.999,551.871h-1.053l-5.183-14.198h1.296l4.427,12.794l4.453-12.794h1.242L275.999,551.871z"/>
	<path fill="#FFFFFF" d="M294.681,545.096h-10.096c0.108,3.806,1.971,5.992,4.589,5.992c1.835,0,2.942-0.459,4.237-1.269
		l0.541,0.863c-1.512,0.945-2.781,1.458-4.913,1.458c-2.78,0-5.642-2.213-5.642-7.423c0-4.616,2.51-7.342,5.723-7.342
		c3.428,0,5.614,2.726,5.614,7.071C294.735,544.745,294.708,544.934,294.681,545.096z M289.121,538.429
		c-2.483,0-4.373,1.943-4.535,5.695h9.016C293.494,540.534,291.82,538.429,289.121,538.429z"/>
	<path fill="#FFFFFF" d="M298.302,554.436h-0.864l0.459-5.048h1.593L298.302,554.436z"/>
	<path fill="#FFFFFF" d="M314.069,552.141c-1.862,0-3.212-0.594-4.562-1.646l0.648-0.864c1.105,0.918,2.375,1.485,3.94,1.485
		c2.187,0,3.428-0.999,3.428-2.727c0-1.458-0.837-2.24-3.616-3.428c-2.916-1.242-3.996-2.052-3.996-4.185
		c0-1.943,1.674-3.4,4.131-3.4c1.971,0,3.373,0.62,4.318,1.403l-0.675,0.863c-0.972-0.756-2.024-1.241-3.698-1.241
		c-1.836,0-2.915,1.025-2.915,2.294c0,1.512,0.782,2.16,3.455,3.294c2.78,1.188,4.13,2.078,4.13,4.372
		C318.658,550.872,316.633,552.141,314.069,552.141z"/>
	<path fill="#FFFFFF" d="M327.785,551.574c-0.729,0.323-1.512,0.513-2.538,0.513c-1.565,0-2.402-0.864-2.402-2.754v-10.662h-1.835
		v-0.998h1.835v-4.832l1.188-0.675v5.507h3.752v0.998h-3.752v10.474c0,1.269,0.485,1.862,1.646,1.862
		c0.836,0,1.484-0.162,2.158-0.485L327.785,551.574z"/>
	<path fill="#FFFFFF" d="M339.987,551.844v-2.133c-1.08,1.377-2.727,2.43-4.805,2.43c-2.321,0-4.696-1.053-4.696-4.373
		c0-3.131,2.51-4.562,5.317-4.562c1.728,0,3.185,0.486,4.184,1.053v-2.105c0-2.699-1.188-3.779-3.698-3.779
		c-1.619,0-2.861,0.459-4.076,1.107l-0.432-0.972c1.242-0.648,2.754-1.134,4.589-1.134c3.077,0,4.805,1.241,4.805,4.643v9.825
		H339.987z M339.987,545.23c-1.08-0.621-2.375-1.053-4.237-1.053c-2.376,0-4.104,1.215-4.104,3.536c0,2.511,1.728,3.455,3.726,3.455
		c1.997,0,3.59-1.106,4.615-2.646V545.23z"/>
	<path fill="#FFFFFF" d="M352.813,538.914c-0.621-0.27-1.242-0.432-2.187-0.432c-1.836,0-3.726,1.403-3.726,4.832v8.529h-1.188
		v-14.171h1.188v2.564c0.54-1.782,2.24-2.861,3.968-2.861c1.026,0,1.755,0.135,2.241,0.378L352.813,538.914z"/>
	<path fill="#FFFFFF" d="M362.101,551.574c-0.729,0.323-1.512,0.513-2.537,0.513c-1.566,0-2.402-0.864-2.402-2.754v-10.662h-1.836
		v-0.998h1.836v-4.832l1.188-0.675v5.507h3.752v0.998h-3.752v10.474c0,1.269,0.485,1.862,1.646,1.862
		c0.837,0,1.484-0.162,2.159-0.485L362.101,551.574z"/>
	<path fill="#FFFFFF" d="M376.411,552.141c-1.863,0-3.213-0.594-4.562-1.646l0.648-0.864c1.106,0.918,2.375,1.485,3.94,1.485
		c2.187,0,3.429-0.999,3.429-2.727c0-1.458-0.837-2.24-3.617-3.428c-2.915-1.242-3.995-2.052-3.995-4.185
		c0-1.943,1.674-3.4,4.13-3.4c1.971,0,3.374,0.62,4.319,1.403l-0.676,0.863c-0.972-0.756-2.024-1.241-3.697-1.241
		c-1.836,0-2.915,1.025-2.915,2.294c0,1.512,0.782,2.16,3.455,3.294c2.78,1.188,4.13,2.078,4.13,4.372
		C381,550.872,378.975,552.141,376.411,552.141z"/>
	<path fill="#FFFFFF" d="M403.136,551.844v-8.476c0-3.563-1.512-4.939-3.859-4.939c-1.998,0-4.022,1.214-4.022,4.912v8.503h-1.188
		v-8.503c0-3.562-1.565-4.912-3.887-4.912c-1.998,0-4.022,1.214-4.022,4.912v8.503h-1.188v-14.171h1.188v2.402
		c0.675-1.755,2.268-2.699,4.266-2.699c2.402,0,3.859,1.376,4.372,3.212c0.675-2.052,2.321-3.212,4.697-3.212
		c2.888,0,4.831,1.673,4.831,5.776v8.691H403.136z"/>
	<path fill="#FFFFFF" d="M417.287,551.844v-2.133c-1.08,1.377-2.727,2.43-4.805,2.43c-2.321,0-4.696-1.053-4.696-4.373
		c0-3.131,2.51-4.562,5.317-4.562c1.728,0,3.185,0.486,4.184,1.053v-2.105c0-2.699-1.188-3.779-3.698-3.779
		c-1.619,0-2.861,0.459-4.075,1.107l-0.433-0.972c1.242-0.648,2.754-1.134,4.589-1.134c3.077,0,4.805,1.241,4.805,4.643v9.825
		H417.287z M417.287,545.23c-1.08-0.621-2.375-1.053-4.237-1.053c-2.376,0-4.104,1.215-4.104,3.536c0,2.511,1.728,3.455,3.726,3.455
		c1.997,0,3.59-1.106,4.615-2.646V545.23z"/>
	<path fill="#FFFFFF" d="M423.148,551.844v-19.003l1.188-0.675v19.678H423.148z"/>
	<path fill="#FFFFFF" d="M429.25,551.844v-19.003l1.188-0.675v19.678H429.25z"/>
	<path fill="#FFFFFF" d="M435.488,554.436h-0.864l0.459-5.048h1.593L435.488,554.436z"/>
	<path fill="#FFFFFF" d="M450.768,557.135l-0.404-0.999c4.912-0.135,6.424-1.593,6.424-5.426v-0.999
		c-1.025,1.404-2.646,2.43-4.643,2.43c-3.023,0-5.236-2.159-5.236-7.234c0-5.128,2.294-7.53,5.371-7.53
		c1.943,0,3.482,0.944,4.508,2.375v-2.078h1.188v12.902C457.975,554.975,456.113,556.999,450.768,557.135z M456.788,541.073
		c-0.944-1.511-2.537-2.645-4.399-2.645c-2.727,0-4.266,2.078-4.266,6.451c0,4.237,1.646,6.208,4.319,6.208
		c1.754,0,3.266-1.053,4.346-2.591V541.073z"/>
	<path fill="#FFFFFF" d="M467.913,552.141c-3.401,0-6.073-2.591-6.073-7.369c0-4.777,2.726-7.396,6.154-7.396
		c3.4,0,6.073,2.563,6.073,7.314C474.067,549.469,471.34,552.141,467.913,552.141z M467.939,538.429
		c-2.807,0-4.886,2.159-4.886,6.289c0,4.157,2.079,6.37,4.886,6.37c2.835,0,4.913-2.213,4.913-6.37
		C472.852,540.588,470.774,538.429,467.939,538.429z"/>
</g>
<g enable-background="new    ">
	<path fill="#FFFFFF" d="M36.972,584.54c-1.917,0-3.455-0.944-4.508-2.375v2.078h-1.188V565.24l1.188-0.675v7.639
		c1.053-1.403,2.672-2.429,4.669-2.429c3.023,0,5.21,2.159,5.21,7.233C42.343,582.138,40.076,584.54,36.972,584.54z M36.836,570.828
		c-1.781,0-3.293,1.053-4.373,2.591v7.423c0.972,1.512,2.564,2.646,4.427,2.646c2.699,0,4.238-2.078,4.238-6.451
		C41.128,572.798,39.482,570.828,36.836,570.828z"/>
	<path fill="#FFFFFF" d="M46.962,566.968c-0.513,0-0.891-0.405-0.891-0.863c0-0.486,0.378-0.864,0.891-0.864
		c0.432,0,0.837,0.378,0.837,0.864C47.799,566.562,47.395,566.968,46.962,566.968z M46.342,584.243v-14.171h1.188v14.171H46.342z"/>
	<path fill="#FFFFFF" d="M55.386,589.534l-0.405-0.999c4.913-0.135,6.424-1.593,6.424-5.426v-0.999
		c-1.026,1.404-2.646,2.43-4.643,2.43c-3.023,0-5.237-2.159-5.237-7.234c0-5.128,2.294-7.53,5.372-7.53
		c1.943,0,3.482,0.944,4.508,2.375v-2.078h1.188v12.902C62.593,587.374,60.73,589.398,55.386,589.534z M61.405,573.473
		c-0.945-1.511-2.537-2.645-4.4-2.645c-2.726,0-4.265,2.078-4.265,6.451c0,4.237,1.646,6.208,4.319,6.208
		c1.754,0,3.266-1.053,4.346-2.591V573.473z"/>
	<path fill="#FFFFFF" d="M67.752,584.405c-0.567,0-1.026-0.459-1.026-1.025c0-0.567,0.459-1.08,1.026-1.08
		c0.54,0,1.025,0.513,1.025,1.08C68.778,583.946,68.292,584.405,67.752,584.405z"/>
	<path fill="#FFFFFF" d="M84.68,584.243h-4.697v-18.895h4.913c5.129,0,8.476,2.86,8.476,9.366
		C93.372,581.463,89.836,584.243,84.68,584.243z M84.788,566.481h-3.563v16.628h3.617c4.588,0,7.288-2.43,7.288-8.341
		C92.13,569.235,89.566,566.481,84.788,566.481z"/>
	<path fill="#FFFFFF" d="M104.659,571.313c-0.621-0.27-1.242-0.432-2.187-0.432c-1.835,0-3.725,1.403-3.725,4.832v8.529H97.56
		v-14.171h1.188v2.564c0.54-1.782,2.24-2.861,3.968-2.861c1.026,0,1.754,0.135,2.24,0.378L104.659,571.313z"/>
	<path fill="#FFFFFF" d="M115.945,584.243v-2.133c-1.08,1.377-2.726,2.43-4.805,2.43c-2.321,0-4.697-1.053-4.697-4.373
		c0-3.131,2.51-4.562,5.318-4.562c1.728,0,3.185,0.486,4.184,1.053v-2.105c0-2.699-1.188-3.779-3.698-3.779
		c-1.62,0-2.861,0.459-4.076,1.107l-0.432-0.972c1.242-0.648,2.753-1.134,4.588-1.134c3.078,0,4.805,1.241,4.805,4.643v9.825
		H115.945z M115.945,577.63c-1.08-0.621-2.375-1.053-4.238-1.053c-2.375,0-4.103,1.215-4.103,3.536c0,2.511,1.728,3.455,3.725,3.455
		s3.59-1.106,4.616-2.646V577.63z"/>
	<path fill="#FFFFFF" d="M124.749,589.534l-0.405-0.999c4.913-0.135,6.424-1.593,6.424-5.426v-0.999
		c-1.026,1.404-2.646,2.43-4.643,2.43c-3.023,0-5.237-2.159-5.237-7.234c0-5.128,2.294-7.53,5.372-7.53
		c1.943,0,3.482,0.944,4.508,2.375v-2.078h1.188v12.902C131.956,587.374,130.093,589.398,124.749,589.534z M130.768,573.473
		c-0.945-1.511-2.537-2.645-4.4-2.645c-2.726,0-4.265,2.078-4.265,6.451c0,4.237,1.646,6.208,4.319,6.208
		c1.754,0,3.266-1.053,4.346-2.591V573.473z"/>
	<path fill="#FFFFFF" d="M148.805,583.974c-0.729,0.323-1.512,0.513-2.538,0.513c-1.565,0-2.402-0.864-2.402-2.754V571.07h-1.835
		v-0.998h1.835v-4.832l1.188-0.675v5.507h3.752v0.998h-3.752v10.474c0,1.269,0.486,1.862,1.646,1.862
		c0.836,0,1.484-0.162,2.159-0.485L148.805,583.974z"/>
	<path fill="#FFFFFF" d="M162.303,584.243v-8.476c0-3.455-1.511-4.939-4.076-4.939c-2.079,0-4.265,1.241-4.265,4.912v8.503h-1.188
		V565.24l1.188-0.675v7.909c0.702-1.701,2.375-2.699,4.508-2.699c2.996,0,5.021,1.7,5.021,5.776v8.691H162.303z"/>
	<path fill="#FFFFFF" d="M178.53,577.495h-10.096c0.108,3.806,1.971,5.992,4.589,5.992c1.835,0,2.942-0.459,4.238-1.269l0.54,0.863
		c-1.512,0.945-2.78,1.458-4.913,1.458c-2.78,0-5.642-2.213-5.642-7.423c0-4.616,2.51-7.342,5.723-7.342
		c3.428,0,5.614,2.726,5.614,7.071C178.583,577.145,178.557,577.333,178.53,577.495z M172.969,570.828
		c-2.483,0-4.373,1.943-4.535,5.695h9.016C177.342,572.934,175.668,570.828,172.969,570.828z"/>
	<path fill="#FFFFFF" d="M192.895,584.54c-1.862,0-3.212-0.594-4.562-1.646l0.648-0.864c1.106,0.918,2.375,1.485,3.941,1.485
		c2.186,0,3.428-0.999,3.428-2.727c0-1.458-0.836-2.24-3.617-3.428c-2.916-1.242-3.995-2.052-3.995-4.185
		c0-1.943,1.673-3.4,4.13-3.4c1.971,0,3.374,0.62,4.319,1.403l-0.675,0.863c-0.972-0.756-2.024-1.241-3.698-1.241
		c-1.835,0-2.915,1.025-2.915,2.294c0,1.512,0.783,2.16,3.455,3.294c2.78,1.188,4.13,2.078,4.13,4.372
		C197.484,583.271,195.459,584.54,192.895,584.54z"/>
	<path fill="#FFFFFF" d="M201.59,584.243V565.24l1.188-0.675v19.678H201.59z"/>
	<path fill="#FFFFFF" d="M208.312,566.968c-0.513,0-0.891-0.405-0.891-0.863c0-0.486,0.378-0.864,0.891-0.864
		c0.432,0,0.837,0.378,0.837,0.864C209.149,566.562,208.745,566.968,208.312,566.968z M207.692,584.243v-14.171h1.188v14.171
		H207.692z"/>
	<path fill="#FFFFFF" d="M222.755,584.243v-2.133c-1.026,1.404-2.646,2.43-4.643,2.43c-3.023,0-5.237-2.159-5.237-7.234
		c0-5.128,2.294-7.53,5.372-7.53c1.943,0,3.482,0.944,4.508,2.375v-6.91l1.188-0.675v19.678H222.755z M222.755,573.473
		c-0.945-1.511-2.537-2.645-4.4-2.645c-2.726,0-4.265,2.078-4.265,6.451c0,4.237,1.646,6.208,4.319,6.208
		c1.754,0,3.266-1.053,4.346-2.591V573.473z"/>
	<path fill="#FFFFFF" d="M239.09,577.495h-10.096c0.108,3.806,1.971,5.992,4.589,5.992c1.835,0,2.942-0.459,4.238-1.269l0.54,0.863
		c-1.512,0.945-2.78,1.458-4.913,1.458c-2.78,0-5.642-2.213-5.642-7.423c0-4.616,2.51-7.342,5.723-7.342
		c3.428,0,5.614,2.726,5.614,7.071C239.144,577.145,239.117,577.333,239.09,577.495z M233.529,570.828
		c-2.483,0-4.373,1.943-4.535,5.695h9.016C237.902,572.934,236.229,570.828,233.529,570.828z"/>
	<path fill="#FFFFFF" d="M250.214,571.313c-0.621-0.27-1.242-0.432-2.187-0.432c-1.835,0-3.725,1.403-3.725,4.832v8.529h-1.188
		v-14.171h1.188v2.564c0.54-1.782,2.24-2.861,3.968-2.861c1.026,0,1.754,0.135,2.24,0.378L250.214,571.313z"/>
	<path fill="#FFFFFF" d="M266.01,583.974c-0.729,0.323-1.512,0.513-2.538,0.513c-1.565,0-2.402-0.864-2.402-2.754V571.07h-1.835
		v-0.998h1.835v-4.832l1.188-0.675v5.507h3.752v0.998h-3.752v10.474c0,1.269,0.486,1.862,1.646,1.862
		c0.836,0,1.484-0.162,2.159-0.485L266.01,583.974z"/>
	<path fill="#FFFFFF" d="M274.73,584.54c-3.4,0-6.073-2.591-6.073-7.369c0-4.777,2.726-7.396,6.155-7.396
		c3.4,0,6.072,2.563,6.072,7.314C280.884,581.868,278.159,584.54,274.73,584.54z M274.757,570.828c-2.807,0-4.885,2.159-4.885,6.289
		c0,4.157,2.078,6.37,4.885,6.37c2.834,0,4.913-2.213,4.913-6.37C279.67,572.987,277.591,570.828,274.757,570.828z"/>
	<path fill="#FFFFFF" d="M297.221,584.54c-1.917,0-3.455-0.944-4.508-2.375v2.078h-1.188V565.24l1.188-0.675v7.639
		c1.053-1.403,2.672-2.429,4.669-2.429c3.023,0,5.21,2.159,5.21,7.233C302.592,582.138,300.326,584.54,297.221,584.54z
		 M297.085,570.828c-1.781,0-3.293,1.053-4.372,2.591v7.423c0.972,1.512,2.563,2.646,4.427,2.646c2.699,0,4.238-2.078,4.238-6.451
		C301.378,572.798,299.732,570.828,297.085,570.828z"/>
	<path fill="#FFFFFF" d="M316.957,577.495h-10.096c0.108,3.806,1.971,5.992,4.589,5.992c1.835,0,2.942-0.459,4.237-1.269
		l0.541,0.863c-1.512,0.945-2.781,1.458-4.913,1.458c-2.78,0-5.642-2.213-5.642-7.423c0-4.616,2.51-7.342,5.723-7.342
		c3.428,0,5.614,2.726,5.614,7.071C317.01,577.145,316.984,577.333,316.957,577.495z M311.396,570.828
		c-2.483,0-4.373,1.943-4.535,5.695h9.016C315.769,572.934,314.095,570.828,311.396,570.828z"/>
	<path fill="#FFFFFF" d="M324.059,589.534l-0.405-0.999c4.913-0.135,6.425-1.593,6.425-5.426v-0.999
		c-1.026,1.404-2.646,2.43-4.643,2.43c-3.023,0-5.237-2.159-5.237-7.234c0-5.128,2.295-7.53,5.372-7.53
		c1.943,0,3.481,0.944,4.508,2.375v-2.078h1.188v12.902C331.266,587.374,329.404,589.398,324.059,589.534z M330.079,573.473
		c-0.944-1.511-2.537-2.645-4.399-2.645c-2.727,0-4.266,2.078-4.266,6.451c0,4.237,1.646,6.208,4.319,6.208
		c1.755,0,3.267-1.053,4.346-2.591V573.473z"/>
	<path fill="#FFFFFF" d="M336.669,566.968c-0.514,0-0.892-0.405-0.892-0.863c0-0.486,0.378-0.864,0.892-0.864
		c0.432,0,0.836,0.378,0.836,0.864C337.505,566.562,337.101,566.968,336.669,566.968z M336.048,584.243v-14.171h1.188v14.171
		H336.048z"/>
	<path fill="#FFFFFF" d="M351.543,584.243v-8.476c0-3.455-1.512-4.939-4.075-4.939c-2.079,0-4.266,1.241-4.266,4.912v8.503h-1.188
		v-14.171h1.188v2.402c0.702-1.728,2.376-2.699,4.508-2.699c2.996,0,5.021,1.7,5.021,5.776v8.691H351.543z"/>
	<path fill="#FFFFFF" d="M376.112,584.271h-1.106l-3.562-12.39l-3.591,12.39h-1.079l-3.752-14.198h1.241l3.077,12.362l3.59-12.39
		h1.08l3.59,12.39l3.077-12.362h1.188L376.112,584.271z"/>
	<path fill="#FFFFFF" d="M384.242,566.968c-0.513,0-0.891-0.405-0.891-0.863c0-0.486,0.378-0.864,0.891-0.864
		c0.432,0,0.837,0.378,0.837,0.864C385.079,566.562,384.673,566.968,384.242,566.968z M383.621,584.243v-14.171h1.188v14.171
		H383.621z"/>
	<path fill="#FFFFFF" d="M395.013,583.974c-0.729,0.323-1.512,0.513-2.537,0.513c-1.566,0-2.402-0.864-2.402-2.754V571.07h-1.836
		v-0.998h1.836v-4.832l1.188-0.675v5.507h3.752v0.998h-3.752v10.474c0,1.269,0.485,1.862,1.646,1.862
		c0.837,0,1.484-0.162,2.159-0.485L395.013,583.974z"/>
	<path fill="#FFFFFF" d="M408.512,584.243v-8.476c0-3.455-1.512-4.939-4.075-4.939c-2.079,0-4.266,1.241-4.266,4.912v8.503h-1.188
		V565.24l1.188-0.675v7.909c0.702-1.701,2.376-2.699,4.508-2.699c2.996,0,5.021,1.7,5.021,5.776v8.691H408.512z"/>
	<path fill="#FFFFFF" d="M426.306,584.54c-3.401,0-6.073-2.591-6.073-7.369c0-4.777,2.726-7.396,6.154-7.396
		c3.4,0,6.073,2.563,6.073,7.314C432.46,581.868,429.734,584.54,426.306,584.54z M426.333,570.828c-2.807,0-4.886,2.159-4.886,6.289
		c0,4.157,2.079,6.37,4.886,6.37c2.835,0,4.913-2.213,4.913-6.37C431.246,572.987,429.167,570.828,426.333,570.828z"/>
	<path fill="#FFFFFF" d="M445.852,584.243v-8.476c0-3.455-1.512-4.939-4.075-4.939c-2.079,0-4.266,1.241-4.266,4.912v8.503h-1.188
		v-14.171h1.188v2.402c0.702-1.728,2.376-2.699,4.508-2.699c2.996,0,5.021,1.7,5.021,5.776v8.691H445.852z"/>
	<path fill="#FFFFFF" d="M462.079,577.495h-10.095c0.107,3.806,1.97,5.992,4.589,5.992c1.835,0,2.941-0.459,4.237-1.269l0.54,0.863
		c-1.512,0.945-2.78,1.458-4.913,1.458c-2.78,0-5.641-2.213-5.641-7.423c0-4.616,2.51-7.342,5.722-7.342
		c3.429,0,5.615,2.726,5.615,7.071C462.133,577.145,462.106,577.333,462.079,577.495z M456.518,570.828
		c-2.483,0-4.372,1.943-4.534,5.695H461C460.891,572.934,459.217,570.828,456.518,570.828z"/>
</g>
<g enable-background="new    ">
	<path fill="#FFFFFF" d="M34.353,621.935l-0.405-0.999c4.913-0.135,6.424-1.593,6.424-5.426v-0.999
		c-1.026,1.404-2.646,2.43-4.643,2.43c-3.023,0-5.237-2.159-5.237-7.234c0-5.128,2.294-7.53,5.372-7.53
		c1.943,0,3.482,0.944,4.508,2.375v-2.078h1.188v12.902C41.56,619.774,39.698,621.799,34.353,621.935z M40.373,605.873
		c-0.945-1.511-2.537-2.645-4.4-2.645c-2.726,0-4.265,2.078-4.265,6.451c0,4.237,1.646,6.208,4.319,6.208
		c1.754,0,3.266-1.053,4.346-2.591V605.873z"/>
	<path fill="#FFFFFF" d="M54.844,616.644v-2.133c-1.08,1.377-2.726,2.43-4.805,2.43c-2.321,0-4.697-1.053-4.697-4.373
		c0-3.131,2.51-4.562,5.318-4.562c1.728,0,3.185,0.486,4.184,1.053v-2.105c0-2.699-1.188-3.779-3.698-3.779
		c-1.62,0-2.861,0.459-4.076,1.107l-0.432-0.972c1.242-0.648,2.753-1.134,4.588-1.134c3.078,0,4.805,1.241,4.805,4.643v9.825H54.844
		z M54.844,610.03c-1.08-0.621-2.375-1.053-4.238-1.053c-2.375,0-4.103,1.215-4.103,3.536c0,2.511,1.728,3.455,3.725,3.455
		s3.59-1.106,4.616-2.646V610.03z"/>
	<path fill="#FFFFFF" d="M60.706,616.644v-19.003l1.188-0.675v19.678H60.706z"/>
	<path fill="#FFFFFF" d="M66.808,616.644v-19.003l1.188-0.675v19.678H66.808z"/>
	<path fill="#FFFFFF" d="M78.065,616.94c-3.401,0-6.073-2.591-6.073-7.369c0-4.777,2.726-7.396,6.154-7.396
		c3.401,0,6.073,2.563,6.073,7.314C84.219,614.269,81.493,616.94,78.065,616.94z M78.092,603.229c-2.808,0-4.886,2.159-4.886,6.289
		c0,4.157,2.078,6.37,4.886,6.37c2.834,0,4.913-2.213,4.913-6.37C83.005,605.388,80.926,603.229,78.092,603.229z"/>
	<path fill="#FFFFFF" d="M97.611,616.644v-8.476c0-3.455-1.511-4.939-4.076-4.939c-2.079,0-4.265,1.241-4.265,4.912v8.503h-1.188
		v-14.171h1.188v2.402c0.702-1.728,2.375-2.699,4.508-2.699c2.996,0,5.021,1.7,5.021,5.776v8.691H97.611z"/>
	<path fill="#FFFFFF" d="M118.752,616.644v-2.133c-1.08,1.377-2.726,2.43-4.805,2.43c-2.321,0-4.697-1.053-4.697-4.373
		c0-3.131,2.51-4.562,5.318-4.562c1.728,0,3.185,0.486,4.184,1.053v-2.105c0-2.699-1.188-3.779-3.698-3.779
		c-1.62,0-2.861,0.459-4.076,1.107l-0.432-0.972c1.242-0.648,2.753-1.134,4.588-1.134c3.078,0,4.805,1.241,4.805,4.643v9.825
		H118.752z M118.752,610.03c-1.08-0.621-2.375-1.053-4.238-1.053c-2.375,0-4.103,1.215-4.103,3.536c0,2.511,1.728,3.455,3.725,3.455
		s3.59-1.106,4.616-2.646V610.03z"/>
	<path fill="#FFFFFF" d="M134.007,616.644v-8.476c0-3.455-1.511-4.939-4.076-4.939c-2.079,0-4.265,1.241-4.265,4.912v8.503h-1.188
		v-14.171h1.188v2.402c0.702-1.728,2.375-2.699,4.508-2.699c2.996,0,5.021,1.7,5.021,5.776v8.691H134.007z"/>
	<path fill="#FFFFFF" d="M148.83,616.644v-2.133c-1.026,1.404-2.646,2.43-4.643,2.43c-3.023,0-5.237-2.159-5.237-7.234
		c0-5.128,2.294-7.53,5.372-7.53c1.943,0,3.482,0.944,4.508,2.375v-6.91l1.188-0.675v19.678H148.83z M148.83,605.873
		c-0.945-1.511-2.537-2.645-4.4-2.645c-2.726,0-4.265,2.078-4.265,6.451c0,4.237,1.646,6.208,4.319,6.208
		c1.754,0,3.266-1.053,4.346-2.591V605.873z"/>
	<path fill="#FFFFFF" d="M173.507,616.671H172.4l-3.563-12.39l-3.59,12.39h-1.08l-3.752-14.198h1.241l3.077,12.362l3.59-12.39h1.08
		l3.59,12.39l3.077-12.362h1.188L173.507,616.671z"/>
	<path fill="#FFFFFF" d="M188.573,616.644v-2.133c-1.08,1.377-2.726,2.43-4.805,2.43c-2.321,0-4.697-1.053-4.697-4.373
		c0-3.131,2.51-4.562,5.318-4.562c1.728,0,3.185,0.486,4.184,1.053v-2.105c0-2.699-1.188-3.779-3.698-3.779
		c-1.62,0-2.861,0.459-4.076,1.107l-0.432-0.972c1.242-0.648,2.753-1.134,4.589-1.134c3.077,0,4.805,1.241,4.805,4.643v9.825
		H188.573z M188.573,610.03c-1.08-0.621-2.375-1.053-4.238-1.053c-2.375,0-4.103,1.215-4.103,3.536c0,2.511,1.728,3.455,3.725,3.455
		s3.59-1.106,4.616-2.646V610.03z"/>
	<path fill="#FFFFFF" d="M199.726,616.374c-0.729,0.323-1.512,0.513-2.538,0.513c-1.565,0-2.402-0.864-2.402-2.754v-10.662h-1.835
		v-0.998h1.835v-4.832l1.188-0.675v5.507h3.752v0.998h-3.752v10.474c0,1.269,0.486,1.862,1.646,1.862
		c0.836,0,1.484-0.162,2.159-0.485L199.726,616.374z"/>
	<path fill="#FFFFFF" d="M208.204,616.94c-2.996,0-5.831-2.268-5.831-7.342c0-5.183,2.996-7.423,5.938-7.423
		c1.943,0,3.239,0.675,4.292,1.565l-0.729,0.891c-0.999-0.864-1.998-1.403-3.644-1.403c-2.483,0-4.643,2.187-4.643,6.262
		c0,4.13,2.024,6.397,4.669,6.397c1.512,0,2.672-0.566,3.644-1.484l0.702,0.782C211.497,616.266,210.093,616.94,208.204,616.94z"/>
	<path fill="#FFFFFF" d="M225.968,616.644v-8.476c0-3.455-1.511-4.939-4.076-4.939c-2.079,0-4.265,1.241-4.265,4.912v8.503h-1.188
		v-19.003l1.188-0.675v7.909c0.702-1.701,2.375-2.699,4.508-2.699c2.996,0,5.021,1.7,5.021,5.776v8.691H225.968z"/>
	<path fill="#FFFFFF" d="M239.227,599.368c-0.513,0-0.891-0.405-0.891-0.863c0-0.486,0.378-0.864,0.891-0.864
		c0.432,0,0.837,0.378,0.837,0.864C240.063,598.963,239.659,599.368,239.227,599.368z M238.606,616.644v-14.171h1.188v14.171
		H238.606z"/>
	<path fill="#FFFFFF" d="M249.999,616.374c-0.729,0.323-1.512,0.513-2.538,0.513c-1.565,0-2.402-0.864-2.402-2.754v-10.662h-1.835
		v-0.998h1.835v-4.832l1.188-0.675v5.507h3.752v0.998h-3.752v10.474c0,1.269,0.486,1.862,1.646,1.862
		c0.837,0,1.484-0.162,2.159-0.485L249.999,616.374z"/>
	<path fill="#FFFFFF" d="M278.912,616.644v-8.476c0-3.563-1.512-4.939-3.859-4.939c-1.998,0-4.022,1.214-4.022,4.912v8.503h-1.188
		v-8.503c0-3.562-1.565-4.912-3.887-4.912c-1.997,0-4.021,1.214-4.021,4.912v8.503h-1.188v-14.171h1.188v2.402
		c0.675-1.755,2.267-2.699,4.265-2.699c2.402,0,3.86,1.376,4.374,3.212c0.674-2.052,2.32-3.212,4.696-3.212
		c2.888,0,4.831,1.673,4.831,5.776v8.691H278.912z"/>
	<path fill="#FFFFFF" d="M293.845,616.644v-2.402c-0.594,1.755-2.349,2.699-4.48,2.699c-3.023,0-5.049-1.7-5.049-5.776v-8.691h1.188
		v8.476c0,3.455,1.539,4.939,4.076,4.939c2.079,0,4.266-1.241,4.266-4.913v-8.502h1.188v14.171H293.845z"/>
	<path fill="#FFFFFF" d="M299.814,616.644v-19.003l1.188-0.675v19.678H299.814z"/>
	<path fill="#FFFFFF" d="M311.207,616.374c-0.729,0.323-1.512,0.513-2.537,0.513c-1.566,0-2.402-0.864-2.402-2.754v-10.662h-1.836
		v-0.998h1.836v-4.832l1.188-0.675v5.507h3.752v0.998h-3.752v10.474c0,1.269,0.486,1.862,1.646,1.862
		c0.837,0,1.484-0.162,2.159-0.485L311.207,616.374z"/>
	<path fill="#FFFFFF" d="M315.933,599.368c-0.514,0-0.891-0.405-0.891-0.863c0-0.486,0.377-0.864,0.891-0.864
		c0.432,0,0.836,0.378,0.836,0.864C316.769,598.963,316.365,599.368,315.933,599.368z M315.312,616.644v-14.171h1.188v14.171
		H315.312z"/>
	<path fill="#FFFFFF" d="M326.974,616.94c-1.916,0-3.455-0.944-4.508-2.375v6.532l-1.188,0.675v-19.3h1.188v2.132
		c1.053-1.403,2.672-2.429,4.67-2.429c3.023,0,5.21,2.159,5.21,7.233C332.346,614.538,330.079,616.94,326.974,616.94z
		 M326.839,603.229c-1.781,0-3.293,1.053-4.373,2.591v7.423c0.973,1.512,2.564,2.646,4.428,2.646c2.699,0,4.237-2.078,4.237-6.451
		C331.131,605.198,329.485,603.229,326.839,603.229z"/>
	<path fill="#FFFFFF" d="M336.344,616.644v-19.003l1.188-0.675v19.678H336.344z"/>
	<path fill="#FFFFFF" d="M345.604,621.638h-1.188l1.89-5.075l-5.155-14.09h1.269l4.508,12.74l4.508-12.74h1.269L345.604,621.638z"/>
	<path fill="#FFFFFF" d="M367.124,598.153c-1.053,0-1.917,0.486-1.917,2.133v2.187h3.293v0.998h-3.293v13.173h-1.188v-13.173h-2.105
		v-0.998h2.105v-2.079c0-2.456,1.296-3.319,3.023-3.319c0.837,0,1.377,0.135,1.781,0.27l-0.027,1.134
		C368.392,598.288,367.852,598.153,367.124,598.153z"/>
	<path fill="#FFFFFF" d="M379.299,603.714c-0.621-0.27-1.242-0.432-2.187-0.432c-1.836,0-3.726,1.403-3.726,4.832v8.529H372.2
		v-14.171h1.188v2.564c0.54-1.782,2.24-2.861,3.968-2.861c1.026,0,1.755,0.135,2.241,0.378L379.299,603.714z"/>
	<path fill="#FFFFFF" d="M387.508,616.94c-3.401,0-6.073-2.591-6.073-7.369c0-4.777,2.726-7.396,6.154-7.396
		c3.4,0,6.073,2.563,6.073,7.314C393.663,614.269,390.936,616.94,387.508,616.94z M387.535,603.229
		c-2.807,0-4.886,2.159-4.886,6.289c0,4.157,2.079,6.37,4.886,6.37c2.835,0,4.913-2.213,4.913-6.37
		C392.448,605.388,390.37,603.229,387.535,603.229z"/>
	<path fill="#FFFFFF" d="M415.692,616.644v-8.476c0-3.563-1.512-4.939-3.859-4.939c-1.998,0-4.022,1.214-4.022,4.912v8.503h-1.188
		v-8.503c0-3.562-1.565-4.912-3.887-4.912c-1.998,0-4.022,1.214-4.022,4.912v8.503h-1.188v-14.171h1.188v2.402
		c0.675-1.755,2.268-2.699,4.265-2.699c2.403,0,3.86,1.376,4.373,3.212c0.675-2.052,2.321-3.212,4.697-3.212
		c2.888,0,4.831,1.673,4.831,5.776v8.691H415.692z"/>
	<path fill="#FFFFFF" d="M433.407,616.374c-0.729,0.323-1.512,0.513-2.537,0.513c-1.566,0-2.402-0.864-2.402-2.754v-10.662h-1.836
		v-0.998h1.836v-4.832l1.188-0.675v5.507h3.752v0.998h-3.752v10.474c0,1.269,0.485,1.862,1.646,1.862
		c0.837,0,1.484-0.162,2.159-0.485L433.407,616.374z"/>
	<path fill="#FFFFFF" d="M446.906,616.644v-8.476c0-3.455-1.512-4.939-4.076-4.939c-2.078,0-4.265,1.241-4.265,4.912v8.503h-1.188
		v-19.003l1.188-0.675v7.909c0.702-1.701,2.376-2.699,4.508-2.699c2.996,0,5.021,1.7,5.021,5.776v8.691H446.906z"/>
	<path fill="#FFFFFF" d="M463.131,609.896h-10.095c0.107,3.806,1.97,5.992,4.589,5.992c1.835,0,2.941-0.459,4.237-1.269l0.54,0.863
		c-1.512,0.945-2.78,1.458-4.913,1.458c-2.78,0-5.641-2.213-5.641-7.423c0-4.616,2.51-7.342,5.722-7.342
		c3.429,0,5.615,2.726,5.615,7.071C463.186,609.545,463.159,609.733,463.131,609.896z M457.571,603.229
		c-2.483,0-4.372,1.943-4.534,5.695h9.016C461.944,605.334,460.27,603.229,457.571,603.229z"/>
	<path fill="#FFFFFF" d="M474.257,603.714c-0.621-0.27-1.242-0.432-2.187-0.432c-1.836,0-3.726,1.403-3.726,4.832v8.529h-1.188
		v-14.171h1.188v2.564c0.54-1.782,2.24-2.861,3.968-2.861c1.026,0,1.755,0.135,2.241,0.378L474.257,603.714z"/>
	<path fill="#FFFFFF" d="M487.674,609.896H477.58c0.107,3.806,1.97,5.992,4.589,5.992c1.835,0,2.941-0.459,4.237-1.269l0.54,0.863
		c-1.512,0.945-2.78,1.458-4.913,1.458c-2.78,0-5.641-2.213-5.641-7.423c0-4.616,2.51-7.342,5.722-7.342
		c3.429,0,5.615,2.726,5.615,7.071C487.729,609.545,487.702,609.733,487.674,609.896z M482.114,603.229
		c-2.483,0-4.372,1.943-4.534,5.695h9.016C486.487,605.334,484.813,603.229,482.114,603.229z"/>
	<path fill="#FFFFFF" d="M491.539,616.806c-0.566,0-1.025-0.459-1.025-1.025c0-0.567,0.459-1.08,1.025-1.08
		c0.54,0,1.026,0.513,1.026,1.08C492.565,616.347,492.079,616.806,491.539,616.806z"/>
</g>
>>>>>>> Update sizing up water and todo list
</svg>
