<?xml version="1.0" encoding="utf-8"?>
<!-- Generator: Adobe Illustrator 15.1.0, SVG Export Plug-In . SVG Version: 6.00 Build 0)  -->
<!DOCTYPE svg PUBLIC "-//W3C//DTD SVG 1.1//EN" "http://www.w3.org/Graphics/SVG/1.1/DTD/svg11.dtd">
<svg version="1.1" id="Layer_1" xmlns="http://www.w3.org/2000/svg" xmlns:xlink="http://www.w3.org/1999/xlink" x="0px" y="0px"
	 width="536.378px" height="780.521px" viewBox="0 0 536.378 780.521" enable-background="new 0 0 536.378 780.521"
	 xml:space="preserve">
<rect x="32.689" y="381.761" fill="none" width="468" height="88"/>
<g enable-background="new    ">
	<path fill="#19162B" d="M100.176,403.631v-8.909c0-3.181-1.2-4.32-3.24-4.32c-2.07,0-3.24,1.47-3.24,4.02v9.21h-3.09v-15.749h3.09
		v1.5c0.78-1.141,2.34-1.83,3.96-1.83c3.66,0,5.61,2.399,5.61,7.05v9.029H100.176z"/>
	<path fill="#19162B" d="M117.156,403.631v-1.5c-0.78,1.14-2.34,1.83-3.96,1.83c-3.66,0-5.609-2.4-5.609-7.05v-9.029h3.09v8.909
		c0,3.18,1.2,4.32,3.24,4.32c2.07,0,3.24-1.471,3.24-4.021v-9.209h3.09v15.749H117.156z"/>
	<path fill="#19162B" d="M143.105,403.631v-8.909c0-3.181-0.99-4.32-3.03-4.32c-2.07,0-3.03,1.47-3.03,4.02v9.21h-3.09v-8.909
		c0-3.181-0.99-4.32-3.03-4.32c-2.07,0-3.03,1.47-3.03,4.02v9.21h-3.09v-15.749h3.09v1.5c0.78-1.141,2.13-1.83,3.75-1.83
		c2.13,0,3.48,0.81,4.32,2.31c1.14-1.41,2.37-2.31,4.83-2.31c3.66,0,5.4,2.399,5.4,7.05v9.029H143.105z"/>
	<path fill="#19162B" d="M157.656,403.961c-1.59,0-3.09-0.84-3.96-1.8v1.47h-3.06v-20.279l3.06-1.59v7.62
		c1.14-1.051,2.46-1.83,4.11-1.83c3.39,0,6.06,2.46,6.06,8.459C163.865,401.411,160.925,403.961,157.656,403.961z M157.236,390.401
		c-1.47,0-2.76,0.99-3.57,2.01v6.63c0.69,0.93,2.13,2.07,3.69,2.07c2.22,0,3.42-1.681,3.42-5.01
		C160.775,392.142,159.516,390.401,157.236,390.401z"/>
	<path fill="#19162B" d="M180.425,396.852h-10.41c0.33,3.029,2.04,4.319,3.96,4.319c1.32,0,2.37-0.479,3.42-1.26l1.83,1.979
		c-1.38,1.32-3.03,2.07-5.43,2.07c-3.69,0-6.81-2.97-6.81-8.189c0-5.34,2.82-8.22,6.9-8.22c4.47,0,6.63,3.63,6.63,7.89
		C180.515,396.011,180.455,396.521,180.425,396.852z M173.675,390.342c-2.07,0-3.33,1.439-3.6,3.959h7.32
		C177.245,392.142,176.225,390.342,173.675,390.342z"/>
	<path fill="#19162B" d="M192.905,391.151c-0.66-0.36-1.35-0.57-2.37-0.57c-1.95,0-3.09,1.38-3.09,4.05v9h-3.09v-15.749h3.09v1.5
		c0.72-1.051,2.04-1.83,3.6-1.83c1.26,0,2.04,0.239,2.67,0.66L192.905,391.151z"/>
	<path fill="#19162B" d="M211.174,403.961c-3.959,0-6.93-3.27-6.93-8.189c0-5.16,3.06-8.22,7.02-8.22c4.02,0,7.02,3.21,7.02,8.13
		C218.284,400.901,215.224,403.961,211.174,403.961z M211.145,390.491c-2.34,0-3.78,2.07-3.78,5.19c0,3.449,1.59,5.339,3.93,5.339
		s3.87-2.369,3.87-5.249C215.165,392.562,213.634,390.491,211.145,390.491z"/>
	<path fill="#19162B" d="M227.225,384.552c-1.02,0-1.44,0.39-1.44,1.53v1.8h2.91v2.88h-2.91v12.869h-3.09v-12.869h-2.04v-2.88h2.04
		v-2.07c0-2.88,1.77-3.96,3.99-3.96c0.81,0,1.68,0.12,2.34,0.3v2.7C228.304,384.642,227.764,384.552,227.225,384.552z"/>
	<path fill="#19162B" d="M245.704,409.421l-1.05-2.34c4.44-0.21,5.4-1.41,5.4-4.68v-0.271c-1.14,1.05-2.43,1.83-4.08,1.83
		c-3.36,0-6.06-2.46-6.06-8.46c0-5.399,2.97-7.949,6.21-7.949c1.59,0,3.09,0.84,3.93,1.8v-1.47h3.09v14.249
		C253.144,406.931,251.404,409.24,245.704,409.421z M250.114,392.472c-0.69-0.931-2.13-2.07-3.69-2.07c-2.22,0-3.42,1.68-3.42,5.01
		c0,3.96,1.26,5.7,3.54,5.7c1.47,0,2.76-0.99,3.57-2.011V392.472z"/>
	<path fill="#19162B" d="M266.734,403.631v-1.56c-1.08,1.079-2.61,1.89-4.32,1.89c-2.55,0-5.46-1.44-5.46-5.31
		c0-3.51,2.7-5.101,6.27-5.101c1.47,0,2.64,0.211,3.51,0.601v-1.17c0-1.71-1.05-2.67-2.97-2.67c-1.62,0-2.88,0.3-4.11,0.99
		l-1.2-2.34c1.5-0.931,3.18-1.41,5.4-1.41c3.51,0,5.909,1.71,5.909,5.279v10.8H266.734z M266.734,396.911
		c-0.84-0.42-1.92-0.69-3.6-0.69c-1.979,0-3.24,0.9-3.24,2.341c0,1.56,0.99,2.609,3.03,2.609c1.65,0,3.09-1.02,3.81-2.01V396.911z"
		/>
	<path fill="#19162B" d="M274.353,403.631v-20.249l3.091-1.62v21.869H274.353z"/>
	<path fill="#19162B" d="M282.303,403.631v-20.249l3.09-1.62v21.869H282.303z"/>
	<path fill="#19162B" d="M296.283,403.961c-3.959,0-6.93-3.27-6.93-8.189c0-5.16,3.061-8.22,7.021-8.22c4.02,0,7.02,3.21,7.02,8.13
		C303.393,400.901,300.333,403.961,296.283,403.961z M296.253,390.491c-2.34,0-3.779,2.07-3.779,5.19c0,3.449,1.59,5.339,3.93,5.339
		s3.869-2.369,3.869-5.249C300.273,392.562,298.744,390.491,296.253,390.491z"/>
	<path fill="#19162B" d="M316.773,403.631v-8.909c0-3.181-1.2-4.32-3.24-4.32c-2.07,0-3.24,1.47-3.24,4.02v9.21h-3.09v-15.749h3.09
		v1.5c0.781-1.141,2.34-1.83,3.961-1.83c3.659,0,5.609,2.399,5.609,7.05v9.029H316.773z"/>
	<path fill="#19162B" d="M329.404,403.961c-2.131,0-4.44-0.84-6.03-2.01l1.409-2.34c1.471,1.02,3.121,1.56,4.59,1.56
		c1.951,0,2.881-0.63,2.881-1.74c0-1.199-1.381-1.77-3.66-2.64c-3.391-1.32-4.62-2.46-4.62-4.949c0-2.82,2.22-4.29,5.37-4.29
		c1.98,0,3.93,0.72,5.34,1.739l-1.35,2.37c-1.291-0.899-2.58-1.35-4.08-1.35s-2.16,0.6-2.16,1.439c0,0.78,0.54,1.351,2.91,2.28
		c3.51,1.35,5.31,2.31,5.31,5.279C335.313,402.791,332.494,403.961,329.404,403.961z"/>
	<path fill="#19162B" d="M361.742,403.631h-2.64l-2.13-7.949c-0.33-1.2-0.66-2.61-0.811-3.36c-0.149,0.75-0.479,2.19-0.809,3.39
		l-2.101,7.92h-2.64l-4.32-15.749h3.061l1.859,7.649c0.301,1.2,0.63,2.7,0.78,3.45c0.18-0.78,0.54-2.221,0.87-3.45l2.1-7.649h2.49
		l2.129,7.68c0.33,1.229,0.66,2.64,0.841,3.42c0.18-0.78,0.479-2.25,0.78-3.45l1.859-7.649h3.061L361.742,403.631z"/>
	<path fill="#19162B" d="M377.583,403.631v-1.56c-1.08,1.079-2.61,1.89-4.319,1.89c-2.551,0-5.461-1.44-5.461-5.31
		c0-3.51,2.701-5.101,6.271-5.101c1.47,0,2.64,0.211,3.51,0.601v-1.17c0-1.71-1.05-2.67-2.97-2.67c-1.62,0-2.88,0.3-4.109,0.99
		l-1.201-2.34c1.5-0.931,3.181-1.41,5.4-1.41c3.51,0,5.91,1.71,5.91,5.279v10.8H377.583z M377.583,396.911
		c-0.84-0.42-1.92-0.69-3.601-0.69c-1.979,0-3.239,0.9-3.239,2.341c0,1.56,0.99,2.609,3.03,2.609c1.649,0,3.09-1.02,3.81-2.01
		V396.911z"/>
	<path fill="#19162B" d="M390.152,403.961c-2.129,0-4.439-0.84-6.029-2.01l1.41-2.34c1.47,1.02,3.119,1.56,4.59,1.56
		c1.949,0,2.879-0.63,2.879-1.74c0-1.199-1.379-1.77-3.659-2.64c-3.39-1.32-4.62-2.46-4.62-4.949c0-2.82,2.221-4.29,5.37-4.29
		c1.979,0,3.93,0.72,5.34,1.739l-1.351,2.37c-1.289-0.899-2.58-1.35-4.08-1.35c-1.499,0-2.159,0.6-2.159,1.439
		c0,0.78,0.54,1.351,2.909,2.28c3.511,1.35,5.311,2.31,5.311,5.279C396.062,402.791,393.242,403.961,390.152,403.961z"/>
	<path fill="#19162B" d="M407.252,403.241c-0.75,0.42-1.8,0.72-3.03,0.72c-2.189,0-3.539-1.35-3.539-4.17v-9.09h-2.25v-2.819h2.25
		v-4.5l3.029-1.62v6.12h3.9v2.819h-3.9v8.55c0,1.47,0.48,1.89,1.62,1.89c0.81,0,1.71-0.3,2.28-0.63L407.252,403.241z"/>
	<path fill="#19162B" d="M423.903,396.852h-10.41c0.33,3.029,2.04,4.319,3.96,4.319c1.32,0,2.37-0.479,3.42-1.26l1.83,1.979
		c-1.38,1.32-3.03,2.07-5.43,2.07c-3.69,0-6.81-2.97-6.81-8.189c0-5.34,2.819-8.22,6.899-8.22c4.47,0,6.63,3.63,6.63,7.89
		C423.993,396.011,423.932,396.521,423.903,396.852z M417.153,390.342c-2.07,0-3.33,1.439-3.6,3.959h7.319
		C420.722,392.142,419.703,390.342,417.153,390.342z"/>
	<path fill="#19162B" d="M437.312,403.631v-1.5c-1.141,1.05-2.46,1.83-4.11,1.83c-3.39,0-6.06-2.46-6.06-8.46
		c0-5.399,2.94-7.949,6.21-7.949c1.59,0,3.09,0.84,3.96,1.8v-6l3.06-1.59v21.869H437.312z M437.341,392.472
		c-0.689-0.931-2.13-2.07-3.689-2.07c-2.22,0-3.42,1.68-3.42,5.01c0,3.96,1.26,5.7,3.54,5.7c1.47,0,2.76-0.99,3.569-2.011V392.472z"
		/>
</g>
<g enable-background="new    ">
	<path fill="#19162B" d="M95.106,420.552c-1.02,0-1.44,0.39-1.44,1.53v1.8h2.91v2.88h-2.91v12.869h-3.09v-12.869h-2.04v-2.88h2.04
		v-2.07c0-2.88,1.77-3.96,3.99-3.96c0.81,0,1.68,0.12,2.34,0.3v2.7C96.186,420.642,95.646,420.552,95.106,420.552z"/>
	<path fill="#19162B" d="M108.936,427.151c-0.66-0.36-1.35-0.57-2.37-0.57c-1.95,0-3.09,1.38-3.09,4.05v9h-3.09v-15.749h3.09v1.5
		c0.72-1.051,2.04-1.83,3.6-1.83c1.26,0,2.04,0.239,2.67,0.66L108.936,427.151z"/>
	<path fill="#19162B" d="M118.356,439.961c-3.959,0-6.93-3.27-6.93-8.189c0-5.16,3.06-8.22,7.02-8.22c4.02,0,7.02,3.21,7.02,8.13
		C125.466,436.901,122.406,439.961,118.356,439.961z M118.326,426.491c-2.34,0-3.78,2.07-3.78,5.19c0,3.449,1.59,5.339,3.93,5.339
		s3.87-2.369,3.87-5.249C122.346,428.562,120.816,426.491,118.326,426.491z"/>
	<path fill="#19162B" d="M147.575,439.631v-8.909c0-3.181-0.99-4.32-3.03-4.32c-2.07,0-3.03,1.47-3.03,4.02v9.21h-3.09v-8.909
		c0-3.181-0.99-4.32-3.03-4.32c-2.07,0-3.03,1.47-3.03,4.02v9.21h-3.09v-15.749h3.09v1.5c0.78-1.141,2.13-1.83,3.75-1.83
		c2.13,0,3.48,0.81,4.32,2.31c1.14-1.41,2.37-2.31,4.83-2.31c3.66,0,5.4,2.399,5.4,7.05v9.029H147.575z"/>
	<path fill="#19162B" d="M163.355,439.631v-20.249l3.09-1.62v21.869H163.355z"/>
	<path fill="#19162B" d="M183.845,432.852h-10.409c0.33,3.029,2.04,4.319,3.959,4.319c1.32,0,2.37-0.479,3.42-1.26l1.83,1.979
		c-1.38,1.32-3.03,2.07-5.43,2.07c-3.69,0-6.81-2.97-6.81-8.189c0-5.34,2.82-8.22,6.9-8.22c4.47,0,6.63,3.63,6.63,7.89
		C183.935,432.011,183.875,432.521,183.845,432.852z M177.095,426.342c-2.07,0-3.33,1.439-3.6,3.959h7.32
		C180.665,428.142,179.645,426.342,177.095,426.342z"/>
	<path fill="#19162B" d="M196.595,439.631v-1.56c-1.08,1.079-2.61,1.89-4.32,1.89c-2.55,0-5.46-1.44-5.46-5.31
		c0-3.51,2.7-5.101,6.27-5.101c1.47,0,2.64,0.211,3.51,0.601v-1.17c0-1.71-1.05-2.67-2.97-2.67c-1.62,0-2.88,0.3-4.11,0.99
		l-1.2-2.34c1.5-0.931,3.18-1.41,5.4-1.41c3.51,0,5.91,1.71,5.91,5.279v10.8H196.595z M196.595,432.911
		c-0.84-0.42-1.92-0.69-3.6-0.69c-1.979,0-3.24,0.9-3.24,2.341c0,1.56,0.99,2.609,3.03,2.609c1.65,0,3.09-1.02,3.81-2.01V432.911z"
		/>
	<path fill="#19162B" d="M213.035,439.631l-3.48-7.83l-2.4,3.181v4.649h-3.09v-20.249l3.09-1.62v9.93c0,0.96-0.03,2.58-0.03,3.359
		c0.42-0.63,1.23-1.829,1.74-2.579l3.27-4.59h3.51l-3.99,5.279l4.74,10.47H213.035z"/>
	<path fill="#19162B" d="M224.584,445.181h-3.27l2.28-5.85l-5.79-15.449h3.39l2.58,7.709c0.48,1.38,1.2,3.72,1.38,4.59
		c0.27-0.93,0.93-3.18,1.41-4.529l2.67-7.77h3.27L224.584,445.181z"/>
	<path fill="#19162B" d="M250.894,439.961c-1.59,0-3.09-0.84-3.96-1.8v5.67l-3.06,1.59v-21.539h3.06v1.5
		c1.14-1.051,2.46-1.83,4.11-1.83c3.39,0,6.06,2.46,6.06,8.459C257.104,437.411,254.164,439.961,250.894,439.961z M250.474,426.401
		c-1.47,0-2.76,0.99-3.57,2.01v6.63c0.69,0.93,2.13,2.07,3.69,2.07c2.22,0,3.42-1.681,3.42-5.01
		C254.014,428.142,252.754,426.401,250.474,426.401z"/>
	<path fill="#19162B" d="M262.684,421.842c-1.11,0-2.01-0.9-2.01-1.98c0-1.109,0.9-2.01,2.01-2.01c1.08,0,1.98,0.9,1.98,2.01
		C264.664,420.941,263.764,421.842,262.684,421.842z M261.124,439.631v-15.749h3.09v15.749H261.124z"/>
	<path fill="#19162B" d="M275.944,439.961c-1.591,0-3.09-0.84-3.96-1.8v5.67l-3.061,1.59v-21.539h3.061v1.5
		c1.141-1.051,2.46-1.83,4.109-1.83c3.391,0,6.061,2.46,6.061,8.459C282.154,437.411,279.213,439.961,275.944,439.961z
		 M275.523,426.401c-1.469,0-2.76,0.99-3.569,2.01v6.63c0.69,0.93,2.13,2.07,3.69,2.07c2.22,0,3.42-1.681,3.42-5.01
		C279.064,428.142,277.804,426.401,275.523,426.401z"/>
	<path fill="#19162B" d="M298.713,432.852h-10.409c0.33,3.029,2.039,4.319,3.959,4.319c1.32,0,2.371-0.479,3.42-1.26l1.83,1.979
		c-1.379,1.32-3.029,2.07-5.43,2.07c-3.689,0-6.81-2.97-6.81-8.189c0-5.34,2.819-8.22,6.899-8.22c4.471,0,6.631,3.63,6.631,7.89
		C298.804,432.011,298.744,432.521,298.713,432.852z M291.964,426.342c-2.07,0-3.33,1.439-3.601,3.959h7.319
		C295.534,428.142,294.513,426.342,291.964,426.342z"/>
	<path fill="#19162B" d="M307.443,439.961c-2.129,0-4.439-0.84-6.029-2.01l1.41-2.34c1.47,1.02,3.119,1.56,4.59,1.56
		c1.949,0,2.879-0.63,2.879-1.74c0-1.199-1.379-1.77-3.659-2.64c-3.39-1.32-4.62-2.46-4.62-4.949c0-2.82,2.221-4.29,5.37-4.29
		c1.979,0,3.93,0.72,5.34,1.739l-1.351,2.37c-1.289-0.899-2.58-1.35-4.08-1.35c-1.499,0-2.159,0.6-2.159,1.439
		c0,0.78,0.54,1.351,2.909,2.28c3.511,1.35,5.311,2.31,5.311,5.279C313.353,438.791,310.533,439.961,307.443,439.961z"/>
	<path fill="#19162B" d="M338.103,432.852h-10.41c0.33,3.029,2.04,4.319,3.96,4.319c1.319,0,2.37-0.479,3.42-1.26l1.83,1.979
		c-1.38,1.32-3.03,2.07-5.43,2.07c-3.69,0-6.81-2.97-6.81-8.189c0-5.34,2.819-8.22,6.899-8.22c4.47,0,6.63,3.63,6.63,7.89
		C338.193,432.011,338.132,432.521,338.103,432.852z M331.353,426.342c-2.07,0-3.33,1.439-3.6,3.959h7.319
		C334.923,428.142,333.903,426.342,331.353,426.342z"/>
	<path fill="#19162B" d="M348.813,439.631h-3.09l-5.64-15.749h3.24l2.819,8.55c0.51,1.529,0.96,2.999,1.17,3.869
		c0.181-0.87,0.601-2.34,1.08-3.869l2.7-8.55h3.27L348.813,439.631z"/>
	<path fill="#19162B" d="M369.783,432.852h-10.41c0.33,3.029,2.04,4.319,3.96,4.319c1.319,0,2.37-0.479,3.42-1.26l1.83,1.979
		c-1.38,1.32-3.03,2.07-5.43,2.07c-3.69,0-6.81-2.97-6.81-8.189c0-5.34,2.819-8.22,6.899-8.22c4.47,0,6.63,3.63,6.63,7.89
		C369.873,432.011,369.812,432.521,369.783,432.852z M363.033,426.342c-2.07,0-3.33,1.439-3.6,3.959h7.319
		C366.603,428.142,365.583,426.342,363.033,426.342z"/>
	<path fill="#19162B" d="M382.262,427.151c-0.66-0.36-1.351-0.57-2.37-0.57c-1.949,0-3.09,1.38-3.09,4.05v9h-3.09v-15.749h3.09v1.5
		c0.721-1.051,2.04-1.83,3.6-1.83c1.26,0,2.041,0.239,2.67,0.66L382.262,427.151z"/>
	<path fill="#19162B" d="M391.742,445.181h-3.27l2.279-5.85l-5.789-15.449h3.391l2.58,7.709c0.479,1.38,1.199,3.72,1.379,4.59
		c0.27-0.93,0.93-3.18,1.41-4.529l2.67-7.77h3.27L391.742,445.181z"/>
	<path fill="#19162B" d="M420.511,439.631v-1.5c-1.141,1.05-2.459,1.83-4.109,1.83c-3.391,0-6.061-2.46-6.061-8.46
		c0-5.399,2.941-7.949,6.211-7.949c1.59,0,3.09,0.84,3.959,1.8v-6l3.061-1.59v21.869H420.511z M420.541,428.472
		c-0.689-0.931-2.129-2.07-3.689-2.07c-2.219,0-3.42,1.68-3.42,5.01c0,3.96,1.26,5.7,3.541,5.7c1.469,0,2.76-0.99,3.568-2.011
		V428.472z"/>
	<path fill="#19162B" d="M437.162,439.631v-1.56c-1.08,1.079-2.609,1.89-4.32,1.89c-2.549,0-5.459-1.44-5.459-5.31
		c0-3.51,2.699-5.101,6.27-5.101c1.471,0,2.641,0.211,3.51,0.601v-1.17c0-1.71-1.049-2.67-2.969-2.67c-1.621,0-2.881,0.3-4.111,0.99
		l-1.199-2.34c1.5-0.931,3.18-1.41,5.4-1.41c3.51,0,5.91,1.71,5.91,5.279v10.8H437.162z M437.162,432.911
		c-0.84-0.42-1.92-0.69-3.6-0.69c-1.98,0-3.24,0.9-3.24,2.341c0,1.56,0.99,2.609,3.031,2.609c1.648,0,3.09-1.02,3.809-2.01V432.911z
		"/>
	<path fill="#19162B" d="M449.671,445.181h-3.27l2.279-5.85l-5.789-15.449h3.389l2.58,7.709c0.48,1.38,1.199,3.72,1.381,4.59
		c0.27-0.93,0.93-3.18,1.41-4.529l2.67-7.77h3.27L449.671,445.181z"/>
</g>
<g>
	<path fill="#19162B" d="M325.095,640.33l-24.827-1.815l-13.927-7.267c-32.701,1.814-44.208-6.056-44.208-6.056v3.632
		c6.661,0.604,10.9,7.873,10.9,7.873l-1.816,13.927c-43.6,12.719-55.105-5.449-55.105-5.449l0.605-15.744l13.321-6.662
		c6.056-37.544,36.334-35.728,36.334-35.728v-4.845l-2.422-5.449l-5.297-3.028v-8.336l15.635-10.667l-0.814-8.062l-4.681-2.604
		l-18.167,8.479c-25.433-4.239-4.239-22.406-4.239-22.406l21.195-1.817c-1.817-4.843,3.633-7.871,3.633-7.871
		c9.083-4.235,21.8-1.211,21.8-1.211l0.604,3.025l21.194-11.505c29.067,7.873,4.239,23.011,4.239,23.011l-22.405,2.424l-4.844,7.871
		l1.21,10.294l15.744,9.084v9.688l-6.057,7.267l7.268,10.901l43.602,6.056C352.951,627.007,325.095,640.33,325.095,640.33z
		 M223.442,642.146c-12.374-0.185-22.439,2.105-22.484,5.116c-0.043,3.013,9.95,5.602,22.323,5.779
		c12.374,0.183,22.44-2.109,22.484-5.12C245.81,644.917,235.815,642.33,223.442,642.146z"/>
	<path fill="#19162B" d="M224.929,677.431c0,0-13.515,14.61-11.797,26.098c0,0,1.328,8.277,9.847,8.277
		c0,0,9.062,0.819,9.764-10.483c0,0,0.158-4.747-4.218-11.623C228.524,689.695,225.087,684.619,224.929,677.431z"/>
</g>
<g enable-background="new    ">
	<path fill="#19162B" d="M310.713,288.815h-17.159c0-27.239,9.119-50.158,24.719-68.037h-42.719v-15.959h62.998v16.199
		C321.513,237.697,310.713,259.776,310.713,288.815z"/>
</g>
<g enable-background="new    ">
	<path fill="#19162B" d="M253.21,350.76c-2.3,0-4.3-0.899-5.55-2.05v1.5h-6.9v-33.002l6.9-3.45v11.851c1.3-1.15,3.05-2.2,5.55-2.2
		c5.601,0,10.201,4.2,10.201,14.001C263.411,345.26,259.711,350.76,253.21,350.76z M251.911,329.909c-2.15,0-3.25,0.899-4.25,2.199
		v9.901c1.05,1.45,2.65,2.25,4.65,2.25c2.65,0,4.1-2.301,4.1-6.7C256.411,332.159,254.611,329.909,251.911,329.909z"/>
	<path fill="#19162B" d="M272.56,321.809c-2.15,0-3.951-1.801-3.951-3.95c0-2.15,1.8-3.95,3.951-3.95s3.949,1.8,3.949,3.95
		C276.509,320.008,274.71,321.809,272.56,321.809z M269.109,350.21v-26.252h6.9v26.252H269.109z"/>
	<path fill="#19162B" d="M283.209,350.21v-33.002l6.9-3.45v36.452H283.209z"/>
	<path fill="#19162B" d="M297.31,350.21v-33.002l6.9-3.45v36.452H297.31z"/>
	<path fill="#19162B" d="M314.859,321.809c-2.149,0-3.949-1.801-3.949-3.95c0-2.15,1.8-3.95,3.949-3.95c2.15,0,3.951,1.8,3.951,3.95
		C318.81,320.008,317.009,321.809,314.859,321.809z M311.41,350.21v-26.252h6.9v26.252H311.41z"/>
	<path fill="#19162B" d="M335.76,350.76c-6.851,0-11.851-5.601-11.851-13.65c0-8.051,5-13.701,11.851-13.701s11.9,5.65,11.9,13.701
		C347.661,345.159,342.611,350.76,335.76,350.76z M335.76,330.059c-3.3,0-4.851,3-4.851,7.051c0,4.05,1.551,7,4.851,7
		s4.899-3.35,4.899-7C340.66,333.109,339.06,330.059,335.76,330.059z"/>
	<path fill="#19162B" d="M368.86,350.21v-14.201c0-4.7-1.601-6.1-4.45-6.1s-4.5,1.399-4.5,5.95v14.351h-6.9v-26.252h6.9v1.75
		c1.199-1.25,3.4-2.3,6.15-2.3c6.7,0,9.7,4.601,9.7,12.001v14.801H368.86z"/>
</g>
</svg>
