<?xml version="1.0" encoding="utf-8"?>
<!-- Generator: Adobe Illustrator 15.1.0, SVG Export Plug-In . SVG Version: 6.00 Build 0)  -->
<!DOCTYPE svg PUBLIC "-//W3C//DTD SVG 1.1//EN" "http://www.w3.org/Graphics/SVG/1.1/DTD/svg11.dtd">
<svg version="1.1" id="Layer_1" xmlns="http://www.w3.org/2000/svg" xmlns:xlink="http://www.w3.org/1999/xlink" x="0px" y="0px"
	 width="536.378px" height="780.521px" viewBox="0 0 536.378 780.521" enable-background="new 0 0 536.378 780.521"
	 xml:space="preserve">
<rect x="32.689" y="381.761" fill="none" width="468" height="82"/>
<g enable-background="new    ">
	<path fill="#19162B" d="M251.022,288.815v-60.718h-14.399v-12.359c9.36-0.479,15.479-3.96,17.159-10.919h13.92v83.996H251.022z"/>
	<path fill="#19162B" d="M294.462,290.136c-6.12,0-11.279-5.16-11.279-11.28c0-6.119,5.159-11.279,11.279-11.279
		c6.119,0,11.279,5.16,11.279,11.279C305.742,284.976,300.582,290.136,294.462,290.136z"/>
	<path fill="#19162B" d="M349.78,290.136c-18.72,0-33.358-10.439-33.358-33.959c0-22.079,12.959-52.678,56.518-52.678v16.319
		c-19.439,0-31.799,6.84-36.599,19.679c5.399-3.6,10.679-5.279,19.199-5.279c16.679,0,29.639,8.52,29.639,27.119
		C385.178,280.056,369.58,290.136,349.78,290.136z M351.339,249.457c-11.399,0-17.52,3.84-17.52,12.6
		c0,7.8,5.76,12.479,16.68,12.479c11.16,0,17.639-4.8,17.639-12.6C368.138,253.417,361.9,249.457,351.339,249.457z"/>
</g>
<g enable-background="new    ">
	<path fill="#19162B" d="M266.496,350.21v-14.201c0-4.7-1.35-6.1-4.2-6.1c-2.851,0-4.25,1.399-4.25,5.95v14.351h-6.9v-14.201
		c0-4.7-1.35-6.1-4.2-6.1s-4.25,1.399-4.25,5.95v14.351h-6.9v-26.252h6.9v1.75c1.2-1.25,3-2.3,5.75-2.3c3.35,0,5.3,0.95,7.25,3.351
		c1.8-1.851,4-3.351,8.351-3.351c6.7,0,9.351,4.601,9.351,12.001v14.801H266.496z"/>
	<path fill="#19162B" d="M283.543,321.809c-2.149,0-3.95-1.801-3.95-3.95c0-2.15,1.801-3.95,3.95-3.95c2.15,0,3.95,1.8,3.95,3.95
		C287.494,320.008,285.694,321.809,283.543,321.809z M280.093,350.21v-26.252h6.9v26.252H280.093z"/>
	<path fill="#19162B" d="M294.193,350.21v-33.002l6.9-3.45v36.452H294.193z"/>
	<path fill="#19162B" d="M308.292,350.21v-33.002l6.9-3.45v36.452H308.292z"/>
	<path fill="#19162B" d="M325.843,321.809c-2.15,0-3.95-1.801-3.95-3.95c0-2.15,1.8-3.95,3.95-3.95s3.95,1.8,3.95,3.95
		C329.793,320.008,327.994,321.809,325.843,321.809z M322.393,350.21v-26.252h6.9v26.252H322.393z"/>
	<path fill="#19162B" d="M346.744,350.76c-6.851,0-11.852-5.601-11.852-13.65c0-8.051,5.001-13.701,11.852-13.701
		c6.85,0,11.9,5.65,11.9,13.701C358.644,345.159,353.593,350.76,346.744,350.76z M346.744,330.059c-3.301,0-4.851,3-4.851,7.051
		c0,4.05,1.55,7,4.851,7c3.3,0,4.9-3.35,4.9-7C351.644,333.109,350.043,330.059,346.744,330.059z"/>
	<path fill="#19162B" d="M379.843,350.21v-14.201c0-4.7-1.6-6.1-4.449-6.1c-2.851,0-4.501,1.399-4.501,5.95v14.351h-6.9v-26.252h6.9
		v1.75c1.2-1.25,3.4-2.3,6.15-2.3c6.7,0,9.7,4.601,9.7,12.001v14.801H379.843z"/>
</g>
<path fill="#19162B" d="M316.314,711.947l-2.379-76.781l14.949-130.799l-4.758-5.438l-82.216-0.68l2.378,5.096l-2.038,2.379
	l-7.474-1.021l-3.738,7.812l1.019,6.456l-0.339,5.775l-8.833,4.077l-1.019,3.396l-4.077,0.683l2.038,7.134l-7.475,6.456l4.757,7.812
	l-7.814,1.021l-2.377,4.076v5.771l3.396,5.438c0,0-1.697,6.793-1.358,7.812c0.339,1.021,1.019,5.102,1.019,5.102l-2.379,2.718
	l1.019,6.454c0,0,0,3.736,0.68,5.437c0.68,1.699,1.699,10.871,1.699,10.871s2.718,4.417,3.058,6.456
	c0.339,2.038,2.038,7.475,2.038,7.475l-2.379,3.737l-5.096,2.716l2.038,4.758c0,0-1.019,2.381-1.358,3.397
	c-0.339,1.02-3.737,5.096-3.737,6.114c0,1.02-3.058,3.734-3.736,4.757c-0.68,1.021-3.059,3.396-3.398,4.416
	c-0.339,1.021-1.699,2.039-2.038,4.417c-0.341,2.379-3.059,6.795-3.398,7.812c-0.339,1.021-1.019,2.038-1.699,3.736
	c-0.678,1.699-2.377,5.775-2.377,5.775l2.038,4.418l1.358,4.756h71.006l-1.699,8.151l-1.697,5.773l2.039,7.814l4.415,5.772
	l3.398,8.493l4.415,2.719l4.078-4.417l2.378-6.454l2.038,0.681l-0.68,2.719l14.27-4.417c0,0,2.718-3.396,6.795,2.379l3.736-1.02
	l5.438,2.379L316.314,711.947z"/>
<g enable-background="new    ">
	<path fill="#6BBDC4" d="M261.126,616.02v-13.098c0-1.487,0.036-3.646,0.071-4.354c-0.283,0.708-0.991,2.478-1.593,3.894
		l-6.019,13.948l-5.947-13.948c-0.602-1.416-1.31-3.186-1.593-3.894c0.035,0.708,0.071,2.867,0.071,4.354v13.098h-3.504v-24.78
		h3.823l5.558,13.204c0.602,1.416,1.381,3.222,1.699,4.248c0.354-1.026,1.062-2.797,1.664-4.248l5.451-13.204h3.965v24.78H261.126z"
		/>
</g>
<g enable-background="new    ">
	<path fill="#6BBDC4" d="M278.652,616.409c-3.61,0-6.726-1.558-8.814-4.001l2.655-2.584c1.663,1.806,4.106,2.938,6.442,2.938
		c3.47,0,5.133-1.204,5.133-3.61c0-1.912-1.451-2.868-5.593-4.107c-5.239-1.557-7.753-2.867-7.753-7.292
		c0-4.283,3.611-6.903,8.178-6.903c3.363,0,5.912,1.239,8.106,3.363l-2.619,2.655c-1.558-1.593-3.328-2.372-5.771-2.372
		c-2.902,0-4.142,1.416-4.142,3.08c0,1.734,1.133,2.584,5.416,3.858c4.886,1.487,7.93,3.044,7.93,7.47
		C287.821,613.364,284.989,616.409,278.652,616.409z"/>
</g>
<rect x="46.689" y="393.761" fill="none" width="445" height="70"/>
<g enable-background="new    ">
	<path fill="#19162B" d="M108.151,421.42l-1.05-2.34c4.44-0.21,5.4-1.41,5.4-4.68v-0.271c-1.14,1.05-2.43,1.83-4.08,1.83
		c-3.36,0-6.06-2.46-6.06-8.46c0-5.399,2.97-7.949,6.21-7.949c1.59,0,3.09,0.84,3.93,1.8v-1.47h3.09v14.249
		C115.59,418.93,113.851,421.239,108.151,421.42z M112.561,404.471c-0.69-0.931-2.13-2.07-3.69-2.07c-2.22,0-3.42,1.68-3.42,5.01
		c0,3.96,1.26,5.7,3.54,5.7c1.47,0,2.76-0.99,3.57-2.011V404.471z"/>
	<path fill="#19162B" d="M129.18,415.63v-1.56c-1.08,1.079-2.61,1.89-4.32,1.89c-2.55,0-5.46-1.44-5.46-5.31
		c0-3.51,2.7-5.101,6.27-5.101c1.47,0,2.64,0.211,3.51,0.601v-1.17c0-1.71-1.05-2.67-2.97-2.67c-1.62,0-2.88,0.3-4.11,0.99
		l-1.2-2.34c1.5-0.931,3.18-1.41,5.4-1.41c3.51,0,5.91,1.71,5.91,5.279v10.8H129.18z M129.18,408.91c-0.84-0.42-1.92-0.69-3.6-0.69
		c-1.979,0-3.24,0.9-3.24,2.341c0,1.56,0.99,2.609,3.03,2.609c1.65,0,3.09-1.02,3.81-2.01V408.91z"/>
	<path fill="#19162B" d="M136.8,415.63v-20.249l3.09-1.62v21.869H136.8z"/>
	<path fill="#19162B" d="M144.75,415.63v-20.249l3.09-1.62v21.869H144.75z"/>
	<path fill="#19162B" d="M158.73,415.96c-3.959,0-6.93-3.27-6.93-8.189c0-5.16,3.06-8.22,7.02-8.22c4.02,0,7.02,3.21,7.02,8.13
		C165.84,412.9,162.78,415.96,158.73,415.96z M158.7,402.49c-2.34,0-3.78,2.07-3.78,5.19c0,3.449,1.59,5.339,3.93,5.339
		s3.87-2.369,3.87-5.249C162.72,404.561,161.19,402.49,158.7,402.49z"/>
	<path fill="#19162B" d="M179.22,415.63v-8.909c0-3.181-1.2-4.32-3.24-4.32c-2.07,0-3.24,1.47-3.24,4.02v9.21h-3.09v-15.749h3.09
		v1.5c0.78-1.141,2.34-1.83,3.96-1.83c3.66,0,5.61,2.399,5.61,7.05v9.029H179.22z"/>
	<path fill="#19162B" d="M191.85,415.96c-2.13,0-4.44-0.84-6.03-2.01l1.41-2.34c1.47,1.02,3.12,1.56,4.59,1.56
		c1.95,0,2.88-0.63,2.88-1.74c0-1.199-1.38-1.77-3.66-2.64c-3.39-1.32-4.62-2.46-4.62-4.949c0-2.82,2.22-4.29,5.37-4.29
		c1.98,0,3.93,0.72,5.34,1.739l-1.35,2.37c-1.29-0.899-2.58-1.35-4.08-1.35c-1.5,0-2.16,0.6-2.16,1.439c0,0.78,0.54,1.351,2.91,2.28
		c3.51,1.35,5.31,2.31,5.31,5.279C197.759,414.79,194.939,415.96,191.85,415.96z"/>
	<path fill="#19162B" d="M215.399,396.551c-1.02,0-1.44,0.39-1.44,1.53v1.8h2.91v2.88h-2.91v12.869h-3.09v-12.869h-2.04v-2.88h2.04
		v-2.07c0-2.88,1.77-3.96,3.99-3.96c0.81,0,1.68,0.12,2.34,0.3v2.7C216.479,396.641,215.939,396.551,215.399,396.551z
		 M220.619,415.63v-20.249l3.09-1.62v21.869H220.619z"/>
	<path fill="#19162B" d="M234.599,415.96c-3.959,0-6.93-3.27-6.93-8.189c0-5.16,3.06-8.22,7.02-8.22c4.02,0,7.02,3.21,7.02,8.13
		C241.708,412.9,238.648,415.96,234.599,415.96z M234.569,402.49c-2.34,0-3.78,2.07-3.78,5.19c0,3.449,1.59,5.339,3.93,5.339
		s3.87-2.369,3.87-5.249C238.589,404.561,237.059,402.49,234.569,402.49z"/>
	<path fill="#19162B" d="M259.349,415.63h-2.64l-2.13-7.949c-0.33-1.2-0.66-2.61-0.81-3.36c-0.15,0.75-0.48,2.19-0.81,3.39
		l-2.1,7.92h-2.64l-4.32-15.749h3.06l1.86,7.649c0.3,1.2,0.63,2.7,0.78,3.45c0.18-0.78,0.54-2.221,0.87-3.45l2.1-7.649h2.49
		l2.13,7.68c0.33,1.229,0.66,2.64,0.84,3.42c0.18-0.78,0.48-2.25,0.78-3.45l1.86-7.649h3.06L259.349,415.63z"/>
	<path fill="#19162B" d="M282.838,415.24c-0.75,0.42-1.8,0.72-3.03,0.72c-2.189,0-3.539-1.35-3.539-4.17v-9.09h-2.25v-2.819h2.25
		v-4.5l3.029-1.62v6.12h3.9v2.819h-3.9v8.55c0,1.47,0.48,1.89,1.62,1.89c0.81,0,1.71-0.3,2.28-0.63L282.838,415.24z"/>
	<path fill="#19162B" d="M296.968,415.63v-8.909c0-3.181-1.2-4.32-3.24-4.32c-2.07,0-3.24,1.47-3.24,4.02v9.21h-3.09v-20.249
		l3.09-1.62v7.62c0.781-1.141,2.34-1.83,3.961-1.83c3.659,0,5.609,2.399,5.609,7.05v9.029H296.968z"/>
	<path fill="#19162B" d="M313.048,403.15c-0.66-0.36-1.35-0.57-2.37-0.57c-1.95,0-3.09,1.38-3.09,4.05v9h-3.09v-15.749h3.09v1.5
		c0.72-1.051,2.04-1.83,3.601-1.83c1.26,0,2.039,0.239,2.67,0.66L313.048,403.15z"/>
	<path fill="#19162B" d="M322.468,415.96c-3.959,0-6.93-3.27-6.93-8.189c0-5.16,3.061-8.22,7.02-8.22c4.02,0,7.02,3.21,7.02,8.13
		C329.578,412.9,326.518,415.96,322.468,415.96z M322.439,402.49c-2.34,0-3.78,2.07-3.78,5.19c0,3.449,1.59,5.339,3.93,5.339
		s3.87-2.369,3.87-5.249C326.458,404.561,324.928,402.49,322.439,402.49z"/>
	<path fill="#19162B" d="M342.837,415.63v-1.5c-0.779,1.14-2.34,1.83-3.959,1.83c-3.66,0-5.61-2.4-5.61-7.05v-9.029h3.091v8.909
		c0,3.18,1.199,4.32,3.239,4.32c2.069,0,3.239-1.471,3.239-4.021v-9.209h3.09v15.749H342.837z"/>
	<path fill="#19162B" d="M355.588,421.42l-1.05-2.34c4.439-0.21,5.399-1.41,5.399-4.68v-0.271c-1.14,1.05-2.43,1.83-4.079,1.83
		c-3.36,0-6.061-2.46-6.061-8.46c0-5.399,2.97-7.949,6.21-7.949c1.59,0,3.09,0.84,3.93,1.8v-1.47h3.09v14.249
		C363.028,418.93,361.289,421.239,355.588,421.42z M359.998,404.471c-0.689-0.931-2.129-2.07-3.689-2.07
		c-2.22,0-3.42,1.68-3.42,5.01c0,3.96,1.26,5.7,3.54,5.7c1.47,0,2.76-0.99,3.569-2.011V404.471z"/>
	<path fill="#19162B" d="M377.158,415.63v-8.909c0-3.181-1.2-4.32-3.24-4.32c-2.07,0-3.24,1.47-3.24,4.02v9.21h-3.09v-20.249
		l3.09-1.62v7.62c0.781-1.141,2.34-1.83,3.961-1.83c3.659,0,5.609,2.399,5.609,7.05v9.029H377.158z"/>
	<path fill="#19162B" d="M400.317,415.24c-0.75,0.42-1.8,0.72-3.03,0.72c-2.189,0-3.539-1.35-3.539-4.17v-9.09h-2.25v-2.819h2.25
		v-4.5l3.029-1.62v6.12h3.9v2.819h-3.9v8.55c0,1.47,0.48,1.89,1.62,1.89c0.81,0,1.71-0.3,2.28-0.63L400.317,415.24z"/>
	<path fill="#19162B" d="M414.447,415.63v-8.909c0-3.181-1.199-4.32-3.239-4.32c-2.07,0-3.24,1.47-3.24,4.02v9.21h-3.09v-20.249
		l3.09-1.62v7.62c0.78-1.141,2.34-1.83,3.96-1.83c3.66,0,5.609,2.399,5.609,7.05v9.029H414.447z"/>
	<path fill="#19162B" d="M434.667,408.851h-10.41c0.33,3.029,2.04,4.319,3.96,4.319c1.32,0,2.37-0.479,3.42-1.26l1.83,1.979
		c-1.38,1.32-3.03,2.07-5.43,2.07c-3.69,0-6.81-2.97-6.81-8.189c0-5.34,2.819-8.22,6.899-8.22c4.47,0,6.63,3.63,6.63,7.89
		C434.756,408.01,434.696,408.521,434.667,408.851z M427.917,402.341c-2.07,0-3.33,1.439-3.6,3.959h7.319
		C431.486,404.141,430.466,402.341,427.917,402.341z"/>
</g>
<g enable-background="new    ">
	<path fill="#19162B" d="M102.526,451.63v-11.1c0-1.26,0.03-3.09,0.06-3.689c-0.24,0.6-0.84,2.1-1.35,3.3l-5.1,11.819l-5.04-11.819
		c-0.51-1.2-1.11-2.7-1.35-3.3c0.03,0.6,0.06,2.43,0.06,3.689v11.1h-2.97v-20.999h3.24l4.71,11.189c0.51,1.2,1.17,2.729,1.44,3.6
		c0.3-0.87,0.9-2.37,1.41-3.6l4.62-11.189h3.36v20.999H102.526z"/>
	<path fill="#19162B" d="M112.336,433.841c-1.11,0-2.01-0.9-2.01-1.98c0-1.109,0.9-2.01,2.01-2.01c1.08,0,1.98,0.9,1.98,2.01
		C114.316,432.94,113.417,433.841,112.336,433.841z M110.776,451.63v-15.749h3.09v15.749H110.776z"/>
	<path fill="#19162B" d="M123.677,451.96c-2.13,0-4.44-0.84-6.03-2.01l1.41-2.34c1.47,1.02,3.12,1.56,4.59,1.56
		c1.95,0,2.88-0.63,2.88-1.74c0-1.199-1.38-1.77-3.66-2.64c-3.39-1.32-4.62-2.46-4.62-4.949c0-2.82,2.22-4.29,5.37-4.29
		c1.98,0,3.93,0.72,5.34,1.739l-1.35,2.37c-1.29-0.899-2.58-1.35-4.08-1.35c-1.5,0-2.16,0.6-2.16,1.439c0,0.78,0.54,1.351,2.91,2.28
		c3.51,1.35,5.31,2.31,5.31,5.279C129.586,450.79,126.767,451.96,123.677,451.96z"/>
	<path fill="#19162B" d="M138.347,451.96c-2.13,0-4.44-0.84-6.03-2.01l1.41-2.34c1.47,1.02,3.12,1.56,4.59,1.56
		c1.95,0,2.88-0.63,2.88-1.74c0-1.199-1.38-1.77-3.66-2.64c-3.39-1.32-4.62-2.46-4.62-4.949c0-2.82,2.22-4.29,5.37-4.29
		c1.98,0,3.93,0.72,5.34,1.739l-1.35,2.37c-1.29-0.899-2.58-1.35-4.08-1.35c-1.5,0-2.16,0.6-2.16,1.439c0,0.78,0.54,1.351,2.91,2.28
		c3.51,1.35,5.31,2.31,5.31,5.279C144.256,450.79,141.437,451.96,138.347,451.96z"/>
	<path fill="#19162B" d="M149.926,433.841c-1.11,0-2.01-0.9-2.01-1.98c0-1.109,0.9-2.01,2.01-2.01c1.08,0,1.98,0.9,1.98,2.01
		C151.906,432.94,151.006,433.841,149.926,433.841z M148.366,451.63v-15.749h3.09v15.749H148.366z"/>
	<path fill="#19162B" d="M161.267,451.96c-2.13,0-4.44-0.84-6.03-2.01l1.41-2.34c1.47,1.02,3.12,1.56,4.59,1.56
		c1.95,0,2.88-0.63,2.88-1.74c0-1.199-1.38-1.77-3.66-2.64c-3.39-1.32-4.62-2.46-4.62-4.949c0-2.82,2.22-4.29,5.37-4.29
		c1.98,0,3.93,0.72,5.34,1.739l-1.35,2.37c-1.29-0.899-2.58-1.35-4.08-1.35c-1.5,0-2.16,0.6-2.16,1.439c0,0.78,0.54,1.351,2.91,2.28
		c3.51,1.35,5.31,2.31,5.31,5.279C167.176,450.79,164.356,451.96,161.267,451.96z"/>
	<path fill="#19162B" d="M172.846,433.841c-1.11,0-2.01-0.9-2.01-1.98c0-1.109,0.9-2.01,2.01-2.01c1.08,0,1.98,0.9,1.98,2.01
		C174.826,432.94,173.926,433.841,172.846,433.841z M171.286,451.63v-15.749h3.09v15.749H171.286z"/>
	<path fill="#19162B" d="M186.106,451.96c-1.59,0-3.09-0.84-3.96-1.8v5.67l-3.06,1.59v-21.539h3.06v1.5
		c1.14-1.051,2.46-1.83,4.11-1.83c3.39,0,6.06,2.46,6.06,8.459C192.315,449.41,189.375,451.96,186.106,451.96z M185.686,438.4
		c-1.47,0-2.76,0.99-3.57,2.01v6.63c0.69,0.93,2.13,2.07,3.69,2.07c2.22,0,3.42-1.681,3.42-5.01
		C189.226,440.141,187.966,438.4,185.686,438.4z"/>
	<path fill="#19162B" d="M203.206,451.96c-1.59,0-3.09-0.84-3.96-1.8v5.67l-3.06,1.59v-21.539h3.06v1.5
		c1.14-1.051,2.46-1.83,4.11-1.83c3.39,0,6.06,2.46,6.06,8.459C209.416,449.41,206.476,451.96,203.206,451.96z M202.786,438.4
		c-1.47,0-2.76,0.99-3.57,2.01v6.63c0.69,0.93,2.13,2.07,3.69,2.07c2.22,0,3.42-1.681,3.42-5.01
		C206.326,440.141,205.066,438.4,202.786,438.4z"/>
	<path fill="#19162B" d="M214.996,433.841c-1.11,0-2.01-0.9-2.01-1.98c0-1.109,0.9-2.01,2.01-2.01c1.08,0,1.98,0.9,1.98,2.01
		C216.976,432.94,216.076,433.841,214.996,433.841z M213.436,451.63v-15.749h3.09v15.749H213.436z"/>
	<path fill="#19162B" d="M237.885,439.15c-0.66-0.36-1.35-0.57-2.37-0.57c-1.95,0-3.09,1.38-3.09,4.05v9h-3.09v-15.749h3.09v1.5
		c0.72-1.051,2.04-1.83,3.6-1.83c1.26,0,2.04,0.239,2.67,0.66L237.885,439.15z"/>
	<path fill="#19162B" d="M243.585,433.841c-1.11,0-2.01-0.9-2.01-1.98c0-1.109,0.9-2.01,2.01-2.01c1.08,0,1.98,0.9,1.98,2.01
		C245.565,432.94,244.666,433.841,243.585,433.841z M242.025,451.63v-15.749h3.09v15.749H242.025z"/>
	<path fill="#19162B" d="M257.265,451.63h-3.09l-5.64-15.749h3.24l2.82,8.55c0.51,1.529,0.96,2.999,1.17,3.869
		c0.18-0.87,0.6-2.34,1.08-3.869l2.7-8.55h3.27L257.265,451.63z"/>
	<path fill="#19162B" d="M278.235,444.851h-10.409c0.33,3.029,2.039,4.319,3.959,4.319c1.32,0,2.371-0.479,3.42-1.26l1.83,1.979
		c-1.379,1.32-3.029,2.07-5.43,2.07c-3.689,0-6.81-2.97-6.81-8.189c0-5.34,2.82-8.22,6.899-8.22c4.471,0,6.631,3.63,6.631,7.89
		C278.326,444.01,278.265,444.521,278.235,444.851z M271.486,438.341c-2.07,0-3.331,1.439-3.601,3.959h7.319
		C275.055,440.141,274.035,438.341,271.486,438.341z"/>
	<path fill="#19162B" d="M290.714,439.15c-0.66-0.36-1.35-0.57-2.369-0.57c-1.95,0-3.09,1.38-3.09,4.05v9h-3.09v-15.749h3.09v1.5
		c0.72-1.051,2.039-1.83,3.6-1.83c1.26,0,2.04,0.239,2.67,0.66L290.714,439.15z"/>
	<path fill="#19162B" d="M309.825,451.96c-1.591,0-3.09-0.84-3.96-1.8v5.67l-3.061,1.59v-21.539h3.061v1.5
		c1.14-1.051,2.46-1.83,4.109-1.83c3.391,0,6.061,2.46,6.061,8.459C316.035,449.41,313.094,451.96,309.825,451.96z M309.405,438.4
		c-1.47,0-2.761,0.99-3.57,2.01v6.63c0.69,0.93,2.13,2.07,3.69,2.07c2.22,0,3.42-1.681,3.42-5.01
		C312.945,440.141,311.685,438.4,309.405,438.4z"/>
	<path fill="#19162B" d="M332.593,444.851h-10.409c0.33,3.029,2.04,4.319,3.96,4.319c1.32,0,2.37-0.479,3.42-1.26l1.83,1.979
		c-1.38,1.32-3.029,2.07-5.43,2.07c-3.689,0-6.811-2.97-6.811-8.189c0-5.34,2.82-8.22,6.9-8.22c4.47,0,6.63,3.63,6.63,7.89
		C332.684,444.01,332.625,444.521,332.593,444.851z M325.844,438.341c-2.069,0-3.33,1.439-3.601,3.959h7.32
		C329.414,440.141,328.394,438.341,325.844,438.341z"/>
	<path fill="#19162B" d="M345.074,439.15c-0.66-0.36-1.35-0.57-2.37-0.57c-1.95,0-3.09,1.38-3.09,4.05v9h-3.09v-15.749h3.09v1.5
		c0.72-1.051,2.04-1.83,3.601-1.83c1.26,0,2.039,0.239,2.67,0.66L345.074,439.15z"/>
	<path fill="#19162B" d="M362.263,451.96c-2.129,0-4.439-0.84-6.029-2.01l1.41-2.34c1.47,1.02,3.119,1.56,4.59,1.56
		c1.949,0,2.879-0.63,2.879-1.74c0-1.199-1.379-1.77-3.659-2.64c-3.39-1.32-4.62-2.46-4.62-4.949c0-2.82,2.221-4.29,5.37-4.29
		c1.979,0,3.93,0.72,5.34,1.739l-1.351,2.37c-1.289-0.899-2.58-1.35-4.08-1.35c-1.499,0-2.159,0.6-2.159,1.439
		c0,0.78,0.54,1.351,2.909,2.28c3.511,1.35,5.311,2.31,5.311,5.279C368.173,450.79,365.353,451.96,362.263,451.96z"/>
	<path fill="#19162B" d="M384.523,444.851h-10.409c0.329,3.029,2.04,4.319,3.96,4.319c1.319,0,2.369-0.479,3.42-1.26l1.83,1.979
		c-1.381,1.32-3.03,2.07-5.43,2.07c-3.69,0-6.811-2.97-6.811-8.189c0-5.34,2.82-8.22,6.9-8.22c4.469,0,6.629,3.63,6.629,7.89
		C384.613,444.01,384.553,444.521,384.523,444.851z M377.773,438.341c-2.069,0-3.33,1.439-3.6,3.959h7.32
		C381.343,440.141,380.324,438.341,377.773,438.341z"/>
	<path fill="#19162B" d="M398.353,440.41c-1.29-1.319-2.43-1.92-3.84-1.92c-2.25,0-3.69,2.01-3.69,5.22c0,3.09,1.32,5.31,3.78,5.31
		c1.47,0,2.34-0.659,3.57-1.949l1.979,1.949c-1.23,1.561-2.79,2.94-5.64,2.94c-3.84,0-6.811-3.24-6.811-8.16
		c0-5.22,3.061-8.249,6.9-8.249c2.31,0,4.109,0.93,5.58,2.67L398.353,440.41z"/>
	<path fill="#19162B" d="M409.783,451.96c-3.96,0-6.93-3.27-6.93-8.189c0-5.16,3.06-8.22,7.02-8.22c4.02,0,7.02,3.21,7.02,8.13
		C416.892,448.9,413.833,451.96,409.783,451.96z M409.752,438.49c-2.34,0-3.78,2.07-3.78,5.19c0,3.449,1.59,5.339,3.931,5.339
		c2.34,0,3.869-2.369,3.869-5.249C413.772,440.561,412.243,438.49,409.752,438.49z"/>
	<path fill="#19162B" d="M430.272,451.63v-8.909c0-3.181-1.2-4.32-3.24-4.32c-2.069,0-3.239,1.47-3.239,4.02v9.21h-3.09v-15.749
		h3.09v1.5c0.779-1.141,2.34-1.83,3.96-1.83c3.659,0,5.609,2.399,5.609,7.05v9.029H430.272z"/>
	<path fill="#19162B" d="M447.283,451.63v-1.5c-1.141,1.05-2.46,1.83-4.11,1.83c-3.39,0-6.06-2.46-6.06-8.46
		c0-5.399,2.94-7.949,6.21-7.949c1.59,0,3.09,0.84,3.96,1.8v-6l3.06-1.59v21.869H447.283z M447.312,440.471
		c-0.689-0.931-2.13-2.07-3.689-2.07c-2.22,0-3.42,1.68-3.42,5.01c0,3.96,1.26,5.7,3.54,5.7c1.47,0,2.76-0.99,3.569-2.011V440.471z"
		/>
</g>
</svg>
