<?xml version="1.0" encoding="utf-8"?>
<!-- Generator: Adobe Illustrator 15.1.0, SVG Export Plug-In . SVG Version: 6.00 Build 0)  -->
<!DOCTYPE svg PUBLIC "-//W3C//DTD SVG 1.1//EN" "http://www.w3.org/Graphics/SVG/1.1/DTD/svg11.dtd">
<svg version="1.1" id="Layer_1" xmlns="http://www.w3.org/2000/svg" xmlns:xlink="http://www.w3.org/1999/xlink" x="0px" y="0px"
	 width="536.378px" height="780.521px" viewBox="0 0 536.378 780.521" enable-background="new 0 0 536.378 780.521"
	 xml:space="preserve">
<rect x="163.537" y="201.337" fill="none" width="335.21" height="91.324"/>
<g enable-background="new    ">
	<path d="M245.643,290.136c-12.6,0-23.879-4.92-33.239-16.08l12.719-10.319c6.96,7.319,13.56,9.96,22.079,9.96
		c11.04,0,16.199-3.96,16.199-10.68c0-6.479-4.439-9.6-12.359-9.6h-9.959v-16.439h9c6.96,0,9.84-3,9.84-8.52
		c0-4.32-3.48-8.52-14.04-8.52c-6.48,0-11.759,2.279-16.439,7.079l-12.239-11.159c8.04-8.399,16.439-12.359,28.918-12.359
		c17.16,0,30.838,7.92,30.838,23.759c0,9.12-4.799,14.64-9.719,17.159c5.4,2.04,13.2,7.32,13.2,18.359
		C280.441,280.896,266.521,290.136,245.643,290.136z"/>
	<path d="M327.001,290.136c-22.919,0-35.158-17.76-35.158-43.318c0-25.56,12.359-43.318,35.278-43.318s35.278,17.52,35.278,43.078
		S349.921,290.136,327.001,290.136z M327.001,219.938c-12.84,0-18.119,11.64-18.119,26.639s5.4,27.119,18.239,27.119
		s18.239-11.88,18.239-26.879C345.361,231.817,339.841,219.938,327.001,219.938z"/>
	<path d="M409.56,290.136c-22.919,0-35.158-17.76-35.158-43.318c0-25.56,12.359-43.318,35.278-43.318s35.278,17.52,35.278,43.078
		S432.48,290.136,409.56,290.136z M409.56,219.938c-12.84,0-18.119,11.64-18.119,26.639s5.4,27.119,18.239,27.119
		s18.239-11.88,18.239-26.879C427.919,231.817,422.4,219.938,409.56,219.938z"/>
</g>
<rect x="-19.884" y="404.235" fill="none" width="587.719" height="62.156"/>
<g enable-background="new    ">
	<path d="M96.184,422.056c0,1.26,0.06,2.489,0.21,3.479h-2.37l-0.21-1.83h-0.09c-0.81,1.14-2.37,2.16-4.44,2.16
		c-2.94,0-4.44-2.07-4.44-4.17c0-3.51,3.12-5.43,8.73-5.399v-0.301c0-1.17-0.33-3.359-3.3-3.329c-1.38,0-2.79,0.39-3.81,1.08
		l-0.6-1.771c1.2-0.75,2.97-1.26,4.8-1.26c4.44,0,5.52,3.03,5.52,5.91V422.056z M93.634,418.125c-2.88-0.06-6.15,0.45-6.15,3.271
		c0,1.739,1.14,2.52,2.46,2.52c1.92,0,3.15-1.2,3.57-2.43c0.09-0.3,0.12-0.6,0.12-0.84V418.125z"/>
	<path d="M100.444,414.945c0-1.529-0.06-2.729-0.12-3.93h2.31l0.12,2.37h0.09c0.81-1.38,2.16-2.67,4.59-2.67
		c1.95,0,3.45,1.2,4.08,2.91h0.06c0.45-0.84,1.05-1.44,1.65-1.891c0.87-0.659,1.8-1.02,3.18-1.02c1.95,0,4.8,1.26,4.8,6.3v8.52
		h-2.58v-8.189c0-2.82-1.05-4.47-3.15-4.47c-1.53,0-2.67,1.109-3.15,2.369c-0.12,0.391-0.21,0.841-0.21,1.32v8.97h-2.58v-8.699
		c0-2.311-1.02-3.96-3.03-3.96c-1.62,0-2.85,1.319-3.27,2.64c-0.15,0.36-0.21,0.84-0.21,1.29v8.729h-2.58V414.945z"/>
	<path d="M138.604,418.155c0,5.37-3.75,7.71-7.23,7.71c-3.9,0-6.959-2.88-6.959-7.47c0-4.83,3.209-7.68,7.2-7.68
		C135.783,410.716,138.604,413.746,138.604,418.155z M127.114,418.306c0,3.18,1.8,5.579,4.38,5.579c2.52,0,4.41-2.369,4.41-5.64
		c0-2.46-1.23-5.55-4.35-5.55C128.464,412.695,127.114,415.575,127.114,418.306z"/>
	<path d="M154.083,421.545c0,1.53,0.03,2.851,0.12,3.99h-2.34l-0.15-2.37h-0.06c-0.66,1.17-2.22,2.7-4.8,2.7
		c-2.28,0-5.01-1.29-5.01-6.359v-8.49h2.64v8.01c0,2.76,0.87,4.649,3.24,4.649c1.77,0,3-1.229,3.48-2.43
		c0.15-0.359,0.24-0.84,0.24-1.35v-8.88h2.64V421.545z"/>
	<path d="M158.463,414.945c0-1.529-0.03-2.729-0.12-3.93h2.34l0.15,2.4h0.06c0.72-1.351,2.4-2.7,4.8-2.7c2.01,0,5.13,1.2,5.13,6.18
		v8.64h-2.64v-8.37c0-2.34-0.87-4.289-3.36-4.289c-1.71,0-3.06,1.229-3.54,2.699c-0.12,0.33-0.18,0.78-0.18,1.23v8.729h-2.64
		V414.945z"/>
	<path d="M178.173,407.536v3.479h3.78v2.01h-3.78v7.83c0,1.8,0.51,2.819,1.98,2.819c0.72,0,1.14-0.06,1.53-0.18l0.12,2.01
		c-0.51,0.181-1.32,0.36-2.34,0.36c-1.23,0-2.22-0.42-2.85-1.11c-0.72-0.81-1.02-2.1-1.02-3.81v-7.92h-2.25v-2.01h2.25v-2.7
		L178.173,407.536z"/>
	<path d="M191.283,414.945c0-1.529-0.03-2.729-0.12-3.93h2.34l0.15,2.4h0.06c0.72-1.351,2.4-2.7,4.8-2.7c2.01,0,5.13,1.2,5.13,6.18
		v8.64h-2.64v-8.37c0-2.34-0.87-4.289-3.36-4.289c-1.71,0-3.06,1.229-3.54,2.699c-0.12,0.33-0.18,0.78-0.18,1.23v8.729h-2.64
		V414.945z"/>
	<path d="M209.402,418.756c0.06,3.569,2.31,5.039,4.98,5.039c1.89,0,3.06-0.33,4.02-0.75l0.48,1.891c-0.93,0.42-2.55,0.93-4.86,0.93
		c-4.47,0-7.14-2.97-7.14-7.35s2.58-7.8,6.81-7.8c4.77,0,6,4.14,6,6.81c0,0.54-0.03,0.93-0.09,1.23H209.402z M217.142,416.865
		c0.03-1.649-0.69-4.26-3.66-4.26c-2.7,0-3.84,2.43-4.05,4.26H217.142z"/>
	<path d="M224.432,418.756c0.06,3.569,2.31,5.039,4.98,5.039c1.89,0,3.06-0.33,4.02-0.75l0.48,1.891c-0.93,0.42-2.55,0.93-4.86,0.93
		c-4.47,0-7.14-2.97-7.14-7.35s2.58-7.8,6.81-7.8c4.77,0,6,4.14,6,6.81c0,0.54-0.03,0.93-0.09,1.23H224.432z M232.172,416.865
		c0.03-1.649-0.69-4.26-3.66-4.26c-2.7,0-3.84,2.43-4.05,4.26H232.172z"/>
	<path d="M250.501,404.236v17.549c0,1.29,0.06,2.76,0.12,3.75h-2.34l-0.12-2.52h-0.09c-0.78,1.619-2.52,2.85-4.89,2.85
		c-3.51,0-6.24-2.97-6.24-7.38c-0.03-4.83,3-7.77,6.51-7.77c2.25,0,3.72,1.05,4.379,2.189h0.06v-8.669H250.501z M247.892,416.926
		c0-0.33-0.03-0.78-0.12-1.11c-0.39-1.649-1.83-3.029-3.81-3.029c-2.73,0-4.35,2.399-4.35,5.579c0,2.94,1.47,5.37,4.29,5.37
		c1.77,0,3.39-1.2,3.87-3.15c0.09-0.359,0.12-0.72,0.12-1.14V416.926z"/>
	<path d="M256.382,418.756c0.06,3.569,2.31,5.039,4.98,5.039c1.89,0,3.06-0.33,4.02-0.75l0.48,1.891c-0.93,0.42-2.55,0.93-4.86,0.93
		c-4.47,0-7.14-2.97-7.14-7.35s2.58-7.8,6.81-7.8c4.77,0,6,4.14,6,6.81c0,0.54-0.03,0.93-0.09,1.23H256.382z M264.122,416.865
		c0.03-1.649-0.69-4.26-3.66-4.26c-2.7,0-3.84,2.43-4.05,4.26H264.122z"/>
	<path d="M282.451,404.236v17.549c0,1.29,0.061,2.76,0.121,3.75h-2.34l-0.121-2.52h-0.09c-0.779,1.619-2.52,2.85-4.889,2.85
		c-3.511,0-6.24-2.97-6.24-7.38c-0.03-4.83,3-7.77,6.51-7.77c2.25,0,3.72,1.05,4.379,2.189h0.061v-8.669H282.451z M279.841,416.926
		c0-0.33-0.029-0.78-0.119-1.11c-0.391-1.649-1.83-3.029-3.811-3.029c-2.73,0-4.35,2.399-4.35,5.579c0,2.94,1.47,5.37,4.289,5.37
		c1.771,0,3.391-1.2,3.871-3.15c0.09-0.359,0.119-0.72,0.119-1.14V416.926z"/>
	<path d="M296.401,407.536v3.479h3.78v2.01h-3.78v7.83c0,1.8,0.511,2.819,1.979,2.819c0.721,0,1.141-0.06,1.531-0.18l0.119,2.01
		c-0.51,0.181-1.32,0.36-2.34,0.36c-1.23,0-2.22-0.42-2.85-1.11c-0.721-0.81-1.02-2.1-1.02-3.81v-7.92h-2.25v-2.01h2.25v-2.7
		L296.401,407.536z"/>
	<path d="M316.111,418.155c0,5.37-3.75,7.71-7.23,7.71c-3.899,0-6.959-2.88-6.959-7.47c0-4.83,3.209-7.68,7.199-7.68
		C313.291,410.716,316.111,413.746,316.111,418.155z M304.621,418.306c0,3.18,1.801,5.579,4.381,5.579
		c2.52,0,4.409-2.369,4.409-5.64c0-2.46-1.229-5.55-4.35-5.55C305.971,412.695,304.621,415.575,304.621,418.306z"/>
	<path d="M325.8,415.756c0-1.86-0.06-3.36-0.119-4.74h2.34l0.15,2.49h0.059c1.051-1.771,2.791-2.79,5.16-2.79
		c3.54,0,6.18,2.97,6.18,7.35c0,5.22-3.209,7.8-6.629,7.8c-1.92,0-3.6-0.84-4.471-2.28h-0.06v7.89h-2.61V415.756z M328.411,419.625
		c0,0.391,0.03,0.75,0.12,1.08c0.48,1.83,2.07,3.09,3.959,3.09c2.791,0,4.41-2.279,4.41-5.609c0-2.88-1.529-5.37-4.319-5.37
		c-1.8,0-3.51,1.26-3.989,3.24c-0.091,0.33-0.181,0.72-0.181,1.05V419.625z"/>
	<path d="M342.871,415.546c0-1.71-0.031-3.181-0.121-4.53h2.311l0.12,2.88h0.09c0.66-1.95,2.28-3.18,4.05-3.18
		c0.27,0,0.48,0.03,0.721,0.06v2.49c-0.271-0.06-0.541-0.06-0.9-0.06c-1.86,0-3.18,1.38-3.54,3.359
		c-0.06,0.36-0.091,0.81-0.091,1.23v7.739h-2.639V415.546z"/>
	<path d="M365.52,418.155c0,5.37-3.75,7.71-7.229,7.71c-3.9,0-6.96-2.88-6.96-7.47c0-4.83,3.21-7.68,7.2-7.68
		C362.7,410.716,365.52,413.746,365.52,418.155z M354.031,418.306c0,3.18,1.799,5.579,4.379,5.579c2.521,0,4.41-2.369,4.41-5.64
		c0-2.46-1.23-5.55-4.35-5.55C355.38,412.695,354.031,415.575,354.031,418.306z"/>
	<path d="M381.359,404.236v17.549c0,1.29,0.061,2.76,0.121,3.75h-2.34l-0.121-2.52h-0.09c-0.779,1.619-2.52,2.85-4.889,2.85
		c-3.511,0-6.24-2.97-6.24-7.38c-0.03-4.83,3-7.77,6.51-7.77c2.25,0,3.72,1.05,4.379,2.189h0.061v-8.669H381.359z M378.75,416.926
		c0-0.33-0.029-0.78-0.119-1.11c-0.391-1.649-1.83-3.029-3.811-3.029c-2.73,0-4.35,2.399-4.35,5.579c0,2.94,1.47,5.37,4.289,5.37
		c1.771,0,3.391-1.2,3.871-3.15c0.09-0.359,0.119-0.72,0.119-1.14V416.926z"/>
	<path d="M397.919,421.545c0,1.53,0.03,2.851,0.12,3.99h-2.34l-0.149-2.37h-0.061c-0.66,1.17-2.221,2.7-4.8,2.7
		c-2.28,0-5.01-1.29-5.01-6.359v-8.49h2.64v8.01c0,2.76,0.87,4.649,3.24,4.649c1.77,0,3-1.229,3.479-2.43
		c0.149-0.359,0.24-0.84,0.24-1.35v-8.88h2.64V421.545z"/>
	<path d="M412.65,425.025c-0.69,0.33-2.221,0.84-4.17,0.84c-4.381,0-7.23-2.97-7.23-7.41c0-4.47,3.061-7.739,7.8-7.739
		c1.56,0,2.94,0.39,3.66,0.78l-0.601,2.01c-0.629-0.33-1.619-0.69-3.06-0.69c-3.329,0-5.13,2.49-5.13,5.49
		c0,3.359,2.16,5.43,5.04,5.43c1.5,0,2.489-0.36,3.239-0.69L412.65,425.025z"/>
	<path d="M417.03,418.756c0.06,3.569,2.31,5.039,4.979,5.039c1.891,0,3.061-0.33,4.021-0.75l0.479,1.891
		c-0.93,0.42-2.55,0.93-4.859,0.93c-4.47,0-7.14-2.97-7.14-7.35s2.579-7.8,6.81-7.8c4.77,0,6,4.14,6,6.81
		c0,0.54-0.03,0.93-0.09,1.23H417.03z M424.769,416.865c0.031-1.649-0.689-4.26-3.659-4.26c-2.7,0-3.84,2.43-4.05,4.26H424.769z"/>
	<path d="M447.15,422.056c0,1.26,0.06,2.489,0.209,3.479h-2.369l-0.211-1.83h-0.09c-0.81,1.14-2.369,2.16-4.439,2.16
		c-2.939,0-4.439-2.07-4.439-4.17c0-3.51,3.119-5.43,8.729-5.399v-0.301c0-1.17-0.33-3.359-3.3-3.329c-1.381,0-2.79,0.39-3.811,1.08
		l-0.6-1.771c1.2-0.75,2.971-1.26,4.8-1.26c4.44,0,5.521,3.03,5.521,5.91V422.056z M444.599,418.125
		c-2.879-0.06-6.149,0.45-6.149,3.271c0,1.739,1.14,2.52,2.46,2.52c1.92,0,3.15-1.2,3.57-2.43c0.09-0.3,0.119-0.6,0.119-0.84
		V418.125z"/>
	<path d="M451.41,404.236h2.639v21.299h-2.639V404.236z"/>
	<path d="M458.49,404.236h2.639v21.299h-2.639V404.236z"/>
</g>
<g enable-background="new    ">
	<path d="M67.083,455.176l-2.1,6.359h-2.7l6.9-20.219h3.12l6.9,20.219h-2.79l-2.16-6.359H67.083z M73.743,453.136l-2.01-5.82
		c-0.45-1.319-0.75-2.52-1.05-3.689h-0.06c-0.3,1.17-0.6,2.43-1.02,3.66l-1.98,5.85H73.743z"/>
	<path d="M81.994,450.945c0-1.529-0.06-2.729-0.12-3.93h2.31l0.12,2.37h0.09c0.81-1.38,2.16-2.67,4.59-2.67
		c1.95,0,3.45,1.2,4.08,2.91h0.06c0.45-0.84,1.05-1.44,1.65-1.891c0.87-0.659,1.8-1.02,3.18-1.02c1.95,0,4.8,1.26,4.8,6.3v8.52
		h-2.58v-8.189c0-2.82-1.05-4.47-3.15-4.47c-1.53,0-2.67,1.109-3.15,2.369c-0.12,0.391-0.21,0.841-0.21,1.32v8.97h-2.58v-8.699
		c0-2.311-1.02-3.96-3.03-3.96c-1.62,0-2.85,1.319-3.27,2.64c-0.15,0.36-0.21,0.84-0.21,1.29v8.729h-2.58V450.945z"/>
	<path d="M108.483,454.756c0.06,3.569,2.31,5.039,4.98,5.039c1.89,0,3.06-0.33,4.02-0.75l0.48,1.891c-0.93,0.42-2.55,0.93-4.86,0.93
		c-4.47,0-7.14-2.97-7.14-7.35s2.58-7.8,6.81-7.8c4.77,0,6,4.14,6,6.81c0,0.54-0.03,0.93-0.09,1.23H108.483z M116.223,452.865
		c0.03-1.649-0.69-4.26-3.66-4.26c-2.7,0-3.84,2.43-4.05,4.26H116.223z"/>
	<path d="M122.043,451.546c0-1.71-0.03-3.181-0.12-4.53h2.31l0.12,2.88h0.09c0.66-1.95,2.28-3.18,4.05-3.18
		c0.27,0,0.48,0.03,0.72,0.06v2.49c-0.27-0.06-0.54-0.06-0.9-0.06c-1.86,0-3.18,1.38-3.54,3.359c-0.06,0.36-0.09,0.81-0.09,1.23
		v7.739h-2.64V451.546z"/>
	<path d="M134.914,442.936c0,0.9-0.63,1.62-1.68,1.62c-0.96,0-1.59-0.72-1.59-1.62c0-0.899,0.66-1.649,1.65-1.649
		C134.253,441.286,134.914,442.006,134.914,442.936z M131.974,461.535v-14.52h2.64v14.52H131.974z"/>
	<path d="M149.343,461.025c-0.69,0.33-2.22,0.84-4.17,0.84c-4.38,0-7.229-2.97-7.229-7.41c0-4.47,3.06-7.739,7.799-7.739
		c1.56,0,2.94,0.39,3.66,0.78l-0.6,2.01c-0.63-0.33-1.62-0.69-3.06-0.69c-3.33,0-5.129,2.49-5.129,5.49c0,3.359,2.16,5.43,5.04,5.43
		c1.5,0,2.49-0.36,3.24-0.69L149.343,461.025z"/>
	<path d="M162.633,458.056c0,1.26,0.06,2.489,0.21,3.479h-2.37l-0.21-1.83h-0.09c-0.81,1.14-2.37,2.16-4.44,2.16
		c-2.94,0-4.44-2.07-4.44-4.17c0-3.51,3.12-5.43,8.73-5.399v-0.301c0-1.17-0.33-3.359-3.3-3.329c-1.38,0-2.79,0.39-3.81,1.08
		l-0.6-1.771c1.2-0.75,2.97-1.26,4.8-1.26c4.44,0,5.52,3.03,5.52,5.91V458.056z M160.083,454.125c-2.88-0.06-6.149,0.45-6.149,3.271
		c0,1.739,1.14,2.52,2.46,2.52c1.92,0,3.15-1.2,3.57-2.43c0.09-0.3,0.12-0.6,0.12-0.84V454.125z"/>
	<path d="M166.893,450.945c0-1.529-0.03-2.729-0.12-3.93h2.34l0.15,2.4h0.06c0.72-1.351,2.4-2.7,4.8-2.7c2.01,0,5.13,1.2,5.13,6.18
		v8.64h-2.64v-8.37c0-2.34-0.87-4.289-3.36-4.289c-1.71,0-3.06,1.229-3.54,2.699c-0.12,0.33-0.18,0.78-0.18,1.23v8.729h-2.64
		V450.945z"/>
	<path d="M189.902,450.945c0-1.529-0.03-2.729-0.12-3.93h2.34l0.15,2.4h0.06c0.72-1.351,2.4-2.7,4.8-2.7c2.01,0,5.13,1.2,5.13,6.18
		v8.64h-2.64v-8.37c0-2.34-0.87-4.289-3.36-4.289c-1.71,0-3.06,1.229-3.54,2.699c-0.12,0.33-0.18,0.78-0.18,1.23v8.729h-2.64
		V450.945z"/>
	<path d="M208.022,454.756c0.06,3.569,2.31,5.039,4.98,5.039c1.89,0,3.06-0.33,4.02-0.75l0.48,1.891c-0.93,0.42-2.55,0.93-4.86,0.93
		c-4.47,0-7.14-2.97-7.14-7.35s2.58-7.8,6.81-7.8c4.77,0,6,4.14,6,6.81c0,0.54-0.03,0.93-0.09,1.23H208.022z M215.762,452.865
		c0.03-1.649-0.69-4.26-3.66-4.26c-2.7,0-3.84,2.43-4.05,4.26H215.762z"/>
	<path d="M222.632,447.016l1.95,7.38c0.39,1.62,0.78,3.12,1.05,4.62h0.09c0.33-1.471,0.81-3.03,1.29-4.59l2.37-7.41h2.22l2.25,7.26
		c0.54,1.74,0.96,3.27,1.29,4.74h0.09c0.24-1.471,0.63-3,1.11-4.71l2.07-7.29h2.61l-4.68,14.52h-2.4l-2.22-6.93
		c-0.51-1.62-0.93-3.06-1.29-4.77h-0.06c-0.36,1.739-0.81,3.239-1.32,4.8l-2.34,6.899h-2.4l-4.38-14.52H222.632z"/>
	<path d="M243.122,458.865c0.81,0.48,2.19,1.02,3.51,1.02c1.89,0,2.79-0.93,2.79-2.159c0-1.26-0.75-1.92-2.67-2.641
		c-2.64-0.96-3.87-2.369-3.87-4.109c0-2.34,1.92-4.26,5.01-4.26c1.47,0,2.76,0.39,3.54,0.899l-0.63,1.92
		c-0.57-0.359-1.62-0.869-2.97-0.869c-1.56,0-2.4,0.899-2.4,1.979c0,1.2,0.84,1.74,2.73,2.49c2.49,0.93,3.81,2.189,3.81,4.35
		c0,2.58-2.01,4.38-5.4,4.38c-1.59,0-3.06-0.42-4.08-1.021L243.122,458.865z"/>
	<path d="M255.362,451.756c0-1.86-0.06-3.36-0.12-4.74h2.34l0.15,2.49h0.06c1.05-1.771,2.79-2.79,5.16-2.79
		c3.54,0,6.18,2.97,6.18,7.35c0,5.22-3.21,7.8-6.63,7.8c-1.92,0-3.6-0.84-4.47-2.28h-0.06v7.89h-2.61V451.756z M257.972,455.625
		c0,0.391,0.03,0.75,0.12,1.08c0.48,1.83,2.07,3.09,3.959,3.09c2.79,0,4.41-2.279,4.41-5.609c0-2.88-1.53-5.37-4.32-5.37
		c-1.8,0-3.51,1.26-3.99,3.24c-0.09,0.33-0.18,0.72-0.18,1.05V455.625z"/>
	<path d="M282.63,458.056c0,1.26,0.061,2.489,0.211,3.479h-2.371l-0.209-1.83h-0.09c-0.811,1.14-2.371,2.16-4.44,2.16
		c-2.94,0-4.44-2.07-4.44-4.17c0-3.51,3.121-5.43,8.73-5.399v-0.301c0-1.17-0.33-3.359-3.3-3.329c-1.38,0-2.79,0.39-3.81,1.08
		l-0.601-1.771c1.2-0.75,2.97-1.26,4.8-1.26c4.439,0,5.52,3.03,5.52,5.91V458.056z M280.081,454.125
		c-2.88-0.06-6.149,0.45-6.149,3.271c0,1.739,1.14,2.52,2.46,2.52c1.92,0,3.149-1.2,3.569-2.43c0.09-0.3,0.12-0.6,0.12-0.84V454.125
		z"/>
	<path d="M286.891,451.756c0-1.86-0.06-3.36-0.12-4.74h2.34l0.15,2.49h0.06c1.05-1.771,2.79-2.79,5.16-2.79
		c3.54,0,6.18,2.97,6.18,7.35c0,5.22-3.21,7.8-6.63,7.8c-1.92,0-3.6-0.84-4.47-2.28h-0.06v7.89h-2.61V451.756z M289.501,455.625
		c0,0.391,0.029,0.75,0.119,1.08c0.48,1.83,2.07,3.09,3.96,3.09c2.79,0,4.41-2.279,4.41-5.609c0-2.88-1.53-5.37-4.319-5.37
		c-1.801,0-3.51,1.26-3.99,3.24c-0.09,0.33-0.18,0.72-0.18,1.05V455.625z"/>
	<path d="M305.431,454.756c0.06,3.569,2.31,5.039,4.979,5.039c1.89,0,3.06-0.33,4.021-0.75l0.479,1.891
		c-0.931,0.42-2.55,0.93-4.86,0.93c-4.469,0-7.139-2.97-7.139-7.35s2.579-7.8,6.809-7.8c4.771,0,6,4.14,6,6.81
		c0,0.54-0.029,0.93-0.09,1.23H305.431z M313.17,452.865c0.03-1.649-0.69-4.26-3.659-4.26c-2.7,0-3.84,2.43-4.051,4.26H313.17z"/>
	<path d="M318.991,451.546c0-1.71-0.03-3.181-0.12-4.53h2.311l0.119,2.88h0.09c0.66-1.95,2.28-3.18,4.051-3.18
		c0.27,0,0.479,0.03,0.72,0.06v2.49c-0.271-0.06-0.54-0.06-0.9-0.06c-1.86,0-3.18,1.38-3.54,3.359c-0.06,0.36-0.09,0.81-0.09,1.23
		v7.739h-2.64V451.546z"/>
	<path d="M328.441,458.865c0.81,0.48,2.189,1.02,3.51,1.02c1.889,0,2.789-0.93,2.789-2.159c0-1.26-0.75-1.92-2.67-2.641
		c-2.64-0.96-3.869-2.369-3.869-4.109c0-2.34,1.92-4.26,5.01-4.26c1.47,0,2.76,0.39,3.539,0.899l-0.629,1.92
		c-0.57-0.359-1.621-0.869-2.971-0.869c-1.56,0-2.4,0.899-2.4,1.979c0,1.2,0.841,1.74,2.73,2.49c2.49,0.93,3.811,2.189,3.811,4.35
		c0,2.58-2.011,4.38-5.4,4.38c-1.59,0-3.061-0.42-4.08-1.021L328.441,458.865z"/>
	<path d="M347.31,461.535v-12.51h-2.01v-2.01h2.01v-0.689c0-2.04,0.48-3.9,1.68-5.07c0.99-0.96,2.311-1.35,3.54-1.35
		c0.96,0,1.739,0.21,2.25,0.42l-0.36,2.04c-0.39-0.181-0.9-0.33-1.68-0.33c-2.25,0-2.82,1.95-2.82,4.199v0.78h3.51v2.01h-3.51v12.51
		H347.31z"/>
	<path d="M368.55,454.155c0,5.37-3.75,7.71-7.23,7.71c-3.9,0-6.959-2.88-6.959-7.47c0-4.83,3.209-7.68,7.199-7.68
		C365.73,446.716,368.55,449.746,368.55,454.155z M357.06,454.306c0,3.18,1.8,5.579,4.38,5.579c2.521,0,4.409-2.369,4.409-5.64
		c0-2.46-1.229-5.55-4.35-5.55C358.41,448.695,357.06,451.575,357.06,454.306z"/>
	<path d="M371.88,451.546c0-1.71-0.03-3.181-0.121-4.53h2.311l0.12,2.88h0.09c0.66-1.95,2.28-3.18,4.05-3.18
		c0.27,0,0.48,0.03,0.72,0.06v2.49c-0.27-0.06-0.54-0.06-0.899-0.06c-1.86,0-3.18,1.38-3.54,3.359c-0.06,0.36-0.091,0.81-0.091,1.23
		v7.739h-2.639V451.546z"/>
	<path d="M401.189,454.155c0,5.37-3.75,7.71-7.229,7.71c-3.899,0-6.96-2.88-6.96-7.47c0-4.83,3.21-7.68,7.2-7.68
		C398.369,446.716,401.189,449.746,401.189,454.155z M389.7,454.306c0,3.18,1.8,5.579,4.38,5.579c2.52,0,4.41-2.369,4.41-5.64
		c0-2.46-1.23-5.55-4.35-5.55C391.05,448.695,389.7,451.575,389.7,454.306z"/>
	<path d="M404.519,450.945c0-1.529-0.029-2.729-0.119-3.93h2.34l0.149,2.4h0.06c0.721-1.351,2.4-2.7,4.801-2.7
		c2.01,0,5.129,1.2,5.129,6.18v8.64h-2.639v-8.37c0-2.34-0.871-4.289-3.36-4.289c-1.71,0-3.06,1.229-3.54,2.699
		c-0.12,0.33-0.18,0.78-0.18,1.23v8.729h-2.641V450.945z"/>
	<path d="M422.639,454.756c0.06,3.569,2.31,5.039,4.979,5.039c1.891,0,3.061-0.33,4.021-0.75l0.479,1.891
		c-0.93,0.42-2.55,0.93-4.859,0.93c-4.47,0-7.14-2.97-7.14-7.35s2.579-7.8,6.81-7.8c4.77,0,6,4.14,6,6.81
		c0,0.54-0.03,0.93-0.09,1.23H422.639z M430.378,452.865c0.031-1.649-0.689-4.26-3.659-4.26c-2.7,0-3.84,2.43-4.05,4.26H430.378z"/>
	<path d="M455.068,440.236v17.549c0,1.29,0.061,2.76,0.12,3.75h-2.34l-0.12-2.52h-0.09c-0.779,1.619-2.52,2.85-4.89,2.85
		c-3.511,0-6.239-2.97-6.239-7.38c-0.031-4.83,2.999-7.77,6.51-7.77c2.249,0,3.719,1.05,4.379,2.189h0.061v-8.669H455.068z
		 M452.458,452.926c0-0.33-0.03-0.78-0.12-1.11c-0.39-1.649-1.83-3.029-3.81-3.029c-2.73,0-4.35,2.399-4.35,5.579
		c0,2.94,1.469,5.37,4.289,5.37c1.77,0,3.391-1.2,3.87-3.15c0.09-0.359,0.12-0.72,0.12-1.14V452.926z"/>
	<path d="M469.678,458.056c0,1.26,0.06,2.489,0.21,3.479h-2.37l-0.21-1.83h-0.09c-0.81,1.14-2.37,2.16-4.439,2.16
		c-2.94,0-4.44-2.07-4.44-4.17c0-3.51,3.12-5.43,8.729-5.399v-0.301c0-1.17-0.33-3.359-3.3-3.329c-1.38,0-2.79,0.39-3.81,1.08
		l-0.6-1.771c1.199-0.75,2.97-1.26,4.8-1.26c4.439,0,5.52,3.03,5.52,5.91V458.056z M467.128,454.125
		c-2.88-0.06-6.15,0.45-6.15,3.271c0,1.739,1.141,2.52,2.46,2.52c1.92,0,3.15-1.2,3.57-2.43c0.09-0.3,0.12-0.6,0.12-0.84V454.125z"
		/>
	<path d="M474.658,447.016l3.15,8.58c0.36,0.96,0.72,2.1,0.96,2.97h0.06c0.271-0.87,0.57-1.98,0.931-3.03l2.88-8.52h2.79
		l-3.96,10.35c-1.891,4.979-3.181,7.5-4.98,9.09c-1.319,1.109-2.579,1.56-3.239,1.68l-0.66-2.189c0.66-0.21,1.53-0.63,2.31-1.29
		c0.72-0.57,1.59-1.59,2.22-2.94c0.12-0.27,0.21-0.479,0.21-0.63c0-0.149-0.06-0.359-0.21-0.689l-5.34-13.38H474.658z"/>
</g>
<rect x="189.037" y="313.761" fill="none" width="284.21" height="50.877"/>
<g enable-background="new    ">
	<path d="M286.496,350.21v-14.201c0-4.7-1.35-6.1-4.2-6.1s-4.251,1.399-4.251,5.95v14.351h-6.9v-14.201c0-4.7-1.35-6.1-4.2-6.1
		s-4.25,1.399-4.25,5.95v14.351h-6.9v-26.252h6.9v1.75c1.2-1.25,3-2.3,5.75-2.3c3.35,0,5.3,0.95,7.25,3.351
		c1.801-1.851,4-3.351,8.351-3.351c6.7,0,9.351,4.601,9.351,12.001v14.801H286.496z"/>
	<path d="M303.543,321.809c-2.149,0-3.95-1.801-3.95-3.95c0-2.15,1.801-3.95,3.95-3.95c2.15,0,3.95,1.8,3.95,3.95
		C307.494,320.008,305.694,321.809,303.543,321.809z M300.093,350.21v-26.252h6.9v26.252H300.093z"/>
	<path d="M314.193,350.21v-33.002l6.9-3.45v36.452H314.193z"/>
	<path d="M328.292,350.21v-33.002l6.9-3.45v36.452H328.292z"/>
	<path d="M345.843,321.809c-2.15,0-3.95-1.801-3.95-3.95c0-2.15,1.8-3.95,3.95-3.95s3.95,1.8,3.95,3.95
		C349.793,320.008,347.994,321.809,345.843,321.809z M342.393,350.21v-26.252h6.9v26.252H342.393z"/>
	<path d="M366.744,350.76c-6.851,0-11.852-5.601-11.852-13.65c0-8.051,5.001-13.701,11.852-13.701c6.85,0,11.9,5.65,11.9,13.701
		C378.644,345.159,373.593,350.76,366.744,350.76z M366.744,330.059c-3.301,0-4.851,3-4.851,7.051c0,4.05,1.55,7,4.851,7
		c3.3,0,4.9-3.35,4.9-7C371.644,333.109,370.043,330.059,366.744,330.059z"/>
	<path d="M399.843,350.21v-14.201c0-4.7-1.6-6.1-4.449-6.1c-2.851,0-4.501,1.399-4.501,5.95v14.351h-6.9v-26.252h6.9v1.75
		c1.2-1.25,3.4-2.3,6.15-2.3c6.7,0,9.7,4.601,9.7,12.001v14.801H399.843z"/>
</g>
<g>
	<polygon fill="#19162B" stroke="#19162B" stroke-miterlimit="10" points="409.361,688.708 273.975,688.708 138.591,688.708 
		138.591,511.212 409.361,511.212 	"/>
	<line fill="none" stroke="#12BCC3" stroke-miterlimit="10" x1="273.975" y1="511.212" x2="273.975" y2="688.708"/>
	<rect x="162.258" y="523.044" fill="none" width="83.527" height="23.666"/>
	<g enable-background="new    ">
		<path fill="#12BCC3" d="M177.547,544.357l-8.157-12.835c-0.497-0.76-1.199-1.987-1.521-2.514c0,0.76,0.029,3.596,0.029,4.736
			v10.612h-2.982v-20.465h3.128l7.777,12.483c0.526,0.848,1.403,2.368,1.696,2.895c0-0.761-0.029-3.684-0.029-4.824v-10.554h2.982
			v20.465H177.547z"/>
	</g>
	<g enable-background="new    ">
		<path fill="#12BCC3" d="M185.791,544.357v-20.465h13.185v2.981H188.86v5.059h5.876v2.981h-5.876v6.461h10.554v2.982H185.791z"/>
	</g>
	<g enable-background="new    ">
		<path fill="#12BCC3" d="M220.698,544.357h-3.099l-3.187-13.215c-0.175-0.701-0.497-2.222-0.584-2.719
			c-0.088,0.497-0.41,2.018-0.585,2.719l-3.333,13.215h-3.041l-4.181-20.465h3.099l2.456,12.922c0.117,0.614,0.38,2.018,0.468,2.689
			c0.117-0.672,0.409-2.046,0.555-2.66l3.274-12.951h2.631l3.333,13.243c0.146,0.556,0.38,1.638,0.497,2.368
			c0.146-0.76,0.321-1.9,0.409-2.396l2.485-13.215h2.982L220.698,544.357z"/>
	</g>
	<g enable-background="new    ">
		<path fill="#12BCC3" d="M235.139,544.679c-2.982,0-5.555-1.286-7.279-3.304l2.192-2.134c1.374,1.491,3.392,2.427,5.321,2.427
			c2.865,0,4.239-0.994,4.239-2.982c0-1.578-1.199-2.368-4.619-3.392c-4.327-1.286-6.403-2.368-6.403-6.022
			c0-3.537,2.982-5.701,6.754-5.701c2.777,0,4.882,1.023,6.695,2.777l-2.164,2.193c-1.286-1.315-2.748-1.959-4.766-1.959
			c-2.397,0-3.42,1.17-3.42,2.544c0,1.433,0.936,2.134,4.473,3.187c4.035,1.228,6.549,2.514,6.549,6.169
			C242.711,542.165,240.372,544.679,235.139,544.679z"/>
	</g>
	<line fill="none" stroke="#12BCC3" stroke-miterlimit="10" x1="155.295" y1="561.33" x2="250.658" y2="561.33"/>
	<line fill="none" stroke="#12BCC3" stroke-miterlimit="10" x1="156.34" y1="577.337" x2="251.7" y2="577.337"/>
	<line fill="none" stroke="#12BCC3" stroke-miterlimit="10" x1="156.34" y1="594.046" x2="251.7" y2="594.046"/>
	<line fill="none" stroke="#12BCC3" stroke-miterlimit="10" x1="156.34" y1="612.142" x2="251.7" y2="612.142"/>
	<line fill="none" stroke="#12BCC3" stroke-miterlimit="10" x1="156.34" y1="629.544" x2="251.7" y2="629.544"/>
	<line fill="none" stroke="#12BCC3" stroke-miterlimit="10" x1="156.34" y1="646.249" x2="251.7" y2="646.249"/>
	<line fill="none" stroke="#12BCC3" stroke-miterlimit="10" x1="156.34" y1="662.953" x2="251.7" y2="662.953"/>
	<rect x="291.726" y="527.223" fill="none" stroke="#12BCC3" stroke-miterlimit="10" width="48.723" height="50.114"/>
	<line fill="none" stroke="#12BCC3" stroke-miterlimit="10" x1="355.065" y1="534.877" x2="392.653" y2="534.877"/>
	<line fill="none" stroke="#12BCC3" stroke-miterlimit="10" x1="355.065" y1="552.279" x2="392.653" y2="552.279"/>
	<line fill="none" stroke="#12BCC3" stroke-miterlimit="10" x1="355.065" y1="570.381" x2="392.653" y2="570.381"/>
	<line fill="none" stroke="#12BCC3" stroke-miterlimit="10" x1="295.553" y1="594.046" x2="390.914" y2="594.046"/>
	<line fill="none" stroke="#12BCC3" stroke-miterlimit="10" x1="295.553" y1="612.142" x2="390.914" y2="612.142"/>
	<line fill="none" stroke="#12BCC3" stroke-miterlimit="10" x1="295.553" y1="629.544" x2="390.914" y2="629.544"/>
	<line fill="none" stroke="#12BCC3" stroke-miterlimit="10" x1="295.553" y1="646.249" x2="390.914" y2="646.249"/>
	<line fill="none" stroke="#12BCC3" stroke-miterlimit="10" x1="295.553" y1="662.953" x2="390.914" y2="662.953"/>
</g>
</svg>
