<?xml version="1.0" encoding="utf-8"?>
<!-- Generator: Adobe Illustrator 15.1.0, SVG Export Plug-In . SVG Version: 6.00 Build 0)  -->
<!DOCTYPE svg PUBLIC "-//W3C//DTD SVG 1.1//EN" "http://www.w3.org/Graphics/SVG/1.1/DTD/svg11.dtd">
<svg version="1.1" id="Layer_1" xmlns="http://www.w3.org/2000/svg" xmlns:xlink="http://www.w3.org/1999/xlink" x="0px" y="0px"
	 width="536.378px" height="780.521px" viewBox="0 0 536.378 780.521" enable-background="new 0 0 536.378 780.521"
	 xml:space="preserve">
<rect x="130.958" y="187.35" fill-rule="evenodd" clip-rule="evenodd" fill="none" width="380.723" height="157.991"/>
<text transform="matrix(1 0 0 1 189.4209 333.1475)"><tspan x="0" y="0" font-family="'Interstate-Bold'" font-size="200">70</tspan><tspan x="263.797" y="0" font-family="'Interstate-Bold'" font-size="150"> </tspan></text>
<rect x="-19.884" y="397.2" fill="none" width="587.72" height="64.438"/>
<text transform="matrix(1 0 0 1 68.1348 418.5)"><tspan x="0" y="0" font-family="'MyriadPro-Regular'" font-size="30">amount an oak tree will transpire  </tspan><tspan x="140.817" y="36" font-family="'MyriadPro-Regular'" font-size="30">in one day</tspan></text>
<path fill="#19162B" d="M280.988,510.7c0,0,25.173-15.197,31.348,6.177c0,0,52.245-5.227,35.147,40.367
	c0,0,15.672,2.852,0.949,12.35c0,0,21.373,4.277,7.125,20.424c0,0,15.198,10.45,3.8,18.049c0,0,10.448,5.699,8.072,9.023
	c0,0-11.872,9.975-16.146,5.227c-4.275-4.752-2.377-2.377-2.377-2.377s-1.423,22.799-23.271,8.076c0,0-26.598,12.346-31.348-12.35
	l-16.147,8.074l-0.948,18.998l5.697,7.123l26.597,12.824l4.275,8.074l-8.549-5.227l-16.148-8.07l3.799,7.598l-8.549-9.025
	l-9.024-6.648l5.699,9.975l5.701,2.85l0.474,7.125l9.5,5.223l-0.476,7.125l-6.649-7.598l-6.649-4.75l-7.6-7.125l-1.898-6.176
	l-1.9,7.6l4.273,7.125l-0.948,5.699l6.173,4.275l-0.473,8.072l-3.324-4.273l-3.801-4.748l-3.801-5.227l-5.224,5.699l-3.324,8.074
	l-4.275,3.801l4.75-13.775l2.85-7.598l3.324-4.75l0.476-8.547l-1.425-3.326l-5.699,5.699l-9.025,4.748l-3.799,6.652l-6.649,2.373
	l0.474,8.074l-4.273-9.498l5.7-4.75l4.749-6.174l4.274-2.85l0.95-4.275l-10.925,5.225l-7.124,3.324l-6.649,3.799l-3.8-0.951
	l-10.924,5.227l4.749-9.025l9.975-0.949l8.074-2.373l2.376-3.326l7.599-1.9l5.699-3.324l3.324-5.699l1.899-7.123l1.426-11.875
	l-16.148-10.924l-12.349,0.475c0,0-41.795,34.195-65.068-5.699c0,0-8.549-23.272,11.399-23.746c0,0-9.973-40.371,24.697-43.223
	c0,0-8.549-24.221,7.6-21.846c0,0,5.699-17.1,26.122-7.125C235.394,513.076,256.292,481.73,280.988,510.7z M280.516,617.09
	l9.022-4.271l-9.022-1.426V617.09z M256.767,612.818h-8.549l9.498,5.221L256.767,612.818z M260.565,603.316l-7.599,2.85l6.65,1.426
	L260.565,603.316z"/>
</svg>
