<?xml version="1.0" encoding="utf-8"?>
<!-- Generator: Adobe Illustrator 15.1.0, SVG Export Plug-In . SVG Version: 6.00 Build 0)  -->
<!DOCTYPE svg PUBLIC "-//W3C//DTD SVG 1.1//EN" "http://www.w3.org/Graphics/SVG/1.1/DTD/svg11.dtd">
<svg version="1.1" id="Layer_1" xmlns="http://www.w3.org/2000/svg" xmlns:xlink="http://www.w3.org/1999/xlink" x="0px" y="0px"
	 width="536.378px" height="780.521px" viewBox="0 0 536.378 780.521" enable-background="new 0 0 536.378 780.521"
	 xml:space="preserve">
<rect x="130.958" y="187.35" fill="none" width="380.723" height="157.991"/>
<g enable-background="new    ">
	<path d="M256.82,333.147h-28.6c0-45.399,15.2-83.599,41.199-113.398h-71.199v-26.6h104.999v27
		C274.82,247.949,256.82,284.748,256.82,333.147z"/>
	<path d="M375.22,335.348c-38.2,0-58.6-29.6-58.6-72.199s20.6-72.199,58.799-72.199s58.799,29.2,58.799,71.8
		C434.218,305.348,413.419,335.348,375.22,335.348z M375.22,218.35c-21.4,0-30.2,19.399-30.2,44.399
		c0,24.999,9,45.199,30.399,45.199c21.4,0,30.4-19.8,30.4-44.8S396.619,218.35,375.22,218.35z"/>
</g>
<rect x="-19.884" y="397.2" fill="none" width="587.719" height="64.438"/>
<g enable-background="new    ">
	<path d="M80.524,415.021c0,1.26,0.06,2.489,0.21,3.479h-2.37l-0.21-1.83h-0.09c-0.81,1.14-2.37,2.16-4.44,2.16
		c-2.94,0-4.44-2.07-4.44-4.17c0-3.51,3.12-5.43,8.73-5.399v-0.301c0-1.17-0.33-3.359-3.3-3.329c-1.38,0-2.79,0.39-3.81,1.08
		l-0.6-1.771c1.2-0.75,2.97-1.26,4.8-1.26c4.44,0,5.52,3.03,5.52,5.91V415.021z M77.975,411.09c-2.88-0.06-6.15,0.45-6.15,3.271
		c0,1.739,1.14,2.52,2.46,2.52c1.92,0,3.15-1.2,3.57-2.43c0.09-0.3,0.12-0.6,0.12-0.84V411.09z"/>
	<path d="M84.785,407.91c0-1.529-0.06-2.729-0.12-3.93h2.31l0.12,2.37h0.09c0.81-1.38,2.16-2.67,4.59-2.67
		c1.95,0,3.45,1.2,4.08,2.91h0.06c0.45-0.84,1.05-1.44,1.65-1.891c0.87-0.659,1.8-1.02,3.18-1.02c1.95,0,4.8,1.26,4.8,6.3v8.52
		h-2.58v-8.189c0-2.82-1.05-4.47-3.15-4.47c-1.53,0-2.67,1.109-3.15,2.369c-0.12,0.391-0.21,0.841-0.21,1.32v8.97h-2.58v-8.699
		c0-2.311-1.02-3.96-3.03-3.96c-1.62,0-2.85,1.319-3.27,2.64c-0.15,0.36-0.21,0.84-0.21,1.29v8.729h-2.58V407.91z"/>
	<path d="M122.944,411.12c0,5.37-3.75,7.71-7.23,7.71c-3.9,0-6.959-2.88-6.959-7.47c0-4.83,3.209-7.68,7.2-7.68
		C120.124,403.681,122.944,406.711,122.944,411.12z M111.455,411.271c0,3.18,1.8,5.579,4.38,5.579c2.52,0,4.41-2.369,4.41-5.64
		c0-2.46-1.23-5.55-4.35-5.55C112.805,405.66,111.455,408.54,111.455,411.271z"/>
	<path d="M138.424,414.51c0,1.53,0.03,2.851,0.12,3.99h-2.34l-0.15-2.37h-0.06c-0.66,1.17-2.22,2.7-4.8,2.7
		c-2.28,0-5.01-1.29-5.01-6.359v-8.49h2.64v8.01c0,2.76,0.87,4.649,3.24,4.649c1.77,0,3-1.229,3.48-2.43
		c0.15-0.359,0.24-0.84,0.24-1.35v-8.88h2.64V414.51z"/>
	<path d="M142.804,407.91c0-1.529-0.03-2.729-0.12-3.93h2.34l0.15,2.4h0.06c0.72-1.351,2.4-2.7,4.8-2.7c2.01,0,5.13,1.2,5.13,6.18
		v8.64h-2.64v-8.37c0-2.34-0.87-4.289-3.36-4.289c-1.71,0-3.06,1.229-3.54,2.699c-0.12,0.33-0.18,0.78-0.18,1.23v8.729h-2.64V407.91
		z"/>
	<path d="M162.514,400.501v3.479h3.78v2.01h-3.78v7.83c0,1.8,0.51,2.819,1.98,2.819c0.72,0,1.14-0.06,1.53-0.18l0.12,2.01
		c-0.51,0.181-1.32,0.36-2.34,0.36c-1.23,0-2.22-0.42-2.85-1.11c-0.72-0.81-1.02-2.1-1.02-3.81v-7.92h-2.25v-2.01h2.25v-2.7
		L162.514,400.501z"/>
	<path d="M185.823,415.021c0,1.26,0.06,2.489,0.21,3.479h-2.37l-0.21-1.83h-0.09c-0.81,1.14-2.37,2.16-4.44,2.16
		c-2.94,0-4.44-2.07-4.44-4.17c0-3.51,3.12-5.43,8.73-5.399v-0.301c0-1.17-0.33-3.359-3.3-3.329c-1.38,0-2.79,0.39-3.81,1.08
		l-0.6-1.771c1.2-0.75,2.97-1.26,4.8-1.26c4.44,0,5.52,3.03,5.52,5.91V415.021z M183.273,411.09c-2.88-0.06-6.15,0.45-6.15,3.271
		c0,1.739,1.14,2.52,2.46,2.52c1.92,0,3.15-1.2,3.57-2.43c0.09-0.3,0.12-0.6,0.12-0.84V411.09z"/>
	<path d="M190.083,407.91c0-1.529-0.03-2.729-0.12-3.93h2.34l0.15,2.4h0.06c0.72-1.351,2.4-2.7,4.8-2.7c2.01,0,5.13,1.2,5.13,6.18
		v8.64h-2.64v-8.37c0-2.34-0.87-4.289-3.36-4.289c-1.71,0-3.06,1.229-3.54,2.699c-0.12,0.33-0.18,0.78-0.18,1.23v8.729h-2.64V407.91
		z"/>
	<path d="M226.232,411.12c0,5.37-3.75,7.71-7.23,7.71c-3.9,0-6.959-2.88-6.959-7.47c0-4.83,3.209-7.68,7.2-7.68
		C223.412,403.681,226.232,406.711,226.232,411.12z M214.743,411.271c0,3.18,1.8,5.579,4.38,5.579c2.52,0,4.41-2.369,4.41-5.64
		c0-2.46-1.23-5.55-4.35-5.55C216.093,405.66,214.743,408.54,214.743,411.271z"/>
	<path d="M239.763,415.021c0,1.26,0.06,2.489,0.21,3.479h-2.37l-0.21-1.83h-0.09c-0.81,1.14-2.37,2.16-4.44,2.16
		c-2.94,0-4.44-2.07-4.44-4.17c0-3.51,3.12-5.43,8.73-5.399v-0.301c0-1.17-0.33-3.359-3.3-3.329c-1.38,0-2.79,0.39-3.81,1.08
		l-0.6-1.771c1.2-0.75,2.97-1.26,4.8-1.26c4.44,0,5.52,3.03,5.52,5.91V415.021z M237.213,411.09c-2.88-0.06-6.15,0.45-6.15,3.271
		c0,1.739,1.14,2.52,2.46,2.52c1.92,0,3.15-1.2,3.57-2.43c0.09-0.3,0.12-0.6,0.12-0.84V411.09z"/>
	<path d="M246.632,410.641h0.06c0.36-0.511,0.84-1.141,1.26-1.65l4.29-5.01h3.15l-5.58,5.97l6.39,8.55h-3.24l-4.979-6.96l-1.35,1.5
		v5.46h-2.61v-21.299h2.61V410.641z"/>
	<path d="M267.632,400.501v3.479h3.78v2.01h-3.78v7.83c0,1.8,0.51,2.819,1.98,2.819c0.72,0,1.14-0.06,1.53-0.18l0.119,2.01
		c-0.51,0.181-1.319,0.36-2.34,0.36c-1.229,0-2.219-0.42-2.849-1.11c-0.72-0.81-1.02-2.1-1.02-3.81v-7.92h-2.25v-2.01h2.25v-2.7
		L267.632,400.501z"/>
	<path d="M274.382,408.511c0-1.71-0.031-3.181-0.121-4.53h2.311l0.12,2.88h0.09c0.66-1.95,2.28-3.18,4.05-3.18
		c0.27,0,0.48,0.03,0.721,0.06v2.49c-0.271-0.06-0.541-0.06-0.9-0.06c-1.86,0-3.18,1.38-3.54,3.359
		c-0.06,0.36-0.091,0.81-0.091,1.23v7.739h-2.639V408.511z"/>
	<path d="M285.362,411.721c0.06,3.569,2.31,5.039,4.979,5.039c1.891,0,3.061-0.33,4.021-0.75l0.479,1.891
		c-0.93,0.42-2.55,0.93-4.859,0.93c-4.47,0-7.14-2.97-7.14-7.35s2.579-7.8,6.81-7.8c4.77,0,6,4.14,6,6.81
		c0,0.54-0.03,0.93-0.09,1.23H285.362z M293.101,409.83c0.031-1.649-0.689-4.26-3.659-4.26c-2.7,0-3.84,2.43-4.05,4.26H293.101z"/>
	<path d="M300.392,411.721c0.06,3.569,2.31,5.039,4.979,5.039c1.89,0,3.06-0.33,4.021-0.75l0.479,1.891
		c-0.931,0.42-2.55,0.93-4.86,0.93c-4.469,0-7.139-2.97-7.139-7.35s2.579-7.8,6.809-7.8c4.77,0,6,4.14,6,6.81
		c0,0.54-0.029,0.93-0.09,1.23H300.392z M308.131,409.83c0.03-1.649-0.69-4.26-3.659-4.26c-2.701,0-3.84,2.43-4.051,4.26H308.131z"
		/>
	<path d="M321.361,403.98l1.95,7.38c0.39,1.62,0.78,3.12,1.05,4.62h0.09c0.33-1.471,0.811-3.03,1.29-4.59l2.37-7.41h2.22l2.25,7.26
		c0.54,1.74,0.96,3.27,1.29,4.74h0.09c0.24-1.471,0.63-3,1.109-4.71l2.07-7.29h2.609l-4.68,14.52h-2.399l-2.22-6.93
		c-0.51-1.62-0.93-3.06-1.29-4.77h-0.06c-0.36,1.739-0.811,3.239-1.32,4.8l-2.34,6.899h-2.4l-4.379-14.52H321.361z"/>
	<path d="M345.332,399.9c0,0.9-0.631,1.62-1.681,1.62c-0.96,0-1.59-0.72-1.59-1.62c0-0.899,0.66-1.649,1.649-1.649
		C344.671,398.251,345.332,398.971,345.332,399.9z M342.391,418.5v-14.52h2.64v14.52H342.391z"/>
	<path d="M349.411,397.201h2.64V418.5h-2.64V397.201z"/>
	<path d="M356.491,397.201h2.64V418.5h-2.64V397.201z"/>
	<path d="M373.11,400.501v3.479h3.78v2.01h-3.78v7.83c0,1.8,0.511,2.819,1.979,2.819c0.721,0,1.141-0.06,1.531-0.18l0.119,2.01
		c-0.51,0.181-1.32,0.36-2.34,0.36c-1.23,0-2.22-0.42-2.85-1.11c-0.721-0.81-1.02-2.1-1.02-3.81v-7.92h-2.25v-2.01h2.25v-2.7
		L373.11,400.501z"/>
	<path d="M379.86,408.511c0-1.71-0.03-3.181-0.12-4.53h2.311l0.119,2.88h0.09c0.66-1.95,2.28-3.18,4.051-3.18
		c0.27,0,0.479,0.03,0.719,0.06v2.49c-0.27-0.06-0.539-0.06-0.899-0.06c-1.86,0-3.18,1.38-3.54,3.359
		c-0.06,0.36-0.09,0.81-0.09,1.23v7.739h-2.64V408.511z"/>
	<path d="M399.72,415.021c0,1.26,0.06,2.489,0.209,3.479h-2.369l-0.211-1.83h-0.09c-0.81,1.14-2.369,2.16-4.439,2.16
		c-2.939,0-4.439-2.07-4.439-4.17c0-3.51,3.119-5.43,8.729-5.399v-0.301c0-1.17-0.33-3.359-3.3-3.329c-1.381,0-2.79,0.39-3.811,1.08
		l-0.6-1.771c1.2-0.75,2.971-1.26,4.8-1.26c4.44,0,5.521,3.03,5.521,5.91V415.021z M397.169,411.09
		c-2.879-0.06-6.149,0.45-6.149,3.271c0,1.739,1.14,2.52,2.46,2.52c1.92,0,3.15-1.2,3.57-2.43c0.09-0.3,0.119-0.6,0.119-0.84V411.09
		z"/>
	<path d="M403.98,407.91c0-1.529-0.029-2.729-0.12-3.93h2.34l0.149,2.4h0.061c0.721-1.351,2.4-2.7,4.8-2.7
		c2.011,0,5.13,1.2,5.13,6.18v8.64h-2.64v-8.37c0-2.34-0.87-4.289-3.36-4.289c-1.709,0-3.06,1.229-3.539,2.699
		c-0.121,0.33-0.181,0.78-0.181,1.23v8.729h-2.64V407.91z"/>
	<path d="M420.27,415.83c0.81,0.48,2.19,1.02,3.51,1.02c1.89,0,2.79-0.93,2.79-2.159c0-1.26-0.75-1.92-2.67-2.641
		c-2.641-0.96-3.87-2.369-3.87-4.109c0-2.34,1.92-4.26,5.01-4.26c1.47,0,2.761,0.39,3.54,0.899l-0.63,1.92
		c-0.57-0.359-1.62-0.869-2.97-0.869c-1.561,0-2.4,0.899-2.4,1.979c0,1.2,0.84,1.74,2.73,2.49c2.49,0.93,3.81,2.189,3.81,4.35
		c0,2.58-2.011,4.38-5.399,4.38c-1.59,0-3.061-0.42-4.08-1.021L420.27,415.83z"/>
	<path d="M432.509,408.721c0-1.86-0.06-3.36-0.119-4.74h2.34l0.15,2.49h0.059c1.051-1.771,2.791-2.79,5.16-2.79
		c3.54,0,6.18,2.97,6.18,7.35c0,5.22-3.209,7.8-6.629,7.8c-1.92,0-3.6-0.84-4.471-2.28h-0.06v7.89h-2.61V408.721z M435.12,412.59
		c0,0.391,0.03,0.75,0.12,1.08c0.48,1.83,2.07,3.09,3.959,3.09c2.791,0,4.41-2.279,4.41-5.609c0-2.88-1.529-5.37-4.319-5.37
		c-1.8,0-3.51,1.26-3.989,3.24c-0.091,0.33-0.181,0.72-0.181,1.05V412.59z"/>
	<path d="M452.519,399.9c0,0.9-0.63,1.62-1.68,1.62c-0.961,0-1.59-0.72-1.59-1.62c0-0.899,0.66-1.649,1.649-1.649
		C451.859,398.251,452.519,398.971,452.519,399.9z M449.58,418.5v-14.52h2.639v14.52H449.58z"/>
	<path d="M456.599,408.511c0-1.71-0.029-3.181-0.12-4.53h2.31l0.121,2.88H459c0.66-1.95,2.279-3.18,4.049-3.18
		c0.271,0,0.48,0.03,0.721,0.06v2.49c-0.27-0.06-0.54-0.06-0.9-0.06c-1.859,0-3.18,1.38-3.539,3.359
		c-0.061,0.36-0.091,0.81-0.091,1.23v7.739h-2.64V408.511z"/>
	<path d="M467.579,411.721c0.06,3.569,2.31,5.039,4.979,5.039c1.891,0,3.061-0.33,4.02-0.75l0.48,1.891
		c-0.93,0.42-2.549,0.93-4.859,0.93c-4.47,0-7.14-2.97-7.14-7.35s2.579-7.8,6.81-7.8c4.77,0,6,4.14,6,6.81
		c0,0.54-0.031,0.93-0.09,1.23H467.579z M475.318,409.83c0.031-1.649-0.689-4.26-3.66-4.26c-2.699,0-3.839,2.43-4.049,4.26H475.318z
		"/>
</g>
<g enable-background="new    ">
	<path d="M214.082,435.9c0,0.9-0.63,1.62-1.68,1.62c-0.96,0-1.59-0.72-1.59-1.62c0-0.899,0.66-1.649,1.65-1.649
		C213.421,434.251,214.082,434.971,214.082,435.9z M211.142,454.5v-14.52h2.64v14.52H211.142z"/>
	<path d="M218.162,443.91c0-1.529-0.03-2.729-0.12-3.93h2.34l0.15,2.4h0.06c0.72-1.351,2.4-2.7,4.8-2.7c2.01,0,5.13,1.2,5.13,6.18
		v8.64h-2.64v-8.37c0-2.34-0.87-4.289-3.36-4.289c-1.71,0-3.06,1.229-3.54,2.699c-0.12,0.33-0.18,0.78-0.18,1.23v8.729h-2.64V443.91
		z"/>
	<path d="M254.311,447.12c0,5.37-3.75,7.71-7.23,7.71c-3.9,0-6.959-2.88-6.959-7.47c0-4.83,3.209-7.68,7.2-7.68
		C251.49,439.681,254.311,442.711,254.311,447.12z M242.821,447.271c0,3.18,1.8,5.579,4.38,5.579c2.52,0,4.41-2.369,4.41-5.64
		c0-2.46-1.23-5.55-4.35-5.55C244.171,441.66,242.821,444.54,242.821,447.271z"/>
	<path d="M257.641,443.91c0-1.529-0.03-2.729-0.12-3.93h2.34l0.15,2.4h0.06c0.72-1.351,2.4-2.7,4.8-2.7c2.01,0,5.129,1.2,5.129,6.18
		v8.64h-2.639v-8.37c0-2.34-0.87-4.289-3.36-4.289c-1.71,0-3.06,1.229-3.54,2.699c-0.12,0.33-0.18,0.78-0.18,1.23v8.729h-2.64
		V443.91z"/>
	<path d="M275.76,447.721c0.06,3.569,2.31,5.039,4.979,5.039c1.891,0,3.061-0.33,4.021-0.75l0.479,1.891
		c-0.93,0.42-2.55,0.93-4.859,0.93c-4.47,0-7.14-2.97-7.14-7.35s2.579-7.8,6.81-7.8c4.77,0,6,4.14,6,6.81
		c0,0.54-0.03,0.93-0.09,1.23H275.76z M283.5,445.83c0.031-1.649-0.689-4.26-3.659-4.26c-2.7,0-3.84,2.43-4.05,4.26H283.5z"/>
	<path d="M308.189,433.201v17.549c0,1.29,0.061,2.76,0.121,3.75h-2.34l-0.121-2.52h-0.09c-0.779,1.619-2.52,2.85-4.889,2.85
		c-3.511,0-6.24-2.97-6.24-7.38c-0.03-4.83,3-7.77,6.51-7.77c2.25,0,3.72,1.05,4.379,2.189h0.061v-8.669H308.189z M305.58,445.891
		c0-0.33-0.029-0.78-0.119-1.11c-0.391-1.649-1.83-3.029-3.811-3.029c-2.73,0-4.35,2.399-4.35,5.579c0,2.94,1.47,5.37,4.289,5.37
		c1.771,0,3.391-1.2,3.871-3.15c0.09-0.359,0.119-0.72,0.119-1.14V445.891z"/>
	<path d="M322.8,451.021c0,1.26,0.06,2.489,0.209,3.479h-2.369l-0.211-1.83h-0.09c-0.81,1.14-2.369,2.16-4.439,2.16
		c-2.939,0-4.439-2.07-4.439-4.17c0-3.51,3.119-5.43,8.729-5.399v-0.301c0-1.17-0.33-3.359-3.3-3.329c-1.381,0-2.79,0.39-3.811,1.08
		l-0.6-1.771c1.2-0.75,2.97-1.26,4.8-1.26c4.44,0,5.521,3.03,5.521,5.91V451.021z M320.25,447.09c-2.88-0.06-6.149,0.45-6.149,3.271
		c0,1.739,1.14,2.52,2.46,2.52c1.92,0,3.15-1.2,3.57-2.43c0.09-0.3,0.119-0.6,0.119-0.84V447.09z"/>
	<path d="M327.78,439.98l3.149,8.58c0.36,0.96,0.721,2.1,0.961,2.97h0.06c0.271-0.87,0.569-1.98,0.93-3.03l2.88-8.52h2.79
		l-3.96,10.35c-1.89,4.979-3.18,7.5-4.979,9.09c-1.32,1.109-2.58,1.56-3.24,1.68l-0.659-2.189c0.659-0.21,1.529-0.63,2.309-1.29
		c0.721-0.57,1.591-1.59,2.221-2.94c0.12-0.27,0.21-0.479,0.21-0.63c0-0.149-0.06-0.359-0.21-0.689l-5.34-13.38H327.78z"/>
</g>
<path fill="#19162B" d="M280.988,510.7c0,0,25.174-15.197,31.348,6.177c0,0,52.246-5.227,35.147,40.367
	c0,0,15.672,2.852,0.949,12.35c0,0,21.373,4.277,7.125,20.424c0,0,15.198,10.45,3.8,18.05c0,0,10.448,5.698,8.072,9.022
	c0,0-11.872,9.976-16.146,5.228c-4.275-4.752-2.377-2.377-2.377-2.377s-1.423,22.799-23.271,8.075c0,0-26.598,12.347-31.348-12.35
	l-16.146,8.074l-0.948,18.998l5.697,7.123l26.597,12.823l4.275,8.074l-8.549-5.227l-16.148-8.07l3.799,7.598l-8.549-9.024
	l-9.023-6.648l5.698,9.976l5.701,2.85l0.474,7.125l9.5,5.223l-0.476,7.125l-6.649-7.598l-6.648-4.75l-7.6-7.125l-1.898-6.176
	l-1.9,7.6l4.273,7.125l-0.948,5.699l6.173,4.274l-0.473,8.072l-3.324-4.272l-3.801-4.748l-3.801-5.228l-5.224,5.699l-3.324,8.074
	l-4.275,3.801l4.75-13.775l2.85-7.598l3.324-4.75l0.476-8.547l-1.425-3.326l-5.699,5.699l-9.025,4.748l-3.799,6.651l-6.649,2.373
	l0.474,8.074l-4.273-9.498l5.7-4.75l4.749-6.174l4.274-2.85l0.95-4.275l-10.925,5.225l-7.124,3.324l-6.649,3.799l-3.8-0.951
	l-10.924,5.228l4.749-9.025l9.975-0.949l8.074-2.372l2.376-3.326l7.599-1.9l5.699-3.324l3.324-5.698l1.899-7.123l1.426-11.875
	l-16.148-10.924l-12.349,0.475c0,0-41.795,34.195-65.068-5.699c0,0-8.549-23.271,11.399-23.746c0,0-9.973-40.371,24.697-43.223
	c0,0-8.549-24.221,7.6-21.846c0,0,5.699-17.101,26.122-7.125C235.394,513.076,256.292,481.73,280.988,510.7z M280.516,617.09
	l9.022-4.271l-9.022-1.427V617.09z M256.767,612.818h-8.549l9.498,5.221L256.767,612.818z M260.565,603.316l-7.599,2.85l6.65,1.426
	L260.565,603.316z"/>
</svg>
