<?xml version="1.0" encoding="utf-8"?>
<!-- Generator: Adobe Illustrator 15.1.0, SVG Export Plug-In . SVG Version: 6.00 Build 0)  -->
<!DOCTYPE svg PUBLIC "-//W3C//DTD SVG 1.1//EN" "http://www.w3.org/Graphics/SVG/1.1/DTD/svg11.dtd">
<svg version="1.1" id="Layer_1" xmlns="http://www.w3.org/2000/svg" xmlns:xlink="http://www.w3.org/1999/xlink" x="0px" y="0px"
	 width="536.378px" height="780.521px" viewBox="0 0 536.378 780.521" enable-background="new 0 0 536.378 780.521"
	 xml:space="preserve">
<rect x="32.689" y="381.761" fill="none" width="468" height="82"/>
<g enable-background="new    ">
	<path fill="#19162B" d="M70.455,402.173v-8.316c0-2.968-1.12-4.031-3.024-4.031c-1.932,0-3.024,1.372-3.024,3.752v8.596h-2.884
		v-14.7h2.884v1.4c0.728-1.064,2.184-1.708,3.696-1.708c3.416,0,5.236,2.24,5.236,6.58v8.428H70.455z"/>
	<path fill="#19162B" d="M86.302,402.173v-1.4c-0.728,1.064-2.184,1.708-3.696,1.708c-3.416,0-5.236-2.239-5.236-6.579v-8.429h2.884
		v8.316c0,2.968,1.12,4.032,3.024,4.032c1.932,0,3.024-1.372,3.024-3.752v-8.597h2.884v14.7H86.302z"/>
	<path fill="#19162B" d="M110.522,402.173v-8.316c0-2.968-0.924-4.031-2.828-4.031c-1.932,0-2.828,1.372-2.828,3.752v8.596h-2.884
		v-8.316c0-2.968-0.924-4.031-2.828-4.031c-1.932,0-2.828,1.372-2.828,3.752v8.596h-2.884v-14.7h2.884v1.4
		c0.728-1.064,1.988-1.708,3.5-1.708c1.988,0,3.248,0.756,4.032,2.156c1.064-1.316,2.212-2.156,4.508-2.156
		c3.416,0,5.04,2.24,5.04,6.58v8.428H110.522z"/>
	<path fill="#19162B" d="M124.102,402.48c-1.484,0-2.884-0.783-3.696-1.68v1.372h-2.856v-18.928l2.856-1.484v7.112
		c1.064-0.98,2.296-1.708,3.836-1.708c3.164,0,5.656,2.296,5.656,7.896C129.898,400.101,127.154,402.48,124.102,402.48z
		 M123.71,389.825c-1.372,0-2.576,0.924-3.332,1.876v6.188c0.644,0.868,1.988,1.933,3.444,1.933c2.072,0,3.192-1.568,3.192-4.677
		C127.014,391.449,125.838,389.825,123.71,389.825z"/>
	<path fill="#19162B" d="M145.354,395.845h-9.716c0.308,2.828,1.904,4.032,3.696,4.032c1.232,0,2.212-0.448,3.192-1.176l1.708,1.848
		c-1.288,1.232-2.828,1.932-5.068,1.932c-3.444,0-6.356-2.771-6.356-7.644c0-4.984,2.632-7.672,6.44-7.672
		c4.172,0,6.188,3.388,6.188,7.364C145.438,395.061,145.382,395.537,145.354,395.845z M139.054,389.769
		c-1.932,0-3.108,1.345-3.36,3.696h6.832C142.386,391.449,141.434,389.769,139.054,389.769z"/>
	<path fill="#19162B" d="M157.001,390.524c-0.616-0.336-1.26-0.531-2.212-0.531c-1.82,0-2.884,1.288-2.884,3.779v8.4h-2.884v-14.7
		h2.884v1.4c0.672-0.98,1.904-1.708,3.36-1.708c1.176,0,1.904,0.224,2.492,0.616L157.001,390.524z"/>
	<path fill="#19162B" d="M174.053,402.48c-3.696,0-6.468-3.052-6.468-7.644c0-4.816,2.856-7.672,6.552-7.672
		c3.752,0,6.552,2.996,6.552,7.588C180.688,399.625,177.833,402.48,174.053,402.48z M174.025,389.909
		c-2.184,0-3.528,1.932-3.528,4.844c0,3.22,1.484,4.984,3.668,4.984s3.612-2.213,3.612-4.9
		C177.777,391.841,176.349,389.909,174.025,389.909z"/>
	<path fill="#19162B" d="M189.033,384.365c-0.952,0-1.344,0.363-1.344,1.428v1.68h2.716v2.688h-2.716v12.012h-2.884v-12.012h-1.904
		v-2.688h1.904v-1.932c0-2.688,1.652-3.696,3.724-3.696c0.756,0,1.568,0.112,2.184,0.28v2.52
		C190.041,384.449,189.537,384.365,189.033,384.365z"/>
	<path fill="#19162B" d="M206.281,407.577l-0.98-2.185c4.144-0.195,5.04-1.315,5.04-4.368v-0.252
		c-1.064,0.98-2.268,1.708-3.808,1.708c-3.136,0-5.656-2.296-5.656-7.896c0-5.04,2.772-7.42,5.796-7.42
		c1.484,0,2.884,0.784,3.668,1.68v-1.372h2.884v13.3C213.225,405.253,211.601,407.409,206.281,407.577z M210.396,391.757
		c-0.644-0.868-1.988-1.932-3.444-1.932c-2.072,0-3.192,1.567-3.192,4.676c0,3.696,1.176,5.32,3.304,5.32
		c1.372,0,2.576-0.925,3.332-1.876V391.757z"/>
	<path fill="#19162B" d="M225.908,402.173v-1.456c-1.008,1.008-2.436,1.764-4.032,1.764c-2.38,0-5.096-1.344-5.096-4.956
		c0-3.275,2.52-4.76,5.852-4.76c1.372,0,2.464,0.196,3.276,0.561v-1.093c0-1.596-0.98-2.491-2.772-2.491
		c-1.512,0-2.688,0.279-3.836,0.924l-1.12-2.185c1.4-0.867,2.968-1.315,5.04-1.315c3.276,0,5.516,1.596,5.516,4.928v10.08H225.908z
		 M225.908,395.901c-0.784-0.393-1.792-0.645-3.36-0.645c-1.848,0-3.024,0.84-3.024,2.184c0,1.456,0.924,2.437,2.828,2.437
		c1.54,0,2.884-0.952,3.556-1.876V395.901z"/>
	<path fill="#19162B" d="M233.02,402.173v-18.9l2.884-1.512v20.412H233.02z"/>
	<path fill="#19162B" d="M240.44,402.173v-18.9l2.884-1.512v20.412H240.44z"/>
	<path fill="#19162B" d="M253.488,402.48c-3.696,0-6.468-3.052-6.468-7.644c0-4.816,2.856-7.672,6.552-7.672
		c3.752,0,6.552,2.996,6.552,7.588C260.124,399.625,257.268,402.48,253.488,402.48z M253.46,389.909
		c-2.184,0-3.528,1.932-3.528,4.844c0,3.22,1.484,4.984,3.668,4.984c2.184,0,3.612-2.213,3.612-4.9
		C257.212,391.841,255.784,389.909,253.46,389.909z"/>
	<path fill="#19162B" d="M272.612,402.173v-8.316c0-2.968-1.12-4.031-3.024-4.031c-1.932,0-3.023,1.372-3.023,3.752v8.596h-2.884
		v-14.7h2.884v1.4c0.728-1.064,2.184-1.708,3.695-1.708c3.416,0,5.236,2.24,5.236,6.58v8.428H272.612z"/>
	<path fill="#19162B" d="M284.4,402.48c-1.988,0-4.145-0.783-5.629-1.876l1.316-2.184c1.371,0.952,2.912,1.456,4.283,1.456
		c1.82,0,2.688-0.588,2.688-1.624c0-1.12-1.288-1.652-3.416-2.464c-3.164-1.232-4.312-2.296-4.312-4.62
		c0-2.632,2.072-4.004,5.012-4.004c1.848,0,3.668,0.672,4.984,1.624l-1.26,2.212c-1.205-0.84-2.408-1.26-3.809-1.26
		s-2.016,0.56-2.016,1.344c0,0.728,0.504,1.26,2.715,2.128c3.277,1.26,4.957,2.156,4.957,4.928
		C289.916,401.389,287.283,402.48,284.4,402.48z"/>
	<path fill="#19162B" d="M302.767,385.569c-1.036,0-1.876-0.841-1.876-1.849c0-1.036,0.84-1.876,1.876-1.876
		c1.008,0,1.848,0.84,1.848,1.876C304.615,384.729,303.775,385.569,302.767,385.569z M301.311,402.173v-14.7h2.884v14.7H301.311z"/>
	<path fill="#19162B" d="M317.523,402.173v-8.316c0-2.968-1.12-4.031-3.023-4.031c-1.933,0-3.024,1.372-3.024,3.752v8.596h-2.884
		v-14.7h2.884v1.4c0.728-1.064,2.184-1.708,3.696-1.708c3.416,0,5.235,2.24,5.235,6.58v8.428H317.523z"/>
	<path fill="#19162B" d="M340.539,402.173v-1.456c-1.008,1.008-2.436,1.764-4.032,1.764c-2.38,0-5.096-1.344-5.096-4.956
		c0-3.275,2.52-4.76,5.852-4.76c1.372,0,2.464,0.196,3.276,0.561v-1.093c0-1.596-0.98-2.491-2.771-2.491
		c-1.513,0-2.688,0.279-3.837,0.924l-1.12-2.185c1.4-0.867,2.969-1.315,5.041-1.315c3.275,0,5.516,1.596,5.516,4.928v10.08H340.539z
		 M340.539,395.901c-0.784-0.393-1.792-0.645-3.36-0.645c-1.848,0-3.024,0.84-3.024,2.184c0,1.456,0.925,2.437,2.828,2.437
		c1.541,0,2.885-0.952,3.557-1.876V395.901z"/>
	<path fill="#19162B" d="M356.442,402.173v-8.316c0-2.968-1.12-4.031-3.024-4.031c-1.932,0-3.023,1.372-3.023,3.752v8.596h-2.885
		v-14.7h2.885v1.4c0.728-1.064,2.184-1.708,3.695-1.708c3.416,0,5.236,2.24,5.236,6.58v8.428H356.442z"/>
	<path fill="#19162B" d="M379.457,402.173v-1.456c-1.008,1.008-2.436,1.764-4.031,1.764c-2.381,0-5.096-1.344-5.096-4.956
		c0-3.275,2.52-4.76,5.852-4.76c1.373,0,2.465,0.196,3.275,0.561v-1.093c0-1.596-0.979-2.491-2.771-2.491
		c-1.512,0-2.688,0.279-3.836,0.924l-1.119-2.185c1.398-0.867,2.967-1.315,5.039-1.315c3.275,0,5.516,1.596,5.516,4.928v10.08
		H379.457z M379.457,395.901c-0.783-0.393-1.791-0.645-3.359-0.645c-1.848,0-3.023,0.84-3.023,2.184
		c0,1.456,0.924,2.437,2.828,2.437c1.539,0,2.883-0.952,3.555-1.876V395.901z"/>
	<path fill="#19162B" d="M392.953,402.173h-2.885l-5.264-14.7h3.025l2.631,7.98c0.477,1.428,0.896,2.8,1.092,3.611
		c0.168-0.812,0.561-2.184,1.008-3.611l2.521-7.98h3.051L392.953,402.173z"/>
	<path fill="#19162B" d="M412.525,395.845h-9.717c0.309,2.828,1.904,4.032,3.697,4.032c1.23,0,2.211-0.448,3.191-1.176l1.707,1.848
		c-1.287,1.232-2.826,1.932-5.066,1.932c-3.445,0-6.357-2.771-6.357-7.644c0-4.984,2.633-7.672,6.441-7.672
		c4.172,0,6.188,3.388,6.188,7.364C412.609,395.061,412.552,395.537,412.525,395.845z M406.224,389.769
		c-1.932,0-3.107,1.345-3.359,3.696h6.832C409.556,391.449,408.605,389.769,406.224,389.769z"/>
	<path fill="#19162B" d="M424.173,390.524c-0.617-0.336-1.262-0.531-2.213-0.531c-1.82,0-2.885,1.288-2.885,3.779v8.4h-2.883v-14.7
		h2.883v1.4c0.672-0.98,1.904-1.708,3.361-1.708c1.176,0,1.904,0.224,2.492,0.616L424.173,390.524z"/>
	<path fill="#19162B" d="M435.345,402.173v-1.456c-1.008,1.008-2.436,1.764-4.031,1.764c-2.381,0-5.098-1.344-5.098-4.956
		c0-3.275,2.521-4.76,5.854-4.76c1.371,0,2.463,0.196,3.275,0.561v-1.093c0-1.596-0.98-2.491-2.771-2.491
		c-1.514,0-2.689,0.279-3.836,0.924l-1.121-2.185c1.4-0.867,2.969-1.315,5.041-1.315c3.275,0,5.516,1.596,5.516,4.928v10.08H435.345
		z M435.345,395.901c-0.785-0.393-1.793-0.645-3.359-0.645c-1.85,0-3.025,0.84-3.025,2.184c0,1.456,0.924,2.437,2.828,2.437
		c1.541,0,2.885-0.952,3.557-1.876V395.901z"/>
	<path fill="#19162B" d="M447.076,407.577l-0.979-2.185c4.143-0.195,5.039-1.315,5.039-4.368v-0.252
		c-1.064,0.98-2.268,1.708-3.809,1.708c-3.135,0-5.654-2.296-5.654-7.896c0-5.04,2.771-7.42,5.795-7.42
		c1.484,0,2.885,0.784,3.668,1.68v-1.372h2.885v13.3C454.021,405.253,452.396,407.409,447.076,407.577z M451.193,391.757
		c-0.645-0.868-1.988-1.932-3.445-1.932c-2.07,0-3.191,1.567-3.191,4.676c0,3.696,1.176,5.32,3.305,5.32
		c1.371,0,2.576-0.925,3.332-1.876V391.757z"/>
	<path fill="#19162B" d="M470.121,395.845h-9.717c0.309,2.828,1.904,4.032,3.697,4.032c1.23,0,2.211-0.448,3.191-1.176l1.707,1.848
		c-1.287,1.232-2.826,1.932-5.066,1.932c-3.445,0-6.357-2.771-6.357-7.644c0-4.984,2.633-7.672,6.441-7.672
		c4.172,0,6.188,3.388,6.188,7.364C470.205,395.061,470.148,395.537,470.121,395.845z M463.82,389.769
		c-1.932,0-3.107,1.345-3.359,3.696h6.832C467.152,391.449,466.201,389.769,463.82,389.769z"/>
</g>
<g enable-background="new    ">
	<path fill="#19162B" d="M183.95,435.772v-15.008h-3.472v-2.044c2.016-0.141,3.668-0.812,4.032-2.548h2.38v19.6H183.95z"/>
	<path fill="#19162B" d="M197.866,436.08c-2.492,0-4.732-0.588-6.832-1.932l1.428-2.436c1.652,0.924,3.724,1.512,5.488,1.512
		c3.052,0,4.648-1.484,4.648-3.977c0-2.323-1.54-3.5-3.976-3.5c-1.652,0-2.772,0.477-3.78,1.232l-3.136-1.232l0.672-9.575h12.04v2.8
		h-9.408l-0.392,4.956c1.092-0.616,2.464-1.008,4.228-1.008c4.48,0,6.748,2.632,6.748,6.188
		C205.594,433.896,202.402,436.08,197.866,436.08z"/>
	<path fill="#19162B" d="M216.569,436.08c-5.068,0-7.7-4.144-7.7-10.079c0-5.937,2.688-10.137,7.756-10.137s7.7,4.145,7.7,10.08
		C224.326,431.881,221.638,436.08,216.569,436.08z M216.569,418.721c-3.416,0-4.732,3.107-4.732,7.224s1.372,7.28,4.788,7.28
		c3.444,0,4.732-3.108,4.732-7.224C221.357,421.885,220.014,418.721,216.569,418.721z"/>
	<path fill="#19162B" d="M235.693,435.772v-18.9l2.884-1.512v20.412H235.693z"/>
	<path fill="#19162B" d="M249.525,436.08c-1.484,0-2.884-0.783-3.696-1.68v1.372h-2.856v-18.928l2.856-1.484v7.112
		c1.064-0.98,2.296-1.708,3.836-1.708c3.164,0,5.656,2.296,5.656,7.896C255.321,433.7,252.577,436.08,249.525,436.08z
		 M249.133,423.425c-1.372,0-2.576,0.924-3.332,1.876v6.188c0.644,0.868,1.988,1.933,3.444,1.933c2.072,0,3.192-1.568,3.192-4.677
		C252.437,425.049,251.261,423.425,249.133,423.425z"/>
	<path fill="#19162B" d="M273.044,436.08c-1.484,0-2.884-0.783-3.695-1.68v5.292l-2.856,1.484v-20.104h2.856v1.4
		c1.063-0.98,2.295-1.708,3.836-1.708c3.164,0,5.656,2.296,5.656,7.896C278.841,433.7,276.097,436.08,273.044,436.08z
		 M272.653,423.425c-1.372,0-2.576,0.924-3.332,1.876v6.188c0.644,0.868,1.987,1.933,3.444,1.933c2.072,0,3.191-1.568,3.191-4.677
		C275.957,425.049,274.781,423.425,272.653,423.425z"/>
	<path fill="#19162B" d="M294.296,429.444h-9.717c0.309,2.828,1.904,4.032,3.697,4.032c1.231,0,2.211-0.448,3.191-1.176l1.708,1.848
		c-1.288,1.232-2.828,1.932-5.067,1.932c-3.445,0-6.356-2.771-6.356-7.644c0-4.984,2.632-7.672,6.44-7.672
		c4.172,0,6.188,3.388,6.188,7.364C294.38,428.66,294.324,429.137,294.296,429.444z M287.996,423.368
		c-1.932,0-3.107,1.345-3.359,3.696h6.832C291.328,425.049,290.376,423.368,287.996,423.368z"/>
	<path fill="#19162B" d="M305.944,424.124c-0.616-0.336-1.26-0.531-2.212-0.531c-1.82,0-2.884,1.288-2.884,3.779v8.4h-2.884v-14.7
		h2.884v1.4c0.672-0.98,1.903-1.708,3.36-1.708c1.176,0,1.903,0.224,2.491,0.616L305.944,424.124z"/>
	<path fill="#19162B" d="M313.869,436.08c-1.988,0-4.145-0.783-5.629-1.876l1.316-2.184c1.372,0.952,2.912,1.456,4.284,1.456
		c1.82,0,2.688-0.588,2.688-1.624c0-1.12-1.289-1.652-3.416-2.464c-3.164-1.232-4.312-2.296-4.312-4.62
		c0-2.632,2.072-4.004,5.012-4.004c1.849,0,3.668,0.672,4.984,1.624l-1.26,2.212c-1.204-0.84-2.408-1.26-3.809-1.26
		c-1.399,0-2.016,0.56-2.016,1.344c0,0.728,0.504,1.26,2.716,2.128c3.276,1.26,4.956,2.156,4.956,4.928
		C319.384,434.988,316.752,436.08,313.869,436.08z"/>
	<path fill="#19162B" d="M328.568,436.08c-3.695,0-6.467-3.052-6.467-7.644c0-4.816,2.855-7.672,6.551-7.672
		c3.752,0,6.553,2.996,6.553,7.588C335.205,433.225,332.348,436.08,328.568,436.08z M328.541,423.509
		c-2.184,0-3.528,1.932-3.528,4.844c0,3.22,1.483,4.984,3.668,4.984s3.612-2.213,3.612-4.9
		C332.292,425.44,330.865,423.509,328.541,423.509z"/>
	<path fill="#19162B" d="M347.692,435.772v-8.316c0-2.968-1.12-4.031-3.024-4.031c-1.932,0-3.023,1.372-3.023,3.752v8.596h-2.885
		v-14.7h2.885v1.4c0.728-1.064,2.184-1.708,3.695-1.708c3.416,0,5.236,2.24,5.236,6.58v8.428H347.692z"/>
</g>
<g enable-background="new    ">
	<path fill="#19162B" d="M266.12,333.147V231.949h-24v-20.6c15.6-0.8,25.8-6.601,28.6-18.2h23.199v139.998H266.12z"/>
	<path fill="#19162B" d="M343.119,333.147V231.949h-24v-20.6c15.6-0.8,25.801-6.601,28.6-18.2h23.2v139.998H343.119z"/>
</g>
<g>
	<path fill="#19162B" d="M263.396,591.178v84.936c-0.79,8.3-10.267,8.3-10.267,8.3c-8.296-1.189-9.882-7.907-9.882-7.907V531.93
		c-1.977-5.14-4.34,0-4.34,0v51.746c-0.796,6.322-7.911,6.322-7.911,6.322c-7.107-1.189-7.89-6.322-7.89-6.322v-61.229
		c4.347-21.729,21.727-20.938,21.727-20.938h20.54h0.796h20.526c0,0,17.393-0.789,21.732,20.938v61.229c0,0-0.795,5.133-7.908,6.322
		c0,0-7.109,0-7.891-6.322V531.93c0,0-2.375-5.14-4.354,0v144.572c0,0-1.58,6.718-9.868,7.907c0,0-9.49,0-10.26-8.3v-84.936
		C268.147,591.178,265.967,586.241,263.396,591.178z"/>
	<path fill="#19162B" d="M282.753,478.206c0,8.941-7.252,16.199-16.199,16.199c-8.948,0-16.199-7.258-16.199-16.199
		s7.251-16.192,16.199-16.192C275.501,462.014,282.753,469.265,282.753,478.206z"/>
</g>
</svg>
