<?xml version="1.0" encoding="utf-8"?>
<!-- Generator: Adobe Illustrator 15.1.0, SVG Export Plug-In . SVG Version: 6.00 Build 0)  -->
<!DOCTYPE svg PUBLIC "-//W3C//DTD SVG 1.1//EN" "http://www.w3.org/Graphics/SVG/1.1/DTD/svg11.dtd">
<svg version="1.1" id="Layer_1" xmlns="http://www.w3.org/2000/svg" xmlns:xlink="http://www.w3.org/1999/xlink" x="0px" y="0px"
	 width="536.378px" height="780.521px" viewBox="0 0 536.378 780.521" enable-background="new 0 0 536.378 780.521"
	 xml:space="preserve">
<rect x="32.689" y="381.761" fill="none" width="468" height="82"/>
<g enable-background="new    ">
	<path fill="#19162B" d="M56.257,403.631v-8.909c0-3.181-1.2-4.32-3.24-4.32c-2.07,0-3.24,1.47-3.24,4.02v9.21h-3.09v-15.749h3.09
		v1.5c0.78-1.141,2.34-1.83,3.96-1.83c3.66,0,5.61,2.399,5.61,7.05v9.029H56.257z"/>
	<path fill="#19162B" d="M73.236,403.631v-1.5c-0.78,1.14-2.34,1.83-3.96,1.83c-3.66,0-5.609-2.4-5.609-7.05v-9.029h3.09v8.909
		c0,3.18,1.2,4.32,3.24,4.32c2.07,0,3.24-1.471,3.24-4.021v-9.209h3.09v15.749H73.236z"/>
	<path fill="#19162B" d="M99.186,403.631v-8.909c0-3.181-0.99-4.32-3.03-4.32c-2.07,0-3.03,1.47-3.03,4.02v9.21h-3.09v-8.909
		c0-3.181-0.99-4.32-3.03-4.32c-2.07,0-3.03,1.47-3.03,4.02v9.21h-3.09v-15.749h3.09v1.5c0.78-1.141,2.13-1.83,3.75-1.83
		c2.13,0,3.48,0.81,4.32,2.31c1.14-1.41,2.37-2.31,4.83-2.31c3.66,0,5.4,2.399,5.4,7.05v9.029H99.186z"/>
	<path fill="#19162B" d="M113.736,403.961c-1.59,0-3.09-0.84-3.96-1.8v1.47h-3.06v-20.279l3.06-1.59v7.62
		c1.14-1.051,2.46-1.83,4.11-1.83c3.39,0,6.06,2.46,6.06,8.459C119.946,401.411,117.006,403.961,113.736,403.961z M113.316,390.401
		c-1.47,0-2.76,0.99-3.57,2.01v6.63c0.69,0.93,2.13,2.07,3.69,2.07c2.22,0,3.42-1.681,3.42-5.01
		C116.856,392.142,115.596,390.401,113.316,390.401z"/>
	<path fill="#19162B" d="M136.505,396.852h-10.41c0.33,3.029,2.04,4.319,3.96,4.319c1.32,0,2.37-0.479,3.42-1.26l1.83,1.979
		c-1.38,1.32-3.03,2.07-5.43,2.07c-3.69,0-6.81-2.97-6.81-8.189c0-5.34,2.82-8.22,6.9-8.22c4.47,0,6.63,3.63,6.63,7.89
		C136.596,396.011,136.536,396.521,136.505,396.852z M129.756,390.342c-2.07,0-3.33,1.439-3.6,3.959h7.32
		C133.326,392.142,132.306,390.342,129.756,390.342z"/>
	<path fill="#19162B" d="M148.985,391.151c-0.66-0.36-1.35-0.57-2.37-0.57c-1.95,0-3.09,1.38-3.09,4.05v9h-3.09v-15.749h3.09v1.5
		c0.72-1.051,2.04-1.83,3.6-1.83c1.26,0,2.04,0.239,2.67,0.66L148.985,391.151z"/>
	<path fill="#19162B" d="M167.255,403.961c-3.959,0-6.93-3.27-6.93-8.189c0-5.16,3.06-8.22,7.02-8.22c4.02,0,7.02,3.21,7.02,8.13
		C174.365,400.901,171.305,403.961,167.255,403.961z M167.225,390.491c-2.34,0-3.78,2.07-3.78,5.19c0,3.449,1.59,5.339,3.93,5.339
		s3.87-2.369,3.87-5.249C171.245,392.562,169.715,390.491,167.225,390.491z"/>
	<path fill="#19162B" d="M183.305,384.552c-1.02,0-1.44,0.39-1.44,1.53v1.8h2.91v2.88h-2.91v12.869h-3.09v-12.869h-2.04v-2.88h2.04
		v-2.07c0-2.88,1.77-3.96,3.99-3.96c0.81,0,1.68,0.12,2.34,0.3v2.7C184.385,384.642,183.845,384.552,183.305,384.552z"/>
	<path fill="#19162B" d="M201.785,409.421l-1.05-2.34c4.44-0.21,5.4-1.41,5.4-4.68v-0.271c-1.14,1.05-2.43,1.83-4.08,1.83
		c-3.36,0-6.06-2.46-6.06-8.46c0-5.399,2.97-7.949,6.21-7.949c1.59,0,3.09,0.84,3.93,1.8v-1.47h3.09v14.249
		C209.224,406.931,207.484,409.24,201.785,409.421z M206.194,392.472c-0.69-0.931-2.13-2.07-3.69-2.07c-2.22,0-3.42,1.68-3.42,5.01
		c0,3.96,1.26,5.7,3.54,5.7c1.47,0,2.76-0.99,3.57-2.011V392.472z"/>
	<path fill="#19162B" d="M222.814,403.631v-1.56c-1.08,1.079-2.61,1.89-4.32,1.89c-2.55,0-5.46-1.44-5.46-5.31
		c0-3.51,2.7-5.101,6.27-5.101c1.47,0,2.64,0.211,3.51,0.601v-1.17c0-1.71-1.05-2.67-2.97-2.67c-1.62,0-2.88,0.3-4.11,0.99
		l-1.2-2.34c1.5-0.931,3.18-1.41,5.4-1.41c3.51,0,5.91,1.71,5.91,5.279v10.8H222.814z M222.814,396.911
		c-0.84-0.42-1.92-0.69-3.6-0.69c-1.979,0-3.24,0.9-3.24,2.341c0,1.56,0.99,2.609,3.03,2.609c1.65,0,3.09-1.02,3.81-2.01V396.911z"
		/>
	<path fill="#19162B" d="M230.434,403.631v-20.249l3.09-1.62v21.869H230.434z"/>
	<path fill="#19162B" d="M238.384,403.631v-20.249l3.09-1.62v21.869H238.384z"/>
	<path fill="#19162B" d="M252.364,403.961c-3.959,0-6.93-3.27-6.93-8.189c0-5.16,3.06-8.22,7.02-8.22c4.02,0,7.02,3.21,7.02,8.13
		C259.474,400.901,256.414,403.961,252.364,403.961z M252.334,390.491c-2.34,0-3.78,2.07-3.78,5.19c0,3.449,1.59,5.339,3.93,5.339
		s3.87-2.369,3.87-5.249C256.354,392.562,254.824,390.491,252.334,390.491z"/>
	<path fill="#19162B" d="M272.853,403.631v-8.909c0-3.181-1.199-4.32-3.239-4.32c-2.07,0-3.24,1.47-3.24,4.02v9.21h-3.09v-15.749
		h3.09v1.5c0.78-1.141,2.34-1.83,3.96-1.83c3.66,0,5.609,2.399,5.609,7.05v9.029H272.853z"/>
	<path fill="#19162B" d="M285.484,403.961c-2.13,0-4.439-0.84-6.029-2.01l1.409-2.34c1.47,1.02,3.12,1.56,4.59,1.56
		c1.95,0,2.88-0.63,2.88-1.74c0-1.199-1.38-1.77-3.66-2.64c-3.39-1.32-4.619-2.46-4.619-4.949c0-2.82,2.22-4.29,5.369-4.29
		c1.98,0,3.93,0.72,5.34,1.739l-1.35,2.37c-1.29-0.899-2.58-1.35-4.08-1.35s-2.16,0.6-2.16,1.439c0,0.78,0.541,1.351,2.91,2.28
		c3.51,1.35,5.311,2.31,5.311,5.279C291.394,402.791,288.574,403.961,285.484,403.961z"/>
	<path fill="#19162B" d="M305.164,385.842c-1.11,0-2.01-0.9-2.01-1.98c0-1.109,0.899-2.01,2.01-2.01c1.08,0,1.979,0.9,1.979,2.01
		C307.143,384.941,306.244,385.842,305.164,385.842z M303.603,403.631v-15.749h3.09v15.749H303.603z"/>
	<path fill="#19162B" d="M320.972,403.631v-8.909c0-3.181-1.199-4.32-3.239-4.32c-2.07,0-3.24,1.47-3.24,4.02v9.21h-3.09v-15.749
		h3.09v1.5c0.78-1.141,2.34-1.83,3.96-1.83c3.66,0,5.609,2.399,5.609,7.05v9.029H320.972z"/>
	<path fill="#19162B" d="M345.632,403.631v-1.56c-1.08,1.079-2.609,1.89-4.32,1.89c-2.549,0-5.459-1.44-5.459-5.31
		c0-3.51,2.699-5.101,6.27-5.101c1.47,0,2.64,0.211,3.51,0.601v-1.17c0-1.71-1.05-2.67-2.97-2.67c-1.62,0-2.88,0.3-4.11,0.99
		l-1.199-2.34c1.5-0.931,3.18-1.41,5.399-1.41c3.51,0,5.909,1.71,5.909,5.279v10.8H345.632z M345.632,396.911
		c-0.84-0.42-1.92-0.69-3.6-0.69c-1.98,0-3.24,0.9-3.24,2.341c0,1.56,0.99,2.609,3.029,2.609c1.65,0,3.09-1.02,3.811-2.01V396.911z"
		/>
	<path fill="#19162B" d="M362.671,403.631v-8.909c0-3.181-1.199-4.32-3.24-4.32c-2.068,0-3.238,1.47-3.238,4.02v9.21h-3.09v-15.749
		h3.09v1.5c0.779-1.141,2.34-1.83,3.959-1.83c3.66,0,5.609,2.399,5.609,7.05v9.029H362.671z"/>
	<path fill="#19162B" d="M386.64,403.961c-5.309,0-8.908-4.26-8.908-10.8s3.66-10.859,8.969-10.859c5.34,0,8.939,4.26,8.939,10.8
		C395.64,399.641,391.98,403.961,386.64,403.961z M386.611,385.422c-3.33,0-5.67,2.909-5.67,7.68c0,4.77,2.43,7.739,5.791,7.739
		c3.328,0,5.699-2.91,5.699-7.68S389.97,385.422,386.611,385.422z"/>
	<path fill="#19162B" d="M399.781,403.631v-20.249l3.09-1.62v21.869H399.781z"/>
	<path fill="#19162B" d="M413.072,409.181h-3.27l2.279-5.85l-5.789-15.449h3.389l2.58,7.709c0.48,1.38,1.201,3.72,1.381,4.59
		c0.27-0.93,0.93-3.18,1.41-4.529l2.67-7.77h3.27L413.072,409.181z"/>
	<path fill="#19162B" d="M442.56,403.631v-8.909c0-3.181-0.99-4.32-3.029-4.32c-2.07,0-3.029,1.47-3.029,4.02v9.21h-3.09v-8.909
		c0-3.181-0.99-4.32-3.031-4.32c-2.068,0-3.029,1.47-3.029,4.02v9.21h-3.09v-15.749h3.09v1.5c0.779-1.141,2.131-1.83,3.75-1.83
		c2.131,0,3.48,0.81,4.32,2.31c1.139-1.41,2.369-2.31,4.83-2.31c3.658,0,5.398,2.399,5.398,7.05v9.029H442.56z"/>
	<path fill="#19162B" d="M457.111,403.961c-1.59,0-3.09-0.84-3.959-1.8v5.67l-3.061,1.59v-21.539h3.061v1.5
		c1.139-1.051,2.459-1.83,4.109-1.83c3.391,0,6.061,2.46,6.061,8.459C463.322,401.411,460.38,403.961,457.111,403.961z
		 M456.691,390.401c-1.469,0-2.76,0.99-3.57,2.01v6.63c0.691,0.93,2.131,2.07,3.691,2.07c2.219,0,3.42-1.681,3.42-5.01
		C460.232,392.142,458.97,390.401,456.691,390.401z"/>
	<path fill="#19162B" d="M468.902,385.842c-1.111,0-2.012-0.9-2.012-1.98c0-1.109,0.9-2.01,2.012-2.01c1.078,0,1.979,0.9,1.979,2.01
		C470.88,384.941,469.98,385.842,468.902,385.842z M467.341,403.631v-15.749h3.09v15.749H467.341z"/>
	<path fill="#19162B" d="M485.041,392.411c-1.289-1.319-2.43-1.92-3.84-1.92c-2.25,0-3.689,2.01-3.689,5.22
		c0,3.09,1.32,5.31,3.779,5.31c1.471,0,2.34-0.659,3.57-1.949l1.98,1.949c-1.23,1.561-2.791,2.94-5.641,2.94
		c-3.84,0-6.809-3.24-6.809-8.16c0-5.22,3.059-8.249,6.898-8.249c2.311,0,4.109,0.93,5.58,2.67L485.041,392.411z"/>
</g>
<g enable-background="new    ">
	<path fill="#19162B" d="M170.915,439.961c-2.13,0-4.44-0.84-6.03-2.01l1.41-2.34c1.47,1.02,3.12,1.56,4.59,1.56
		c1.95,0,2.88-0.63,2.88-1.74c0-1.199-1.38-1.77-3.66-2.64c-3.39-1.32-4.62-2.46-4.62-4.949c0-2.82,2.22-4.29,5.37-4.29
		c1.98,0,3.93,0.72,5.34,1.739l-1.35,2.37c-1.29-0.899-2.58-1.35-4.08-1.35c-1.5,0-2.16,0.6-2.16,1.439c0,0.78,0.54,1.351,2.91,2.28
		c3.51,1.35,5.31,2.31,5.31,5.279C176.825,438.791,174.005,439.961,170.915,439.961z"/>
	<path fill="#19162B" d="M194.404,439.631h-2.64l-2.13-7.949c-0.33-1.2-0.66-2.61-0.81-3.36c-0.15,0.75-0.48,2.19-0.81,3.39
		l-2.1,7.92h-2.64l-4.319-15.749h3.06l1.86,7.649c0.3,1.2,0.63,2.7,0.78,3.45c0.18-0.78,0.54-2.221,0.87-3.45l2.1-7.649h2.49
		l2.13,7.68c0.33,1.229,0.66,2.64,0.84,3.42c0.18-0.78,0.48-2.25,0.78-3.45l1.86-7.649h3.06L194.404,439.631z"/>
	<path fill="#19162B" d="M203.975,421.842c-1.11,0-2.01-0.9-2.01-1.98c0-1.109,0.9-2.01,2.01-2.01c1.08,0,1.98,0.9,1.98,2.01
		C205.955,420.941,205.055,421.842,203.975,421.842z M202.415,439.631v-15.749h3.09v15.749H202.415z"/>
	<path fill="#19162B" d="M228.514,439.631v-8.909c0-3.181-0.99-4.32-3.03-4.32c-2.07,0-3.03,1.47-3.03,4.02v9.21h-3.09v-8.909
		c0-3.181-0.99-4.32-3.03-4.32c-2.07,0-3.03,1.47-3.03,4.02v9.21h-3.09v-15.749h3.09v1.5c0.78-1.141,2.13-1.83,3.75-1.83
		c2.13,0,3.48,0.81,4.32,2.31c1.14-1.41,2.37-2.31,4.83-2.31c3.66,0,5.4,2.399,5.4,7.05v9.029H228.514z"/>
	<path fill="#19162B" d="M254.344,439.631v-8.909c0-3.181-0.99-4.32-3.03-4.32c-2.07,0-3.03,1.47-3.03,4.02v9.21h-3.09v-8.909
		c0-3.181-0.99-4.32-3.03-4.32c-2.07,0-3.03,1.47-3.03,4.02v9.21h-3.09v-15.749h3.09v1.5c0.78-1.141,2.13-1.83,3.75-1.83
		c2.13,0,3.48,0.81,4.32,2.31c1.14-1.41,2.37-2.31,4.83-2.31c3.66,0,5.4,2.399,5.4,7.05v9.029H254.344z"/>
	<path fill="#19162B" d="M263.584,421.842c-1.11,0-2.01-0.9-2.01-1.98c0-1.109,0.9-2.01,2.01-2.01c1.08,0,1.98,0.9,1.98,2.01
		C265.564,420.941,264.665,421.842,263.584,421.842z M262.024,439.631v-15.749h3.09v15.749H262.024z"/>
	<path fill="#19162B" d="M279.394,439.631v-8.909c0-3.181-1.2-4.32-3.24-4.32c-2.07,0-3.24,1.47-3.24,4.02v9.21h-3.09v-15.749h3.09
		v1.5c0.781-1.141,2.34-1.83,3.961-1.83c3.659,0,5.609,2.399,5.609,7.05v9.029H279.394z"/>
	<path fill="#19162B" d="M292.025,445.421l-1.051-2.34c4.439-0.21,5.4-1.41,5.4-4.68v-0.271c-1.141,1.05-2.43,1.83-4.08,1.83
		c-3.359,0-6.061-2.46-6.061-8.46c0-5.399,2.971-7.949,6.211-7.949c1.59,0,3.09,0.84,3.93,1.8v-1.47h3.09v14.249
		C299.464,442.931,297.724,445.24,292.025,445.421z M296.434,428.472c-0.69-0.931-2.13-2.07-3.69-2.07c-2.219,0-3.42,1.68-3.42,5.01
		c0,3.96,1.261,5.7,3.541,5.7c1.469,0,2.76-0.99,3.569-2.011V428.472z"/>
	<path fill="#19162B" d="M319.144,439.961c-1.591,0-3.09-0.84-3.961-1.8v5.67l-3.06,1.59v-21.539h3.06v1.5
		c1.141-1.051,2.461-1.83,4.11-1.83c3.39,0,6.06,2.46,6.06,8.459C325.353,437.411,322.414,439.961,319.144,439.961z
		 M318.724,426.401c-1.471,0-2.761,0.99-3.57,2.01v6.63c0.689,0.93,2.129,2.07,3.689,2.07c2.221,0,3.42-1.681,3.42-5.01
		C322.263,428.142,321.003,426.401,318.724,426.401z"/>
	<path fill="#19162B" d="M335.403,439.961c-3.96,0-6.93-3.27-6.93-8.189c0-5.16,3.06-8.22,7.021-8.22c4.02,0,7.02,3.21,7.02,8.13
		C342.513,436.901,339.453,439.961,335.403,439.961z M335.373,426.491c-2.34,0-3.779,2.07-3.779,5.19c0,3.449,1.59,5.339,3.93,5.339
		s3.87-2.369,3.87-5.249C339.393,428.562,337.863,426.491,335.373,426.491z"/>
	<path fill="#19162B" d="M352.503,439.961c-3.96,0-6.93-3.27-6.93-8.189c0-5.16,3.06-8.22,7.02-8.22c4.02,0,7.02,3.21,7.02,8.13
		C359.613,436.901,356.552,439.961,352.503,439.961z M352.473,426.491c-2.34,0-3.78,2.07-3.78,5.19c0,3.449,1.59,5.339,3.93,5.339
		s3.871-2.369,3.871-5.249C356.494,428.562,354.962,426.491,352.473,426.491z"/>
	<path fill="#19162B" d="M363.573,439.631v-20.249l3.091-1.62v21.869H363.573z"/>
</g>
<g enable-background="new    ">
	<path fill="#19162B" d="M239.24,290.136c-18.719,0-33.359-10.439-33.359-33.959c0-22.079,12.959-52.678,56.518-52.678v16.319
		c-19.439,0-31.798,6.84-36.598,19.679c5.4-3.6,10.679-5.279,19.199-5.279c16.679,0,29.638,8.52,29.638,27.119
		C274.638,280.056,259.04,290.136,239.24,290.136z M240.8,249.457c-11.4,0-17.52,3.84-17.52,12.6c0,7.8,5.76,12.479,16.679,12.479
		c11.16,0,17.639-4.8,17.639-12.6C257.599,253.417,251.36,249.457,240.8,249.457z"/>
	<path fill="#19162B" d="M318.8,290.136c-18.72,0-33.359-10.439-33.359-33.959c0-22.079,12.959-52.678,56.518-52.678v16.319
		c-19.439,0-31.799,6.84-36.598,19.679c5.399-3.6,10.679-5.279,19.199-5.279c16.679,0,29.639,8.52,29.639,27.119
		C354.199,280.056,338.599,290.136,318.8,290.136z M320.36,249.457c-11.399,0-17.52,3.84-17.52,12.6
		c0,7.8,5.76,12.479,16.679,12.479c11.16,0,17.64-4.8,17.64-12.6C337.159,253.417,330.919,249.457,320.36,249.457z"/>
	<path fill="#19162B" d="M400.519,290.136c-22.92,0-35.159-17.76-35.159-43.318c0-25.56,12.36-43.318,35.278-43.318
		c22.92,0,35.279,17.52,35.279,43.078S423.438,290.136,400.519,290.136z M400.519,219.938c-12.84,0-18.119,11.64-18.119,26.639
		s5.399,27.119,18.238,27.119c12.84,0,18.24-11.88,18.24-26.879C418.878,231.817,413.358,219.938,400.519,219.938z"/>
</g>
<g enable-background="new    ">
	<path fill="#19162B" d="M229.107,349.16c-1.15,0.899-3.2,1.6-5.35,1.6c-4.25,0-7-3.3-7-7.9v-12.4h-4.4v-6.501h4.4v-6.75l6.9-3.45
		v10.2h6.3v6.501h-6.3v10.551c0,2.5,0.9,3.149,2.55,3.149c1.25,0,2.2-0.55,3.9-2L229.107,349.16z"/>
	<path fill="#19162B" d="M252.406,350.21v-14.201c0-4.7-1.6-6.1-4.45-6.1s-4.5,1.399-4.5,5.95v14.351h-6.9v-33.002l6.9-3.45v11.95
		c1.2-1.25,3.4-2.3,6.15-2.3c6.701,0,9.701,4.601,9.701,12.001v14.801H252.406z"/>
	<path fill="#19162B" d="M276.256,350.76c-6.851,0-11.851-5.601-11.851-13.65c0-8.051,5-13.701,11.851-13.701s11.9,5.65,11.9,13.701
		C288.157,345.159,283.107,350.76,276.256,350.76z M276.256,330.059c-3.3,0-4.851,3-4.851,7.051c0,4.05,1.551,7,4.851,7
		s4.899-3.35,4.899-7C281.156,333.109,279.556,330.059,276.256,330.059z"/>
	<path fill="#19162B" d="M309.106,350.21v-1.75c-1.2,1.25-3.4,2.3-6.15,2.3c-6.7,0-9.7-4.6-9.7-12.001v-14.801h6.9v14.201
		c0,4.7,1.6,6.101,4.449,6.101c2.852,0,4.501-1.4,4.501-5.95v-14.352h6.9v26.252H309.106z"/>
	<path fill="#19162B" d="M332.755,350.76c-4.15,0-8.2-1.2-11-3.05l2.3-5.25c2.8,1.55,5.751,2.399,9.101,2.399c2.7,0,3.5-0.649,3.5-2
		c0-1.2-0.949-1.8-3.85-2.65c-6.301-1.899-10.352-3.45-10.352-9c0-5.45,4.352-7.801,10.501-7.801c3.3,0,6.901,1,9.7,2.55
		l-2.199,5.451c-2.601-1.4-5.451-2.101-7.65-2.101c-2.801,0-3.551,0.55-3.551,1.7c0,1.1,0.801,1.55,5.451,3.05
		c4.699,1.551,8.75,3.251,8.75,8.501C343.457,348.61,338.656,350.76,332.755,350.76z"/>
	<path fill="#19162B" d="M363.755,350.21v-1.75c-1.25,1.3-3.449,2.3-5.9,2.3c-4.9,0-9.801-3-9.801-9.351c0-5.8,4.701-8.7,10.651-8.7
		c2.399,0,3.95,0.5,5.05,1.05v-1.3c0-1.851-1.25-3.351-3.75-3.351c-3.15,0-4.801,0.45-7.2,1.75l-2.65-4.8
		c3.05-1.75,5.601-2.65,9.851-2.65c6.351,0,10.65,3.301,10.65,9.2v17.602H363.755z M363.755,339.209c-1.199-0.75-2.35-1.1-4.8-1.1
		c-2.601,0-4.001,1.2-4.001,3.3c0,1.851,1.051,3.5,4.001,3.5c2.25,0,4.05-1.149,4.8-2.399V339.209z"/>
	<path fill="#19162B" d="M392.957,350.21v-14.201c0-4.7-1.601-6.1-4.451-6.1c-2.85,0-4.5,1.399-4.5,5.95v14.351h-6.9v-26.252h6.9
		v1.75c1.2-1.25,3.4-2.3,6.15-2.3c6.701,0,9.701,4.601,9.701,12.001v14.801H392.957z"/>
	<path fill="#19162B" d="M420.706,350.21v-1.65c-1.3,1.15-3.05,2.2-5.55,2.2c-5.601,0-10.201-4.2-10.201-14.001
		c0-7.851,3.7-13.351,10.201-13.351c2.3,0,4.3,0.9,5.55,2.05v-8.25l6.9-3.45v36.452H420.706z M420.706,332.159
		c-1.05-1.45-2.649-2.25-4.65-2.25c-2.649,0-4.101,2.3-4.101,6.7c0,5.4,1.801,7.65,4.501,7.65c2.149,0,3.25-0.9,4.25-2.2V332.159z"
		/>
</g>
<g>
	<rect x="131.308" y="481.699" fill="#19162B" stroke="#19162B" stroke-miterlimit="10" width="285.338" height="174.167"/>
	<g>
		<path fill="none" stroke="#6BBDC4" stroke-width="2" stroke-miterlimit="10" d="M311.646,557.032
			c0.668-15.085,13.061-27.112,28.248-27.112c15.611,0,28.271,12.707,28.271,28.389c0,15.683-12.66,28.394-28.271,28.394
			c-15.061,0-27.373-11.821-28.227-26.732"/>
		<path fill="none" stroke="#6BBDC4" stroke-width="2" stroke-miterlimit="10" d="M328.451,584.278
			c-9.438-4.201-16.158-13.438-16.783-24.312"/>
		<path fill="none" stroke="#6BBDC4" stroke-width="2" stroke-miterlimit="10" d="M328.451,584.278
			c-9.438-4.201-16.158-13.438-16.783-24.312"/>
		<path fill="none" stroke="#6BBDC4" stroke-width="2" stroke-miterlimit="10" d="M341.181,586.672
			c-0.43,0.016-0.857,0.026-1.287,0.026c-4.07,0-7.945-0.861-11.441-2.42"/>
		<path fill="none" stroke="#6BBDC4" stroke-width="2" stroke-miterlimit="10" d="M311.646,557.032
			c0.668-15.085,13.061-27.112,28.248-27.112c15.611,0,28.271,12.707,28.271,28.389c0,15.248-11.969,27.688-26.984,28.363"/>
		<path fill="none" stroke="#6BBDC4" stroke-width="2" stroke-miterlimit="10" d="M311.646,557.032
			c0.668-15.085,13.061-27.112,28.248-27.112c15.611,0,28.271,12.707,28.271,28.389c0,15.248-11.969,27.688-26.984,28.363"/>
		<path fill="none" stroke="#6BBDC4" stroke-width="2" stroke-miterlimit="10" d="M334.283,587.844
			c-0.6,15.152-13.02,27.246-28.25,27.246c-15.611,0-28.271-12.714-28.271-28.392c0-13.563,9.478-24.903,22.137-27.716"/>
		<path fill="none" stroke="#6BBDC4" stroke-width="2" stroke-miterlimit="10" d="M302.688,558.504
			c1.097-0.131,2.216-0.195,3.345-0.195c14.641,0,26.68,11.175,28.129,25.485"/>
		<path fill="none" stroke="#6BBDC4" stroke-width="2" stroke-miterlimit="10" d="M278.436,580.51
			c2.378-10.719,10.787-19.15,21.464-21.523"/>
		<path fill="none" stroke="#6BBDC4" stroke-width="2" stroke-miterlimit="10" d="M278.571,593.457
			c-0.526-2.165-0.809-4.43-0.809-6.759c0-2.122,0.237-4.196,0.673-6.188"/>
		<path fill="none" stroke="#6BBDC4" stroke-width="2" stroke-miterlimit="10" d="M334.283,587.844
			c-0.6,15.152-13.02,27.246-28.25,27.246c-13.289,0-24.443-9.219-27.462-21.633"/>
		<path fill="none" stroke="#6BBDC4" stroke-width="2" stroke-miterlimit="10" d="M244.747,556.637
			c0.863-14.9,13.168-26.717,28.223-26.717c15.617,0,28.275,12.707,28.275,28.389c0,13.56-9.471,24.893-22.115,27.721"/>
		<path fill="none" stroke="#6BBDC4" stroke-width="2" stroke-miterlimit="10" d="M276.558,586.472
			c-1.174,0.151-2.374,0.229-3.588,0.229c-14.935,0-27.164-11.626-28.201-26.359"/>
		<path fill="none" stroke="#6BBDC4" stroke-width="2" stroke-miterlimit="10" d="M209.437,586.536
			c-1.015,0.105-2.04,0.162-3.084,0.162c-15.618,0-28.269-12.707-28.269-28.394c0-15.678,12.651-28.389,28.269-28.389
			c15.613,0,28.271,12.711,28.271,28.389c0,13.229-9.006,24.336-21.187,27.488"/>
		<path fill="none" stroke="#6BBDC4" stroke-width="2" stroke-miterlimit="10" d="M233.37,566.702
			c-2.878,9.352-10.445,16.637-19.933,19.095"/>
		<path fill="none" stroke="#6BBDC4" stroke-width="2" stroke-miterlimit="10" d="M233.825,551.6
			c0.521,2.148,0.799,4.396,0.799,6.709c0,2.92-0.439,5.744-1.254,8.396"/>
		<path fill="none" stroke="#6BBDC4" stroke-width="2" stroke-miterlimit="10" d="M233.825,551.6
			c0.521,2.148,0.799,4.396,0.799,6.709c0,2.92-0.439,5.744-1.254,8.396"/>
		<path fill="none" stroke="#6BBDC4" stroke-width="2" stroke-miterlimit="10" d="M233.825,551.6
			c0.521,2.148,0.799,4.396,0.799,6.709c0,2.92-0.439,5.744-1.254,8.396"/>
		<path fill="none" stroke="#6BBDC4" stroke-width="2" stroke-miterlimit="10" d="M233.37,566.702
			c-2.878,9.352-10.445,16.637-19.933,19.095"/>
		<path fill="none" stroke="#6BBDC4" stroke-width="2" stroke-miterlimit="10" d="M233.37,566.702
			c-2.878,9.352-10.445,16.637-19.933,19.095"/>
		<path fill="none" stroke="#6BBDC4" stroke-width="2" stroke-miterlimit="10" d="M209.437,586.536
			c-1.015,0.105-2.04,0.162-3.084,0.162c-15.618,0-28.269-12.707-28.269-28.394c0-15.678,12.651-28.389,28.269-28.389
			c13.312,0,24.478,9.238,27.473,21.68"/>
		<path fill="none" stroke="#6BBDC4" stroke-width="2" stroke-miterlimit="10" d="M209.437,586.536
			c-1.015,0.105-2.04,0.162-3.084,0.162c-15.618,0-28.269-12.707-28.269-28.394c0-15.678,12.651-28.389,28.269-28.389
			c13.312,0,24.478,9.238,27.473,21.68"/>
		<path fill="none" stroke="#6BBDC4" stroke-width="2" stroke-miterlimit="10" d="M302.688,558.504
			c1.097-0.131,2.216-0.195,3.345-0.195c14.641,0,26.68,11.175,28.129,25.485"/>
		<path fill="none" stroke="#6BBDC4" stroke-width="2" stroke-miterlimit="10" d="M341.181,586.672
			c-0.43,0.016-0.857,0.026-1.287,0.026c-4.07,0-7.945-0.861-11.441-2.42"/>
		<path fill="none" stroke="#6BBDC4" stroke-width="2" stroke-miterlimit="10" d="M244.747,556.637
			c0.863-14.9,13.168-26.717,28.223-26.717c15.617,0,28.275,12.707,28.275,28.389c0,13.56-9.471,24.893-22.115,27.721"/>
		<path fill="none" stroke="#6BBDC4" stroke-width="2" stroke-miterlimit="10" d="M300.464,564.933
			c-2.498,10.502-10.813,18.744-21.334,21.097"/>
		<path fill="none" stroke="#6BBDC4" stroke-width="2" stroke-miterlimit="10" d="M300.896,553.891
			c0.229,1.439,0.35,2.916,0.35,4.418c0,2.281-0.271,4.501-0.781,6.624"/>
		<path fill="none" stroke="#6BBDC4" stroke-width="2" stroke-miterlimit="10" d="M244.747,556.637
			c0.863-14.9,13.168-26.717,28.223-26.717c14.119,0,25.822,10.389,27.927,23.971"/>
		<path fill="none" stroke="#6BBDC4" stroke-width="2" stroke-miterlimit="10" d="M268.036,587.596
			c-0.762,14.998-13.116,26.924-28.238,26.924c-15.613,0-28.271-12.714-28.271-28.39c0-13.209,8.983-24.308,21.148-27.479"/>
		<path fill="none" stroke="#6BBDC4" stroke-width="2" stroke-miterlimit="10" d="M236.571,557.923
			c1.055-0.124,2.141-0.185,3.227-0.185c15.078,0,27.401,11.851,28.227,26.783"/>
		<path fill="none" stroke="#6BBDC4" stroke-width="2" stroke-miterlimit="10" d="M250.371,559.785
			c9.907,4.018,17.034,13.507,17.653,24.736"/>
		<path fill="none" stroke="#6BBDC4" stroke-width="2" stroke-miterlimit="10" d="M240.523,557.745
			c3.475,0.091,6.785,0.809,9.848,2.04"/>
		<path fill="none" stroke="#6BBDC4" stroke-width="2" stroke-miterlimit="10" d="M236.571,557.923
			c1.055-0.124,2.141-0.185,3.227-0.185c0.244,0,0.488,0,0.726,0.007"/>
		<path fill="none" stroke="#6BBDC4" stroke-width="2" stroke-miterlimit="10" d="M262.412,584.653
			c-9.794-3.963-16.861-13.271-17.644-24.314"/>
		<path fill="none" stroke="#6BBDC4" stroke-width="2" stroke-miterlimit="10" d="M262.412,584.653
			c-9.794-3.963-16.861-13.271-17.644-24.314"/>
		<path fill="none" stroke="#6BBDC4" stroke-width="2" stroke-miterlimit="10" d="M273.897,586.683
			c-0.31,0.016-0.619,0.02-0.929,0.02c-3.729,0-7.295-0.729-10.557-2.045"/>
		<path fill="none" stroke="#6BBDC4" stroke-width="2" stroke-miterlimit="10" d="M250.371,559.785
			c9.907,4.018,17.034,13.507,17.653,24.736"/>
		<path fill="none" stroke="#6BBDC4" stroke-width="2" stroke-miterlimit="10" d="M250.371,559.785
			c9.907,4.018,17.034,13.507,17.653,24.736"/>
		<path fill="none" stroke="#6BBDC4" stroke-width="2" stroke-miterlimit="10" d="M268.036,587.596
			c-0.762,14.998-13.116,26.924-28.238,26.924"/>
		<path fill="none" stroke="#6BBDC4" stroke-width="2" stroke-miterlimit="10" d="M276.558,586.472
			c-0.875,0.113-1.76,0.188-2.66,0.211"/>
		<path fill="none" stroke="#6BBDC4" stroke-width="2" stroke-miterlimit="10" d="M276.558,586.472
			c-0.875,0.113-1.76,0.188-2.66,0.211"/>
		<path fill="none" stroke="#6BBDC4" stroke-width="2" stroke-miterlimit="10" d="M268.036,587.596
			c-0.762,14.998-13.116,26.924-28.238,26.924c-15.613,0-28.271-12.714-28.271-28.39c0-13.209,8.983-24.308,21.148-27.479"/>
		<path fill="none" stroke="#6BBDC4" stroke-width="2" stroke-miterlimit="10" d="M278.436,580.51
			c2.378-10.719,10.787-19.15,21.464-21.523"/>
		<path fill="none" stroke="#6BBDC4" stroke-width="2" stroke-miterlimit="10" d="M302.688,558.504
			c1.097-0.131,2.216-0.195,3.345-0.195c14.641,0,26.68,11.175,28.129,25.485"/>
		<path fill="none" stroke="#6BBDC4" stroke-width="2" stroke-miterlimit="10" d="M302.688,558.504
			c1.097-0.131,2.216-0.195,3.345-0.195c14.641,0,26.68,11.175,28.129,25.485"/>
		<path fill="none" stroke="#6BBDC4" stroke-width="2" stroke-miterlimit="10" d="M302.688,558.504
			c1.097-0.131,2.216-0.195,3.345-0.195c14.641,0,26.68,11.175,28.129,25.485"/>
		<path fill="none" stroke="#6BBDC4" stroke-width="2" stroke-miterlimit="10" d="M278.436,580.51
			c2.378-10.719,10.787-19.15,21.464-21.523"/>
		<path fill="none" stroke="#6BBDC4" stroke-width="2" stroke-miterlimit="10" d="M334.283,587.844
			c-0.6,15.152-13.02,27.246-28.25,27.246c-13.289,0-24.443-9.219-27.462-21.633"/>
		<path fill="none" stroke="#6BBDC4" stroke-width="2" stroke-miterlimit="10" d="M334.283,587.844
			c-0.6,15.152-13.02,27.246-28.25,27.246c-13.289,0-24.443-9.219-27.462-21.633"/>
		<path fill="none" stroke="#6BBDC4" stroke-width="2" stroke-miterlimit="10" d="M300.896,553.891
			c0.229,1.439,0.35,2.916,0.35,4.418c0,2.281-0.271,4.501-0.781,6.624"/>
		<path fill="none" stroke="#6BBDC4" stroke-width="2" stroke-miterlimit="10" d="M300.896,553.891
			c0.229,1.439,0.35,2.916,0.35,4.418c0,2.281-0.271,4.501-0.781,6.624"/>
		<path fill="none" stroke="#6BBDC4" stroke-width="2" stroke-miterlimit="10" d="M278.571,593.457
			c-0.526-2.165-0.809-4.43-0.809-6.759c0-2.122,0.237-4.196,0.673-6.188"/>
		<path fill="none" stroke="#6BBDC4" stroke-width="2" stroke-miterlimit="10" d="M268.036,587.596
			c-0.762,14.998-13.116,26.924-28.238,26.924c-15.613,0-28.271-12.714-28.271-28.39c0-13.209,8.983-24.308,21.148-27.479"/>
		<path fill="none" stroke="#6BBDC4" stroke-width="2" stroke-miterlimit="10" d="M233.825,551.6
			c0.521,2.148,0.799,4.396,0.799,6.709c0,2.92-0.439,5.744-1.254,8.396"/>
		<path fill="none" stroke="#6BBDC4" stroke-width="2" stroke-miterlimit="10" d="M233.825,551.6
			c0.521,2.148,0.799,4.396,0.799,6.709c0,2.92-0.439,5.744-1.254,8.396"/>
		<path fill="none" stroke="#6BBDC4" stroke-width="2" stroke-miterlimit="10" d="M233.825,551.6
			c0.521,2.148,0.799,4.396,0.799,6.709c0,2.92-0.439,5.744-1.254,8.396"/>
		<path fill="none" stroke="#6BBDC4" stroke-width="2" stroke-miterlimit="10" d="M240.523,557.745
			c3.475,0.091,6.785,0.809,9.848,2.04"/>
		<path fill="none" stroke="#6BBDC4" stroke-width="2" stroke-miterlimit="10" d="M236.571,557.923
			c1.055-0.124,2.141-0.185,3.227-0.185c0.244,0,0.488,0,0.726,0.007"/>
		<path fill="none" stroke="#6BBDC4" stroke-width="2" stroke-miterlimit="10" d="M236.571,557.923
			c1.055-0.124,2.141-0.185,3.227-0.185c0.244,0,0.488,0,0.726,0.007"/>
		<path fill="none" stroke="#6BBDC4" stroke-width="2" stroke-miterlimit="10" d="M240.523,557.745
			c3.475,0.091,6.785,0.809,9.848,2.04"/>
		<path fill="none" stroke="#6BBDC4" stroke-width="2" stroke-miterlimit="10" d="M278.571,593.457
			c-0.526-2.165-0.809-4.43-0.809-6.759c0-2.122,0.237-4.196,0.673-6.188"/>
		<path fill="none" stroke="#6BBDC4" stroke-width="2" stroke-miterlimit="10" d="M278.571,593.457
			c-0.526-2.165-0.809-4.43-0.809-6.759c0-2.122,0.237-4.196,0.673-6.188"/>
		<path fill="none" stroke="#6BBDC4" stroke-width="2" stroke-miterlimit="10" d="M240.523,557.745
			c3.475,0.091,6.785,0.809,9.848,2.04"/>
		<path fill="none" stroke="#6BBDC4" stroke-width="2" stroke-miterlimit="10" d="M273.897,586.683
			c-0.31,0.016-0.619,0.02-0.929,0.02c-3.729,0-7.295-0.729-10.557-2.045"/>
		<path fill="none" stroke="#6BBDC4" stroke-width="2" stroke-miterlimit="10" d="M273.897,586.683
			c-0.31,0.016-0.619,0.02-0.929,0.02c-3.729,0-7.295-0.729-10.557-2.045"/>
		<path fill="none" stroke="#6BBDC4" stroke-width="2" stroke-miterlimit="10" d="M273.897,586.683
			c-0.31,0.016-0.619,0.02-0.929,0.02c-3.729,0-7.295-0.729-10.557-2.045"/>
		<path fill="none" stroke="#6BBDC4" stroke-width="2" stroke-miterlimit="10" d="M341.181,586.672
			c-0.43,0.016-0.857,0.026-1.287,0.026c-4.07,0-7.945-0.861-11.441-2.42"/>
		<path fill="none" stroke="#6BBDC4" stroke-width="2" stroke-miterlimit="10" d="M341.181,586.672
			c-0.43,0.016-0.857,0.026-1.287,0.026c-4.07,0-7.945-0.861-11.441-2.42"/>
	</g>
</g>
</svg>
