<?xml version="1.0" encoding="utf-8"?>
<!-- Generator: Adobe Illustrator 15.1.0, SVG Export Plug-In . SVG Version: 6.00 Build 0)  -->
<!DOCTYPE svg PUBLIC "-//W3C//DTD SVG 1.1//EN" "http://www.w3.org/Graphics/SVG/1.1/DTD/svg11.dtd">
<svg version="1.1" id="Layer_1" xmlns="http://www.w3.org/2000/svg" xmlns:xlink="http://www.w3.org/1999/xlink" x="0px" y="0px"
	 width="536.379px" height="780.521px" viewBox="0 0 536.379 780.521" enable-background="new 0 0 536.379 780.521"
	 xml:space="preserve">
<rect x="56.69" y="386.761" fill="none" width="434" height="82"/>
<g enable-background="new    ">
	<path d="M71.888,411.653l-0.945-2.105c3.995-0.189,4.859-1.269,4.859-4.211v-0.243c-1.026,0.944-2.187,1.646-3.671,1.646
		c-3.023,0-5.453-2.213-5.453-7.612c0-4.858,2.672-7.152,5.587-7.152c1.431,0,2.78,0.756,3.536,1.619v-1.322h2.78v12.821
		C78.582,409.412,77.017,411.491,71.888,411.653z M75.856,396.402c-0.621-0.837-1.917-1.863-3.32-1.863
		c-1.998,0-3.077,1.512-3.077,4.508c0,3.563,1.134,5.129,3.185,5.129c1.323,0,2.483-0.891,3.212-1.809V396.402z"/>
	<path d="M90.813,406.443v-1.403c-0.972,0.972-2.348,1.7-3.887,1.7c-2.294,0-4.913-1.296-4.913-4.777
		c0-3.158,2.43-4.589,5.642-4.589c1.323,0,2.375,0.188,3.158,0.54v-1.053c0-1.539-0.945-2.402-2.672-2.402
		c-1.458,0-2.591,0.27-3.698,0.891l-1.08-2.105c1.35-0.837,2.861-1.269,4.859-1.269c3.158,0,5.317,1.538,5.317,4.75v9.718H90.813z
		 M90.813,400.396c-0.756-0.377-1.728-0.62-3.239-0.62c-1.781,0-2.915,0.81-2.915,2.105c0,1.403,0.891,2.348,2.726,2.348
		c1.485,0,2.78-0.917,3.428-1.808V400.396z"/>
	<path d="M97.673,406.443v-18.22l2.78-1.458v19.678H97.673z"/>
	<path d="M104.829,406.443v-18.22l2.78-1.458v19.678H104.829z"/>
	<path d="M117.409,406.74c-3.563,0-6.235-2.942-6.235-7.369c0-4.643,2.753-7.396,6.316-7.396c3.617,0,6.316,2.888,6.316,7.314
		C123.806,403.987,121.053,406.74,117.409,406.74z M117.382,394.62c-2.105,0-3.401,1.863-3.401,4.67
		c0,3.104,1.431,4.805,3.536,4.805c2.105,0,3.482-2.132,3.482-4.724C120.999,396.483,119.622,394.62,117.382,394.62z"/>
	<path d="M135.849,406.443v-8.017c0-2.861-1.08-3.888-2.915-3.888c-1.863,0-2.916,1.323-2.916,3.617v8.287h-2.78v-14.171h2.78v1.35
		c0.702-1.026,2.105-1.646,3.563-1.646c3.293,0,5.048,2.159,5.048,6.343v8.125H135.849z"/>
	<path d="M147.217,406.74c-1.917,0-3.995-0.756-5.425-1.809l1.269-2.105c1.323,0.918,2.807,1.403,4.13,1.403
		c1.754,0,2.591-0.566,2.591-1.565c0-1.079-1.242-1.592-3.293-2.375c-3.05-1.188-4.157-2.214-4.157-4.454
		c0-2.537,1.998-3.859,4.832-3.859c1.781,0,3.536,0.647,4.805,1.565l-1.215,2.132c-1.161-0.81-2.321-1.214-3.671-1.214
		s-1.943,0.539-1.943,1.295c0,0.702,0.486,1.215,2.618,2.052c3.158,1.215,4.778,2.078,4.778,4.751
		C152.535,405.688,149.997,406.74,147.217,406.74z"/>
	<path d="M164.929,390.437c-0.999,0-1.808-0.81-1.808-1.781c0-0.999,0.81-1.809,1.808-1.809c0.972,0,1.782,0.81,1.782,1.809
		C166.71,389.627,165.901,390.437,164.929,390.437z M163.525,406.443v-14.171h2.78v14.171H163.525z"/>
	<path d="M179.156,406.443v-8.017c0-2.861-1.08-3.888-2.915-3.888c-1.863,0-2.916,1.323-2.916,3.617v8.287h-2.78v-14.171h2.78v1.35
		c0.702-1.026,2.105-1.646,3.563-1.646c3.293,0,5.048,2.159,5.048,6.343v8.125H179.156z"/>
	<path d="M190.524,406.74c-1.917,0-3.995-0.756-5.425-1.809l1.269-2.105c1.323,0.918,2.807,1.403,4.13,1.403
		c1.754,0,2.591-0.566,2.591-1.565c0-1.079-1.242-1.592-3.293-2.375c-3.05-1.188-4.157-2.214-4.157-4.454
		c0-2.537,1.998-3.859,4.832-3.859c1.781,0,3.536,0.647,4.805,1.565l-1.215,2.132c-1.161-0.81-2.321-1.214-3.671-1.214
		s-1.943,0.539-1.943,1.295c0,0.702,0.486,1.215,2.618,2.052c3.158,1.215,4.778,2.078,4.778,4.751
		C195.842,405.688,193.304,406.74,190.524,406.74z"/>
	<path d="M200.946,390.437c-0.999,0-1.808-0.81-1.808-1.781c0-0.999,0.81-1.809,1.808-1.809c0.972,0,1.782,0.81,1.782,1.809
		C202.728,389.627,201.918,390.437,200.946,390.437z M199.543,406.443v-14.171h2.78v14.171H199.543z"/>
	<path d="M215.093,406.443v-1.35c-1.025,0.944-2.213,1.646-3.698,1.646c-3.05,0-5.453-2.213-5.453-7.612
		c0-4.858,2.645-7.152,5.587-7.152c1.431,0,2.78,0.756,3.563,1.619v-5.398l2.753-1.431v19.678H215.093z M215.12,396.402
		c-0.621-0.837-1.917-1.863-3.32-1.863c-1.998,0-3.077,1.512-3.077,4.508c0,3.563,1.134,5.129,3.185,5.129
		c1.323,0,2.483-0.891,3.212-1.809V396.402z"/>
	<path d="M233.371,400.343h-9.366c0.297,2.727,1.835,3.887,3.563,3.887c1.188,0,2.132-0.432,3.077-1.133l1.646,1.781
		c-1.242,1.188-2.726,1.862-4.886,1.862c-3.32,0-6.127-2.672-6.127-7.369c0-4.805,2.538-7.396,6.208-7.396
		c4.022,0,5.965,3.266,5.965,7.099C233.452,399.587,233.398,400.046,233.371,400.343z M227.297,394.485
		c-1.862,0-2.996,1.296-3.239,3.563h6.586C230.51,396.105,229.592,394.485,227.297,394.485z"/>
	<path d="M250.976,406.093c-0.675,0.378-1.62,0.647-2.726,0.647c-1.971,0-3.186-1.215-3.186-3.752v-8.179h-2.024v-2.537h2.024
		v-4.049l2.727-1.458v5.507h3.509v2.537h-3.509v7.692c0,1.323,0.432,1.701,1.458,1.701c0.729,0,1.539-0.271,2.051-0.567
		L250.976,406.093z"/>
	<path d="M263.692,406.443v-8.017c0-2.861-1.08-3.888-2.915-3.888c-1.863,0-2.916,1.323-2.916,3.617v8.287h-2.78v-18.22l2.78-1.458
		v6.856c0.702-1.026,2.105-1.646,3.563-1.646c3.293,0,5.048,2.159,5.048,6.343v8.125H263.692z"/>
	<path d="M281.889,400.343h-9.366c0.297,2.727,1.835,3.887,3.563,3.887c1.188,0,2.132-0.432,3.076-1.133l1.646,1.781
		c-1.241,1.188-2.726,1.862-4.885,1.862c-3.32,0-6.128-2.672-6.128-7.369c0-4.805,2.538-7.396,6.208-7.396
		c4.022,0,5.966,3.266,5.966,7.099C281.97,399.587,281.916,400.046,281.889,400.343z M275.815,394.485
		c-1.862,0-2.996,1.296-3.239,3.563h6.586C279.027,396.105,278.109,394.485,275.815,394.485z"/>
	<path d="M292.854,406.443v-18.22l2.78-1.458v19.678H292.854z"/>
	<path d="M307.998,406.443v-1.403c-0.972,0.972-2.348,1.7-3.887,1.7c-2.295,0-4.913-1.296-4.913-4.777
		c0-3.158,2.43-4.589,5.642-4.589c1.322,0,2.375,0.188,3.158,0.54v-1.053c0-1.539-0.945-2.402-2.672-2.402
		c-1.458,0-2.592,0.27-3.698,0.891l-1.08-2.105c1.35-0.837,2.861-1.269,4.858-1.269c3.158,0,5.318,1.538,5.318,4.75v9.718H307.998z
		 M307.998,400.396c-0.756-0.377-1.728-0.62-3.239-0.62c-1.781,0-2.915,0.81-2.915,2.105c0,1.403,0.891,2.348,2.727,2.348
		c1.484,0,2.779-0.917,3.428-1.808V400.396z"/>
	<path d="M322.416,395.215c-0.594-0.324-1.215-0.514-2.133-0.514c-1.754,0-2.78,1.242-2.78,3.645v8.098h-2.78v-14.171h2.78v1.35
		c0.647-0.945,1.835-1.646,3.239-1.646c1.134,0,1.836,0.216,2.402,0.594L322.416,395.215z"/>
	<path d="M329.842,411.653l-0.945-2.105c3.996-0.189,4.859-1.269,4.859-4.211v-0.243c-1.025,0.944-2.187,1.646-3.671,1.646
		c-3.023,0-5.452-2.213-5.452-7.612c0-4.858,2.672-7.152,5.587-7.152c1.431,0,2.78,0.756,3.536,1.619v-1.322h2.78v12.821
		C336.536,409.412,334.971,411.491,329.842,411.653z M333.811,396.402c-0.621-0.837-1.917-1.863-3.32-1.863
		c-1.998,0-3.078,1.512-3.078,4.508c0,3.563,1.135,5.129,3.186,5.129c1.322,0,2.483-0.891,3.213-1.809V396.402z"/>
	<path d="M352.061,400.343h-9.366c0.297,2.727,1.835,3.887,3.563,3.887c1.188,0,2.132-0.432,3.076-1.133l1.646,1.781
		c-1.241,1.188-2.726,1.862-4.885,1.862c-3.32,0-6.128-2.672-6.128-7.369c0-4.805,2.538-7.396,6.208-7.396
		c4.022,0,5.966,3.266,5.966,7.099C352.142,399.587,352.088,400.046,352.061,400.343z M345.987,394.485
		c-1.862,0-2.996,1.296-3.239,3.563h6.586C349.199,396.105,348.281,394.485,345.987,394.485z"/>
	<path d="M359.919,406.74c-1.917,0-3.995-0.756-5.425-1.809l1.268-2.105c1.323,0.918,2.808,1.403,4.131,1.403
		c1.754,0,2.591-0.566,2.591-1.565c0-1.079-1.241-1.592-3.293-2.375c-3.05-1.188-4.157-2.214-4.157-4.454
		c0-2.537,1.998-3.859,4.832-3.859c1.781,0,3.535,0.647,4.805,1.565l-1.215,2.132c-1.16-0.81-2.321-1.214-3.671-1.214
		s-1.943,0.539-1.943,1.295c0,0.702,0.485,1.215,2.618,2.052c3.158,1.215,4.777,2.078,4.777,4.751
		C365.236,405.688,362.699,406.74,359.919,406.74z"/>
	<path d="M375.309,406.093c-0.676,0.378-1.619,0.647-2.727,0.647c-1.971,0-3.186-1.215-3.186-3.752v-8.179h-2.023v-2.537h2.023
		v-4.049l2.727-1.458v5.507h3.51v2.537h-3.51v7.692c0,1.323,0.432,1.701,1.457,1.701c0.73,0,1.539-0.271,2.053-0.567
		L375.309,406.093z"/>
	<path d="M393.021,406.74c-1.432,0-2.781-0.756-3.564-1.619v5.102l-2.752,1.431v-19.381h2.752v1.35
		c1.025-0.945,2.215-1.646,3.699-1.646c3.049,0,5.451,2.213,5.451,7.611C398.607,404.446,395.963,406.74,393.021,406.74z
		 M392.643,394.539c-1.322,0-2.482,0.892-3.213,1.809v5.966c0.621,0.837,1.918,1.862,3.32,1.862c1.998,0,3.078-1.512,3.078-4.508
		C395.828,396.105,394.693,394.539,392.643,394.539z"/>
	<path d="M406.494,411.438h-2.943l2.053-5.264l-5.211-13.901h3.051l2.322,6.937c0.432,1.242,1.078,3.348,1.24,4.13
		c0.244-0.837,0.838-2.861,1.27-4.075l2.402-6.991h2.941L406.494,411.438z"/>
	<path d="M424.26,395.215c-0.594-0.324-1.215-0.514-2.133-0.514c-1.754,0-2.779,1.242-2.779,3.645v8.098h-2.781v-14.171h2.781v1.35
		c0.646-0.945,1.834-1.646,3.238-1.646c1.133,0,1.836,0.216,2.402,0.594L424.26,395.215z"/>
	<path d="M435.033,406.443v-1.403c-0.973,0.972-2.35,1.7-3.889,1.7c-2.293,0-4.912-1.296-4.912-4.777
		c0-3.158,2.43-4.589,5.643-4.589c1.322,0,2.375,0.188,3.158,0.54v-1.053c0-1.539-0.945-2.402-2.674-2.402
		c-1.457,0-2.59,0.27-3.697,0.891l-1.08-2.105c1.35-0.837,2.861-1.269,4.859-1.269c3.158,0,5.316,1.538,5.316,4.75v9.718H435.033z
		 M435.033,400.396c-0.756-0.377-1.729-0.62-3.24-0.62c-1.781,0-2.916,0.81-2.916,2.105c0,1.403,0.893,2.348,2.727,2.348
		c1.484,0,2.781-0.917,3.43-1.808V400.396z"/>
	<path d="M458.223,406.443v-8.017c0-2.861-0.891-3.888-2.727-3.888c-1.861,0-2.727,1.323-2.727,3.617v8.287h-2.779v-8.017
		c0-2.861-0.891-3.888-2.727-3.888c-1.863,0-2.727,1.323-2.727,3.617v8.287h-2.779v-14.171h2.779v1.35
		c0.701-1.026,1.916-1.646,3.375-1.646c1.916,0,3.131,0.729,3.887,2.078c1.025-1.269,2.133-2.078,4.346-2.078
		c3.293,0,4.857,2.159,4.857,6.343v8.125H458.223z"/>
	<path d="M466.543,390.437c-0.998,0-1.809-0.81-1.809-1.781c0-0.999,0.811-1.809,1.809-1.809c0.971,0,1.781,0.81,1.781,1.809
		C468.324,389.627,467.514,390.437,466.543,390.437z M465.139,406.443v-14.171h2.781v14.171H465.139z"/>
	<path d="M480.689,406.443v-1.35c-1.025,0.944-2.213,1.646-3.699,1.646c-3.049,0-5.451-2.213-5.451-7.612
		c0-4.858,2.645-7.152,5.588-7.152c1.43,0,2.779,0.756,3.562,1.619v-5.398l2.752-1.431v19.678H480.689z M480.717,396.402
		c-0.621-0.837-1.918-1.863-3.32-1.863c-1.998,0-3.078,1.512-3.078,4.508c0,3.563,1.135,5.129,3.186,5.129
		c1.322,0,2.482-0.891,3.213-1.809V396.402z"/>
</g>
<g enable-background="new    ">
	<path d="M228.796,422.837c-0.999,0-1.808-0.81-1.808-1.781c0-0.999,0.81-1.809,1.808-1.809c0.972,0,1.782,0.81,1.782,1.809
		C230.578,422.027,229.769,422.837,228.796,422.837z M227.393,438.844v-14.171h2.78v14.171H227.393z"/>
	<path d="M243.023,438.844v-8.017c0-2.861-1.08-3.888-2.915-3.888c-1.863,0-2.916,1.323-2.916,3.617v8.287h-2.78v-14.171h2.78v1.35
		c0.702-1.026,2.105-1.646,3.563-1.646c3.293,0,5.048,2.159,5.048,6.343v8.125H243.023z"/>
	<path d="M257.498,438.844v-18.895h12.173v2.753h-9.339v4.67h5.426v2.753h-5.426v5.966h9.745v2.753H257.498z"/>
	<path d="M277.746,444.054l-0.945-2.105c3.996-0.189,4.859-1.269,4.859-4.211v-0.243c-1.025,0.944-2.187,1.646-3.671,1.646
		c-3.023,0-5.452-2.213-5.452-7.612c0-4.858,2.672-7.152,5.587-7.152c1.431,0,2.78,0.756,3.536,1.619v-1.322h2.78v12.821
		C284.44,441.812,282.875,443.892,277.746,444.054z M281.715,428.803c-0.621-0.837-1.917-1.863-3.32-1.863
		c-1.998,0-3.078,1.512-3.078,4.508c0,3.563,1.135,5.129,3.186,5.129c1.322,0,2.483-0.891,3.213-1.809V428.803z"/>
	<path d="M293.486,443.838h-2.941l2.051-5.264l-5.209-13.901h3.05l2.321,6.937c0.432,1.242,1.08,3.348,1.242,4.13
		c0.242-0.837,0.836-2.861,1.268-4.075l2.402-6.991h2.943L293.486,443.838z"/>
	<path d="M309.875,439.141c-1.43,0-2.779-0.756-3.562-1.619v5.102l-2.754,1.431v-19.381h2.754v1.35
		c1.025-0.945,2.213-1.646,3.698-1.646c3.05,0,5.452,2.213,5.452,7.611C315.463,436.847,312.818,439.141,309.875,439.141z
		 M309.498,426.939c-1.323,0-2.484,0.892-3.213,1.809v5.966c0.621,0.837,1.917,1.862,3.32,1.862c1.998,0,3.077-1.512,3.077-4.508
		C312.683,428.506,311.549,426.939,309.498,426.939z"/>
	<path d="M325.59,438.493c-0.676,0.378-1.62,0.647-2.727,0.647c-1.971,0-3.186-1.215-3.186-3.752v-8.179h-2.024v-2.537h2.024v-4.049
		l2.727-1.458v5.507h3.509v2.537h-3.509v7.692c0,1.323,0.432,1.701,1.457,1.701c0.729,0,1.539-0.271,2.052-0.567L325.59,438.493z"/>
</g>
<g enable-background="new    ">
	<path fill="#19152B" d="M232.348,290.136c-18.719,0-33.359-10.439-33.359-33.959c0-22.079,12.959-52.678,56.518-52.678v16.319
		c-19.439,0-31.798,6.84-36.598,19.679c5.4-3.6,10.679-5.279,19.199-5.279c16.679,0,29.639,8.52,29.639,27.119
		C267.747,280.056,252.147,290.136,232.348,290.136z M233.908,249.457c-11.4,0-17.52,3.84-17.52,12.6
		c0,7.8,5.76,12.479,16.679,12.479c11.16,0,17.639-4.8,17.639-12.6C250.707,253.417,244.468,249.457,233.908,249.457z"/>
	<path fill="#19152B" d="M315.027,290.136c-21.719,0-35.158-9.96-35.158-26.52c0-11.64,6.959-17.639,13.319-20.398
		c-6-3.24-9.72-8.521-9.72-14.76c0-16.56,13.92-24.959,31.559-24.959c16.56,0,31.559,7.8,31.559,24.239
		c0,5.999-3.24,11.879-9.719,15.479c6.479,2.999,13.318,8.879,13.318,19.559C350.186,279.696,336.746,290.136,315.027,290.136z
		 M315.027,251.377c-12.6,0-18.359,4.68-18.359,11.88c0,7.68,7.68,12.119,18.359,12.119c11.52,0,18.359-4.32,18.359-12
		S327.747,251.377,315.027,251.377z M315.027,218.019c-10.439,0-14.76,4.56-14.76,9.959c0,5.4,5.04,9.6,14.76,9.6
		c10.32,0,14.76-3.959,14.76-9.479C329.787,222.698,326.066,218.019,315.027,218.019z"/>
	<path fill="#19152B" d="M394.227,290.136c-12.119,0-22.199-2.4-32.758-9l8.159-14.279c7.8,4.439,16.079,7.08,24.599,7.08
		c11.4,0,18-4.801,18-13.8c0-8.76-6.359-12.479-14.279-12.479c-7.561,0-12.6,2.279-16.56,5.04l-15.96-5.88l2.881-41.998h55.917
		v16.199h-40.438l-0.959,14.52c4.68-2.521,9.719-3.84,17.639-3.84c18.84,0,28.799,11.999,28.799,27.838
		C429.266,279.696,414.866,290.136,394.227,290.136z"/>
</g>
<g enable-background="new    ">
	<path fill="#19152B" d="M269.541,350.21v-14.201c0-4.7-1.35-6.1-4.2-6.1c-2.851,0-4.25,1.399-4.25,5.95v14.351h-6.9v-14.201
		c0-4.7-1.35-6.1-4.2-6.1s-4.25,1.399-4.25,5.95v14.351h-6.9v-26.252h6.9v1.75c1.2-1.25,3-2.3,5.75-2.3c3.35,0,5.3,0.95,7.25,3.351
		c1.8-1.851,4-3.351,8.351-3.351c6.7,0,9.351,4.601,9.351,12.001v14.801H269.541z"/>
	<path fill="#19152B" d="M286.589,321.809c-2.149,0-3.95-1.801-3.95-3.95c0-2.15,1.801-3.95,3.95-3.95c2.15,0,3.95,1.8,3.95,3.95
		C290.539,320.008,288.739,321.809,286.589,321.809z M283.139,350.21v-26.252h6.9v26.252H283.139z"/>
	<path fill="#19152B" d="M297.238,350.21v-33.002l6.9-3.45v36.452H297.238z"/>
	<path fill="#19152B" d="M311.338,350.21v-33.002l6.9-3.45v36.452H311.338z"/>
	<path fill="#19152B" d="M328.889,321.809c-2.15,0-3.95-1.801-3.95-3.95c0-2.15,1.8-3.95,3.95-3.95s3.95,1.8,3.95,3.95
		C332.839,320.008,331.039,321.809,328.889,321.809z M325.438,350.21v-26.252h6.9v26.252H325.438z"/>
	<path fill="#19152B" d="M349.789,350.76c-6.851,0-11.852-5.601-11.852-13.65c0-8.051,5.001-13.701,11.852-13.701
		c6.85,0,11.9,5.65,11.9,13.701C361.689,345.159,356.639,350.76,349.789,350.76z M349.789,330.059c-3.301,0-4.851,3-4.851,7.051
		c0,4.05,1.55,7,4.851,7c3.3,0,4.9-3.35,4.9-7C354.689,333.109,353.089,330.059,349.789,330.059z"/>
	<path fill="#19152B" d="M382.889,350.21v-14.201c0-4.7-1.6-6.1-4.449-6.1c-2.851,0-4.501,1.399-4.501,5.95v14.351h-6.9v-26.252h6.9
		v1.75c1.2-1.25,3.4-2.3,6.15-2.3c6.7,0,9.7,4.601,9.7,12.001v14.801H382.889z"/>
</g>
<path fill="#19152B" d="M469.439,642.692L315.95,665.552L66.939,636.979l196.76-169.003c0,0,6.531-6.122,13.062-6.122
	c0,0,4.896-0.814,13.062,7.759L469.439,642.692z"/>
<line fill="none" stroke="#6ABDC4" stroke-width="0.5" stroke-miterlimit="10" x1="276.762" y1="461.853" x2="315.95" y2="665.552"/>
<g>
	<path fill="#19152B" d="M417.335,669.237c0,0-1.187,0.428-0.49,2.116c0.02,0.043,0.034,0.08,0.056,0.125
		c0.808,1.793,0.763,1.163,0.896,1.211c0,0,1.166-1.66,1.928-2.779l-1.548-1.076l-0.818-2.33
		C417.354,666.504,416.831,668.609,417.335,669.237z"/>
	<path fill="#19152B" d="M419.961,677.51c0,0,0.859,1.791,1.263,2.688c0,0,0.137,0.739,0.874,0.763c0,0,1.456,0.111,1.21-0.382
		c0,0-0.089-0.403-1.273-0.583c0,0-1.279-1.232-1.64-4.505c0,0-0.11-3.478,0.402-4.352
		C421.312,670.269,417.824,674.73,419.961,677.51z"/>
	<path fill="#19152B" d="M420.306,681.565c0,0,0.044,0.628,0.401,0.628c0,0,1.099,0.179,1.705-0.429c0,0-1.615-0.445-2.106-2.512
		c0,0-1.188-4.192,0.182-7.016c0,0,1.521-1.569,2.286-3.679c0,0,1.973,2.515,7.618,1.349c0,0,0.81-0.089,0.985-0.067
		c0,0,0.091,2.532-0.672,3.832c0,0-0.718,0.942-0.494,2.734l-0.134,4.26c0,0-0.358,0.896,0.045,1.121c0,0,1.435,0.354,1.794-0.314
		c0,0-0.986-0.4-0.852-0.896c0,0,1.164,0.135,1.389-0.358c0,0-1.434-0.091-1.255-0.984l-0.045-2.646c0,0,0.763-0.987,0.829-2.87
		c0,0,0.108-1.119,0.647-1.389c0,0,0.941-0.854,0.985-2.69c0,0,1.436-0.181,1.705-1.075c0,0,0.134-0.312,1.074,0
		c0,0,4.571,1.885,6.502-4.706c0,0,0.223,1.165,0.716,0.984c0,0,0.448,0.314,0-3.004c0,0,0.984,0.314,2.733-0.896
		c0,0,1.658,0.627,1.703,0c0,0,0.066-0.183-0.181-0.358c0,0,0.27-0.517-0.426-1.008c0,0-0.226-0.182-0.066-0.292
		c0,0,0.066-0.403-0.426-0.313c0,0-2.04,0.091-2.913-0.27c0,0-0.718-0.337-1.166-0.229c0,0-1.076-0.535-0.831,0.36
		c0,0,0.09,0.516-0.448,0.808c0,0-0.398-0.021-0.379,1.277c0,0-0.539,3.138-2.847,3.788c0,0-1.323,0.224-2.422-1.412
		c0,0-1.393-2.396-3.968-2.624c0,0-1.569,0.045-2.646-1.344c0,0-0.852-1.883-2.868-1.794c0,0-2.22-0.156-3.854,2.938
		c0,0-1.001,1.684-2.787,2.02c0,0-2.479,0.692-2.479,2.913c0,0-0.156,2.331,0.695,3.968c0,0,0.649,1.276,0.446,3.744
		c0,0,0.021,1.142-0.335,2.6c0,0-0.089,0.538,0.199,1.031C418.354,676.746,419.699,678.427,420.306,681.565z"/>
</g>
</svg>
