<?xml version="1.0" encoding="utf-8"?>
<!-- Generator: Adobe Illustrator 15.1.0, SVG Export Plug-In . SVG Version: 6.00 Build 0)  -->
<!DOCTYPE svg PUBLIC "-//W3C//DTD SVG 1.1//EN" "http://www.w3.org/Graphics/SVG/1.1/DTD/svg11.dtd">
<svg version="1.1" id="Layer_1" xmlns="http://www.w3.org/2000/svg" xmlns:xlink="http://www.w3.org/1999/xlink" x="0px" y="0px"
	 width="536.379px" height="780.521px" viewBox="0 0 536.379 780.521" enable-background="new 0 0 536.379 780.521"
	 xml:space="preserve">
<g>
	<path fill="#6ABCC3" d="M330.795,47.392l-2.104,10.53c18.959,9.479,17.901,17.903,17.901,17.903
		c20.01,5.263,109.521,70.558,109.521,70.558c43.176,28.433,43.176,48.442,43.176,48.442
		c50.553,211.678,34.752,419.134,34.752,419.134c-26.328,106.364-67.396,119.005-67.396,119.005
		C435.049,754.024,331.852,779.3,331.852,779.3c-36.859,7.373-57.922-21.062-57.922-21.062c-20.01-28.437-41.069,0-41.069,0
		c-16.853,31.595-57.922,15.798-57.922,15.798c-17.903-3.157-101.101-38.964-101.101-38.964
		c-61.081-27.386-73.72-130.586-73.72-130.586c-1.052-20.013,5.267-153.751,5.267-153.751
		c4.915-23.522,67.401-314.881,67.401-314.881c12.635-31.595,121.105-69.508,121.105-69.508v-5.267
		c7.373-1.051,12.637-6.318,12.637-6.318l1.055-4.212l-3.161-6.318l8.424-12.636l2.175-18.333l100.026,15.161L330.795,47.392z
		 M163.352,163.23c0,0-30.543-35.806-51.604,10.534c0,0-23.17,112.683-9.479,171.655c0,0,5.267,15.797,15.798,7.373l11.584-4.212
		C129.651,348.581,139.13,358.056,163.352,163.23z"/>
	<path fill="#19152B" d="M210.215,35.279c0,0,45.303,0.528,111.104,0.528V0h-108.95L210.215,35.279z"/>
</g>
<rect x="56.69" y="386.761" fill="none" width="434" height="82"/>
<text transform="matrix(1 0 0 1 95.6416 406.4434)" font-family="'Interstate-Regular'" font-size="27">number of gallons needed to</text>
<text transform="matrix(1 0 0 1 92.0498 438.8438)" fill="#19152B" font-family="'Interstate-Regular'" font-size="27">fill the Great Pyramid of Giza</text>
<text transform="matrix(1 0 0 1 193.3496 288.8154)" fill="#19152B" font-family="'Interstate-Bold'" font-size="120">660</text>
<text transform="matrix(1 0 0 1 235.4888 350.21)" fill="#19152B" font-family="'Interstate-Bold'" font-size="50">million</text>
<path fill="#19152B" d="M469.439,642.692L315.95,665.552L66.939,636.979l196.76-169.003c0,0,6.531-6.122,13.062-6.122
	c0,0,4.897-0.816,13.062,7.757L469.439,642.692z"/>
<line fill="none" stroke="#6ABDC4" stroke-width="0.5" stroke-miterlimit="10" x1="276.762" y1="461.853" x2="315.95" y2="665.552"/>
<g>
	<path fill="#19152B" d="M417.335,669.237c0,0-1.187,0.428-0.49,2.116c0.018,0.043,0.034,0.082,0.054,0.125
		c0.808,1.793,0.763,1.165,0.896,1.211c0,0,1.166-1.66,1.928-2.779l-1.548-1.076l-0.82-2.33
		C417.354,666.504,416.831,668.609,417.335,669.237z"/>
	<path fill="#19152B" d="M419.961,677.51c0,0,0.859,1.791,1.263,2.688c0,0,0.135,0.739,0.874,0.763c0,0,1.456,0.111,1.21-0.382
		c0,0-0.089-0.403-1.275-0.583c0,0-1.279-1.232-1.638-4.505c0,0-0.112-3.476,0.402-4.35
		C421.312,670.269,417.824,674.73,419.961,677.51z"/>
	<path fill="#19152B" d="M420.306,681.565c0,0,0.044,0.628,0.401,0.628c0,0,1.099,0.179,1.705-0.427c0,0-1.615-0.447-2.106-2.512
		c0,0-1.188-4.192,0.18-7.016c0,0,1.523-1.569,2.286-3.677c0,0,1.973,2.513,7.62,1.347c0,0,0.808-0.089,0.985-0.067
		c0,0,0.091,2.532-0.672,3.832c0,0-0.718,0.942-0.494,2.734l-0.134,4.26c0,0-0.358,0.896,0.045,1.121c0,0,1.435,0.356,1.794-0.314
		c0,0-0.986-0.402-0.852-0.896c0,0,1.164,0.135,1.389-0.358c0,0-1.434-0.091-1.255-0.986l-0.045-2.645c0,0,0.763-0.987,0.829-2.87
		c0,0,0.11-1.119,0.649-1.389c0,0,0.941-0.854,0.985-2.69c0,0,1.436-0.181,1.705-1.076c0,0,0.134-0.312,1.075,0
		c0,0,4.572,1.884,6.501-4.706c0,0,0.223,1.165,0.716,0.985c0,0,0.449,0.314,0-3.004c0,0,0.986,0.314,2.735-0.896
		c0,0,1.658,0.627,1.703,0c0,0,0.066-0.181-0.181-0.358c0,0,0.27-0.517-0.426-1.008c0,0-0.224-0.18-0.066-0.292
		c0,0,0.066-0.403-0.426-0.313c0,0-2.04,0.09-2.913-0.27c0,0-0.718-0.337-1.166-0.227c0,0-1.076-0.536-0.831,0.36
		c0,0,0.09,0.516-0.448,0.808c0,0-0.4-0.021-0.379,1.277c0,0-0.539,3.138-2.847,3.788c0,0-1.323,0.224-2.422-1.412
		c0,0-1.391-2.397-3.968-2.624c0,0-1.569,0.045-2.646-1.344c0,0-0.852-1.883-2.868-1.794c0,0-2.22-0.156-3.855,2.938
		c0,0-1.001,1.682-2.787,2.018c0,0-2.479,0.694-2.479,2.913c0,0-0.157,2.332,0.695,3.968c0,0,0.649,1.277,0.446,3.744
		c0,0,0.023,1.142-0.335,2.6c0,0-0.089,0.538,0.201,1.031C418.354,676.746,419.699,678.427,420.306,681.565z"/>
</g>
</svg>
