<?xml version="1.0" encoding="utf-8"?>
<!-- Generator: Adobe Illustrator 15.1.0, SVG Export Plug-In . SVG Version: 6.00 Build 0)  -->
<!DOCTYPE svg PUBLIC "-//W3C//DTD SVG 1.1//EN" "http://www.w3.org/Graphics/SVG/1.1/DTD/svg11.dtd">
<svg version="1.1" id="Layer_1" xmlns="http://www.w3.org/2000/svg" xmlns:xlink="http://www.w3.org/1999/xlink" x="0px" y="0px"
	 width="536.379px" height="780.521px" viewBox="0 0 536.379 780.521" enable-background="new 0 0 536.379 780.521"
	 xml:space="preserve">
<rect x="56.69" y="386.761" fill="none" width="434" height="82"/>
<g enable-background="new    ">
	<path d="M91.548,408.631l-8.37-13.17c-0.51-0.779-1.23-2.039-1.56-2.579c0,0.779,0.03,3.689,0.03,4.859v10.89h-3.06v-20.999h3.21
		l7.979,12.81c0.54,0.87,1.44,2.43,1.74,2.97c0-0.78-0.03-3.78-0.03-4.95v-10.829h3.06v20.999H91.548z"/>
	<path d="M109.008,408.631v-1.5c-0.78,1.14-2.34,1.83-3.96,1.83c-3.66,0-5.609-2.4-5.609-7.05v-9.029h3.09v8.909
		c0,3.18,1.2,4.32,3.24,4.32c2.07,0,3.24-1.471,3.24-4.021v-9.209h3.09v15.749H109.008z"/>
	<path d="M134.957,408.631v-8.909c0-3.181-0.99-4.32-3.03-4.32c-2.07,0-3.03,1.47-3.03,4.02v9.21h-3.09v-8.909
		c0-3.181-0.99-4.32-3.03-4.32c-2.07,0-3.03,1.47-3.03,4.02v9.21h-3.09v-15.749h3.09v1.5c0.78-1.141,2.13-1.83,3.75-1.83
		c2.13,0,3.48,0.81,4.32,2.31c1.14-1.41,2.37-2.31,4.83-2.31c3.66,0,5.4,2.399,5.4,7.05v9.029H134.957z"/>
	<path d="M149.507,408.961c-1.59,0-3.09-0.84-3.96-1.8v1.47h-3.06v-20.279l3.06-1.59v7.62c1.14-1.051,2.46-1.83,4.11-1.83
		c3.39,0,6.06,2.46,6.06,8.459C155.717,406.411,152.777,408.961,149.507,408.961z M149.087,395.401c-1.47,0-2.76,0.99-3.57,2.01
		v6.63c0.69,0.93,2.13,2.07,3.69,2.07c2.22,0,3.42-1.681,3.42-5.01C152.627,397.142,151.367,395.401,149.087,395.401z"/>
	<path d="M172.277,401.852h-10.41c0.33,3.029,2.04,4.319,3.96,4.319c1.32,0,2.37-0.479,3.42-1.26l1.83,1.979
		c-1.38,1.32-3.03,2.07-5.43,2.07c-3.69,0-6.81-2.97-6.81-8.189c0-5.34,2.82-8.22,6.9-8.22c4.47,0,6.63,3.63,6.63,7.89
		C172.367,401.011,172.307,401.521,172.277,401.852z M165.527,395.342c-2.07,0-3.33,1.439-3.6,3.959h7.32
		C169.097,397.142,168.077,395.342,165.527,395.342z"/>
	<path d="M184.756,396.151c-0.66-0.36-1.35-0.57-2.37-0.57c-1.95,0-3.09,1.38-3.09,4.05v9h-3.09v-15.749h3.09v1.5
		c0.72-1.051,2.04-1.83,3.6-1.83c1.26,0,2.04,0.239,2.67,0.66L184.756,396.151z"/>
	<path d="M203.026,408.961c-3.959,0-6.93-3.27-6.93-8.189c0-5.16,3.06-8.22,7.02-8.22c4.02,0,7.02,3.21,7.02,8.13
		C210.136,405.901,207.076,408.961,203.026,408.961z M202.996,395.491c-2.34,0-3.78,2.07-3.78,5.19c0,3.449,1.59,5.339,3.93,5.339
		s3.87-2.369,3.87-5.249C207.016,397.562,205.486,395.491,202.996,395.491z"/>
	<path d="M219.076,389.552c-1.02,0-1.44,0.39-1.44,1.53v1.8h2.91v2.88h-2.91v12.869h-3.09v-12.869h-2.04v-2.88h2.04v-2.07
		c0-2.88,1.77-3.96,3.99-3.96c0.81,0,1.68,0.12,2.34,0.3v2.7C220.156,389.642,219.616,389.552,219.076,389.552z"/>
	<path d="M237.556,414.421l-1.05-2.34c4.44-0.21,5.4-1.41,5.4-4.68v-0.271c-1.14,1.05-2.43,1.83-4.08,1.83
		c-3.36,0-6.06-2.46-6.06-8.46c0-5.399,2.97-7.949,6.21-7.949c1.59,0,3.09,0.84,3.93,1.8v-1.47h3.09v14.249
		C244.995,411.931,243.255,414.24,237.556,414.421z M241.965,397.472c-0.69-0.931-2.13-2.07-3.69-2.07c-2.22,0-3.42,1.68-3.42,5.01
		c0,3.96,1.26,5.7,3.54,5.7c1.47,0,2.76-0.99,3.57-2.011V397.472z"/>
	<path d="M258.585,408.631v-1.56c-1.08,1.079-2.61,1.89-4.32,1.89c-2.55,0-5.46-1.44-5.46-5.31c0-3.51,2.7-5.101,6.27-5.101
		c1.47,0,2.64,0.211,3.51,0.601v-1.17c0-1.71-1.05-2.67-2.97-2.67c-1.62,0-2.88,0.3-4.11,0.99l-1.2-2.34
		c1.5-0.931,3.18-1.41,5.4-1.41c3.51,0,5.91,1.71,5.91,5.279v10.8H258.585z M258.585,401.911c-0.84-0.42-1.92-0.69-3.6-0.69
		c-1.979,0-3.24,0.9-3.24,2.341c0,1.56,0.99,2.609,3.03,2.609c1.65,0,3.09-1.02,3.81-2.01V401.911z"/>
	<path d="M266.205,408.631v-20.249l3.09-1.62v21.869H266.205z"/>
	<path d="M274.155,408.631v-20.249l3.09-1.62v21.869H274.155z"/>
	<path d="M288.135,408.961c-3.959,0-6.93-3.27-6.93-8.189c0-5.16,3.061-8.22,7.02-8.22c4.02,0,7.02,3.21,7.02,8.13
		C295.244,405.901,292.185,408.961,288.135,408.961z M288.105,395.491c-2.34,0-3.78,2.07-3.78,5.19c0,3.449,1.59,5.339,3.93,5.339
		s3.87-2.369,3.87-5.249C292.125,397.562,290.595,395.491,288.105,395.491z"/>
	<path d="M308.625,408.631v-8.909c0-3.181-1.2-4.32-3.24-4.32c-2.07,0-3.24,1.47-3.24,4.02v9.21h-3.09v-15.749h3.09v1.5
		c0.781-1.141,2.34-1.83,3.961-1.83c3.659,0,5.609,2.399,5.609,7.05v9.029H308.625z"/>
	<path d="M321.255,408.961c-2.13,0-4.44-0.84-6.03-2.01l1.41-2.34c1.471,1.02,3.12,1.56,4.59,1.56c1.95,0,2.88-0.63,2.88-1.74
		c0-1.199-1.38-1.77-3.659-2.64c-3.391-1.32-4.621-2.46-4.621-4.949c0-2.82,2.221-4.29,5.371-4.29c1.979,0,3.93,0.72,5.34,1.739
		l-1.351,2.37c-1.29-0.899-2.58-1.35-4.08-1.35c-1.499,0-2.159,0.6-2.159,1.439c0,0.78,0.539,1.351,2.909,2.28
		c3.511,1.35,5.31,2.31,5.31,5.279C327.164,407.791,324.345,408.961,321.255,408.961z"/>
	<path d="M346.754,408.241c-0.75,0.42-1.8,0.72-3.029,0.72c-2.19,0-3.541-1.35-3.541-4.17v-9.09h-2.25v-2.819h2.25v-4.5l3.03-1.62
		v6.12h3.899v2.819h-3.899v8.55c0,1.47,0.479,1.89,1.62,1.89c0.811,0,1.71-0.3,2.279-0.63L346.754,408.241z"/>
	<path d="M360.884,408.631v-8.909c0-3.181-1.2-4.32-3.239-4.32c-2.07,0-3.24,1.47-3.24,4.02v9.21h-3.09v-20.249l3.09-1.62v7.62
		c0.779-1.141,2.34-1.83,3.959-1.83c3.66,0,5.61,2.399,5.61,7.05v9.029H360.884z"/>
	<path d="M377.443,408.631v-1.56c-1.08,1.079-2.609,1.89-4.319,1.89c-2.55,0-5.46-1.44-5.46-5.31c0-3.51,2.7-5.101,6.27-5.101
		c1.471,0,2.641,0.211,3.51,0.601v-1.17c0-1.71-1.049-2.67-2.969-2.67c-1.621,0-2.881,0.3-4.11,0.99l-1.2-2.34
		c1.5-0.931,3.18-1.41,5.4-1.41c3.51,0,5.909,1.71,5.909,5.279v10.8H377.443z M377.443,401.911c-0.84-0.42-1.92-0.69-3.6-0.69
		c-1.979,0-3.24,0.9-3.24,2.341c0,1.56,0.99,2.609,3.03,2.609c1.649,0,3.09-1.02,3.81-2.01V401.911z"/>
	<path d="M392.443,408.241c-0.75,0.42-1.8,0.72-3.03,0.72c-2.189,0-3.539-1.35-3.539-4.17v-9.09h-2.25v-2.819h2.25v-4.5l3.029-1.62
		v6.12h3.9v2.819h-3.9v8.55c0,1.47,0.48,1.89,1.62,1.89c0.81,0,1.71-0.3,2.28-0.63L392.443,408.241z"/>
	<path d="M419.473,408.631h-2.64l-2.13-7.949c-0.33-1.2-0.66-2.61-0.811-3.36c-0.149,0.75-0.479,2.19-0.81,3.39l-2.1,7.92h-2.641
		l-4.319-15.749h3.06l1.86,7.649c0.3,1.2,0.63,2.7,0.779,3.45c0.181-0.78,0.54-2.221,0.87-3.45l2.1-7.649h2.49l2.13,7.68
		c0.33,1.229,0.66,2.64,0.84,3.42c0.181-0.78,0.48-2.25,0.78-3.45l1.86-7.649h3.06L419.473,408.631z"/>
	<path d="M432.974,408.961c-3.96,0-6.93-3.27-6.93-8.189c0-5.16,3.06-8.22,7.02-8.22c4.02,0,7.02,3.21,7.02,8.13
		C440.083,405.901,437.023,408.961,432.974,408.961z M432.943,395.491c-2.34,0-3.78,2.07-3.78,5.19c0,3.449,1.59,5.339,3.931,5.339
		c2.34,0,3.869-2.369,3.869-5.249C436.963,397.562,435.434,395.491,432.943,395.491z"/>
	<path d="M453.343,408.631v-1.5c-0.78,1.14-2.34,1.83-3.96,1.83c-3.66,0-5.609-2.4-5.609-7.05v-9.029h3.09v8.909
		c0,3.18,1.2,4.32,3.239,4.32c2.07,0,3.24-1.471,3.24-4.021v-9.209h3.09v15.749H453.343z"/>
	<path d="M461.143,408.631v-20.249l3.09-1.62v21.869H461.143z"/>
	<path d="M478.423,408.631v-1.5c-1.141,1.05-2.46,1.83-4.11,1.83c-3.39,0-6.06-2.46-6.06-8.46c0-5.399,2.94-7.949,6.21-7.949
		c1.59,0,3.09,0.84,3.96,1.8v-6l3.06-1.59v21.869H478.423z M478.452,397.472c-0.689-0.931-2.13-2.07-3.689-2.07
		c-2.22,0-3.42,1.68-3.42,5.01c0,3.96,1.26,5.7,3.54,5.7c1.47,0,2.76-0.99,3.569-2.011V397.472z"/>
</g>
<g enable-background="new    ">
	<path d="M108.377,425.552c-1.02,0-1.44,0.39-1.44,1.53v1.8h2.91v2.88h-2.91v12.869h-3.09v-12.869h-2.04v-2.88h2.04v-2.07
		c0-2.88,1.77-3.96,3.99-3.96c0.81,0,1.68,0.12,2.34,0.3v2.7C109.457,425.642,108.917,425.552,108.377,425.552z M115.157,426.842
		c-1.11,0-2.01-0.9-2.01-1.98c0-1.109,0.9-2.01,2.01-2.01c1.08,0,1.979,0.9,1.979,2.01
		C117.137,425.941,116.237,426.842,115.157,426.842z M113.597,444.631v-15.749h3.09v15.749H113.597z"/>
	<path d="M121.547,444.631v-20.249l3.09-1.62v21.869H121.547z"/>
	<path d="M129.497,444.631v-20.249l3.09-1.62v21.869H129.497z"/>
	<path d="M154.427,444.631v-1.56c-1.08,1.079-2.61,1.89-4.32,1.89c-2.55,0-5.46-1.44-5.46-5.31c0-3.51,2.7-5.101,6.27-5.101
		c1.47,0,2.64,0.211,3.51,0.601v-1.17c0-1.71-1.05-2.67-2.97-2.67c-1.62,0-2.88,0.3-4.11,0.99l-1.2-2.34
		c1.5-0.931,3.18-1.41,5.4-1.41c3.51,0,5.91,1.71,5.91,5.279v10.8H154.427z M154.427,437.911c-0.84-0.42-1.92-0.69-3.6-0.69
		c-1.979,0-3.24,0.9-3.24,2.341c0,1.56,0.99,2.609,3.03,2.609c1.65,0,3.09-1.02,3.81-2.01V437.911z"/>
	<path d="M175.096,444.961c-2.13,0-4.44-0.84-6.03-2.01l1.41-2.34c1.47,1.02,3.12,1.56,4.59,1.56c1.95,0,2.88-0.63,2.88-1.74
		c0-1.199-1.38-1.77-3.66-2.64c-3.39-1.32-4.62-2.46-4.62-4.949c0-2.82,2.22-4.29,5.37-4.29c1.98,0,3.93,0.72,5.34,1.739l-1.35,2.37
		c-1.29-0.899-2.58-1.35-4.08-1.35c-1.5,0-2.16,0.6-2.16,1.439c0,0.78,0.54,1.351,2.91,2.28c3.51,1.35,5.31,2.31,5.31,5.279
		C181.006,443.791,178.186,444.961,175.096,444.961z"/>
	<path d="M192.196,444.241c-0.75,0.42-1.8,0.72-3.03,0.72c-2.19,0-3.54-1.35-3.54-4.17v-9.09h-2.25v-2.819h2.25v-4.5l3.03-1.62v6.12
		h3.9v2.819h-3.9v8.55c0,1.47,0.48,1.89,1.62,1.89c0.81,0,1.71-0.3,2.28-0.63L192.196,444.241z"/>
	<path d="M205.336,444.631v-1.56c-1.08,1.079-2.61,1.89-4.32,1.89c-2.55,0-5.46-1.44-5.46-5.31c0-3.51,2.7-5.101,6.27-5.101
		c1.47,0,2.64,0.211,3.51,0.601v-1.17c0-1.71-1.05-2.67-2.97-2.67c-1.62,0-2.88,0.3-4.11,0.99l-1.2-2.34
		c1.5-0.931,3.18-1.41,5.4-1.41c3.51,0,5.91,1.71,5.91,5.279v10.8H205.336z M205.336,437.911c-0.84-0.42-1.92-0.69-3.6-0.69
		c-1.979,0-3.24,0.9-3.24,2.341c0,1.56,0.99,2.609,3.03,2.609c1.65,0,3.09-1.02,3.81-2.01V437.911z"/>
	<path d="M222.375,444.631v-8.909c0-3.181-1.2-4.32-3.24-4.32c-2.07,0-3.24,1.47-3.24,4.02v9.21h-3.09v-15.749h3.09v1.5
		c0.78-1.141,2.34-1.83,3.96-1.83c3.66,0,5.61,2.399,5.61,7.05v9.029H222.375z"/>
	<path d="M239.386,444.631v-1.5c-1.14,1.05-2.46,1.83-4.11,1.83c-3.39,0-6.06-2.46-6.06-8.46c0-5.399,2.94-7.949,6.21-7.949
		c1.59,0,3.09,0.84,3.96,1.8v-6l3.06-1.59v21.869H239.386z M239.416,433.472c-0.69-0.931-2.13-2.07-3.69-2.07
		c-2.22,0-3.42,1.68-3.42,5.01c0,3.96,1.26,5.7,3.54,5.7c1.47,0,2.76-0.99,3.57-2.011V433.472z"/>
	<path d="M256.035,444.631v-1.56c-1.08,1.079-2.61,1.89-4.32,1.89c-2.55,0-5.46-1.44-5.46-5.31c0-3.51,2.7-5.101,6.27-5.101
		c1.47,0,2.64,0.211,3.51,0.601v-1.17c0-1.71-1.05-2.67-2.97-2.67c-1.62,0-2.88,0.3-4.11,0.99l-1.2-2.34
		c1.5-0.931,3.18-1.41,5.4-1.41c3.51,0,5.91,1.71,5.91,5.279v10.8H256.035z M256.035,437.911c-0.84-0.42-1.92-0.69-3.6-0.69
		c-1.979,0-3.24,0.9-3.24,2.341c0,1.56,0.99,2.609,3.03,2.609c1.65,0,3.09-1.02,3.81-2.01V437.911z"/>
	<path d="M272.055,432.151c-0.66-0.36-1.35-0.57-2.37-0.57c-1.95,0-3.09,1.38-3.09,4.05v9h-3.09v-15.749h3.09v1.5
		c0.72-1.051,2.04-1.83,3.601-1.83c1.26,0,2.039,0.239,2.67,0.66L272.055,432.151z"/>
	<path d="M284.685,444.631v-1.5c-1.14,1.05-2.46,1.83-4.109,1.83c-3.39,0-6.06-2.46-6.06-8.46c0-5.399,2.939-7.949,6.209-7.949
		c1.59,0,3.09,0.84,3.96,1.8v-6l3.06-1.59v21.869H284.685z M284.715,433.472c-0.689-0.931-2.13-2.07-3.689-2.07
		c-2.221,0-3.42,1.68-3.42,5.01c0,3.96,1.26,5.7,3.539,5.7c1.471,0,2.76-0.99,3.57-2.011V433.472z"/>
	<path d="M305.504,444.961c-2.129,0-4.439-0.84-6.029-2.01l1.41-2.34c1.47,1.02,3.119,1.56,4.59,1.56c1.949,0,2.879-0.63,2.879-1.74
		c0-1.199-1.379-1.77-3.659-2.64c-3.39-1.32-4.62-2.46-4.62-4.949c0-2.82,2.221-4.29,5.37-4.29c1.979,0,3.93,0.72,5.34,1.739
		l-1.351,2.37c-1.289-0.899-2.58-1.35-4.08-1.35c-1.499,0-2.159,0.6-2.159,1.439c0,0.78,0.54,1.351,2.909,2.28
		c3.511,1.35,5.311,2.31,5.311,5.279C311.414,443.791,308.594,444.961,305.504,444.961z"/>
	<path d="M324.975,433.411c-1.291-1.319-2.431-1.92-3.84-1.92c-2.25,0-3.69,2.01-3.69,5.22c0,3.09,1.319,5.31,3.78,5.31
		c1.469,0,2.34-0.659,3.569-1.949l1.979,1.949c-1.229,1.561-2.789,2.94-5.639,2.94c-3.84,0-6.811-3.24-6.811-8.16
		c0-5.22,3.061-8.249,6.9-8.249c2.31,0,4.109,0.93,5.579,2.67L324.975,433.411z"/>
	<path d="M340.304,444.631v-8.909c0-3.181-1.2-4.32-3.239-4.32c-2.07,0-3.24,1.47-3.24,4.02v9.21h-3.09v-20.249l3.09-1.62v7.62
		c0.779-1.141,2.34-1.83,3.959-1.83c3.66,0,5.61,2.399,5.61,7.05v9.029H340.304z"/>
	<path d="M354.014,444.961c-3.96,0-6.93-3.27-6.93-8.189c0-5.16,3.06-8.22,7.02-8.22c4.02,0,7.02,3.21,7.02,8.13
		C361.123,441.901,358.062,444.961,354.014,444.961z M353.983,431.491c-2.34,0-3.78,2.07-3.78,5.19c0,3.449,1.59,5.339,3.93,5.339
		s3.871-2.369,3.871-5.249C358.004,433.562,356.473,431.491,353.983,431.491z"/>
	<path d="M371.113,444.961c-3.959,0-6.93-3.27-6.93-8.189c0-5.16,3.061-8.22,7.02-8.22c4.02,0,7.02,3.21,7.02,8.13
		C378.223,441.901,375.163,444.961,371.113,444.961z M371.084,431.491c-2.34,0-3.78,2.07-3.78,5.19c0,3.449,1.59,5.339,3.93,5.339
		s3.87-2.369,3.87-5.249C375.104,433.562,373.573,431.491,371.084,431.491z"/>
	<path d="M382.184,444.631v-20.249l3.09-1.62v21.869H382.184z"/>
	<path d="M405.104,444.961c-1.591,0-3.09-0.84-3.961-1.8v1.47h-3.06v-20.279l3.06-1.59v7.62c1.141-1.051,2.461-1.83,4.11-1.83
		c3.39,0,6.06,2.46,6.06,8.459C411.312,442.411,408.373,444.961,405.104,444.961z M404.683,431.401c-1.47,0-2.76,0.99-3.569,2.01
		v6.63c0.689,0.93,2.13,2.07,3.689,2.07c2.22,0,3.42-1.681,3.42-5.01C408.223,433.142,406.963,431.401,404.683,431.401z"/>
	<path d="M424.632,444.631v-1.5c-0.78,1.14-2.34,1.83-3.96,1.83c-3.66,0-5.609-2.4-5.609-7.05v-9.029h3.09v8.909
		c0,3.18,1.2,4.32,3.239,4.32c2.07,0,3.24-1.471,3.24-4.021v-9.209h3.09v15.749H424.632z"/>
	<path d="M437.383,444.961c-2.13,0-4.44-0.84-6.03-2.01l1.41-2.34c1.47,1.02,3.12,1.56,4.59,1.56c1.95,0,2.88-0.63,2.88-1.74
		c0-1.199-1.38-1.77-3.66-2.64c-3.39-1.32-4.619-2.46-4.619-4.949c0-2.82,2.22-4.29,5.369-4.29c1.98,0,3.931,0.72,5.34,1.739
		l-1.35,2.37c-1.29-0.899-2.58-1.35-4.08-1.35s-2.16,0.6-2.16,1.439c0,0.78,0.54,1.351,2.91,2.28c3.51,1.35,5.31,2.31,5.31,5.279
		C443.292,443.791,440.473,444.961,437.383,444.961z"/>
</g>
<g enable-background="new    ">
	<path d="M259.256,288.815v-60.718h-14.399v-12.359c9.36-0.479,15.479-3.96,17.159-10.919h13.92v83.996H259.256z"/>
	<path d="M328.494,290.136c-21.719,0-35.158-9.96-35.158-26.52c0-11.64,6.959-17.639,13.319-20.398c-6-3.24-9.72-8.521-9.72-14.76
		c0-16.56,13.92-24.959,31.559-24.959c16.56,0,31.559,7.8,31.559,24.239c0,5.999-3.24,11.879-9.719,15.479
		c6.479,2.999,13.318,8.879,13.318,19.559C363.652,279.696,350.213,290.136,328.494,290.136z M328.494,251.377
		c-12.6,0-18.359,4.68-18.359,11.88c0,7.68,7.68,12.119,18.359,12.119c11.52,0,18.359-4.32,18.359-12
		S341.214,251.377,328.494,251.377z M328.494,218.019c-10.439,0-14.76,4.56-14.76,9.959c0,5.4,5.04,9.6,14.76,9.6
		c10.32,0,14.76-3.959,14.76-9.479C343.254,222.698,339.533,218.019,328.494,218.019z"/>
</g>
<g enable-background="new    ">
	<path d="M213.422,349.16c-1.15,0.899-3.2,1.6-5.35,1.6c-4.25,0-7-3.3-7-7.9v-12.4h-4.4v-6.501h4.4v-6.75l6.9-3.45v10.2h6.3v6.501
		h-6.3v10.551c0,2.5,0.9,3.149,2.55,3.149c1.25,0,2.2-0.55,3.9-2L213.422,349.16z"/>
	<path d="M236.722,350.21v-14.201c0-4.7-1.6-6.1-4.45-6.1s-4.5,1.399-4.5,5.95v14.351h-6.9v-33.002l6.9-3.45v11.95
		c1.2-1.25,3.4-2.3,6.15-2.3c6.701,0,9.701,4.601,9.701,12.001v14.801H236.722z"/>
	<path d="M260.572,350.76c-6.851,0-11.851-5.601-11.851-13.65c0-8.051,5-13.701,11.851-13.701c6.85,0,11.901,5.65,11.901,13.701
		C272.473,345.159,267.422,350.76,260.572,350.76z M260.572,330.059c-3.3,0-4.851,3-4.851,7.051c0,4.05,1.55,7,4.851,7
		c3.3,0,4.9-3.35,4.9-7C265.472,333.109,263.872,330.059,260.572,330.059z"/>
	<path d="M293.422,350.21v-1.75c-1.201,1.25-3.4,2.3-6.15,2.3c-6.701,0-9.701-4.6-9.701-12.001v-14.801h6.9v14.201
		c0,4.7,1.6,6.101,4.45,6.101s4.501-1.4,4.501-5.95v-14.352h6.9v26.252H293.422z"/>
	<path d="M317.071,350.76c-4.15,0-8.2-1.2-11.001-3.05l2.301-5.25c2.8,1.55,5.75,2.399,9.1,2.399c2.701,0,3.501-0.649,3.501-2
		c0-1.2-0.95-1.8-3.851-2.65c-6.301-1.899-10.351-3.45-10.351-9c0-5.45,4.351-7.801,10.501-7.801c3.3,0,6.9,1,9.7,2.55l-2.2,5.451
		c-2.6-1.4-5.45-2.101-7.65-2.101c-2.8,0-3.551,0.55-3.551,1.7c0,1.1,0.801,1.55,5.451,3.05c4.7,1.551,8.75,3.251,8.75,8.501
		C327.771,348.61,322.972,350.76,317.071,350.76z"/>
	<path d="M348.071,350.21v-1.75c-1.251,1.3-3.45,2.3-5.9,2.3c-4.9,0-9.801-3-9.801-9.351c0-5.8,4.7-8.7,10.651-8.7
		c2.399,0,3.949,0.5,5.05,1.05v-1.3c0-1.851-1.251-3.351-3.751-3.351c-3.149,0-4.8,0.45-7.199,1.75l-2.65-4.8
		c3.05-1.75,5.6-2.65,9.85-2.65c6.352,0,10.651,3.301,10.651,9.2v17.602H348.071z M348.071,339.209c-1.2-0.75-2.351-1.1-4.8-1.1
		c-2.602,0-4.001,1.2-4.001,3.3c0,1.851,1.05,3.5,4.001,3.5c2.25,0,4.05-1.149,4.8-2.399V339.209z"/>
	<path d="M377.271,350.21v-14.201c0-4.7-1.6-6.1-4.45-6.1s-4.501,1.399-4.501,5.95v14.351h-6.9v-26.252h6.9v1.75
		c1.201-1.25,3.4-2.3,6.15-2.3c6.701,0,9.701,4.601,9.701,12.001v14.801H377.271z"/>
	<path d="M405.021,350.21v-1.65c-1.301,1.15-3.051,2.2-5.551,2.2c-5.6,0-10.201-4.2-10.201-14.001
		c0-7.851,3.701-13.351,10.201-13.351c2.301,0,4.301,0.9,5.551,2.05v-8.25l6.9-3.45v36.452H405.021z M405.021,332.159
		c-1.051-1.45-2.65-2.25-4.65-2.25c-2.65,0-4.101,2.3-4.101,6.7c0,5.4,1.8,7.65,4.501,7.65c2.149,0,3.25-0.9,4.25-2.2V332.159z"/>
</g>
<g>
	<ellipse stroke="#6ABDC4" stroke-width="0.5" stroke-miterlimit="10" cx="68.62" cy="566.083" rx="1.625" ry="3.742"/>
	<rect x="285.439" y="571.761" stroke="#6ABDC4" stroke-width="0.5" stroke-miterlimit="10" width="62.75" height="36.959"/>
	<path stroke="#6ABDC4" stroke-width="0.5" stroke-miterlimit="10" d="M113.565,613.136h2.625v-3.75h41.5c0,0,1,5.75,10.084,6
		h18.166c0,0,6.75-0.833,8.084-6.083h98.833c0,0,3.166-19.417,25.332-19.083c0,0,16-0.584,25.084,18.5h75.334h13.834l-4.752-79.834
		c0,0,0.329-12.333-8.334-11.666H157.523c0,0-5,0.333-8-1.167c0,0-31.833-4-32,4.167c0,0-0.333,1,0.667,1.5v4.5v37.332
		c0,0-27.75-0.082-47.375,2.959c0,0-9,0.75-9.25,8v21.625c0,0,2.125,1.625,1,3c0,0-4.875,2.625-4.125,7.5
		c0,0,0.25,4.875,3.125,5.375c0,0,2.375,0.5,3.875-2L113.565,613.136z"/>
	<circle stroke="#6ABDC4" stroke-width="0.5" stroke-miterlimit="10" cx="88.995" cy="614.581" r="18.75"/>
	<circle stroke="#6ABDC4" stroke-width="0.5" stroke-miterlimit="10" cx="88.995" cy="614.579" r="11.75"/>
	<circle stroke="#6ABDC4" stroke-width="0.5" stroke-miterlimit="10" cx="88.995" cy="614.58" r="5.083"/>
	<circle stroke="#6ABDC4" stroke-width="0.5" stroke-miterlimit="10" cx="318.186" cy="614.581" r="18.75"/>
	<circle stroke="#6ABDC4" stroke-width="0.5" stroke-miterlimit="10" cx="318.186" cy="614.579" r="11.75"/>
	<circle stroke="#6ABDC4" stroke-width="0.5" stroke-miterlimit="10" cx="318.188" cy="614.58" r="5.083"/>
	<path fill="none" stroke="#6ABDC4" stroke-width="0.5" stroke-miterlimit="10" d="M114.94,578.011H61.565
		c0,0-5.782-1.625-3.203-7.375"/>
	
		<line fill="none" stroke="#6ABDC4" stroke-width="0.5" stroke-miterlimit="10" x1="103.19" y1="565.229" x2="103.19" y2="578.011"/>
	<path stroke="#6ABDC4" stroke-width="0.5" stroke-miterlimit="10" d="M104.139,580.636c0,0,13.301,12.75,13.176,28.125"/>
	
		<line fill="none" stroke="#6ABDC4" stroke-width="0.5" stroke-miterlimit="10" x1="124.94" y1="537.386" x2="124.94" y2="606.136"/>
	
		<line fill="none" stroke="#6ABDC4" stroke-width="0.5" stroke-miterlimit="10" x1="124.94" y1="568.386" x2="429.936" y2="568.386"/>
	
		<line fill="none" stroke="#6ABDC4" stroke-width="0.5" stroke-miterlimit="10" x1="124.94" y1="584.386" x2="429.936" y2="584.386"/>
	
		<line fill="none" stroke="#6ABDC4" stroke-width="0.5" stroke-miterlimit="10" x1="336.408" y1="598.136" x2="429.936" y2="598.136"/>
	
		<line fill="none" stroke="#6ABDC4" stroke-width="0.5" stroke-miterlimit="10" x1="124.94" y1="598.136" x2="298.428" y2="598.136"/>
	<rect x="126.69" y="537.386" stroke="#6ABDC4" stroke-width="0.5" stroke-miterlimit="10" width="32.5" height="24.75"/>
	<path stroke="#6ABDC4" stroke-width="0.5" stroke-miterlimit="10" d="M189.19,551.261"/>
	<g>
		<polygon stroke="#6ABDC4" stroke-width="0.5" stroke-miterlimit="10" points="189.19,562.136 162.69,562.136 162.69,551.261 
			162.69,540.386 189.19,540.386 		"/>
		
			<line fill="none" stroke="#6ABDC4" stroke-width="0.5" stroke-miterlimit="10" x1="162.69" y1="551.261" x2="189.19" y2="551.261"/>
	</g>
	<g>
		<polygon stroke="#6ABDC4" stroke-width="0.5" stroke-miterlimit="10" points="219.19,562.136 192.69,562.136 192.69,551.261 
			192.69,540.386 219.19,540.386 		"/>
		
			<line fill="none" stroke="#6ABDC4" stroke-width="0.5" stroke-miterlimit="10" x1="192.69" y1="551.261" x2="219.19" y2="551.261"/>
	</g>
	<g>
		<polygon stroke="#6ABDC4" stroke-width="0.5" stroke-miterlimit="10" points="249.19,562.136 222.69,562.136 222.69,551.261 
			222.69,540.386 249.19,540.386 		"/>
		
			<line fill="none" stroke="#6ABDC4" stroke-width="0.5" stroke-miterlimit="10" x1="222.69" y1="551.261" x2="249.19" y2="551.261"/>
	</g>
	<g>
		<polygon stroke="#6ABDC4" stroke-width="0.5" stroke-miterlimit="10" points="279.189,562.136 252.69,562.136 252.69,551.261 
			252.69,540.386 279.189,540.386 		"/>
		
			<line fill="none" stroke="#6ABDC4" stroke-width="0.5" stroke-miterlimit="10" x1="252.69" y1="551.261" x2="279.189" y2="551.261"/>
	</g>
	<g>
		<polygon stroke="#6ABDC4" stroke-width="0.5" stroke-miterlimit="10" points="309.189,562.136 282.689,562.136 282.689,551.261 
			282.689,540.386 309.189,540.386 		"/>
		
			<line fill="none" stroke="#6ABDC4" stroke-width="0.5" stroke-miterlimit="10" x1="282.689" y1="551.261" x2="309.189" y2="551.261"/>
	</g>
	<g>
		<polygon stroke="#6ABDC4" stroke-width="0.5" stroke-miterlimit="10" points="339.189,562.136 312.689,562.136 312.689,551.261 
			312.689,540.386 339.189,540.386 		"/>
		
			<line fill="none" stroke="#6ABDC4" stroke-width="0.5" stroke-miterlimit="10" x1="312.689" y1="551.261" x2="339.189" y2="551.261"/>
	</g>
	<g>
		<polygon stroke="#6ABDC4" stroke-width="0.5" stroke-miterlimit="10" points="369.189,562.136 342.689,562.136 342.689,551.261 
			342.689,540.386 369.189,540.386 		"/>
		
			<line fill="none" stroke="#6ABDC4" stroke-width="0.5" stroke-miterlimit="10" x1="342.689" y1="551.261" x2="369.189" y2="551.261"/>
	</g>
	<g>
		<polygon stroke="#6ABDC4" stroke-width="0.5" stroke-miterlimit="10" points="408.689,562.136 372.689,562.136 372.689,551.261 
			372.689,540.386 408.689,540.386 		"/>
		
			<line fill="none" stroke="#6ABDC4" stroke-width="0.5" stroke-miterlimit="10" x1="372.689" y1="551.261" x2="408.689" y2="551.261"/>
	</g>
	<circle stroke="#6ABDC4" stroke-width="0.5" stroke-miterlimit="10" cx="418.439" cy="589.636" r="2.5"/>
	<circle stroke="#6ABDC4" stroke-width="0.5" stroke-miterlimit="10" cx="424.564" cy="533.011" r="1.875"/>
	<circle stroke="#6ABDC4" stroke-width="0.5" stroke-miterlimit="10" cx="283.564" cy="534.011" r="1.875"/>
	
		<line fill="none" stroke="#6ABDC4" stroke-width="0.5" stroke-miterlimit="10" x1="162.69" y1="516.698" x2="162.69" y2="535.886"/>
	
		<line fill="none" stroke="#6ABDC4" stroke-width="0.5" stroke-miterlimit="10" x1="224.69" y1="516.698" x2="224.69" y2="535.886"/>
	
		<line fill="none" stroke="#6ABDC4" stroke-width="0.5" stroke-miterlimit="10" x1="312.689" y1="516.698" x2="312.689" y2="535.886"/>
	<path stroke="#6ABDC4" stroke-width="0.5" stroke-miterlimit="10" d="M409.689,517.22c0,0,3.5,4.744,2.25,21.666"/>
	
		<line fill="none" stroke="#6ABDC4" stroke-width="0.5" stroke-miterlimit="10" x1="428.285" y1="539.886" x2="162.69" y2="539.886"/>
	<path stroke="#6ABDC4" stroke-width="0.5" stroke-miterlimit="10" d="M142.94,569.886h-7.653c0,0-4.521,0-3.826,4.75
		c0,0-0.77,4.25,5.703,4.75h5.776V569.886z"/>
	<polygon fill="#6ABDC4" stroke="#6ABDC4" stroke-width="0.5" stroke-miterlimit="10" points="157.709,571.146 157.713,578.312 
		152.65,583.383 145.485,583.387 140.415,578.323 140.411,571.157 145.475,566.087 152.64,566.083 	"/>
	<polygon stroke="#6ABDC4" stroke-width="0.5" stroke-miterlimit="10" points="156.688,571.657 156.692,577.871 152.301,582.267 
		146.088,582.271 141.693,577.88 141.688,571.666 146.08,567.271 152.292,567.267 	"/>
	<ellipse stroke="#6ABDC4" stroke-width="0.5" stroke-miterlimit="10" cx="58.315" cy="567.878" rx="1.625" ry="3.742"/>
	<polyline stroke="#6ABDC4" stroke-width="0.5" stroke-miterlimit="10" points="118.19,563.552 118.19,570.636 114.94,570.636 
		114.94,580.636 118.19,580.636 118.19,608.761 	"/>
</g>
</svg>
