<?xml version="1.0" encoding="utf-8"?>
<!-- Generator: Adobe Illustrator 15.1.0, SVG Export Plug-In . SVG Version: 6.00 Build 0)  -->
<!DOCTYPE svg PUBLIC "-//W3C//DTD SVG 1.1//EN" "http://www.w3.org/Graphics/SVG/1.1/DTD/svg11.dtd">
<svg version="1.1" id="Layer_1" xmlns="http://www.w3.org/2000/svg" xmlns:xlink="http://www.w3.org/1999/xlink" x="0px" y="0px"
	 width="536.378px" height="780.521px" viewBox="0 0 536.378 780.521" enable-background="new 0 0 536.378 780.521"
	 xml:space="preserve">
<rect x="165.537" y="232.964" fill-rule="evenodd" clip-rule="evenodd" fill="none" width="335.21" height="115.885"/>
<text transform="matrix(1 0 0 1 168.4746 313.1523)" font-family="'Interstate-Bold'" font-size="110">2,600 </text>
<rect x="-19.884" y="411.235" fill="none" width="587.72" height="62.175"/>
<text transform="matrix(1 0 0 1 101.2832 432.5352)"><tspan x="0" y="0" font-family="'MyriadPro-Regular'" font-size="30">amount needed to produce </tspan><tspan x="89.204" y="36" font-family="'MyriadPro-Regular'" font-size="30">a single steak</tspan></text>
<path fill-rule="evenodd" clip-rule="evenodd" fill="#19162B" d="M178.399,563.903v3.087c0,0,11.57,10.764,17.323,30.973
	c0.123,0.431,0.243,0.865,0.359,1.305c5.613,21.051,7.017,24.139,7.017,24.139s7.017,11.226,16.84,12.629l4.771,10.385
	c0,0,0.842,5.895,0,6.736c-0.842,0.842-3.648,12.63-3.648,12.63l-3.93,5.333l-0.28,2.245c0,0,4.21,3.294,16.84,1.928l1.403-3.893
	l1.684,0.562l6.456-1.965l2.245-1.403l3.087-0.842v-5.333c0,0-5.894-7.017-3.368-19.366l5.613-17.12h1.404
	c0,0,4.21-0.562,5.613-0.562s10.385,0.562,10.385,0.562l7.297,1.402l7.859,1.123c0,0,5.894,1.684,6.736,2.246
	c0.842,0.561,7.857,3.929,7.857,3.929s4.491-5.333,8.701-6.175c4.211-0.842,6.455-1.123,6.455-1.123l9.543-3.928
	c0,0,13.753-12.351,21.893-5.053c0,0,8.42,10.945-1.965,17.121c0,0,0.562,5.894,0,8.139c-0.562,2.246-2.525,10.816-2.525,10.816
	l-3.039,8.83c0,0-2.575,3.93-3.137,5.053c-0.561,1.123-3.929,7.312-3.929,7.312h7.065h6.688l4.063-0.333l1.269-5.015v-10.666
	l3.648-7.017l1.685-6.735l1.685-1.685l6.174,5.052c0,0-0.561,5.333,0,7.578c0.562,2.246,0,9.543,0,9.543l0.25,1.965v3.93
	l-2.775,3.383l-4.211,2.791c0,0,0.843,8.981,16.279,0l3.087-3.124c0,0,0.843-3.05,0-3.893c-0.842-0.842-1.122-3.087-1.402-4.21
	c-0.281-1.123-1.123-5.332-1.123-5.332v-7.428v-8.57v-3.088l1.965,3.93c0,0,3.648,5.332,4.21,6.174s4.21,3.93,4.21,3.93l2.807,0.281
	c0,0,1.123-3.369,1.684-4.491c0.562-1.122-0.561-5.052,0-5.894c0.562-0.842-1.684-8.701-1.684-8.701l-1.965-9.262l-1.684-8.701
	l-0.562-9.262l-1.123-8.701l-1.965-11.788l1.403-5.894l-0.28-11.227l-0.842-9.263l-0.562-10.385l-3.648-4.21
	c0,0-0.281-5.895-32.839-4.21l-31.996,2.78c0,0-26.383,0.814-28.348,0c-1.965-0.815-23.856-3.083-23.856-3.083
	s-9.823-4.469-10.666-4.749c-0.842-0.281-8.139-2.246-8.139-2.246l-11.788-2.525c0,0-13.472-10.666-36.487-9.262
	c0,0-6.736-3.088-2.246-5.613c0,0,3.368-3.369-4.771-3.088c0,0-7.803-2.769-13.635,0.752c-0.327,0.197-0.647,0.414-0.959,0.651
	c0,0-2.526-1.685-11.507-0.562c0,0-0.561,1.965,7.017,5.053c0,0-6.474-1.685-7.026,1.402c0,0-8.429,1.685,0,8.141
	c0,0,3.939,0,0.29,4.49l-4.036,5.052l-4.945,3.087l-2.526,3.93l-1.684,3.368l1.684,5.333l3.087,0.842l3.929,1.684l6.175-0.28
	l6.456,3.087l4.49,2.246C169.979,565.588,174.189,565.868,178.399,563.903z"/>
</svg>
