<?xml version="1.0" encoding="utf-8"?>
<!-- Generator: Adobe Illustrator 15.1.0, SVG Export Plug-In . SVG Version: 6.00 Build 0)  -->
<!DOCTYPE svg PUBLIC "-//W3C//DTD SVG 1.1//EN" "http://www.w3.org/Graphics/SVG/1.1/DTD/svg11.dtd">
<svg version="1.1" id="Layer_1" xmlns="http://www.w3.org/2000/svg" xmlns:xlink="http://www.w3.org/1999/xlink" x="0px" y="0px"
	 width="536.378px" height="780.521px" viewBox="0 0 536.378 780.521" enable-background="new 0 0 536.378 780.521"
	 xml:space="preserve">
<rect x="32.689" y="381.761" fill="none" width="468" height="82"/>
<g enable-background="new    ">
	<path d="M187.457,403.631v-8.909c0-3.181-1.2-4.32-3.24-4.32c-2.07,0-3.24,1.47-3.24,4.02v9.21h-3.09v-15.749h3.09v1.5
		c0.78-1.141,2.34-1.83,3.96-1.83c3.66,0,5.61,2.399,5.61,7.05v9.029H187.457z"/>
	<path d="M204.437,403.631v-1.5c-0.78,1.14-2.34,1.83-3.96,1.83c-3.66,0-5.609-2.4-5.609-7.05v-9.029h3.09v8.909
		c0,3.18,1.2,4.32,3.24,4.32c2.07,0,3.24-1.471,3.24-4.021v-9.209h3.09v15.749H204.437z"/>
	<path d="M230.386,403.631v-8.909c0-3.181-0.99-4.32-3.03-4.32c-2.07,0-3.03,1.47-3.03,4.02v9.21h-3.09v-8.909
		c0-3.181-0.99-4.32-3.03-4.32c-2.07,0-3.03,1.47-3.03,4.02v9.21h-3.09v-15.749h3.09v1.5c0.78-1.141,2.13-1.83,3.75-1.83
		c2.13,0,3.48,0.81,4.32,2.31c1.14-1.41,2.37-2.31,4.83-2.31c3.66,0,5.4,2.399,5.4,7.05v9.029H230.386z"/>
	<path d="M244.937,403.961c-1.59,0-3.09-0.84-3.96-1.8v1.47h-3.06v-20.279l3.06-1.59v7.62c1.14-1.051,2.46-1.83,4.11-1.83
		c3.39,0,6.06,2.46,6.06,8.459C251.146,401.411,248.206,403.961,244.937,403.961z M244.517,390.401c-1.47,0-2.76,0.99-3.57,2.01
		v6.63c0.69,0.93,2.13,2.07,3.69,2.07c2.22,0,3.42-1.681,3.42-5.01C248.056,392.142,246.796,390.401,244.517,390.401z"/>
	<path d="M267.706,396.852h-10.41c0.33,3.029,2.04,4.319,3.96,4.319c1.32,0,2.37-0.479,3.42-1.26l1.83,1.979
		c-1.38,1.32-3.03,2.07-5.43,2.07c-3.69,0-6.81-2.97-6.81-8.189c0-5.34,2.82-8.22,6.9-8.22c4.47,0,6.63,3.63,6.63,7.89
		C267.796,396.011,267.736,396.521,267.706,396.852z M260.956,390.342c-2.07,0-3.33,1.439-3.6,3.959h7.32
		C264.526,392.142,263.506,390.342,260.956,390.342z"/>
	<path d="M280.185,391.151c-0.66-0.36-1.35-0.57-2.369-0.57c-1.95,0-3.09,1.38-3.09,4.05v9h-3.09v-15.749h3.09v1.5
		c0.72-1.051,2.039-1.83,3.6-1.83c1.26,0,2.04,0.239,2.67,0.66L280.185,391.151z"/>
	<path d="M298.455,403.961c-3.959,0-6.93-3.27-6.93-8.189c0-5.16,3.061-8.22,7.021-8.22c4.02,0,7.02,3.21,7.02,8.13
		C305.565,400.901,302.505,403.961,298.455,403.961z M298.425,390.491c-2.34,0-3.779,2.07-3.779,5.19c0,3.449,1.59,5.339,3.93,5.339
		s3.869-2.369,3.869-5.249C302.445,392.562,300.916,390.491,298.425,390.491z"/>
	<path d="M314.505,384.552c-1.02,0-1.439,0.39-1.439,1.53v1.8h2.909v2.88h-2.909v12.869h-3.09v-12.869h-2.041v-2.88h2.041v-2.07
		c0-2.88,1.77-3.96,3.989-3.96c0.81,0,1.68,0.12,2.34,0.3v2.7C315.585,384.642,315.044,384.552,314.505,384.552z"/>
	<path d="M332.985,409.421l-1.05-2.34c4.439-0.21,5.399-1.41,5.399-4.68v-0.271c-1.14,1.05-2.43,1.83-4.079,1.83
		c-3.36,0-6.061-2.46-6.061-8.46c0-5.399,2.971-7.949,6.21-7.949c1.59,0,3.09,0.84,3.93,1.8v-1.47h3.09v14.249
		C340.424,406.931,338.685,409.24,332.985,409.421z M337.394,392.472c-0.689-0.931-2.129-2.07-3.689-2.07
		c-2.22,0-3.42,1.68-3.42,5.01c0,3.96,1.26,5.7,3.54,5.7c1.47,0,2.76-0.99,3.569-2.011V392.472z"/>
	<path d="M354.015,403.631v-1.56c-1.08,1.079-2.61,1.89-4.32,1.89c-2.55,0-5.46-1.44-5.46-5.31c0-3.51,2.7-5.101,6.271-5.101
		c1.469,0,2.639,0.211,3.51,0.601v-1.17c0-1.71-1.051-2.67-2.971-2.67c-1.619,0-2.879,0.3-4.109,0.99l-1.2-2.34
		c1.5-0.931,3.181-1.41,5.399-1.41c3.51,0,5.91,1.71,5.91,5.279v10.8H354.015z M354.015,396.911c-0.84-0.42-1.92-0.69-3.601-0.69
		c-1.979,0-3.239,0.9-3.239,2.341c0,1.56,0.99,2.609,3.029,2.609c1.65,0,3.09-1.02,3.811-2.01V396.911z"/>
	<path d="M361.634,403.631v-20.249l3.09-1.62v21.869H361.634z"/>
	<path d="M369.583,403.631v-20.249l3.09-1.62v21.869H369.583z"/>
	<path d="M383.564,403.961c-3.959,0-6.93-3.27-6.93-8.189c0-5.16,3.061-8.22,7.02-8.22c4.02,0,7.02,3.21,7.02,8.13
		C390.673,400.901,387.614,403.961,383.564,403.961z M383.535,390.491c-2.34,0-3.78,2.07-3.78,5.19c0,3.449,1.59,5.339,3.93,5.339
		s3.87-2.369,3.87-5.249C387.554,392.562,386.024,390.491,383.535,390.491z"/>
	<path d="M404.054,403.631v-8.909c0-3.181-1.201-4.32-3.24-4.32c-2.07,0-3.24,1.47-3.24,4.02v9.21h-3.09v-15.749h3.09v1.5
		c0.78-1.141,2.34-1.83,3.96-1.83c3.659,0,5.61,2.399,5.61,7.05v9.029H404.054z"/>
	<path d="M416.684,403.961c-2.13,0-4.44-0.84-6.03-2.01l1.41-2.34c1.471,1.02,3.12,1.56,4.59,1.56c1.95,0,2.88-0.63,2.88-1.74
		c0-1.199-1.38-1.77-3.659-2.64c-3.391-1.32-4.621-2.46-4.621-4.949c0-2.82,2.221-4.29,5.371-4.29c1.979,0,3.93,0.72,5.34,1.739
		l-1.351,2.37c-1.29-0.899-2.58-1.35-4.08-1.35c-1.499,0-2.159,0.6-2.159,1.439c0,0.78,0.539,1.351,2.909,2.28
		c3.511,1.35,5.31,2.31,5.31,5.279C422.593,402.791,419.774,403.961,416.684,403.961z"/>
</g>
<g enable-background="new    ">
	<path fill="#19152B" d="M190.247,421.842c-1.11,0-2.01-0.9-2.01-1.98c0-1.109,0.9-2.01,2.01-2.01c1.08,0,1.98,0.9,1.98,2.01
		C192.227,420.941,191.327,421.842,190.247,421.842z M188.687,439.631v-15.749h3.09v15.749H188.687z"/>
	<path fill="#19152B" d="M206.057,439.631v-8.909c0-3.181-1.2-4.32-3.24-4.32c-2.07,0-3.24,1.47-3.24,4.02v9.21h-3.09v-15.749h3.09
		v1.5c0.78-1.141,2.34-1.83,3.96-1.83c3.66,0,5.61,2.399,5.61,7.05v9.029H206.057z"/>
	<path fill="#19152B" d="M222.137,439.631v-20.999h3.15v17.909h10.469v3.09H222.137z"/>
	<path fill="#19152B" d="M248.566,439.631v-1.56c-1.08,1.079-2.61,1.89-4.32,1.89c-2.55,0-5.46-1.44-5.46-5.31
		c0-3.51,2.7-5.101,6.27-5.101c1.47,0,2.64,0.211,3.51,0.601v-1.17c0-1.71-1.05-2.67-2.97-2.67c-1.62,0-2.88,0.3-4.11,0.99
		l-1.2-2.34c1.5-0.931,3.18-1.41,5.4-1.41c3.51,0,5.91,1.71,5.91,5.279v10.8H248.566z M248.566,432.911
		c-0.84-0.42-1.92-0.69-3.6-0.69c-1.979,0-3.24,0.9-3.24,2.341c0,1.56,0.99,2.609,3.03,2.609c1.65,0,3.09-1.02,3.81-2.01V432.911z"
		/>
	<path fill="#19152B" d="M265.005,439.631l-3.48-7.83l-2.4,3.181v4.649h-3.09v-20.249l3.09-1.62v9.93c0,0.96-0.03,2.58-0.03,3.359
		c0.42-0.63,1.23-1.829,1.74-2.579l3.27-4.59h3.51l-3.99,5.279l4.74,10.47H265.005z"/>
	<path fill="#19152B" d="M283.845,432.852h-10.409c0.329,3.029,2.04,4.319,3.96,4.319c1.319,0,2.369-0.479,3.42-1.26l1.83,1.979
		c-1.381,1.32-3.03,2.07-5.43,2.07c-3.69,0-6.811-2.97-6.811-8.189c0-5.34,2.82-8.22,6.9-8.22c4.469,0,6.629,3.63,6.629,7.89
		C283.935,432.011,283.875,432.521,283.845,432.852z M277.095,426.342c-2.069,0-3.33,1.439-3.6,3.959h7.32
		C280.666,428.142,279.646,426.342,277.095,426.342z"/>
	<path fill="#19152B" d="M302.625,439.961c-3.06,0-5.699-1.32-7.469-3.39l2.25-2.19c1.409,1.53,3.479,2.49,5.459,2.49
		c2.939,0,4.35-1.021,4.35-3.06c0-1.62-1.229-2.431-4.739-3.48c-4.44-1.319-6.569-2.43-6.569-6.18c0-3.63,3.059-5.85,6.93-5.85
		c2.85,0,5.01,1.05,6.869,2.85l-2.22,2.25c-1.32-1.35-2.82-2.01-4.89-2.01c-2.461,0-3.51,1.2-3.51,2.61
		c0,1.47,0.959,2.189,4.59,3.27c4.139,1.26,6.719,2.58,6.719,6.33C310.394,437.381,307.995,439.961,302.625,439.961z"/>
	<path fill="#19152B" d="M323.804,439.631v-1.5c-0.779,1.14-2.34,1.83-3.959,1.83c-3.66,0-5.61-2.4-5.61-7.05v-9.029h3.091v8.909
		c0,3.18,1.199,4.32,3.239,4.32c2.069,0,3.239-1.471,3.239-4.021v-9.209h3.09v15.749H323.804z"/>
	<path fill="#19152B" d="M338.474,439.961c-1.59,0-3.09-0.84-3.959-1.8v5.67l-3.061,1.59v-21.539h3.061v1.5
		c1.14-1.051,2.459-1.83,4.109-1.83c3.39,0,6.06,2.46,6.06,8.459C344.684,437.411,341.744,439.961,338.474,439.961z
		 M338.054,426.401c-1.47,0-2.76,0.99-3.57,2.01v6.63c0.69,0.93,2.131,2.07,3.69,2.07c2.22,0,3.42-1.681,3.42-5.01
		C341.594,428.142,340.334,426.401,338.054,426.401z"/>
	<path fill="#19152B" d="M361.244,432.852h-10.409c0.329,3.029,2.04,4.319,3.96,4.319c1.319,0,2.369-0.479,3.42-1.26l1.83,1.979
		c-1.381,1.32-3.03,2.07-5.43,2.07c-3.69,0-6.811-2.97-6.811-8.189c0-5.34,2.82-8.22,6.9-8.22c4.469,0,6.629,3.63,6.629,7.89
		C361.333,432.011,361.274,432.521,361.244,432.852z M354.494,426.342c-2.069,0-3.33,1.439-3.6,3.959h7.32
		C358.064,428.142,357.044,426.342,354.494,426.342z"/>
	<path fill="#19152B" d="M373.724,427.151c-0.66-0.36-1.351-0.57-2.371-0.57c-1.949,0-3.09,1.38-3.09,4.05v9h-3.09v-15.749h3.09v1.5
		c0.721-1.051,2.041-1.83,3.601-1.83c1.26,0,2.04,0.239,2.67,0.66L373.724,427.151z"/>
	<path fill="#19152B" d="M379.423,421.842c-1.109,0-2.01-0.9-2.01-1.98c0-1.109,0.9-2.01,2.01-2.01c1.08,0,1.98,0.9,1.98,2.01
		C381.404,420.941,380.503,421.842,379.423,421.842z M377.864,439.631v-15.749h3.09v15.749H377.864z"/>
	<path fill="#19152B" d="M391.843,439.961c-3.959,0-6.93-3.27-6.93-8.189c0-5.16,3.061-8.22,7.021-8.22c4.02,0,7.02,3.21,7.02,8.13
		C398.954,436.901,395.894,439.961,391.843,439.961z M391.814,426.491c-2.34,0-3.779,2.07-3.779,5.19c0,3.449,1.59,5.339,3.93,5.339
		s3.869-2.369,3.869-5.249C395.833,428.562,394.304,426.491,391.814,426.491z"/>
	<path fill="#19152B" d="M411.314,427.151c-0.66-0.36-1.351-0.57-2.371-0.57c-1.949,0-3.09,1.38-3.09,4.05v9h-3.09v-15.749h3.09v1.5
		c0.721-1.051,2.041-1.83,3.601-1.83c1.26,0,2.04,0.239,2.67,0.66L411.314,427.151z"/>
</g>
<g enable-background="new    ">
	<path fill="#19152B" d="M283.651,290.136c-12.6,0-23.879-4.92-33.239-16.08l12.719-10.319c6.96,7.319,13.56,9.96,22.079,9.96
		c11.039,0,16.199-3.96,16.199-10.68c0-6.479-4.439-9.6-12.359-9.6h-9.959v-16.439h8.999c6.96,0,9.84-3,9.84-8.52
		c0-4.32-3.479-8.52-14.04-8.52c-6.479,0-11.759,2.279-16.439,7.079l-12.239-11.159c8.04-8.399,16.439-12.359,28.918-12.359
		c17.16,0,30.839,7.92,30.839,23.759c0,9.12-4.8,14.64-9.72,17.159c5.4,2.04,13.199,7.32,13.199,18.359
		C318.449,280.896,304.53,290.136,283.651,290.136z"/>
</g>
<g enable-background="new    ">
	<path fill="#19152B" d="M197.768,359.86V348.56c-1.3,1.15-3.05,2.2-5.55,2.2c-5.6,0-10.201-4.2-10.201-14.001
		c0-7.851,3.7-13.351,10.201-13.351c2.3,0,4.3,0.9,5.55,2.05v-1.5h6.9v32.452L197.768,359.86z M197.768,332.159
		c-1.05-1.45-2.65-2.25-4.65-2.25c-2.65,0-4.1,2.3-4.1,6.7c0,5.4,1.8,7.65,4.5,7.65c2.15,0,3.25-0.9,4.25-2.2V332.159z"/>
	<path fill="#19152B" d="M227.067,350.21v-1.75c-1.2,1.25-3.4,2.3-6.15,2.3c-6.7,0-9.701-4.6-9.701-12.001v-14.801h6.9v14.201
		c0,4.7,1.6,6.101,4.45,6.101c2.851,0,4.5-1.4,4.5-5.95v-14.352h6.9v26.252H227.067z"/>
	<path fill="#19152B" d="M255.118,350.21v-1.75c-1.25,1.3-3.45,2.3-5.9,2.3c-4.9,0-9.801-3-9.801-9.351c0-5.8,4.7-8.7,10.651-8.7
		c2.4,0,3.95,0.5,5.05,1.05v-1.3c0-1.851-1.25-3.351-3.75-3.351c-3.15,0-4.8,0.45-7.2,1.75l-2.65-4.8
		c3.05-1.75,5.601-2.65,9.851-2.65c6.351,0,10.651,3.301,10.651,9.2v17.602H255.118z M255.118,339.209c-1.2-0.75-2.35-1.1-4.8-1.1
		c-2.601,0-4,1.2-4,3.3c0,1.851,1.05,3.5,4,3.5c2.25,0,4.05-1.149,4.8-2.399V339.209z"/>
	<path fill="#19152B" d="M282.867,350.21v-1.65c-1.299,1.15-3.05,2.2-5.55,2.2c-5.601,0-10.201-4.2-10.201-14.001
		c0-7.851,3.7-13.351,10.201-13.351c2.3,0,4.3,0.9,5.55,2.05v-8.25l6.9-3.45v36.452H282.867z M282.867,332.159
		c-1.049-1.45-2.649-2.25-4.65-2.25c-2.649,0-4.1,2.3-4.1,6.7c0,5.4,1.801,7.65,4.5,7.65c2.15,0,3.25-0.9,4.25-2.2V332.159z"/>
	<path fill="#19152B" d="M311.917,332.009c-1.1-1-2.45-1.7-4-1.7c-2.701,0-4.451,1.15-4.451,5.7v14.201h-6.9v-26.252h6.9v1.75
		c1.201-1.25,2.951-2.3,5.4-2.3c2.25,0,3.951,0.9,4.852,1.851L311.917,332.009z"/>
	<path fill="#19152B" d="M321.666,321.809c-2.149,0-3.949-1.801-3.949-3.95c0-2.15,1.8-3.95,3.949-3.95c2.15,0,3.951,1.8,3.951,3.95
		C325.617,320.008,323.816,321.809,321.666,321.809z M318.216,350.21v-26.252h6.9v26.252H318.216z"/>
	<path fill="#19152B" d="M332.316,350.21v-33.002l6.9-3.45v36.452H332.316z"/>
	<path fill="#19152B" d="M346.416,350.21v-33.002l6.9-3.45v36.452H346.416z"/>
	<path fill="#19152B" d="M363.966,321.809c-2.15,0-3.951-1.801-3.951-3.95c0-2.15,1.801-3.95,3.951-3.95s3.949,1.8,3.949,3.95
		C367.916,320.008,366.117,321.809,363.966,321.809z M360.515,350.21v-26.252h6.9v26.252H360.515z"/>
	<path fill="#19152B" d="M384.867,350.76c-6.851,0-11.852-5.601-11.852-13.65c0-8.051,5.001-13.701,11.852-13.701
		c6.85,0,11.9,5.65,11.9,13.701C396.767,345.159,391.716,350.76,384.867,350.76z M384.867,330.059c-3.301,0-4.851,3-4.851,7.051
		c0,4.05,1.55,7,4.851,7c3.3,0,4.9-3.35,4.9-7C389.767,333.109,388.167,330.059,384.867,330.059z"/>
	<path fill="#19152B" d="M417.966,350.21v-14.201c0-4.7-1.6-6.1-4.45-6.1s-4.501,1.399-4.501,5.95v14.351h-6.9v-26.252h6.9v1.75
		c1.201-1.25,3.4-2.3,6.15-2.3c6.701,0,9.701,4.601,9.701,12.001v14.801H417.966z"/>
</g>
<path fill="#19152B" d="M367.849,515.781l-6.254,4.376l1.25-4.376l-9.064,2.188l-12.508-2.188l-8.441-4.066l-19.072-5.938
	l-2.814-3.128l-5.629,1.876l-2.812,1.878l2.188,5.002l3.805,1.25l9.33-1.25l5.629,1.562l3.754,2.814l-5.004,1.562l-8.133-1.562
	l-4.062,4.376l-5.629,4.062h-4.688l3.128,4.381l-5.63,1.872v-2.5l-5.315,6.884l-1.873-2.19l7.814-10.319l1.876-5.629l-0.938-3.75
	c0,0-0.938-2.504-2.502-2.504c-1.562,0-6.252,4.691-6.252,4.691l2.188,5.003L290,525.469l-2.504,2.814v2.188
	c0,0,0.938,0.313,0,1.565c-0.938,1.248-1.25,4.377-1.875,5.313c-0.625,0.938-4.688,2.812-4.688,2.812h-4.378l7.815-12.822
	l-5.94,0.939c0,0-4.688,2.188-5.63,2.502c-0.938,0.312-4.69,0.938-4.69,0.938s-1.25,6.564,0,8.441c0,0-1.562,3.439-2.5,3.752
	c-0.94,0.312-1.564,5.004-1.564,5.004l-1.563,4.376l-6.254,3.44l-4.379,2.502l-5.628,3.752l-13.13,5.629
	c0,0-25.331,2.814-43.153,26.269L174.3,609.271l-17.511,11.259c0,0-2.188,5.312,5.002,7.188l19.386-4.377
	c0,0,7.192-1.562,9.38-2.188c2.19-0.624,7.192-3.13,7.192-3.13l6.568-3.438l4.064,2.188l0.624,5.004c0,0-3.438,3.438-4.064,4.38
	c-0.624,0.936-3.438,4.688-3.438,4.688h-3.44l1.25,5.002l7.504-1.562l1.878-3.439l5.628,5.003h7.192c0,0,13.445-3.438,14.384-3.75
	c0.937-0.312,3.75-8.132,14.07-7.815l3.126-1.25h5.003l9.693-5.94c0,0,2.814-2.502,3.753-2.502c0.938,0,5.938-1.252,5.938-1.252
	l1.878-4.062l5.313-5.315l7.191-4.062l4.691-5.632l6.562-3.754c0,0,11.885-3.128,12.818-3.128c0.939,0,5.006,0.626,5.006,0.626
	s2.811,2.188,1.877,2.502c-0.939,0.312-5.316,1.876-7.504,3.129c-2.191,1.252-5.846,4.377-6.83,6.257
	c-0.988,1.873-8.183,10.005-8.183,10.005s-2.5,3.438-3.126,5.004c-0.624,1.562-3.127,5.312-3.127,6.562
	c0,1.252-0.312,6.881-0.312,6.881s4.063-3.755,4.378-5.002c0.312-1.253,2.502-3.129,3.438-4.063
	c0.938-0.938,5.003-3.441,5.003-3.441l-0.938,4.381c0,0,9.691-0.312,11.568,0c1.875,0.313,8.441,3.438,8.441,3.438l2.812,3.128
	l2.188,4.688c0,0,3.125,4.062,4.062,4.376c0.938,0.312,1.25,4.69,1.25,4.69s2.812-0.938,3.756,0c0.938,0.938,3.438-0.312,4.688,0
	s4.062-1.562,5.316-1.562c1.25,0,2.502-0.229,3.127,1.921c0.625,2.146,3.438,4.96,3.438,4.96l3.752-2.5l1.564-4.694l4.375,1.566
	l1.879,1.562l14.381-10.005l4.066,1.248c0,0,9.381-1.248,11.57-1.874c2.188-0.626,10.006-0.938,10.938-0.626
	c0.939,0.312,4.064-1.562,7.191-2.502c3.127-0.938,7.506-1.874,9.383-1.874c1.873,0,4.377-0.94,4.377-0.94s-1.877,8.442-1.877,9.386
	c0,0.937,1.877,6.252,1.877,6.252s1.875-0.623,4.062-0.623c2.189,0,5.316-0.938,6.254-1.566c0.939-0.624,2.502-0.624,3.754-2.812
	c1.25-2.188,3.125-6.255,3.125-6.255l3.439-4.062l-6.877,2.812l-0.314-4.688c0,0,0-3.75,1.564-3.75c1.562,0,5.627,1.25,5.627,1.25
	s3.754-5.318-2.502-6.255c-6.254-0.938-6.254-0.938-6.254-0.938l-5.939-1.562l-1.562-2.813l3.754-4.379c0,0,1.875-3.438,1.875-4.378
	c0-0.937,0-3.438,0-4.688c0-1.249-4.375-7.508-4.375-7.508l-4.688-5.628l-6.883-4.378c0,0-1.252-2.375-0.311-4.472
	c0.938-2.093,1.25-3.348,2.188-5.848c0.939-2.502,0.627-6.255,0.627-6.255l4.689-3.438l-18.137,0.938l-5.939,2.503
	c0,0-14.699,0.938-23.453-10.943l-1.561-6.254c0,0-0.939-2.813-1.562-5.002c-0.625-2.189-3.127-7.508-3.752-8.758
	c-0.627-1.25-3.127-7.814-3.438-9.066c-0.312-1.25-2.189-3.438-2.189-3.438L367.849,515.781z"/>
</svg>
