<?xml version="1.0" encoding="utf-8"?>
<!-- Generator: Adobe Illustrator 15.1.0, SVG Export Plug-In . SVG Version: 6.00 Build 0)  -->
<!DOCTYPE svg PUBLIC "-//W3C//DTD SVG 1.1//EN" "http://www.w3.org/Graphics/SVG/1.1/DTD/svg11.dtd">
<svg version="1.1" id="Layer_1" xmlns="http://www.w3.org/2000/svg" xmlns:xlink="http://www.w3.org/1999/xlink" x="0px" y="0px"
	 width="536.378px" height="780.521px" viewBox="0 0 536.378 780.521" enable-background="new 0 0 536.378 780.521"
	 xml:space="preserve">
<rect x="23.414" y="381.761" fill="none" width="468" height="82"/>
<g enable-background="new    ">
	<path fill="#19152B" d="M136.839,405.089v-1.664c-1.152,1.152-2.784,2.016-4.607,2.016c-2.72,0-5.824-1.535-5.824-5.663
		c0-3.744,2.88-5.439,6.688-5.439c1.568,0,2.816,0.224,3.744,0.64v-1.248c0-1.823-1.12-2.848-3.167-2.848
		c-1.728,0-3.072,0.32-4.384,1.056l-1.28-2.495c1.6-0.992,3.392-1.504,5.759-1.504c3.744,0,6.304,1.823,6.304,5.631v11.52H136.839z
		 M136.839,397.921c-0.896-0.447-2.048-0.735-3.839-0.735c-2.112,0-3.456,0.96-3.456,2.496c0,1.663,1.056,2.783,3.232,2.783
		c1.76,0,3.296-1.088,4.063-2.144V397.921z"/>
	<path fill="#19152B" d="M152.263,405.089h-3.296l-6.015-16.799h3.456l3.008,9.119c0.544,1.632,1.024,3.2,1.248,4.128
		c0.192-0.928,0.64-2.496,1.152-4.128l2.88-9.119h3.487L152.263,405.089z"/>
	<path fill="#19152B" d="M174.63,397.857h-11.103c0.352,3.231,2.176,4.607,4.224,4.607c1.408,0,2.528-0.512,3.647-1.344l1.952,2.112
		c-1.472,1.407-3.232,2.207-5.792,2.207c-3.936,0-7.264-3.167-7.264-8.735c0-5.695,3.008-8.767,7.359-8.767
		c4.768,0,7.072,3.871,7.072,8.415C174.727,396.962,174.663,397.506,174.63,397.857z M167.431,390.914
		c-2.208,0-3.552,1.536-3.84,4.224h7.807C171.239,392.834,170.151,390.914,167.431,390.914z"/>
	<path fill="#19152B" d="M187.942,391.778c-0.704-0.385-1.44-0.608-2.528-0.608c-2.08,0-3.296,1.472-3.296,4.319v9.6h-3.296V388.29
		h3.296v1.6c0.768-1.119,2.176-1.951,3.84-1.951c1.344,0,2.176,0.256,2.848,0.703L187.942,391.778z"/>
	<path fill="#19152B" d="M200.71,405.089v-1.664c-1.152,1.152-2.784,2.016-4.607,2.016c-2.72,0-5.824-1.535-5.824-5.663
		c0-3.744,2.88-5.439,6.688-5.439c1.568,0,2.816,0.224,3.744,0.64v-1.248c0-1.823-1.12-2.848-3.167-2.848
		c-1.728,0-3.072,0.32-4.384,1.056l-1.28-2.495c1.6-0.992,3.392-1.504,5.759-1.504c3.744,0,6.304,1.823,6.304,5.631v11.52H200.71z
		 M200.71,397.921c-0.896-0.447-2.048-0.735-3.839-0.735c-2.112,0-3.456,0.96-3.456,2.496c0,1.663,1.056,2.783,3.232,2.783
		c1.76,0,3.296-1.088,4.063-2.144V397.921z"/>
	<path fill="#19152B" d="M214.119,411.265l-1.12-2.496c4.736-0.224,5.76-1.504,5.76-4.991v-0.288
		c-1.216,1.12-2.592,1.951-4.352,1.951c-3.583,0-6.463-2.623-6.463-9.022c0-5.76,3.168-8.479,6.624-8.479
		c1.696,0,3.296,0.896,4.192,1.92v-1.568h3.295v15.199C222.054,408.608,220.198,411.072,214.119,411.265z M218.822,393.186
		c-0.736-0.992-2.272-2.208-3.936-2.208c-2.368,0-3.647,1.792-3.647,5.344c0,4.224,1.344,6.08,3.776,6.08
		c1.568,0,2.943-1.057,3.808-2.145V393.186z"/>
	<path fill="#19152B" d="M240.454,397.857h-11.103c0.352,3.231,2.176,4.607,4.224,4.607c1.408,0,2.528-0.512,3.647-1.344
		l1.952,2.112c-1.472,1.407-3.232,2.207-5.792,2.207c-3.936,0-7.264-3.167-7.264-8.735c0-5.695,3.008-8.767,7.359-8.767
		c4.768,0,7.072,3.871,7.072,8.415C240.55,396.962,240.486,397.506,240.454,397.857z M233.254,390.914
		c-2.208,0-3.552,1.536-3.84,4.224h7.807C237.062,392.834,235.974,390.914,233.254,390.914z"/>
	<path fill="#19152B" d="M261.317,404.673c-0.8,0.448-1.92,0.768-3.232,0.768c-2.336,0-3.776-1.439-3.776-4.447v-9.695h-2.399
		v-3.008h2.399v-4.8l3.232-1.728v6.527h4.16v3.008h-4.16v9.119c0,1.568,0.512,2.016,1.728,2.016c0.864,0,1.824-0.319,2.432-0.672
		L261.317,404.673z"/>
	<path fill="#19152B" d="M272.134,405.44c-4.224,0-7.392-3.487-7.392-8.735c0-5.503,3.264-8.767,7.488-8.767
		c4.287,0,7.487,3.424,7.487,8.671C279.717,402.177,276.454,405.44,272.134,405.44z M272.101,391.074
		c-2.495,0-4.031,2.207-4.031,5.535c0,3.68,1.696,5.695,4.191,5.695c2.496,0,4.128-2.527,4.128-5.6
		C276.389,393.281,274.757,391.074,272.101,391.074z"/>
	<path fill="#19152B" d="M285.606,386.114c-1.185,0-2.144-0.96-2.144-2.112c0-1.184,0.959-2.144,2.144-2.144
		c1.151,0,2.112,0.96,2.112,2.144C287.718,385.154,286.757,386.114,285.606,386.114z M283.942,405.089V388.29h3.296v16.799H283.942z
		"/>
	<path fill="#19152B" d="M292.421,405.089V383.49l3.297-1.728v23.326H292.421z"/>
	<path fill="#19152B" d="M314.277,397.857h-11.104c0.353,3.231,2.176,4.607,4.225,4.607c1.407,0,2.527-0.512,3.646-1.344
		l1.953,2.112c-1.473,1.407-3.232,2.207-5.792,2.207c-3.937,0-7.264-3.167-7.264-8.735c0-5.695,3.008-8.767,7.359-8.767
		c4.768,0,7.071,3.871,7.071,8.415C314.373,396.962,314.309,397.506,314.277,397.857z M307.078,390.914
		c-2.208,0-3.552,1.536-3.84,4.224h7.807C310.885,392.834,309.797,390.914,307.078,390.914z"/>
	<path fill="#19152B" d="M326.246,404.673c-0.801,0.448-1.92,0.768-3.232,0.768c-2.336,0-3.775-1.439-3.775-4.447v-9.695h-2.4
		v-3.008h2.4v-4.8l3.231-1.728v6.527h4.159v3.008h-4.159v9.119c0,1.568,0.513,2.016,1.728,2.016c0.864,0,1.824-0.319,2.432-0.672
		L326.246,404.673z"/>
	<path fill="#19152B" d="M345.701,384.738c-1.088,0-1.535,0.416-1.535,1.632v1.92h3.104v3.072h-3.104v13.727h-3.297v-13.727h-2.176
		v-3.072h2.176v-2.208c0-3.071,1.889-4.224,4.256-4.224c0.864,0,1.792,0.128,2.496,0.32v2.88
		C346.853,384.834,346.277,384.738,345.701,384.738z M351.269,405.089V383.49l3.295-1.728v23.326H351.269z"/>
	<path fill="#19152B" d="M369.668,405.089v-1.6c-0.832,1.216-2.496,1.951-4.224,1.951c-3.904,0-5.984-2.56-5.984-7.52v-9.631h3.297
		v9.503c0,3.393,1.279,4.608,3.455,4.608c2.208,0,3.456-1.568,3.456-4.288v-9.823h3.296v16.799H369.668z"/>
	<path fill="#19152B" d="M383.269,405.44c-2.272,0-4.736-0.896-6.432-2.144l1.504-2.496c1.567,1.088,3.327,1.664,4.895,1.664
		c2.08,0,3.072-0.672,3.072-1.855c0-1.28-1.472-1.888-3.904-2.816c-3.615-1.407-4.927-2.623-4.927-5.279
		c0-3.008,2.368-4.575,5.728-4.575c2.111,0,4.191,0.768,5.695,1.855l-1.439,2.528c-1.377-0.96-2.752-1.44-4.352-1.44
		c-1.601,0-2.305,0.64-2.305,1.536c0,0.832,0.576,1.439,3.104,2.432c3.744,1.439,5.664,2.464,5.664,5.632
		C389.572,404.193,386.564,405.44,383.269,405.44z"/>
	<path fill="#19152B" d="M404.003,405.089v-9.503c0-3.393-1.279-4.608-3.455-4.608c-2.208,0-3.456,1.568-3.456,4.288v9.823h-3.296
		V383.49l3.296-1.728v8.127c0.832-1.216,2.496-1.951,4.224-1.951c3.904,0,5.984,2.56,5.984,7.52v9.631H404.003z"/>
</g>
<g enable-background="new    ">
	<path fill="#19152B" d="M211.49,336.777c0.8-47.999,30.2-68.799,64.399-83.799c11.999-5.2,15.8-10.8,15.8-16.8
		c0-7.2-6.2-14.199-23-14.199c-16.6,0-30,7.399-39.799,16.8l-18-21c14.8-15,34.599-23.2,56.799-23.2c33.199,0,52,13.4,52,40.2
		c0,22.6-12.201,32.399-36,43.399c-24.8,11.399-34.399,20.799-37,31.599h74.399v27H211.49z"/>
</g>
<g>
	<path fill="#19152B" stroke="#6ABCC3" stroke-miterlimit="10" d="M174.05,496.304c0,0,5.817,88.435,35.902,84.652
		c0,0,36.279,2.266,46.104-9.071l-24.564-91.138L174.05,496.304z"/>
	<path fill="#19152B" stroke="#6ABCC3" stroke-miterlimit="10" d="M181.608,477.786c0,0-20.029,6.992-15.872,17.006
		c0,0,3.78,10.582,24.565,13.982c0,0,18.895,4.908,35.522,0l63.487-24.941c0,0,14.361-3.086,6.428-15.494l-15.494-15.117
		c0,0-4.621-5.289-17.384,0L181.608,477.786z"/>
	<path fill="#19152B" stroke="#6ABCC3" stroke-miterlimit="10" d="M203.715,515.011c0,0-4.911,0.566-4.344,3.589
		c0,0,0.567,2.271,4.344,2.457c0,0,7.181-0.756,8.314,2.271c0,0,4.159,5.294,7.181-0.941c0,0,2.078-4.829-4.157-8.126
		C215.053,514.256,212.787,513.499,203.715,515.011z"/>
	<ellipse fill="#19152B" stroke="#6ABCC3" stroke-miterlimit="10" cx="230.925" cy="508.165" rx="1.323" ry="2.791"/>
	<ellipse fill="#19152B" stroke="#6ABCC3" stroke-miterlimit="10" cx="287.609" cy="485.628" rx="1.514" ry="2.551"/>
	<path fill="#19152B" stroke="#6ABCC3" stroke-miterlimit="10" d="M272.875,632.729c-19.841-7.938-30.042-31.555-30.042-31.555
		c-2.269-10.392-13.229-16.629-13.229-16.629c-4.157-1.512-4.155-6.046-4.155-6.046l53.361-32.312l21.104,25.636"/>
	<path fill="#19152B" stroke="#6ABCC3" stroke-miterlimit="10" d="M244.908,610.998c0,0,3.402,9.637,1.513,17.573
		c0,0-1.891,3.213,1.887,8.883c0,0,1.323,2.454-1.7,5.854c0,0-5.759,10.561,0.144,19.928c0,0,2.124,7.288,15.35,17.302
		c0,0,9.825,6.045,26.646,22.861c0,0,8.121,9.637,25.887,8.121c0,0,18.707,0.569,25.693-16.25c0,0,2.457-6.61,0-14.354
		c0,0-3.396-9.827-3.396-19.275"/>
	<path fill="#19152B" stroke="#6ABCC3" stroke-miterlimit="10" d="M365.259,621.45c-0.959,31.426-28.332,40.187-28.332,40.187
		c-43.082,7.37-68.021-13.225-68.021-13.225c-10.767-6.991-11.714-15.686-11.714-15.686c-3.021-9.824-12.282-21.729-12.282-21.729
		c-3.591-8.691-12.282-17.571-12.282-17.571c-4.913-2.645-3.708-9.177-3.708-9.177"/>
	<path fill="#19152B" stroke="#6ABCC3" stroke-miterlimit="10" d="M254.355,581.14l-5.291,1.703c0,0-4.003,2.266-6.992-1.703
		c0,0-25.319-16.793-17.382-70.184c0,0,9.447-34.87,32.876-40.161c0,0,20.783-6.991,34.391,14.833c0,0,22.295,43.743-7.748,79.455
		L254.355,581.14z"/>
	<path fill="#19152B" stroke="#6ABCC3" stroke-miterlimit="10" d="M251.521,577.554c0,0-3.211-3.591,4.536-5.669
		c0,0,2.474-0.749,3.022,2.834c0,0-1.509,5.66,1.513,6.421c0,0,2.44,1.582,0.94,3.237c-0.22,0.245-0.528,0.491-0.94,0.734
		c-3.212,1.889-11.303,7.937-12.284,0c0,0,1.619-2.835,6.856-2.646C255.164,582.467,253.161,578.905,251.521,577.554z"/>
	<path fill="#19152B" stroke="#6ABCC3" stroke-miterlimit="10" d="M276.085,564.517c0,0-2.269-1.892,3.211-4.724
		c0,0,2.828-1.687,5.291,0c0,0-0.943,7.368,2.646,6.611c0,0,4.724,0.757,2.076,3.969c0,0-12.093,8.502-11.524,0
		C277.785,570.373,280.429,567.729,276.085,564.517z"/>
	<path fill="#19152B" stroke="#6ABCC3" stroke-miterlimit="10" d="M267.018,581.896c0,0-19.275,5.104-16.441,17.949
		c0,0,1.749,28.155,49.338,39.491c0,0,35.689,10.021,58.363-10.393c0,0,25.697-17.95-1.701-43.837c0,0-27.02-22.106-61.596-16.627
		L267.018,581.896z"/>
	<path fill="#19152B" stroke="#6ABCC3" stroke-miterlimit="10" d="M280.429,591.726c0,0-10.203,6.806-3.967,15.492
		c0,0,17.572,22.299,54.041,15.311c0,0,23.053-6.235,13.227-20.784c0,0-7.328-15.913-33.424-18.254
		C310.306,583.486,295.923,581.71,280.429,591.726z"/>
	<path fill="#19152B" stroke="#6ABCC3" stroke-miterlimit="10" d="M274.466,600.958c0,0,15.986-14.798,41.496-10.263
		c0,0,20.699,2.395,29.107,22.202"/>
	<path fill="#19152B" stroke="#6ABCC3" stroke-miterlimit="10" d="M283.171,656.384c0,0-0.732,25.662-8.729,27.361"/>
	<path fill="#19152B" stroke="#6ABCC3" stroke-miterlimit="10" d="M248.594,638.777c0,0,16.685,20.938,30.214,24.455"/>
	<path fill="#19152B" stroke="#6ABCC3" stroke-miterlimit="10" d="M248.594,638.021c0,0,6.328,6.607,11.431,8.312"/>
	<path fill="#19152B" stroke="#6ABCC3" stroke-miterlimit="10" d="M254.308,624.79c0,0,14.695,18.141,35.811,24.188"/>
	<path fill="#19152B" stroke="#6ABCC3" stroke-miterlimit="10" d="M365.259,621.45"/>
</g>
</svg>
