<?xml version="1.0" encoding="utf-8"?>
<!-- Generator: Adobe Illustrator 15.1.0, SVG Export Plug-In . SVG Version: 6.00 Build 0)  -->
<!DOCTYPE svg PUBLIC "-//W3C//DTD SVG 1.1//EN" "http://www.w3.org/Graphics/SVG/1.1/DTD/svg11.dtd">
<svg version="1.1" id="Layer_1" xmlns="http://www.w3.org/2000/svg" xmlns:xlink="http://www.w3.org/1999/xlink" x="0px" y="0px"
	 width="536.378px" height="780.521px" viewBox="0 0 536.378 780.521" enable-background="new 0 0 536.378 780.521"
	 xml:space="preserve">
<g>
	<g>
		<path fill="#6ABCC3" d="M339.072,47.392l-2.105,10.53c18.959,9.479,17.902,17.903,17.902,17.903
			c20.01,5.263,109.52,70.558,109.52,70.558c43.178,28.433,43.178,48.442,43.178,48.442
			c50.553,211.678,34.752,419.134,34.752,419.134c-26.328,106.364-67.396,119.005-67.396,119.005
			C443.326,754.024,340.126,779.3,340.126,779.3c-36.858,7.373-57.92-21.062-57.92-21.062c-20.012-28.438-41.07,0-41.07,0
			c-16.853,31.595-57.922,15.798-57.922,15.798c-17.903-3.157-101.101-38.964-101.101-38.964
			c-61.081-27.387-73.72-130.586-73.72-130.586c-1.052-20.014,5.267-153.751,5.267-153.751
			c4.915-23.523,67.401-314.882,67.401-314.882c12.635-31.595,121.105-69.508,121.105-69.508v-5.267
			c7.373-1.051,12.637-6.318,12.637-6.318l1.055-4.212l-3.161-6.318l8.424-12.636l2.175-18.333l100.026,15.161L339.072,47.392z
			 M171.628,163.23c0,0-30.543-35.806-51.604,10.534c0,0-23.17,112.683-9.479,171.655c0,0,5.267,15.797,15.798,7.373l11.584-4.212
			C137.927,348.581,147.406,358.056,171.628,163.23z"/>
	</g>
	<path fill="#19152B" d="M218.491,35.279c0,0,45.303,0.528,111.104,0.528V0H220.644L218.491,35.279z"/>
</g>
<rect x="32.689" y="381.761" fill="none" width="468" height="82"/>
<text transform="matrix(1 0 0 1 134.0508 405.0889)" fill="#19152B" font-family="'Interstate-Regular'" font-size="32">average toilet flush</text>
<text transform="matrix(1 0 0 1 208.165 336.7773)" fill="#19152B" font-family="'Interstate-Bold'" font-size="200">2</text>
<text transform="matrix(1 0 0 1 461.2104 336.7773)" font-family="'Interstate-Bold'" font-size="150"> </text>
<g>
	<path fill="#19152B" d="M183.325,496.304c0,0,5.817,88.433,35.902,84.652c0,0,36.279,2.266,46.104-9.071l-24.564-91.138
		L183.325,496.304z"/>
	<path fill="#19152B" d="M190.883,477.786c0,0-20.029,6.992-15.872,17.006c0,0,3.78,10.582,24.565,13.982c0,0,18.895,4.91,35.522,0
		l63.487-24.941c0,0,14.361-3.086,6.427-15.494l-15.494-15.117c0,0-4.62-5.289-17.384,0L190.883,477.786z"/>
	<path fill="#19152B" d="M212.99,515.011c0,0-4.911,0.566-4.344,3.589c0,0,0.567,2.27,4.344,2.457c0,0,7.181-0.756,8.314,2.269
		c0,0,4.159,5.294,7.181-0.941c0,0,2.078-4.829-4.157-8.126C224.328,514.256,222.062,513.499,212.99,515.011z"/>
	<ellipse fill="#19152B" cx="240.2" cy="508.165" rx="1.323" ry="2.791"/>
	<ellipse fill="#19152B" cx="296.884" cy="485.628" rx="1.513" ry="2.551"/>
	<path fill="#19152B" d="M282.149,632.729c-19.842-7.938-30.043-31.555-30.043-31.555c-2.269-10.392-13.229-16.629-13.229-16.629
		c-4.157-1.512-4.155-6.046-4.155-6.046l53.361-32.312l21.105,25.634"/>
	<path fill="#19152B" d="M254.183,610.998c0,0,3.402,9.637,1.513,17.573c0,0-1.891,3.213,1.887,8.883c0,0,1.323,2.454-1.7,5.854
		c0,0-5.759,10.559,0.144,19.926c0,0,2.124,7.288,15.35,17.302c0,0,9.826,6.045,26.645,22.861c0,0,8.123,9.637,25.887,8.123
		c0,0,18.707,0.569,25.695-16.25c0,0,2.457-6.612,0-14.356c0,0-3.398-9.827-3.398-19.275"/>
	<path fill="#19152B" d="M374.535,621.45c-0.959,31.426-28.332,40.187-28.332,40.187c-43.082,7.37-68.022-13.225-68.022-13.225
		c-10.767-6.991-11.714-15.686-11.714-15.686c-3.021-9.824-12.282-21.729-12.282-21.729c-3.591-8.691-12.282-17.571-12.282-17.571
		c-4.913-2.645-3.708-9.177-3.708-9.177"/>
	<path fill="#19152B" d="M263.63,581.14l-5.291,1.703c0,0-4.003,2.264-6.992-1.703c0,0-25.319-16.793-17.382-70.184
		c0,0,9.447-34.87,32.876-40.161c0,0,20.784-6.991,34.39,14.833c0,0,22.296,43.743-7.747,79.455L263.63,581.14z"/>
	<path fill="#19152B" d="M260.796,577.554c0,0-3.211-3.591,4.536-5.669c0,0,2.474-0.749,3.022,2.834c0,0-1.509,5.66,1.513,6.421
		c0,0,2.44,1.582,0.94,3.237c-0.22,0.245-0.528,0.491-0.94,0.734c-3.212,1.889-11.303,7.937-12.284,0c0,0,1.619-2.835,6.856-2.646
		C264.439,582.467,262.436,578.905,260.796,577.554z"/>
	<path fill="#19152B" d="M285.361,564.517c0,0-2.268-1.892,3.211-4.724c0,0,2.828-1.687,5.29,0c0,0-0.942,7.368,2.647,6.611
		c0,0,4.723,0.757,2.076,3.969c0,0-12.092,8.502-11.525,0C287.06,570.373,289.705,567.729,285.361,564.517z"/>
	<path fill="#19152B" d="M276.292,581.896c0,0-19.275,5.104-16.441,17.951c0,0,1.749,28.155,49.34,39.491
		c0,0,35.689,10.02,58.363-10.393c0,0,25.697-17.95-1.701-43.837c0,0-27.02-22.106-61.596-16.627L276.292,581.896z"/>
	<path fill="#19152B" d="M289.705,591.726c0,0-10.203,6.804-3.967,15.492c0,0,17.571,22.299,54.041,15.309
		c0,0,23.053-6.235,13.227-20.784c0,0-7.328-15.913-33.424-18.254C319.582,583.486,305.199,581.71,289.705,591.726z"/>
	<path fill="#19152B" d="M283.742,600.958c0,0,15.985-14.798,41.496-10.263c0,0,20.699,2.395,29.107,22.202"/>
	<path fill="#19152B" d="M292.447,656.384c0,0-0.732,25.662-8.729,27.361"/>
	<path fill="#19152B" d="M257.869,638.777c0,0,16.685,20.94,30.214,24.455"/>
	<path fill="#19152B" d="M257.869,638.021c0,0,6.328,6.609,11.431,8.312"/>
	<path fill="#19152B" d="M263.583,624.79c0,0,14.695,18.141,35.81,24.188"/>
	<path fill="#19152B" d="M374.535,621.45"/>
</g>
</svg>
