<?xml version="1.0" encoding="utf-8"?>
<!-- Generator: Adobe Illustrator 15.1.0, SVG Export Plug-In . SVG Version: 6.00 Build 0)  -->
<!DOCTYPE svg PUBLIC "-//W3C//DTD SVG 1.1//EN" "http://www.w3.org/Graphics/SVG/1.1/DTD/svg11.dtd">
<svg version="1.1" id="Layer_1" xmlns="http://www.w3.org/2000/svg" xmlns:xlink="http://www.w3.org/1999/xlink" x="0px" y="0px"
	 width="536.378px" height="780.521px" viewBox="0 0 536.378 780.521" enable-background="new 0 0 536.378 780.521"
	 xml:space="preserve">
<g>
	<g>
		<path fill="#6ABCC3" d="M329.794,47.392l-2.105,10.53c18.959,9.479,17.902,17.903,17.902,17.903
			c20.011,5.263,109.521,70.558,109.521,70.558c43.176,28.433,43.176,48.442,43.176,48.442
			c50.553,211.678,34.752,419.134,34.752,419.134c-26.328,106.364-67.396,119.005-67.396,119.005
			C434.048,754.024,330.852,779.3,330.852,779.3c-36.86,7.373-57.922-21.062-57.922-21.062c-20.01-28.436-41.069,0-41.069,0
			c-16.853,31.595-57.922,15.798-57.922,15.798c-17.903-3.157-101.101-38.964-101.101-38.964
			c-61.081-27.385-73.72-130.586-73.72-130.586c-1.052-20.012,5.267-153.751,5.267-153.751
			C9.3,427.212,71.786,135.853,71.786,135.853c12.635-31.595,121.105-69.508,121.105-69.508v-5.267
			c7.373-1.051,12.637-6.318,12.637-6.318l1.055-4.212l-3.161-6.318l8.424-12.636l2.175-18.333l100.025,15.161L329.794,47.392z
			 M162.352,163.23c0,0-30.543-35.806-51.604,10.534c0,0-23.17,112.683-9.479,171.655c0,0,5.267,15.797,15.798,7.373l11.584-4.212
			C128.651,348.581,138.13,358.056,162.352,163.23z"/>
	</g>
	<path fill="#19152B" d="M209.215,35.279c0,0,45.303,0.528,111.104,0.528V0H211.368L209.215,35.279z"/>
</g>
<rect x="32.689" y="390.261" fill="none" width="468" height="59.5"/>
<text transform="matrix(1 0 0 1 49.8149 409.9434)" font-family="'Interstate-Regular'" font-size="27">number of gallons needed to cover </text>
<text transform="matrix(1 0 0 1 34.5601 442.3438)" font-family="'Interstate-Regular'" font-size="27">the entire U.S. with one foot of water</text>
<text transform="matrix(1 0 0 1 195.2695 288.8154)" font-family="'Interstate-Bold'" font-size="120">790</text>
<text transform="matrix(1 0 0 1 235.7646 350.21)" font-family="'Interstate-Bold'" font-size="50">trillion</text>
<path d="M38.892,585.841c0.348,2.389-1.561,3.587-1.3,5.376c1.088,7.471,5.819,13.452,14.734,15.539
	c6.409-0.894,13.081,14.343,14.074,19.127l0.043,0.297c7.128,0,14.681-1.197,18.411,0l25.639,12.854h26.137l1.429-4.481
	c7.429,0,9.674,1.196,14.255,0c0.826,5.672,7.326,7.475,8.954,10.462c4.051,7.467,5.06,16.431,12.784,16.431
	c4.159,0,4.936-6.871,11.478-6.871c12.463,0,15.249,19.127,18.52,29.287c2.055,5.978,13.606,7.769,18.567,9.261h0.6
	c-0.653-4.482-2.762-12.848-1.548-16.735c1.219-3.884,8.424-7.466,7.641-12.848c7.126,0,10.262-2.988,14.655-5.385
	c1.947-0.884,0.03-3.876,3.208-4.477c0,0,1.532,0.298,3.31,0.298c1.785,0,1.393-2.688,4.661-2.688c4.157,0,6.629,2.688,10.786,2.688
	c2.075,0,3.478-0.595,5.768-1.192c2.177,2.686,4.347,5.371,8.8,5.371c2.971,0,2.457-1.487,6.021-1.487
	c2.081,0,2.812,2.986,5.192,2.986c0.294,0,0.759-0.894,0.759-0.894l-0.262-1.79c-1.779,0-3.234-1.804-3.32-2.396
	c-0.306-2.093-0.435-2.987-1.087-7.464c2.67,0,7.929-0.605,9.583-1.501l6.708,1.196c1.193,0,2.377,0,3.051-1.498h8.91
	c0.77,1.197,7.435,2.093,7.782,4.481c0.131,0.901-0.246,2.396,0.437,2.994l1.523,0.296c3.478-0.598,4.32-2.987,7.756-3.883
	c3.104,0.896,7.004,1.191,7.525,4.779c0.437,2.994,2.315,5.678,5.416,6.575c-0.372,3.586-2.724,4.296-2.201,7.881
	c0.22,1.501,1.977,2.878,3.003,3.769c-0.853,0.303-1.27,1.501-1.14,2.396c0.479,3.29,2.066,5.978,4.788,8.372
	c0.514,1.486,0.392,2.686,0.74,5.08c0.522,3.582,6.147,9.563,8.815,9.563c0.891,0,2.075,0,2.972,0
	c-0.392-2.692,0.49-4.785,0.993-7.471l0.043,0.297c-0.348-2.39,1.302-3.283,0.865-6.279c-0.608-4.181,0.186-6.877-0.423-11.058
	c-0.914-6.273-6.412-13.447-7.674-22.108c-1.523-10.463,2.058-18.533,7.374-24.812c3.239,1.802,3.727-2.988,6.568-3.884
	c6.527-2.092,3.613-9.864,11.633-9.864l-0.26-1.786c0.679,0.593,2.075,0,2.97,0c3.254-2.094,3.364-7.475,8.714-7.475
	c1.778,0,3.857,0,4.828-1.489c-3.387-3.86,1.243-4.406,4.99-6.61l0.037,0.332c0.794-2.692,3.555-2.094,4.948-4.785
	c-2.379-2.088-1.514-6.273-4.232-8.668c-1.358-1.186-2.503-0.895-3.702-2.987c1.483,0,2.125,0.301,3.946,0.593
	c-2.254-1.186-0.173-1.186-0.218-3.576c0.678,0.594,1.604,0.891,2.5,0.891c1.489,0,2.242-0.891,3.644-1.489
	c-1.027-2.987-1.376-5.382-3.3-8.37l-0.305-2.094c1.454,1.796,2.02,5.68,6.175,5.68c2.083,0,2.58-2.691,2.274-4.785
	c-0.303-2.081-0.913-6.271-1.479-10.162c0,0,0.436,2.948,1.918,2.948c-0.673,1.495,0.163,1.646,1.66,3.738
	c0.887-2.093,1.866-3.987,4.064-5.187l0.341,0.303c1.653-0.895,4.599-7.173,4.772-8.073c0.237-2.392-2.273-5.38,0.567-6.273
	c0.297,0,3.304,0.296,5.386,0.296c3.57,0,5.262-0.599,7.46-1.791h-9.802c4.702-2.39,11.157-0.9,16.665-3.889
	c1.396-0.593,1.895-3.284,3.091-3.284c4.151,0,8.661,2.389,10.766-1.495l-1.361-1.194c-0.549,0.296-1.309,1.194-2.204,1.194
	c-0.888,0-1.477,0-2.371,0c1.011-1.194-0.436-2.991-0.696-4.781c-0.609-4.186,2.476-6.156,2.459-10.338
	c6.536-6.942,21.007-8.646,30.294-13.566c-0.729-0.902-4.275-8.968-4.449-10.164c-0.522-3.583,1.632-5.082,2.599-8.663l-10.28-3.288
	c-10.396,0-9.344,21.513-22.109,21.513c-1.186,0-2.251,0.904-3.438,0.904c-5.985-0.302-1.779,0-17.232,0
	c-11.188,2.684-16.445,15.536-27.431,15.536c-2.372,0-3.876-2.092-6.247-2.092c-6.534,0-4.941,6.872-7.601,8.961
	c-3.729,2.987-20.668,11.059-25.726,11.059c-2.372,0-7.592-1.196-7.853-2.987c-1.044-7.173,11.519-6.575,10.518-13.447
	c-0.131-0.898-2.256-1.2-2.386-2.094c-0.435-2.986,1.046-2.986-1.897-6.872c-1.353,0.895-2.406,1.793-2.992,3.886H357
	c1.259-3.586,7.313-6.875,6.443-12.854c-0.521-3.584-3.92-4.479-5.106-4.479c-1.79,0-4.379,0.593-5.939,0
	c-3.888,5.975-11.011,8.066-15.057,14.94c-3.54,6.271,2.584,21.815-10.788,21.815c-1.476,0-3.983-0.896-4.201-2.389
	c-1.306-8.969,5.488-19.427,9.116-25.106c-1.334-5.082,7.418-12.252,12.181-12.252c2.661,0,5.335,0,9.788,0
	c3.569,0,4.16-2.092,6.908-3.583c-6.542-2.092-11.247,0.295-15.194-2.39c-3.399-0.902-8.79,0.89-9.79-5.979
	c-1.345,0.895-2.79,1.197-4.583-0.896c0.302,0,1.357-0.898,2.761-1.491c-8.659,1.787-15.554,5.373-23.875,5.373
	c0,0-4.068,0.597-6.022-0.595c3.837-6.279,9.946-5.081,15.697-10.461c-3.266,0-9.761-1.794-12.231-2.393l0.131,0.9
	c-2.545-1.197-3.904-2.395-6.29-2.395c-1.482,0-2.37,0-3.853,0c-3.867,0-8.283-1.791-8.979-6.572H77.822
	c-2.023,2.389-0.248,12.551-5.589,12.551h-0.601c-0.479-3.287-4.084-3.584-8.075-4.484c0,0-10.525,35.512-20.468,43.734
	c-3.476,2.872-6.744,15.008-6.744,15.008s0.576,8.899-5.394,16.371c1.069,1.196,0.983,3.488,1.287,5.574
	c0.13,0.896,0.174,1.191,0.306,2.1c-1.401,0.592-1.096,2.686-0.966,3.58c0.479,3.292,3.944,10.755,3.944,10.755
	c1.483,0,3.605-1.79,3.605-1.79c1.483,0,4.281,0.896,4.281,0.896c-1.951,0.894-5.64,0-5.334,2.092
	c0.13,0.896,0.557,1.791,0.983,2.686c-0.889,0-2.464-0.592-3.143-1.19c0.043,0.296-0.419,1.19-0.375,1.498
	c0.348,2.39,1.166,5.972,3.543,5.972c0.13,0.895,0.218,1.498,0.349,2.395c0.13,0.895-0.08,1.489-0.843,2.391H38.892z"/>
</svg>
