<?xml version="1.0" encoding="utf-8"?>
<!-- Generator: Adobe Illustrator 15.1.0, SVG Export Plug-In . SVG Version: 6.00 Build 0)  -->
<!DOCTYPE svg PUBLIC "-//W3C//DTD SVG 1.1//EN" "http://www.w3.org/Graphics/SVG/1.1/DTD/svg11.dtd">
<svg version="1.1" id="Layer_1" xmlns="http://www.w3.org/2000/svg" xmlns:xlink="http://www.w3.org/1999/xlink" x="0px" y="0px"
	 width="536.378px" height="780.521px" viewBox="0 0 536.378 780.521" enable-background="new 0 0 536.378 780.521"
	 xml:space="preserve">
<g enable-background="new    ">
	<path d="M231.302,290.136c-18.719,0-33.359-10.439-33.359-33.959c0-22.079,12.959-52.678,56.518-52.678v16.319
		c-19.439,0-31.798,6.84-36.598,19.679c5.4-3.6,10.679-5.279,19.199-5.279c16.679,0,29.639,8.52,29.639,27.119
		C266.701,280.056,251.102,290.136,231.302,290.136z M232.862,249.457c-11.4,0-17.52,3.84-17.52,12.6
		c0,7.8,5.76,12.479,16.679,12.479c11.16,0,17.639-4.8,17.639-12.6C249.661,253.417,243.422,249.457,232.862,249.457z"/>
	<path d="M288.183,290.136c-6.12,0-11.279-5.16-11.279-11.28c0-6.119,5.159-11.279,11.279-11.279c6.119,0,11.279,5.16,11.279,11.279
		C299.462,284.976,294.302,290.136,288.183,290.136z"/>
	<path d="M342.06,290.136c-12.6,0-23.879-4.92-33.238-16.08l12.719-10.319c6.961,7.319,13.561,9.96,22.08,9.96
		c11.039,0,16.199-3.96,16.199-10.68c0-6.479-4.439-9.6-12.359-9.6h-9.96v-16.439h8.999c6.961,0,9.84-3,9.84-8.52
		c0-4.32-3.479-8.52-14.039-8.52c-6.48,0-11.76,2.279-16.439,7.079l-12.239-11.159c8.04-8.399,16.438-12.359,28.919-12.359
		c17.159,0,30.838,7.92,30.838,23.759c0,9.12-4.799,14.64-9.719,17.159c5.399,2.04,13.199,7.32,13.199,18.359
		C376.859,280.896,362.939,290.136,342.06,290.136z"/>
	<path d="M419.099,290.136c-12.119,0-22.199-2.4-32.758-9l8.159-14.279c7.8,4.439,16.079,7.08,24.599,7.08c11.4,0,18-4.801,18-13.8
		c0-8.76-6.359-12.479-14.279-12.479c-7.561,0-12.6,2.279-16.56,5.04l-15.96-5.88l2.881-41.998h55.918v16.199H408.66l-0.959,14.52
		c4.68-2.521,9.719-3.84,17.639-3.84c18.84,0,28.799,11.999,28.799,27.838C454.138,279.696,439.739,290.136,419.099,290.136z"/>
</g>
<rect x="-21.884" y="408.516" fill="none" width="587.719" height="68.403"/>
<g enable-background="new    ">
	<path d="M89.999,411.816v3.479h3.78v2.01h-3.78v7.83c0,1.8,0.51,2.819,1.98,2.819c0.72,0,1.14-0.06,1.53-0.18l0.12,2.01
		c-0.51,0.181-1.32,0.36-2.34,0.36c-1.23,0-2.22-0.42-2.85-1.11c-0.72-0.81-1.02-2.1-1.02-3.81v-7.92h-2.25v-2.01h2.25v-2.7
		L89.999,411.816z"/>
	<path d="M109.708,422.436c0,5.37-3.75,7.71-7.23,7.71c-3.9,0-6.959-2.88-6.959-7.47c0-4.83,3.209-7.68,7.2-7.68
		C106.888,414.996,109.708,418.026,109.708,422.436z M98.219,422.586c0,3.18,1.8,5.579,4.38,5.579c2.52,0,4.41-2.369,4.41-5.64
		c0-2.46-1.23-5.55-4.35-5.55C99.569,416.976,98.219,419.855,98.219,422.586z"/>
	<path d="M116.218,411.816v3.479h3.78v2.01h-3.78v7.83c0,1.8,0.51,2.819,1.98,2.819c0.72,0,1.14-0.06,1.53-0.18l0.12,2.01
		c-0.51,0.181-1.32,0.36-2.34,0.36c-1.23,0-2.22-0.42-2.85-1.11c-0.72-0.81-1.02-2.1-1.02-3.81v-7.92h-2.25v-2.01h2.25v-2.7
		L116.218,411.816z"/>
	<path d="M133.168,426.336c0,1.26,0.06,2.489,0.21,3.479h-2.37l-0.21-1.83h-0.09c-0.81,1.14-2.37,2.16-4.44,2.16
		c-2.94,0-4.44-2.07-4.44-4.17c0-3.51,3.12-5.43,8.73-5.399v-0.301c0-1.17-0.33-3.359-3.3-3.329c-1.38,0-2.79,0.39-3.81,1.08
		l-0.6-1.771c1.2-0.75,2.97-1.26,4.8-1.26c4.44,0,5.52,3.03,5.52,5.91V426.336z M130.618,422.405c-2.88-0.06-6.15,0.45-6.15,3.271
		c0,1.739,1.14,2.52,2.46,2.52c1.92,0,3.15-1.2,3.57-2.43c0.09-0.3,0.12-0.6,0.12-0.84V422.405z"/>
	<path d="M137.428,408.517h2.64v21.299h-2.64V408.517z"/>
	<path d="M151.888,415.296l2.85,8.13c0.48,1.35,0.87,2.55,1.17,3.75h0.09c0.33-1.2,0.75-2.4,1.23-3.75l2.82-8.13h2.76l-5.7,14.52
		h-2.52l-5.52-14.52H151.888z"/>
	<path d="M178.137,422.436c0,5.37-3.75,7.71-7.23,7.71c-3.9,0-6.959-2.88-6.959-7.47c0-4.83,3.209-7.68,7.2-7.68
		C175.317,414.996,178.137,418.026,178.137,422.436z M166.647,422.586c0,3.18,1.8,5.579,4.38,5.579c2.52,0,4.41-2.369,4.41-5.64
		c0-2.46-1.23-5.55-4.35-5.55C167.998,416.976,166.647,419.855,166.647,422.586z"/>
	<path d="M181.467,408.517h2.64v21.299h-2.64V408.517z"/>
	<path d="M200.697,425.825c0,1.53,0.03,2.851,0.12,3.99h-2.34l-0.15-2.37h-0.06c-0.66,1.17-2.22,2.7-4.8,2.7
		c-2.28,0-5.01-1.29-5.01-6.359v-8.49h2.64v8.01c0,2.76,0.87,4.649,3.24,4.649c1.77,0,3-1.229,3.48-2.43
		c0.15-0.359,0.24-0.84,0.24-1.35v-8.88h2.64V425.825z"/>
	<path d="M205.077,419.226c0-1.529-0.06-2.729-0.12-3.93h2.31l0.12,2.37h0.09c0.81-1.38,2.16-2.67,4.59-2.67
		c1.95,0,3.45,1.2,4.08,2.91h0.06c0.45-0.84,1.05-1.44,1.65-1.891c0.87-0.659,1.8-1.02,3.18-1.02c1.95,0,4.8,1.26,4.8,6.3v8.52
		h-2.58v-8.189c0-2.82-1.05-4.47-3.15-4.47c-1.53,0-2.67,1.109-3.15,2.369c-0.12,0.391-0.21,0.841-0.21,1.32v8.97h-2.58v-8.699
		c0-2.311-1.02-3.96-3.03-3.96c-1.62,0-2.85,1.319-3.27,2.64c-0.15,0.36-0.21,0.84-0.21,1.29v8.729h-2.58V419.226z"/>
	<path d="M231.567,423.036c0.06,3.569,2.31,5.039,4.98,5.039c1.89,0,3.06-0.33,4.02-0.75l0.48,1.891c-0.93,0.42-2.55,0.93-4.86,0.93
		c-4.47,0-7.14-2.97-7.14-7.35s2.58-7.8,6.81-7.8c4.77,0,6,4.14,6,6.81c0,0.54-0.03,0.93-0.09,1.23H231.567z M239.307,421.146
		c0.03-1.649-0.69-4.26-3.66-4.26c-2.7,0-3.84,2.43-4.05,4.26H239.307z"/>
	<path d="M264.626,422.436c0,5.37-3.75,7.71-7.23,7.71c-3.9,0-6.959-2.88-6.959-7.47c0-4.83,3.209-7.68,7.2-7.68
		C261.806,414.996,264.626,418.026,264.626,422.436z M253.136,422.586c0,3.18,1.8,5.579,4.38,5.579c2.52,0,4.41-2.369,4.41-5.64
		c0-2.46-1.23-5.55-4.35-5.55C254.486,416.976,253.136,419.855,253.136,422.586z"/>
	<path d="M268.227,429.815v-12.51h-2.01v-2.01h2.01v-0.689c0-2.04,0.48-3.9,1.679-5.07c0.99-0.96,2.311-1.35,3.541-1.35
		c0.959,0,1.739,0.21,2.25,0.42l-0.36,2.04c-0.39-0.181-0.9-0.33-1.681-0.33c-2.25,0-2.819,1.95-2.819,4.199v0.78h3.51v2.01h-3.51
		v12.51H268.227z"/>
	<path d="M284.125,415.296l1.95,7.38c0.39,1.62,0.779,3.12,1.05,4.62h0.09c0.33-1.471,0.81-3.03,1.29-4.59l2.37-7.41h2.22l2.25,7.26
		c0.54,1.74,0.96,3.27,1.29,4.74h0.09c0.239-1.471,0.63-3,1.11-4.71l2.069-7.29h2.61l-4.68,14.52h-2.4l-2.22-6.93
		c-0.511-1.62-0.931-3.06-1.29-4.77h-0.061c-0.359,1.739-0.81,3.239-1.319,4.8l-2.34,6.899h-2.399l-4.381-14.52H284.125z"/>
	<path d="M315.236,426.336c0,1.26,0.06,2.489,0.209,3.479h-2.369l-0.211-1.83h-0.09c-0.81,1.14-2.369,2.16-4.439,2.16
		c-2.939,0-4.439-2.07-4.439-4.17c0-3.51,3.119-5.43,8.729-5.399v-0.301c0-1.17-0.33-3.359-3.3-3.329c-1.381,0-2.79,0.39-3.811,1.08
		l-0.6-1.771c1.2-0.75,2.971-1.26,4.8-1.26c4.44,0,5.521,3.03,5.521,5.91V426.336z M312.685,422.405
		c-2.879-0.06-6.149,0.45-6.149,3.271c0,1.739,1.14,2.52,2.46,2.52c1.92,0,3.15-1.2,3.57-2.43c0.09-0.3,0.119-0.6,0.119-0.84
		V422.405z"/>
	<path d="M322.555,411.816v3.479h3.78v2.01h-3.78v7.83c0,1.8,0.511,2.819,1.979,2.819c0.721,0,1.141-0.06,1.531-0.18l0.119,2.01
		c-0.51,0.181-1.32,0.36-2.34,0.36c-1.23,0-2.22-0.42-2.85-1.11c-0.721-0.81-1.02-2.1-1.02-3.81v-7.92h-2.25v-2.01h2.25v-2.7
		L322.555,411.816z"/>
	<path d="M330.595,423.036c0.061,3.569,2.311,5.039,4.98,5.039c1.89,0,3.06-0.33,4.02-0.75l0.48,1.891
		c-0.931,0.42-2.551,0.93-4.86,0.93c-4.47,0-7.14-2.97-7.14-7.35s2.58-7.8,6.81-7.8c4.771,0,5.999,4.14,5.999,6.81
		c0,0.54-0.029,0.93-0.09,1.23H330.595z M338.335,421.146c0.029-1.649-0.69-4.26-3.66-4.26c-2.699,0-3.84,2.43-4.05,4.26H338.335z"
		/>
	<path d="M344.156,419.826c0-1.71-0.031-3.181-0.121-4.53h2.311l0.12,2.88h0.09c0.66-1.95,2.28-3.18,4.05-3.18
		c0.27,0,0.48,0.03,0.721,0.06v2.49c-0.271-0.06-0.541-0.06-0.9-0.06c-1.86,0-3.18,1.38-3.54,3.359
		c-0.06,0.36-0.091,0.81-0.091,1.23v7.739h-2.639V419.826z"/>
	<path d="M363.504,411.816v3.479h3.78v2.01h-3.78v7.83c0,1.8,0.511,2.819,1.979,2.819c0.721,0,1.141-0.06,1.531-0.18l0.119,2.01
		c-0.51,0.181-1.32,0.36-2.34,0.36c-1.23,0-2.22-0.42-2.85-1.11c-0.721-0.81-1.02-2.1-1.02-3.81v-7.92h-2.25v-2.01h2.25v-2.7
		L363.504,411.816z"/>
	<path d="M370.255,419.826c0-1.71-0.031-3.181-0.121-4.53h2.311l0.12,2.88h0.09c0.66-1.95,2.28-3.18,4.05-3.18
		c0.27,0,0.48,0.03,0.721,0.06v2.49c-0.271-0.06-0.541-0.06-0.9-0.06c-1.86,0-3.18,1.38-3.54,3.359
		c-0.06,0.36-0.091,0.81-0.091,1.23v7.739h-2.639V419.826z"/>
	<path d="M390.115,426.336c0,1.26,0.061,2.489,0.21,3.479h-2.37l-0.21-1.83h-0.09c-0.81,1.14-2.37,2.16-4.44,2.16
		c-2.939,0-4.439-2.07-4.439-4.17c0-3.51,3.12-5.43,8.73-5.399v-0.301c0-1.17-0.33-3.359-3.301-3.329c-1.38,0-2.789,0.39-3.81,1.08
		l-0.601-1.771c1.201-0.75,2.971-1.26,4.801-1.26c4.439,0,5.52,3.03,5.52,5.91V426.336z M387.564,422.405
		c-2.879-0.06-6.148,0.45-6.148,3.271c0,1.739,1.139,2.52,2.459,2.52c1.92,0,3.15-1.2,3.57-2.43c0.09-0.3,0.119-0.6,0.119-0.84
		V422.405z"/>
	<path d="M394.375,420.036c0-1.86-0.061-3.36-0.12-4.74h2.34l0.149,2.49h0.061c1.051-1.771,2.79-2.79,5.16-2.79
		c3.539,0,6.18,2.97,6.18,7.35c0,5.22-3.21,7.8-6.63,7.8c-1.92,0-3.6-0.84-4.47-2.28h-0.061v7.89h-2.609V420.036z M396.984,423.905
		c0,0.391,0.03,0.75,0.121,1.08c0.479,1.83,2.069,3.09,3.959,3.09c2.79,0,4.41-2.279,4.41-5.609c0-2.88-1.529-5.37-4.32-5.37
		c-1.799,0-3.51,1.26-3.989,3.24c-0.091,0.33-0.181,0.72-0.181,1.05V423.905z"/>
	<path d="M411.445,420.036c0-1.86-0.061-3.36-0.121-4.74h2.34l0.15,2.49h0.061c1.05-1.771,2.789-2.79,5.16-2.79
		c3.539,0,6.18,2.97,6.18,7.35c0,5.22-3.211,7.8-6.631,7.8c-1.92,0-3.6-0.84-4.469-2.28h-0.061v7.89h-2.609V420.036z
		 M414.054,423.905c0,0.391,0.029,0.75,0.12,1.08c0.479,1.83,2.069,3.09,3.96,3.09c2.789,0,4.41-2.279,4.41-5.609
		c0-2.88-1.531-5.37-4.32-5.37c-1.8,0-3.51,1.26-3.99,3.24c-0.09,0.33-0.18,0.72-0.18,1.05V423.905z"/>
	<path d="M429.984,423.036c0.06,3.569,2.31,5.039,4.979,5.039c1.89,0,3.06-0.33,4.021-0.75l0.479,1.891
		c-0.931,0.42-2.55,0.93-4.86,0.93c-4.469,0-7.139-2.97-7.139-7.35s2.579-7.8,6.809-7.8c4.77,0,6,4.14,6,6.81
		c0,0.54-0.029,0.93-0.09,1.23H429.984z M437.723,421.146c0.03-1.649-0.69-4.26-3.659-4.26c-2.701,0-3.84,2.43-4.051,4.26H437.723z"
		/>
	<path d="M456.052,408.517v17.549c0,1.29,0.061,2.76,0.121,3.75h-2.34l-0.121-2.52h-0.09c-0.779,1.619-2.52,2.85-4.889,2.85
		c-3.511,0-6.24-2.97-6.24-7.38c-0.03-4.83,3-7.77,6.51-7.77c2.25,0,3.72,1.05,4.379,2.189h0.061v-8.669H456.052z M453.443,421.206
		c0-0.33-0.029-0.78-0.119-1.11c-0.391-1.649-1.83-3.029-3.811-3.029c-2.73,0-4.35,2.399-4.35,5.579c0,2.94,1.47,5.37,4.289,5.37
		c1.771,0,3.391-1.2,3.871-3.15c0.09-0.359,0.119-0.72,0.119-1.14V421.206z"/>
</g>
<g enable-background="new    ">
	<path d="M59.22,447.216c0,0.9-0.63,1.62-1.68,1.62c-0.96,0-1.59-0.72-1.59-1.62c0-0.899,0.66-1.649,1.65-1.649
		C58.56,445.566,59.22,446.286,59.22,447.216z M56.28,465.815v-14.52h2.64v14.52H56.28z"/>
	<path d="M63.3,455.226c0-1.529-0.03-2.729-0.12-3.93h2.34l0.15,2.4h0.06c0.72-1.351,2.4-2.7,4.8-2.7c2.01,0,5.13,1.2,5.13,6.18
		v8.64h-2.64v-8.37c0-2.34-0.87-4.289-3.36-4.289c-1.71,0-3.06,1.229-3.54,2.699c-0.12,0.33-0.18,0.78-0.18,1.23v8.729H63.3V455.226
		z"/>
	<path d="M98.729,463.686c0,3.359-0.69,5.37-2.07,6.66c-1.44,1.289-3.48,1.739-5.31,1.739c-1.74,0-3.66-0.42-4.83-1.2l0.66-2.039
		c0.96,0.63,2.459,1.17,4.26,1.17c2.7,0,4.68-1.41,4.68-5.101v-1.59h-0.06c-0.78,1.351-2.37,2.431-4.62,2.431
		c-3.6,0-6.18-3.061-6.18-7.08c0-4.92,3.209-7.68,6.569-7.68c2.52,0,3.87,1.29,4.53,2.49h0.06l0.09-2.19h2.34
		c-0.09,1.021-0.12,2.22-0.12,3.96V463.686z M96.089,457.025c0-0.449-0.03-0.84-0.15-1.17c-0.48-1.56-1.74-2.819-3.689-2.819
		c-2.52,0-4.32,2.13-4.32,5.489c0,2.851,1.47,5.22,4.29,5.22c1.65,0,3.12-1.02,3.66-2.699c0.15-0.45,0.21-0.96,0.21-1.41V457.025z"
		/>
	<path d="M103.079,444.517h2.64v21.299h-2.64V444.517z"/>
	<path d="M120.358,462.336c0,1.26,0.06,2.489,0.21,3.479h-2.37l-0.21-1.83h-0.09c-0.81,1.14-2.37,2.16-4.44,2.16
		c-2.94,0-4.44-2.07-4.44-4.17c0-3.51,3.12-5.43,8.73-5.399v-0.301c0-1.17-0.33-3.359-3.3-3.329c-1.38,0-2.79,0.39-3.81,1.08
		l-0.6-1.771c1.2-0.75,2.97-1.26,4.8-1.26c4.44,0,5.52,3.03,5.52,5.91V462.336z M117.809,458.405c-2.88-0.06-6.15,0.45-6.15,3.271
		c0,1.739,1.14,2.52,2.46,2.52c1.92,0,3.15-1.2,3.57-2.43c0.09-0.3,0.12-0.6,0.12-0.84V458.405z"/>
	<path d="M134.968,465.306c-0.69,0.33-2.22,0.84-4.17,0.84c-4.38,0-7.229-2.97-7.229-7.41c0-4.47,3.06-7.739,7.799-7.739
		c1.56,0,2.94,0.39,3.66,0.78l-0.6,2.01c-0.63-0.33-1.62-0.69-3.06-0.69c-3.33,0-5.129,2.49-5.129,5.49c0,3.359,2.16,5.43,5.04,5.43
		c1.5,0,2.49-0.36,3.24-0.69L134.968,465.306z"/>
	<path d="M140.998,447.216c0,0.9-0.63,1.62-1.68,1.62c-0.96,0-1.59-0.72-1.59-1.62c0-0.899,0.66-1.649,1.65-1.649
		C140.338,445.566,140.998,446.286,140.998,447.216z M138.058,465.815v-14.52h2.64v14.52H138.058z"/>
	<path d="M146.548,459.036c0.06,3.569,2.31,5.039,4.98,5.039c1.89,0,3.06-0.33,4.02-0.75l0.48,1.891c-0.93,0.42-2.55,0.93-4.86,0.93
		c-4.47,0-7.14-2.97-7.14-7.35s2.58-7.8,6.81-7.8c4.77,0,6,4.14,6,6.81c0,0.54-0.03,0.93-0.09,1.23H146.548z M154.288,457.146
		c0.03-1.649-0.69-4.26-3.66-4.26c-2.7,0-3.84,2.43-4.05,4.26H154.288z"/>
	<path d="M160.108,455.826c0-1.71-0.03-3.181-0.12-4.53h2.31l0.12,2.88h0.09c0.66-1.95,2.28-3.18,4.05-3.18
		c0.27,0,0.48,0.03,0.72,0.06v2.49c-0.27-0.06-0.54-0.06-0.9-0.06c-1.86,0-3.18,1.38-3.54,3.359c-0.06,0.36-0.09,0.81-0.09,1.23
		v7.739h-2.64V455.826z"/>
	<path d="M169.558,463.146c0.81,0.48,2.19,1.02,3.51,1.02c1.89,0,2.79-0.93,2.79-2.159c0-1.26-0.75-1.92-2.67-2.641
		c-2.64-0.96-3.87-2.369-3.87-4.109c0-2.34,1.92-4.26,5.01-4.26c1.47,0,2.76,0.39,3.54,0.899l-0.63,1.92
		c-0.57-0.359-1.62-0.869-2.97-0.869c-1.56,0-2.4,0.899-2.4,1.979c0,1.2,0.84,1.74,2.73,2.49c2.49,0.93,3.81,2.189,3.81,4.35
		c0,2.58-2.01,4.38-5.4,4.38c-1.59,0-3.06-0.42-4.08-1.021L169.558,463.146z"/>
	<path d="M179.758,469.535c0.66-1.8,1.47-5.01,1.8-7.199l2.94-0.301c-0.72,2.551-2.04,5.88-2.88,7.29L179.758,469.535z"/>
	<path d="M196.978,447.216c0,0.9-0.63,1.62-1.68,1.62c-0.96,0-1.59-0.72-1.59-1.62c0-0.899,0.66-1.649,1.65-1.649
		C196.317,445.566,196.978,446.286,196.978,447.216z M194.038,465.815v-14.52h2.64v14.52H194.038z"/>
	<path d="M211.407,465.306c-0.69,0.33-2.22,0.84-4.17,0.84c-4.38,0-7.229-2.97-7.229-7.41c0-4.47,3.06-7.739,7.799-7.739
		c1.56,0,2.94,0.39,3.66,0.78l-0.6,2.01c-0.63-0.33-1.62-0.69-3.06-0.69c-3.33,0-5.129,2.49-5.129,5.49c0,3.359,2.16,5.43,5.04,5.43
		c1.5,0,2.49-0.36,3.24-0.69L211.407,465.306z"/>
	<path d="M215.787,459.036c0.06,3.569,2.31,5.039,4.98,5.039c1.89,0,3.06-0.33,4.02-0.75l0.48,1.891c-0.93,0.42-2.55,0.93-4.86,0.93
		c-4.47,0-7.14-2.97-7.14-7.35s2.58-7.8,6.81-7.8c4.77,0,6,4.14,6,6.81c0,0.54-0.03,0.93-0.09,1.23H215.787z M223.527,457.146
		c0.03-1.649-0.69-4.26-3.66-4.26c-2.7,0-3.84,2.43-4.05,4.26H223.527z"/>
	<path d="M246.056,465.306c-0.69,0.33-2.22,0.84-4.17,0.84c-4.38,0-7.229-2.97-7.229-7.41c0-4.47,3.06-7.739,7.799-7.739
		c1.56,0,2.94,0.39,3.66,0.78l-0.6,2.01c-0.63-0.33-1.62-0.69-3.06-0.69c-3.33,0-5.129,2.49-5.129,5.49c0,3.359,2.16,5.43,5.04,5.43
		c1.5,0,2.49-0.36,3.24-0.69L246.056,465.306z"/>
	<path d="M259.346,462.336c0,1.26,0.06,2.489,0.21,3.479h-2.37l-0.21-1.83h-0.09c-0.81,1.14-2.37,2.16-4.44,2.16
		c-2.94,0-4.44-2.07-4.44-4.17c0-3.51,3.12-5.43,8.73-5.399v-0.301c0-1.17-0.33-3.359-3.3-3.329c-1.38,0-2.79,0.39-3.81,1.08
		l-0.6-1.771c1.2-0.75,2.97-1.26,4.8-1.26c4.44,0,5.52,3.03,5.52,5.91V462.336z M256.796,458.405c-2.88-0.06-6.149,0.45-6.149,3.271
		c0,1.739,1.14,2.52,2.46,2.52c1.92,0,3.15-1.2,3.57-2.43c0.09-0.3,0.12-0.6,0.12-0.84V458.405z"/>
	<path d="M263.606,456.036c0-1.86-0.06-3.36-0.12-4.74h2.34l0.15,2.49h0.06c1.05-1.771,2.79-2.79,5.161-2.79
		c3.539,0,6.18,2.97,6.18,7.35c0,5.22-3.211,7.8-6.631,7.8c-1.92,0-3.599-0.84-4.469-2.28h-0.06v7.89h-2.61V456.036z
		 M266.216,459.905c0,0.391,0.03,0.75,0.12,1.08c0.48,1.83,2.07,3.09,3.96,3.09c2.789,0,4.41-2.279,4.41-5.609
		c0-2.88-1.531-5.37-4.32-5.37c-1.8,0-3.51,1.26-3.99,3.24c-0.09,0.33-0.18,0.72-0.18,1.05V459.905z"/>
	<path d="M280.316,463.146c0.811,0.48,2.189,1.02,3.51,1.02c1.89,0,2.79-0.93,2.79-2.159c0-1.26-0.75-1.92-2.67-2.641
		c-2.64-0.96-3.87-2.369-3.87-4.109c0-2.34,1.92-4.26,5.01-4.26c1.471,0,2.76,0.39,3.54,0.899l-0.63,1.92
		c-0.57-0.359-1.62-0.869-2.971-0.869c-1.559,0-2.399,0.899-2.399,1.979c0,1.2,0.841,1.74,2.729,2.49
		c2.49,0.93,3.811,2.189,3.811,4.35c0,2.58-2.01,4.38-5.4,4.38c-1.59,0-3.06-0.42-4.08-1.021L280.316,463.146z"/>
	<path d="M309.115,462.336c0,1.26,0.061,2.489,0.211,3.479h-2.371l-0.209-1.83h-0.09c-0.811,1.14-2.371,2.16-4.44,2.16
		c-2.94,0-4.44-2.07-4.44-4.17c0-3.51,3.121-5.43,8.73-5.399v-0.301c0-1.17-0.33-3.359-3.301-3.329c-1.379,0-2.789,0.39-3.809,1.08
		l-0.601-1.771c1.2-0.75,2.97-1.26,4.8-1.26c4.439,0,5.52,3.03,5.52,5.91V462.336z M306.566,458.405
		c-2.881-0.06-6.15,0.45-6.15,3.271c0,1.739,1.14,2.52,2.46,2.52c1.92,0,3.149-1.2,3.569-2.43c0.09-0.3,0.121-0.6,0.121-0.84
		V458.405z"/>
	<path d="M313.375,455.226c0-1.529-0.03-2.729-0.12-3.93h2.34l0.15,2.4h0.06c0.72-1.351,2.399-2.7,4.8-2.7
		c2.01,0,5.13,1.2,5.13,6.18v8.64h-2.64v-8.37c0-2.34-0.87-4.289-3.359-4.289c-1.711,0-3.061,1.229-3.541,2.699
		c-0.119,0.33-0.18,0.78-0.18,1.23v8.729h-2.64V455.226z"/>
	<path d="M342.535,444.517v17.549c0,1.29,0.061,2.76,0.12,3.75h-2.34l-0.12-2.52h-0.09c-0.779,1.619-2.52,2.85-4.89,2.85
		c-3.511,0-6.239-2.97-6.239-7.38c-0.031-4.83,2.999-7.77,6.51-7.77c2.249,0,3.719,1.05,4.379,2.189h0.061v-8.669H342.535z
		 M339.925,457.206c0-0.33-0.03-0.78-0.12-1.11c-0.39-1.649-1.83-3.029-3.81-3.029c-2.73,0-4.35,2.399-4.35,5.579
		c0,2.94,1.469,5.37,4.289,5.37c1.77,0,3.391-1.2,3.87-3.15c0.09-0.359,0.12-0.72,0.12-1.14V457.206z"/>
	<path d="M353.304,456.036c0-1.86-0.06-3.36-0.119-4.74h2.34l0.15,2.49h0.059c1.051-1.771,2.791-2.79,5.16-2.79
		c3.54,0,6.18,2.97,6.18,7.35c0,5.22-3.209,7.8-6.629,7.8c-1.92,0-3.6-0.84-4.471-2.28h-0.06v7.89h-2.61V456.036z M355.915,459.905
		c0,0.391,0.03,0.75,0.12,1.08c0.48,1.83,2.07,3.09,3.959,3.09c2.791,0,4.41-2.279,4.41-5.609c0-2.88-1.529-5.37-4.319-5.37
		c-1.8,0-3.51,1.26-3.989,3.24c-0.091,0.33-0.181,0.72-0.181,1.05V459.905z"/>
	<path d="M371.844,459.036c0.06,3.569,2.31,5.039,4.979,5.039c1.891,0,3.061-0.33,4.021-0.75l0.479,1.891
		c-0.93,0.42-2.55,0.93-4.859,0.93c-4.47,0-7.14-2.97-7.14-7.35s2.579-7.8,6.81-7.8c4.77,0,6,4.14,6,6.81
		c0,0.54-0.03,0.93-0.09,1.23H371.844z M379.583,457.146c0.031-1.649-0.689-4.26-3.659-4.26c-2.7,0-3.84,2.43-4.05,4.26H379.583z"/>
	<path d="M385.404,455.826c0-1.71-0.029-3.181-0.119-4.53h2.31l0.12,2.88h0.09c0.66-1.95,2.279-3.18,4.05-3.18
		c0.271,0,0.479,0.03,0.72,0.06v2.49c-0.27-0.06-0.539-0.06-0.9-0.06c-1.859,0-3.18,1.38-3.539,3.359
		c-0.061,0.36-0.09,0.81-0.09,1.23v7.739h-2.641V455.826z"/>
	<path d="M395.333,455.226c0-1.529-0.06-2.729-0.119-3.93h2.31l0.12,2.37h0.09c0.811-1.38,2.16-2.67,4.59-2.67
		c1.949,0,3.449,1.2,4.08,2.91h0.06c0.45-0.84,1.05-1.44,1.649-1.891c0.871-0.659,1.801-1.02,3.181-1.02c1.95,0,4.8,1.26,4.8,6.3
		v8.52h-2.58v-8.189c0-2.82-1.05-4.47-3.15-4.47c-1.529,0-2.67,1.109-3.149,2.369c-0.12,0.391-0.21,0.841-0.21,1.32v8.97h-2.58
		v-8.699c0-2.311-1.02-3.96-3.029-3.96c-1.62,0-2.85,1.319-3.27,2.64c-0.15,0.36-0.211,0.84-0.211,1.29v8.729h-2.58V455.226z"/>
	<path d="M430.554,462.336c0,1.26,0.06,2.489,0.209,3.479h-2.369l-0.211-1.83h-0.09c-0.81,1.14-2.369,2.16-4.439,2.16
		c-2.939,0-4.439-2.07-4.439-4.17c0-3.51,3.119-5.43,8.729-5.399v-0.301c0-1.17-0.33-3.359-3.3-3.329c-1.381,0-2.79,0.39-3.811,1.08
		l-0.6-1.771c1.2-0.75,2.971-1.26,4.8-1.26c4.44,0,5.521,3.03,5.521,5.91V462.336z M428.003,458.405
		c-2.879-0.06-6.149,0.45-6.149,3.271c0,1.739,1.14,2.52,2.46,2.52c1.92,0,3.15-1.2,3.57-2.43c0.09-0.3,0.119-0.6,0.119-0.84
		V458.405z"/>
	<path d="M435.083,465.815v-12.51h-2.01v-2.01h2.01v-0.689c0-2.04,0.48-3.9,1.68-5.07c0.99-0.96,2.311-1.35,3.541-1.35
		c0.959,0,1.739,0.21,2.25,0.42l-0.36,2.04c-0.39-0.181-0.9-0.33-1.681-0.33c-2.25,0-2.819,1.95-2.819,4.199v0.78h3.51v2.01h-3.51
		v12.51H435.083z"/>
	<path d="M443.574,455.826c0-1.71-0.029-3.181-0.12-4.53h2.31l0.121,2.88h0.09c0.66-1.95,2.279-3.18,4.049-3.18
		c0.271,0,0.48,0.03,0.721,0.06v2.49c-0.27-0.06-0.54-0.06-0.9-0.06c-1.859,0-3.18,1.38-3.539,3.359
		c-0.061,0.36-0.091,0.81-0.091,1.23v7.739h-2.64V455.826z"/>
	<path d="M466.222,458.436c0,5.37-3.75,7.71-7.229,7.71c-3.9,0-6.96-2.88-6.96-7.47c0-4.83,3.21-7.68,7.2-7.68
		C463.404,450.996,466.222,454.026,466.222,458.436z M454.734,458.586c0,3.18,1.799,5.579,4.379,5.579c2.52,0,4.41-2.369,4.41-5.64
		c0-2.46-1.23-5.55-4.35-5.55C456.083,452.976,454.734,455.855,454.734,458.586z"/>
	<path d="M469.193,463.146c0.811,0.48,2.189,1.02,3.51,1.02c1.891,0,2.791-0.93,2.791-2.159c0-1.26-0.75-1.92-2.67-2.641
		c-2.641-0.96-3.871-2.369-3.871-4.109c0-2.34,1.92-4.26,5.01-4.26c1.471,0,2.76,0.39,3.541,0.899l-0.631,1.92
		c-0.57-0.359-1.619-0.869-2.969-0.869c-1.561,0-2.4,0.899-2.4,1.979c0,1.2,0.84,1.74,2.73,2.49c2.488,0.93,3.809,2.189,3.809,4.35
		c0,2.58-2.01,4.38-5.4,4.38c-1.59,0-3.059-0.42-4.078-1.021L469.193,463.146z"/>
	<path d="M484.613,447.816v3.479h3.779v2.01h-3.779v7.83c0,1.8,0.51,2.819,1.98,2.819c0.719,0,1.139-0.06,1.529-0.18l0.121,2.01
		c-0.512,0.181-1.32,0.36-2.34,0.36c-1.23,0-2.221-0.42-2.852-1.11c-0.719-0.81-1.02-2.1-1.02-3.81v-7.92h-2.25v-2.01h2.25v-2.7
		L484.613,447.816z"/>
</g>
<g enable-background="new    ">
	<path d="M224.919,359.86V348.56c-1.3,1.15-3.05,2.2-5.55,2.2c-5.6,0-10.201-4.2-10.201-14.001c0-7.851,3.7-13.351,10.201-13.351
		c2.3,0,4.3,0.9,5.55,2.05v-1.5h6.9v32.452L224.919,359.86z M224.919,332.159c-1.05-1.45-2.65-2.25-4.65-2.25
		c-2.65,0-4.1,2.3-4.1,6.7c0,5.4,1.8,7.65,4.5,7.65c2.15,0,3.25-0.9,4.25-2.2V332.159z"/>
	<path d="M254.219,350.21v-1.75c-1.2,1.25-3.4,2.3-6.15,2.3c-6.7,0-9.701-4.6-9.701-12.001v-14.801h6.9v14.201
		c0,4.7,1.6,6.101,4.45,6.101c2.851,0,4.5-1.4,4.5-5.95v-14.352h6.9v26.252H254.219z"/>
	<path d="M271.518,321.809c-2.149,0-3.95-1.801-3.95-3.95c0-2.15,1.801-3.95,3.95-3.95c2.15,0,3.95,1.8,3.95,3.95
		C275.468,320.008,273.668,321.809,271.518,321.809z M268.068,350.21v-26.252h6.9v26.252H268.068z"/>
	<path d="M297.769,350.21v-14.201c0-4.7-1.6-6.1-4.45-6.1s-4.501,1.399-4.501,5.95v14.351h-6.9v-26.252h6.9v1.75
		c1.201-1.25,3.4-2.3,6.15-2.3c6.701,0,9.701,4.601,9.701,12.001v14.801H297.769z"/>
	<path d="M325.519,349.16c-1.15,0.899-3.2,1.6-5.35,1.6c-4.251,0-7.001-3.3-7.001-7.9v-12.4h-4.4v-6.501h4.4v-6.75l6.9-3.45v10.2
		h6.3v6.501h-6.3v10.551c0,2.5,0.899,3.149,2.55,3.149c1.25,0,2.201-0.55,3.9-2L325.519,349.16z"/>
	<path d="M336.667,321.809c-2.149,0-3.949-1.801-3.949-3.95c0-2.15,1.8-3.95,3.949-3.95c2.15,0,3.951,1.8,3.951,3.95
		C340.619,320.008,338.818,321.809,336.667,321.809z M333.218,350.21v-26.252h6.9v26.252H333.218z"/>
	<path d="M347.318,350.21v-33.002l6.9-3.45v36.452H347.318z"/>
	<path d="M361.417,350.21v-33.002l6.9-3.45v36.452H361.417z"/>
	<path d="M378.967,321.809c-2.149,0-3.95-1.801-3.95-3.95c0-2.15,1.801-3.95,3.95-3.95c2.15,0,3.95,1.8,3.95,3.95
		C382.917,320.008,381.118,321.809,378.967,321.809z M375.517,350.21v-26.252h6.9v26.252H375.517z"/>
	<path d="M399.869,350.76c-6.852,0-11.852-5.601-11.852-13.65c0-8.051,5-13.701,11.852-13.701c6.85,0,11.9,5.65,11.9,13.701
		C411.769,345.159,406.718,350.76,399.869,350.76z M399.869,330.059c-3.301,0-4.852,3-4.852,7.051c0,4.05,1.551,7,4.852,7
		c3.299,0,4.899-3.35,4.899-7C404.768,333.109,403.167,330.059,399.869,330.059z"/>
	<path d="M432.968,350.21v-14.201c0-4.7-1.601-6.1-4.451-6.1c-2.85,0-4.5,1.399-4.5,5.95v14.351h-6.9v-26.252h6.9v1.75
		c1.2-1.25,3.4-2.3,6.15-2.3c6.701,0,9.701,4.601,9.701,12.001v14.801H432.968z"/>
</g>
<path fill="#19162B" d="M351.466,605.803l16.922,11.09l-19.256-19.257l19.256-19.251l-16.922,11.09l-5.821,5.822h-25.438
	l19.451-19.451l-16.967,11.117h-24.806l17.61-17.609l19.525-4.071l-26.609,0.005l17.979-17.989l7.342-0.005l19.811-4.121H326.31
	l0.005-27.226l-4.126,19.803v8.235l-17.988,17.988V534.47l-4.138,19.853l-17.539,17.545v-24.904l10.933-16.684l-18.816,18.812
	v-25.434l5.193-5.188l11.084-16.928l-19.25,19.262l-19.256-19.262l11.084,16.928l5.822,5.82v25.436l-19.441-19.445l11.107,16.96
	l0.005,24.812l-17.609-17.608l-4.073-19.526l0.01,26.609l-17.988-17.989l-0.005-7.337l-4.126-19.81l0.005,27.228h-27.238
	l19.808,4.132h8.23l17.995,17.989l-27.503-0.006l19.852,4.137l17.544,17.545l-24.909-0.005l-16.679-10.934l18.817,18.822h-25.434
	l-5.198-5.192l-16.922-11.091l19.251,19.257l-19.251,19.256l16.922-11.091l5.826-5.825h25.44l-19.452,19.455l16.96-11.117
	l24.812-0.005l-17.616,17.614l-19.521,4.066h26.609l-17.982,17.982h-7.338l-19.818,4.128h27.238v27.23l4.125-19.812v-8.23
	l17.983-17.983v27.504l4.143-19.857l17.534-17.545v24.909l-10.927,16.685l18.812-18.822v25.439l-5.188,5.193l-11.09,16.921
	l19.255-19.25l19.256,19.25l-11.09-16.921l-5.821-5.827v-25.435l19.444,19.45l-11.111-16.966v-24.812l17.609,17.615l4.066,19.527
	l-0.005-26.616l17.987,17.989v7.343l4.128,19.802V652.29h27.237l-19.814-4.126h-8.23l-17.994-17.989l27.51,0.005l-19.852-4.143
	l-17.557-17.539h24.914l16.686,10.934l-18.824-18.821h25.44L351.466,605.803z M291.166,593.688l31.174-6.49l-2.957,1.933
	l-6.162,6.168h-23.676l1.615-1.608h0.006V593.688z M269.315,591.533l-1.598-1.604v-1.642l1.598,1.608V591.533z M265.557,595.297
	h-2.275l-1.148-1.159h2.263L265.557,595.297z M263.922,600.609h1.635l-1.603,1.612h-1.635L263.922,600.609z M274.638,604.373
	l1.604,1.607v1.636l-1.604-1.609V604.373z M278.401,600.609h2.269l1.16,1.164l-2.271-0.007L278.401,600.609z M278.401,595.297
	l1.599-1.603h1.641l-1.604,1.603H278.401z M311.292,570.23l3.697-0.774l-26.431,17.317l-0.188,0.188h-1.642l16.731-16.731H311.292
	L311.292,570.23z M282.528,581.369l17.446-26.631l-0.721,3.46v8.719l-16.731,16.732v-2.271L282.528,581.369z M274.638,556.086
	l5.533-5.539l2.07-3.156l-6.439,30.932v0.273l-1.164,1.16V556.086z M275.791,588.111v2.263l-1.152,1.159v-2.264L275.791,588.111z
	 M267.713,578.771l-6.499-31.181l1.938,2.956l6.163,6.174v23.663l-1.603-1.603L267.713,578.771L267.713,578.771z M260.791,581.369
	l0.201,0.195v1.641l-16.743-16.738v-7.829l-0.764-3.693L260.791,581.369z M255.397,587.402l-26.636-17.448l3.456,0.721h8.723
	l16.732,16.737h-2.268L255.397,587.402z M221.414,587.694l30.936,6.438h0.265l1.165,1.165h-23.67l-5.534-5.535L221.414,587.694z
	 M252.789,602.223l-31.169,6.493l2.956-1.938l6.168-6.167h23.668l-1.613,1.612H252.789L252.789,602.223z M232.666,625.68
	l-3.704,0.771l26.436-17.312l0.185-0.194h1.646l-16.737,16.731L232.666,625.68z M261.431,614.536l-17.453,26.637l0.721-3.454v-8.725
	l16.732-16.732v2.271V614.536z M269.315,639.824l-5.535,5.534l-2.068,3.163l6.448-30.937v-0.271l1.155-1.158V639.824z
	 M268.161,607.8v-2.269l1.155-1.153v2.269L268.161,607.8z M276.24,617.142l6.493,31.169l-1.927-2.951l-6.169-6.167v-23.664
	l1.603,1.603V617.142z M283.155,614.536l-0.194-0.189v-1.641l16.744,16.731v7.825l0.769,3.698L283.155,614.536z M288.56,608.505
	l26.631,17.446l-3.454-0.721h-8.719l-16.731-16.732h2.27L288.56,608.505z M322.544,608.218l-30.94-6.443h-0.261l-1.17-1.164h23.675
	l5.534,5.539L322.544,608.218z"/>
</svg>
