<?xml version="1.0" encoding="utf-8"?>
<!-- Generator: Adobe Illustrator 15.1.0, SVG Export Plug-In . SVG Version: 6.00 Build 0)  -->
<!DOCTYPE svg PUBLIC "-//W3C//DTD SVG 1.1//EN" "http://www.w3.org/Graphics/SVG/1.1/DTD/svg11.dtd">
<svg version="1.1" id="Layer_1" xmlns="http://www.w3.org/2000/svg" xmlns:xlink="http://www.w3.org/1999/xlink" x="0px" y="0px"
	 width="536.378px" height="780.521px" viewBox="0 0 536.378 780.521" enable-background="new 0 0 536.378 780.521"
	 xml:space="preserve">
<rect x="163.537" y="201.337" fill="none" width="335.21" height="91.324"/>
<g enable-background="new    ">
	<path d="M248.282,288.815v-60.718h-14.399v-12.359c9.36-0.479,15.479-3.96,17.159-10.919h13.92v83.996H248.282z"/>
	<path d="M282.962,288.815c0.479-28.799,18.119-41.278,38.639-50.278c7.199-3.119,9.479-6.479,9.479-10.079
		c0-4.32-3.719-8.52-13.799-8.52c-9.959,0-18,4.439-23.879,10.079l-10.8-12.6c8.88-8.999,20.759-13.919,34.079-13.919
		c19.918,0,31.198,8.039,31.198,24.119c0,13.56-7.319,19.439-21.599,26.039c-14.88,6.84-20.64,12.479-22.199,18.959h44.638v16.199
		H282.962z"/>
	<path d="M394.683,288.815h-17.16c0-27.239,9.119-50.158,24.719-68.037h-42.718v-15.959h62.997v16.199
		C405.482,237.697,394.683,259.776,394.683,288.815z"/>
</g>
<rect x="-19.884" y="399.235" fill="none" width="587.719" height="66.666"/>
<g enable-background="new    ">
	<path d="M173.297,417.056c0,1.26,0.06,2.489,0.21,3.479h-2.37l-0.21-1.83h-0.09c-0.81,1.14-2.37,2.16-4.44,2.16
		c-2.94,0-4.44-2.07-4.44-4.17c0-3.51,3.12-5.43,8.73-5.399v-0.301c0-1.17-0.33-3.359-3.3-3.329c-1.38,0-2.79,0.39-3.81,1.08
		l-0.6-1.771c1.2-0.75,2.97-1.26,4.8-1.26c4.44,0,5.52,3.03,5.52,5.91V417.056z M170.747,413.125c-2.88-0.06-6.15,0.45-6.15,3.271
		c0,1.739,1.14,2.52,2.46,2.52c1.92,0,3.15-1.2,3.57-2.43c0.09-0.3,0.12-0.6,0.12-0.84V413.125z"/>
	<path d="M178.337,406.016l2.85,8.13c0.48,1.35,0.87,2.55,1.17,3.75h0.09c0.33-1.2,0.75-2.4,1.23-3.75l2.82-8.13h2.76l-5.7,14.52
		h-2.52l-5.52-14.52H178.337z"/>
	<path d="M192.917,413.756c0.06,3.569,2.31,5.039,4.98,5.039c1.89,0,3.06-0.33,4.02-0.75l0.48,1.891c-0.93,0.42-2.55,0.93-4.86,0.93
		c-4.47,0-7.14-2.97-7.14-7.35s2.58-7.8,6.81-7.8c4.77,0,6,4.14,6,6.81c0,0.54-0.03,0.93-0.09,1.23H192.917z M200.656,411.865
		c0.03-1.649-0.69-4.26-3.66-4.26c-2.7,0-3.84,2.43-4.05,4.26H200.656z"/>
	<path d="M206.477,410.546c0-1.71-0.03-3.181-0.12-4.53h2.31l0.12,2.88h0.09c0.66-1.95,2.28-3.18,4.05-3.18
		c0.27,0,0.48,0.03,0.72,0.06v2.49c-0.27-0.06-0.54-0.06-0.9-0.06c-1.86,0-3.18,1.38-3.54,3.359c-0.06,0.36-0.09,0.81-0.09,1.23
		v7.739h-2.64V410.546z"/>
	<path d="M226.336,417.056c0,1.26,0.06,2.489,0.21,3.479h-2.37l-0.21-1.83h-0.09c-0.81,1.14-2.37,2.16-4.44,2.16
		c-2.94,0-4.44-2.07-4.44-4.17c0-3.51,3.12-5.43,8.73-5.399v-0.301c0-1.17-0.33-3.359-3.3-3.329c-1.38,0-2.79,0.39-3.81,1.08
		l-0.6-1.771c1.2-0.75,2.97-1.26,4.8-1.26c4.44,0,5.52,3.03,5.52,5.91V417.056z M223.786,413.125c-2.88-0.06-6.149,0.45-6.149,3.271
		c0,1.739,1.14,2.52,2.46,2.52c1.92,0,3.15-1.2,3.57-2.43c0.09-0.3,0.12-0.6,0.12-0.84V413.125z"/>
	<path d="M243.016,418.405c0,3.359-0.69,5.37-2.07,6.66c-1.44,1.289-3.48,1.739-5.31,1.739c-1.74,0-3.66-0.42-4.83-1.2l0.66-2.039
		c0.96,0.63,2.46,1.17,4.26,1.17c2.7,0,4.68-1.41,4.68-5.101v-1.59h-0.06c-0.78,1.351-2.37,2.431-4.62,2.431
		c-3.6,0-6.18-3.061-6.18-7.08c0-4.92,3.209-7.68,6.569-7.68c2.52,0,3.87,1.29,4.53,2.49h0.06l0.09-2.19h2.34
		c-0.09,1.021-0.12,2.22-0.12,3.96V418.405z M240.376,411.745c0-0.449-0.03-0.84-0.15-1.17c-0.48-1.56-1.74-2.819-3.689-2.819
		c-2.52,0-4.32,2.13-4.32,5.489c0,2.851,1.47,5.22,4.29,5.22c1.65,0,3.12-1.02,3.66-2.699c0.15-0.45,0.21-0.96,0.21-1.41V411.745z"
		/>
	<path d="M248.836,413.756c0.06,3.569,2.31,5.039,4.98,5.039c1.89,0,3.06-0.33,4.02-0.75l0.48,1.891c-0.93,0.42-2.55,0.93-4.86,0.93
		c-4.47,0-7.14-2.97-7.14-7.35s2.58-7.8,6.81-7.8c4.77,0,6,4.14,6,6.81c0,0.54-0.03,0.93-0.09,1.23H248.836z M256.576,411.865
		c0.03-1.649-0.69-4.26-3.66-4.26c-2.7,0-3.84,2.43-4.05,4.26H256.576z"/>
	<path d="M272.116,414.176l-2.101,6.359h-2.699l6.9-20.219h3.119l6.9,20.219h-2.791l-2.16-6.359H272.116z M278.775,412.136
		l-2.01-5.82c-0.449-1.319-0.75-2.52-1.05-3.689h-0.06c-0.301,1.17-0.6,2.43-1.02,3.66l-1.98,5.85H278.775z"/>
	<path d="M287.027,409.945c0-1.529-0.061-2.729-0.121-3.93h2.311l0.12,2.37h0.09c0.81-1.38,2.159-2.67,4.59-2.67
		c1.95,0,3.45,1.2,4.079,2.91h0.061c0.45-0.84,1.051-1.44,1.65-1.891c0.869-0.659,1.8-1.02,3.18-1.02c1.949,0,4.8,1.26,4.8,6.3v8.52
		h-2.58v-8.189c0-2.82-1.05-4.47-3.149-4.47c-1.53,0-2.67,1.109-3.15,2.369c-0.12,0.391-0.21,0.841-0.21,1.32v8.97h-2.579v-8.699
		c0-2.311-1.021-3.96-3.031-3.96c-1.619,0-2.85,1.319-3.27,2.64c-0.15,0.36-0.209,0.84-0.209,1.29v8.729h-2.58V409.945z"/>
	<path d="M313.516,413.756c0.06,3.569,2.31,5.039,4.979,5.039c1.891,0,3.061-0.33,4.021-0.75l0.479,1.891
		c-0.93,0.42-2.55,0.93-4.859,0.93c-4.47,0-7.14-2.97-7.14-7.35s2.579-7.8,6.81-7.8c4.77,0,6,4.14,6,6.81
		c0,0.54-0.03,0.93-0.09,1.23H313.516z M321.255,411.865c0.031-1.649-0.689-4.26-3.659-4.26c-2.7,0-3.84,2.43-4.05,4.26H321.255z"/>
	<path d="M327.076,410.546c0-1.71-0.029-3.181-0.12-4.53h2.31l0.121,2.88h0.09c0.66-1.95,2.279-3.18,4.049-3.18
		c0.271,0,0.48,0.03,0.721,0.06v2.49c-0.27-0.06-0.54-0.06-0.9-0.06c-1.859,0-3.18,1.38-3.539,3.359
		c-0.061,0.36-0.091,0.81-0.091,1.23v7.739h-2.64V410.546z"/>
	<path d="M339.946,401.936c0,0.9-0.63,1.62-1.681,1.62c-0.959,0-1.59-0.72-1.59-1.62c0-0.899,0.66-1.649,1.65-1.649
		C339.286,400.286,339.946,401.006,339.946,401.936z M337.005,420.535v-14.52h2.641v14.52H337.005z"/>
	<path d="M354.375,420.025c-0.689,0.33-2.219,0.84-4.17,0.84c-4.379,0-7.229-2.97-7.229-7.41c0-4.47,3.059-7.739,7.799-7.739
		c1.561,0,2.939,0.39,3.66,0.78l-0.6,2.01c-0.631-0.33-1.621-0.69-3.061-0.69c-3.33,0-5.129,2.49-5.129,5.49
		c0,3.359,2.159,5.43,5.039,5.43c1.5,0,2.49-0.36,3.24-0.69L354.375,420.025z"/>
	<path d="M367.666,417.056c0,1.26,0.06,2.489,0.209,3.479h-2.369l-0.211-1.83h-0.09c-0.81,1.14-2.369,2.16-4.439,2.16
		c-2.939,0-4.439-2.07-4.439-4.17c0-3.51,3.119-5.43,8.729-5.399v-0.301c0-1.17-0.33-3.359-3.3-3.329c-1.381,0-2.79,0.39-3.811,1.08
		l-0.6-1.771c1.2-0.75,2.971-1.26,4.8-1.26c4.44,0,5.521,3.03,5.521,5.91V417.056z M365.115,413.125
		c-2.879-0.06-6.149,0.45-6.149,3.271c0,1.739,1.14,2.52,2.46,2.52c1.92,0,3.15-1.2,3.57-2.43c0.09-0.3,0.119-0.6,0.119-0.84
		V413.125z"/>
	<path d="M371.925,409.945c0-1.529-0.029-2.729-0.12-3.93h2.34l0.149,2.4h0.061c0.721-1.351,2.4-2.7,4.8-2.7
		c2.011,0,5.13,1.2,5.13,6.18v8.64h-2.64v-8.37c0-2.34-0.87-4.289-3.36-4.289c-1.709,0-3.06,1.229-3.539,2.699
		c-0.121,0.33-0.181,0.78-0.181,1.23v8.729h-2.64V409.945z"/>
</g>
<g enable-background="new    ">
	<path d="M148.532,453.056c0,1.26,0.06,2.489,0.21,3.479h-2.37l-0.21-1.83h-0.09c-0.81,1.14-2.37,2.16-4.44,2.16
		c-2.94,0-4.44-2.07-4.44-4.17c0-3.51,3.12-5.43,8.73-5.399v-0.301c0-1.17-0.33-3.359-3.3-3.329c-1.38,0-2.79,0.39-3.81,1.08
		l-0.6-1.771c1.2-0.75,2.97-1.26,4.8-1.26c4.44,0,5.52,3.03,5.52,5.91V453.056z M145.982,449.125c-2.88-0.06-6.15,0.45-6.15,3.271
		c0,1.739,1.14,2.52,2.46,2.52c1.92,0,3.15-1.2,3.57-2.43c0.09-0.3,0.12-0.6,0.12-0.84V449.125z"/>
	<path d="M152.792,445.945c0-1.529-0.03-2.729-0.12-3.93h2.34l0.15,2.4h0.06c0.72-1.351,2.4-2.7,4.8-2.7c2.01,0,5.13,1.2,5.13,6.18
		v8.64h-2.64v-8.37c0-2.34-0.87-4.289-3.36-4.289c-1.71,0-3.06,1.229-3.54,2.699c-0.12,0.33-0.18,0.78-0.18,1.23v8.729h-2.64
		V445.945z"/>
	<path d="M169.441,445.945c0-1.529-0.03-2.729-0.12-3.93h2.34l0.15,2.4h0.06c0.72-1.351,2.4-2.7,4.8-2.7c2.01,0,5.13,1.2,5.13,6.18
		v8.64h-2.64v-8.37c0-2.34-0.87-4.289-3.36-4.289c-1.71,0-3.06,1.229-3.54,2.699c-0.12,0.33-0.18,0.78-0.18,1.23v8.729h-2.64
		V445.945z"/>
	<path d="M198.241,452.545c0,1.53,0.03,2.851,0.12,3.99h-2.34l-0.15-2.37h-0.06c-0.66,1.17-2.22,2.7-4.8,2.7
		c-2.28,0-5.01-1.29-5.01-6.359v-8.49h2.64v8.01c0,2.76,0.87,4.649,3.24,4.649c1.77,0,3-1.229,3.48-2.43
		c0.15-0.359,0.24-0.84,0.24-1.35v-8.88h2.64V452.545z"/>
	<path d="M212.821,453.056c0,1.26,0.06,2.489,0.21,3.479h-2.37l-0.21-1.83h-0.09c-0.81,1.14-2.37,2.16-4.44,2.16
		c-2.94,0-4.44-2.07-4.44-4.17c0-3.51,3.12-5.43,8.73-5.399v-0.301c0-1.17-0.33-3.359-3.3-3.329c-1.38,0-2.79,0.39-3.81,1.08
		l-0.6-1.771c1.2-0.75,2.97-1.26,4.8-1.26c4.44,0,5.52,3.03,5.52,5.91V453.056z M210.271,449.125c-2.88-0.06-6.15,0.45-6.15,3.271
		c0,1.739,1.14,2.52,2.46,2.52c1.92,0,3.15-1.2,3.57-2.43c0.09-0.3,0.12-0.6,0.12-0.84V449.125z"/>
	<path d="M217.081,435.236h2.64v21.299h-2.64V435.236z"/>
	<path d="M230.521,435.236h2.64v9.089h0.06c0.42-0.749,1.08-1.439,1.89-1.89c0.78-0.45,1.71-0.72,2.7-0.72
		c1.95,0,5.07,1.2,5.07,6.18v8.64h-2.64v-8.34c0-2.34-0.87-4.29-3.36-4.29c-1.71,0-3.03,1.2-3.54,2.61
		c-0.15,0.39-0.18,0.78-0.18,1.26v8.76h-2.64V435.236z"/>
	<path d="M260.31,449.155c0,5.37-3.75,7.71-7.23,7.71c-3.9,0-6.959-2.88-6.959-7.47c0-4.83,3.209-7.68,7.2-7.68
		C257.49,441.716,260.31,444.746,260.31,449.155z M248.82,449.306c0,3.18,1.8,5.579,4.38,5.579c2.52,0,4.41-2.369,4.41-5.64
		c0-2.46-1.23-5.55-4.35-5.55C250.17,443.695,248.82,446.575,248.82,449.306z"/>
	<path d="M275.79,452.545c0,1.53,0.03,2.851,0.12,3.99h-2.34l-0.15-2.37h-0.06c-0.66,1.17-2.22,2.7-4.8,2.7
		c-2.28,0-5.01-1.29-5.01-6.359v-8.49h2.64v8.01c0,2.76,0.87,4.649,3.239,4.649c1.771,0,3-1.229,3.48-2.43
		c0.15-0.359,0.24-0.84,0.24-1.35v-8.88h2.64V452.545z"/>
	<path d="M279.81,453.865c0.81,0.48,2.189,1.02,3.51,1.02c1.89,0,2.79-0.93,2.79-2.159c0-1.26-0.75-1.92-2.67-2.641
		c-2.64-0.96-3.87-2.369-3.87-4.109c0-2.34,1.92-4.26,5.01-4.26c1.471,0,2.76,0.39,3.54,0.899l-0.63,1.92
		c-0.57-0.359-1.62-0.869-2.971-0.869c-1.559,0-2.399,0.899-2.399,1.979c0,1.2,0.841,1.74,2.729,2.49
		c2.49,0.93,3.811,2.189,3.811,4.35c0,2.58-2.01,4.38-5.4,4.38c-1.59,0-3.06-0.42-4.079-1.021L279.81,453.865z"/>
	<path d="M293.519,449.756c0.061,3.569,2.311,5.039,4.98,5.039c1.891,0,3.061-0.33,4.02-0.75l0.48,1.891
		c-0.93,0.42-2.551,0.93-4.859,0.93c-4.471,0-7.141-2.97-7.141-7.35s2.58-7.8,6.811-7.8c4.77,0,5.999,4.14,5.999,6.81
		c0,0.54-0.03,0.93-0.09,1.23H293.519z M301.259,447.865c0.03-1.649-0.689-4.26-3.66-4.26c-2.699,0-3.84,2.43-4.049,4.26H301.259z"
		/>
	<path d="M307.08,435.236h2.64v9.089h0.06c0.42-0.749,1.08-1.439,1.891-1.89c0.779-0.45,1.71-0.72,2.699-0.72
		c1.951,0,5.07,1.2,5.07,6.18v8.64h-2.64v-8.34c0-2.34-0.87-4.29-3.36-4.29c-1.709,0-3.029,1.2-3.539,2.61
		c-0.15,0.39-0.181,0.78-0.181,1.26v8.76h-2.64V435.236z"/>
	<path d="M336.869,449.155c0,5.37-3.75,7.71-7.229,7.71c-3.899,0-6.96-2.88-6.96-7.47c0-4.83,3.21-7.68,7.2-7.68
		C334.048,441.716,336.869,444.746,336.869,449.155z M325.379,449.306c0,3.18,1.8,5.579,4.38,5.579c2.52,0,4.41-2.369,4.41-5.64
		c0-2.46-1.23-5.55-4.35-5.55C326.73,443.695,325.379,446.575,325.379,449.306z"/>
	<path d="M340.199,435.236h2.641v21.299h-2.641V435.236z"/>
	<path d="M359.789,435.236v17.549c0,1.29,0.061,2.76,0.12,3.75h-2.34l-0.12-2.52h-0.09c-0.779,1.619-2.52,2.85-4.89,2.85
		c-3.511,0-6.239-2.97-6.239-7.38c-0.031-4.83,2.999-7.77,6.51-7.77c2.249,0,3.719,1.05,4.379,2.189h0.061v-8.669H359.789z
		 M357.179,447.926c0-0.33-0.03-0.78-0.12-1.11c-0.39-1.649-1.83-3.029-3.81-3.029c-2.73,0-4.35,2.399-4.35,5.579
		c0,2.94,1.469,5.37,4.289,5.37c1.77,0,3.391-1.2,3.87-3.15c0.09-0.359,0.12-0.72,0.12-1.14V447.926z"/>
	<path d="M382.708,452.545c0,1.53,0.029,2.851,0.119,3.99h-2.34l-0.149-2.37h-0.06c-0.66,1.17-2.221,2.7-4.801,2.7
		c-2.279,0-5.01-1.29-5.01-6.359v-8.49h2.641v8.01c0,2.76,0.869,4.649,3.239,4.649c1.771,0,3-1.229,3.479-2.43
		c0.15-0.359,0.24-0.84,0.24-1.35v-8.88h2.641V452.545z"/>
	<path d="M386.728,453.865c0.811,0.48,2.19,1.02,3.51,1.02c1.891,0,2.791-0.93,2.791-2.159c0-1.26-0.75-1.92-2.67-2.641
		c-2.641-0.96-3.871-2.369-3.871-4.109c0-2.34,1.92-4.26,5.01-4.26c1.471,0,2.761,0.39,3.541,0.899l-0.631,1.92
		c-0.57-0.359-1.619-0.869-2.97-0.869c-1.56,0-2.399,0.899-2.399,1.979c0,1.2,0.84,1.74,2.729,2.49c2.49,0.93,3.81,2.189,3.81,4.35
		c0,2.58-2.01,4.38-5.399,4.38c-1.59,0-3.06-0.42-4.08-1.021L386.728,453.865z"/>
	<path d="M400.438,449.756c0.06,3.569,2.31,5.039,4.979,5.039c1.891,0,3.061-0.33,4.021-0.75l0.479,1.891
		c-0.93,0.42-2.55,0.93-4.859,0.93c-4.47,0-7.14-2.97-7.14-7.35s2.579-7.8,6.81-7.8c4.77,0,6,4.14,6,6.81
		c0,0.54-0.03,0.93-0.09,1.23H400.438z M408.177,447.865c0.031-1.649-0.689-4.26-3.659-4.26c-2.7,0-3.84,2.43-4.05,4.26H408.177z"/>
</g>
<g>
	<path fill="#19162B" stroke="#19162B" stroke-miterlimit="10" d="M330.998,677.691H202.888v-90.498h128.109V677.691z
		 M171.154,587.193h189.229l-96.378-81.099L171.154,587.193z M279.433,677.545v-52.448h-27.326v52.448H279.433z M240.938,613.196
		h-28.207v28.208h28.207V613.196z M318.951,613.196h-28.207v28.208h28.207V613.196z"/>
	<line fill="none" stroke="#19162B" stroke-miterlimit="10" x1="226.835" y1="641.404" x2="226.835" y2="613.196"/>
	<line fill="none" stroke="#19162B" stroke-miterlimit="10" x1="212.731" y1="627.301" x2="240.938" y2="627.301"/>
	<line fill="none" stroke="#19162B" stroke-miterlimit="10" x1="304.847" y1="641.404" x2="304.847" y2="613.196"/>
	<line fill="none" stroke="#19162B" stroke-miterlimit="10" x1="290.744" y1="627.301" x2="318.951" y2="627.301"/>
</g>
<rect x="189.037" y="313.761" fill="none" width="284.21" height="50.877"/>
<g enable-background="new    ">
	<path d="M239.045,349.16c-1.15,0.899-3.2,1.6-5.35,1.6c-4.25,0-7-3.3-7-7.9v-12.4h-4.4v-6.501h4.4v-6.75l6.9-3.45v10.2h6.3v6.501
		h-6.3v10.551c0,2.5,0.9,3.149,2.55,3.149c1.25,0,2.2-0.55,3.9-2L239.045,349.16z"/>
	<path d="M262.344,350.21v-14.201c0-4.7-1.6-6.1-4.45-6.1s-4.5,1.399-4.5,5.95v14.351h-6.9v-33.002l6.9-3.45v11.95
		c1.2-1.25,3.4-2.3,6.15-2.3c6.701,0,9.701,4.601,9.701,12.001v14.801H262.344z"/>
	<path d="M286.195,350.76c-6.852,0-11.852-5.601-11.852-13.65c0-8.051,5-13.701,11.852-13.701c6.85,0,11.9,5.65,11.9,13.701
		C298.095,345.159,293.044,350.76,286.195,350.76z M286.195,330.059c-3.301,0-4.852,3-4.852,7.051c0,4.05,1.551,7,4.852,7
		c3.299,0,4.899-3.35,4.899-7C291.094,333.109,289.494,330.059,286.195,330.059z"/>
	<path d="M319.044,350.21v-1.75c-1.201,1.25-3.4,2.3-6.15,2.3c-6.701,0-9.701-4.6-9.701-12.001v-14.801h6.9v14.201
		c0,4.7,1.6,6.101,4.45,6.101s4.501-1.4,4.501-5.95v-14.352h6.9v26.252H319.044z"/>
	<path d="M342.694,350.76c-4.15,0-8.2-1.2-11.001-3.05l2.301-5.25c2.8,1.55,5.75,2.399,9.1,2.399c2.701,0,3.501-0.649,3.501-2
		c0-1.2-0.95-1.8-3.851-2.65c-6.301-1.899-10.351-3.45-10.351-9c0-5.45,4.351-7.801,10.501-7.801c3.3,0,6.9,1,9.7,2.55l-2.2,5.451
		c-2.6-1.4-5.45-2.101-7.65-2.101c-2.8,0-3.551,0.55-3.551,1.7c0,1.1,0.801,1.55,5.451,3.05c4.7,1.551,8.75,3.251,8.75,8.501
		C353.394,348.61,348.594,350.76,342.694,350.76z"/>
	<path d="M373.694,350.21v-1.75c-1.251,1.3-3.45,2.3-5.9,2.3c-4.9,0-9.801-3-9.801-9.351c0-5.8,4.7-8.7,10.651-8.7
		c2.399,0,3.949,0.5,5.05,1.05v-1.3c0-1.851-1.251-3.351-3.751-3.351c-3.149,0-4.8,0.45-7.199,1.75l-2.65-4.8
		c3.05-1.75,5.6-2.65,9.85-2.65c6.352,0,10.651,3.301,10.651,9.2v17.602H373.694z M373.694,339.209c-1.2-0.75-2.351-1.1-4.8-1.1
		c-2.602,0-4.001,1.2-4.001,3.3c0,1.851,1.05,3.5,4.001,3.5c2.25,0,4.05-1.149,4.8-2.399V339.209z"/>
	<path d="M402.894,350.21v-14.201c0-4.7-1.6-6.1-4.45-6.1s-4.501,1.399-4.501,5.95v14.351h-6.9v-26.252h6.9v1.75
		c1.201-1.25,3.4-2.3,6.15-2.3c6.701,0,9.701,4.601,9.701,12.001v14.801H402.894z"/>
	<path d="M430.644,350.21v-1.65c-1.301,1.15-3.051,2.2-5.551,2.2c-5.6,0-10.201-4.2-10.201-14.001
		c0-7.851,3.701-13.351,10.201-13.351c2.301,0,4.301,0.9,5.551,2.05v-8.25l6.9-3.45v36.452H430.644z M430.644,332.159
		c-1.051-1.45-2.65-2.25-4.65-2.25c-2.65,0-4.101,2.3-4.101,6.7c0,5.4,1.8,7.65,4.501,7.65c2.149,0,3.25-0.9,4.25-2.2V332.159z"/>
</g>
</svg>
