<?xml version="1.0" encoding="utf-8"?>
<!-- Generator: Adobe Illustrator 15.1.0, SVG Export Plug-In . SVG Version: 6.00 Build 0)  -->
<!DOCTYPE svg PUBLIC "-//W3C//DTD SVG 1.1//EN" "http://www.w3.org/Graphics/SVG/1.1/DTD/svg11.dtd">
<svg version="1.1" id="Layer_1" xmlns="http://www.w3.org/2000/svg" xmlns:xlink="http://www.w3.org/1999/xlink" x="0px" y="0px"
	 width="536.378px" height="780.521px" viewBox="0 0 536.378 780.521" enable-background="new 0 0 536.378 780.521"
	 xml:space="preserve">
<rect x="163.537" y="201.337" fill="none" width="335.21" height="91.324"/>
<g enable-background="new    ">
	<path d="M271.023,288.815v-60.718h-14.4v-12.359c9.36-0.479,15.48-3.96,17.16-10.919h13.92v83.996H271.023z"/>
	<path d="M314.462,290.136c-6.12,0-11.279-5.16-11.279-11.28c0-6.119,5.159-11.279,11.279-11.279c6.119,0,11.279,5.16,11.279,11.279
		C325.742,284.976,320.582,290.136,314.462,290.136z"/>
	<path d="M369.78,290.136c-18.72,0-33.358-10.439-33.358-33.959c0-22.079,12.959-52.678,56.518-52.678v16.319
		c-19.439,0-31.799,6.84-36.599,19.679c5.399-3.6,10.679-5.279,19.199-5.279c16.679,0,29.639,8.52,29.639,27.119
		C405.178,280.056,389.58,290.136,369.78,290.136z M371.339,249.457c-11.399,0-17.52,3.84-17.52,12.6
		c0,7.8,5.76,12.479,16.68,12.479c11.16,0,17.639-4.8,17.639-12.6C388.138,253.417,381.9,249.457,371.339,249.457z"/>
</g>
<rect x="-19.884" y="404.235" fill="none" width="587.719" height="62.156"/>
<g enable-background="new    ">
	<path d="M93.363,422.056c0,1.26,0.06,2.489,0.21,3.479h-2.37l-0.21-1.83h-0.09c-0.81,1.14-2.37,2.16-4.44,2.16
		c-2.94,0-4.44-2.07-4.44-4.17c0-3.51,3.12-5.43,8.73-5.399v-0.301c0-1.17-0.33-3.359-3.3-3.329c-1.38,0-2.79,0.39-3.81,1.08
		l-0.6-1.771c1.2-0.75,2.97-1.26,4.8-1.26c4.44,0,5.52,3.03,5.52,5.91V422.056z M90.813,418.125c-2.88-0.06-6.15,0.45-6.15,3.271
		c0,1.739,1.14,2.52,2.46,2.52c1.92,0,3.15-1.2,3.57-2.43c0.09-0.3,0.12-0.6,0.12-0.84V418.125z"/>
	<path d="M97.624,414.945c0-1.529-0.06-2.729-0.12-3.93h2.31l0.12,2.37h0.09c0.81-1.38,2.16-2.67,4.59-2.67
		c1.95,0,3.45,1.2,4.08,2.91h0.06c0.45-0.84,1.05-1.44,1.65-1.891c0.87-0.659,1.8-1.02,3.18-1.02c1.95,0,4.8,1.26,4.8,6.3v8.52
		h-2.58v-8.189c0-2.82-1.05-4.47-3.15-4.47c-1.53,0-2.67,1.109-3.15,2.369c-0.12,0.391-0.21,0.841-0.21,1.32v8.97h-2.58v-8.699
		c0-2.311-1.02-3.96-3.03-3.96c-1.62,0-2.85,1.319-3.27,2.64c-0.15,0.36-0.21,0.84-0.21,1.29v8.729h-2.58V414.945z"/>
	<path d="M135.783,418.155c0,5.37-3.75,7.71-7.23,7.71c-3.9,0-6.959-2.88-6.959-7.47c0-4.83,3.209-7.68,7.2-7.68
		C132.963,410.716,135.783,413.746,135.783,418.155z M124.293,418.306c0,3.18,1.8,5.579,4.38,5.579c2.52,0,4.41-2.369,4.41-5.64
		c0-2.46-1.23-5.55-4.35-5.55C125.644,412.695,124.293,415.575,124.293,418.306z"/>
	<path d="M151.263,421.545c0,1.53,0.03,2.851,0.12,3.99h-2.34l-0.15-2.37h-0.06c-0.66,1.17-2.22,2.7-4.8,2.7
		c-2.28,0-5.01-1.29-5.01-6.359v-8.49h2.64v8.01c0,2.76,0.87,4.649,3.24,4.649c1.77,0,3-1.229,3.48-2.43
		c0.15-0.359,0.24-0.84,0.24-1.35v-8.88h2.64V421.545z"/>
	<path d="M155.643,414.945c0-1.529-0.03-2.729-0.12-3.93h2.34l0.15,2.4h0.06c0.72-1.351,2.4-2.7,4.8-2.7c2.01,0,5.13,1.2,5.13,6.18
		v8.64h-2.64v-8.37c0-2.34-0.87-4.289-3.36-4.289c-1.71,0-3.06,1.229-3.54,2.699c-0.12,0.33-0.18,0.78-0.18,1.23v8.729h-2.64
		V414.945z"/>
	<path d="M175.353,407.536v3.479h3.78v2.01h-3.78v7.83c0,1.8,0.51,2.819,1.98,2.819c0.72,0,1.14-0.06,1.53-0.18l0.12,2.01
		c-0.51,0.181-1.32,0.36-2.34,0.36c-1.23,0-2.22-0.42-2.85-1.11c-0.72-0.81-1.02-2.1-1.02-3.81v-7.92h-2.25v-2.01h2.25v-2.7
		L175.353,407.536z"/>
	<path d="M191.642,407.536v3.479h3.78v2.01h-3.78v7.83c0,1.8,0.51,2.819,1.98,2.819c0.72,0,1.14-0.06,1.53-0.18l0.12,2.01
		c-0.51,0.181-1.32,0.36-2.34,0.36c-1.23,0-2.22-0.42-2.85-1.11c-0.72-0.81-1.02-2.1-1.02-3.81v-7.92h-2.25v-2.01h2.25v-2.7
		L191.642,407.536z"/>
	<path d="M198.392,404.236h2.64v9.089h0.06c0.42-0.749,1.08-1.439,1.89-1.89c0.78-0.45,1.71-0.72,2.7-0.72
		c1.95,0,5.07,1.2,5.07,6.18v8.64h-2.64v-8.34c0-2.34-0.87-4.29-3.36-4.29c-1.71,0-3.03,1.2-3.54,2.61
		c-0.15,0.39-0.18,0.78-0.18,1.26v8.76h-2.64V404.236z"/>
	<path d="M225.242,422.056c0,1.26,0.06,2.489,0.21,3.479h-2.37l-0.21-1.83h-0.09c-0.81,1.14-2.37,2.16-4.44,2.16
		c-2.94,0-4.44-2.07-4.44-4.17c0-3.51,3.12-5.43,8.73-5.399v-0.301c0-1.17-0.33-3.359-3.3-3.329c-1.38,0-2.79,0.39-3.81,1.08
		l-0.6-1.771c1.2-0.75,2.97-1.26,4.8-1.26c4.44,0,5.52,3.03,5.52,5.91V422.056z M222.691,418.125c-2.88-0.06-6.149,0.45-6.149,3.271
		c0,1.739,1.14,2.52,2.46,2.52c1.92,0,3.15-1.2,3.57-2.43c0.09-0.3,0.12-0.6,0.12-0.84V418.125z"/>
	<path d="M232.562,407.536v3.479h3.78v2.01h-3.78v7.83c0,1.8,0.51,2.819,1.98,2.819c0.72,0,1.14-0.06,1.53-0.18l0.12,2.01
		c-0.51,0.181-1.32,0.36-2.34,0.36c-1.23,0-2.22-0.42-2.85-1.11c-0.72-0.81-1.02-2.1-1.02-3.81v-7.92h-2.25v-2.01h2.25v-2.7
		L232.562,407.536z"/>
	<path d="M245.941,425.535v-12.51h-2.01v-2.01h2.01v-0.63c0-2.04,0.69-3.84,2.04-5.01c1.14-0.96,2.64-1.47,4.68-1.47
		c1.68,0,3.24,0.359,4.35,0.96v20.669h-2.64v-19.199c-0.45-0.24-1.14-0.39-2.16-0.39c-2.729,0-3.66,2.01-3.66,4.319v0.75h3.39v2.01
		h-3.39v12.51H245.941z"/>
	<path d="M274.501,418.155c0,5.37-3.75,7.71-7.23,7.71c-3.9,0-6.959-2.88-6.959-7.47c0-4.83,3.209-7.68,7.2-7.68
		C271.681,410.716,274.501,413.746,274.501,418.155z M263.011,418.306c0,3.18,1.8,5.579,4.38,5.579c2.521,0,4.409-2.369,4.409-5.64
		c0-2.46-1.229-5.55-4.349-5.55C264.361,412.695,263.011,415.575,263.011,418.306z"/>
	<path d="M278.671,411.016l1.95,7.38c0.39,1.62,0.78,3.12,1.05,4.62h0.09c0.33-1.471,0.811-3.03,1.29-4.59l2.37-7.41h2.22l2.25,7.26
		c0.54,1.74,0.96,3.27,1.29,4.74h0.09c0.24-1.471,0.63-3,1.109-4.71l2.07-7.29h2.609l-4.68,14.52h-2.399l-2.22-6.93
		c-0.51-1.62-0.93-3.06-1.29-4.77h-0.06c-0.36,1.739-0.811,3.239-1.32,4.8l-2.34,6.899h-2.4l-4.379-14.52H278.671z"/>
	<path d="M299.162,422.865c0.811,0.48,2.189,1.02,3.51,1.02c1.89,0,2.79-0.93,2.79-2.159c0-1.26-0.75-1.92-2.67-2.641
		c-2.64-0.96-3.87-2.369-3.87-4.109c0-2.34,1.92-4.26,5.01-4.26c1.471,0,2.76,0.39,3.54,0.899l-0.63,1.92
		c-0.57-0.359-1.62-0.869-2.971-0.869c-1.559,0-2.399,0.899-2.399,1.979c0,1.2,0.841,1.74,2.729,2.49
		c2.49,0.93,3.811,2.189,3.811,4.35c0,2.58-2.01,4.38-5.4,4.38c-1.59,0-3.06-0.42-4.08-1.021L299.162,422.865z"/>
	<path d="M320.941,407.536v3.479h3.779v2.01h-3.779v7.83c0,1.8,0.51,2.819,1.98,2.819c0.72,0,1.14-0.06,1.529-0.18l0.12,2.01
		c-0.51,0.181-1.319,0.36-2.34,0.36c-1.229,0-2.22-0.42-2.85-1.11c-0.72-0.81-1.021-2.1-1.021-3.81v-7.92h-2.25v-2.01h2.25v-2.7
		L320.941,407.536z"/>
	<path d="M327.691,404.236h2.64v9.089h0.06c0.42-0.749,1.08-1.439,1.891-1.89c0.779-0.45,1.71-0.72,2.699-0.72
		c1.951,0,5.07,1.2,5.07,6.18v8.64h-2.64v-8.34c0-2.34-0.87-4.29-3.36-4.29c-1.709,0-3.029,1.2-3.539,2.61
		c-0.15,0.39-0.181,0.78-0.181,1.26v8.76h-2.64V404.236z"/>
	<path d="M344.341,415.546c0-1.71-0.031-3.181-0.121-4.53h2.311l0.12,2.88h0.09c0.66-1.95,2.28-3.18,4.05-3.18
		c0.27,0,0.48,0.03,0.721,0.06v2.49c-0.271-0.06-0.541-0.06-0.9-0.06c-1.86,0-3.18,1.38-3.54,3.359
		c-0.06,0.36-0.091,0.81-0.091,1.23v7.739h-2.639V415.546z"/>
	<path d="M366.99,418.155c0,5.37-3.75,7.71-7.229,7.71c-3.899,0-6.96-2.88-6.96-7.47c0-4.83,3.21-7.68,7.2-7.68
		C364.169,410.716,366.99,413.746,366.99,418.155z M355.5,418.306c0,3.18,1.8,5.579,4.38,5.579c2.52,0,4.41-2.369,4.41-5.64
		c0-2.46-1.23-5.55-4.35-5.55C356.851,412.695,355.5,415.575,355.5,418.306z"/>
	<path d="M382.47,421.545c0,1.53,0.03,2.851,0.12,3.99h-2.34l-0.149-2.37h-0.061c-0.66,1.17-2.221,2.7-4.8,2.7
		c-2.28,0-5.01-1.29-5.01-6.359v-8.49h2.64v8.01c0,2.76,0.87,4.649,3.24,4.649c1.77,0,3-1.229,3.479-2.43
		c0.149-0.359,0.24-0.84,0.24-1.35v-8.88h2.64V421.545z"/>
	<path d="M399.27,423.405c0,3.359-0.69,5.37-2.069,6.66c-1.44,1.289-3.48,1.739-5.311,1.739c-1.74,0-3.66-0.42-4.83-1.2l0.66-2.039
		c0.961,0.63,2.461,1.17,4.26,1.17c2.7,0,4.68-1.41,4.68-5.101v-1.59h-0.06c-0.78,1.351-2.37,2.431-4.62,2.431
		c-3.6,0-6.18-3.061-6.18-7.08c0-4.92,3.21-7.68,6.57-7.68c2.52,0,3.869,1.29,4.529,2.49h0.061l0.09-2.19h2.34
		c-0.09,1.021-0.12,2.22-0.12,3.96V423.405z M396.63,416.745c0-0.449-0.03-0.84-0.15-1.17c-0.48-1.56-1.74-2.819-3.689-2.819
		c-2.52,0-4.32,2.13-4.32,5.489c0,2.851,1.471,5.22,4.29,5.22c1.649,0,3.12-1.02,3.659-2.699c0.15-0.45,0.211-0.96,0.211-1.41
		V416.745z"/>
	<path d="M403.621,404.236h2.639v9.089h0.061c0.42-0.749,1.08-1.439,1.891-1.89c0.779-0.45,1.709-0.72,2.699-0.72
		c1.95,0,5.07,1.2,5.07,6.18v8.64h-2.641v-8.34c0-2.34-0.869-4.29-3.359-4.29c-1.71,0-3.029,1.2-3.54,2.61
		c-0.149,0.39-0.181,0.78-0.181,1.26v8.76h-2.639V404.236z"/>
	<path d="M429.809,407.536v3.479h3.78v2.01h-3.78v7.83c0,1.8,0.511,2.819,1.979,2.819c0.721,0,1.141-0.06,1.531-0.18l0.119,2.01
		c-0.51,0.181-1.32,0.36-2.34,0.36c-1.23,0-2.22-0.42-2.85-1.11c-0.721-0.81-1.02-2.1-1.02-3.81v-7.92h-2.25v-2.01h2.25v-2.7
		L429.809,407.536z"/>
	<path d="M436.56,404.236h2.639v9.089h0.061c0.42-0.749,1.08-1.439,1.891-1.89c0.779-0.45,1.709-0.72,2.699-0.72
		c1.95,0,5.07,1.2,5.07,6.18v8.64h-2.641v-8.34c0-2.34-0.869-4.29-3.359-4.29c-1.71,0-3.029,1.2-3.54,2.61
		c-0.149,0.39-0.181,0.78-0.181,1.26v8.76h-2.639V404.236z"/>
	<path d="M454.679,418.756c0.06,3.569,2.31,5.039,4.979,5.039c1.89,0,3.06-0.33,4.021-0.75l0.479,1.891
		c-0.931,0.42-2.55,0.93-4.86,0.93c-4.469,0-7.139-2.97-7.139-7.35s2.579-7.8,6.809-7.8c4.77,0,6,4.14,6,6.81
		c0,0.54-0.029,0.93-0.09,1.23H454.679z M462.418,416.865c0.03-1.649-0.69-4.26-3.659-4.26c-2.701,0-3.84,2.43-4.051,4.26H462.418z"
		/>
</g>
<g enable-background="new    ">
	<path d="M122.629,452.655c-0.15-2.819-0.33-6.239-0.33-8.729h-0.06c-0.72,2.34-1.53,4.89-2.55,7.68l-3.57,9.81h-1.98l-3.3-9.63
		c-0.96-2.88-1.74-5.459-2.31-7.859h-0.06c-0.06,2.52-0.21,5.88-0.39,8.939l-0.54,8.67h-2.49l1.41-20.219h3.33l3.45,9.779
		c0.84,2.49,1.5,4.71,2.04,6.81h0.06c0.54-2.04,1.26-4.26,2.16-6.81l3.6-9.779h3.33l1.26,20.219h-2.58L122.629,452.655z"/>
	<path d="M132.919,442.936c0,0.9-0.63,1.62-1.68,1.62c-0.96,0-1.59-0.72-1.59-1.62c0-0.899,0.66-1.649,1.65-1.649
		C132.259,441.286,132.919,442.006,132.919,442.936z M129.979,461.535v-14.52h2.64v14.52H129.979z"/>
	<path d="M136.639,458.865c0.81,0.48,2.19,1.02,3.51,1.02c1.89,0,2.79-0.93,2.79-2.159c0-1.26-0.75-1.92-2.67-2.641
		c-2.64-0.96-3.87-2.369-3.87-4.109c0-2.34,1.92-4.26,5.01-4.26c1.47,0,2.76,0.39,3.54,0.899l-0.63,1.92
		c-0.57-0.359-1.62-0.869-2.97-0.869c-1.56,0-2.4,0.899-2.4,1.979c0,1.2,0.84,1.74,2.73,2.49c2.49,0.93,3.81,2.189,3.81,4.35
		c0,2.58-2.01,4.38-5.4,4.38c-1.59,0-3.06-0.42-4.08-1.021L136.639,458.865z"/>
	<path d="M148.519,458.865c0.81,0.48,2.19,1.02,3.51,1.02c1.89,0,2.79-0.93,2.79-2.159c0-1.26-0.75-1.92-2.67-2.641
		c-2.64-0.96-3.87-2.369-3.87-4.109c0-2.34,1.92-4.26,5.01-4.26c1.47,0,2.76,0.39,3.54,0.899l-0.63,1.92
		c-0.57-0.359-1.62-0.869-2.97-0.869c-1.56,0-2.4,0.899-2.4,1.979c0,1.2,0.84,1.74,2.73,2.49c2.49,0.93,3.81,2.189,3.81,4.35
		c0,2.58-2.01,4.38-5.4,4.38c-1.59,0-3.06-0.42-4.08-1.021L148.519,458.865z"/>
	<path d="M163.698,442.936c0,0.9-0.63,1.62-1.68,1.62c-0.96,0-1.59-0.72-1.59-1.62c0-0.899,0.66-1.649,1.65-1.649
		C163.038,441.286,163.698,442.006,163.698,442.936z M160.758,461.535v-14.52h2.64v14.52H160.758z"/>
	<path d="M167.418,458.865c0.81,0.48,2.19,1.02,3.51,1.02c1.89,0,2.79-0.93,2.79-2.159c0-1.26-0.75-1.92-2.67-2.641
		c-2.64-0.96-3.87-2.369-3.87-4.109c0-2.34,1.92-4.26,5.01-4.26c1.47,0,2.76,0.39,3.54,0.899l-0.63,1.92
		c-0.57-0.359-1.62-0.869-2.97-0.869c-1.56,0-2.4,0.899-2.4,1.979c0,1.2,0.84,1.74,2.73,2.49c2.49,0.93,3.81,2.189,3.81,4.35
		c0,2.58-2.01,4.38-5.4,4.38c-1.59,0-3.06-0.42-4.08-1.021L167.418,458.865z"/>
	<path d="M179.298,458.865c0.81,0.48,2.19,1.02,3.51,1.02c1.89,0,2.79-0.93,2.79-2.159c0-1.26-0.75-1.92-2.67-2.641
		c-2.64-0.96-3.87-2.369-3.87-4.109c0-2.34,1.92-4.26,5.01-4.26c1.47,0,2.76,0.39,3.54,0.899l-0.63,1.92
		c-0.57-0.359-1.62-0.869-2.97-0.869c-1.56,0-2.4,0.899-2.4,1.979c0,1.2,0.84,1.74,2.73,2.49c2.49,0.93,3.81,2.189,3.81,4.35
		c0,2.58-2.01,4.38-5.4,4.38c-1.59,0-3.06-0.42-4.08-1.021L179.298,458.865z"/>
	<path d="M194.478,442.936c0,0.9-0.63,1.62-1.68,1.62c-0.96,0-1.59-0.72-1.59-1.62c0-0.899,0.66-1.649,1.65-1.649
		C193.818,441.286,194.478,442.006,194.478,442.936z M191.538,461.535v-14.52h2.64v14.52H191.538z"/>
	<path d="M198.558,451.756c0-1.86-0.06-3.36-0.12-4.74h2.34l0.15,2.49h0.06c1.05-1.771,2.79-2.79,5.16-2.79
		c3.54,0,6.18,2.97,6.18,7.35c0,5.22-3.21,7.8-6.63,7.8c-1.92,0-3.6-0.84-4.47-2.28h-0.06v7.89h-2.61V451.756z M201.167,455.625
		c0,0.391,0.03,0.75,0.12,1.08c0.48,1.83,2.07,3.09,3.959,3.09c2.79,0,4.41-2.279,4.41-5.609c0-2.88-1.53-5.37-4.32-5.37
		c-1.8,0-3.51,1.26-3.99,3.24c-0.09,0.33-0.18,0.72-0.18,1.05V455.625z"/>
	<path d="M215.627,451.756c0-1.86-0.06-3.36-0.12-4.74h2.34l0.15,2.49h0.06c1.05-1.771,2.79-2.79,5.16-2.79
		c3.54,0,6.18,2.97,6.18,7.35c0,5.22-3.21,7.8-6.63,7.8c-1.92,0-3.6-0.84-4.47-2.28h-0.06v7.89h-2.61V451.756z M218.237,455.625
		c0,0.391,0.03,0.75,0.12,1.08c0.48,1.83,2.07,3.09,3.96,3.09c2.79,0,4.41-2.279,4.41-5.609c0-2.88-1.53-5.37-4.32-5.37
		c-1.8,0-3.51,1.26-3.99,3.24c-0.09,0.33-0.18,0.72-0.18,1.05V455.625z"/>
	<path d="M235.637,442.936c0,0.9-0.63,1.62-1.68,1.62c-0.96,0-1.59-0.72-1.59-1.62c0-0.899,0.66-1.649,1.65-1.649
		C234.977,441.286,235.637,442.006,235.637,442.936z M232.697,461.535v-14.52h2.64v14.52H232.697z"/>
	<path d="M246.077,451.546c0-1.71-0.03-3.181-0.12-4.53h2.31l0.12,2.88h0.09c0.66-1.95,2.28-3.18,4.05-3.18
		c0.27,0,0.48,0.03,0.72,0.06v2.49c-0.27-0.06-0.54-0.06-0.9-0.06c-1.86,0-3.18,1.38-3.54,3.359c-0.06,0.36-0.09,0.81-0.09,1.23
		v7.739h-2.64V451.546z"/>
	<path d="M258.946,442.936c0,0.9-0.63,1.62-1.68,1.62c-0.96,0-1.59-0.72-1.59-1.62c0-0.899,0.66-1.649,1.65-1.649
		C258.286,441.286,258.946,442.006,258.946,442.936z M256.006,461.535v-14.52h2.64v14.52H256.006z"/>
	<path d="M264.046,447.016l2.85,8.13c0.48,1.35,0.87,2.55,1.17,3.75h0.09c0.33-1.2,0.75-2.4,1.23-3.75l2.819-8.13h2.76l-5.7,14.52
		h-2.52l-5.52-14.52H264.046z"/>
	<path d="M278.625,454.756c0.06,3.569,2.31,5.039,4.979,5.039c1.891,0,3.061-0.33,4.021-0.75l0.479,1.891
		c-0.93,0.42-2.55,0.93-4.859,0.93c-4.47,0-7.14-2.97-7.14-7.35s2.579-7.8,6.81-7.8c4.77,0,6,4.14,6,6.81
		c0,0.54-0.03,0.93-0.09,1.23H278.625z M286.365,452.865c0.031-1.649-0.689-4.26-3.659-4.26c-2.7,0-3.84,2.43-4.05,4.26H286.365z"/>
	<path d="M292.185,451.546c0-1.71-0.029-3.181-0.119-4.53h2.31l0.12,2.88h0.09c0.66-1.95,2.279-3.18,4.05-3.18
		c0.271,0,0.479,0.03,0.72,0.06v2.49c-0.27-0.06-0.539-0.06-0.9-0.06c-1.859,0-3.18,1.38-3.539,3.359
		c-0.061,0.36-0.09,0.81-0.09,1.23v7.739h-2.641V451.546z"/>
	<path d="M308.355,451.756c0-1.86-0.061-3.36-0.12-4.74h2.34l0.149,2.49h0.061c1.051-1.771,2.79-2.79,5.16-2.79
		c3.539,0,6.18,2.97,6.18,7.35c0,5.22-3.21,7.8-6.63,7.8c-1.92,0-3.6-0.84-4.47-2.28h-0.061v7.89h-2.609V451.756z M310.964,455.625
		c0,0.391,0.03,0.75,0.121,1.08c0.479,1.83,2.069,3.09,3.959,3.09c2.79,0,4.41-2.279,4.41-5.609c0-2.88-1.529-5.37-4.32-5.37
		c-1.799,0-3.51,1.26-3.989,3.24c-0.091,0.33-0.181,0.72-0.181,1.05V455.625z"/>
	<path d="M326.894,454.756c0.061,3.569,2.311,5.039,4.98,5.039c1.891,0,3.061-0.33,4.02-0.75l0.48,1.891
		c-0.93,0.42-2.551,0.93-4.859,0.93c-4.471,0-7.141-2.97-7.141-7.35s2.58-7.8,6.811-7.8c4.77,0,5.999,4.14,5.999,6.81
		c0,0.54-0.03,0.93-0.09,1.23H326.894z M334.634,452.865c0.03-1.649-0.689-4.26-3.66-4.26c-2.699,0-3.84,2.43-4.049,4.26H334.634z"
		/>
	<path d="M340.455,451.546c0-1.71-0.029-3.181-0.12-4.53h2.31l0.121,2.88h0.09c0.66-1.95,2.279-3.18,4.049-3.18
		c0.271,0,0.48,0.03,0.721,0.06v2.49c-0.27-0.06-0.54-0.06-0.9-0.06c-1.859,0-3.18,1.38-3.539,3.359
		c-0.061,0.36-0.091,0.81-0.091,1.23v7.739h-2.64V451.546z"/>
	<path d="M356.264,458.865c0.81,0.48,2.19,1.02,3.51,1.02c1.89,0,2.79-0.93,2.79-2.159c0-1.26-0.75-1.92-2.67-2.641
		c-2.641-0.96-3.87-2.369-3.87-4.109c0-2.34,1.92-4.26,5.01-4.26c1.47,0,2.761,0.39,3.54,0.899l-0.63,1.92
		c-0.57-0.359-1.62-0.869-2.97-0.869c-1.561,0-2.4,0.899-2.4,1.979c0,1.2,0.84,1.74,2.73,2.49c2.49,0.93,3.81,2.189,3.81,4.35
		c0,2.58-2.011,4.38-5.399,4.38c-1.59,0-3.061-0.42-4.08-1.021L356.264,458.865z"/>
	<path d="M369.974,454.756c0.06,3.569,2.31,5.039,4.979,5.039c1.89,0,3.06-0.33,4.021-0.75l0.479,1.891
		c-0.931,0.42-2.55,0.93-4.86,0.93c-4.469,0-7.139-2.97-7.139-7.35s2.579-7.8,6.809-7.8c4.77,0,6,4.14,6,6.81
		c0,0.54-0.029,0.93-0.09,1.23H369.974z M377.713,452.865c0.03-1.649-0.69-4.26-3.659-4.26c-2.701,0-3.84,2.43-4.051,4.26H377.713z"
		/>
	<path d="M393.883,461.025c-0.69,0.33-2.22,0.84-4.17,0.84c-4.38,0-7.229-2.97-7.229-7.41c0-4.47,3.06-7.739,7.799-7.739
		c1.561,0,2.94,0.39,3.66,0.78l-0.6,2.01c-0.63-0.33-1.62-0.69-3.061-0.69c-3.329,0-5.129,2.49-5.129,5.49
		c0,3.359,2.16,5.43,5.039,5.43c1.5,0,2.49-0.36,3.24-0.69L393.883,461.025z"/>
	<path d="M409.933,454.155c0,5.37-3.75,7.71-7.229,7.71c-3.899,0-6.96-2.88-6.96-7.47c0-4.83,3.21-7.68,7.2-7.68
		C407.113,446.716,409.933,449.746,409.933,454.155z M398.444,454.306c0,3.18,1.8,5.579,4.38,5.579c2.52,0,4.41-2.369,4.41-5.64
		c0-2.46-1.23-5.55-4.35-5.55C399.794,448.695,398.444,451.575,398.444,454.306z"/>
	<path d="M413.263,450.945c0-1.529-0.029-2.729-0.119-3.93h2.34l0.15,2.4h0.059c0.721-1.351,2.4-2.7,4.801-2.7
		c2.01,0,5.129,1.2,5.129,6.18v8.64h-2.639v-8.37c0-2.34-0.871-4.289-3.36-4.289c-1.71,0-3.06,1.229-3.54,2.699
		c-0.12,0.33-0.18,0.78-0.18,1.23v8.729h-2.641V450.945z"/>
	<path d="M442.423,440.236v17.549c0,1.29,0.06,2.76,0.119,3.75h-2.34l-0.119-2.52h-0.09c-0.78,1.619-2.521,2.85-4.891,2.85
		c-3.51,0-6.239-2.97-6.239-7.38c-0.03-4.83,2.999-7.77,6.51-7.77c2.249,0,3.72,1.05,4.38,2.189h0.06v-8.669H442.423z
		 M439.813,452.926c0-0.33-0.03-0.78-0.12-1.11c-0.39-1.649-1.83-3.029-3.81-3.029c-2.729,0-4.35,2.399-4.35,5.579
		c0,2.94,1.47,5.37,4.29,5.37c1.77,0,3.39-1.2,3.869-3.15c0.09-0.359,0.12-0.72,0.12-1.14V452.926z"/>
</g>
<rect x="189.037" y="313.761" fill="none" width="284.21" height="50.877"/>
<g enable-background="new    ">
	<path d="M286.496,350.21v-14.201c0-4.7-1.35-6.1-4.2-6.1s-4.251,1.399-4.251,5.95v14.351h-6.9v-14.201c0-4.7-1.35-6.1-4.2-6.1
		s-4.25,1.399-4.25,5.95v14.351h-6.9v-26.252h6.9v1.75c1.2-1.25,3-2.3,5.75-2.3c3.35,0,5.3,0.95,7.25,3.351
		c1.801-1.851,4-3.351,8.351-3.351c6.7,0,9.351,4.601,9.351,12.001v14.801H286.496z"/>
	<path d="M303.543,321.809c-2.149,0-3.95-1.801-3.95-3.95c0-2.15,1.801-3.95,3.95-3.95c2.15,0,3.95,1.8,3.95,3.95
		C307.494,320.008,305.694,321.809,303.543,321.809z M300.093,350.21v-26.252h6.9v26.252H300.093z"/>
	<path d="M314.193,350.21v-33.002l6.9-3.45v36.452H314.193z"/>
	<path d="M328.292,350.21v-33.002l6.9-3.45v36.452H328.292z"/>
	<path d="M345.843,321.809c-2.15,0-3.95-1.801-3.95-3.95c0-2.15,1.8-3.95,3.95-3.95s3.95,1.8,3.95,3.95
		C349.793,320.008,347.994,321.809,345.843,321.809z M342.393,350.21v-26.252h6.9v26.252H342.393z"/>
	<path d="M366.744,350.76c-6.851,0-11.852-5.601-11.852-13.65c0-8.051,5.001-13.701,11.852-13.701c6.85,0,11.9,5.65,11.9,13.701
		C378.644,345.159,373.593,350.76,366.744,350.76z M366.744,330.059c-3.301,0-4.851,3-4.851,7.051c0,4.05,1.55,7,4.851,7
		c3.3,0,4.9-3.35,4.9-7C371.644,333.109,370.043,330.059,366.744,330.059z"/>
	<path d="M399.843,350.21v-14.201c0-4.7-1.6-6.1-4.449-6.1c-2.851,0-4.501,1.399-4.501,5.95v14.351h-6.9v-26.252h6.9v1.75
		c1.2-1.25,3.4-2.3,6.15-2.3c6.7,0,9.7,4.601,9.7,12.001v14.801H399.843z"/>
</g>
<path fill="#19162B" d="M316.314,711.947l-2.378-76.781l14.948-130.799l-4.758-5.437l-82.216-0.68l2.378,5.096l-2.038,2.379
	l-7.474-1.021l-3.738,7.812l1.019,6.456l-0.339,5.775l-8.833,4.077l-1.019,3.397l-4.077,0.68l2.038,7.134l-7.475,6.456l4.757,7.812
	l-7.814,1.021l-2.377,4.076v5.774l3.396,5.438c0,0-1.697,6.793-1.358,7.812c0.339,1.021,1.019,5.099,1.019,5.099l-2.379,2.718
	l1.019,6.454c0,0,0,3.739,0.68,5.437c0.68,1.699,1.699,10.871,1.699,10.871s2.718,4.417,3.058,6.456
	c0.339,2.038,2.038,7.475,2.038,7.475l-2.379,3.737l-5.096,2.716l2.038,4.758c0,0-1.019,2.379-1.358,3.397
	c-0.339,1.02-3.737,5.096-3.737,6.114c0,1.02-3.058,3.737-3.736,4.757c-0.68,1.021-3.059,3.396-3.398,4.416
	c-0.339,1.021-1.699,2.039-2.038,4.417c-0.341,2.379-3.059,6.795-3.398,7.813c-0.339,1.02-1.019,2.038-1.699,3.736
	c-0.678,1.699-2.377,5.775-2.377,5.775l2.038,4.418l1.358,4.756h71.006l-1.699,8.153l-1.697,5.774l2.039,7.814l4.415,5.775
	l3.398,8.493l4.415,2.719l4.078-4.417l2.378-6.454l2.038,0.678l-0.68,2.719l14.27-4.417c0,0,2.718-3.396,6.795,2.379l3.736-1.02
	l5.437,2.379L316.314,711.947z"/>
<rect x="239.391" y="590.211" fill="none" width="54.147" height="39.747"/>
<g enable-background="new    ">
	<path fill="#6BBDC4" d="M261.126,616.02v-13.098c0-1.487,0.036-3.646,0.071-4.354c-0.283,0.708-0.991,2.478-1.593,3.894
		l-6.019,13.948l-5.947-13.948c-0.602-1.416-1.31-3.186-1.593-3.894c0.035,0.708,0.071,2.867,0.071,4.354v13.098h-3.504v-24.78
		h3.823l5.558,13.204c0.602,1.416,1.381,3.222,1.699,4.248c0.354-1.026,1.062-2.797,1.664-4.248l5.451-13.204h3.965v24.78H261.126z"
		/>
</g>
<g enable-background="new    ">
	<path fill="#6BBDC4" d="M278.652,616.409c-3.61,0-6.726-1.558-8.814-4.001l2.655-2.584c1.663,1.806,4.106,2.938,6.442,2.938
		c3.47,0,5.133-1.204,5.133-3.61c0-1.912-1.451-2.868-5.593-4.107c-5.239-1.557-7.753-2.867-7.753-7.292
		c0-4.283,3.611-6.903,8.178-6.903c3.363,0,5.912,1.239,8.106,3.363l-2.619,2.655c-1.558-1.593-3.328-2.372-5.771-2.372
		c-2.902,0-4.142,1.416-4.142,3.08c0,1.734,1.133,2.584,5.416,3.858c4.886,1.487,7.93,3.044,7.93,7.47
		C287.821,613.364,284.989,616.409,278.652,616.409z"/>
</g>
</svg>
