<?xml version="1.0" encoding="utf-8"?>
<!-- Generator: Adobe Illustrator 15.1.0, SVG Export Plug-In . SVG Version: 6.00 Build 0)  -->
<!DOCTYPE svg PUBLIC "-//W3C//DTD SVG 1.1//EN" "http://www.w3.org/Graphics/SVG/1.1/DTD/svg11.dtd">
<svg version="1.1" id="Layer_1" xmlns="http://www.w3.org/2000/svg" xmlns:xlink="http://www.w3.org/1999/xlink" x="0px" y="0px"
	 width="536.378px" height="780.521px" viewBox="0 0 536.378 780.521" enable-background="new 0 0 536.378 780.521"
	 xml:space="preserve">
<rect x="163.537" y="201.337" fill="none" width="335.21" height="91.324"/>
<g enable-background="new    ">
	<path d="M249.302,290.136c-18.719,0-33.359-10.439-33.359-33.959c0-22.079,12.959-52.678,56.517-52.678v16.319
		c-19.438,0-31.798,6.84-36.598,19.679c5.4-3.6,10.679-5.279,19.199-5.279c16.68,0,29.639,8.52,29.639,27.119
		C284.701,280.056,269.101,290.136,249.302,290.136z M250.862,249.457c-11.4,0-17.52,3.84-17.52,12.6
		c0,7.8,5.76,12.479,16.679,12.479c11.16,0,17.639-4.8,17.639-12.6C267.661,253.417,261.422,249.457,250.862,249.457z"/>
	<path d="M328.862,290.136c-18.72,0-33.358-10.439-33.358-33.959c0-22.079,12.959-52.678,56.518-52.678v16.319
		c-19.439,0-31.799,6.84-36.599,19.679c5.399-3.6,10.679-5.279,19.199-5.279c16.679,0,29.639,8.52,29.639,27.119
		C364.26,280.056,348.662,290.136,328.862,290.136z M330.421,249.457c-11.399,0-17.52,3.84-17.52,12.6
		c0,7.8,5.76,12.479,16.68,12.479c11.16,0,17.639-4.8,17.639-12.6C347.22,253.417,340.982,249.457,330.421,249.457z"/>
	<path d="M410.581,290.136c-22.919,0-35.159-17.76-35.159-43.318c0-25.56,12.36-43.318,35.279-43.318s35.279,17.52,35.279,43.078
		S433.5,290.136,410.581,290.136z M410.581,219.938c-12.839,0-18.119,11.64-18.119,26.639s5.399,27.119,18.239,27.119
		s18.239-11.88,18.239-26.879C428.94,231.817,423.419,219.938,410.581,219.938z"/>
</g>
<rect x="-19.884" y="404.235" fill="none" width="587.719" height="33.333"/>
<g enable-background="new    ">
	<path d="M58.084,411.016l2.85,8.13c0.48,1.35,0.87,2.55,1.17,3.75h0.09c0.33-1.2,0.75-2.4,1.23-3.75l2.82-8.13h2.76l-5.7,14.52
		h-2.52l-5.52-14.52H58.084z"/>
	<path d="M84.333,418.155c0,5.37-3.75,7.71-7.23,7.71c-3.9,0-6.959-2.88-6.959-7.47c0-4.83,3.209-7.68,7.2-7.68
		C81.513,410.716,84.333,413.746,84.333,418.155z M72.844,418.306c0,3.18,1.8,5.579,4.38,5.579c2.52,0,4.41-2.369,4.41-5.64
		c0-2.46-1.23-5.55-4.35-5.55C74.194,412.695,72.844,415.575,72.844,418.306z"/>
	<path d="M87.664,404.236h2.64v21.299h-2.64V404.236z"/>
	<path d="M106.893,421.545c0,1.53,0.03,2.851,0.12,3.99h-2.34l-0.15-2.37h-0.06c-0.66,1.17-2.22,2.7-4.8,2.7
		c-2.28,0-5.01-1.29-5.01-6.359v-8.49h2.64v8.01c0,2.76,0.87,4.649,3.24,4.649c1.77,0,3-1.229,3.48-2.43
		c0.15-0.359,0.24-0.84,0.24-1.35v-8.88h2.64V421.545z"/>
	<path d="M111.273,414.945c0-1.529-0.06-2.729-0.12-3.93h2.31l0.12,2.37h0.09c0.81-1.38,2.16-2.67,4.59-2.67
		c1.95,0,3.45,1.2,4.08,2.91h0.06c0.45-0.84,1.05-1.44,1.65-1.891c0.87-0.659,1.8-1.02,3.18-1.02c1.95,0,4.8,1.26,4.8,6.3v8.52
		h-2.58v-8.189c0-2.82-1.05-4.47-3.15-4.47c-1.53,0-2.67,1.109-3.15,2.369c-0.12,0.391-0.21,0.841-0.21,1.32v8.97h-2.58v-8.699
		c0-2.311-1.02-3.96-3.03-3.96c-1.62,0-2.85,1.319-3.27,2.64c-0.15,0.36-0.21,0.84-0.21,1.29v8.729h-2.58V414.945z"/>
	<path d="M137.763,418.756c0.06,3.569,2.31,5.039,4.98,5.039c1.89,0,3.06-0.33,4.02-0.75l0.48,1.891c-0.93,0.42-2.55,0.93-4.86,0.93
		c-4.47,0-7.14-2.97-7.14-7.35s2.58-7.8,6.81-7.8c4.77,0,6,4.14,6,6.81c0,0.54-0.03,0.93-0.09,1.23H137.763z M145.503,416.865
		c0.03-1.649-0.69-4.26-3.66-4.26c-2.7,0-3.84,2.43-4.05,4.26H145.503z"/>
	<path d="M170.822,418.155c0,5.37-3.75,7.71-7.23,7.71c-3.9,0-6.959-2.88-6.959-7.47c0-4.83,3.209-7.68,7.2-7.68
		C168.002,410.716,170.822,413.746,170.822,418.155z M159.333,418.306c0,3.18,1.8,5.579,4.38,5.579c2.52,0,4.41-2.369,4.41-5.64
		c0-2.46-1.23-5.55-4.35-5.55C160.683,412.695,159.333,415.575,159.333,418.306z"/>
	<path d="M174.423,425.535v-12.51h-2.01v-2.01h2.01v-0.689c0-2.04,0.48-3.9,1.68-5.07c0.99-0.96,2.31-1.35,3.54-1.35
		c0.96,0,1.74,0.21,2.25,0.42l-0.36,2.04c-0.39-0.181-0.9-0.33-1.68-0.33c-2.25,0-2.82,1.95-2.82,4.199v0.78h3.51v2.01h-3.51v12.51
		H174.423z"/>
	<path d="M206.641,415.216c0,6.93-4.229,10.649-9.39,10.649c-5.37,0-9.089-4.17-9.089-10.29c0-6.419,3.96-10.619,9.359-10.619
		C203.071,404.956,206.641,409.186,206.641,415.216z M190.922,415.516c0,4.35,2.34,8.22,6.479,8.22c4.14,0,6.48-3.81,6.48-8.399
		c0-4.05-2.1-8.25-6.45-8.25S190.922,411.105,190.922,415.516z"/>
	<path d="M209.942,404.236h2.64v21.299h-2.64V404.236z"/>
	<path d="M217.981,411.016l3.15,8.58c0.36,0.96,0.72,2.1,0.96,2.97h0.06c0.27-0.87,0.57-1.98,0.93-3.03l2.88-8.52h2.79l-3.96,10.35
		c-1.89,4.979-3.18,7.5-4.979,9.09c-1.32,1.109-2.58,1.56-3.24,1.68l-0.66-2.189c0.66-0.21,1.53-0.63,2.31-1.29
		c0.72-0.57,1.59-1.59,2.22-2.94c0.12-0.27,0.21-0.479,0.21-0.63c0-0.149-0.06-0.359-0.21-0.689l-5.34-13.38H217.981z"/>
	<path d="M231.151,414.945c0-1.529-0.06-2.729-0.12-3.93h2.31l0.12,2.37h0.09c0.81-1.38,2.16-2.67,4.59-2.67
		c1.95,0,3.45,1.2,4.08,2.91h0.06c0.45-0.84,1.05-1.44,1.65-1.891c0.87-0.659,1.8-1.02,3.18-1.02c1.95,0,4.8,1.26,4.8,6.3v8.52
		h-2.58v-8.189c0-2.82-1.05-4.47-3.15-4.47c-1.53,0-2.67,1.109-3.15,2.369c-0.12,0.391-0.21,0.841-0.21,1.32v8.97h-2.58v-8.699
		c0-2.311-1.02-3.96-3.03-3.96c-1.62,0-2.85,1.319-3.27,2.64c-0.15,0.36-0.21,0.84-0.21,1.29v8.729h-2.58V414.945z"/>
	<path d="M256.171,415.756c0-1.86-0.06-3.36-0.12-4.74h2.34l0.15,2.49h0.06c1.05-1.771,2.79-2.79,5.16-2.79
		c3.54,0,6.18,2.97,6.18,7.35c0,5.22-3.21,7.8-6.63,7.8c-1.92,0-3.6-0.84-4.47-2.28h-0.06v7.89h-2.61V415.756z M258.781,419.625
		c0,0.391,0.03,0.75,0.12,1.08c0.48,1.83,2.07,3.09,3.96,3.09c2.79,0,4.41-2.279,4.41-5.609c0-2.88-1.53-5.37-4.32-5.37
		c-1.8,0-3.51,1.26-3.99,3.24c-0.09,0.33-0.18,0.72-0.18,1.05V419.625z"/>
	<path d="M276.181,406.936c0,0.9-0.63,1.62-1.68,1.62c-0.961,0-1.59-0.72-1.59-1.62c0-0.899,0.66-1.649,1.649-1.649
		C275.521,405.286,276.181,406.006,276.181,406.936z M273.242,425.535v-14.52h2.639v14.52H273.242z"/>
	<path d="M290.611,425.025c-0.69,0.33-2.221,0.84-4.17,0.84c-4.381,0-7.23-2.97-7.23-7.41c0-4.47,3.061-7.739,7.8-7.739
		c1.56,0,2.94,0.39,3.66,0.78l-0.601,2.01c-0.629-0.33-1.619-0.69-3.06-0.69c-3.329,0-5.13,2.49-5.13,5.49
		c0,3.359,2.16,5.43,5.04,5.43c1.5,0,2.489-0.36,3.239-0.69L290.611,425.025z"/>
	<path d="M299.701,422.865c0.811,0.48,2.189,1.02,3.51,1.02c1.89,0,2.79-0.93,2.79-2.159c0-1.26-0.75-1.92-2.67-2.641
		c-2.64-0.96-3.87-2.369-3.87-4.109c0-2.34,1.92-4.26,5.01-4.26c1.471,0,2.76,0.39,3.54,0.899l-0.63,1.92
		c-0.57-0.359-1.62-0.869-2.971-0.869c-1.559,0-2.399,0.899-2.399,1.979c0,1.2,0.841,1.74,2.729,2.49
		c2.49,0.93,3.811,2.189,3.811,4.35c0,2.58-2.01,4.38-5.4,4.38c-1.59,0-3.06-0.42-4.08-1.021L299.701,422.865z"/>
	<path d="M312.99,411.016l1.951,7.38c0.389,1.62,0.779,3.12,1.049,4.62h0.09c0.33-1.471,0.811-3.03,1.291-4.59l2.369-7.41h2.221
		l2.25,7.26c0.539,1.74,0.959,3.27,1.289,4.74h0.09c0.24-1.471,0.631-3,1.11-4.71l2.069-7.29h2.61l-4.68,14.52H324.3l-2.221-6.93
		c-0.51-1.62-0.93-3.06-1.289-4.77h-0.061c-0.359,1.739-0.811,3.239-1.32,4.8l-2.34,6.899h-2.399l-4.38-14.52H312.99z"/>
	<path d="M336.96,406.936c0,0.9-0.631,1.62-1.681,1.62c-0.96,0-1.59-0.72-1.59-1.62c0-0.899,0.66-1.649,1.649-1.649
		C336.3,405.286,336.96,406.006,336.96,406.936z M334.02,425.535v-14.52h2.64v14.52H334.02z"/>
	<path d="M341.041,414.945c0-1.529-0.061-2.729-0.121-3.93h2.311l0.12,2.37h0.09c0.81-1.38,2.159-2.67,4.59-2.67
		c1.95,0,3.45,1.2,4.079,2.91h0.061c0.45-0.84,1.051-1.44,1.65-1.891c0.869-0.659,1.8-1.02,3.18-1.02c1.949,0,4.8,1.26,4.8,6.3v8.52
		h-2.58v-8.189c0-2.82-1.05-4.47-3.149-4.47c-1.53,0-2.67,1.109-3.15,2.369c-0.12,0.391-0.21,0.841-0.21,1.32v8.97h-2.579v-8.699
		c0-2.311-1.021-3.96-3.031-3.96c-1.619,0-2.85,1.319-3.27,2.64c-0.15,0.36-0.209,0.84-0.209,1.29v8.729h-2.58V414.945z"/>
	<path d="M366.06,414.945c0-1.529-0.061-2.729-0.12-3.93h2.31l0.121,2.37h0.09c0.81-1.38,2.159-2.67,4.59-2.67
		c1.949,0,3.449,1.2,4.079,2.91h0.06c0.451-0.84,1.051-1.44,1.65-1.891c0.87-0.659,1.801-1.02,3.18-1.02
		c1.95,0,4.801,1.26,4.801,6.3v8.52h-2.58v-8.189c0-2.82-1.051-4.47-3.15-4.47c-1.529,0-2.67,1.109-3.15,2.369
		c-0.119,0.391-0.209,0.841-0.209,1.32v8.97h-2.58v-8.699c0-2.311-1.02-3.96-3.03-3.96c-1.62,0-2.85,1.319-3.27,2.64
		c-0.15,0.36-0.21,0.84-0.21,1.29v8.729h-2.58V414.945z"/>
	<path d="M394.02,406.936c0,0.9-0.63,1.62-1.681,1.62c-0.959,0-1.59-0.72-1.59-1.62c0-0.899,0.66-1.649,1.65-1.649
		C393.36,405.286,394.02,406.006,394.02,406.936z M391.08,425.535v-14.52h2.641v14.52H391.08z"/>
	<path d="M398.099,414.945c0-1.529-0.029-2.729-0.119-3.93h2.34l0.15,2.4h0.059c0.721-1.351,2.4-2.7,4.801-2.7
		c2.01,0,5.129,1.2,5.129,6.18v8.64h-2.639v-8.37c0-2.34-0.871-4.289-3.36-4.289c-1.71,0-3.06,1.229-3.54,2.699
		c-0.12,0.33-0.18,0.78-0.18,1.23v8.729h-2.641V414.945z"/>
	<path d="M427.169,423.405c0,3.359-0.69,5.37-2.07,6.66c-1.439,1.289-3.48,1.739-5.311,1.739c-1.739,0-3.659-0.42-4.829-1.2
		l0.66-2.039c0.96,0.63,2.46,1.17,4.26,1.17c2.7,0,4.68-1.41,4.68-5.101v-1.59h-0.06c-0.78,1.351-2.37,2.431-4.62,2.431
		c-3.601,0-6.18-3.061-6.18-7.08c0-4.92,3.21-7.68,6.569-7.68c2.52,0,3.87,1.29,4.529,2.49h0.061l0.09-2.19h2.34
		c-0.09,1.021-0.119,2.22-0.119,3.96V423.405z M424.529,416.745c0-0.449-0.029-0.84-0.15-1.17c-0.479-1.56-1.739-2.819-3.689-2.819
		c-2.52,0-4.319,2.13-4.319,5.489c0,2.851,1.47,5.22,4.29,5.22c1.649,0,3.119-1.02,3.66-2.699c0.149-0.45,0.209-0.96,0.209-1.41
		V416.745z"/>
	<path d="M437.878,415.756c0-1.86-0.06-3.36-0.119-4.74h2.34l0.15,2.49h0.059c1.051-1.771,2.791-2.79,5.16-2.79
		c3.54,0,6.18,2.97,6.18,7.35c0,5.22-3.209,7.8-6.629,7.8c-1.92,0-3.6-0.84-4.471-2.28h-0.06v7.89h-2.61V415.756z M440.489,419.625
		c0,0.391,0.03,0.75,0.12,1.08c0.48,1.83,2.07,3.09,3.959,3.09c2.791,0,4.41-2.279,4.41-5.609c0-2.88-1.529-5.37-4.319-5.37
		c-1.8,0-3.51,1.26-3.989,3.24c-0.091,0.33-0.181,0.72-0.181,1.05V419.625z"/>
	<path d="M468.087,418.155c0,5.37-3.75,7.71-7.229,7.71c-3.9,0-6.96-2.88-6.96-7.47c0-4.83,3.21-7.68,7.2-7.68
		C465.269,410.716,468.087,413.746,468.087,418.155z M456.599,418.306c0,3.18,1.799,5.579,4.379,5.579c2.52,0,4.41-2.369,4.41-5.64
		c0-2.46-1.23-5.55-4.35-5.55C457.949,412.695,456.599,415.575,456.599,418.306z"/>
	<path d="M484.558,418.155c0,5.37-3.75,7.71-7.23,7.71c-3.898,0-6.959-2.88-6.959-7.47c0-4.83,3.209-7.68,7.199-7.68
		C481.738,410.716,484.558,413.746,484.558,418.155z M473.068,418.306c0,3.18,1.801,5.579,4.381,5.579c2.52,0,4.41-2.369,4.41-5.64
		c0-2.46-1.23-5.55-4.352-5.55C474.417,412.695,473.068,415.575,473.068,418.306z"/>
	<path d="M487.888,404.236h2.641v21.299h-2.641V404.236z"/>
</g>
<rect x="189.037" y="313.761" fill="none" width="284.21" height="50.877"/>
<g enable-background="new    ">
	<path d="M239.045,349.16c-1.15,0.899-3.2,1.6-5.35,1.6c-4.25,0-7-3.3-7-7.9v-12.4h-4.4v-6.501h4.4v-6.75l6.9-3.45v10.2h6.3v6.501
		h-6.3v10.551c0,2.5,0.9,3.149,2.55,3.149c1.25,0,2.2-0.55,3.9-2L239.045,349.16z"/>
	<path d="M262.344,350.21v-14.201c0-4.7-1.6-6.1-4.45-6.1s-4.5,1.399-4.5,5.95v14.351h-6.9v-33.002l6.9-3.45v11.95
		c1.2-1.25,3.4-2.3,6.15-2.3c6.701,0,9.701,4.601,9.701,12.001v14.801H262.344z"/>
	<path d="M286.195,350.76c-6.852,0-11.852-5.601-11.852-13.65c0-8.051,5-13.701,11.852-13.701c6.85,0,11.9,5.65,11.9,13.701
		C298.095,345.159,293.044,350.76,286.195,350.76z M286.195,330.059c-3.301,0-4.852,3-4.852,7.051c0,4.05,1.551,7,4.852,7
		c3.299,0,4.899-3.35,4.899-7C291.094,333.109,289.494,330.059,286.195,330.059z"/>
	<path d="M319.044,350.21v-1.75c-1.201,1.25-3.4,2.3-6.15,2.3c-6.701,0-9.701-4.6-9.701-12.001v-14.801h6.9v14.201
		c0,4.7,1.6,6.101,4.45,6.101s4.501-1.4,4.501-5.95v-14.352h6.9v26.252H319.044z"/>
	<path d="M342.694,350.76c-4.15,0-8.2-1.2-11.001-3.05l2.301-5.25c2.8,1.55,5.75,2.399,9.1,2.399c2.701,0,3.501-0.649,3.501-2
		c0-1.2-0.95-1.8-3.851-2.65c-6.301-1.899-10.351-3.45-10.351-9c0-5.45,4.351-7.801,10.501-7.801c3.3,0,6.9,1,9.7,2.55l-2.2,5.451
		c-2.6-1.4-5.45-2.101-7.65-2.101c-2.8,0-3.551,0.55-3.551,1.7c0,1.1,0.801,1.55,5.451,3.05c4.7,1.551,8.75,3.251,8.75,8.501
		C353.394,348.61,348.594,350.76,342.694,350.76z"/>
	<path d="M373.694,350.21v-1.75c-1.251,1.3-3.45,2.3-5.9,2.3c-4.9,0-9.801-3-9.801-9.351c0-5.8,4.7-8.7,10.651-8.7
		c2.399,0,3.949,0.5,5.05,1.05v-1.3c0-1.851-1.251-3.351-3.751-3.351c-3.149,0-4.8,0.45-7.199,1.75l-2.65-4.8
		c3.05-1.75,5.6-2.65,9.85-2.65c6.352,0,10.651,3.301,10.651,9.2v17.602H373.694z M373.694,339.209c-1.2-0.75-2.351-1.1-4.8-1.1
		c-2.602,0-4.001,1.2-4.001,3.3c0,1.851,1.05,3.5,4.001,3.5c2.25,0,4.05-1.149,4.8-2.399V339.209z"/>
	<path d="M402.894,350.21v-14.201c0-4.7-1.6-6.1-4.45-6.1s-4.501,1.399-4.501,5.95v14.351h-6.9v-26.252h6.9v1.75
		c1.201-1.25,3.4-2.3,6.15-2.3c6.701,0,9.701,4.601,9.701,12.001v14.801H402.894z"/>
	<path d="M430.644,350.21v-1.65c-1.301,1.15-3.051,2.2-5.551,2.2c-5.6,0-10.201-4.2-10.201-14.001
		c0-7.851,3.701-13.351,10.201-13.351c2.301,0,4.301,0.9,5.551,2.05v-8.25l6.9-3.45v36.452H430.644z M430.644,332.159
		c-1.051-1.45-2.65-2.25-4.65-2.25c-2.65,0-4.101,2.3-4.101,6.7c0,5.4,1.8,7.65,4.501,7.65c2.149,0,3.25-0.9,4.25-2.2V332.159z"/>
</g>
<g>
	<rect x="131.308" y="481.699" fill="#19162B" stroke="#19162B" stroke-miterlimit="10" width="285.338" height="174.167"/>
	<g>
		<path fill="none" stroke="#6BBDC4" stroke-width="2" stroke-miterlimit="10" d="M311.646,557.032
			c0.668-15.085,13.061-27.112,28.249-27.112c15.61,0,28.271,12.707,28.271,28.389c0,15.68-12.66,28.391-28.271,28.391
			c-15.062,0-27.374-11.821-28.228-26.732"/>
		<path fill="none" stroke="#6BBDC4" stroke-width="2" stroke-miterlimit="10" d="M328.451,584.278
			c-9.438-4.201-16.158-13.437-16.783-24.312"/>
		<path fill="none" stroke="#6BBDC4" stroke-width="2" stroke-miterlimit="10" d="M328.451,584.278
			c-9.438-4.201-16.158-13.437-16.783-24.312"/>
		<path fill="none" stroke="#6BBDC4" stroke-width="2" stroke-miterlimit="10" d="M341.181,586.672
			c-0.43,0.016-0.857,0.026-1.286,0.026c-4.071,0-7.946-0.861-11.442-2.42"/>
		<path fill="none" stroke="#6BBDC4" stroke-width="2" stroke-miterlimit="10" d="M311.646,557.032
			c0.668-15.085,13.061-27.112,28.249-27.112c15.61,0,28.271,12.707,28.271,28.389c0,15.248-11.97,27.685-26.984,28.363"/>
		<path fill="none" stroke="#6BBDC4" stroke-width="2" stroke-miterlimit="10" d="M311.646,557.032
			c0.668-15.085,13.061-27.112,28.249-27.112c15.61,0,28.271,12.707,28.271,28.389c0,15.248-11.97,27.685-26.984,28.363"/>
		<path fill="none" stroke="#6BBDC4" stroke-width="2" stroke-miterlimit="10" d="M334.283,587.844
			c-0.599,15.152-13.02,27.246-28.25,27.246c-15.611,0-28.271-12.714-28.271-28.392c0-13.563,9.478-24.903,22.137-27.716"/>
		<path fill="none" stroke="#6BBDC4" stroke-width="2" stroke-miterlimit="10" d="M302.688,558.504
			c1.097-0.131,2.216-0.195,3.345-0.195c14.641,0,26.68,11.172,28.129,25.485"/>
		<path fill="none" stroke="#6BBDC4" stroke-width="2" stroke-miterlimit="10" d="M278.436,580.51
			c2.378-10.719,10.787-19.153,21.464-21.526"/>
		<path fill="none" stroke="#6BBDC4" stroke-width="2" stroke-miterlimit="10" d="M278.571,593.457
			c-0.526-2.165-0.809-4.43-0.809-6.759c0-2.122,0.237-4.196,0.673-6.188"/>
		<path fill="none" stroke="#6BBDC4" stroke-width="2" stroke-miterlimit="10" d="M334.283,587.844
			c-0.599,15.152-13.02,27.246-28.25,27.246c-13.289,0-24.443-9.219-27.462-21.633"/>
		<path fill="none" stroke="#6BBDC4" stroke-width="2" stroke-miterlimit="10" d="M244.747,556.637
			c0.863-14.903,13.168-26.717,28.223-26.717c15.617,0,28.275,12.707,28.275,28.389c0,13.557-9.468,24.89-22.115,27.718"/>
		<path fill="none" stroke="#6BBDC4" stroke-width="2" stroke-miterlimit="10" d="M276.558,586.472
			c-1.174,0.151-2.374,0.228-3.588,0.228c-14.935,0-27.164-11.626-28.201-26.359"/>
		<path fill="none" stroke="#6BBDC4" stroke-width="2" stroke-miterlimit="10" d="M209.437,586.536
			c-1.015,0.108-2.04,0.162-3.084,0.162c-15.618,0-28.269-12.707-28.269-28.391c0-15.678,12.651-28.389,28.269-28.389
			c15.613,0,28.271,12.711,28.271,28.389c0,13.226-9.006,24.336-21.187,27.488"/>
		<path fill="none" stroke="#6BBDC4" stroke-width="2" stroke-miterlimit="10" d="M233.37,566.702
			c-2.878,9.352-10.445,16.637-19.933,19.095"/>
		<path fill="none" stroke="#6BBDC4" stroke-width="2" stroke-miterlimit="10" d="M233.825,551.6
			c0.521,2.148,0.799,4.396,0.799,6.709c0,2.92-0.439,5.744-1.254,8.395"/>
		<path fill="none" stroke="#6BBDC4" stroke-width="2" stroke-miterlimit="10" d="M233.825,551.6
			c0.521,2.148,0.799,4.396,0.799,6.709c0,2.92-0.439,5.744-1.254,8.395"/>
		<path fill="none" stroke="#6BBDC4" stroke-width="2" stroke-miterlimit="10" d="M233.825,551.6
			c0.521,2.148,0.799,4.396,0.799,6.709c0,2.92-0.439,5.744-1.254,8.395"/>
		<path fill="none" stroke="#6BBDC4" stroke-width="2" stroke-miterlimit="10" d="M233.37,566.702
			c-2.878,9.352-10.445,16.637-19.933,19.095"/>
		<path fill="none" stroke="#6BBDC4" stroke-width="2" stroke-miterlimit="10" d="M233.37,566.702
			c-2.878,9.352-10.445,16.637-19.933,19.095"/>
		<path fill="none" stroke="#6BBDC4" stroke-width="2" stroke-miterlimit="10" d="M209.437,586.536
			c-1.015,0.108-2.04,0.162-3.084,0.162c-15.618,0-28.269-12.707-28.269-28.391c0-15.678,12.651-28.389,28.269-28.389
			c13.312,0,24.478,9.238,27.473,21.68"/>
		<path fill="none" stroke="#6BBDC4" stroke-width="2" stroke-miterlimit="10" d="M209.437,586.536
			c-1.015,0.108-2.04,0.162-3.084,0.162c-15.618,0-28.269-12.707-28.269-28.391c0-15.678,12.651-28.389,28.269-28.389
			c13.312,0,24.478,9.238,27.473,21.68"/>
		<path fill="none" stroke="#6BBDC4" stroke-width="2" stroke-miterlimit="10" d="M302.688,558.504
			c1.097-0.131,2.216-0.195,3.345-0.195c14.641,0,26.68,11.172,28.129,25.485"/>
		<path fill="none" stroke="#6BBDC4" stroke-width="2" stroke-miterlimit="10" d="M341.181,586.672
			c-0.43,0.016-0.857,0.026-1.286,0.026c-4.071,0-7.946-0.861-11.442-2.42"/>
		<path fill="none" stroke="#6BBDC4" stroke-width="2" stroke-miterlimit="10" d="M244.747,556.637
			c0.863-14.903,13.168-26.717,28.223-26.717c15.617,0,28.275,12.707,28.275,28.389c0,13.557-9.468,24.89-22.115,27.718"/>
		<path fill="none" stroke="#6BBDC4" stroke-width="2" stroke-miterlimit="10" d="M300.464,564.933
			c-2.498,10.502-10.813,18.744-21.334,21.094"/>
		<path fill="none" stroke="#6BBDC4" stroke-width="2" stroke-miterlimit="10" d="M300.896,553.891
			c0.229,1.439,0.35,2.916,0.35,4.418c0,2.281-0.271,4.501-0.781,6.624"/>
		<path fill="none" stroke="#6BBDC4" stroke-width="2" stroke-miterlimit="10" d="M244.747,556.637
			c0.863-14.903,13.168-26.717,28.223-26.717c14.119,0,25.822,10.389,27.927,23.971"/>
		<path fill="none" stroke="#6BBDC4" stroke-width="2" stroke-miterlimit="10" d="M268.036,587.596
			c-0.762,14.998-13.116,26.924-28.238,26.924c-15.613,0-28.271-12.714-28.271-28.39c0-13.209,8.983-24.308,21.148-27.482"/>
		<path fill="none" stroke="#6BBDC4" stroke-width="2" stroke-miterlimit="10" d="M236.571,557.923
			c1.055-0.124,2.141-0.185,3.227-0.185c15.078,0,27.401,11.851,28.227,26.783"/>
		<path fill="none" stroke="#6BBDC4" stroke-width="2" stroke-miterlimit="10" d="M250.371,559.785
			c9.907,4.018,17.034,13.507,17.653,24.736"/>
		<path fill="none" stroke="#6BBDC4" stroke-width="2" stroke-miterlimit="10" d="M240.523,557.745
			c3.475,0.091,6.785,0.809,9.848,2.04"/>
		<path fill="none" stroke="#6BBDC4" stroke-width="2" stroke-miterlimit="10" d="M236.571,557.923
			c1.055-0.124,2.141-0.185,3.227-0.185c0.244,0,0.488,0,0.726,0.007"/>
		<path fill="none" stroke="#6BBDC4" stroke-width="2" stroke-miterlimit="10" d="M262.412,584.653
			c-9.794-3.963-16.861-13.268-17.644-24.314"/>
		<path fill="none" stroke="#6BBDC4" stroke-width="2" stroke-miterlimit="10" d="M262.412,584.653
			c-9.794-3.963-16.861-13.268-17.644-24.314"/>
		<path fill="none" stroke="#6BBDC4" stroke-width="2" stroke-miterlimit="10" d="M273.897,586.683
			c-0.31,0.013-0.619,0.017-0.929,0.017c-3.729,0-7.295-0.727-10.557-2.045"/>
		<path fill="none" stroke="#6BBDC4" stroke-width="2" stroke-miterlimit="10" d="M250.371,559.785
			c9.907,4.018,17.034,13.507,17.653,24.736"/>
		<path fill="none" stroke="#6BBDC4" stroke-width="2" stroke-miterlimit="10" d="M250.371,559.785
			c9.907,4.018,17.034,13.507,17.653,24.736"/>
		<path fill="none" stroke="#6BBDC4" stroke-width="2" stroke-miterlimit="10" d="M268.036,587.596
			c-0.762,14.998-13.116,26.924-28.238,26.924"/>
		<path fill="none" stroke="#6BBDC4" stroke-width="2" stroke-miterlimit="10" d="M276.558,586.472
			c-0.875,0.113-1.76,0.186-2.66,0.211"/>
		<path fill="none" stroke="#6BBDC4" stroke-width="2" stroke-miterlimit="10" d="M276.558,586.472
			c-0.875,0.113-1.76,0.186-2.66,0.211"/>
		<path fill="none" stroke="#6BBDC4" stroke-width="2" stroke-miterlimit="10" d="M268.036,587.596
			c-0.762,14.998-13.116,26.924-28.238,26.924c-15.613,0-28.271-12.714-28.271-28.39c0-13.209,8.983-24.308,21.148-27.482"/>
		<path fill="none" stroke="#6BBDC4" stroke-width="2" stroke-miterlimit="10" d="M278.436,580.51
			c2.378-10.719,10.787-19.153,21.464-21.526"/>
		<path fill="none" stroke="#6BBDC4" stroke-width="2" stroke-miterlimit="10" d="M302.688,558.504
			c1.097-0.131,2.216-0.195,3.345-0.195c14.641,0,26.68,11.172,28.129,25.485"/>
		<path fill="none" stroke="#6BBDC4" stroke-width="2" stroke-miterlimit="10" d="M302.688,558.504
			c1.097-0.131,2.216-0.195,3.345-0.195c14.641,0,26.68,11.172,28.129,25.485"/>
		<path fill="none" stroke="#6BBDC4" stroke-width="2" stroke-miterlimit="10" d="M302.688,558.504
			c1.097-0.131,2.216-0.195,3.345-0.195c14.641,0,26.68,11.172,28.129,25.485"/>
		<path fill="none" stroke="#6BBDC4" stroke-width="2" stroke-miterlimit="10" d="M278.436,580.51
			c2.378-10.719,10.787-19.153,21.464-21.526"/>
		<path fill="none" stroke="#6BBDC4" stroke-width="2" stroke-miterlimit="10" d="M334.283,587.844
			c-0.599,15.152-13.02,27.246-28.25,27.246c-13.289,0-24.443-9.219-27.462-21.633"/>
		<path fill="none" stroke="#6BBDC4" stroke-width="2" stroke-miterlimit="10" d="M334.283,587.844
			c-0.599,15.152-13.02,27.246-28.25,27.246c-13.289,0-24.443-9.219-27.462-21.633"/>
		<path fill="none" stroke="#6BBDC4" stroke-width="2" stroke-miterlimit="10" d="M300.896,553.891
			c0.229,1.439,0.35,2.916,0.35,4.418c0,2.281-0.271,4.501-0.781,6.624"/>
		<path fill="none" stroke="#6BBDC4" stroke-width="2" stroke-miterlimit="10" d="M300.896,553.891
			c0.229,1.439,0.35,2.916,0.35,4.418c0,2.281-0.271,4.501-0.781,6.624"/>
		<path fill="none" stroke="#6BBDC4" stroke-width="2" stroke-miterlimit="10" d="M278.571,593.457
			c-0.526-2.165-0.809-4.43-0.809-6.759c0-2.122,0.237-4.196,0.673-6.188"/>
		<path fill="none" stroke="#6BBDC4" stroke-width="2" stroke-miterlimit="10" d="M268.036,587.596
			c-0.762,14.998-13.116,26.924-28.238,26.924c-15.613,0-28.271-12.714-28.271-28.39c0-13.209,8.983-24.308,21.148-27.482"/>
		<path fill="none" stroke="#6BBDC4" stroke-width="2" stroke-miterlimit="10" d="M233.825,551.6
			c0.521,2.148,0.799,4.396,0.799,6.709c0,2.92-0.439,5.744-1.254,8.395"/>
		<path fill="none" stroke="#6BBDC4" stroke-width="2" stroke-miterlimit="10" d="M233.825,551.6
			c0.521,2.148,0.799,4.396,0.799,6.709c0,2.92-0.439,5.744-1.254,8.395"/>
		<path fill="none" stroke="#6BBDC4" stroke-width="2" stroke-miterlimit="10" d="M233.825,551.6
			c0.521,2.148,0.799,4.396,0.799,6.709c0,2.92-0.439,5.744-1.254,8.395"/>
		<path fill="none" stroke="#6BBDC4" stroke-width="2" stroke-miterlimit="10" d="M240.523,557.745
			c3.475,0.091,6.785,0.809,9.848,2.04"/>
		<path fill="none" stroke="#6BBDC4" stroke-width="2" stroke-miterlimit="10" d="M236.571,557.923
			c1.055-0.124,2.141-0.185,3.227-0.185c0.244,0,0.488,0,0.726,0.007"/>
		<path fill="none" stroke="#6BBDC4" stroke-width="2" stroke-miterlimit="10" d="M236.571,557.923
			c1.055-0.124,2.141-0.185,3.227-0.185c0.244,0,0.488,0,0.726,0.007"/>
		<path fill="none" stroke="#6BBDC4" stroke-width="2" stroke-miterlimit="10" d="M240.523,557.745
			c3.475,0.091,6.785,0.809,9.848,2.04"/>
		<path fill="none" stroke="#6BBDC4" stroke-width="2" stroke-miterlimit="10" d="M278.571,593.457
			c-0.526-2.165-0.809-4.43-0.809-6.759c0-2.122,0.237-4.196,0.673-6.188"/>
		<path fill="none" stroke="#6BBDC4" stroke-width="2" stroke-miterlimit="10" d="M278.571,593.457
			c-0.526-2.165-0.809-4.43-0.809-6.759c0-2.122,0.237-4.196,0.673-6.188"/>
		<path fill="none" stroke="#6BBDC4" stroke-width="2" stroke-miterlimit="10" d="M240.523,557.745
			c3.475,0.091,6.785,0.809,9.848,2.04"/>
		<path fill="none" stroke="#6BBDC4" stroke-width="2" stroke-miterlimit="10" d="M273.897,586.683
			c-0.31,0.013-0.619,0.017-0.929,0.017c-3.729,0-7.295-0.727-10.557-2.045"/>
		<path fill="none" stroke="#6BBDC4" stroke-width="2" stroke-miterlimit="10" d="M273.897,586.683
			c-0.31,0.013-0.619,0.017-0.929,0.017c-3.729,0-7.295-0.727-10.557-2.045"/>
		<path fill="none" stroke="#6BBDC4" stroke-width="2" stroke-miterlimit="10" d="M273.897,586.683
			c-0.31,0.013-0.619,0.017-0.929,0.017c-3.729,0-7.295-0.727-10.557-2.045"/>
		<path fill="none" stroke="#6BBDC4" stroke-width="2" stroke-miterlimit="10" d="M341.181,586.672
			c-0.43,0.016-0.857,0.026-1.286,0.026c-4.071,0-7.946-0.861-11.442-2.42"/>
		<path fill="none" stroke="#6BBDC4" stroke-width="2" stroke-miterlimit="10" d="M341.181,586.672
			c-0.43,0.016-0.857,0.026-1.286,0.026c-4.071,0-7.946-0.861-11.442-2.42"/>
	</g>
</g>
</svg>
