<?xml version="1.0" encoding="utf-8"?>
<!-- Generator: Adobe Illustrator 15.1.0, SVG Export Plug-In . SVG Version: 6.00 Build 0)  -->
<!DOCTYPE svg PUBLIC "-//W3C//DTD SVG 1.1//EN" "http://www.w3.org/Graphics/SVG/1.1/DTD/svg11.dtd">
<svg version="1.1" id="Layer_1" xmlns="http://www.w3.org/2000/svg" xmlns:xlink="http://www.w3.org/1999/xlink" x="0px" y="0px"
	 width="536.378px" height="780.521px" viewBox="0 0 536.378 780.521" enable-background="new 0 0 536.378 780.521"
	 xml:space="preserve">
<rect x="163.537" y="201.337" fill="none" width="335.21" height="91.324"/>
<g enable-background="new    ">
	<path d="M328.201,290.136c-12.6,0-23.879-4.92-33.238-16.08l12.719-10.319c6.961,7.319,13.561,9.96,22.08,9.96
		c11.039,0,16.199-3.96,16.199-10.68c0-6.479-4.439-9.6-12.359-9.6h-9.96v-16.439h8.999c6.961,0,9.84-3,9.84-8.52
		c0-4.32-3.479-8.52-14.039-8.52c-6.48,0-11.76,2.279-16.439,7.079l-12.239-11.159c8.04-8.399,16.438-12.359,28.919-12.359
		c17.159,0,30.838,7.92,30.838,23.759c0,9.12-4.799,14.64-9.719,17.159c5.399,2.04,13.199,7.32,13.199,18.359
		C363,280.896,349.08,290.136,328.201,290.136z"/>
</g>
<rect x="-19.884" y="416.516" fill="none" width="587.719" height="30.775"/>
<g enable-background="new    ">
	<path d="M125.629,423.296l2.85,8.13c0.48,1.35,0.87,2.55,1.17,3.75h0.09c0.33-1.2,0.75-2.4,1.23-3.75l2.82-8.13h2.76l-5.7,14.52
		h-2.52l-5.52-14.52H125.629z"/>
	<path d="M151.878,430.436c0,5.37-3.75,7.71-7.23,7.71c-3.9,0-6.959-2.88-6.959-7.47c0-4.83,3.209-7.68,7.2-7.68
		C149.058,422.996,151.878,426.026,151.878,430.436z M140.389,430.586c0,3.18,1.8,5.579,4.38,5.579c2.52,0,4.41-2.369,4.41-5.64
		c0-2.46-1.23-5.55-4.35-5.55C141.739,424.976,140.389,427.855,140.389,430.586z"/>
	<path d="M155.208,416.517h2.64v21.299h-2.64V416.517z"/>
	<path d="M174.438,433.825c0,1.53,0.03,2.851,0.12,3.99h-2.34l-0.15-2.37h-0.06c-0.66,1.17-2.22,2.7-4.8,2.7
		c-2.28,0-5.01-1.29-5.01-6.359v-8.49h2.64v8.01c0,2.76,0.87,4.649,3.24,4.649c1.77,0,3-1.229,3.48-2.43
		c0.15-0.359,0.24-0.84,0.24-1.35v-8.88h2.64V433.825z"/>
	<path d="M178.818,427.226c0-1.529-0.06-2.729-0.12-3.93h2.31l0.12,2.37h0.09c0.81-1.38,2.16-2.67,4.59-2.67
		c1.95,0,3.45,1.2,4.08,2.91h0.06c0.45-0.84,1.05-1.44,1.65-1.891c0.87-0.659,1.8-1.02,3.18-1.02c1.95,0,4.8,1.26,4.8,6.3v8.52
		h-2.58v-8.189c0-2.82-1.05-4.47-3.15-4.47c-1.53,0-2.67,1.109-3.15,2.369c-0.12,0.391-0.21,0.841-0.21,1.32v8.97h-2.58v-8.699
		c0-2.311-1.02-3.96-3.03-3.96c-1.62,0-2.85,1.319-3.27,2.64c-0.15,0.36-0.21,0.84-0.21,1.29v8.729h-2.58V427.226z"/>
	<path d="M205.308,431.036c0.06,3.569,2.31,5.039,4.98,5.039c1.89,0,3.06-0.33,4.02-0.75l0.48,1.891c-0.93,0.42-2.55,0.93-4.86,0.93
		c-4.47,0-7.14-2.97-7.14-7.35s2.58-7.8,6.81-7.8c4.77,0,6,4.14,6,6.81c0,0.54-0.03,0.93-0.09,1.23H205.308z M213.048,429.146
		c0.03-1.649-0.69-4.26-3.66-4.26c-2.7,0-3.84,2.43-4.05,4.26H213.048z"/>
	<path d="M238.367,430.436c0,5.37-3.75,7.71-7.23,7.71c-3.9,0-6.959-2.88-6.959-7.47c0-4.83,3.209-7.68,7.2-7.68
		C235.547,422.996,238.367,426.026,238.367,430.436z M226.877,430.586c0,3.18,1.8,5.579,4.38,5.579c2.52,0,4.41-2.369,4.41-5.64
		c0-2.46-1.23-5.55-4.35-5.55C228.228,424.976,226.877,427.855,226.877,430.586z"/>
	<path d="M241.968,437.815v-12.51h-2.01v-2.01h2.01v-0.689c0-2.04,0.48-3.9,1.68-5.07c0.99-0.96,2.31-1.35,3.54-1.35
		c0.96,0,1.74,0.21,2.25,0.42l-0.36,2.04c-0.39-0.181-0.9-0.33-1.68-0.33c-2.25,0-2.82,1.95-2.82,4.199v0.78h3.51v2.01h-3.51v12.51
		H241.968z"/>
	<path d="M256.877,417.597h2.64v18.029h8.64v2.189h-11.279V417.597z"/>
	<path d="M281.176,434.336c0,1.26,0.06,2.489,0.21,3.479h-2.37l-0.21-1.83h-0.09c-0.811,1.14-2.37,2.16-4.439,2.16
		c-2.94,0-4.44-2.07-4.44-4.17c0-3.51,3.12-5.43,8.729-5.399v-0.301c0-1.17-0.33-3.359-3.299-3.329c-1.381,0-2.791,0.39-3.811,1.08
		l-0.6-1.771c1.199-0.75,2.969-1.26,4.799-1.26c4.44,0,5.521,3.03,5.521,5.91V434.336z M278.626,430.405
		c-2.881-0.06-6.15,0.45-6.15,3.271c0,1.739,1.141,2.52,2.461,2.52c1.92,0,3.149-1.2,3.569-2.43c0.09-0.3,0.12-0.6,0.12-0.84
		V430.405z"/>
	<path d="M288.046,429.956h0.061c0.359-0.511,0.84-1.141,1.26-1.65l4.289-5.01h3.15l-5.58,5.97l6.391,8.55h-3.24l-4.98-6.96
		l-1.35,1.5v5.46h-2.609v-21.299h2.609V429.956z"/>
	<path d="M300.976,431.036c0.061,3.569,2.311,5.039,4.98,5.039c1.89,0,3.06-0.33,4.02-0.75l0.48,1.891
		c-0.931,0.42-2.551,0.93-4.86,0.93c-4.47,0-7.14-2.97-7.14-7.35s2.58-7.8,6.81-7.8c4.771,0,5.999,4.14,5.999,6.81
		c0,0.54-0.029,0.93-0.09,1.23H300.976z M308.716,429.146c0.029-1.649-0.69-4.26-3.66-4.26c-2.699,0-3.84,2.43-4.05,4.26H308.716z"
		/>
	<path d="M320.656,434.636c1.17,0.75,2.85,1.319,4.649,1.319c2.67,0,4.229-1.409,4.229-3.449c0-1.86-1.08-2.97-3.81-3.99
		c-3.3-1.2-5.339-2.939-5.339-5.76c0-3.149,2.609-5.489,6.539-5.489c2.04,0,3.57,0.479,4.439,0.989l-0.72,2.13
		c-0.63-0.39-1.979-0.96-3.81-0.96c-2.76,0-3.811,1.65-3.811,3.03c0,1.89,1.23,2.82,4.021,3.899c3.419,1.32,5.13,2.971,5.13,5.94
		c0,3.119-2.28,5.85-7.05,5.85c-1.95,0-4.08-0.6-5.16-1.32L320.656,434.636z"/>
	<path d="M347.835,433.825c0,1.53,0.029,2.851,0.119,3.99h-2.34l-0.149-2.37h-0.06c-0.66,1.17-2.221,2.7-4.801,2.7
		c-2.279,0-5.01-1.29-5.01-6.359v-8.49h2.641v8.01c0,2.76,0.869,4.649,3.239,4.649c1.771,0,3-1.229,3.479-2.43
		c0.15-0.359,0.24-0.84,0.24-1.35v-8.88h2.641V433.825z"/>
	<path d="M352.215,428.036c0-1.86-0.06-3.36-0.12-4.74h2.34l0.15,2.49h0.06c1.05-1.771,2.79-2.79,5.16-2.79
		c3.54,0,6.18,2.97,6.18,7.35c0,5.22-3.21,7.8-6.63,7.8c-1.92,0-3.6-0.84-4.47-2.28h-0.06v7.89h-2.61V428.036z M354.826,431.905
		c0,0.391,0.029,0.75,0.119,1.08c0.48,1.83,2.07,3.09,3.961,3.09c2.789,0,4.409-2.279,4.409-5.609c0-2.88-1.53-5.37-4.319-5.37
		c-1.801,0-3.51,1.26-3.99,3.24c-0.09,0.33-0.18,0.72-0.18,1.05V431.905z"/>
	<path d="M370.755,431.036c0.06,3.569,2.31,5.039,4.979,5.039c1.89,0,3.06-0.33,4.021-0.75l0.479,1.891
		c-0.931,0.42-2.55,0.93-4.86,0.93c-4.469,0-7.139-2.97-7.139-7.35s2.579-7.8,6.809-7.8c4.77,0,6,4.14,6,6.81
		c0,0.54-0.029,0.93-0.09,1.23H370.755z M378.495,429.146c0.03-1.649-0.69-4.26-3.659-4.26c-2.701,0-3.84,2.43-4.051,4.26H378.495z"
		/>
	<path d="M384.315,427.826c0-1.71-0.03-3.181-0.12-4.53h2.311l0.119,2.88h0.09c0.66-1.95,2.28-3.18,4.051-3.18
		c0.27,0,0.479,0.03,0.719,0.06v2.49c-0.27-0.06-0.539-0.06-0.899-0.06c-1.86,0-3.18,1.38-3.54,3.359
		c-0.06,0.36-0.09,0.81-0.09,1.23v7.739h-2.64V427.826z"/>
	<path d="M397.185,419.216c0,0.9-0.631,1.62-1.681,1.62c-0.96,0-1.59-0.72-1.59-1.62c0-0.899,0.66-1.649,1.649-1.649
		C396.525,417.566,397.185,418.286,397.185,419.216z M394.245,437.815v-14.52h2.64v14.52H394.245z"/>
	<path d="M414.404,430.436c0,5.37-3.75,7.71-7.23,7.71c-3.899,0-6.959-2.88-6.959-7.47c0-4.83,3.209-7.68,7.199-7.68
		C411.583,422.996,414.404,426.026,414.404,430.436z M402.914,430.586c0,3.18,1.801,5.579,4.381,5.579
		c2.52,0,4.409-2.369,4.409-5.64c0-2.46-1.229-5.55-4.35-5.55C404.264,424.976,402.914,427.855,402.914,430.586z"/>
	<path d="M417.734,427.826c0-1.71-0.029-3.181-0.119-4.53h2.31l0.12,2.88h0.09c0.66-1.95,2.279-3.18,4.05-3.18
		c0.271,0,0.479,0.03,0.72,0.06v2.49c-0.27-0.06-0.539-0.06-0.9-0.06c-1.859,0-3.18,1.38-3.539,3.359
		c-0.061,0.36-0.09,0.81-0.09,1.23v7.739h-2.641V427.826z"/>
</g>
<rect x="189.037" y="313.761" fill="none" width="284.21" height="50.877"/>
<g enable-background="new    ">
	<path d="M224.919,359.86V348.56c-1.3,1.15-3.05,2.2-5.55,2.2c-5.6,0-10.201-4.2-10.201-14.001c0-7.851,3.7-13.351,10.201-13.351
		c2.3,0,4.3,0.9,5.55,2.05v-1.5h6.9v32.452L224.919,359.86z M224.919,332.159c-1.05-1.45-2.65-2.25-4.65-2.25
		c-2.65,0-4.1,2.3-4.1,6.7c0,5.4,1.8,7.65,4.5,7.65c2.15,0,3.25-0.9,4.25-2.2V332.159z"/>
	<path d="M254.219,350.21v-1.75c-1.2,1.25-3.4,2.3-6.15,2.3c-6.7,0-9.701-4.6-9.701-12.001v-14.801h6.9v14.201
		c0,4.7,1.6,6.101,4.45,6.101c2.851,0,4.5-1.4,4.5-5.95v-14.352h6.9v26.252H254.219z"/>
	<path d="M282.269,350.21v-1.75c-1.25,1.3-3.45,2.3-5.9,2.3c-4.9,0-9.801-3-9.801-9.351c0-5.8,4.7-8.7,10.65-8.7
		c2.4,0,3.951,0.5,5.051,1.05v-1.3c0-1.851-1.25-3.351-3.75-3.351c-3.15,0-4.801,0.45-7.201,1.75l-2.65-4.8
		c3.05-1.75,5.601-2.65,9.851-2.65c6.35,0,10.65,3.301,10.65,9.2v17.602H282.269z M282.269,339.209c-1.2-0.75-2.35-1.1-4.801-1.1
		c-2.6,0-4,1.2-4,3.3c0,1.851,1.051,3.5,4,3.5c2.25,0,4.051-1.149,4.801-2.399V339.209z"/>
	<path d="M310.019,350.21v-1.65c-1.301,1.15-3.051,2.2-5.551,2.2c-5.6,0-10.201-4.2-10.201-14.001
		c0-7.851,3.701-13.351,10.201-13.351c2.301,0,4.301,0.9,5.551,2.05v-8.25l6.9-3.45v36.452H310.019z M310.019,332.159
		c-1.051-1.45-2.65-2.25-4.65-2.25c-2.65,0-4.101,2.3-4.101,6.7c0,5.4,1.8,7.65,4.501,7.65c2.149,0,3.25-0.9,4.25-2.2V332.159z"/>
	<path d="M339.069,332.009c-1.101-1-2.45-1.7-4.001-1.7c-2.699,0-4.449,1.15-4.449,5.7v14.201h-6.9v-26.252h6.9v1.75
		c1.199-1.25,2.949-2.3,5.4-2.3c2.25,0,3.949,0.9,4.85,1.851L339.069,332.009z"/>
	<path d="M348.818,321.809c-2.15,0-3.951-1.801-3.951-3.95c0-2.15,1.801-3.95,3.951-3.95s3.949,1.8,3.949,3.95
		C352.767,320.008,350.968,321.809,348.818,321.809z M345.367,350.21v-26.252h6.9v26.252H345.367z"/>
	<path d="M359.467,350.21v-33.002l6.9-3.45v36.452H359.467z"/>
	<path d="M373.567,350.21v-33.002l6.9-3.45v36.452H373.567z"/>
	<path d="M391.117,321.809c-2.149,0-3.949-1.801-3.949-3.95c0-2.15,1.8-3.95,3.949-3.95c2.15,0,3.951,1.8,3.951,3.95
		C395.068,320.008,393.267,321.809,391.117,321.809z M387.667,350.21v-26.252h6.9v26.252H387.667z"/>
	<path d="M412.018,350.76c-6.851,0-11.851-5.601-11.851-13.65c0-8.051,5-13.701,11.851-13.701s11.9,5.65,11.9,13.701
		C423.918,345.159,418.869,350.76,412.018,350.76z M412.018,330.059c-3.3,0-4.851,3-4.851,7.051c0,4.05,1.551,7,4.851,7
		s4.899-3.35,4.899-7C416.917,333.109,415.318,330.059,412.018,330.059z"/>
	<path d="M445.118,350.21v-14.201c0-4.7-1.601-6.1-4.45-6.1s-4.5,1.399-4.5,5.95v14.351h-6.9v-26.252h6.9v1.75
		c1.199-1.25,3.4-2.3,6.15-2.3c6.7,0,9.7,4.601,9.7,12.001v14.801H445.118z"/>
</g>
<path fill="#19162B" d="M329.625,515.781l-6.254,4.376l1.25-4.376l-9.067,2.188l-12.507-2.188l-8.442-4.066l-19.073-5.939
	l-2.816-3.128l-5.628,1.876l-2.814,1.878l2.188,5.002l3.804,1.25l9.331-1.25l5.628,1.563l3.754,2.814l-5.004,1.562l-8.132-1.562
	l-4.062,4.376l-5.629,4.064h-4.691l3.128,4.38l-5.63,1.873v-2.5l-5.316,6.881l-1.874-2.19l7.816-10.319l1.876-5.629l-0.938-3.75
	c0,0-0.938-2.504-2.502-2.504c-1.563,0-6.252,4.691-6.252,4.691l2.188,5.003l-2.188,5.314l-2.504,2.814v2.188
	c0,0,0.939,0.313,0,1.565c-0.937,1.248-1.25,4.377-1.874,5.314c-0.626,0.938-4.69,2.813-4.69,2.813h-4.378l7.818-12.822
	l-5.942,0.939c0,0-4.69,2.188-5.628,2.502c-0.94,0.312-4.692,0.938-4.692,0.938s-1.25,6.564,0,8.441c0,0-1.562,3.441-2.5,3.752
	c-0.94,0.313-1.564,5.004-1.564,5.004l-1.563,4.376l-6.254,3.44l-4.379,2.502l-5.628,3.752l-13.13,5.629
	c0,0-25.331,2.815-43.153,26.269l-15.634,14.383l-17.511,11.259c0,0-2.188,5.312,5.002,7.189l19.386-4.377
	c0,0,7.192-1.564,9.38-2.188c2.19-0.624,7.192-3.129,7.192-3.129l6.568-3.438l4.064,2.188l0.624,5.003c0,0-3.438,3.438-4.064,4.38
	c-0.624,0.936-3.438,4.688-3.438,4.688h-3.44l1.25,5.002l7.504-1.562l1.878-3.439l5.628,5.003h7.192c0,0,13.445-3.438,14.384-3.75
	c0.937-0.312,3.75-8.132,14.07-7.818l3.126-1.25h5.003l9.693-5.94c0,0,2.814-2.502,3.753-2.502c0.938,0,5.939-1.252,5.939-1.252
	l1.878-4.063l5.314-5.316l7.192-4.062l4.692-5.63l6.563-3.754c0,0,11.885-3.128,12.82-3.128c0.939,0,5.004,0.626,5.004,0.626
	s2.813,2.188,1.877,2.502c-0.938,0.312-5.316,1.876-7.504,3.129c-2.19,1.252-5.842,4.377-6.83,6.255
	c-0.988,1.874-8.181,10.004-8.181,10.004s-2.5,3.439-3.126,5.004c-0.624,1.562-3.126,5.315-3.126,6.565
	c0,1.252-0.312,6.881-0.312,6.881s4.064-3.755,4.376-5.002c0.314-1.253,2.502-3.129,3.44-4.066c0.938-0.938,5.004-3.441,5.004-3.441
	l-0.938,4.381c0,0,9.691-0.312,11.568,0c1.875,0.313,8.443,3.438,8.443,3.438l2.813,3.128l2.188,4.69c0,0,3.125,4.062,4.062,4.376
	c0.939,0.312,1.25,4.691,1.25,4.691s2.814-0.938,3.755,0c0.938,0.938,3.438-0.312,4.688,0c1.25,0.312,4.064-1.563,5.316-1.563
	c1.25,0,2.502-0.228,3.128,1.92c0.624,2.146,3.438,4.96,3.438,4.96l3.752-2.5l1.563-4.694l4.376,1.566l1.879,1.562l14.381-10.005
	l4.066,1.248c0,0,9.38-1.248,11.57-1.874c2.188-0.626,10.007-0.938,10.941-0.626c0.94,0.312,4.066-1.562,7.192-2.502
	c3.128-0.938,7.506-1.874,9.382-1.874c1.874,0,4.378-0.94,4.378-0.94s-1.878,8.442-1.878,9.384c0,0.936,1.878,6.252,1.878,6.252
	s1.875-0.624,4.063-0.624c2.189,0,5.316-0.938,6.254-1.566c0.939-0.624,2.502-0.624,3.754-2.812c1.25-2.188,3.125-6.253,3.125-6.253
	l3.439-4.063l-6.877,2.813l-0.314-4.691c0,0,0-3.75,1.564-3.75c1.562,0,5.627,1.25,5.627,1.25s3.754-5.318-2.502-6.255
	c-6.254-0.938-6.254-0.938-6.254-0.938l-5.939-1.563l-1.563-2.813l3.753-4.379c0,0,1.875-3.438,1.875-4.378c0-0.936,0-3.438,0-4.688
	c0-1.249-4.375-7.506-4.375-7.506l-4.691-5.628l-6.879-4.378c0,0-1.252-2.375-0.312-4.472c0.938-2.093,1.25-3.347,2.188-5.847
	c0.938-2.502,0.627-6.254,0.627-6.254l4.689-3.44l-18.137,0.938l-5.939,2.503c0,0-14.699,0.938-23.453-10.945l-1.563-6.254
	c0,0-0.938-2.813-1.563-5.002s-3.127-7.506-3.752-8.756c-0.627-1.25-3.127-7.816-3.439-9.068c-0.312-1.25-2.188-3.438-2.188-3.438
	L329.625,515.781z"/>
</svg>
