<?xml version="1.0" encoding="utf-8"?>
<!-- Generator: Adobe Illustrator 15.1.0, SVG Export Plug-In . SVG Version: 6.00 Build 0)  -->
<!DOCTYPE svg PUBLIC "-//W3C//DTD SVG 1.1//EN" "http://www.w3.org/Graphics/SVG/1.1/DTD/svg11.dtd">
<svg version="1.1" id="Layer_1" xmlns="http://www.w3.org/2000/svg" xmlns:xlink="http://www.w3.org/1999/xlink" x="0px" y="0px"
	 width="343px" height="490.688px" viewBox="0 0 343 490.688" enable-background="new 0 0 343 490.688" xml:space="preserve">
<g id="_x32_vb4RQ_1_">
	<g>
		<path fill-rule="evenodd" clip-rule="evenodd" d="M-276.257-58.981c23.792,9.686,52.686,23.214,74.07,37.212
			c22.432,14.705,24.854,64.555,30.947,88.476c8.312,32.458,16.896,64.773,26.078,97c17.141,59.99,22.812,128.293-4.87,186.285
			c-11.372,23.873-49.966,33.164-75.199,39.041c-13.399,3.102-26.948,4.244-40.688,3.482c-8.257-3.102-20.119-28.88-31.573-16.514
			c-27.866,30.049-52.305,15.072-89.055,7.427c-28.737-5.985-52.781-3.972-70.452-29.914
			c-31.655-46.482-22.554-116.295-19.922-168.628c2.789-55.467-2.748-147.875,46.51-183.741
			c25.962-18.895,69.623-37.641,77.302-67.48c4.632-17.956-6.625-27.771,15.997-31.594c18.032-3.033,37.158-1.51,55.128,1.129
			C-281.087-93.146-275.632-59.927-276.257-58.981z M-245.31,62.483c3.578,19.154,4.652,54.074,25.262,64.629
			c27.139,13.923,16.937-56.712,15.386-65.936c-3.062-18.038-6.721-48.115-22.323-60.569
			C-261.865-3.139-248.888,43.473-245.31,62.483C-242.113,79.63-250.575,34.488-245.31,62.483z"/>
	</g>
</g>
<text transform="matrix(1 0 0 1 -428.8071 228.5952)" fill="#F5F5F5" font-family="'Interstate-Bold'" font-size="54.9149">12 Billion</text>
<g>
	<path fill="#6ABDC4" d="M335.013,267.629c-0.024-0.229-0.053-0.412-0.086-0.53c-8.421-49.937-42.696-151.74-45.568-166.532
		c-3.783-19.481-14.941-22.696-14.941-22.696l-75.002-34.903c0.589-1.641,2.268-7.335-0.068-12.953
		c-0.92-2.213-2.469-4.41-4.948-6.347c-5.104,0.366-16.729,1.052-32.227,1.052c-15.063,0-27.143-0.648-32.844-1.021
		c-0.134,0.38-0.289,0.673-0.466,0.856c-1.751,1.795-3.108,3.504-3.908,5.347c-1.874,4.318-1.315,8.699-0.68,11.266
		c0.349,1.415,0.454,2.548-0.063,3.037c-1.531,1.447-5.265,4.824-10.848,8.889c-9.305,6.772-77.787,54.709-83.127,59.579
		C5.836,126.857,2.158,281.47,1.865,294.533c-2.837,112.633,12.483,141.003,14.941,145.922
		c7.188,22.883,40.478,33.025,59.961,37.026c15.379,3.157,33.03,6.673,47.91,9.562c17.661,3.429,39.823,4.896,50.252-9.52
		c5.755-7.954,12.352-11.857,18.915-6.051c21.156,18.716,34.988,18.534,62.225,11.725c11.86-2.963,52.203-15.888,64.119-21.938
		C324.154,458.047,355.463,389.627,335.013,267.629z M263.078,228.849c-9.132,3.204-20.805-18.914-20.805-18.914
		c-6.334-24.628-12.542-63.229-13.24-82.087c-0.756-20.427,9.458-21.941,9.458-21.94c0,0,12.861-8.7,21.562,9.079
		C268.754,132.766,284.64,221.284,263.078,228.849z"/>
	<path d="M194.398,23.667c-0.114-0.089-0.555-19.325-0.555-19.325c-0.568-0.567-2.081-4.493-31.966-4.493
		c-31.576,0-31.965,8.228-31.965,8.228s0.709,11.932-0.585,15.621c1.547,0.489,4.672,4.021,32.844,4.021
		C188.5,27.72,187.25,25.938,194.398,23.667z"/>
</g>
<g>
	<path d="M-495.524,502.74c-5.354,0-10.148-2.091-14.125-6.833l5.406-4.386c2.958,3.111,5.762,4.232,9.383,4.232
		c4.691,0,6.884-1.683,6.884-4.538c0-2.754-1.887-4.08-5.252-4.08h-4.232v-6.986h3.825c2.958,0,4.181-1.274,4.181-3.62
		c0-1.836-1.479-3.621-5.966-3.621c-2.753,0-4.998,0.97-6.986,3.009l-5.201-4.742c3.417-3.57,6.986-5.252,12.29-5.252
		c7.292,0,13.106,3.365,13.106,10.097c0,3.875-2.04,6.221-4.131,7.292c2.295,0.867,5.609,3.11,5.609,7.803
		C-480.736,498.814-486.651,502.74-495.524,502.74z"/>
	<path d="M-476.398,502.179c0.204-12.239,7.7-17.542,16.42-21.367c3.06-1.325,4.029-2.753,4.029-4.283
		c0-1.836-1.581-3.621-5.864-3.621c-4.233,0-7.649,1.888-10.148,4.284l-4.59-5.354c3.774-3.825,8.822-5.915,14.483-5.915
		c8.465,0,13.258,3.416,13.258,10.249c0,5.763-3.11,8.262-9.179,11.066c-6.323,2.906-8.771,5.304-9.434,8.057h18.97v6.885H-476.398z
		"/>
	<path d="M-429.581,502.74c-5.15,0-9.434-1.02-13.922-3.824l3.468-6.068c3.315,1.887,6.833,3.009,10.454,3.009
		c4.844,0,7.649-2.04,7.649-5.864c0-3.723-2.703-5.304-6.068-5.304c-3.212,0-5.354,0.969-7.037,2.142l-6.782-2.499l1.224-17.848
		h23.764v6.884h-17.185l-0.408,6.171c1.989-1.071,4.131-1.632,7.497-1.632c8.006,0,12.238,5.1,12.238,11.831
		C-414.69,498.303-420.81,502.74-429.581,502.74z"/>
	<path d="M-377.562,473.52v28.659h-7.139V473.52h-10.25v-7.037h27.639v7.037H-377.562z"/>
	<path d="M-350.276,483.617c-1.122-1.02-2.499-1.733-4.08-1.733c-2.754,0-4.538,1.173-4.538,5.813v14.482h-7.038v-26.772h7.038
		v1.785c1.224-1.275,3.009-2.346,5.507-2.346c2.295,0,4.029,0.918,4.947,1.887L-350.276,483.617z"/>
	<path d="M-340.33,473.214c-2.193,0-4.028-1.836-4.028-4.028c0-2.193,1.835-4.029,4.028-4.029c2.192,0,4.028,1.836,4.028,4.029
		C-336.302,471.378-338.138,473.214-340.33,473.214z M-343.849,502.179v-26.772h7.037v26.772H-343.849z"/>
	<path d="M-329.467,502.179v-33.657l7.037-3.518v37.175H-329.467z"/>
	<path d="M-315.085,502.179v-33.657l7.037-3.518v37.175H-315.085z"/>
	<path d="M-297.185,473.214c-2.193,0-4.028-1.836-4.028-4.028c0-2.193,1.835-4.029,4.028-4.029c2.192,0,4.028,1.836,4.028,4.029
		C-293.156,471.378-294.992,473.214-297.185,473.214z M-300.703,502.179v-26.772h7.037v26.772H-300.703z"/>
	<path d="M-275.867,502.74c-6.986,0-12.086-5.711-12.086-13.921c0-8.211,5.1-13.973,12.086-13.973s12.137,5.762,12.137,13.973
		C-263.73,497.029-268.881,502.74-275.867,502.74z M-275.867,481.628c-3.366,0-4.947,3.06-4.947,7.19
		c0,4.13,1.581,7.139,4.947,7.139c3.365,0,4.997-3.416,4.997-7.139C-270.87,484.739-272.502,481.628-275.867,481.628z"/>
	<path d="M-242.106,502.179v-14.482c0-4.794-1.632-6.222-4.538-6.222c-2.907,0-4.59,1.428-4.59,6.068v14.636h-7.037v-26.772h7.037
		v1.785c1.224-1.275,3.468-2.346,6.272-2.346c6.833,0,9.893,4.691,9.893,12.238v15.095H-242.106z"/>
	<path d="M-481.453,574.375c-10.91,0-18.243-8.347-18.243-21.521c0-12.698,7.631-21.521,18.541-21.521
		c8.525,0,13.056,3.994,15.798,10.433l-7.929,3.278c-1.55-3.1-3.458-5.425-7.988-5.425c-6.26,0-9.837,5.485-9.837,13.235
		c0,7.69,3.637,13.354,9.896,13.354c5.723,0,7.69-2.683,8.167-6.319h-6.618v-7.81h14.964v5.484
		C-464.701,568.294-471.795,574.375-481.453,574.375z"/>
	<path d="M-433.76,573.719l-3.279-9.3h-15.262l-3.279,9.3h-8.942l15.977-41.731h8.108l15.858,41.731H-433.76z M-442.583,548.918
		c-0.834-2.443-1.669-4.947-2.086-6.498c-0.417,1.551-1.252,4.055-2.086,6.498l-2.683,7.571h9.539L-442.583,548.918z"/>
	<path d="M-420.406,573.719v-41.731h8.347v33.505h20.925v8.227H-420.406z"/>
	<path d="M-387.021,573.719v-41.731h8.347v33.505h20.925v8.227H-387.021z"/>
	<path d="M-336.824,574.375c-10.91,0-18.362-7.989-18.362-21.462c0-13.474,7.571-21.581,18.481-21.581
		c10.85,0,18.302,7.988,18.302,21.462C-318.403,566.267-325.975,574.375-336.824,574.375z M-336.884,539.619
		c-5.843,0-9.718,4.71-9.718,13.176c0,8.465,4.054,13.294,9.896,13.294s9.718-4.71,9.718-13.175
		C-326.987,544.448-331.042,539.619-336.884,539.619z"/>
	<path d="M-287.224,573.719l-15.321-22.773c-1.014-1.55-2.385-3.637-2.921-4.71c0,1.551,0.119,6.797,0.119,9.122v18.361h-8.228
		v-41.731h7.989l14.784,22.059c1.014,1.55,2.385,3.636,2.921,4.709c0-1.55-0.119-6.796-0.119-9.121v-17.646h8.228v41.731H-287.224z"
		/>
	<path d="M-259.622,574.375c-6.975,0-13.056-2.922-16.215-7.571l6.021-5.366c2.922,3.398,6.678,4.77,10.672,4.77
		c4.948,0,7.272-1.371,7.272-4.53c0-2.684-1.431-3.876-9.3-5.664c-7.69-1.788-13.056-4.232-13.056-12.46
		c0-7.571,6.677-12.221,14.904-12.221c6.498,0,11.267,2.444,15.202,6.558l-6.021,5.842c-2.683-2.742-5.664-4.292-9.479-4.292
		c-4.471,0-5.961,1.908-5.961,3.756c0,2.623,1.788,3.458,8.405,5.008c6.618,1.55,13.95,3.815,13.95,12.877
		C-243.228,569.009-248.235,574.375-259.622,574.375z"/>
</g>
</svg>
