<?xml version="1.0" encoding="utf-8"?>
<!-- Generator: Adobe Illustrator 15.1.0, SVG Export Plug-In . SVG Version: 6.00 Build 0)  -->
<!DOCTYPE svg PUBLIC "-//W3C//DTD SVG 1.1//EN" "http://www.w3.org/Graphics/SVG/1.1/DTD/svg11.dtd">
<svg version="1.1" id="Layer_1" xmlns="http://www.w3.org/2000/svg" xmlns:xlink="http://www.w3.org/1999/xlink" x="0px" y="0px"
	 width="351.063px" height="495.036px" viewBox="0 0 351.063 495.036" enable-background="new 0 0 351.063 495.036"
	 xml:space="preserve">
<g id="_x32_vb4RQ_1_">
	<g>
		<path fill-rule="evenodd" clip-rule="evenodd" d="M205.034,41.514c23.792,9.686,52.686,23.214,74.07,37.212
			c22.432,14.705,24.854,64.555,30.947,88.476c8.312,32.458,16.896,64.773,26.078,97c17.141,59.99,22.812,128.293-4.87,186.285
			c-11.372,23.873-49.966,33.164-75.199,39.041c-13.399,3.102-26.948,4.244-40.688,3.482c-8.257-3.102-20.119-28.88-31.573-16.514
			c-27.866,30.049-52.305,15.072-89.055,7.427c-28.737-5.985-52.781-3.972-70.452-29.914C-7.363,407.527,1.738,337.714,4.37,285.381
			c2.789-55.467-2.748-147.875,46.51-183.741C76.842,82.746,120.502,64,128.182,34.161c4.632-17.956-6.625-27.771,15.997-31.594
			c18.032-3.033,37.158-1.51,55.128,1.129C200.204,7.349,205.659,40.568,205.034,41.514z M235.981,162.979
			c3.578,19.154,4.652,54.074,25.262,64.629c27.139,13.923,16.937-56.712,15.386-65.936c-3.062-18.038-6.721-48.115-22.323-60.569
			C219.427,97.356,232.403,143.968,235.981,162.979C239.179,180.125,230.717,134.983,235.981,162.979z"/>
	</g>
</g>
</svg>
