<?xml version="1.0" encoding="utf-8"?>
<!-- Generator: Adobe Illustrator 15.1.0, SVG Export Plug-In . SVG Version: 6.00 Build 0)  -->
<!DOCTYPE svg PUBLIC "-//W3C//DTD SVG 1.1//EN" "http://www.w3.org/Graphics/SVG/1.1/DTD/svg11.dtd">
<svg version="1.1" id="Layer_1" xmlns="http://www.w3.org/2000/svg" xmlns:xlink="http://www.w3.org/1999/xlink" x="0px" y="0px"
	 width="343px" height="490.688px" viewBox="0 0 343 490.688" enable-background="new 0 0 343 490.688" xml:space="preserve">
<g>
	<path fill="#6ABDC4" d="M335.013,267.629c-0.023-0.229-0.053-0.412-0.086-0.529c-8.421-49.938-42.696-151.741-45.567-166.533
		c-3.783-19.481-14.941-22.696-14.941-22.696l-75.002-34.903c0.589-1.641,2.268-7.335-0.068-12.953
		c-0.92-2.213-2.469-4.41-4.947-6.347c-5.104,0.366-16.729,1.052-32.228,1.052c-15.063,0-27.143-0.648-32.844-1.021
		c-0.134,0.38-3.574,4.36-4.374,6.203c-1.874,4.318-1.315,8.699-0.68,11.266c0.349,1.415,0.454,2.548-0.063,3.037
		c-1.531,1.447-5.265,4.824-10.848,8.889c-9.305,6.772-77.787,54.709-83.127,59.579C5.836,126.857,2.158,281.471,1.865,294.533
		c-2.837,112.633,12.483,141.003,14.941,145.922c8.569,22.607,40.478,33.025,59.961,37.026c15.379,3.156,33.03,6.673,47.91,9.562
		c17.661,3.429,39.823,4.896,50.253-9.52c5.754-7.954,12.352-11.857,18.914-6.052c21.156,18.717,34.988,18.534,62.225,11.726
		c11.861-2.963,52.204-15.889,64.119-21.938C324.154,458.047,355.463,389.627,335.013,267.629z M263.078,228.849
		c-9.133,3.204-20.805-18.914-20.805-18.914c-6.334-24.628-12.543-63.229-13.24-82.087c-0.756-20.427,9.458-21.941,9.458-21.94
		c0,0,12.86-8.7,21.562,9.079C268.754,132.766,284.641,221.284,263.078,228.849z"/>
	<path d="M194.398,23.667c-0.114-0.089-0.556-19.325-0.556-19.325c-0.567-0.567-2.081-4.493-31.966-4.493
		c-31.576,0-31.965,8.228-31.965,8.228s0.709,11.932-0.585,15.621c1.547,0.489,4.672,4.021,32.844,4.021
		C188.5,27.72,187.25,25.938,194.398,23.667z"/>
</g>
</svg>
