<?xml version="1.0" encoding="utf-8"?>
<!-- Generator: Adobe Illustrator 15.1.0, SVG Export Plug-In . SVG Version: 6.00 Build 0)  -->
<!DOCTYPE svg PUBLIC "-//W3C//DTD SVG 1.1//EN" "http://www.w3.org/Graphics/SVG/1.1/DTD/svg11.dtd">
<svg version="1.1" id="Layer_1" xmlns="http://www.w3.org/2000/svg" xmlns:xlink="http://www.w3.org/1999/xlink" x="0px" y="0px"
	 width="343px" height="490.688px" viewBox="0 0 343 490.688" enable-background="new 0 0 343 490.688" xml:space="preserve">
<g id="_x32_vb4RQ_1_">
	<g>
		<path fill-rule="evenodd" clip-rule="evenodd" d="M-276.257-58.981c23.792,9.686,52.686,23.214,74.07,37.212
			c22.432,14.705,24.854,64.555,30.947,88.476c8.312,32.458,16.896,64.773,26.078,97c17.141,59.99,22.812,128.293-4.87,186.285
			c-11.372,23.873-49.966,33.164-75.199,39.041c-13.399,3.102-26.948,4.244-40.688,3.482c-8.257-3.102-20.119-28.88-31.573-16.514
			c-27.866,30.049-52.305,15.072-89.055,7.427c-28.737-5.985-52.781-3.972-70.452-29.914
			c-31.655-46.482-22.554-116.295-19.922-168.628c2.789-55.467-2.748-147.875,46.51-183.741
			c25.962-18.895,69.623-37.641,77.302-67.48c4.632-17.956-6.625-27.771,15.997-31.594c18.032-3.033,37.158-1.51,55.128,1.129
			C-281.087-93.146-275.632-59.927-276.257-58.981z M-245.31,62.483c3.578,19.154,4.652,54.074,25.262,64.629
			c27.139,13.923,16.937-56.712,15.386-65.936c-3.062-18.038-6.721-48.115-22.323-60.569
			C-261.865-3.139-248.888,43.473-245.31,62.483C-242.113,79.63-250.575,34.488-245.31,62.483z"/>
	</g>
</g>
<text transform="matrix(1 0 0 1 -428.8071 228.5952)" fill="#F5F5F5" font-family="'Interstate-Bold'" font-size="54.9149">12 Billion</text>
<g>
	<path fill="#6ABDC4" d="M335.013,267.629c-0.024-0.229-0.053-0.412-0.086-0.53c-8.421-49.937-42.696-151.74-45.568-166.532
		c-3.783-19.481-14.941-22.696-14.941-22.696l-75.002-34.903c0.589-1.641,2.268-7.335-0.068-12.953
		c-0.92-2.213-2.469-4.41-4.948-6.347c-5.104,0.366-16.729,1.052-32.227,1.052c-15.063,0-27.143-0.648-32.844-1.021
		c-0.134,0.38-0.289,0.673-0.466,0.856c-1.751,1.795-3.108,3.504-3.908,5.347c-1.874,4.318-1.315,8.699-0.68,11.266
		c0.349,1.415,0.454,2.548-0.063,3.037c-1.531,1.447-5.265,4.824-10.848,8.889c-9.305,6.772-77.787,54.709-83.127,59.579
		C5.836,126.857,2.158,281.47,1.865,294.533c-2.837,112.633,12.483,141.003,14.941,145.922
		c7.188,22.883,40.478,33.025,59.961,37.026c15.379,3.157,33.03,6.673,47.91,9.562c17.661,3.429,39.823,4.896,50.252-9.52
		c5.755-7.954,12.352-11.857,18.915-6.051c21.156,18.716,34.988,18.534,62.225,11.725c11.86-2.963,52.203-15.888,64.119-21.938
		C324.154,458.047,355.463,389.627,335.013,267.629z M263.078,228.849c-9.132,3.204-20.805-18.914-20.805-18.914
		c-6.334-24.628-12.542-63.229-13.24-82.087c-0.756-20.427,9.458-21.941,9.458-21.94c0,0,12.861-8.7,21.562,9.079
		C268.754,132.766,284.64,221.284,263.078,228.849z"/>
	<path d="M194.398,23.667c-0.114-0.089-0.555-19.325-0.555-19.325c-0.568-0.567-2.081-4.493-31.966-4.493
		c-31.576,0-31.965,8.228-31.965,8.228s0.709,11.932-0.585,15.621c1.547,0.489,4.672,4.021,32.844,4.021
		C188.5,27.72,187.25,25.938,194.398,23.667z"/>
</g>
<text transform="matrix(1 0 0 1 23.752 277.8179)"><tspan x="0" y="0" font-family="'Interstate-Bold'" font-size="51">325 Trillion</tspan><tspan x="11.587" y="71.54" font-family="'Interstate-Bold'" font-size="59.6166" letter-spacing="-5">G</tspan><tspan x="47.536" y="71.54" font-family="'Interstate-Bold'" font-size="59.6166" letter-spacing="-3">AL</tspan><tspan x="122.056" y="71.54" font-family="'Interstate-Bold'" font-size="59.6166" letter-spacing="-2">L</tspan><tspan x="156.216" y="71.54" font-family="'Interstate-Bold'" font-size="59.6166" letter-spacing="-3">O</tspan><tspan x="195.503" y="71.54" font-family="'Interstate-Bold'" font-size="59.6166" letter-spacing="-4">N</tspan><tspan x="235.267" y="71.54" font-family="'Interstate-Bold'" font-size="59.6166">S</tspan></text>
</svg>
