<?xml version="1.0" encoding="utf-8"?>
<!-- Generator: Adobe Illustrator 15.1.0, SVG Export Plug-In . SVG Version: 6.00 Build 0)  -->
<!DOCTYPE svg PUBLIC "-//W3C//DTD SVG 1.1//EN" "http://www.w3.org/Graphics/SVG/1.1/DTD/svg11.dtd">
<svg version="1.1" id="Layer_1" xmlns="http://www.w3.org/2000/svg" xmlns:xlink="http://www.w3.org/1999/xlink" x="0px" y="0px"
	 width="536.378px" height="780.521px" viewBox="0 0 536.378 780.521" enable-background="new 0 0 536.378 780.521"
	 xml:space="preserve">
<rect x="133.958" y="208.402" fill="none" width="380.723" height="115.885"/>
<g enable-background="new    ">
	<path d="M216.095,317.751v-75.896h-18v-15.45c11.7-0.6,19.35-4.949,21.449-13.649h17.399v104.996H216.095z"/>
	<path d="M301.443,319.401c-28.648,0-43.948-22.199-43.948-54.148c0-31.948,15.45-54.147,44.099-54.147s44.098,21.899,44.098,53.848
		S330.091,319.401,301.443,319.401z M301.443,231.654c-16.049,0-22.648,14.55-22.648,33.299s6.749,33.898,22.799,33.898
		c16.049,0,22.799-14.85,22.799-33.599S317.492,231.654,301.443,231.654z"/>
	<path d="M404.641,319.401c-28.649,0-43.948-22.199-43.948-54.148c0-31.948,15.449-54.147,44.098-54.147
		c28.649,0,44.1,21.899,44.1,53.848S433.291,319.401,404.641,319.401z M404.641,231.654c-16.05,0-22.649,14.55-22.649,33.299
		s6.75,33.898,22.799,33.898c16.051,0,22.8-14.85,22.8-33.599S420.691,231.654,404.641,231.654z"/>
</g>
<rect x="-19.884" y="397.2" fill="none" width="587.719" height="64.438"/>
<g enable-background="new    ">
	<path d="M71.014,415.021c0,1.26,0.06,2.489,0.21,3.479h-2.37l-0.21-1.83h-0.09c-0.81,1.14-2.37,2.16-4.44,2.16
		c-2.94,0-4.44-2.07-4.44-4.17c0-3.51,3.12-5.43,8.73-5.399v-0.301c0-1.17-0.33-3.359-3.3-3.329c-1.38,0-2.79,0.39-3.81,1.08
		l-0.6-1.771c1.2-0.75,2.97-1.26,4.8-1.26c4.44,0,5.52,3.03,5.52,5.91V415.021z M68.464,411.09c-2.88-0.06-6.15,0.45-6.15,3.271
		c0,1.739,1.14,2.52,2.46,2.52c1.92,0,3.15-1.2,3.57-2.43c0.09-0.3,0.12-0.6,0.12-0.84V411.09z"/>
	<path d="M76.054,403.98l2.85,8.13c0.48,1.35,0.87,2.55,1.17,3.75h0.09c0.33-1.2,0.75-2.4,1.23-3.75l2.82-8.13h2.76l-5.7,14.52
		h-2.52l-5.52-14.52H76.054z"/>
	<path d="M90.633,411.721c0.06,3.569,2.31,5.039,4.98,5.039c1.89,0,3.06-0.33,4.02-0.75l0.48,1.891c-0.93,0.42-2.55,0.93-4.86,0.93
		c-4.47,0-7.14-2.97-7.14-7.35s2.58-7.8,6.81-7.8c4.77,0,6,4.14,6,6.81c0,0.54-0.03,0.93-0.09,1.23H90.633z M98.373,409.83
		c0.03-1.649-0.69-4.26-3.66-4.26c-2.7,0-3.84,2.43-4.05,4.26H98.373z"/>
	<path d="M104.193,408.511c0-1.71-0.03-3.181-0.12-4.53h2.31l0.12,2.88h0.09c0.66-1.95,2.28-3.18,4.05-3.18
		c0.27,0,0.48,0.03,0.72,0.06v2.49c-0.27-0.06-0.54-0.06-0.9-0.06c-1.86,0-3.18,1.38-3.54,3.359c-0.06,0.36-0.09,0.81-0.09,1.23
		v7.739h-2.64V408.511z"/>
	<path d="M124.053,415.021c0,1.26,0.06,2.489,0.21,3.479h-2.37l-0.21-1.83h-0.09c-0.81,1.14-2.37,2.16-4.44,2.16
		c-2.94,0-4.44-2.07-4.44-4.17c0-3.51,3.12-5.43,8.73-5.399v-0.301c0-1.17-0.33-3.359-3.3-3.329c-1.38,0-2.79,0.39-3.81,1.08
		l-0.6-1.771c1.2-0.75,2.97-1.26,4.8-1.26c4.44,0,5.52,3.03,5.52,5.91V415.021z M121.503,411.09c-2.88-0.06-6.149,0.45-6.149,3.271
		c0,1.739,1.14,2.52,2.46,2.52c1.92,0,3.15-1.2,3.57-2.43c0.09-0.3,0.12-0.6,0.12-0.84V411.09z"/>
	<path d="M140.733,416.37c0,3.359-0.69,5.37-2.07,6.66c-1.44,1.289-3.48,1.739-5.31,1.739c-1.74,0-3.66-0.42-4.83-1.2l0.66-2.039
		c0.96,0.63,2.46,1.17,4.26,1.17c2.7,0,4.68-1.41,4.68-5.101v-1.59h-0.06c-0.78,1.351-2.37,2.431-4.62,2.431
		c-3.6,0-6.18-3.061-6.18-7.08c0-4.92,3.209-7.68,6.569-7.68c2.52,0,3.87,1.29,4.53,2.49h0.06l0.09-2.19h2.34
		c-0.09,1.021-0.12,2.22-0.12,3.96V416.37z M138.093,409.71c0-0.449-0.03-0.84-0.15-1.17c-0.48-1.56-1.74-2.819-3.689-2.819
		c-2.52,0-4.32,2.13-4.32,5.489c0,2.851,1.47,5.22,4.29,5.22c1.65,0,3.12-1.02,3.66-2.699c0.15-0.45,0.21-0.96,0.21-1.41V409.71z"/>
	<path d="M146.553,411.721c0.06,3.569,2.31,5.039,4.98,5.039c1.89,0,3.06-0.33,4.02-0.75l0.48,1.891c-0.93,0.42-2.55,0.93-4.86,0.93
		c-4.47,0-7.14-2.97-7.14-7.35s2.58-7.8,6.81-7.8c4.77,0,6,4.14,6,6.81c0,0.54-0.03,0.93-0.09,1.23H146.553z M154.292,409.83
		c0.03-1.649-0.69-4.26-3.66-4.26c-2.7,0-3.84,2.43-4.05,4.26H154.292z"/>
	<path d="M176.672,415.021c0,1.26,0.06,2.489,0.21,3.479h-2.37l-0.21-1.83h-0.09c-0.81,1.14-2.37,2.16-4.44,2.16
		c-2.94,0-4.44-2.07-4.44-4.17c0-3.51,3.12-5.43,8.73-5.399v-0.301c0-1.17-0.33-3.359-3.3-3.329c-1.38,0-2.79,0.39-3.81,1.08
		l-0.6-1.771c1.2-0.75,2.97-1.26,4.8-1.26c4.44,0,5.52,3.03,5.52,5.91V415.021z M174.122,411.09c-2.88-0.06-6.149,0.45-6.149,3.271
		c0,1.739,1.14,2.52,2.46,2.52c1.92,0,3.15-1.2,3.57-2.43c0.09-0.3,0.12-0.6,0.12-0.84V411.09z"/>
	<path d="M180.933,407.91c0-1.529-0.06-2.729-0.12-3.93h2.31l0.12,2.37h0.09c0.81-1.38,2.16-2.67,4.59-2.67
		c1.95,0,3.45,1.2,4.08,2.91h0.06c0.45-0.84,1.05-1.44,1.65-1.891c0.87-0.659,1.8-1.02,3.18-1.02c1.95,0,4.8,1.26,4.8,6.3v8.52
		h-2.58v-8.189c0-2.82-1.05-4.47-3.15-4.47c-1.53,0-2.67,1.109-3.15,2.369c-0.12,0.391-0.21,0.841-0.21,1.32v8.97h-2.58v-8.699
		c0-2.311-1.02-3.96-3.03-3.96c-1.62,0-2.85,1.319-3.27,2.64c-0.15,0.36-0.21,0.84-0.21,1.29v8.729h-2.58V407.91z"/>
	<path d="M219.092,411.12c0,5.37-3.75,7.71-7.23,7.71c-3.9,0-6.959-2.88-6.959-7.47c0-4.83,3.209-7.68,7.2-7.68
		C216.272,403.681,219.092,406.711,219.092,411.12z M207.603,411.271c0,3.18,1.8,5.579,4.38,5.579c2.52,0,4.41-2.369,4.41-5.64
		c0-2.46-1.23-5.55-4.35-5.55C208.953,405.66,207.603,408.54,207.603,411.271z"/>
	<path d="M234.572,414.51c0,1.53,0.03,2.851,0.12,3.99h-2.34l-0.15-2.37h-0.06c-0.66,1.17-2.22,2.7-4.8,2.7
		c-2.28,0-5.01-1.29-5.01-6.359v-8.49h2.64v8.01c0,2.76,0.87,4.649,3.24,4.649c1.77,0,3-1.229,3.48-2.43
		c0.15-0.359,0.24-0.84,0.24-1.35v-8.88h2.64V414.51z"/>
	<path d="M238.952,407.91c0-1.529-0.03-2.729-0.12-3.93h2.34l0.15,2.4h0.06c0.72-1.351,2.4-2.7,4.8-2.7c2.01,0,5.13,1.2,5.13,6.18
		v8.64h-2.64v-8.37c0-2.34-0.87-4.289-3.36-4.289c-1.71,0-3.06,1.229-3.54,2.699c-0.12,0.33-0.18,0.78-0.18,1.23v8.729h-2.64V407.91
		z"/>
	<path d="M258.662,400.501v3.479h3.78v2.01h-3.78v7.83c0,1.8,0.51,2.819,1.98,2.819c0.72,0,1.14-0.06,1.53-0.18l0.12,2.01
		c-0.51,0.181-1.32,0.36-2.34,0.36c-1.23,0-2.22-0.42-2.85-1.11c-0.72-0.81-1.02-2.1-1.02-3.81v-7.92h-2.25v-2.01h2.25v-2.7
		L258.662,400.501z"/>
	<path d="M281.971,415.021c0,1.26,0.06,2.489,0.21,3.479h-2.37l-0.21-1.83h-0.09c-0.811,1.14-2.37,2.16-4.439,2.16
		c-2.94,0-4.44-2.07-4.44-4.17c0-3.51,3.12-5.43,8.729-5.399v-0.301c0-1.17-0.33-3.359-3.299-3.329c-1.381,0-2.791,0.39-3.811,1.08
		l-0.6-1.771c1.199-0.75,2.969-1.26,4.799-1.26c4.44,0,5.521,3.03,5.521,5.91V415.021z M279.421,411.09
		c-2.881-0.06-6.15,0.45-6.15,3.271c0,1.739,1.141,2.52,2.461,2.52c1.92,0,3.149-1.2,3.569-2.43c0.09-0.3,0.12-0.6,0.12-0.84V411.09
		z"/>
	<path d="M286.232,407.91c0-1.529-0.031-2.729-0.121-3.93h2.34l0.15,2.4h0.061c0.72-1.351,2.399-2.7,4.799-2.7
		c2.011,0,5.131,1.2,5.131,6.18v8.64h-2.641v-8.37c0-2.34-0.869-4.289-3.359-4.289c-1.71,0-3.061,1.229-3.54,2.699
		c-0.12,0.33-0.181,0.78-0.181,1.23v8.729h-2.639V407.91z"/>
	<path d="M312.601,412.141L310.5,418.5h-2.7l6.9-20.219h3.119l6.9,20.219h-2.79l-2.159-6.359H312.601z M319.26,410.101l-2.01-5.82
		c-0.45-1.319-0.75-2.52-1.05-3.689h-0.061c-0.3,1.17-0.6,2.43-1.02,3.66l-1.98,5.85H319.26z"/>
	<path d="M327.511,407.91c0-1.529-0.061-2.729-0.12-3.93h2.31l0.121,2.37h0.09c0.81-1.38,2.159-2.67,4.59-2.67
		c1.949,0,3.449,1.2,4.079,2.91h0.06c0.451-0.84,1.051-1.44,1.65-1.891c0.87-0.659,1.801-1.02,3.18-1.02
		c1.95,0,4.801,1.26,4.801,6.3v8.52h-2.58v-8.189c0-2.82-1.051-4.47-3.15-4.47c-1.529,0-2.67,1.109-3.15,2.369
		c-0.119,0.391-0.209,0.841-0.209,1.32v8.97h-2.58v-8.699c0-2.311-1.02-3.96-3.03-3.96c-1.62,0-2.85,1.319-3.27,2.64
		c-0.15,0.36-0.21,0.84-0.21,1.29v8.729h-2.58V407.91z"/>
	<path d="M354.001,411.721c0.06,3.569,2.31,5.039,4.979,5.039c1.89,0,3.06-0.33,4.021-0.75l0.479,1.891
		c-0.931,0.42-2.55,0.93-4.86,0.93c-4.469,0-7.139-2.97-7.139-7.35s2.579-7.8,6.809-7.8c4.77,0,6,4.14,6,6.81
		c0,0.54-0.029,0.93-0.09,1.23H354.001z M361.741,409.83c0.03-1.649-0.69-4.26-3.659-4.26c-2.701,0-3.84,2.43-4.051,4.26H361.741z"
		/>
	<path d="M367.561,408.511c0-1.71-0.03-3.181-0.12-4.53h2.311l0.119,2.88h0.09c0.66-1.95,2.28-3.18,4.051-3.18
		c0.27,0,0.479,0.03,0.719,0.06v2.49c-0.27-0.06-0.539-0.06-0.899-0.06c-1.86,0-3.18,1.38-3.54,3.359
		c-0.06,0.36-0.09,0.81-0.09,1.23v7.739h-2.64V408.511z"/>
	<path d="M380.431,399.9c0,0.9-0.631,1.62-1.681,1.62c-0.96,0-1.59-0.72-1.59-1.62c0-0.899,0.66-1.649,1.649-1.649
		C379.771,398.251,380.431,398.971,380.431,399.9z M377.491,418.5v-14.52h2.64v14.52H377.491z"/>
	<path d="M394.861,417.99c-0.69,0.33-2.221,0.84-4.17,0.84c-4.381,0-7.23-2.97-7.23-7.41c0-4.47,3.061-7.739,7.8-7.739
		c1.56,0,2.94,0.39,3.66,0.78l-0.601,2.01c-0.629-0.33-1.619-0.69-3.06-0.69c-3.329,0-5.13,2.49-5.13,5.49
		c0,3.359,2.16,5.43,5.04,5.43c1.5,0,2.489-0.36,3.239-0.69L394.861,417.99z"/>
	<path d="M408.15,415.021c0,1.26,0.061,2.489,0.211,3.479h-2.371l-0.209-1.83h-0.09c-0.811,1.14-2.371,2.16-4.44,2.16
		c-2.94,0-4.44-2.07-4.44-4.17c0-3.51,3.121-5.43,8.73-5.399v-0.301c0-1.17-0.33-3.359-3.301-3.329c-1.379,0-2.789,0.39-3.809,1.08
		l-0.601-1.771c1.2-0.75,2.97-1.26,4.8-1.26c4.439,0,5.52,3.03,5.52,5.91V415.021z M405.601,411.09
		c-2.881-0.06-6.15,0.45-6.15,3.271c0,1.739,1.14,2.52,2.46,2.52c1.92,0,3.149-1.2,3.569-2.43c0.09-0.3,0.121-0.6,0.121-0.84V411.09
		z"/>
	<path d="M412.41,407.91c0-1.529-0.029-2.729-0.119-3.93h2.34l0.15,2.4h0.059c0.721-1.351,2.4-2.7,4.801-2.7
		c2.01,0,5.129,1.2,5.129,6.18v8.64h-2.639v-8.37c0-2.34-0.871-4.289-3.36-4.289c-1.71,0-3.06,1.229-3.54,2.699
		c-0.12,0.33-0.18,0.78-0.18,1.23v8.729h-2.641V407.91z"/>
	<path d="M447.57,414.51c0,1.53,0.029,2.851,0.119,3.99h-2.34l-0.149-2.37h-0.06c-0.66,1.17-2.221,2.7-4.801,2.7
		c-2.279,0-5.01-1.29-5.01-6.359v-8.49h2.641v8.01c0,2.76,0.869,4.649,3.239,4.649c1.771,0,3-1.229,3.479-2.43
		c0.15-0.359,0.24-0.84,0.24-1.35v-8.88h2.641V414.51z"/>
	<path d="M451.589,415.83c0.811,0.48,2.19,1.02,3.51,1.02c1.891,0,2.791-0.93,2.791-2.159c0-1.26-0.75-1.92-2.67-2.641
		c-2.641-0.96-3.871-2.369-3.871-4.109c0-2.34,1.92-4.26,5.01-4.26c1.471,0,2.76,0.39,3.541,0.899l-0.631,1.92
		c-0.57-0.359-1.619-0.869-2.97-0.869c-1.56,0-2.399,0.899-2.399,1.979c0,1.2,0.84,1.74,2.729,2.49c2.489,0.93,3.81,2.189,3.81,4.35
		c0,2.58-2.01,4.38-5.399,4.38c-1.59,0-3.06-0.42-4.079-1.021L451.589,415.83z"/>
	<path d="M465.3,411.721c0.059,3.569,2.309,5.039,4.979,5.039c1.891,0,3.061-0.33,4.02-0.75l0.48,1.891
		c-0.93,0.42-2.549,0.93-4.859,0.93c-4.471,0-7.141-2.97-7.141-7.35s2.58-7.8,6.811-7.8c4.77,0,6,4.14,6,6.81
		c0,0.54-0.029,0.93-0.09,1.23H465.3z M473.039,409.83c0.031-1.649-0.689-4.26-3.66-4.26c-2.699,0-3.84,2.43-4.049,4.26H473.039z"/>
	<path d="M478.5,415.83c0.809,0.48,2.189,1.02,3.51,1.02c1.889,0,2.789-0.93,2.789-2.159c0-1.26-0.75-1.92-2.67-2.641
		c-2.639-0.96-3.869-2.369-3.869-4.109c0-2.34,1.92-4.26,5.01-4.26c1.469,0,2.76,0.39,3.539,0.899l-0.629,1.92
		c-0.57-0.359-1.621-0.869-2.971-0.869c-1.561,0-2.4,0.899-2.4,1.979c0,1.2,0.84,1.74,2.73,2.49c2.49,0.93,3.811,2.189,3.811,4.35
		c0,2.58-2.01,4.38-5.4,4.38c-1.59,0-3.061-0.42-4.08-1.021L478.5,415.83z"/>
</g>
<g enable-background="new    ">
	<path d="M214.082,435.9c0,0.9-0.63,1.62-1.68,1.62c-0.96,0-1.59-0.72-1.59-1.62c0-0.899,0.66-1.649,1.65-1.649
		C213.422,434.251,214.082,434.971,214.082,435.9z M211.142,454.5v-14.52h2.64v14.52H211.142z"/>
	<path d="M218.162,443.91c0-1.529-0.03-2.729-0.12-3.93h2.34l0.15,2.4h0.06c0.72-1.351,2.4-2.7,4.8-2.7c2.01,0,5.13,1.2,5.13,6.18
		v8.64h-2.64v-8.37c0-2.34-0.87-4.289-3.36-4.289c-1.71,0-3.06,1.229-3.54,2.699c-0.12,0.33-0.18,0.78-0.18,1.23v8.729h-2.64V443.91
		z"/>
	<path d="M254.311,447.12c0,5.37-3.75,7.71-7.23,7.71c-3.9,0-6.959-2.88-6.959-7.47c0-4.83,3.209-7.68,7.2-7.68
		C251.491,439.681,254.311,442.711,254.311,447.12z M242.821,447.271c0,3.18,1.8,5.579,4.38,5.579c2.52,0,4.41-2.369,4.41-5.64
		c0-2.46-1.23-5.55-4.35-5.55C244.171,441.66,242.821,444.54,242.821,447.271z"/>
	<path d="M257.641,443.91c0-1.529-0.03-2.729-0.12-3.93h2.34l0.15,2.4h0.06c0.72-1.351,2.4-2.7,4.8-2.7c2.01,0,5.13,1.2,5.13,6.18
		v8.64h-2.64v-8.37c0-2.34-0.87-4.289-3.36-4.289c-1.71,0-3.06,1.229-3.54,2.699c-0.12,0.33-0.18,0.78-0.18,1.23v8.729h-2.64V443.91
		z"/>
	<path d="M275.761,447.721c0.06,3.569,2.31,5.039,4.979,5.039c1.89,0,3.06-0.33,4.021-0.75l0.479,1.891
		c-0.931,0.42-2.55,0.93-4.86,0.93c-4.469,0-7.139-2.97-7.139-7.35s2.579-7.8,6.809-7.8c4.77,0,6,4.14,6,6.81
		c0,0.54-0.029,0.93-0.09,1.23H275.761z M283.5,445.83c0.03-1.649-0.69-4.26-3.659-4.26c-2.701,0-3.84,2.43-4.051,4.26H283.5z"/>
	<path d="M308.19,433.201v17.549c0,1.29,0.06,2.76,0.12,3.75h-2.34l-0.12-2.52h-0.09c-0.78,1.619-2.521,2.85-4.89,2.85
		c-3.51,0-6.24-2.97-6.24-7.38c-0.029-4.83,3-7.77,6.51-7.77c2.25,0,3.721,1.05,4.38,2.189h0.06v-8.669H308.19z M305.58,445.891
		c0-0.33-0.029-0.78-0.119-1.11c-0.391-1.649-1.83-3.029-3.811-3.029c-2.729,0-4.35,2.399-4.35,5.579c0,2.94,1.471,5.37,4.29,5.37
		c1.771,0,3.39-1.2,3.87-3.15c0.09-0.359,0.119-0.72,0.119-1.14V445.891z"/>
	<path d="M322.8,451.021c0,1.26,0.061,2.489,0.21,3.479h-2.37l-0.21-1.83h-0.09c-0.81,1.14-2.37,2.16-4.44,2.16
		c-2.939,0-4.439-2.07-4.439-4.17c0-3.51,3.12-5.43,8.73-5.399v-0.301c0-1.17-0.33-3.359-3.301-3.329c-1.38,0-2.789,0.39-3.81,1.08
		l-0.601-1.771c1.201-0.75,2.971-1.26,4.801-1.26c4.439,0,5.52,3.03,5.52,5.91V451.021z M320.25,447.09
		c-2.879-0.06-6.148,0.45-6.148,3.271c0,1.739,1.139,2.52,2.459,2.52c1.92,0,3.15-1.2,3.57-2.43c0.09-0.3,0.119-0.6,0.119-0.84
		V447.09z"/>
	<path d="M327.781,439.98l3.149,8.58c0.36,0.96,0.72,2.1,0.96,2.97h0.061c0.27-0.87,0.569-1.98,0.93-3.03l2.879-8.52h2.791
		l-3.961,10.35c-1.889,4.979-3.18,7.5-4.979,9.09c-1.32,1.109-2.58,1.56-3.24,1.68l-0.66-2.189c0.66-0.21,1.529-0.63,2.31-1.29
		c0.72-0.57,1.591-1.59,2.22-2.94c0.121-0.27,0.211-0.479,0.211-0.63c0-0.149-0.061-0.359-0.211-0.689l-5.34-13.38H327.781z"/>
</g>
<path fill="#19162B" d="M392.796,535.902c0.238,0.959,1.164,0.034,0.6,1.793c-0.996,0.299-0.98-0.414-0.898-1.195
	c-0.979,0.879-0.285,2.926-1.789,3.285c-0.506-1.039-0.11-1.045,0.597-1.492c0.048-0.844-0.843-0.748-1.192-1.193
	c-0.326,0.152,0.217,1.947,0,2.982c-1.398,0.859-2.52,2.674-4.181,2.389c-1.349,3.914-1.011,7.519-1.192,10.152
	c1.965-0.689,2.491,4.375,5.073,2.09c0.038-1.135-1.351-0.84-1.492-1.793c1.626-0.035,2.046,1.139,2.091,2.688
	c-1.875,0.216-2.525,1.652-3.881,2.39c0.506-0.291,0.768-0.826,0.596-1.793c-1.336,0.299-0.82,0.896-1.193,1.793
	c-3.684,2.686-9.831,2.901-11.939,7.164l-0.447,0.684l0.147,0.808c-0.608,0.09-0.587,0.811-1.194,0.896
	c0.365,0.91,1.14-0.434,1.494,0.299c1.026,4.429-0.742,8.33-2.988,10.449c-0.244-0.844,0.424-0.771,0.301-1.494
	c-1.926-0.061-3.071-0.908-3.881-2.088c1.189,1.494,1.49,3.883,3.58,4.479c1.568,4.176-1.195,7.791-1.789,11.643
	c-2.365-1.695,1.343-6.064-1.791-7.166c-0.661,0.301,0.734,1.029,0.299,2.09c-1.126-0.565-0.799-2.584-2.389-2.688
	c-0.104-1.662,0.742-2.07-0.596-2.088c1.459-1.439-0.759-2.931,0.596-4.183c-2.096,0.301-1.773,5.838,0.299,7.166
	c-0.317,0.279-0.094,1.103-0.895,0.896c1.551,0.838,2.213,2.561,2.385,4.774c-0.24-0.055-0.295-0.299-0.595-0.299
	c-0.573,0.697,1.984,1.855,0.798,2.84c0.447-0.231,1.209-0.147,1.889-0.153c1.003,2.186,2.016,4.354,3.283,6.27l-0.449-0.146
	l0.15,0.446c-0.3,0.695-1.027,0.963-2.088,0.896c0.564,0.996,1.91-0.519,2.387,0.301c-0.18,2.074-2.248,2.941-4.18,2.387
	c1.188,0.488,0.352,3.084-0.896,2.091c0.402,0.889,2.752,0.522,2.986,0c-0.177,3.87-7.729,2.743-7.464,8.657
	c-3.396,0.386-5.543,2.019-5.372,5.97c-2.39,1.395-3.128,4.436-5.973,5.375c-0.036,1.926-2.055,2.95-2.686,4.774
	c-2.717,7.854,2.049,15.957,6.565,20c0.218,0.816-0.593,0.603-0.597,1.195c2.72,4.729,7.031,10.088,4.775,17.914
	c0.717,0.117-0.166-1.363,0.896-0.896c-0.489,3.093-2.398,4.767-4.479,6.271c-0.103-1.301,2.887-2.084,3.283-3.883
	c-0.792-0.283-2.748,0.828-3.881,1.194c-0.736-2.213-1.855-5.075-4.479-4.479c-0.563-1.029-0.881-2.301-1.492-3.283
	c-0.719-0.123-0.647,0.545-1.492,0.297c-1.072-2.211-2.328-4.24-3.881-5.969c0.066-1.227,1.318-1.271,1.193-2.686
	c-0.093-0.408-0.748-0.25-1.193-0.302c-0.229,0.08,0.73,1.258,0,2.09c-2.438-1.954,0.41-7.516-2.09-9.551
	c-4.174-0.403-3.846-5.311-8.955-4.778c-0.318,1.674-2.729,2.764-5.375,2.985c-2.508-4.723-9.693-3.401-14.627-1.793
	c1.146-0.5,0.326-2.192-0.297-2.684c-1.084,0.01-0.607,1.584-1.195,2.09c-4.217,0.178-7.328-0.271-8.658,3.283
	c1.648,0.453,1.062-1.326,2.391-1.193c0.623,2.23-0.56,2.494-1.494,3.283c0.567,1.42,3.043,0.938,3.881,2.088
	c-0.309,2.119-4.327,0.229-4.776-1.195c-1.854,0.711-0.021,2.252-2.388,2.986c-0.741-0.217,0.984-0.896,0-1.49
	c-1.268,0.025-1.649,0.937-2.389,1.49c-1.433-0.061-2.244-0.74-3.285-1.193c-0.035-0.534,0.365-0.631,0.299-1.192
	c-1.713-0.316-3.202-3.228-5.073-1.492c0.39,1.139,2.22-0.486,2.39,1.191c-4.391-0.023-11.871-2.656-16.121,0.896
	c-4.05,4.41-10.188,6.729-15.227,10.152c-0.436,4.332-0.644,8.264,0.298,12.237c-5.093-1.104-13.557-2.938-12.239-10.448
	c-2.073-1.209-2.624-3.943-4.776-5.074c-1.036-6.029-4.126-10.004-10.448-10.748c-3.212,0.272-2.941,4.024-5.076,5.375
	c-2.716-1.879-6.916-2.656-7.762-5.971c-0.639-2.509-0.104-4.47-1.791-6.271c-3.223-1.453-4.798-4.555-6.865-7.166
	c-3.187-0.195-6.041-0.723-8.957-1.193c-0.461,0.73-0.445,1.943-0.597,2.986c-8.452-0.998-15.029-1.795-20.598-5.076
	c-4.322-2.545-8.739-5.744-13.434-8.061c-0.218-0.814,0.593-0.6,0.597-1.193c-4.141-0.836-9.177-0.772-12.836-2.09
	c0.234-4.516-1.003-7.557-4.479-8.359c-0.561-0.565,0.178-0.541,0-1.491c-3.762-1.312-4.329-5.822-9.552-5.673
	c-1.132-1.465,0.414-2.604,0.297-4.18c-0.254-3.414-4.057-6.526-4.178-10.447c0.119-1.073,1.328-1.061,1.492-2.09
	c-1.829-0.992-3.37-4.311-1.792-6.865c-1.214-1.1-1.396-1.688-1.493-3.584c-0.1-1.94-2.231-3.827-2.388-5.073
	c-0.359-2.883,2.771-6.816-0.597-8.959c1.409-3.379,5.371-7.013,3.583-11.642c0.271-1.418,0.677-2.705,0.596-4.477
	c3.866-4.992,6.286-11.428,8.36-18.213c0.574-0.121,0.233-1.156,1.193-0.896c-1.379-0.662-0.936-2.201,0.298-2.981
	c0.145-0.941-0.917-0.677-0.597-1.793c0.266-0.23,0.675-0.32,1.195-0.297c-1.366-2.115-1.113-6.773-0.896-9.556
	c2.405,1.178,4.095,3.07,7.165,3.582c1.058,0.064,0.589-1.397,1.792-1.192c-0.119,0.913-0.825,1.854,0.596,2.985
	c-0.467-1.74,0.79-4.383-0.596-6.567c33.693,8.694,71.018,16.35,115.23,15.522c0.739-0.258-0.085-2.078,0.599-2.389
	c2.311-0.121,1.086,3.293,2.389,4.182c1.726-0.035,2.644,0.74,3.881,1.193c2.433-2.275,4.599,1.385,7.164,0.598
	c0.412,2.019,3.533,2.187,5.074,0.597c1.111,1.071,3.914,0.848,5.674,1.192c-1.23,2.004-3.688,1.769-5.375,2.986
	c-2.008,1.451-2.896,4.166-5.073,5.375c2.177,1.229,4.141-1.762,5.671-1.195c0.014,0.908-0.63,1.16-0.896,1.791
	c0.319,0.605,1.771-0.533,2.09,0.599c1.854-1.33,4.229-2.144,6.27-3.283c1.387-1.603,2.426-3.547,5.374-3.586
	c-0.967,1.424-2.526,2.252-2.985,4.182c0.854-1.123,4.271-0.629,4.777,1.791c3.848,0.6,6.102-2.203,10.449-2.688
	c0,0.598,0,1.194,0,1.791c1.395,0.647,2.584-0.552,4.178-0.597c-0.225,1.816,0.143,3.041,1.492,3.285
	c-1.867,0.271-4.212,0.734-6.865,0.297c-3.15,0.812-4.607,2.74-7.164,2.088c-0.76,3.125-2.58,5.187-3.582,8.062
	c1.42-0.277,2.668-3.301,3.881-4.775c-1.555,6.4-5.06,17.963,1.193,23.582c4.43-1.266,5.417-9.32,2.09-12.537
	c0.395-5.149,0.542-8.342,3.284-11.346c1.269,0.428-0.457,1.553,0,2.986c1.71-0.24,0.669-1.47,0.896-3.285
	c0.531-0.267,0.758-0.832,1.791-0.596c0.088-0.785-1.158-0.236-0.896-1.195c1.794-3.287,4.545,0.285,7.763,0.301
	c0.125,0.568,0.107,1.283,0.896,1.193c-0.666,1.602,1.629,6.877-1.791,7.762c0.038,0.953-0.296,2.283,0.896,2.09
	c1.596-0.596,1.327-3.051,3.284-3.283c2.483,1.693,2.994,5.361,3.283,9.252c-2.33-0.18-2.031,3.89-3.582,5.375
	c0.53,1.656,3.53,0.847,4.478,2.091c6.129-2.931,11.676-6.437,15.523-11.646c-0.51-0.981-1.407-1.576-1.493-2.981
	c4.481-2.101,9.722-0.123,12.539-4.183c-0.073-0.906,0.185-2.508-1.194-2.983c-0.412-1.546,1.072-1.697,1.791-2.687
	c1.035-1.43,1.537-3.557,2.986-4.479c1.253-0.802,2.896-0.537,4.477-0.896c3.301-0.748,6.758-2.139,9.854-2.688
	c0.973-0.222,0.896-1.49,1.193-2.39c0.646,0.675,1.018-0.246,2.091,0c-0.074-2.063,0.726-3.254,1.493-4.477
	c-1.479-3.609,0.615-8.164,1.789-11.047c1.121-0.226,0.651,1.143,1.492,1.194c1.08-0.315,1.653-1.135,2.389-1.793
	c0.957,0.24,1.508,0.886,2.688,0.896c0.627,3.055,1.891,5.471,2.387,8.658c0.387,0.412,1.299,0.297,2.092,0.297
	c-0.147,0.945,0.537,1.055,0.298,2.094c0.626,0.65,0.853-0.15,1.792,0C399.443,532.465,395.048,537.016,392.796,535.902z
	 M266.57,594.533v32.178c0.292,3.146,3.889,3.146,3.889,3.146c3.141-0.451,3.737-2.996,3.737-2.996v-54.771
	c0.75-1.947,1.649,0,1.649,0v19.604c0.296,2.395,2.988,2.395,2.988,2.395c2.695-0.449,2.998-2.395,2.998-2.395v-23.197
	c-1.645-8.23-8.233-7.932-8.233-7.932h-7.777h-0.302h-7.781c0,0-6.585-0.3-8.231,7.932v23.197c0,0,0.297,1.944,2.989,2.395
	c0,0,2.696,0,2.997-2.395v-19.604c0,0,0.896-1.947,1.644,0v54.771c0,0,0.602,2.545,3.745,2.996c0,0,3.59,0,3.889-3.146v-32.178
	C265.745,592.664,266.57,594.533,266.57,594.533z M265.968,545.6c-3.391,0-6.138,2.746-6.138,6.136c0,3.387,2.747,6.137,6.138,6.137
	c3.39,0,6.137-2.75,6.137-6.137C272.104,548.346,269.357,545.6,265.968,545.6z"/>
</svg>
