<?xml version="1.0" encoding="utf-8"?>
<!-- Generator: Adobe Illustrator 15.1.0, SVG Export Plug-In . SVG Version: 6.00 Build 0)  -->
<!DOCTYPE svg PUBLIC "-//W3C//DTD SVG 1.1//EN" "http://www.w3.org/Graphics/SVG/1.1/DTD/svg11.dtd">
<svg version="1.1" id="Layer_1" xmlns="http://www.w3.org/2000/svg" xmlns:xlink="http://www.w3.org/1999/xlink" x="0px" y="0px"
	 width="536.378px" height="780.521px" viewBox="0 0 536.378 780.521" enable-background="new 0 0 536.378 780.521"
	 xml:space="preserve">
<rect x="163.537" y="201.337" fill="none" width="335.21" height="91.324"/>
<g enable-background="new    ">
	<path d="M274.322,271.656v17.159h-16.2v-17.159h-45.958v-15.119l44.518-51.718h17.64v51.237h11.039v15.6H274.322z M251.042,233.498
		l-12,14.039c-2.64,3.12-6.12,6.96-7.919,8.76c2.88,0,11.879-0.24,16.679-0.24h10.319v-13.68c0-4.8,0.36-15.239,0.36-18.358
		C256.922,226.178,253.802,230.258,251.042,233.498z"/>
	<path d="M331.441,290.136c-22.919,0-35.158-17.76-35.158-43.318c0-25.56,12.359-43.318,35.278-43.318s35.278,17.52,35.278,43.078
		S354.361,290.136,331.441,290.136z M331.441,219.938c-12.84,0-18.119,11.64-18.119,26.639s5.4,27.119,18.239,27.119
		s18.239-11.88,18.239-26.879C349.8,231.817,344.281,219.938,331.441,219.938z"/>
	<path d="M414,290.136c-22.919,0-35.158-17.76-35.158-43.318c0-25.56,12.359-43.318,35.278-43.318s35.278,17.52,35.278,43.078
		S436.919,290.136,414,290.136z M414,219.938c-12.84,0-18.119,11.64-18.119,26.639s5.4,27.119,18.239,27.119
		s18.239-11.88,18.239-26.879C432.359,231.817,426.839,219.938,414,219.938z"/>
</g>
<rect x="-19.884" y="401.235" fill="none" width="587.719" height="61.55"/>
<g enable-background="new    ">
	<path d="M69.664,419.056c0,1.26,0.06,2.489,0.21,3.479h-2.37l-0.21-1.83h-0.09c-0.81,1.14-2.37,2.16-4.44,2.16
		c-2.94,0-4.44-2.07-4.44-4.17c0-3.51,3.12-5.43,8.73-5.399v-0.301c0-1.17-0.33-3.359-3.3-3.329c-1.38,0-2.79,0.39-3.81,1.08
		l-0.6-1.771c1.2-0.75,2.97-1.26,4.8-1.26c4.44,0,5.52,3.03,5.52,5.91V419.056z M67.114,415.125c-2.88-0.06-6.15,0.45-6.15,3.271
		c0,1.739,1.14,2.52,2.46,2.52c1.92,0,3.15-1.2,3.57-2.43c0.09-0.3,0.12-0.6,0.12-0.84V415.125z"/>
	<path d="M73.924,411.945c0-1.529-0.06-2.729-0.12-3.93h2.31l0.12,2.37h0.09c0.81-1.38,2.16-2.67,4.59-2.67
		c1.95,0,3.45,1.2,4.08,2.91h0.06c0.45-0.84,1.05-1.44,1.65-1.891c0.87-0.659,1.8-1.02,3.18-1.02c1.95,0,4.8,1.26,4.8,6.3v8.52
		h-2.58v-8.189c0-2.82-1.05-4.47-3.15-4.47c-1.53,0-2.67,1.109-3.15,2.369c-0.12,0.391-0.21,0.841-0.21,1.32v8.97h-2.58v-8.699
		c0-2.311-1.02-3.96-3.03-3.96c-1.62,0-2.85,1.319-3.27,2.64c-0.15,0.36-0.21,0.84-0.21,1.29v8.729h-2.58V411.945z"/>
	<path d="M112.084,415.155c0,5.37-3.75,7.71-7.23,7.71c-3.9,0-6.959-2.88-6.959-7.47c0-4.83,3.209-7.68,7.2-7.68
		C109.264,407.716,112.084,410.746,112.084,415.155z M100.594,415.306c0,3.18,1.8,5.579,4.38,5.579c2.52,0,4.41-2.369,4.41-5.64
		c0-2.46-1.23-5.55-4.35-5.55C101.944,409.695,100.594,412.575,100.594,415.306z"/>
	<path d="M127.563,418.545c0,1.53,0.03,2.851,0.12,3.99h-2.34l-0.15-2.37h-0.06c-0.66,1.17-2.22,2.7-4.8,2.7
		c-2.28,0-5.01-1.29-5.01-6.359v-8.49h2.64v8.01c0,2.76,0.87,4.649,3.24,4.649c1.77,0,3-1.229,3.48-2.43
		c0.15-0.359,0.24-0.84,0.24-1.35v-8.88h2.64V418.545z"/>
	<path d="M131.944,411.945c0-1.529-0.03-2.729-0.12-3.93h2.34l0.15,2.4h0.06c0.72-1.351,2.4-2.7,4.8-2.7c2.01,0,5.13,1.2,5.13,6.18
		v8.64h-2.64v-8.37c0-2.34-0.87-4.289-3.36-4.289c-1.71,0-3.06,1.229-3.54,2.699c-0.12,0.33-0.18,0.78-0.18,1.23v8.729h-2.64
		V411.945z"/>
	<path d="M151.653,404.536v3.479h3.78v2.01h-3.78v7.83c0,1.8,0.51,2.819,1.98,2.819c0.72,0,1.14-0.06,1.53-0.18l0.12,2.01
		c-0.51,0.181-1.32,0.36-2.34,0.36c-1.23,0-2.22-0.42-2.85-1.11c-0.72-0.81-1.02-2.1-1.02-3.81v-7.92h-2.25v-2.01h2.25v-2.7
		L151.653,404.536z"/>
	<path d="M168.123,416.176l-2.1,6.359h-2.7l6.9-20.219h3.12l6.9,20.219h-2.79l-2.16-6.359H168.123z M174.783,414.136l-2.01-5.82
		c-0.45-1.319-0.75-2.52-1.05-3.689h-0.06c-0.3,1.17-0.6,2.43-1.02,3.66l-1.98,5.85H174.783z"/>
	<path d="M183.034,411.945c0-1.529-0.06-2.729-0.12-3.93h2.31l0.12,2.37h0.09c0.81-1.38,2.16-2.67,4.59-2.67
		c1.95,0,3.45,1.2,4.08,2.91h0.06c0.45-0.84,1.05-1.44,1.65-1.891c0.87-0.659,1.8-1.02,3.18-1.02c1.95,0,4.8,1.26,4.8,6.3v8.52
		h-2.58v-8.189c0-2.82-1.05-4.47-3.15-4.47c-1.53,0-2.67,1.109-3.15,2.369c-0.12,0.391-0.21,0.841-0.21,1.32v8.97h-2.58v-8.699
		c0-2.311-1.02-3.96-3.03-3.96c-1.62,0-2.85,1.319-3.27,2.64c-0.15,0.36-0.21,0.84-0.21,1.29v8.729h-2.58V411.945z"/>
	<path d="M209.523,415.756c0.06,3.569,2.31,5.039,4.98,5.039c1.89,0,3.06-0.33,4.02-0.75l0.48,1.891c-0.93,0.42-2.55,0.93-4.86,0.93
		c-4.47,0-7.14-2.97-7.14-7.35s2.58-7.8,6.81-7.8c4.77,0,6,4.14,6,6.81c0,0.54-0.03,0.93-0.09,1.23H209.523z M217.263,413.865
		c0.03-1.649-0.69-4.26-3.66-4.26c-2.7,0-3.84,2.43-4.05,4.26H217.263z"/>
	<path d="M223.083,412.546c0-1.71-0.03-3.181-0.12-4.53h2.31l0.12,2.88h0.09c0.66-1.95,2.28-3.18,4.05-3.18
		c0.27,0,0.48,0.03,0.72,0.06v2.49c-0.27-0.06-0.54-0.06-0.9-0.06c-1.86,0-3.18,1.38-3.54,3.359c-0.06,0.36-0.09,0.81-0.09,1.23
		v7.739h-2.64V412.546z"/>
	<path d="M235.953,403.936c0,0.9-0.63,1.62-1.68,1.62c-0.96,0-1.59-0.72-1.59-1.62c0-0.899,0.66-1.649,1.65-1.649
		C235.293,402.286,235.953,403.006,235.953,403.936z M233.013,422.535v-14.52h2.64v14.52H233.013z"/>
	<path d="M250.382,422.025c-0.69,0.33-2.22,0.84-4.17,0.84c-4.38,0-7.229-2.97-7.229-7.41c0-4.47,3.06-7.739,7.799-7.739
		c1.56,0,2.94,0.39,3.66,0.78l-0.6,2.01c-0.63-0.33-1.62-0.69-3.06-0.69c-3.33,0-5.129,2.49-5.129,5.49c0,3.359,2.16,5.43,5.04,5.43
		c1.5,0,2.49-0.36,3.24-0.69L250.382,422.025z"/>
	<path d="M263.672,419.056c0,1.26,0.06,2.489,0.21,3.479h-2.37l-0.21-1.83h-0.09c-0.81,1.14-2.37,2.16-4.44,2.16
		c-2.94,0-4.44-2.07-4.44-4.17c0-3.51,3.12-5.43,8.73-5.399v-0.301c0-1.17-0.33-3.359-3.3-3.329c-1.38,0-2.79,0.39-3.81,1.08
		l-0.6-1.771c1.2-0.75,2.97-1.26,4.8-1.26c4.44,0,5.52,3.03,5.52,5.91V419.056z M261.122,415.125c-2.88-0.06-6.149,0.45-6.149,3.271
		c0,1.739,1.14,2.52,2.46,2.52c1.92,0,3.15-1.2,3.57-2.43c0.09-0.3,0.12-0.6,0.12-0.84V415.125z"/>
	<path d="M267.933,411.945c0-1.529-0.03-2.729-0.12-3.93h2.339l0.15,2.4h0.061c0.72-1.351,2.399-2.7,4.799-2.7
		c2.011,0,5.131,1.2,5.131,6.18v8.64h-2.641v-8.37c0-2.34-0.869-4.289-3.359-4.289c-1.71,0-3.061,1.229-3.54,2.699
		c-0.12,0.33-0.181,0.78-0.181,1.23v8.729h-2.639V411.945z"/>
	<path d="M284.222,419.865c0.811,0.48,2.19,1.02,3.51,1.02c1.891,0,2.791-0.93,2.791-2.159c0-1.26-0.75-1.92-2.67-2.641
		c-2.641-0.96-3.871-2.369-3.871-4.109c0-2.34,1.92-4.26,5.01-4.26c1.471,0,2.76,0.39,3.541,0.899l-0.631,1.92
		c-0.57-0.359-1.619-0.869-2.97-0.869c-1.56,0-2.399,0.899-2.399,1.979c0,1.2,0.84,1.74,2.729,2.49c2.489,0.93,3.81,2.189,3.81,4.35
		c0,2.58-2.01,4.38-5.399,4.38c-1.59,0-3.06-0.42-4.079-1.021L284.222,419.865z"/>
	<path d="M313.171,422.025c-0.689,0.33-2.219,0.84-4.17,0.84c-4.379,0-7.229-2.97-7.229-7.41c0-4.47,3.059-7.739,7.799-7.739
		c1.561,0,2.939,0.39,3.66,0.78l-0.6,2.01c-0.631-0.33-1.621-0.69-3.061-0.69c-3.33,0-5.129,2.49-5.129,5.49
		c0,3.359,2.159,5.43,5.039,5.43c1.5,0,2.49-0.36,3.24-0.69L313.171,422.025z"/>
	<path d="M329.222,415.155c0,5.37-3.75,7.71-7.23,7.71c-3.9,0-6.959-2.88-6.959-7.47c0-4.83,3.209-7.68,7.199-7.68
		C326.402,407.716,329.222,410.746,329.222,415.155z M317.732,415.306c0,3.18,1.8,5.579,4.38,5.579c2.521,0,4.409-2.369,4.409-5.64
		c0-2.46-1.229-5.55-4.35-5.55C319.082,409.695,317.732,412.575,317.732,415.306z"/>
	<path d="M332.552,401.236h2.639v21.299h-2.639V401.236z"/>
	<path d="M339.632,401.236h2.639v21.299h-2.639V401.236z"/>
	<path d="M348.181,415.756c0.061,3.569,2.311,5.039,4.98,5.039c1.89,0,3.06-0.33,4.02-0.75l0.48,1.891
		c-0.931,0.42-2.551,0.93-4.86,0.93c-4.47,0-7.14-2.97-7.14-7.35s2.58-7.8,6.81-7.8c4.771,0,5.999,4.14,5.999,6.81
		c0,0.54-0.029,0.93-0.09,1.23H348.181z M355.921,413.865c0.029-1.649-0.69-4.26-3.66-4.26c-2.699,0-3.84,2.43-4.05,4.26H355.921z"
		/>
	<path d="M372.091,422.025c-0.69,0.33-2.221,0.84-4.17,0.84c-4.381,0-7.23-2.97-7.23-7.41c0-4.47,3.061-7.739,7.8-7.739
		c1.56,0,2.94,0.39,3.66,0.78l-0.601,2.01c-0.629-0.33-1.619-0.69-3.06-0.69c-3.329,0-5.13,2.49-5.13,5.49
		c0,3.359,2.16,5.43,5.04,5.43c1.5,0,2.489-0.36,3.239-0.69L372.091,422.025z"/>
	<path d="M378.75,404.536v3.479h3.78v2.01h-3.78v7.83c0,1.8,0.511,2.819,1.979,2.819c0.721,0,1.141-0.06,1.531-0.18l0.119,2.01
		c-0.51,0.181-1.32,0.36-2.34,0.36c-1.23,0-2.22-0.42-2.85-1.11c-0.721-0.81-1.02-2.1-1.02-3.81v-7.92h-2.25v-2.01h2.25v-2.7
		L378.75,404.536z"/>
	<path d="M388.441,403.936c0,0.9-0.631,1.62-1.681,1.62c-0.96,0-1.59-0.72-1.59-1.62c0-0.899,0.66-1.649,1.649-1.649
		C387.781,402.286,388.441,403.006,388.441,403.936z M385.5,422.535v-14.52h2.64v14.52H385.5z"/>
	<path d="M393.541,408.016l2.85,8.13c0.48,1.35,0.87,2.55,1.17,3.75h0.09c0.33-1.2,0.75-2.4,1.23-3.75l2.82-8.13h2.76l-5.7,14.52
		h-2.521l-5.52-14.52H393.541z"/>
	<path d="M408.121,415.756c0.06,3.569,2.31,5.039,4.979,5.039c1.89,0,3.06-0.33,4.021-0.75l0.479,1.891
		c-0.931,0.42-2.55,0.93-4.86,0.93c-4.469,0-7.139-2.97-7.139-7.35s2.579-7.8,6.809-7.8c4.77,0,6,4.14,6,6.81
		c0,0.54-0.029,0.93-0.09,1.23H408.121z M415.86,413.865c0.03-1.649-0.69-4.26-3.659-4.26c-2.701,0-3.84,2.43-4.051,4.26H415.86z"/>
	<path d="M421.68,401.236h2.64v21.299h-2.64V401.236z"/>
	<path d="M429.72,408.016l3.149,8.58c0.36,0.96,0.72,2.1,0.96,2.97h0.061c0.27-0.87,0.569-1.98,0.93-3.03l2.879-8.52h2.791
		l-3.961,10.35c-1.889,4.979-3.18,7.5-4.979,9.09c-1.32,1.109-2.58,1.56-3.24,1.68l-0.66-2.189c0.66-0.21,1.529-0.63,2.31-1.29
		c0.72-0.57,1.591-1.59,2.22-2.94c0.121-0.27,0.211-0.479,0.211-0.63c0-0.149-0.061-0.359-0.211-0.689l-5.34-13.38H429.72z"/>
	<path d="M461.398,418.545c0,1.53,0.031,2.851,0.121,3.99h-2.34l-0.15-2.37h-0.061c-0.66,1.17-2.22,2.7-4.799,2.7
		c-2.281,0-5.01-1.29-5.01-6.359v-8.49h2.639v8.01c0,2.76,0.871,4.649,3.24,4.649c1.77,0,3-1.229,3.48-2.43
		c0.15-0.359,0.24-0.84,0.24-1.35v-8.88h2.639V418.545z"/>
	<path d="M465.419,419.865c0.809,0.48,2.189,1.02,3.51,1.02c1.889,0,2.789-0.93,2.789-2.159c0-1.26-0.75-1.92-2.67-2.641
		c-2.639-0.96-3.869-2.369-3.869-4.109c0-2.34,1.92-4.26,5.01-4.26c1.469,0,2.76,0.39,3.539,0.899l-0.629,1.92
		c-0.57-0.359-1.621-0.869-2.971-0.869c-1.561,0-2.4,0.899-2.4,1.979c0,1.2,0.84,1.74,2.73,2.49c2.49,0.93,3.811,2.189,3.811,4.35
		c0,2.58-2.01,4.38-5.4,4.38c-1.59,0-3.061-0.42-4.08-1.021L465.419,419.865z"/>
	<path d="M479.128,415.756c0.061,3.569,2.311,5.039,4.98,5.039c1.889,0,3.059-0.33,4.02-0.75l0.48,1.891
		c-0.93,0.42-2.551,0.93-4.861,0.93c-4.469,0-7.139-2.97-7.139-7.35s2.58-7.8,6.809-7.8c4.771,0,6,4.14,6,6.81
		c0,0.54-0.029,0.93-0.09,1.23H479.128z M486.869,413.865c0.029-1.649-0.689-4.26-3.66-4.26c-2.699,0-3.84,2.43-4.051,4.26H486.869z
		"/>
</g>
<g enable-background="new    ">
	<path d="M214.082,439.936c0,0.9-0.63,1.62-1.68,1.62c-0.96,0-1.59-0.72-1.59-1.62c0-0.899,0.66-1.649,1.65-1.649
		C213.422,438.286,214.082,439.006,214.082,439.936z M211.142,458.535v-14.52h2.64v14.52H211.142z"/>
	<path d="M218.162,447.945c0-1.529-0.03-2.729-0.12-3.93h2.34l0.15,2.4h0.06c0.72-1.351,2.4-2.7,4.8-2.7c2.01,0,5.13,1.2,5.13,6.18
		v8.64h-2.64v-8.37c0-2.34-0.87-4.289-3.36-4.289c-1.71,0-3.06,1.229-3.54,2.699c-0.12,0.33-0.18,0.78-0.18,1.23v8.729h-2.64
		V447.945z"/>
	<path d="M254.311,451.155c0,5.37-3.75,7.71-7.23,7.71c-3.9,0-6.959-2.88-6.959-7.47c0-4.83,3.209-7.68,7.2-7.68
		C251.491,443.716,254.311,446.746,254.311,451.155z M242.821,451.306c0,3.18,1.8,5.579,4.38,5.579c2.52,0,4.41-2.369,4.41-5.64
		c0-2.46-1.23-5.55-4.35-5.55C244.171,445.695,242.821,448.575,242.821,451.306z"/>
	<path d="M257.641,447.945c0-1.529-0.03-2.729-0.12-3.93h2.34l0.15,2.4h0.06c0.72-1.351,2.4-2.7,4.8-2.7c2.01,0,5.13,1.2,5.13,6.18
		v8.64h-2.64v-8.37c0-2.34-0.87-4.289-3.36-4.289c-1.71,0-3.06,1.229-3.54,2.699c-0.12,0.33-0.18,0.78-0.18,1.23v8.729h-2.64
		V447.945z"/>
	<path d="M275.761,451.756c0.06,3.569,2.31,5.039,4.979,5.039c1.89,0,3.06-0.33,4.021-0.75l0.479,1.891
		c-0.931,0.42-2.55,0.93-4.86,0.93c-4.469,0-7.139-2.97-7.139-7.35s2.579-7.8,6.809-7.8c4.77,0,6,4.14,6,6.81
		c0,0.54-0.029,0.93-0.09,1.23H275.761z M283.5,449.865c0.03-1.649-0.69-4.26-3.659-4.26c-2.701,0-3.84,2.43-4.051,4.26H283.5z"/>
	<path d="M308.19,437.236v17.549c0,1.29,0.06,2.76,0.12,3.75h-2.34l-0.12-2.52h-0.09c-0.78,1.619-2.521,2.85-4.89,2.85
		c-3.51,0-6.24-2.97-6.24-7.38c-0.029-4.83,3-7.77,6.51-7.77c2.25,0,3.721,1.05,4.38,2.189h0.06v-8.669H308.19z M305.58,449.926
		c0-0.33-0.029-0.78-0.119-1.11c-0.391-1.649-1.83-3.029-3.811-3.029c-2.729,0-4.35,2.399-4.35,5.579c0,2.94,1.471,5.37,4.29,5.37
		c1.771,0,3.39-1.2,3.87-3.15c0.09-0.359,0.119-0.72,0.119-1.14V449.926z"/>
	<path d="M322.8,455.056c0,1.26,0.061,2.489,0.21,3.479h-2.37l-0.21-1.83h-0.09c-0.81,1.14-2.37,2.16-4.44,2.16
		c-2.939,0-4.439-2.07-4.439-4.17c0-3.51,3.12-5.43,8.73-5.399v-0.301c0-1.17-0.33-3.359-3.301-3.329c-1.38,0-2.789,0.39-3.81,1.08
		l-0.601-1.771c1.201-0.75,2.971-1.26,4.801-1.26c4.439,0,5.52,3.03,5.52,5.91V455.056z M320.25,451.125
		c-2.879-0.06-6.148,0.45-6.148,3.271c0,1.739,1.139,2.52,2.459,2.52c1.92,0,3.15-1.2,3.57-2.43c0.09-0.3,0.119-0.6,0.119-0.84
		V451.125z"/>
	<path d="M327.781,444.016l3.149,8.58c0.36,0.96,0.72,2.1,0.96,2.97h0.061c0.27-0.87,0.569-1.98,0.93-3.03l2.879-8.52h2.791
		l-3.961,10.35c-1.889,4.979-3.18,7.5-4.979,9.09c-1.32,1.109-2.58,1.56-3.24,1.68l-0.66-2.189c0.66-0.21,1.529-0.63,2.31-1.29
		c0.72-0.57,1.591-1.59,2.22-2.94c0.121-0.27,0.211-0.479,0.211-0.63c0-0.149-0.061-0.359-0.211-0.689l-5.34-13.38H327.781z"/>
</g>
<rect x="189.037" y="313.761" fill="none" width="284.21" height="50.877"/>
<g enable-background="new    ">
	<path d="M276.218,350.76c-2.299,0-4.3-0.899-5.55-2.05v1.5h-6.9v-33.002l6.9-3.45v11.851c1.3-1.15,3.05-2.2,5.55-2.2
		c5.602,0,10.201,4.2,10.201,14.001C286.419,345.26,282.719,350.76,276.218,350.76z M274.919,329.909
		c-2.15,0-3.251,0.899-4.251,2.199v9.901c1.05,1.45,2.65,2.25,4.65,2.25c2.65,0,4.101-2.301,4.101-6.7
		C279.419,332.159,277.619,329.909,274.919,329.909z"/>
	<path d="M295.568,321.809c-2.15,0-3.95-1.801-3.95-3.95c0-2.15,1.8-3.95,3.95-3.95s3.95,1.8,3.95,3.95
		C299.518,320.008,297.718,321.809,295.568,321.809z M292.118,350.21v-26.252h6.9v26.252H292.118z"/>
	<path d="M306.218,350.21v-33.002l6.9-3.45v36.452H306.218z"/>
	<path d="M320.318,350.21v-33.002l6.9-3.45v36.452H320.318z"/>
	<path d="M337.868,321.809c-2.149,0-3.95-1.801-3.95-3.95c0-2.15,1.801-3.95,3.95-3.95c2.15,0,3.95,1.8,3.95,3.95
		C341.818,320.008,340.018,321.809,337.868,321.809z M334.417,350.21v-26.252h6.9v26.252H334.417z"/>
	<path d="M358.769,350.76c-6.852,0-11.852-5.601-11.852-13.65c0-8.051,5-13.701,11.852-13.701c6.85,0,11.9,5.65,11.9,13.701
		C370.669,345.159,365.619,350.76,358.769,350.76z M358.769,330.059c-3.301,0-4.852,3-4.852,7.051c0,4.05,1.551,7,4.852,7
		c3.299,0,4.899-3.35,4.899-7C363.668,333.109,362.068,330.059,358.769,330.059z"/>
	<path d="M391.869,350.21v-14.201c0-4.7-1.601-6.1-4.451-6.1c-2.85,0-4.5,1.399-4.5,5.95v14.351h-6.9v-26.252h6.9v1.75
		c1.2-1.25,3.4-2.3,6.15-2.3c6.701,0,9.701,4.601,9.701,12.001v14.801H391.869z"/>
</g>
<path fill="#19162B" d="M415.859,537.077c-1.018-0.161-1.264,0.705-1.941,0c0.26-1.123-0.482-1.243-0.322-2.268
	c-0.857-0.002-1.85,0.123-2.268-0.321c-0.537-3.453-1.908-6.072-2.586-9.385c-1.279-0.015-1.877-0.712-2.914-0.972
	c-0.795,0.715-1.418,1.603-2.588,1.943c-0.912-0.06-0.402-1.539-1.617-1.295c-1.273,3.123-3.541,8.061-1.939,11.972
	c-0.832,1.325-1.697,2.616-1.617,4.854c-1.162-0.269-1.566,0.729-2.268,0c-0.32,0.975-0.238,2.349-1.293,2.588
	c-3.355,0.596-7.104,2.102-10.68,2.912c-1.711,0.391-3.492,0.104-4.852,0.972c-1.571,1.001-2.114,3.308-3.236,4.853
	c-0.777,1.074-2.388,1.24-1.939,2.911c1.494,0.52,1.214,2.253,1.293,3.237c-3.053,4.398-8.731,2.256-13.59,4.529
	c0.094,1.526,1.066,2.17,1.619,3.233c-4.17,5.646-10.184,9.447-16.824,12.621c-1.026-1.348-4.278-0.471-4.854-2.266
	c1.682-1.61,1.355-6.02,3.881-5.824c-0.312-4.217-0.865-8.193-3.557-10.031c-2.121,0.254-1.832,2.916-3.562,3.561
	c-1.289,0.212-0.927-1.229-0.97-2.266c3.707-0.957,1.22-6.677,1.941-8.412c-0.854,0.099-0.835-0.676-0.972-1.295
	c-3.486-0.016-6.469-3.886-8.412-0.323c-0.283,1.041,1.066,0.442,0.972,1.296c-1.12-0.257-1.366,0.357-1.94,0.646
	c-0.246,1.967,0.883,3.299-0.972,3.56c-0.495-1.555,1.374-2.773,0-3.236c-2.972,3.254-3.132,6.713-3.56,12.295
	c3.605,3.488,2.535,12.218-2.266,13.59c-6.777-6.092-2.979-18.624-1.294-25.561c-1.313,1.6-2.668,4.877-4.206,5.176
	c1.088-3.117,3.061-5.352,3.883-8.736c2.771,0.708,4.35-1.382,7.764-2.262c2.878,0.473,5.418-0.028,7.441-0.324
	c-1.463-0.262-1.861-1.59-1.617-3.56c-1.728,0.049-3.017,1.349-4.527,0.646c0-0.646,0-1.293,0-1.94
	c-4.713,0.524-7.154,3.562-11.324,2.912c-0.548-2.62-4.252-3.158-5.178-1.94c0.496-2.091,2.188-2.989,3.234-4.53
	c-3.195,0.039-4.322,2.147-5.824,3.884c-2.211,1.237-4.783,2.118-6.793,3.56c-0.346-1.224-1.92,0.011-2.267-0.648
	c0.288-0.682,0.985-0.953,0.972-1.938c-1.658-0.614-3.787,2.626-6.146,1.294c2.359-1.31,3.322-4.25,5.5-5.824
	c1.828-1.322,4.49-1.064,5.824-3.235c-1.906-0.377-4.943-0.133-6.148-1.295c-1.671,1.725-5.054,1.543-5.5-0.646
	c-2.779,0.854-5.129-3.112-7.765-0.648c-1.341-0.491-2.337-1.332-4.206-1.294c-1.412-0.962-0.085-4.66-2.588-4.529
	c-0.741,0.337,0.152,2.311-0.648,2.59c-47.918,0.895-88.372-7.4-124.889-16.824c1.502,2.368,0.14,5.231,0.646,7.117
	c-1.54-1.228-0.774-2.246-0.646-3.236c-1.303-0.224-0.795,1.363-1.942,1.295c-3.327-0.555-5.158-2.606-7.765-3.883
	c-0.235,3.015-0.509,8.061,0.971,10.354c-0.564-0.024-1.007,0.074-1.295,0.324c-0.346,1.208,0.804,0.921,0.647,1.941
	c-1.336,0.848-1.817,2.518-0.323,3.233c-1.04-0.282-0.67,0.841-1.294,0.972c-2.248,7.354-4.87,14.326-9.061,19.735
	c0.088,1.922-0.353,3.315-0.646,4.855c1.938,5.014-2.356,8.954-3.883,12.616c3.65,2.319,0.257,6.584,0.647,9.708
	c0.169,1.35,2.48,3.396,2.588,5.5c0.105,2.055,0.302,2.693,1.618,3.883c-1.71,2.771-0.041,6.367,1.942,7.44
	c-0.179,1.115-1.488,1.101-1.618,2.267c0.132,4.25,4.253,7.623,4.529,11.324c0.127,1.705-1.549,2.938-0.323,4.529
	c5.662-0.163,6.275,4.725,10.353,6.146c0.193,1.031-0.608,1.001,0,1.616c3.768,0.87,5.108,4.167,4.854,9.06
	c3.967,1.426,9.424,1.359,13.912,2.267c-0.004,0.644-0.883,0.41-0.647,1.293c5.088,2.51,9.875,5.979,14.559,8.736
	c6.036,3.555,13.164,4.42,22.325,5.5c0.165-1.13,0.147-2.441,0.647-3.234c3.159,0.509,6.253,1.078,9.708,1.294
	c2.24,2.829,3.948,6.188,7.441,7.767c1.828,1.952,1.248,4.075,1.94,6.795c0.917,3.591,5.469,4.435,8.412,6.47
	c2.314-1.463,2.021-5.529,5.502-5.823c6.852,0.805,10.201,5.112,11.324,11.647c2.333,1.226,2.93,4.188,5.176,5.498
	c-1.427,8.145,7.746,10.13,13.267,11.326c-1.021-4.308-0.795-8.568-0.324-13.265c5.461-3.71,12.115-6.224,16.502-11.004
	c4.606-3.852,12.716-0.996,17.474-0.972c-0.185-1.816-2.167-0.057-2.59-1.291c2.028-1.88,3.644,1.275,5.5,1.616
	c0.071,0.611-0.363,0.715-0.324,1.294c1.128,0.492,2.009,1.229,3.56,1.294c0.803-0.602,1.217-1.588,2.59-1.616
	c1.068,0.646-0.805,1.382,0,1.616c2.563-0.796,0.576-2.466,2.588-3.236c0.486,1.542,4.843,3.592,5.178,1.295
	c-0.908-1.247-3.591-0.725-4.206-2.263c1.015-0.854,2.293-1.141,1.618-3.56c-1.438-0.145-0.803,1.786-2.59,1.294
	c1.441-3.851,4.814-3.364,9.384-3.56c0.638-0.549,0.12-2.252,1.296-2.266c0.676,0.534,1.562,2.369,0.322,2.911
	c5.347-1.745,13.135-3.178,15.854,1.942c2.866-0.241,5.479-1.424,5.824-3.236c5.537-0.577,5.184,4.74,9.705,5.179
	c2.711,2.206-0.377,8.233,2.266,10.353c0.793-0.902-0.246-2.179,0-2.267c0.484,0.058,1.193-0.115,1.295,0.326
	c0.135,1.535-1.223,1.582-1.295,2.91c1.684,1.874,3.045,4.073,4.207,6.47c0.914,0.271,0.838-0.454,1.617-0.322
	c0.661,1.065,1.006,2.443,1.617,3.56c2.841-0.648,4.055,2.457,4.854,4.854c1.229-0.397,3.348-1.601,4.205-1.294
	c-0.431,1.948-3.668,2.798-3.559,4.208c2.255-1.63,4.324-3.442,4.854-6.796c-1.15-0.505-0.195,1.1-0.972,0.972
	c2.445-8.48-2.229-14.29-5.176-19.416c0.003-0.642,0.882-0.409,0.646-1.294c-4.896-4.383-10.06-13.165-7.115-21.676
	c0.685-1.979,2.871-3.09,2.91-5.176c3.082-1.02,3.883-4.314,6.473-5.824c-0.186-4.283,2.145-6.054,5.822-6.472
	c-0.287-6.408,7.897-5.188,8.09-9.384c-0.254,0.566-2.801,0.964-3.236,0c1.352,1.08,2.258-1.735,0.973-2.264
	c2.092,0.601,4.334-0.339,4.527-2.59c-0.516-0.886-1.975,0.755-2.586-0.324c1.148,0.073,1.938-0.218,2.264-0.97l-0.162-0.486
	l0.484,0.162c-1.374-2.077-2.473-4.429-3.559-6.796c-0.735,0.005-1.562-0.085-2.047,0.167c1.287-1.067-1.486-2.324-0.864-3.077
	c0.323,0,0.384,0.263,0.646,0.323c-0.187-2.402-0.904-4.271-2.586-5.178c0.869,0.224,0.625-0.668,0.971-0.97
	c-2.248-1.438-2.597-7.44-0.324-7.768c-1.467,1.354,0.937,2.973-0.645,4.531c1.449,0.02,0.531,0.461,0.645,2.264
	c1.723,0.113,1.369,2.3,2.589,2.912c0.474-1.149-1.04-1.938-0.324-2.264c3.396,1.192-0.622,5.926,1.942,7.766
	c0.643-4.175,3.64-8.093,1.938-12.62c-2.267-0.644-2.591-3.23-3.882-4.851c0.877,1.276,2.119,2.192,4.206,2.262
	c0.134,0.781-0.591,0.705-0.324,1.619c2.433-2.297,4.351-6.527,3.238-11.326c-0.386-0.793-1.224,0.665-1.62-0.322
	c0.66-0.096,0.637-0.875,1.296-0.971l-0.161-0.875l0.485-0.742c2.284-4.617,8.948-4.853,12.94-7.766
	c0.404-0.969-0.154-1.617,1.293-1.941c0.186,1.048-0.096,1.627-0.645,1.941c1.469-0.797,2.174-2.355,4.205-2.588
	c-0.049-1.678-0.504-2.949-2.266-2.912c0.154,1.033,1.658,0.713,1.617,1.94c-2.799,2.479-3.369-3.011-5.5-2.266
	c0.199-2.854-0.166-6.76,1.295-11.001c1.799,0.311,3.014-1.657,4.529-2.588c0.234-1.122-0.354-3.069,0-3.235
	c0.381,0.484,1.346,0.381,1.293,1.295c-0.768,0.486-1.193,0.491-0.646,1.616c1.629-0.387,0.875-2.605,1.939-3.558
	c-0.09,0.844-0.105,1.62,0.973,1.294c0.613-1.906-0.391-0.903-0.646-1.942C414.093,544.429,418.853,539.498,415.859,537.077z"/>
<rect x="205.78" y="591.198" fill="none" width="176.64" height="37.817"/>
<g enable-background="new    ">
	<path fill="#6BBDC4" d="M207.783,621.602c0.292-8.549,5.463-12.344,11.218-15.764c3.961-2.335,4.962-3.628,4.962-5.671
		c0-2.336-1.584-3.837-5.588-3.837c-2.46,0-5.171,1.126-7.048,2.919l-2.794-3.336c2.627-2.461,6.339-3.962,9.967-3.962
		c6.047,0,9.925,2.586,9.925,7.965c0,4.504-2.21,6.423-7.34,9.467c-5.588,3.295-7.173,5.171-7.84,7.965h15.471v4.254H207.783z"/>
</g>
<g enable-background="new    ">
	<path fill="#6BBDC4" d="M253.949,615.055v6.547h-4.253v-6.422h-15.805v-4.171l15.054-18.599h5.004v18.766h3.878v3.879H253.949z
		 M247.193,600.792l-5.63,7.173c-0.875,1.126-2.126,2.586-2.752,3.253c1,0,3.211-0.042,4.712-0.042h6.172v-8.507
		c0-1.668,0.125-4.254,0.125-5.338C249.279,598.081,248.153,599.583,247.193,600.792z"/>
</g>
<g enable-background="new    ">
	<path fill="#6BBDC4" d="M287.731,621.602v-12.386c0-4.42-1.668-6.005-4.503-6.005c-2.878,0-4.504,2.043-4.504,5.588v12.803h-4.296
		v-28.149l4.296-2.252v10.593c1.084-1.585,3.252-2.544,5.504-2.544c5.088,0,7.799,3.336,7.799,9.8v12.553H287.731z"/>
</g>
<g enable-background="new    ">
	<path fill="#6BBDC4" d="M310.085,604.254c-0.918-0.501-1.877-0.793-3.295-0.793c-2.711,0-4.295,1.918-4.295,5.63v12.511h-4.295
		v-21.894h4.295v2.085c1-1.46,2.836-2.544,5.004-2.544c1.752,0,2.836,0.334,3.712,0.918L310.085,604.254z"/>
</g>
<g enable-background="new    ">
	<path fill="#6BBDC4" d="M322.724,622.061c-2.961,0-6.172-1.168-8.383-2.794l1.96-3.253c2.044,1.418,4.337,2.168,6.381,2.168
		c2.71,0,4.003-0.875,4.003-2.418c0-1.669-1.918-2.461-5.088-3.67c-4.712-1.835-6.422-3.42-6.422-6.881
		c0-3.92,3.086-5.964,7.465-5.964c2.752,0,5.463,1.001,7.423,2.419l-1.876,3.294c-1.793-1.251-3.587-1.876-5.672-1.876
		s-3.002,0.834-3.002,2.002c0,1.084,0.75,1.876,4.045,3.169c4.879,1.877,7.381,3.211,7.381,7.34
		C330.939,620.434,327.019,622.061,322.724,622.061z"/>
</g>
</svg>
