<?xml version="1.0" encoding="utf-8"?>
<!-- Generator: Adobe Illustrator 15.1.0, SVG Export Plug-In . SVG Version: 6.00 Build 0)  -->
<!DOCTYPE svg PUBLIC "-//W3C//DTD SVG 1.1//EN" "http://www.w3.org/Graphics/SVG/1.1/DTD/svg11.dtd">
<svg version="1.1" id="Layer_1" xmlns="http://www.w3.org/2000/svg" xmlns:xlink="http://www.w3.org/1999/xlink" x="0px" y="0px"
	 width="536.378px" height="780.521px" viewBox="0 0 536.378 780.521" enable-background="new 0 0 536.378 780.521"
	 xml:space="preserve">
<rect x="165.537" y="232.964" fill="none" width="335.21" height="115.885"/>
<g enable-background="new    ">
	<path d="M202.08,313.152v-55.66h-13.2v-11.33c8.58-0.44,14.19-3.63,15.73-10.01h12.76v77H202.08z"/>
	<path d="M242.779,327.013h-10.34l1.65-32.45h17.93L242.779,327.013z"/>
	<path d="M292.498,314.362c-11.109,0-20.35-2.2-30.03-8.25l7.48-13.09c7.15,4.069,14.74,6.49,22.55,6.49
		c10.451,0,16.5-4.4,16.5-12.65c0-8.03-5.83-11.44-13.09-11.44c-6.93,0-11.55,2.09-15.18,4.62l-14.63-5.39l2.64-38.5h51.26v14.85
		h-37.069l-0.88,13.311c4.289-2.311,8.91-3.521,16.17-3.521c17.27,0,26.4,11,26.4,25.521
		C324.619,304.792,311.417,314.362,292.498,314.362z"/>
	<path d="M368.068,314.362c-21.01,0-32.23-16.28-32.23-39.71c0-23.431,11.33-39.71,32.341-39.71c21.01,0,32.34,16.06,32.34,39.489
		C400.518,297.862,389.078,314.362,368.068,314.362z M368.068,250.012c-11.77,0-16.609,10.67-16.609,24.42
		c0,13.751,4.949,24.86,16.72,24.86s16.72-10.89,16.72-24.64S379.838,250.012,368.068,250.012z"/>
	<path d="M443.747,314.362c-21.01,0-32.229-16.28-32.229-39.71c0-23.431,11.33-39.71,32.34-39.71s32.34,16.06,32.34,39.489
		C476.197,297.862,464.757,314.362,443.747,314.362z M443.747,250.012c-11.771,0-16.61,10.67-16.61,24.42
		c0,13.751,4.951,24.86,16.721,24.86s16.721-10.89,16.721-24.64S455.517,250.012,443.747,250.012z"/>
</g>
<rect x="-19.884" y="411.235" fill="none" width="587.719" height="62.175"/>
<g enable-background="new    ">
	<path d="M91.264,429.056c0,1.26,0.06,2.489,0.21,3.479h-2.37l-0.21-1.83h-0.09c-0.81,1.14-2.37,2.16-4.44,2.16
		c-2.94,0-4.44-2.07-4.44-4.17c0-3.51,3.12-5.43,8.73-5.399v-0.301c0-1.17-0.33-3.359-3.3-3.329c-1.38,0-2.79,0.39-3.81,1.08
		l-0.6-1.771c1.2-0.75,2.97-1.26,4.8-1.26c4.44,0,5.52,3.03,5.52,5.91V429.056z M88.714,425.125c-2.88-0.06-6.15,0.45-6.15,3.271
		c0,1.739,1.14,2.52,2.46,2.52c1.92,0,3.15-1.2,3.57-2.43c0.09-0.3,0.12-0.6,0.12-0.84V425.125z"/>
	<path d="M95.524,421.945c0-1.529-0.06-2.729-0.12-3.93h2.31l0.12,2.37h0.09c0.81-1.38,2.16-2.67,4.59-2.67
		c1.95,0,3.45,1.2,4.08,2.91h0.06c0.45-0.84,1.05-1.44,1.65-1.891c0.87-0.659,1.8-1.02,3.18-1.02c1.95,0,4.8,1.26,4.8,6.3v8.52
		h-2.58v-8.189c0-2.82-1.05-4.47-3.15-4.47c-1.53,0-2.67,1.109-3.15,2.369c-0.12,0.391-0.21,0.841-0.21,1.32v8.97h-2.58v-8.699
		c0-2.311-1.02-3.96-3.03-3.96c-1.62,0-2.85,1.319-3.27,2.64c-0.15,0.36-0.21,0.84-0.21,1.29v8.729h-2.58V421.945z"/>
	<path d="M133.684,425.155c0,5.37-3.75,7.71-7.23,7.71c-3.9,0-6.959-2.88-6.959-7.47c0-4.83,3.209-7.68,7.2-7.68
		C130.863,417.716,133.684,420.746,133.684,425.155z M122.194,425.306c0,3.18,1.8,5.579,4.38,5.579c2.52,0,4.41-2.369,4.41-5.64
		c0-2.46-1.23-5.55-4.35-5.55C123.544,419.695,122.194,422.575,122.194,425.306z"/>
	<path d="M149.163,428.545c0,1.53,0.03,2.851,0.12,3.99h-2.34l-0.15-2.37h-0.06c-0.66,1.17-2.22,2.7-4.8,2.7
		c-2.28,0-5.01-1.29-5.01-6.359v-8.49h2.64v8.01c0,2.76,0.87,4.649,3.24,4.649c1.77,0,3-1.229,3.48-2.43
		c0.15-0.359,0.24-0.84,0.24-1.35v-8.88h2.64V428.545z"/>
	<path d="M153.543,421.945c0-1.529-0.03-2.729-0.12-3.93h2.34l0.15,2.4h0.06c0.72-1.351,2.4-2.7,4.8-2.7c2.01,0,5.13,1.2,5.13,6.18
		v8.64h-2.64v-8.37c0-2.34-0.87-4.289-3.36-4.289c-1.71,0-3.06,1.229-3.54,2.699c-0.12,0.33-0.18,0.78-0.18,1.23v8.729h-2.64
		V421.945z"/>
	<path d="M173.253,414.536v3.479h3.78v2.01h-3.78v7.83c0,1.8,0.51,2.819,1.98,2.819c0.72,0,1.14-0.06,1.53-0.18l0.12,2.01
		c-0.51,0.181-1.32,0.36-2.34,0.36c-1.23,0-2.22-0.42-2.85-1.11c-0.72-0.81-1.02-2.1-1.02-3.81v-7.92h-2.25v-2.01h2.25v-2.7
		L173.253,414.536z"/>
	<path d="M186.363,421.945c0-1.529-0.03-2.729-0.12-3.93h2.34l0.15,2.4h0.06c0.72-1.351,2.4-2.7,4.8-2.7c2.01,0,5.13,1.2,5.13,6.18
		v8.64h-2.64v-8.37c0-2.34-0.87-4.289-3.36-4.289c-1.71,0-3.06,1.229-3.54,2.699c-0.12,0.33-0.18,0.78-0.18,1.23v8.729h-2.64
		V421.945z"/>
	<path d="M204.482,425.756c0.06,3.569,2.31,5.039,4.98,5.039c1.89,0,3.06-0.33,4.02-0.75l0.48,1.891c-0.93,0.42-2.55,0.93-4.86,0.93
		c-4.47,0-7.14-2.97-7.14-7.35s2.58-7.8,6.81-7.8c4.77,0,6,4.14,6,6.81c0,0.54-0.03,0.93-0.09,1.23H204.482z M212.222,423.865
		c0.03-1.649-0.69-4.26-3.66-4.26c-2.7,0-3.84,2.43-4.05,4.26H212.222z"/>
	<path d="M219.512,425.756c0.06,3.569,2.31,5.039,4.98,5.039c1.89,0,3.06-0.33,4.02-0.75l0.48,1.891c-0.93,0.42-2.55,0.93-4.86,0.93
		c-4.47,0-7.14-2.97-7.14-7.35s2.58-7.8,6.81-7.8c4.77,0,6,4.14,6,6.81c0,0.54-0.03,0.93-0.09,1.23H219.512z M227.252,423.865
		c0.03-1.649-0.69-4.26-3.66-4.26c-2.7,0-3.84,2.43-4.05,4.26H227.252z"/>
	<path d="M245.582,411.236v17.549c0,1.29,0.06,2.76,0.12,3.75h-2.34l-0.12-2.52h-0.09c-0.78,1.619-2.52,2.85-4.89,2.85
		c-3.51,0-6.24-2.97-6.24-7.38c-0.03-4.83,3-7.77,6.51-7.77c2.25,0,3.72,1.05,4.379,2.189h0.06v-8.669H245.582z M242.972,423.926
		c0-0.33-0.03-0.78-0.12-1.11c-0.39-1.649-1.83-3.029-3.81-3.029c-2.73,0-4.35,2.399-4.35,5.579c0,2.94,1.47,5.37,4.29,5.37
		c1.77,0,3.39-1.2,3.87-3.15c0.09-0.359,0.12-0.72,0.12-1.14V423.926z"/>
	<path d="M251.462,425.756c0.06,3.569,2.31,5.039,4.98,5.039c1.89,0,3.06-0.33,4.02-0.75l0.48,1.891c-0.93,0.42-2.55,0.93-4.86,0.93
		c-4.47,0-7.14-2.97-7.14-7.35s2.58-7.8,6.81-7.8c4.77,0,6,4.14,6,6.81c0,0.54-0.03,0.93-0.09,1.23H251.462z M259.202,423.865
		c0.03-1.649-0.69-4.26-3.66-4.26c-2.7,0-3.84,2.43-4.05,4.26H259.202z"/>
	<path d="M277.531,411.236v17.549c0,1.29,0.061,2.76,0.121,3.75h-2.34l-0.121-2.52h-0.09c-0.779,1.619-2.52,2.85-4.889,2.85
		c-3.511,0-6.24-2.97-6.24-7.38c-0.03-4.83,3-7.77,6.51-7.77c2.25,0,3.72,1.05,4.379,2.189h0.061v-8.669H277.531z M274.921,423.926
		c0-0.33-0.029-0.78-0.119-1.11c-0.391-1.649-1.83-3.029-3.811-3.029c-2.73,0-4.35,2.399-4.35,5.579c0,2.94,1.47,5.37,4.289,5.37
		c1.771,0,3.391-1.2,3.871-3.15c0.09-0.359,0.119-0.72,0.119-1.14V423.926z"/>
	<path d="M291.481,414.536v3.479h3.78v2.01h-3.78v7.83c0,1.8,0.511,2.819,1.979,2.819c0.721,0,1.141-0.06,1.531-0.18l0.119,2.01
		c-0.51,0.181-1.32,0.36-2.34,0.36c-1.23,0-2.22-0.42-2.85-1.11c-0.721-0.81-1.02-2.1-1.02-3.81v-7.92h-2.25v-2.01h2.25v-2.7
		L291.481,414.536z"/>
	<path d="M311.191,425.155c0,5.37-3.75,7.71-7.23,7.71c-3.899,0-6.959-2.88-6.959-7.47c0-4.83,3.209-7.68,7.199-7.68
		C308.371,417.716,311.191,420.746,311.191,425.155z M299.701,425.306c0,3.18,1.801,5.579,4.381,5.579
		c2.52,0,4.409-2.369,4.409-5.64c0-2.46-1.229-5.55-4.35-5.55C301.051,419.695,299.701,422.575,299.701,425.306z"/>
	<path d="M320.88,422.756c0-1.86-0.06-3.36-0.119-4.74h2.34l0.15,2.49h0.059c1.051-1.771,2.791-2.79,5.16-2.79
		c3.54,0,6.18,2.97,6.18,7.35c0,5.22-3.209,7.8-6.629,7.8c-1.92,0-3.6-0.84-4.471-2.28h-0.06v7.89h-2.61V422.756z M323.491,426.625
		c0,0.391,0.03,0.75,0.12,1.08c0.48,1.83,2.07,3.09,3.959,3.09c2.791,0,4.41-2.279,4.41-5.609c0-2.88-1.529-5.37-4.319-5.37
		c-1.8,0-3.51,1.26-3.989,3.24c-0.091,0.33-0.181,0.72-0.181,1.05V426.625z"/>
	<path d="M337.951,422.546c0-1.71-0.031-3.181-0.121-4.53h2.311l0.12,2.88h0.09c0.66-1.95,2.28-3.18,4.05-3.18
		c0.27,0,0.48,0.03,0.721,0.06v2.49c-0.271-0.06-0.541-0.06-0.9-0.06c-1.86,0-3.18,1.38-3.54,3.359
		c-0.06,0.36-0.091,0.81-0.091,1.23v7.739h-2.639V422.546z"/>
	<path d="M360.6,425.155c0,5.37-3.75,7.71-7.229,7.71c-3.9,0-6.96-2.88-6.96-7.47c0-4.83,3.21-7.68,7.2-7.68
		C357.78,417.716,360.6,420.746,360.6,425.155z M349.111,425.306c0,3.18,1.799,5.579,4.379,5.579c2.521,0,4.41-2.369,4.41-5.64
		c0-2.46-1.23-5.55-4.35-5.55C350.46,419.695,349.111,422.575,349.111,425.306z"/>
	<path d="M374.28,432.025c-0.69,0.33-2.22,0.84-4.17,0.84c-4.38,0-7.229-2.97-7.229-7.41c0-4.47,3.06-7.739,7.799-7.739
		c1.561,0,2.94,0.39,3.66,0.78l-0.6,2.01c-0.63-0.33-1.62-0.69-3.061-0.69c-3.329,0-5.129,2.49-5.129,5.49
		c0,3.359,2.16,5.43,5.039,5.43c1.5,0,2.49-0.36,3.24-0.69L374.28,432.025z"/>
	<path d="M378.66,425.756c0.061,3.569,2.311,5.039,4.98,5.039c1.891,0,3.061-0.33,4.02-0.75l0.48,1.891
		c-0.93,0.42-2.551,0.93-4.859,0.93c-4.471,0-7.141-2.97-7.141-7.35s2.58-7.8,6.811-7.8c4.77,0,5.999,4.14,5.999,6.81
		c0,0.54-0.03,0.93-0.09,1.23H378.66z M386.4,423.865c0.03-1.649-0.689-4.26-3.66-4.26c-2.699,0-3.84,2.43-4.049,4.26H386.4z"/>
	<path d="M391.861,429.865c0.809,0.48,2.189,1.02,3.51,1.02c1.889,0,2.789-0.93,2.789-2.159c0-1.26-0.75-1.92-2.67-2.641
		c-2.64-0.96-3.869-2.369-3.869-4.109c0-2.34,1.92-4.26,5.01-4.26c1.47,0,2.76,0.39,3.539,0.899l-0.629,1.92
		c-0.57-0.359-1.621-0.869-2.971-0.869c-1.56,0-2.4,0.899-2.4,1.979c0,1.2,0.841,1.74,2.73,2.49c2.49,0.93,3.811,2.189,3.811,4.35
		c0,2.58-2.011,4.38-5.4,4.38c-1.59,0-3.061-0.42-4.08-1.021L391.861,429.865z"/>
	<path d="M403.74,429.865c0.811,0.48,2.19,1.02,3.51,1.02c1.891,0,2.791-0.93,2.791-2.159c0-1.26-0.75-1.92-2.67-2.641
		c-2.641-0.96-3.871-2.369-3.871-4.109c0-2.34,1.92-4.26,5.01-4.26c1.471,0,2.76,0.39,3.541,0.899l-0.631,1.92
		c-0.57-0.359-1.619-0.869-2.97-0.869c-1.56,0-2.399,0.899-2.399,1.979c0,1.2,0.84,1.74,2.729,2.49c2.489,0.93,3.81,2.189,3.81,4.35
		c0,2.58-2.01,4.38-5.399,4.38c-1.59,0-3.06-0.42-4.079-1.021L403.74,429.865z"/>
	<path d="M435.479,425.155c0,5.37-3.75,7.71-7.229,7.71c-3.9,0-6.96-2.88-6.96-7.47c0-4.83,3.21-7.68,7.2-7.68
		C432.659,417.716,435.479,420.746,435.479,425.155z M423.99,425.306c0,3.18,1.799,5.579,4.379,5.579c2.521,0,4.41-2.369,4.41-5.64
		c0-2.46-1.23-5.55-4.35-5.55C425.339,419.695,423.99,422.575,423.99,425.306z"/>
	<path d="M438.81,421.945c0-1.529-0.031-2.729-0.121-3.93h2.34l0.15,2.4h0.061c0.72-1.351,2.399-2.7,4.799-2.7
		c2.011,0,5.131,1.2,5.131,6.18v8.64h-2.641v-8.37c0-2.34-0.869-4.289-3.359-4.289c-1.71,0-3.061,1.229-3.54,2.699
		c-0.12,0.33-0.181,0.78-0.181,1.23v8.729h-2.639V421.945z"/>
	<path d="M456.929,425.756c0.061,3.569,2.311,5.039,4.98,5.039c1.89,0,3.06-0.33,4.02-0.75l0.48,1.891
		c-0.931,0.42-2.551,0.93-4.86,0.93c-4.47,0-7.14-2.97-7.14-7.35s2.58-7.8,6.81-7.8c4.771,0,5.999,4.14,5.999,6.81
		c0,0.54-0.029,0.93-0.09,1.23H456.929z M464.669,423.865c0.029-1.649-0.69-4.26-3.66-4.26c-2.699,0-3.84,2.43-4.05,4.26H464.669z"
		/>
</g>
<g enable-background="new    ">
	<path d="M192.092,447.236h2.61v9.119h0.06c0.93-1.62,2.61-2.64,4.95-2.64c3.63,0,6.15,3,6.15,7.38c0,5.189-3.3,7.77-6.54,7.77
		c-2.1,0-3.78-0.811-4.89-2.7h-0.06l-0.15,2.37h-2.25c0.06-0.99,0.12-2.46,0.12-3.75V447.236z M194.702,462.716
		c0,0.329,0.03,0.659,0.12,0.96c0.48,1.829,2.04,3.09,3.96,3.09c2.79,0,4.41-2.25,4.41-5.58c0-2.91-1.5-5.399-4.35-5.399
		c-1.77,0-3.45,1.26-3.99,3.239c-0.09,0.33-0.15,0.69-0.15,1.11V462.716z"/>
	<path d="M219.361,465.056c0,1.26,0.06,2.489,0.21,3.479h-2.37l-0.21-1.83h-0.09c-0.81,1.14-2.37,2.16-4.44,2.16
		c-2.94,0-4.44-2.07-4.44-4.17c0-3.51,3.12-5.43,8.73-5.399v-0.301c0-1.17-0.33-3.359-3.3-3.329c-1.38,0-2.79,0.39-3.81,1.08
		l-0.6-1.771c1.2-0.75,2.97-1.26,4.8-1.26c4.44,0,5.52,3.03,5.52,5.91V465.056z M216.811,461.125c-2.88-0.06-6.15,0.45-6.15,3.271
		c0,1.739,1.14,2.52,2.46,2.52c1.92,0,3.15-1.2,3.57-2.43c0.09-0.3,0.12-0.6,0.12-0.84V461.125z"/>
	<path d="M223.621,458.546c0-1.71-0.03-3.181-0.12-4.53h2.31l0.12,2.88h0.09c0.66-1.95,2.28-3.18,4.05-3.18
		c0.27,0,0.48,0.03,0.72,0.06v2.49c-0.27-0.06-0.54-0.06-0.9-0.06c-1.86,0-3.18,1.38-3.54,3.359c-0.06,0.36-0.09,0.81-0.09,1.23
		v7.739h-2.64V458.546z"/>
	<path d="M233.551,458.546c0-1.71-0.03-3.181-0.12-4.53h2.31l0.12,2.88h0.09c0.66-1.95,2.28-3.18,4.05-3.18
		c0.27,0,0.48,0.03,0.72,0.06v2.49c-0.27-0.06-0.54-0.06-0.9-0.06c-1.86,0-3.18,1.38-3.54,3.359c-0.06,0.36-0.09,0.81-0.09,1.23
		v7.739h-2.64V458.546z"/>
	<path d="M244.531,461.756c0.06,3.569,2.31,5.039,4.98,5.039c1.89,0,3.06-0.33,4.02-0.75l0.48,1.891c-0.93,0.42-2.55,0.93-4.86,0.93
		c-4.47,0-7.14-2.97-7.14-7.35s2.58-7.8,6.81-7.8c4.77,0,6,4.14,6,6.81c0,0.54-0.03,0.93-0.09,1.23H244.531z M252.271,459.865
		c0.03-1.649-0.69-4.26-3.66-4.26c-2.7,0-3.84,2.43-4.05,4.26H252.271z"/>
	<path d="M258.091,447.236h2.64v21.299h-2.64V447.236z"/>
	<path d="M284.669,461.155c0,5.37-3.75,7.71-7.229,7.71c-3.899,0-6.96-2.88-6.96-7.47c0-4.83,3.21-7.68,7.2-7.68
		C281.849,453.716,284.669,456.746,284.669,461.155z M273.18,461.306c0,3.18,1.8,5.579,4.38,5.579c2.52,0,4.41-2.369,4.41-5.64
		c0-2.46-1.23-5.55-4.35-5.55C274.531,455.695,273.18,458.575,273.18,461.306z"/>
	<path d="M288.27,468.535v-12.51h-2.01v-2.01h2.01v-0.689c0-2.04,0.479-3.9,1.68-5.07c0.99-0.96,2.31-1.35,3.54-1.35
		c0.96,0,1.74,0.21,2.25,0.42l-0.359,2.04c-0.391-0.181-0.9-0.33-1.681-0.33c-2.25,0-2.819,1.95-2.819,4.199v0.78h3.51v2.01h-3.51
		v12.51H288.27z"/>
	<path d="M303.12,447.236h2.61v9.119h0.06c0.93-1.62,2.61-2.64,4.95-2.64c3.629,0,6.149,3,6.149,7.38c0,5.189-3.3,7.77-6.54,7.77
		c-2.1,0-3.779-0.811-4.89-2.7h-0.06l-0.15,2.37H303c0.061-0.99,0.12-2.46,0.12-3.75V447.236z M305.73,462.716
		c0,0.329,0.029,0.659,0.119,0.96c0.48,1.829,2.04,3.09,3.96,3.09c2.79,0,4.41-2.25,4.41-5.58c0-2.91-1.5-5.399-4.351-5.399
		c-1.77,0-3.449,1.26-3.989,3.239c-0.09,0.33-0.149,0.69-0.149,1.11V462.716z"/>
	<path d="M321.659,461.756c0.06,3.569,2.31,5.039,4.979,5.039c1.891,0,3.061-0.33,4.021-0.75l0.479,1.891
		c-0.93,0.42-2.55,0.93-4.859,0.93c-4.47,0-7.14-2.97-7.14-7.35s2.579-7.8,6.81-7.8c4.77,0,6,4.14,6,6.81
		c0,0.54-0.03,0.93-0.09,1.23H321.659z M329.398,459.865c0.031-1.649-0.689-4.26-3.659-4.26c-2.7,0-3.84,2.43-4.05,4.26H329.398z"/>
	<path d="M336.689,461.756c0.06,3.569,2.31,5.039,4.979,5.039c1.89,0,3.06-0.33,4.021-0.75l0.479,1.891
		c-0.931,0.42-2.55,0.93-4.86,0.93c-4.469,0-7.139-2.97-7.139-7.35s2.579-7.8,6.809-7.8c4.771,0,6,4.14,6,6.81
		c0,0.54-0.029,0.93-0.09,1.23H336.689z M344.428,459.865c0.03-1.649-0.69-4.26-3.659-4.26c-2.7,0-3.84,2.43-4.051,4.26H344.428z"/>
	<path d="M350.249,458.546c0-1.71-0.03-3.181-0.12-4.53h2.311l0.119,2.88h0.09c0.66-1.95,2.28-3.18,4.051-3.18
		c0.27,0,0.479,0.03,0.72,0.06v2.49c-0.271-0.06-0.54-0.06-0.9-0.06c-1.86,0-3.18,1.38-3.54,3.359c-0.06,0.36-0.09,0.81-0.09,1.23
		v7.739h-2.64V458.546z"/>
</g>
<g>
	<path fill="#19162B" d="M356.065,532.689c0,0-100.303-36.928-200.108,1.995c0,0-25.45,65.871,1.996,133.241
		c0,0,79.844,42.913,198.112,2.992C356.065,670.919,374.863,614.697,356.065,532.689z"/>
	<polyline fill="#19162B" points="358.56,629.001 391.164,629.001 391.164,646.303 359.227,646.303 	"/>
	<path fill="#19162B" d="M379.189,644.306v21.291c0,0-4.661,9.979-8.65,0v-21.958L379.189,644.306z"/>
	<polygon fill="#19162B" points="379.853,630.998 379.853,621.684 385.843,616.359 365.88,616.359 371.287,621.518 371.537,631.497 
			"/>
	<rect x="188.56" y="580.431" fill="none" width="131.74" height="39.257"/>
	<g enable-background="new    ">
		<path fill="#6BBDC4" d="M206.972,616.808h-13.871V581.88h14.37c6.087,0,10.029,3.193,10.029,9.081
			c0,3.543-1.896,5.738-4.441,6.986c2.744,0.748,5.888,3.293,5.888,8.133C218.947,613.165,214.606,616.808,206.972,616.808z
			 M207.421,586.67h-9.38v9.031h9.38c3.443,0,4.84-2.146,4.84-4.44C212.261,588.666,210.914,586.67,207.421,586.67z
			 M207.521,600.441h-9.48v11.576h9.331c4.64,0,6.336-2.345,6.336-5.788C213.708,602.637,211.462,600.441,207.521,600.441z"/>
	</g>
	<g enable-background="new    ">
		<path fill="#6BBDC4" d="M226.785,616.808V581.88h22.503v5.09h-17.264v8.632h10.029v5.09h-10.029v11.026h18.012v5.09H226.785z"/>
	</g>
	<g enable-background="new    ">
		<path fill="#6BBDC4" d="M257.475,616.808V581.88h22.503v5.09h-17.264v8.632h10.029v5.09h-10.029v11.026h18.012v5.09H257.475z"/>
	</g>
	<g enable-background="new    ">
		<path fill="#6BBDC4" d="M307.025,602.537l7.135,14.271h-6.037l-6.936-13.821h-7.885v13.821h-5.139V581.88h15.318
			c6.088,0,11.227,3.243,11.227,10.429C314.708,597.896,311.765,601.34,307.025,602.537z M303.482,586.82h-10.18v11.227h10.18
			c3.492,0,5.938-1.797,5.938-5.589C309.419,588.815,307.025,586.82,303.482,586.82z"/>
	</g>
</g>
</svg>
