<?xml version="1.0" encoding="utf-8"?>
<!-- Generator: Adobe Illustrator 15.1.0, SVG Export Plug-In . SVG Version: 6.00 Build 0)  -->
<!DOCTYPE svg PUBLIC "-//W3C//DTD SVG 1.1//EN" "http://www.w3.org/Graphics/SVG/1.1/DTD/svg11.dtd">
<svg version="1.1" id="Layer_1" xmlns="http://www.w3.org/2000/svg" xmlns:xlink="http://www.w3.org/1999/xlink" x="0px" y="0px"
	 width="536.378px" height="780.521px" viewBox="0 0 536.378 780.521" enable-background="new 0 0 536.378 780.521"
	 xml:space="preserve">
<rect x="163.537" y="201.337" fill="none" width="335.21" height="91.324"/>
<g enable-background="new    ">
	<path d="M198.004,288.815c0.48-28.799,18.119-41.278,38.639-50.278c7.2-3.119,9.479-6.479,9.479-10.079
		c0-4.32-3.72-8.52-13.799-8.52c-9.959,0-18,4.439-23.879,10.079l-10.799-12.6c8.879-8.999,20.759-13.919,34.079-13.919
		c19.919,0,31.199,8.039,31.199,24.119c0,13.56-7.32,19.439-21.599,26.039c-14.879,6.84-20.639,12.479-22.199,18.959h44.638v16.199
		H198.004z"/>
	<path d="M311.283,290.136c-22.919,0-35.158-17.76-35.158-43.318c0-25.56,12.359-43.318,35.278-43.318s35.278,17.52,35.278,43.078
		S334.203,290.136,311.283,290.136z M311.283,219.938c-12.84,0-18.119,11.64-18.119,26.639s5.4,27.119,18.239,27.119
		s18.239-11.88,18.239-26.879C329.642,231.817,324.123,219.938,311.283,219.938z"/>
	<path d="M365.884,290.136c-6.119,0-11.279-5.16-11.279-11.28c0-6.119,5.16-11.279,11.279-11.279s11.279,5.16,11.279,11.279
		C377.164,284.976,372.003,290.136,365.884,290.136z"/>
	<path d="M424.322,290.136c-21.719,0-35.158-9.96-35.158-26.52c0-11.64,6.959-17.639,13.318-20.398c-6-3.24-9.719-8.521-9.719-14.76
		c0-16.56,13.919-24.959,31.559-24.959c16.559,0,31.559,7.8,31.559,24.239c0,5.999-3.24,11.879-9.72,15.479
		c6.479,2.999,13.319,8.879,13.319,19.559C459.48,279.696,446.041,290.136,424.322,290.136z M424.322,251.377
		c-12.6,0-18.359,4.68-18.359,11.88c0,7.68,7.68,12.119,18.359,12.119c11.52,0,18.359-4.32,18.359-12
		S437.041,251.377,424.322,251.377z M424.322,218.019c-10.439,0-14.76,4.56-14.76,9.959c0,5.4,5.039,9.6,14.76,9.6
		c10.319,0,14.76-3.959,14.76-9.479C439.082,222.698,435.361,218.019,424.322,218.019z"/>
</g>
<rect x="-19.884" y="408.516" fill="none" width="587.719" height="30.775"/>
<g enable-background="new    ">
	<path d="M112.159,415.296l2.85,8.13c0.48,1.35,0.87,2.55,1.17,3.75h0.09c0.33-1.2,0.75-2.4,1.23-3.75l2.82-8.13h2.76l-5.7,14.52
		h-2.52l-5.52-14.52H112.159z"/>
	<path d="M138.409,422.436c0,5.37-3.75,7.71-7.23,7.71c-3.9,0-6.959-2.88-6.959-7.47c0-4.83,3.209-7.68,7.2-7.68
		C135.588,414.996,138.409,418.026,138.409,422.436z M126.919,422.586c0,3.18,1.8,5.579,4.38,5.579c2.52,0,4.41-2.369,4.41-5.64
		c0-2.46-1.23-5.55-4.35-5.55C128.269,416.976,126.919,419.855,126.919,422.586z"/>
	<path d="M141.739,408.517h2.64v21.299h-2.64V408.517z"/>
	<path d="M160.968,425.825c0,1.53,0.03,2.851,0.12,3.99h-2.34l-0.15-2.37h-0.06c-0.66,1.17-2.22,2.7-4.8,2.7
		c-2.28,0-5.01-1.29-5.01-6.359v-8.49h2.64v8.01c0,2.76,0.87,4.649,3.24,4.649c1.77,0,3-1.229,3.48-2.43
		c0.15-0.359,0.24-0.84,0.24-1.35v-8.88h2.64V425.825z"/>
	<path d="M165.349,419.226c0-1.529-0.06-2.729-0.12-3.93h2.31l0.12,2.37h0.09c0.81-1.38,2.16-2.67,4.59-2.67
		c1.95,0,3.45,1.2,4.08,2.91h0.06c0.45-0.84,1.05-1.44,1.65-1.891c0.87-0.659,1.8-1.02,3.18-1.02c1.95,0,4.8,1.26,4.8,6.3v8.52
		h-2.58v-8.189c0-2.82-1.05-4.47-3.15-4.47c-1.53,0-2.67,1.109-3.15,2.369c-0.12,0.391-0.21,0.841-0.21,1.32v8.97h-2.58v-8.699
		c0-2.311-1.02-3.96-3.03-3.96c-1.62,0-2.85,1.319-3.27,2.64c-0.15,0.36-0.21,0.84-0.21,1.29v8.729h-2.58V419.226z"/>
	<path d="M191.838,423.036c0.06,3.569,2.31,5.039,4.98,5.039c1.89,0,3.06-0.33,4.02-0.75l0.48,1.891c-0.93,0.42-2.55,0.93-4.86,0.93
		c-4.47,0-7.14-2.97-7.14-7.35s2.58-7.8,6.81-7.8c4.77,0,6,4.14,6,6.81c0,0.54-0.03,0.93-0.09,1.23H191.838z M199.578,421.146
		c0.03-1.649-0.69-4.26-3.66-4.26c-2.7,0-3.84,2.43-4.05,4.26H199.578z"/>
	<path d="M224.897,422.436c0,5.37-3.75,7.71-7.23,7.71c-3.9,0-6.959-2.88-6.959-7.47c0-4.83,3.209-7.68,7.2-7.68
		C222.077,414.996,224.897,418.026,224.897,422.436z M213.408,422.586c0,3.18,1.8,5.579,4.38,5.579c2.52,0,4.41-2.369,4.41-5.64
		c0-2.46-1.23-5.55-4.35-5.55C214.758,416.976,213.408,419.855,213.408,422.586z"/>
	<path d="M228.498,429.815v-12.51h-2.01v-2.01h2.01v-0.689c0-2.04,0.48-3.9,1.68-5.07c0.99-0.96,2.31-1.35,3.54-1.35
		c0.96,0,1.74,0.21,2.25,0.42l-0.36,2.04c-0.39-0.181-0.9-0.33-1.68-0.33c-2.25,0-2.82,1.95-2.82,4.199v0.78h3.51v2.01h-3.51v12.51
		H228.498z"/>
	<path d="M246.527,411.816v3.479h3.78v2.01h-3.78v7.83c0,1.8,0.51,2.819,1.98,2.819c0.72,0,1.14-0.06,1.53-0.18l0.12,2.01
		c-0.51,0.181-1.32,0.36-2.34,0.36c-1.23,0-2.22-0.42-2.85-1.11c-0.72-0.81-1.02-2.1-1.02-3.81v-7.92h-2.25v-2.01h2.25v-2.7
		L246.527,411.816z"/>
	<path d="M253.277,408.517h2.64v9.089h0.06c0.42-0.749,1.08-1.439,1.89-1.89c0.78-0.45,1.71-0.72,2.7-0.72
		c1.95,0,5.07,1.2,5.07,6.18v8.64h-2.64v-8.34c0-2.34-0.87-4.29-3.36-4.29c-1.71,0-3.03,1.2-3.54,2.61
		c-0.15,0.39-0.18,0.78-0.18,1.26v8.76h-2.64V408.517z"/>
	<path d="M271.396,423.036c0.061,3.569,2.311,5.039,4.98,5.039c1.891,0,3.061-0.33,4.02-0.75l0.48,1.891
		c-0.93,0.42-2.551,0.93-4.859,0.93c-4.471,0-7.141-2.97-7.141-7.35s2.58-7.8,6.811-7.8c4.77,0,5.999,4.14,5.999,6.81
		c0,0.54-0.03,0.93-0.09,1.23H271.396z M279.136,421.146c0.03-1.649-0.689-4.26-3.66-4.26c-2.699,0-3.84,2.43-4.049,4.26H279.136z"
		/>
	<path d="M305.505,429.186c-0.93,0.479-2.879,0.96-5.34,0.96c-5.699,0-9.959-3.6-9.959-10.26c0-6.359,4.289-10.619,10.56-10.619
		c2.489,0,4.11,0.54,4.8,0.899l-0.66,2.13c-0.96-0.479-2.369-0.84-4.05-0.84c-4.739,0-7.89,3.03-7.89,8.34
		c0,4.979,2.85,8.13,7.74,8.13c1.619,0,3.239-0.33,4.289-0.84L305.505,429.186z"/>
	<path d="M318.707,426.336c0,1.26,0.06,2.489,0.209,3.479h-2.369l-0.211-1.83h-0.09c-0.81,1.14-2.369,2.16-4.439,2.16
		c-2.939,0-4.439-2.07-4.439-4.17c0-3.51,3.119-5.43,8.729-5.399v-0.301c0-1.17-0.33-3.359-3.3-3.329c-1.381,0-2.79,0.39-3.811,1.08
		l-0.6-1.771c1.2-0.75,2.971-1.26,4.8-1.26c4.44,0,5.521,3.03,5.521,5.91V426.336z M316.156,422.405
		c-2.879-0.06-6.149,0.45-6.149,3.271c0,1.739,1.14,2.52,2.46,2.52c1.92,0,3.15-1.2,3.57-2.43c0.09-0.3,0.119-0.6,0.119-0.84
		V422.405z"/>
	<path d="M322.607,427.146c0.809,0.48,2.189,1.02,3.51,1.02c1.889,0,2.789-0.93,2.789-2.159c0-1.26-0.75-1.92-2.67-2.641
		c-2.64-0.96-3.869-2.369-3.869-4.109c0-2.34,1.92-4.26,5.01-4.26c1.47,0,2.76,0.39,3.539,0.899l-0.629,1.92
		c-0.57-0.359-1.621-0.869-2.971-0.869c-1.56,0-2.4,0.899-2.4,1.979c0,1.2,0.841,1.74,2.73,2.49c2.49,0.93,3.811,2.189,3.811,4.35
		c0,2.58-2.011,4.38-5.4,4.38c-1.59,0-3.061-0.42-4.08-1.021L322.607,427.146z"/>
	<path d="M334.846,420.036c0-1.86-0.06-3.36-0.12-4.74h2.34l0.15,2.49h0.06c1.05-1.771,2.79-2.79,5.16-2.79
		c3.54,0,6.18,2.97,6.18,7.35c0,5.22-3.21,7.8-6.63,7.8c-1.92,0-3.6-0.84-4.47-2.28h-0.06v7.89h-2.61V420.036z M337.457,423.905
		c0,0.391,0.029,0.75,0.119,1.08c0.48,1.83,2.07,3.09,3.961,3.09c2.789,0,4.409-2.279,4.409-5.609c0-2.88-1.53-5.37-4.319-5.37
		c-1.801,0-3.51,1.26-3.99,3.24c-0.09,0.33-0.18,0.72-0.18,1.05V423.905z"/>
	<path d="M354.855,411.216c0,0.9-0.629,1.62-1.68,1.62c-0.96,0-1.59-0.72-1.59-1.62c0-0.899,0.66-1.649,1.65-1.649
		C354.195,409.566,354.855,410.286,354.855,411.216z M351.916,429.815v-14.52h2.64v14.52H351.916z"/>
	<path d="M369.135,426.336c0,1.26,0.06,2.489,0.21,3.479h-2.37l-0.21-1.83h-0.09c-0.811,1.14-2.37,2.16-4.439,2.16
		c-2.94,0-4.44-2.07-4.44-4.17c0-3.51,3.12-5.43,8.729-5.399v-0.301c0-1.17-0.33-3.359-3.299-3.329c-1.381,0-2.791,0.39-3.811,1.08
		l-0.6-1.771c1.199-0.75,2.969-1.26,4.799-1.26c4.44,0,5.521,3.03,5.521,5.91V426.336z M366.585,422.405
		c-2.881-0.06-6.15,0.45-6.15,3.271c0,1.739,1.141,2.52,2.461,2.52c1.92,0,3.149-1.2,3.569-2.43c0.09-0.3,0.12-0.6,0.12-0.84
		V422.405z"/>
	<path d="M373.395,419.226c0-1.529-0.03-2.729-0.12-3.93h2.34l0.15,2.4h0.06c0.72-1.351,2.399-2.7,4.8-2.7
		c2.01,0,5.13,1.2,5.13,6.18v8.64h-2.64v-8.37c0-2.34-0.87-4.289-3.359-4.289c-1.711,0-3.061,1.229-3.541,2.699
		c-0.119,0.33-0.18,0.78-0.18,1.23v8.729h-2.64V419.226z"/>
	<path d="M396.165,426.636c1.171,0.75,2.851,1.319,4.649,1.319c2.67,0,4.23-1.409,4.23-3.449c0-1.86-1.08-2.97-3.811-3.99
		c-3.299-1.2-5.34-2.939-5.34-5.76c0-3.149,2.611-5.489,6.541-5.489c2.039,0,3.569,0.479,4.439,0.989l-0.721,2.13
		c-0.629-0.39-1.979-0.96-3.809-0.96c-2.761,0-3.811,1.65-3.811,3.03c0,1.89,1.23,2.82,4.02,3.899c3.42,1.32,5.13,2.971,5.13,5.94
		c0,3.119-2.28,5.85-7.05,5.85c-1.949,0-4.08-0.6-5.16-1.32L396.165,426.636z"/>
	<path d="M412.844,423.036c0.06,3.569,2.31,5.039,4.979,5.039c1.891,0,3.061-0.33,4.021-0.75l0.479,1.891
		c-0.93,0.42-2.55,0.93-4.859,0.93c-4.47,0-7.14-2.97-7.14-7.35s2.579-7.8,6.81-7.8c4.77,0,6,4.14,6,6.81
		c0,0.54-0.03,0.93-0.09,1.23H412.844z M420.583,421.146c0.031-1.649-0.689-4.26-3.659-4.26c-2.7,0-3.84,2.43-4.05,4.26H420.583z"/>
	<path d="M436.604,426.336c0,1.26,0.06,2.489,0.21,3.479h-2.37l-0.21-1.83h-0.09c-0.811,1.14-2.37,2.16-4.439,2.16
		c-2.94,0-4.44-2.07-4.44-4.17c0-3.51,3.12-5.43,8.729-5.399v-0.301c0-1.17-0.33-3.359-3.299-3.329c-1.381,0-2.791,0.39-3.811,1.08
		l-0.6-1.771c1.199-0.75,2.969-1.26,4.799-1.26c4.44,0,5.521,3.03,5.521,5.91V426.336z M434.054,422.405
		c-2.881-0.06-6.15,0.45-6.15,3.271c0,1.739,1.141,2.52,2.461,2.52c1.92,0,3.149-1.2,3.569-2.43c0.09-0.3,0.12-0.6,0.12-0.84
		V422.405z"/>
</g>
<rect x="189.037" y="313.761" fill="none" width="284.21" height="50.877"/>
<g enable-background="new    ">
	<path d="M224.919,359.86V348.56c-1.3,1.15-3.05,2.2-5.55,2.2c-5.6,0-10.201-4.2-10.201-14.001c0-7.851,3.7-13.351,10.201-13.351
		c2.3,0,4.3,0.9,5.55,2.05v-1.5h6.9v32.452L224.919,359.86z M224.919,332.159c-1.05-1.45-2.65-2.25-4.65-2.25
		c-2.65,0-4.1,2.3-4.1,6.7c0,5.4,1.8,7.65,4.5,7.65c2.15,0,3.25-0.9,4.25-2.2V332.159z"/>
	<path d="M254.219,350.21v-1.75c-1.2,1.25-3.4,2.3-6.15,2.3c-6.7,0-9.701-4.6-9.701-12.001v-14.801h6.9v14.201
		c0,4.7,1.6,6.101,4.45,6.101c2.851,0,4.5-1.4,4.5-5.95v-14.352h6.9v26.252H254.219z"/>
	<path d="M282.269,350.21v-1.75c-1.25,1.3-3.45,2.3-5.9,2.3c-4.9,0-9.801-3-9.801-9.351c0-5.8,4.7-8.7,10.65-8.7
		c2.4,0,3.951,0.5,5.051,1.05v-1.3c0-1.851-1.25-3.351-3.75-3.351c-3.15,0-4.801,0.45-7.201,1.75l-2.65-4.8
		c3.05-1.75,5.601-2.65,9.851-2.65c6.35,0,10.65,3.301,10.65,9.2v17.602H282.269z M282.269,339.209c-1.2-0.75-2.35-1.1-4.801-1.1
		c-2.6,0-4,1.2-4,3.3c0,1.851,1.051,3.5,4,3.5c2.25,0,4.051-1.149,4.801-2.399V339.209z"/>
	<path d="M310.019,350.21v-1.65c-1.301,1.15-3.051,2.2-5.551,2.2c-5.6,0-10.201-4.2-10.201-14.001
		c0-7.851,3.701-13.351,10.201-13.351c2.301,0,4.301,0.9,5.551,2.05v-8.25l6.9-3.45v36.452H310.019z M310.019,332.159
		c-1.051-1.45-2.65-2.25-4.65-2.25c-2.65,0-4.101,2.3-4.101,6.7c0,5.4,1.8,7.65,4.501,7.65c2.149,0,3.25-0.9,4.25-2.2V332.159z"/>
	<path d="M339.069,332.009c-1.101-1-2.45-1.7-4.001-1.7c-2.699,0-4.449,1.15-4.449,5.7v14.201h-6.9v-26.252h6.9v1.75
		c1.199-1.25,2.949-2.3,5.4-2.3c2.25,0,3.949,0.9,4.85,1.851L339.069,332.009z"/>
	<path d="M348.818,321.809c-2.15,0-3.951-1.801-3.951-3.95c0-2.15,1.801-3.95,3.951-3.95s3.949,1.8,3.949,3.95
		C352.767,320.008,350.968,321.809,348.818,321.809z M345.367,350.21v-26.252h6.9v26.252H345.367z"/>
	<path d="M359.467,350.21v-33.002l6.9-3.45v36.452H359.467z"/>
	<path d="M373.567,350.21v-33.002l6.9-3.45v36.452H373.567z"/>
	<path d="M391.117,321.809c-2.149,0-3.949-1.801-3.949-3.95c0-2.15,1.8-3.95,3.949-3.95c2.15,0,3.951,1.8,3.951,3.95
		C395.068,320.008,393.267,321.809,391.117,321.809z M387.667,350.21v-26.252h6.9v26.252H387.667z"/>
	<path d="M412.018,350.76c-6.851,0-11.851-5.601-11.851-13.65c0-8.051,5-13.701,11.851-13.701s11.9,5.65,11.9,13.701
		C423.918,345.159,418.869,350.76,412.018,350.76z M412.018,330.059c-3.3,0-4.851,3-4.851,7.051c0,4.05,1.551,7,4.851,7
		s4.899-3.35,4.899-7C416.917,333.109,415.318,330.059,412.018,330.059z"/>
	<path d="M445.118,350.21v-14.201c0-4.7-1.601-6.1-4.45-6.1s-4.5,1.399-4.5,5.95v14.351h-6.9v-26.252h6.9v1.75
		c1.199-1.25,3.4-2.3,6.15-2.3c6.7,0,9.7,4.601,9.7,12.001v14.801H445.118z"/>
</g>
<path fill="#19162B" d="M303.804,506.724l-2.102-3.36l2.102-3.783v-6.304v-3.362v-5.464v-5.042l-6.725-2.943l-7.986,2.943
	l-7.145-2.943v-1.681h-9.246l-8.406,4.624l-5.884,2.939l-3.782,5.044l-3.783,3.363l-3.782-2.942l-3.362,2.942v4.202l-5.464,1.681
	v7.564h-3.362v-6.304l-2.102,2.521v4.623l-2.942-0.841l-2.521-0.84l-4.203-4.204l-2.521,7.564l-2.521,2.522l-2.102,5.042
	l-2.102,5.045l-2.102,2.102h-4.203l-3.362,5.044v5.884c0,0,5.884,2.102,7.144,3.36c1.261,1.263,1.682,0,2.942,2.104
	c1.261,2.102,1.682,6.724,1.682,6.724l3.362-3.782l2.942,0.842l-3.782,5.884l-1.681,5.884c0,0-0.84,0.421,0.421,1.682
	c1.26,1.262-0.842,5.043-0.842,5.043l0.842,5.045l4.623,6.305l1.26,4.202c0,0,1.682,2.101,2.942,3.362
	c1.261,1.261,2.522,2.94,2.522,4.201c0,1.263,1.26,4.202,2.101,5.464c0.84,1.262,2.943,3.469,2.943,3.469s1.68,3.257,2.101,4.518
	c0.42,1.262,3.363,5.464,4.203,6.725c0.84,1.261,1.261,2.103,2.101,3.782c0.841,1.683,2.103,3.783,2.943,5.043
	c0.84,1.264,2.521,3.362,3.783,4.624c1.26,1.261,7.144,3.782,7.144,3.782l2.853,1.315l2.612,1.206l2.101,3.782
	c0,0-10.086-3.783-11.348-2.942c-1.261,0.842-5.043,2.942-5.043,2.942s-2.101,3.781-2.521,5.883c-0.42,2.103-0.42,4.204-0.42,5.466
	c0,1.26,1.261,4.201,1.261,4.201l0.84,3.362l-2.102,3.362h-1.681l-0.84,4.203l-2.522-3.782l-2.941,6.723c0,0,0.42,3.784,0.42,5.886
	s-0.839,4.203-0.42,6.726c0.42,2.521,0.841,4.621,1.261,6.304c0.42,1.682,0.42,4.202,1.68,5.885c1.261,1.681,3.363,3.36,3.363,3.36
	s0.421,3.363,1.681,4.203c1.261,0.841,9.877,2.521,9.877,2.521h2.731c0,0,16.812,15.13,23.956,15.551h6.305h7.146h6.726h5.043
	l6.305-2.942h3.361l7.984-0.84l3.783-2.521c0,0-2.102-5.043-2.102-6.725c0-1.681,0-6.726,0-6.726l-2.102-5.883
	c0,0-0.422-6.306,0.419-7.985c0.842-1.682,1.262-5.884,1.262-5.884s-1.262-3.783-0.841-5.044c0.421-1.262,1.262-6.305,1.262-6.305
	l-1.262-2.521c0,0-0.421-0.421-1.682-1.681c-1.26-1.264-3.781-3.363-3.781-3.363l-2.521-2.103h-4.203l-2.521-2.102l1.26-4.623
	l1.683-2.521l1.261,3.36l4.623-0.841c0,0-3.782-4.623-1.681-6.304l-5.465-1.262l-3.361-0.841l0.84,5.885l-3.361-2.521l-0.84-2.943
	l-0.842-4.622l0.842-6.305l2.1-5.463l0.422-5.044l-0.422-3.783l-2.1-4.622c0,0-2.104-2.942-3.783-4.203
	c-1.682-1.262-3.361-5.044-3.781-6.725c-0.422-1.681-1.262-4.202-1.262-6.725c0-2.523,2.102-5.464,2.521-6.726
	c0.42-1.261,1.681-2.101,1.681-4.623c0-2.521-1.261-5.463-1.261-5.463l-3.361,0.42l-3.361-2.101c0,0-2.103,3.36-3.783,2.939
	c-1.682-0.421-4.203-9.666-4.203-9.666l-6.725,2.103l0.422-5.043l0.84-4.203l-3.047-4.203v-3.782l-3.678-3.361l-1.681-2.941
	c0,0-2.103,1.261-3.994-0.841c-1.89-2.103-4.411-3.782-4.832-5.043c-0.421-1.263-0.421-1.263-0.421-1.263l5.253-2.102l4.834-0.839
	l4.519,0.419v2.941l5.988-1.681l-2.102-2.102l-3.887-2.522l-2.838-0.421l4.623-6.724l2.942-2.103v-3.36l6.726-0.422l6.305-0.842
	l4.623-0.839h3.361L303.804,506.724z"/>
</svg>
