<?xml version="1.0" encoding="utf-8"?>
<!-- Generator: Adobe Illustrator 15.1.0, SVG Export Plug-In . SVG Version: 6.00 Build 0)  -->
<!DOCTYPE svg PUBLIC "-//W3C//DTD SVG 1.1//EN" "http://www.w3.org/Graphics/SVG/1.1/DTD/svg11.dtd">
<svg version="1.1" id="Layer_1" xmlns="http://www.w3.org/2000/svg" xmlns:xlink="http://www.w3.org/1999/xlink" x="0px" y="0px"
	 width="536.378px" height="780.521px" viewBox="0 0 536.378 780.521" enable-background="new 0 0 536.378 780.521"
	 xml:space="preserve">
<rect x="163.537" y="201.337" fill="none" width="335.21" height="91.324"/>
<g enable-background="new    ">
	<path d="M248.582,290.136c-21.719,0-35.158-9.96-35.158-26.52c0-11.64,6.959-17.639,13.319-20.398c-6-3.24-9.72-8.521-9.72-14.76
		c0-16.56,13.919-24.959,31.559-24.959c16.56,0,31.558,7.8,31.558,24.239c0,5.999-3.239,11.879-9.719,15.479
		c6.479,2.999,13.319,8.879,13.319,19.559C283.741,279.696,270.301,290.136,248.582,290.136z M248.582,251.377
		c-12.6,0-18.359,4.68-18.359,11.88c0,7.68,7.68,12.119,18.359,12.119c11.52,0,18.359-4.32,18.359-12
		S261.302,251.377,248.582,251.377z M248.582,218.019c-10.439,0-14.759,4.56-14.759,9.959c0,5.4,5.04,9.6,14.759,9.6
		c10.32,0,14.76-3.959,14.76-9.479C263.342,222.698,259.622,218.019,248.582,218.019z"/>
	<path d="M331.861,290.136c-22.918,0-35.158-17.76-35.158-43.318c0-25.56,12.359-43.318,35.279-43.318
		c22.918,0,35.277,17.52,35.277,43.078S354.781,290.136,331.861,290.136z M331.861,219.938c-12.839,0-18.119,11.64-18.119,26.639
		s5.4,27.119,18.24,27.119c12.839,0,18.238-11.88,18.238-26.879C350.22,231.817,344.701,219.938,331.861,219.938z"/>
	<path d="M414.419,290.136c-22.918,0-35.158-17.76-35.158-43.318c0-25.56,12.359-43.318,35.279-43.318
		c22.918,0,35.277,17.52,35.277,43.078S437.339,290.136,414.419,290.136z M414.419,219.938c-12.839,0-18.119,11.64-18.119,26.639
		s5.4,27.119,18.24,27.119c12.839,0,18.238-11.88,18.238-26.879C432.779,231.817,427.259,219.938,414.419,219.938z"/>
</g>
<rect x="-19.884" y="404.235" fill="none" width="587.719" height="62.156"/>
<g enable-background="new    ">
	<path d="M133.743,422.056c0,1.26,0.06,2.489,0.21,3.479h-2.37l-0.21-1.83h-0.09c-0.81,1.14-2.37,2.16-4.44,2.16
		c-2.94,0-4.44-2.07-4.44-4.17c0-3.51,3.12-5.43,8.73-5.399v-0.301c0-1.17-0.33-3.359-3.3-3.329c-1.38,0-2.79,0.39-3.81,1.08
		l-0.6-1.771c1.2-0.75,2.97-1.26,4.8-1.26c4.44,0,5.52,3.03,5.52,5.91V422.056z M131.193,418.125c-2.88-0.06-6.15,0.45-6.15,3.271
		c0,1.739,1.14,2.52,2.46,2.52c1.92,0,3.15-1.2,3.57-2.43c0.09-0.3,0.12-0.6,0.12-0.84V418.125z"/>
	<path d="M138.003,414.945c0-1.529-0.06-2.729-0.12-3.93h2.31l0.12,2.37h0.09c0.81-1.38,2.16-2.67,4.59-2.67
		c1.95,0,3.45,1.2,4.08,2.91h0.06c0.45-0.84,1.05-1.44,1.65-1.891c0.87-0.659,1.8-1.02,3.18-1.02c1.95,0,4.8,1.26,4.8,6.3v8.52
		h-2.58v-8.189c0-2.82-1.05-4.47-3.15-4.47c-1.53,0-2.67,1.109-3.15,2.369c-0.12,0.391-0.21,0.841-0.21,1.32v8.97h-2.58v-8.699
		c0-2.311-1.02-3.96-3.03-3.96c-1.62,0-2.85,1.319-3.27,2.64c-0.15,0.36-0.21,0.84-0.21,1.29v8.729h-2.58V414.945z"/>
	<path d="M176.163,418.155c0,5.37-3.75,7.71-7.23,7.71c-3.9,0-6.959-2.88-6.959-7.47c0-4.83,3.209-7.68,7.2-7.68
		C173.343,410.716,176.163,413.746,176.163,418.155z M164.673,418.306c0,3.18,1.8,5.579,4.38,5.579c2.52,0,4.41-2.369,4.41-5.64
		c0-2.46-1.23-5.55-4.35-5.55C166.023,412.695,164.673,415.575,164.673,418.306z"/>
	<path d="M191.643,421.545c0,1.53,0.03,2.851,0.12,3.99h-2.34l-0.15-2.37h-0.06c-0.66,1.17-2.22,2.7-4.8,2.7
		c-2.28,0-5.01-1.29-5.01-6.359v-8.49h2.64v8.01c0,2.76,0.87,4.649,3.24,4.649c1.77,0,3-1.229,3.48-2.43
		c0.15-0.359,0.24-0.84,0.24-1.35v-8.88h2.64V421.545z"/>
	<path d="M196.023,414.945c0-1.529-0.03-2.729-0.12-3.93h2.34l0.15,2.4h0.06c0.72-1.351,2.4-2.7,4.8-2.7c2.01,0,5.13,1.2,5.13,6.18
		v8.64h-2.64v-8.37c0-2.34-0.87-4.289-3.36-4.289c-1.71,0-3.06,1.229-3.54,2.699c-0.12,0.33-0.18,0.78-0.18,1.23v8.729h-2.64
		V414.945z"/>
	<path d="M215.732,407.536v3.479h3.78v2.01h-3.78v7.83c0,1.8,0.51,2.819,1.98,2.819c0.72,0,1.14-0.06,1.53-0.18l0.12,2.01
		c-0.51,0.181-1.32,0.36-2.34,0.36c-1.23,0-2.22-0.42-2.85-1.11c-0.72-0.81-1.02-2.1-1.02-3.81v-7.92h-2.25v-2.01h2.25v-2.7
		L215.732,407.536z"/>
	<path d="M228.842,414.945c0-1.529-0.03-2.729-0.12-3.93h2.34l0.15,2.4h0.06c0.72-1.351,2.4-2.7,4.8-2.7c2.01,0,5.13,1.2,5.13,6.18
		v8.64h-2.64v-8.37c0-2.34-0.87-4.289-3.36-4.289c-1.71,0-3.06,1.229-3.54,2.699c-0.12,0.33-0.18,0.78-0.18,1.23v8.729h-2.64
		V414.945z"/>
	<path d="M246.962,418.756c0.06,3.569,2.31,5.039,4.98,5.039c1.89,0,3.06-0.33,4.02-0.75l0.48,1.891c-0.93,0.42-2.55,0.93-4.86,0.93
		c-4.47,0-7.14-2.97-7.14-7.35s2.58-7.8,6.81-7.8c4.77,0,6,4.14,6,6.81c0,0.54-0.03,0.93-0.09,1.23H246.962z M254.702,416.865
		c0.03-1.649-0.69-4.26-3.66-4.26c-2.7,0-3.84,2.43-4.05,4.26H254.702z"/>
	<path d="M261.992,418.756c0.06,3.569,2.31,5.039,4.98,5.039c1.89,0,3.06-0.33,4.02-0.75l0.48,1.891
		c-0.931,0.42-2.551,0.93-4.86,0.93c-4.47,0-7.14-2.97-7.14-7.35s2.58-7.8,6.81-7.8c4.771,0,5.999,4.14,5.999,6.81
		c0,0.54-0.029,0.93-0.09,1.23H261.992z M269.732,416.865c0.029-1.649-0.69-4.26-3.66-4.26c-2.7,0-3.84,2.43-4.05,4.26H269.732z"/>
	<path d="M288.061,404.236v17.549c0,1.29,0.06,2.76,0.12,3.75h-2.34l-0.12-2.52h-0.09c-0.78,1.619-2.521,2.85-4.89,2.85
		c-3.51,0-6.24-2.97-6.24-7.38c-0.029-4.83,3-7.77,6.51-7.77c2.25,0,3.721,1.05,4.38,2.189h0.06v-8.669H288.061z M285.451,416.926
		c0-0.33-0.029-0.78-0.119-1.11c-0.391-1.649-1.83-3.029-3.811-3.029c-2.729,0-4.35,2.399-4.35,5.579c0,2.94,1.471,5.37,4.29,5.37
		c1.771,0,3.39-1.2,3.87-3.15c0.09-0.359,0.119-0.72,0.119-1.14V416.926z"/>
	<path d="M293.941,418.756c0.061,3.569,2.311,5.039,4.98,5.039c1.891,0,3.061-0.33,4.02-0.75l0.48,1.891
		c-0.93,0.42-2.551,0.93-4.859,0.93c-4.471,0-7.141-2.97-7.141-7.35s2.58-7.8,6.811-7.8c4.77,0,5.999,4.14,5.999,6.81
		c0,0.54-0.03,0.93-0.09,1.23H293.941z M301.681,416.865c0.03-1.649-0.689-4.26-3.66-4.26c-2.699,0-3.84,2.43-4.049,4.26H301.681z"
		/>
	<path d="M320.011,404.236v17.549c0,1.29,0.06,2.76,0.119,3.75h-2.34l-0.119-2.52h-0.09c-0.78,1.619-2.521,2.85-4.891,2.85
		c-3.51,0-6.239-2.97-6.239-7.38c-0.03-4.83,2.999-7.77,6.51-7.77c2.249,0,3.72,1.05,4.38,2.189h0.06v-8.669H320.011z
		 M317.401,416.926c0-0.33-0.03-0.78-0.12-1.11c-0.39-1.649-1.83-3.029-3.81-3.029c-2.729,0-4.35,2.399-4.35,5.579
		c0,2.94,1.47,5.37,4.29,5.37c1.77,0,3.39-1.2,3.869-3.15c0.09-0.359,0.12-0.72,0.12-1.14V416.926z"/>
	<path d="M333.96,407.536v3.479h3.779v2.01h-3.779v7.83c0,1.8,0.51,2.819,1.98,2.819c0.72,0,1.14-0.06,1.529-0.18l0.12,2.01
		c-0.51,0.181-1.319,0.36-2.34,0.36c-1.229,0-2.22-0.42-2.85-1.11c-0.72-0.81-1.021-2.1-1.021-3.81v-7.92h-2.25v-2.01h2.25v-2.7
		L333.96,407.536z"/>
	<path d="M353.67,418.155c0,5.37-3.75,7.71-7.229,7.71c-3.9,0-6.96-2.88-6.96-7.47c0-4.83,3.21-7.68,7.2-7.68
		C350.85,410.716,353.67,413.746,353.67,418.155z M342.181,418.306c0,3.18,1.799,5.579,4.379,5.579c2.521,0,4.41-2.369,4.41-5.64
		c0-2.46-1.23-5.55-4.35-5.55C343.531,412.695,342.181,415.575,342.181,418.306z"/>
	<path d="M375.78,423.405c0,3.359-0.69,5.37-2.069,6.66c-1.44,1.289-3.48,1.739-5.311,1.739c-1.74,0-3.66-0.42-4.83-1.2l0.66-2.039
		c0.961,0.63,2.461,1.17,4.26,1.17c2.7,0,4.68-1.41,4.68-5.101v-1.59h-0.06c-0.78,1.351-2.37,2.431-4.62,2.431
		c-3.6,0-6.18-3.061-6.18-7.08c0-4.92,3.21-7.68,6.57-7.68c2.52,0,3.869,1.29,4.529,2.49h0.061l0.09-2.19h2.34
		c-0.09,1.021-0.12,2.22-0.12,3.96V423.405z M373.14,416.745c0-0.449-0.03-0.84-0.15-1.17c-0.48-1.56-1.74-2.819-3.689-2.819
		c-2.52,0-4.32,2.13-4.32,5.489c0,2.851,1.471,5.22,4.29,5.22c1.649,0,3.12-1.02,3.659-2.699c0.15-0.45,0.211-0.96,0.211-1.41
		V416.745z"/>
	<path d="M379.951,415.546c0-1.71-0.031-3.181-0.121-4.53h2.311l0.12,2.88h0.09c0.66-1.95,2.28-3.18,4.05-3.18
		c0.27,0,0.48,0.03,0.721,0.06v2.49c-0.271-0.06-0.541-0.06-0.9-0.06c-1.86,0-3.18,1.38-3.54,3.359
		c-0.06,0.36-0.091,0.81-0.091,1.23v7.739h-2.639V415.546z"/>
	<path d="M402.6,418.155c0,5.37-3.75,7.71-7.229,7.71c-3.9,0-6.96-2.88-6.96-7.47c0-4.83,3.21-7.68,7.2-7.68
		C399.78,410.716,402.6,413.746,402.6,418.155z M391.111,418.306c0,3.18,1.799,5.579,4.379,5.579c2.521,0,4.41-2.369,4.41-5.64
		c0-2.46-1.23-5.55-4.35-5.55C392.46,412.695,391.111,415.575,391.111,418.306z"/>
	<path d="M406.77,411.016l1.95,7.38c0.39,1.62,0.779,3.12,1.05,4.62h0.09c0.33-1.471,0.81-3.03,1.29-4.59l2.37-7.41h2.22l2.25,7.26
		c0.54,1.74,0.96,3.27,1.29,4.74h0.09c0.239-1.471,0.63-3,1.11-4.71l2.069-7.29h2.61l-4.68,14.52h-2.4l-2.22-6.93
		c-0.511-1.62-0.931-3.06-1.29-4.77h-0.061c-0.359,1.739-0.81,3.239-1.319,4.8l-2.34,6.899h-2.399l-4.381-14.52H406.77z"/>
</g>
<g enable-background="new    ">
	<path d="M180.842,458.056c0,1.26,0.06,2.489,0.21,3.479h-2.37l-0.21-1.83h-0.09c-0.81,1.14-2.37,2.16-4.44,2.16
		c-2.94,0-4.44-2.07-4.44-4.17c0-3.51,3.12-5.43,8.73-5.399v-0.301c0-1.17-0.33-3.359-3.3-3.329c-1.38,0-2.79,0.39-3.81,1.08
		l-0.6-1.771c1.2-0.75,2.97-1.26,4.8-1.26c4.44,0,5.52,3.03,5.52,5.91V458.056z M178.292,454.125c-2.88-0.06-6.15,0.45-6.15,3.271
		c0,1.739,1.14,2.52,2.46,2.52c1.92,0,3.15-1.2,3.57-2.43c0.09-0.3,0.12-0.6,0.12-0.84V454.125z"/>
	<path d="M185.103,450.945c0-1.529-0.03-2.729-0.12-3.93h2.34l0.15,2.4h0.06c0.72-1.351,2.4-2.7,4.8-2.7c2.01,0,5.13,1.2,5.13,6.18
		v8.64h-2.64v-8.37c0-2.34-0.87-4.289-3.36-4.289c-1.71,0-3.06,1.229-3.54,2.699c-0.12,0.33-0.18,0.78-0.18,1.23v8.729h-2.64
		V450.945z"/>
	<path d="M218.312,458.056c0,1.26,0.06,2.489,0.21,3.479h-2.37l-0.21-1.83h-0.09c-0.81,1.14-2.37,2.16-4.44,2.16
		c-2.94,0-4.44-2.07-4.44-4.17c0-3.51,3.12-5.43,8.73-5.399v-0.301c0-1.17-0.33-3.359-3.3-3.329c-1.38,0-2.79,0.39-3.81,1.08
		l-0.6-1.771c1.2-0.75,2.97-1.26,4.8-1.26c4.44,0,5.52,3.03,5.52,5.91V458.056z M215.761,454.125c-2.88-0.06-6.149,0.45-6.149,3.271
		c0,1.739,1.14,2.52,2.46,2.52c1.92,0,3.15-1.2,3.57-2.43c0.09-0.3,0.12-0.6,0.12-0.84V454.125z"/>
	<path d="M232.921,461.025c-0.69,0.33-2.22,0.84-4.17,0.84c-4.38,0-7.229-2.97-7.229-7.41c0-4.47,3.06-7.739,7.799-7.739
		c1.56,0,2.94,0.39,3.66,0.78l-0.6,2.01c-0.63-0.33-1.62-0.69-3.06-0.69c-3.33,0-5.129,2.49-5.129,5.49c0,3.359,2.16,5.43,5.04,5.43
		c1.5,0,2.49-0.36,3.24-0.69L232.921,461.025z"/>
	<path d="M236.012,451.546c0-1.71-0.03-3.181-0.12-4.53h2.31l0.12,2.88h0.09c0.66-1.95,2.28-3.18,4.05-3.18
		c0.27,0,0.48,0.03,0.72,0.06v2.49c-0.27-0.06-0.54-0.06-0.9-0.06c-1.86,0-3.18,1.38-3.54,3.359c-0.06,0.36-0.09,0.81-0.09,1.23
		v7.739h-2.64V451.546z"/>
	<path d="M246.991,454.756c0.06,3.569,2.31,5.039,4.98,5.039c1.89,0,3.06-0.33,4.02-0.75l0.48,1.891c-0.93,0.42-2.55,0.93-4.86,0.93
		c-4.47,0-7.14-2.97-7.14-7.35s2.58-7.8,6.81-7.8c4.77,0,6,4.14,6,6.81c0,0.54-0.03,0.93-0.09,1.23H246.991z M254.731,452.865
		c0.03-1.649-0.69-4.26-3.66-4.26c-2.7,0-3.84,2.43-4.05,4.26H254.731z"/>
	<path d="M280.05,454.155c0,5.37-3.75,7.71-7.229,7.71c-3.899,0-6.959-2.88-6.959-7.47c0-4.83,3.209-7.68,7.2-7.68
		C277.23,446.716,280.05,449.746,280.05,454.155z M268.561,454.306c0,3.18,1.8,5.579,4.38,5.579c2.52,0,4.41-2.369,4.41-5.64
		c0-2.46-1.23-5.55-4.35-5.55C269.912,448.695,268.561,451.575,268.561,454.306z"/>
	<path d="M283.651,461.535v-12.51h-2.01v-2.01h2.01v-0.689c0-2.04,0.479-3.9,1.68-5.07c0.99-0.96,2.31-1.35,3.54-1.35
		c0.96,0,1.74,0.21,2.25,0.42l-0.359,2.04c-0.391-0.181-0.9-0.33-1.681-0.33c-2.25,0-2.819,1.95-2.819,4.199v0.78h3.51v2.01h-3.51
		v12.51H283.651z"/>
	<path d="M308.85,461.025c-0.69,0.33-2.22,0.84-4.17,0.84c-4.38,0-7.229-2.97-7.229-7.41c0-4.47,3.06-7.739,7.799-7.739
		c1.561,0,2.94,0.39,3.66,0.78l-0.6,2.01c-0.63-0.33-1.62-0.69-3.061-0.69c-3.329,0-5.129,2.49-5.129,5.49
		c0,3.359,2.16,5.43,5.039,5.43c1.5,0,2.49-0.36,3.24-0.69L308.85,461.025z"/>
	<path d="M324.9,454.155c0,5.37-3.75,7.71-7.229,7.71c-3.899,0-6.96-2.88-6.96-7.47c0-4.83,3.21-7.68,7.2-7.68
		C322.08,446.716,324.9,449.746,324.9,454.155z M313.411,454.306c0,3.18,1.8,5.579,4.38,5.579c2.52,0,4.41-2.369,4.41-5.64
		c0-2.46-1.23-5.55-4.35-5.55C314.761,448.695,313.411,451.575,313.411,454.306z"/>
	<path d="M331.41,443.536v3.479h3.78v2.01h-3.78v7.83c0,1.8,0.511,2.819,1.98,2.819c0.721,0,1.141-0.06,1.53-0.18l0.12,2.01
		c-0.51,0.181-1.32,0.36-2.34,0.36c-1.23,0-2.221-0.42-2.85-1.11c-0.721-0.81-1.021-2.1-1.021-3.81v-7.92h-2.25v-2.01h2.25v-2.7
		L331.41,443.536z"/>
	<path d="M341.339,443.536v3.479h3.78v2.01h-3.78v7.83c0,1.8,0.511,2.819,1.98,2.819c0.721,0,1.141-0.06,1.53-0.18l0.12,2.01
		c-0.51,0.181-1.32,0.36-2.34,0.36c-1.23,0-2.221-0.42-2.85-1.11c-0.721-0.81-1.021-2.1-1.021-3.81v-7.92h-2.25v-2.01h2.25v-2.7
		L341.339,443.536z"/>
	<path d="M361.05,454.155c0,5.37-3.75,7.71-7.23,7.71c-3.9,0-6.959-2.88-6.959-7.47c0-4.83,3.209-7.68,7.199-7.68
		C358.23,446.716,361.05,449.746,361.05,454.155z M349.56,454.306c0,3.18,1.8,5.579,4.38,5.579c2.521,0,4.409-2.369,4.409-5.64
		c0-2.46-1.229-5.55-4.35-5.55C350.91,448.695,349.56,451.575,349.56,454.306z"/>
	<path d="M364.38,450.945c0-1.529-0.03-2.729-0.121-3.93h2.34l0.15,2.4h0.061c0.72-1.351,2.399-2.7,4.799-2.7
		c2.011,0,5.131,1.2,5.131,6.18v8.64h-2.641v-8.37c0-2.34-0.869-4.289-3.359-4.289c-1.71,0-3.061,1.229-3.54,2.699
		c-0.12,0.33-0.181,0.78-0.181,1.23v8.729h-2.639V450.945z"/>
</g>
<rect x="189.037" y="313.761" fill="none" width="284.21" height="50.877"/>
<g enable-background="new    ">
	<path d="M239.045,349.16c-1.15,0.899-3.2,1.6-5.35,1.6c-4.25,0-7-3.3-7-7.9v-12.4h-4.4v-6.501h4.4v-6.75l6.9-3.45v10.2h6.3v6.501
		h-6.3v10.551c0,2.5,0.9,3.149,2.55,3.149c1.25,0,2.2-0.55,3.9-2L239.045,349.16z"/>
	<path d="M262.344,350.21v-14.201c0-4.7-1.6-6.1-4.45-6.1s-4.5,1.399-4.5,5.95v14.351h-6.9v-33.002l6.9-3.45v11.95
		c1.2-1.25,3.4-2.3,6.15-2.3c6.701,0,9.701,4.601,9.701,12.001v14.801H262.344z"/>
	<path d="M286.195,350.76c-6.852,0-11.852-5.601-11.852-13.65c0-8.051,5-13.701,11.852-13.701c6.85,0,11.9,5.65,11.9,13.701
		C298.095,345.159,293.044,350.76,286.195,350.76z M286.195,330.059c-3.301,0-4.852,3-4.852,7.051c0,4.05,1.551,7,4.852,7
		c3.299,0,4.899-3.35,4.899-7C291.094,333.109,289.494,330.059,286.195,330.059z"/>
	<path d="M319.044,350.21v-1.75c-1.201,1.25-3.4,2.3-6.15,2.3c-6.701,0-9.701-4.6-9.701-12.001v-14.801h6.9v14.201
		c0,4.7,1.6,6.101,4.45,6.101s4.501-1.4,4.501-5.95v-14.352h6.9v26.252H319.044z"/>
	<path d="M342.694,350.76c-4.15,0-8.2-1.2-11.001-3.05l2.301-5.25c2.8,1.55,5.75,2.399,9.1,2.399c2.701,0,3.501-0.649,3.501-2
		c0-1.2-0.95-1.8-3.851-2.65c-6.301-1.899-10.351-3.45-10.351-9c0-5.45,4.351-7.801,10.501-7.801c3.3,0,6.9,1,9.7,2.55l-2.2,5.451
		c-2.6-1.4-5.45-2.101-7.65-2.101c-2.8,0-3.551,0.55-3.551,1.7c0,1.1,0.801,1.55,5.451,3.05c4.7,1.551,8.75,3.251,8.75,8.501
		C353.394,348.61,348.594,350.76,342.694,350.76z"/>
	<path d="M373.694,350.21v-1.75c-1.251,1.3-3.45,2.3-5.9,2.3c-4.9,0-9.801-3-9.801-9.351c0-5.8,4.7-8.7,10.651-8.7
		c2.399,0,3.949,0.5,5.05,1.05v-1.3c0-1.851-1.251-3.351-3.751-3.351c-3.149,0-4.8,0.45-7.199,1.75l-2.65-4.8
		c3.05-1.75,5.6-2.65,9.85-2.65c6.352,0,10.651,3.301,10.651,9.2v17.602H373.694z M373.694,339.209c-1.2-0.75-2.351-1.1-4.8-1.1
		c-2.602,0-4.001,1.2-4.001,3.3c0,1.851,1.05,3.5,4.001,3.5c2.25,0,4.05-1.149,4.8-2.399V339.209z"/>
	<path d="M402.894,350.21v-14.201c0-4.7-1.6-6.1-4.45-6.1s-4.501,1.399-4.501,5.95v14.351h-6.9v-26.252h6.9v1.75
		c1.201-1.25,3.4-2.3,6.15-2.3c6.701,0,9.701,4.601,9.701,12.001v14.801H402.894z"/>
	<path d="M430.644,350.21v-1.65c-1.301,1.15-3.051,2.2-5.551,2.2c-5.6,0-10.201-4.2-10.201-14.001
		c0-7.851,3.701-13.351,10.201-13.351c2.301,0,4.301,0.9,5.551,2.05v-8.25l6.9-3.45v36.452H430.644z M430.644,332.159
		c-1.051-1.45-2.65-2.25-4.65-2.25c-2.65,0-4.101,2.3-4.101,6.7c0,5.4,1.8,7.65,4.501,7.65c2.149,0,3.25-0.9,4.25-2.2V332.159z"/>
</g>
<g>
	<path fill="#19162B" d="M215.601,684.712c0,0-6.892-28.928,23.229-54.703c0,0,13.5,2.217,18.749-2.157
		c0,0,25.368,14.871,38.49,0.875c0,0,11.371-7.873,14.87-4.374c0,0-4.373-12.247-24.493-6.122c0,0-13.12,7.871-20.994-0.875
		c0,0,12.247-6.123,13.122-13.996c0,0,6.123-11.372,18.369-12.247c0,0-22.742-20.994-35.864,16.621c0,0-6.124,6.122-9.623-2.625
		c0,0,6.998-22.743-13.996-38.488c0,0,6.998,19.244,1.75,20.994c0,0-4.374,18.369,2.625,19.244l-5.249,5.248l-0.875,10.497
		c0,0-36.74,20.993-35.865,68.231C199.845,690.835,206.863,696.958,215.601,684.712z"/>
	<path fill="none" stroke="#19162B" stroke-width="3" stroke-miterlimit="10" d="M261.078,628.727c0,0,6.123,40.239,29.741,18.369
		l6.123-8.747c0,0,11.372,27.993,41.988,10.497c0,0,16.62-9.622,3.499-42.862c0,0,44.613-41.988-18.369-53.359
		c0,0,14.87-33.241-16.621-27.118c0,0-23.618-48.985-55.109,0.875c0,0-20.12-9.622-22.744,1.749c0,0-37.615-9.622-39.364,26.243
		c0,0-1.75,26.243,20.994,31.491c0,0-6.998,19.244,25.368,26.242"/>
</g>
</svg>
