<?xml version="1.0" encoding="utf-8"?>
<!-- Generator: Adobe Illustrator 15.1.0, SVG Export Plug-In . SVG Version: 6.00 Build 0)  -->
<!DOCTYPE svg PUBLIC "-//W3C//DTD SVG 1.1//EN" "http://www.w3.org/Graphics/SVG/1.1/DTD/svg11.dtd">
<svg version="1.1" id="Layer_1" xmlns="http://www.w3.org/2000/svg" xmlns:xlink="http://www.w3.org/1999/xlink" x="0px" y="0px"
	 width="536.378px" height="780.521px" viewBox="0 0 536.378 780.521" enable-background="new 0 0 536.378 780.521"
	 xml:space="preserve">
<rect x="165.537" y="232.964" fill="none" width="335.21" height="115.885"/>
<g enable-background="new    ">
	<path d="M200.98,313.152v-55.66h-13.2v-11.33c8.58-0.44,14.19-3.63,15.73-10.01h12.76v77H200.98z"/>
	<path d="M241.68,327.013h-10.34l1.65-32.45h17.93L241.68,327.013z"/>
	<path d="M290.63,314.362c-21.01,0-32.23-16.28-32.23-39.71c0-23.431,11.33-39.71,32.34-39.71s32.34,16.06,32.34,39.489
		C323.08,297.862,311.64,314.362,290.63,314.362z M290.63,250.012c-11.771,0-16.61,10.67-16.61,24.42
		c0,13.751,4.95,24.86,16.72,24.86c11.771,0,16.721-10.89,16.721-24.64S302.4,250.012,290.63,250.012z"/>
	<path d="M366.308,314.362c-21.01,0-32.229-16.28-32.229-39.71c0-23.431,11.33-39.71,32.341-39.71c21.01,0,32.34,16.06,32.34,39.489
		C398.759,297.862,387.319,314.362,366.308,314.362z M366.308,250.012c-11.77,0-16.609,10.67-16.609,24.42
		c0,13.751,4.95,24.86,16.721,24.86c11.77,0,16.719-10.89,16.719-24.64S378.08,250.012,366.308,250.012z"/>
	<path d="M441.988,314.362c-21.01,0-32.23-16.28-32.23-39.71c0-23.431,11.33-39.71,32.34-39.71s32.34,16.06,32.34,39.489
		C474.437,297.862,462.998,314.362,441.988,314.362z M441.988,250.012c-11.771,0-16.61,10.67-16.61,24.42
		c0,13.751,4.95,24.86,16.72,24.86c11.771,0,16.721-10.89,16.721-24.64S453.757,250.012,441.988,250.012z"/>
</g>
<rect x="-19.884" y="411.235" fill="none" width="587.719" height="32.22"/>
<g enable-background="new    ">
	<path d="M63.935,418.016l2.85,8.13c0.48,1.35,0.87,2.55,1.17,3.75h0.09c0.33-1.2,0.75-2.4,1.23-3.75l2.82-8.13h2.76l-5.7,14.52
		h-2.52l-5.52-14.52H63.935z"/>
	<path d="M90.184,425.155c0,5.37-3.75,7.71-7.23,7.71c-3.9,0-6.959-2.88-6.959-7.47c0-4.83,3.209-7.68,7.2-7.68
		C87.364,417.716,90.184,420.746,90.184,425.155z M78.694,425.306c0,3.18,1.8,5.579,4.38,5.579c2.52,0,4.41-2.369,4.41-5.64
		c0-2.46-1.23-5.55-4.35-5.55C80.044,419.695,78.694,422.575,78.694,425.306z"/>
	<path d="M93.514,411.236h2.64v21.299h-2.64V411.236z"/>
	<path d="M112.744,428.545c0,1.53,0.03,2.851,0.12,3.99h-2.34l-0.15-2.37h-0.06c-0.66,1.17-2.22,2.7-4.8,2.7
		c-2.28,0-5.01-1.29-5.01-6.359v-8.49h2.64v8.01c0,2.76,0.87,4.649,3.24,4.649c1.77,0,3-1.229,3.48-2.43
		c0.15-0.359,0.24-0.84,0.24-1.35v-8.88h2.64V428.545z"/>
	<path d="M117.124,421.945c0-1.529-0.06-2.729-0.12-3.93h2.31l0.12,2.37h0.09c0.81-1.38,2.16-2.67,4.59-2.67
		c1.95,0,3.45,1.2,4.08,2.91h0.06c0.45-0.84,1.05-1.44,1.65-1.891c0.87-0.659,1.8-1.02,3.18-1.02c1.95,0,4.8,1.26,4.8,6.3v8.52
		h-2.58v-8.189c0-2.82-1.05-4.47-3.15-4.47c-1.53,0-2.67,1.109-3.15,2.369c-0.12,0.391-0.21,0.841-0.21,1.32v8.97h-2.58v-8.699
		c0-2.311-1.02-3.96-3.03-3.96c-1.62,0-2.85,1.319-3.27,2.64c-0.15,0.36-0.21,0.84-0.21,1.29v8.729h-2.58V421.945z"/>
	<path d="M143.614,425.756c0.06,3.569,2.31,5.039,4.98,5.039c1.89,0,3.06-0.33,4.02-0.75l0.48,1.891c-0.93,0.42-2.55,0.93-4.86,0.93
		c-4.47,0-7.14-2.97-7.14-7.35s2.58-7.8,6.81-7.8c4.77,0,6,4.14,6,6.81c0,0.54-0.03,0.93-0.09,1.23H143.614z M151.354,423.865
		c0.03-1.649-0.69-4.26-3.66-4.26c-2.7,0-3.84,2.43-4.05,4.26H151.354z"/>
	<path d="M176.673,425.155c0,5.37-3.75,7.71-7.23,7.71c-3.9,0-6.959-2.88-6.959-7.47c0-4.83,3.209-7.68,7.2-7.68
		C173.853,417.716,176.673,420.746,176.673,425.155z M165.183,425.306c0,3.18,1.8,5.579,4.38,5.579c2.52,0,4.41-2.369,4.41-5.64
		c0-2.46-1.23-5.55-4.35-5.55C166.533,419.695,165.183,422.575,165.183,425.306z"/>
	<path d="M180.273,432.535v-12.51h-2.01v-2.01h2.01v-0.689c0-2.04,0.48-3.9,1.68-5.07c0.99-0.96,2.31-1.35,3.54-1.35
		c0.96,0,1.74,0.21,2.25,0.42l-0.36,2.04c-0.39-0.181-0.9-0.33-1.68-0.33c-2.25,0-2.82,1.95-2.82,4.199v0.78h3.51v2.01h-3.51v12.51
		H180.273z"/>
	<path d="M205.322,429.056c0,1.26,0.06,2.489,0.21,3.479h-2.37l-0.21-1.83h-0.09c-0.81,1.14-2.37,2.16-4.44,2.16
		c-2.94,0-4.44-2.07-4.44-4.17c0-3.51,3.12-5.43,8.73-5.399v-0.301c0-1.17-0.33-3.359-3.3-3.329c-1.38,0-2.79,0.39-3.81,1.08
		l-0.6-1.771c1.2-0.75,2.97-1.26,4.8-1.26c4.44,0,5.52,3.03,5.52,5.91V429.056z M202.772,425.125c-2.88-0.06-6.15,0.45-6.15,3.271
		c0,1.739,1.14,2.52,2.46,2.52c1.92,0,3.15-1.2,3.57-2.43c0.09-0.3,0.12-0.6,0.12-0.84V425.125z"/>
	<path d="M216.212,432.535v-12.51h-2.01v-2.01h2.01v-0.81c0-3.811,2.25-6.3,6.33-6.3c1.35,0,2.94,0.42,3.69,0.96l-0.75,2.01
		c-0.66-0.45-1.77-0.84-3.06-0.84c-2.79,0-3.6,1.95-3.6,4.26v0.72h8.43v14.52h-2.64v-12.51h-5.79v12.51H216.212z"/>
	<path d="M231.632,422.546c0-1.71-0.03-3.181-0.12-4.53h2.31l0.12,2.88h0.09c0.66-1.95,2.28-3.18,4.05-3.18
		c0.27,0,0.48,0.03,0.72,0.06v2.49c-0.27-0.06-0.54-0.06-0.9-0.06c-1.86,0-3.18,1.38-3.54,3.359c-0.06,0.36-0.09,0.81-0.09,1.23
		v7.739h-2.64V422.546z"/>
	<path d="M242.612,425.756c0.06,3.569,2.31,5.039,4.98,5.039c1.89,0,3.06-0.33,4.02-0.75l0.48,1.891c-0.93,0.42-2.55,0.93-4.86,0.93
		c-4.47,0-7.14-2.97-7.14-7.35s2.58-7.8,6.81-7.8c4.77,0,6,4.14,6,6.81c0,0.54-0.03,0.93-0.09,1.23H242.612z M250.352,423.865
		c0.03-1.649-0.69-4.26-3.66-4.26c-2.7,0-3.84,2.43-4.05,4.26H250.352z"/>
	<path d="M264.001,425.756c0.06,3.569,2.31,5.039,4.98,5.039c1.89,0,3.06-0.33,4.02-0.75l0.48,1.891
		c-0.931,0.42-2.551,0.93-4.86,0.93c-4.47,0-7.14-2.97-7.14-7.35s2.58-7.8,6.81-7.8c4.771,0,5.999,4.14,5.999,6.81
		c0,0.54-0.029,0.93-0.09,1.23H264.001z M271.742,423.865c0.029-1.649-0.69-4.26-3.66-4.26c-2.7,0-3.84,2.43-4.05,4.26H271.742z"/>
	<path d="M277.562,421.945c0-1.529-0.031-2.729-0.121-3.93h2.34l0.15,2.4h0.061c0.72-1.351,2.399-2.7,4.799-2.7
		c2.011,0,5.131,1.2,5.131,6.18v8.64h-2.641v-8.37c0-2.34-0.869-4.289-3.359-4.289c-1.71,0-3.061,1.229-3.54,2.699
		c-0.12,0.33-0.181,0.78-0.181,1.23v8.729h-2.639V421.945z"/>
	<path d="M306.63,430.405c0,3.359-0.689,5.37-2.07,6.66c-1.439,1.289-3.479,1.739-5.31,1.739c-1.739,0-3.659-0.42-4.829-1.2
		l0.66-2.039c0.959,0.63,2.459,1.17,4.26,1.17c2.699,0,4.68-1.41,4.68-5.101v-1.59h-0.061c-0.779,1.351-2.369,2.431-4.619,2.431
		c-3.601,0-6.18-3.061-6.18-7.08c0-4.92,3.209-7.68,6.568-7.68c2.521,0,3.871,1.29,4.531,2.49h0.059l0.091-2.19h2.34
		c-0.091,1.021-0.12,2.22-0.12,3.96V430.405z M303.991,423.745c0-0.449-0.03-0.84-0.15-1.17c-0.479-1.56-1.739-2.819-3.689-2.819
		c-2.521,0-4.319,2.13-4.319,5.489c0,2.851,1.469,5.22,4.289,5.22c1.65,0,3.12-1.02,3.66-2.699c0.15-0.45,0.21-0.96,0.21-1.41
		V423.745z"/>
	<path d="M313.741,413.936c0,0.9-0.63,1.62-1.681,1.62c-0.959,0-1.59-0.72-1.59-1.62c0-0.899,0.66-1.649,1.65-1.649
		C313.081,412.286,313.741,413.006,313.741,413.936z M310.8,432.535v-14.52h2.641v14.52H310.8z"/>
	<path d="M317.821,421.945c0-1.529-0.03-2.729-0.12-3.93h2.34l0.15,2.4h0.06c0.72-1.351,2.399-2.7,4.8-2.7
		c2.01,0,5.13,1.2,5.13,6.18v8.64h-2.64v-8.37c0-2.34-0.87-4.289-3.359-4.289c-1.711,0-3.061,1.229-3.541,2.699
		c-0.119,0.33-0.18,0.78-0.18,1.23v8.729h-2.64V421.945z"/>
	<path d="M335.941,425.756c0.06,3.569,2.31,5.039,4.979,5.039c1.89,0,3.06-0.33,4.021-0.75l0.479,1.891
		c-0.931,0.42-2.55,0.93-4.86,0.93c-4.469,0-7.139-2.97-7.139-7.35s2.579-7.8,6.809-7.8c4.77,0,6,4.14,6,6.81
		c0,0.54-0.029,0.93-0.09,1.23H335.941z M343.68,423.865c0.03-1.649-0.69-4.26-3.659-4.26c-2.701,0-3.84,2.43-4.051,4.26H343.68z"/>
	<path d="M356.91,418.016l1.95,7.38c0.39,1.62,0.78,3.12,1.05,4.62H360c0.33-1.471,0.811-3.03,1.29-4.59l2.37-7.41h2.22l2.25,7.26
		c0.54,1.74,0.96,3.27,1.29,4.74h0.09c0.24-1.471,0.63-3,1.109-4.71l2.07-7.29h2.609l-4.68,14.52h-2.399l-2.22-6.93
		c-0.51-1.62-0.93-3.06-1.29-4.77h-0.06c-0.36,1.739-0.811,3.239-1.32,4.8l-2.34,6.899h-2.4l-4.379-14.52H356.91z"/>
	<path d="M388.019,429.056c0,1.26,0.061,2.489,0.211,3.479h-2.371l-0.209-1.83h-0.09c-0.811,1.14-2.371,2.16-4.44,2.16
		c-2.94,0-4.44-2.07-4.44-4.17c0-3.51,3.121-5.43,8.73-5.399v-0.301c0-1.17-0.33-3.359-3.301-3.329c-1.379,0-2.789,0.39-3.809,1.08
		l-0.601-1.771c1.2-0.75,2.97-1.26,4.8-1.26c4.439,0,5.52,3.03,5.52,5.91V429.056z M385.47,425.125
		c-2.881-0.06-6.15,0.45-6.15,3.271c0,1.739,1.14,2.52,2.46,2.52c1.92,0,3.149-1.2,3.569-2.43c0.09-0.3,0.121-0.6,0.121-0.84
		V425.125z"/>
	<path d="M395.339,414.536v3.479h3.779v2.01h-3.779v7.83c0,1.8,0.51,2.819,1.98,2.819c0.72,0,1.14-0.06,1.529-0.18l0.12,2.01
		c-0.51,0.181-1.319,0.36-2.34,0.36c-1.229,0-2.22-0.42-2.85-1.11c-0.72-0.81-1.021-2.1-1.021-3.81v-7.92h-2.25v-2.01h2.25v-2.7
		L395.339,414.536z"/>
	<path d="M403.379,425.756c0.06,3.569,2.31,5.039,4.979,5.039c1.891,0,3.061-0.33,4.021-0.75l0.479,1.891
		c-0.93,0.42-2.55,0.93-4.859,0.93c-4.47,0-7.14-2.97-7.14-7.35s2.579-7.8,6.81-7.8c4.77,0,6,4.14,6,6.81
		c0,0.54-0.03,0.93-0.09,1.23H403.379z M411.119,423.865c0.031-1.649-0.689-4.26-3.659-4.26c-2.7,0-3.84,2.43-4.05,4.26H411.119z"/>
	<path d="M416.939,422.546c0-1.71-0.029-3.181-0.119-4.53h2.31l0.12,2.88h0.09c0.66-1.95,2.279-3.18,4.05-3.18
		c0.271,0,0.479,0.03,0.72,0.06v2.49c-0.27-0.06-0.539-0.06-0.9-0.06c-1.859,0-3.18,1.38-3.539,3.359
		c-0.061,0.36-0.09,0.81-0.09,1.23v7.739h-2.641V422.546z"/>
	<path d="M436.289,414.536v3.479h3.779v2.01h-3.779v7.83c0,1.8,0.51,2.819,1.98,2.819c0.72,0,1.14-0.06,1.529-0.18l0.12,2.01
		c-0.51,0.181-1.319,0.36-2.34,0.36c-1.229,0-2.22-0.42-2.85-1.11c-0.72-0.81-1.021-2.1-1.021-3.81v-7.92h-2.25v-2.01h2.25v-2.7
		L436.289,414.536z"/>
	<path d="M453.238,429.056c0,1.26,0.061,2.489,0.211,3.479h-2.371l-0.209-1.83h-0.09c-0.811,1.14-2.371,2.16-4.44,2.16
		c-2.94,0-4.44-2.07-4.44-4.17c0-3.51,3.121-5.43,8.73-5.399v-0.301c0-1.17-0.33-3.359-3.301-3.329c-1.379,0-2.789,0.39-3.809,1.08
		l-0.601-1.771c1.2-0.75,2.97-1.26,4.8-1.26c4.439,0,5.52,3.03,5.52,5.91V429.056z M450.689,425.125
		c-2.881-0.06-6.15,0.45-6.15,3.271c0,1.739,1.14,2.52,2.46,2.52c1.92,0,3.149-1.2,3.569-2.43c0.09-0.3,0.121-0.6,0.121-0.84
		V425.125z"/>
	<path d="M457.499,421.945c0-1.529-0.03-2.729-0.12-3.93h2.34l0.15,2.4h0.06c0.72-1.351,2.399-2.7,4.8-2.7
		c2.01,0,5.131,1.2,5.131,6.18v8.64h-2.641v-8.37c0-2.34-0.871-4.289-3.359-4.289c-1.711,0-3.061,1.229-3.541,2.699
		c-0.119,0.33-0.18,0.78-0.18,1.23v8.729h-2.64V421.945z"/>
	<path d="M476.757,424.676h0.061c0.359-0.511,0.84-1.141,1.26-1.65l4.289-5.01h3.15l-5.58,5.97l6.391,8.55h-3.24l-4.98-6.96
		l-1.35,1.5v5.46h-2.609v-21.299h2.609V424.676z"/>
</g>
<g>
	<path fill="#19162B" d="M305.059,554.959l-1.054-37.925h-15.803l-15.802,38.979H133.354l-10.536,50.566h-8.427v13.695l28.443,1.048
		c0,0,6.326-32.651,32.658-29.491c0,0,27.377-3.16,32.65,30.549h138.001c0,0,5.256-33.716,32.649-29.498c0,0,26.338,0,32.656,28.44
		h10.537v-9.48l-4.213-5.263V570.76l-49.51-14.747l-11.594-34.76l-7.369-1.058l10.529,36.874l-9.479,16.853l-9.481-3.162
		l-7.369-24.229c0,0-12.641-11.582-12.641,0l-5.27,11.589L305.059,554.959z"/>
	<path fill="#19162B" d="M331.654,536.788l2.373-8.691l6.32-3.159l-7.111-1.58c0,0-9.482-11.852-15.802,3.95l-5.531,9.48l4.742-1.58
		C316.646,535.208,318.226,540.738,331.654,536.788z"/>
	<line fill="none" stroke="#19162B" stroke-width="3" stroke-miterlimit="10" x1="266.872" y1="542.318" x2="126.24" y2="542.318"/>
	
		<line fill="none" stroke="#19162B" stroke-width="3" stroke-miterlimit="10" x1="266.079" y1="516.248" x2="125.452" y2="516.248"/>
	
		<line fill="none" stroke="#19162B" stroke-width="3" stroke-miterlimit="10" x1="137.301" y1="543.109" x2="137.301" y2="518.616"/>
	<line fill="none" stroke="#19162B" stroke-width="3" stroke-miterlimit="10" x1="157.055" y1="541.53" x2="157.055" y2="517.034"/>
	
		<line fill="none" stroke="#19162B" stroke-width="3" stroke-miterlimit="10" x1="176.806" y1="543.109" x2="176.806" y2="518.616"/>
	
		<line fill="none" stroke="#19162B" stroke-width="3" stroke-miterlimit="10" x1="197.347" y1="542.318" x2="197.347" y2="517.827"/>
	
		<line fill="none" stroke="#19162B" stroke-width="3" stroke-miterlimit="10" x1="216.307" y1="542.318" x2="216.307" y2="517.827"/>
	
		<line fill="none" stroke="#19162B" stroke-width="3" stroke-miterlimit="10" x1="237.641" y1="542.318" x2="237.641" y2="517.827"/>
	<line fill="none" stroke="#19162B" stroke-width="3" stroke-miterlimit="10" x1="255.019" y1="541.53" x2="255.019" y2="517.034"/>
	<path fill="#19162B" d="M198.928,621.72c0,12.437-10.082,22.518-22.516,22.518c-12.438,0-22.517-10.081-22.517-22.518
		s10.078-22.515,22.517-22.515C188.846,599.205,198.928,609.283,198.928,621.72z"/>
	<path fill="#19162B" d="M400.937,621.72c0,12.437-10.077,22.518-22.516,22.518c-12.434,0-22.518-10.081-22.518-22.518
		s10.084-22.515,22.518-22.515C390.86,599.205,400.937,609.283,400.937,621.72z"/>
</g>
</svg>
