<?xml version="1.0" encoding="utf-8"?>
<!-- Generator: Adobe Illustrator 15.1.0, SVG Export Plug-In . SVG Version: 6.00 Build 0)  -->
<!DOCTYPE svg PUBLIC "-//W3C//DTD SVG 1.1//EN" "http://www.w3.org/Graphics/SVG/1.1/DTD/svg11.dtd">
<svg version="1.1" id="Layer_1" xmlns="http://www.w3.org/2000/svg" xmlns:xlink="http://www.w3.org/1999/xlink" x="0px" y="0px"
	 width="536.378px" height="780.521px" viewBox="0 0 536.378 780.521" enable-background="new 0 0 536.378 780.521"
	 xml:space="preserve">
<rect x="163.537" y="201.337" fill="none" width="335.21" height="91.324"/>
<g enable-background="new    ">
	<path d="M286.142,288.815v-60.718h-14.4v-12.359c9.36-0.479,15.48-3.96,17.16-10.919h13.92v83.996H286.142z"/>
	<path d="M320.822,288.815c0.479-28.799,18.119-41.278,38.639-50.278c7.199-3.119,9.479-6.479,9.479-10.079
		c0-4.32-3.719-8.52-13.799-8.52c-9.959,0-18,4.439-23.879,10.079l-10.8-12.6c8.88-8.999,20.759-13.919,34.079-13.919
		c19.918,0,31.198,8.039,31.198,24.119c0,13.56-7.319,19.439-21.599,26.039c-14.88,6.84-20.64,12.479-22.199,18.959h44.638v16.199
		H320.822z"/>
</g>
<rect x="-21.884" y="409.516" fill="none" width="587.719" height="34.201"/>
<g enable-background="new    ">
	<path d="M56.535,412.816v3.479h3.78v2.01h-3.78v7.83c0,1.8,0.51,2.819,1.98,2.819c0.72,0,1.14-0.06,1.53-0.18l0.12,2.01
		c-0.51,0.181-1.32,0.36-2.34,0.36c-1.23,0-2.22-0.42-2.85-1.11c-0.72-0.81-1.02-2.1-1.02-3.81v-7.92h-2.25v-2.01h2.25v-2.7
		L56.535,412.816z"/>
	<path d="M76.245,423.436c0,5.37-3.75,7.71-7.23,7.71c-3.9,0-6.959-2.88-6.959-7.47c0-4.83,3.209-7.68,7.2-7.68
		C73.424,415.996,76.245,419.026,76.245,423.436z M64.755,423.586c0,3.18,1.8,5.579,4.38,5.579c2.52,0,4.41-2.369,4.41-5.64
		c0-2.46-1.23-5.55-4.35-5.55C66.105,417.976,64.755,420.855,64.755,423.586z"/>
	<path d="M82.754,412.816v3.479h3.78v2.01h-3.78v7.83c0,1.8,0.51,2.819,1.98,2.819c0.72,0,1.14-0.06,1.53-0.18l0.12,2.01
		c-0.51,0.181-1.32,0.36-2.34,0.36c-1.23,0-2.22-0.42-2.85-1.11c-0.72-0.81-1.02-2.1-1.02-3.81v-7.92h-2.25v-2.01h2.25v-2.7
		L82.754,412.816z"/>
	<path d="M99.704,427.336c0,1.26,0.06,2.489,0.21,3.479h-2.37l-0.21-1.83h-0.09c-0.81,1.14-2.37,2.16-4.44,2.16
		c-2.94,0-4.44-2.07-4.44-4.17c0-3.51,3.12-5.43,8.73-5.399v-0.301c0-1.17-0.33-3.359-3.3-3.329c-1.38,0-2.79,0.39-3.81,1.08
		l-0.6-1.771c1.2-0.75,2.97-1.26,4.8-1.26c4.44,0,5.52,3.03,5.52,5.91V427.336z M97.154,423.405c-2.88-0.06-6.15,0.45-6.15,3.271
		c0,1.739,1.14,2.52,2.46,2.52c1.92,0,3.15-1.2,3.57-2.43c0.09-0.3,0.12-0.6,0.12-0.84V423.405z"/>
	<path d="M103.964,409.517h2.64v21.299h-2.64V409.517z"/>
	<path d="M118.424,416.296l2.85,8.13c0.48,1.35,0.87,2.55,1.17,3.75h0.09c0.33-1.2,0.75-2.4,1.23-3.75l2.82-8.13h2.76l-5.7,14.52
		h-2.52l-5.52-14.52H118.424z"/>
	<path d="M144.673,423.436c0,5.37-3.75,7.71-7.23,7.71c-3.9,0-6.959-2.88-6.959-7.47c0-4.83,3.209-7.68,7.2-7.68
		C141.853,415.996,144.673,419.026,144.673,423.436z M133.184,423.586c0,3.18,1.8,5.579,4.38,5.579c2.52,0,4.41-2.369,4.41-5.64
		c0-2.46-1.23-5.55-4.35-5.55C134.534,417.976,133.184,420.855,133.184,423.586z"/>
	<path d="M148.003,409.517h2.64v21.299h-2.64V409.517z"/>
	<path d="M167.233,426.825c0,1.53,0.03,2.851,0.12,3.99h-2.34l-0.15-2.37h-0.06c-0.66,1.17-2.22,2.7-4.8,2.7
		c-2.28,0-5.01-1.29-5.01-6.359v-8.49h2.64v8.01c0,2.76,0.87,4.649,3.24,4.649c1.77,0,3-1.229,3.48-2.43
		c0.15-0.359,0.24-0.84,0.24-1.35v-8.88h2.64V426.825z"/>
	<path d="M171.613,420.226c0-1.529-0.06-2.729-0.12-3.93h2.31l0.12,2.37h0.09c0.81-1.38,2.16-2.67,4.59-2.67
		c1.95,0,3.45,1.2,4.08,2.91h0.06c0.45-0.84,1.05-1.44,1.65-1.891c0.87-0.659,1.8-1.02,3.18-1.02c1.95,0,4.8,1.26,4.8,6.3v8.52
		h-2.58v-8.189c0-2.82-1.05-4.47-3.15-4.47c-1.53,0-2.67,1.109-3.15,2.369c-0.12,0.391-0.21,0.841-0.21,1.32v8.97h-2.58v-8.699
		c0-2.311-1.02-3.96-3.03-3.96c-1.62,0-2.85,1.319-3.27,2.64c-0.15,0.36-0.21,0.84-0.21,1.29v8.729h-2.58V420.226z"/>
	<path d="M198.103,424.036c0.06,3.569,2.31,5.039,4.98,5.039c1.89,0,3.06-0.33,4.02-0.75l0.48,1.891c-0.93,0.42-2.55,0.93-4.86,0.93
		c-4.47,0-7.14-2.97-7.14-7.35s2.58-7.8,6.81-7.8c4.77,0,6,4.14,6,6.81c0,0.54-0.03,0.93-0.09,1.23H198.103z M205.843,422.146
		c0.03-1.649-0.69-4.26-3.66-4.26c-2.7,0-3.84,2.43-4.05,4.26H205.843z"/>
	<path d="M231.162,423.436c0,5.37-3.75,7.71-7.23,7.71c-3.9,0-6.959-2.88-6.959-7.47c0-4.83,3.209-7.68,7.2-7.68
		C228.342,415.996,231.162,419.026,231.162,423.436z M219.672,423.586c0,3.18,1.8,5.579,4.38,5.579c2.52,0,4.41-2.369,4.41-5.64
		c0-2.46-1.23-5.55-4.35-5.55C221.022,417.976,219.672,420.855,219.672,423.586z"/>
	<path d="M234.763,430.815v-12.51h-2.01v-2.01h2.01v-0.689c0-2.04,0.48-3.9,1.68-5.07c0.99-0.96,2.31-1.35,3.54-1.35
		c0.96,0,1.74,0.21,2.25,0.42l-0.36,2.04c-0.39-0.181-0.9-0.33-1.68-0.33c-2.25,0-2.82,1.95-2.82,4.199v0.78h3.51v2.01h-3.51v12.51
		H234.763z"/>
	<path d="M249.882,430.815v-12.51h-2.01v-2.01h2.01v-0.689c0-2.04,0.48-3.9,1.68-5.07c0.99-0.96,2.31-1.35,3.54-1.35
		c0.96,0,1.74,0.21,2.25,0.42l-0.36,2.04c-0.39-0.181-0.9-0.33-1.68-0.33c-2.25,0-2.82,1.95-2.82,4.199v0.78h3.51v2.01h-3.51v12.51
		H249.882z"/>
	<path d="M258.372,420.826c0-1.71-0.03-3.181-0.12-4.53h2.31l0.12,2.88h0.09c0.66-1.95,2.28-3.18,4.05-3.18
		c0.27,0,0.48,0.03,0.72,0.06v2.49c-0.27-0.06-0.54-0.06-0.9-0.06c-1.86,0-3.18,1.38-3.54,3.359c-0.06,0.36-0.09,0.81-0.09,1.23
		v7.739h-2.64V420.826z"/>
	<path d="M269.351,424.036c0.061,3.569,2.311,5.039,4.98,5.039c1.891,0,3.061-0.33,4.02-0.75l0.48,1.891
		c-0.93,0.42-2.551,0.93-4.859,0.93c-4.471,0-7.14-2.97-7.14-7.35s2.58-7.8,6.81-7.8c4.77,0,5.999,4.14,5.999,6.81
		c0,0.54-0.03,0.93-0.09,1.23H269.351z M277.091,422.146c0.03-1.649-0.689-4.26-3.66-4.26c-2.699,0-3.84,2.43-4.049,4.26H277.091z"
		/>
	<path d="M282.552,428.146c0.809,0.48,2.189,1.02,3.51,1.02c1.889,0,2.789-0.93,2.789-2.159c0-1.26-0.75-1.92-2.67-2.641
		c-2.64-0.96-3.869-2.369-3.869-4.109c0-2.34,1.92-4.26,5.01-4.26c1.47,0,2.76,0.39,3.539,0.899l-0.629,1.92
		c-0.57-0.359-1.621-0.869-2.971-0.869c-1.56,0-2.4,0.899-2.4,1.979c0,1.2,0.841,1.74,2.73,2.49c2.49,0.93,3.811,2.189,3.811,4.35
		c0,2.58-2.011,4.38-5.4,4.38c-1.59,0-3.061-0.42-4.08-1.021L282.552,428.146z"/>
	<path d="M294.792,409.517h2.64v9.089h0.061c0.42-0.749,1.08-1.439,1.89-1.89c0.78-0.45,1.71-0.72,2.7-0.72
		c1.949,0,5.069,1.2,5.069,6.18v8.64h-2.64v-8.34c0-2.34-0.87-4.29-3.359-4.29c-1.711,0-3.031,1.2-3.541,2.61
		c-0.149,0.39-0.18,0.78-0.18,1.26v8.76h-2.64V409.517z"/>
	<path d="M312.101,416.296l1.951,7.38c0.389,1.62,0.779,3.12,1.049,4.62h0.09c0.33-1.471,0.811-3.03,1.291-4.59l2.369-7.41h2.221
		l2.25,7.26c0.539,1.74,0.959,3.27,1.289,4.74h0.09c0.24-1.471,0.631-3,1.11-4.71l2.069-7.29h2.61l-4.68,14.52h-2.399l-2.221-6.93
		c-0.51-1.62-0.93-3.06-1.289-4.77h-0.061c-0.359,1.739-0.811,3.239-1.32,4.8l-2.34,6.899h-2.399l-4.38-14.52H312.101z"/>
	<path d="M343.211,427.336c0,1.26,0.06,2.489,0.21,3.479h-2.37l-0.21-1.83h-0.09c-0.811,1.14-2.37,2.16-4.439,2.16
		c-2.94,0-4.44-2.07-4.44-4.17c0-3.51,3.12-5.43,8.729-5.399v-0.301c0-1.17-0.33-3.359-3.299-3.329c-1.381,0-2.791,0.39-3.811,1.08
		l-0.6-1.771c1.199-0.75,2.969-1.26,4.799-1.26c4.44,0,5.521,3.03,5.521,5.91V427.336z M340.662,423.405
		c-2.881-0.06-6.15,0.45-6.15,3.271c0,1.739,1.141,2.52,2.461,2.52c1.92,0,3.149-1.2,3.569-2.43c0.09-0.3,0.12-0.6,0.12-0.84
		V423.405z"/>
	<path d="M350.531,412.816v3.479h3.78v2.01h-3.78v7.83c0,1.8,0.511,2.819,1.98,2.819c0.721,0,1.141-0.06,1.529-0.18l0.121,2.01
		c-0.51,0.181-1.32,0.36-2.34,0.36c-1.23,0-2.221-0.42-2.85-1.11c-0.721-0.81-1.021-2.1-1.021-3.81v-7.92h-2.25v-2.01h2.25v-2.7
		L350.531,412.816z"/>
	<path d="M358.571,424.036c0.06,3.569,2.31,5.039,4.979,5.039c1.891,0,3.061-0.33,4.021-0.75l0.479,1.891
		c-0.93,0.42-2.55,0.93-4.859,0.93c-4.47,0-7.14-2.97-7.14-7.35s2.579-7.8,6.81-7.8c4.77,0,6,4.14,6,6.81
		c0,0.54-0.03,0.93-0.09,1.23H358.571z M366.31,422.146c0.031-1.649-0.689-4.26-3.659-4.26c-2.7,0-3.84,2.43-4.05,4.26H366.31z"/>
	<path d="M372.13,420.826c0-1.71-0.029-3.181-0.119-4.53h2.31l0.12,2.88h0.09c0.66-1.95,2.279-3.18,4.05-3.18
		c0.271,0,0.479,0.03,0.72,0.06v2.49c-0.27-0.06-0.539-0.06-0.9-0.06c-1.859,0-3.18,1.38-3.539,3.359
		c-0.061,0.36-0.09,0.81-0.09,1.23v7.739h-2.641V420.826z"/>
	<path d="M401.441,423.436c0,5.37-3.75,7.71-7.23,7.71c-3.9,0-6.959-2.88-6.959-7.47c0-4.83,3.209-7.68,7.199-7.68
		C398.621,415.996,401.441,419.026,401.441,423.436z M389.951,423.586c0,3.18,1.8,5.579,4.38,5.579c2.521,0,4.409-2.369,4.409-5.64
		c0-2.46-1.229-5.55-4.35-5.55C391.3,417.976,389.951,420.855,389.951,423.586z"/>
	<path d="M404.771,420.226c0-1.529-0.031-2.729-0.121-3.93h2.34l0.15,2.4h0.061c0.72-1.351,2.399-2.7,4.799-2.7
		c2.011,0,5.131,1.2,5.131,6.18v8.64h-2.641v-8.37c0-2.34-0.869-4.289-3.359-4.289c-1.71,0-3.061,1.229-3.54,2.699
		c-0.12,0.33-0.181,0.78-0.181,1.23v8.729h-2.639V420.226z"/>
	<path d="M438.31,421.336h-7.83v7.29h8.76v2.189h-11.4v-20.219h10.949v2.189h-8.309v6.39h7.83V421.336z"/>
	<path d="M452.74,427.336c0,1.26,0.059,2.489,0.209,3.479h-2.369l-0.211-1.83h-0.09c-0.81,1.14-2.369,2.16-4.439,2.16
		c-2.939,0-4.439-2.07-4.439-4.17c0-3.51,3.119-5.43,8.729-5.399v-0.301c0-1.17-0.33-3.359-3.3-3.329c-1.381,0-2.79,0.39-3.811,1.08
		l-0.6-1.771c1.2-0.75,2.971-1.26,4.8-1.26c4.44,0,5.521,3.03,5.521,5.91V427.336z M450.189,423.405
		c-2.879-0.06-6.149,0.45-6.149,3.271c0,1.739,1.14,2.52,2.46,2.52c1.92,0,3.15-1.2,3.57-2.43c0.09-0.3,0.119-0.6,0.119-0.84
		V423.405z"/>
	<path d="M457,420.826c0-1.71-0.029-3.181-0.119-4.53h2.309l0.121,2.88h0.09c0.66-1.95,2.279-3.18,4.049-3.18
		c0.27,0,0.48,0.03,0.721,0.06v2.49c-0.27-0.06-0.541-0.06-0.9-0.06c-1.859,0-3.18,1.38-3.539,3.359
		c-0.061,0.36-0.09,0.81-0.09,1.23v7.739H457V420.826z"/>
	<path d="M470.708,412.816v3.479h3.779v2.01h-3.779v7.83c0,1.8,0.51,2.819,1.98,2.819c0.719,0,1.139-0.06,1.529-0.18l0.121,2.01
		c-0.512,0.181-1.32,0.36-2.34,0.36c-1.23,0-2.221-0.42-2.852-1.11c-0.719-0.81-1.02-2.1-1.02-3.81v-7.92h-2.25v-2.01h2.25v-2.7
		L470.708,412.816z"/>
	<path d="M477.458,409.517h2.641v9.089h0.059c0.42-0.749,1.08-1.439,1.891-1.89c0.779-0.45,1.709-0.72,2.699-0.72
		c1.951,0,5.07,1.2,5.07,6.18v8.64h-2.641v-8.34c0-2.34-0.869-4.29-3.359-4.29c-1.709,0-3.029,1.2-3.539,2.61
		c-0.15,0.39-0.18,0.78-0.18,1.26v8.76h-2.641V409.517z"/>
</g>
<rect x="189.037" y="313.761" fill="none" width="284.21" height="50.877"/>
<g enable-background="new    ">
	<path d="M230.869,359.86V348.56c-1.3,1.15-3.05,2.2-5.55,2.2c-5.6,0-10.201-4.2-10.201-14.001c0-7.851,3.7-13.351,10.201-13.351
		c2.3,0,4.3,0.9,5.55,2.05v-1.5h6.9v32.452L230.869,359.86z M230.869,332.159c-1.05-1.45-2.65-2.25-4.65-2.25
		c-2.65,0-4.1,2.3-4.1,6.7c0,5.4,1.8,7.65,4.5,7.65c2.15,0,3.25-0.9,4.25-2.2V332.159z"/>
	<path d="M260.169,350.21v-1.75c-1.2,1.25-3.4,2.3-6.15,2.3c-6.7,0-9.701-4.6-9.701-12.001v-14.801h6.9v14.201
		c0,4.7,1.6,6.101,4.45,6.101c2.851,0,4.5-1.4,4.5-5.95v-14.352h6.9v26.252H260.169z"/>
	<path d="M277.468,321.809c-2.15,0-3.95-1.801-3.95-3.95c0-2.15,1.8-3.95,3.95-3.95s3.95,1.8,3.95,3.95
		C281.418,320.008,279.619,321.809,277.468,321.809z M274.018,350.21v-26.252h6.9v26.252H274.018z"/>
	<path d="M303.719,350.21v-14.201c0-4.7-1.601-6.1-4.45-6.1s-4.5,1.399-4.5,5.95v14.351h-6.9v-26.252h6.9v1.75
		c1.199-1.25,3.4-2.3,6.15-2.3c6.7,0,9.7,4.601,9.7,12.001v14.801H303.719z"/>
	<path d="M331.469,349.16c-1.149,0.899-3.2,1.6-5.351,1.6c-4.25,0-7-3.3-7-7.9v-12.4h-4.4v-6.501h4.4v-6.75l6.9-3.45v10.2h6.301
		v6.501h-6.301v10.551c0,2.5,0.9,3.149,2.551,3.149c1.25,0,2.199-0.55,3.899-2L331.469,349.16z"/>
	<path d="M342.619,321.809c-2.15,0-3.951-1.801-3.951-3.95c0-2.15,1.801-3.95,3.951-3.95s3.949,1.8,3.949,3.95
		C346.568,320.008,344.769,321.809,342.619,321.809z M339.167,350.21v-26.252h6.9v26.252H339.167z"/>
	<path d="M353.267,350.21v-33.002l6.9-3.45v36.452H353.267z"/>
	<path d="M367.368,350.21v-33.002l6.9-3.45v36.452H367.368z"/>
	<path d="M384.917,321.809c-2.15,0-3.95-1.801-3.95-3.95c0-2.15,1.8-3.95,3.95-3.95s3.95,1.8,3.95,3.95
		C388.868,320.008,387.068,321.809,384.917,321.809z M381.467,350.21v-26.252h6.9v26.252H381.467z"/>
	<path d="M405.818,350.76c-6.85,0-11.851-5.601-11.851-13.65c0-8.051,5.001-13.701,11.851-13.701c6.851,0,11.9,5.65,11.9,13.701
		C417.718,345.159,412.668,350.76,405.818,350.76z M405.818,330.059c-3.3,0-4.85,3-4.85,7.051c0,4.05,1.55,7,4.85,7
		c3.301,0,4.9-3.35,4.9-7C410.718,333.109,409.119,330.059,405.818,330.059z"/>
	<path d="M438.917,350.21v-14.201c0-4.7-1.6-6.1-4.449-6.1c-2.851,0-4.501,1.399-4.501,5.95v14.351h-6.9v-26.252h6.9v1.75
		c1.2-1.25,3.4-2.3,6.15-2.3c6.7,0,9.7,4.601,9.7,12.001v14.801H438.917z"/>
</g>
<path fill="#19162B" d="M179.638,503.294c0,0,86.13-26.97,172.259,2.608l-18.271,162.688
	c-82.333,24.311-134.943-1.934-134.943-1.934l-18.271-162.689 M273.126,524.25c0,0-48.127,52.029-42.01,92.922
	c0,0,4.729,29.491,35.065,29.491c0,0,32.271,2.923,34.77-37.345c0,0,0.563-16.902-15.021-41.392
	C285.929,567.928,273.691,549.848,273.126,524.25z"/>
</svg>
