<?xml version="1.0" encoding="utf-8"?>
<!-- Generator: Adobe Illustrator 15.1.0, SVG Export Plug-In . SVG Version: 6.00 Build 0)  -->
<!DOCTYPE svg PUBLIC "-//W3C//DTD SVG 1.1//EN" "http://www.w3.org/Graphics/SVG/1.1/DTD/svg11.dtd">
<svg version="1.1" id="Layer_1" xmlns="http://www.w3.org/2000/svg" xmlns:xlink="http://www.w3.org/1999/xlink" x="0px" y="0px"
	 width="536.378px" height="780.521px" viewBox="0 0 536.378 780.521" enable-background="new 0 0 536.378 780.521"
	 xml:space="preserve">
<rect x="163.537" y="201.337" fill="none" width="335.21" height="91.324"/>
<g enable-background="new    ">
	<path d="M241.322,288.815c0.48-28.799,18.119-41.278,38.638-50.278c7.2-3.119,9.48-6.479,9.48-10.079c0-4.32-3.721-8.52-13.8-8.52
		c-9.959,0-18,4.439-23.879,10.079l-10.799-12.6c8.879-8.999,20.759-13.919,34.078-13.919c19.92,0,31.199,8.039,31.199,24.119
		c0,13.56-7.32,19.439-21.6,26.039c-14.879,6.84-20.639,12.479-22.199,18.959h44.638v16.199H241.322z"/>
	<path d="M332.042,290.136c-6.12,0-11.279-5.16-11.279-11.28c0-6.119,5.159-11.279,11.279-11.279c6.119,0,11.279,5.16,11.279,11.279
		C343.322,284.976,338.162,290.136,332.042,290.136z"/>
	<path d="M387.24,290.136c-12.119,0-22.199-2.4-32.759-9l8.159-14.279c7.801,4.439,16.08,7.08,24.6,7.08c11.399,0,18-4.801,18-13.8
		c0-8.76-6.36-12.479-14.28-12.479c-7.56,0-12.599,2.279-16.56,5.04l-15.959-5.88l2.88-41.998h55.917v16.199H376.8l-0.96,14.52
		c4.68-2.521,9.72-3.84,17.64-3.84c18.839,0,28.799,11.999,28.799,27.838C422.279,279.696,407.878,290.136,387.24,290.136z"/>
</g>
<rect x="-19.884" y="404.235" fill="none" width="587.719" height="62.156"/>
<g enable-background="new    ">
	<path d="M106.009,422.056c0,1.26,0.06,2.489,0.21,3.479h-2.37l-0.21-1.83h-0.09c-0.81,1.14-2.37,2.16-4.44,2.16
		c-2.94,0-4.44-2.07-4.44-4.17c0-3.51,3.12-5.43,8.73-5.399v-0.301c0-1.17-0.33-3.359-3.3-3.329c-1.38,0-2.79,0.39-3.81,1.08
		l-0.6-1.771c1.2-0.75,2.97-1.26,4.8-1.26c4.44,0,5.52,3.03,5.52,5.91V422.056z M103.459,418.125c-2.88-0.06-6.15,0.45-6.15,3.271
		c0,1.739,1.14,2.52,2.46,2.52c1.92,0,3.15-1.2,3.57-2.43c0.09-0.3,0.12-0.6,0.12-0.84V418.125z"/>
	<path d="M110.269,414.945c0-1.529-0.06-2.729-0.12-3.93h2.31l0.12,2.37h0.09c0.81-1.38,2.16-2.67,4.59-2.67
		c1.95,0,3.45,1.2,4.08,2.91h0.06c0.45-0.84,1.05-1.44,1.65-1.891c0.87-0.659,1.8-1.02,3.18-1.02c1.95,0,4.8,1.26,4.8,6.3v8.52
		h-2.58v-8.189c0-2.82-1.05-4.47-3.15-4.47c-1.53,0-2.67,1.109-3.15,2.369c-0.12,0.391-0.21,0.841-0.21,1.32v8.97h-2.58v-8.699
		c0-2.311-1.02-3.96-3.03-3.96c-1.62,0-2.85,1.319-3.27,2.64c-0.15,0.36-0.21,0.84-0.21,1.29v8.729h-2.58V414.945z"/>
	<path d="M148.429,418.155c0,5.37-3.75,7.71-7.23,7.71c-3.9,0-6.959-2.88-6.959-7.47c0-4.83,3.209-7.68,7.2-7.68
		C145.608,410.716,148.429,413.746,148.429,418.155z M136.939,418.306c0,3.18,1.8,5.579,4.38,5.579c2.52,0,4.41-2.369,4.41-5.64
		c0-2.46-1.23-5.55-4.35-5.55C138.289,412.695,136.939,415.575,136.939,418.306z"/>
	<path d="M163.908,421.545c0,1.53,0.03,2.851,0.12,3.99h-2.34l-0.15-2.37h-0.06c-0.66,1.17-2.22,2.7-4.8,2.7
		c-2.28,0-5.01-1.29-5.01-6.359v-8.49h2.64v8.01c0,2.76,0.87,4.649,3.24,4.649c1.77,0,3-1.229,3.48-2.43
		c0.15-0.359,0.24-0.84,0.24-1.35v-8.88h2.64V421.545z"/>
	<path d="M168.289,414.945c0-1.529-0.03-2.729-0.12-3.93h2.34l0.15,2.4h0.06c0.72-1.351,2.4-2.7,4.8-2.7c2.01,0,5.13,1.2,5.13,6.18
		v8.64h-2.64v-8.37c0-2.34-0.87-4.289-3.36-4.289c-1.71,0-3.06,1.229-3.54,2.699c-0.12,0.33-0.18,0.78-0.18,1.23v8.729h-2.64
		V414.945z"/>
	<path d="M187.998,407.536v3.479h3.78v2.01h-3.78v7.83c0,1.8,0.51,2.819,1.98,2.819c0.72,0,1.14-0.06,1.53-0.18l0.12,2.01
		c-0.51,0.181-1.32,0.36-2.34,0.36c-1.23,0-2.22-0.42-2.85-1.11c-0.72-0.81-1.02-2.1-1.02-3.81v-7.92h-2.25v-2.01h2.25v-2.7
		L187.998,407.536z"/>
	<path d="M213.257,421.545c0,1.53,0.03,2.851,0.12,3.99h-2.34l-0.15-2.37h-0.06c-0.66,1.17-2.22,2.7-4.8,2.7
		c-2.28,0-5.01-1.29-5.01-6.359v-8.49h2.64v8.01c0,2.76,0.87,4.649,3.24,4.649c1.77,0,3-1.229,3.48-2.43
		c0.15-0.359,0.24-0.84,0.24-1.35v-8.88h2.64V421.545z"/>
	<path d="M217.278,422.865c0.81,0.48,2.19,1.02,3.51,1.02c1.89,0,2.79-0.93,2.79-2.159c0-1.26-0.75-1.92-2.67-2.641
		c-2.64-0.96-3.87-2.369-3.87-4.109c0-2.34,1.92-4.26,5.01-4.26c1.47,0,2.76,0.39,3.54,0.899l-0.63,1.92
		c-0.57-0.359-1.62-0.869-2.97-0.869c-1.56,0-2.4,0.899-2.4,1.979c0,1.2,0.84,1.74,2.73,2.49c2.49,0.93,3.81,2.189,3.81,4.35
		c0,2.58-2.01,4.38-5.4,4.38c-1.59,0-3.06-0.42-4.08-1.021L217.278,422.865z"/>
	<path d="M230.987,418.756c0.06,3.569,2.31,5.039,4.98,5.039c1.89,0,3.06-0.33,4.02-0.75l0.48,1.891c-0.93,0.42-2.55,0.93-4.86,0.93
		c-4.47,0-7.14-2.97-7.14-7.35s2.58-7.8,6.81-7.8c4.77,0,6,4.14,6,6.81c0,0.54-0.03,0.93-0.09,1.23H230.987z M238.727,416.865
		c0.03-1.649-0.69-4.26-3.66-4.26c-2.7,0-3.84,2.43-4.05,4.26H238.727z"/>
	<path d="M257.057,404.236v17.549c0,1.29,0.06,2.76,0.12,3.75h-2.34l-0.12-2.52h-0.09c-0.78,1.619-2.52,2.85-4.89,2.85
		c-3.51,0-6.24-2.97-6.24-7.38c-0.03-4.83,3-7.77,6.51-7.77c2.25,0,3.72,1.05,4.379,2.189h0.06v-8.669H257.057z M254.447,416.926
		c0-0.33-0.03-0.78-0.12-1.11c-0.39-1.649-1.83-3.029-3.81-3.029c-2.73,0-4.35,2.399-4.35,5.579c0,2.94,1.47,5.37,4.29,5.37
		c1.77,0,3.39-1.2,3.87-3.15c0.09-0.359,0.12-0.72,0.12-1.14V416.926z"/>
	<path d="M280.336,404.236v17.549c0,1.29,0.06,2.76,0.12,3.75h-2.34l-0.12-2.52h-0.09c-0.78,1.619-2.521,2.85-4.89,2.85
		c-3.51,0-6.24-2.97-6.24-7.38c-0.03-4.83,3-7.77,6.509-7.77c2.25,0,3.721,1.05,4.38,2.189h0.06v-8.669H280.336z M277.726,416.926
		c0-0.33-0.029-0.78-0.119-1.11c-0.391-1.649-1.83-3.029-3.811-3.029c-2.729,0-4.35,2.399-4.35,5.579c0,2.94,1.471,5.37,4.29,5.37
		c1.771,0,3.39-1.2,3.87-3.15c0.09-0.359,0.119-0.72,0.119-1.14V416.926z"/>
	<path d="M294.947,422.056c0,1.26,0.061,2.489,0.21,3.479h-2.37l-0.21-1.83h-0.09c-0.81,1.14-2.37,2.16-4.44,2.16
		c-2.939,0-4.439-2.07-4.439-4.17c0-3.51,3.12-5.43,8.73-5.399v-0.301c0-1.17-0.33-3.359-3.301-3.329c-1.38,0-2.789,0.39-3.81,1.08
		l-0.601-1.771c1.201-0.75,2.971-1.26,4.801-1.26c4.439,0,5.52,3.03,5.52,5.91V422.056z M292.396,418.125
		c-2.879-0.06-6.148,0.45-6.148,3.271c0,1.739,1.139,2.52,2.459,2.52c1.92,0,3.15-1.2,3.57-2.43c0.09-0.3,0.119-0.6,0.119-0.84
		V418.125z"/>
	<path d="M302.146,406.936c0,0.9-0.629,1.62-1.68,1.62c-0.96,0-1.59-0.72-1.59-1.62c0-0.899,0.66-1.649,1.65-1.649
		C301.486,405.286,302.146,406.006,302.146,406.936z M299.207,425.535v-14.52h2.64v14.52H299.207z"/>
	<path d="M306.226,404.236h2.641v21.299h-2.641V404.236z"/>
	<path d="M314.266,411.016l3.149,8.58c0.36,0.96,0.721,2.1,0.961,2.97h0.06c0.271-0.87,0.569-1.98,0.93-3.03l2.88-8.52h2.79
		l-3.96,10.35c-1.89,4.979-3.18,7.5-4.979,9.09c-1.32,1.109-2.58,1.56-3.24,1.68l-0.659-2.189c0.659-0.21,1.529-0.63,2.309-1.29
		c0.721-0.57,1.591-1.59,2.221-2.94c0.12-0.27,0.21-0.479,0.21-0.63c0-0.149-0.06-0.359-0.21-0.689l-5.34-13.38H314.266z"/>
	<path d="M336.976,407.536v3.479h3.779v2.01h-3.779v7.83c0,1.8,0.51,2.819,1.979,2.819c0.72,0,1.14-0.06,1.53-0.18l0.119,2.01
		c-0.51,0.181-1.319,0.36-2.34,0.36c-1.229,0-2.219-0.42-2.85-1.11c-0.72-0.81-1.02-2.1-1.02-3.81v-7.92h-2.25v-2.01h2.25v-2.7
		L336.976,407.536z"/>
	<path d="M356.685,418.155c0,5.37-3.75,7.71-7.229,7.71c-3.899,0-6.96-2.88-6.96-7.47c0-4.83,3.21-7.68,7.2-7.68
		C353.865,410.716,356.685,413.746,356.685,418.155z M345.196,418.306c0,3.18,1.8,5.579,4.38,5.579c2.52,0,4.41-2.369,4.41-5.64
		c0-2.46-1.23-5.55-4.35-5.55C346.546,412.695,345.196,415.575,345.196,418.306z"/>
	<path d="M369.316,406.936c0,0.9-0.631,1.62-1.681,1.62c-0.96,0-1.59-0.72-1.59-1.62c0-0.899,0.66-1.649,1.649-1.649
		C368.656,405.286,369.316,406.006,369.316,406.936z M366.375,425.535v-14.52h2.64v14.52H366.375z"/>
	<path d="M373.395,415.546c0-1.71-0.03-3.181-0.12-4.53h2.311l0.119,2.88h0.09c0.66-1.95,2.28-3.18,4.051-3.18
		c0.27,0,0.479,0.03,0.719,0.06v2.49c-0.27-0.06-0.539-0.06-0.899-0.06c-1.86,0-3.18,1.38-3.54,3.359
		c-0.06,0.36-0.09,0.81-0.09,1.23v7.739h-2.64V415.546z"/>
	<path d="M383.325,415.546c0-1.71-0.03-3.181-0.12-4.53h2.311l0.119,2.88h0.09c0.66-1.95,2.28-3.18,4.051-3.18
		c0.27,0,0.479,0.03,0.719,0.06v2.49c-0.27-0.06-0.539-0.06-0.899-0.06c-1.86,0-3.18,1.38-3.54,3.359
		c-0.06,0.36-0.09,0.81-0.09,1.23v7.739h-2.64V415.546z"/>
	<path d="M396.195,406.936c0,0.9-0.63,1.62-1.68,1.62c-0.961,0-1.59-0.72-1.59-1.62c0-0.899,0.66-1.649,1.649-1.649
		C395.535,405.286,396.195,406.006,396.195,406.936z M393.255,425.535v-14.52h2.639v14.52H393.255z"/>
	<path d="M412.694,423.405c0,3.359-0.69,5.37-2.069,6.66c-1.44,1.289-3.48,1.739-5.311,1.739c-1.74,0-3.66-0.42-4.83-1.2l0.66-2.039
		c0.961,0.63,2.461,1.17,4.26,1.17c2.7,0,4.68-1.41,4.68-5.101v-1.59h-0.06c-0.78,1.351-2.37,2.431-4.62,2.431
		c-3.6,0-6.18-3.061-6.18-7.08c0-4.92,3.21-7.68,6.57-7.68c2.52,0,3.869,1.29,4.529,2.49h0.061l0.09-2.19h2.34
		c-0.09,1.021-0.12,2.22-0.12,3.96V423.405z M410.054,416.745c0-0.449-0.03-0.84-0.15-1.17c-0.48-1.56-1.74-2.819-3.689-2.819
		c-2.52,0-4.32,2.13-4.32,5.489c0,2.851,1.471,5.22,4.29,5.22c1.649,0,3.12-1.02,3.659-2.699c0.15-0.45,0.211-0.96,0.211-1.41
		V416.745z"/>
	<path d="M427.244,422.056c0,1.26,0.061,2.489,0.211,3.479h-2.371l-0.209-1.83h-0.09c-0.811,1.14-2.371,2.16-4.44,2.16
		c-2.94,0-4.44-2.07-4.44-4.17c0-3.51,3.121-5.43,8.73-5.399v-0.301c0-1.17-0.33-3.359-3.301-3.329c-1.379,0-2.789,0.39-3.809,1.08
		l-0.601-1.771c1.2-0.75,2.97-1.26,4.8-1.26c4.439,0,5.52,3.03,5.52,5.91V422.056z M424.695,418.125
		c-2.881-0.06-6.15,0.45-6.15,3.271c0,1.739,1.14,2.52,2.46,2.52c1.92,0,3.149-1.2,3.569-2.43c0.09-0.3,0.121-0.6,0.121-0.84
		V418.125z"/>
	<path d="M434.564,407.536v3.479h3.779v2.01h-3.779v7.83c0,1.8,0.51,2.819,1.98,2.819c0.72,0,1.14-0.06,1.529-0.18l0.12,2.01
		c-0.51,0.181-1.319,0.36-2.34,0.36c-1.229,0-2.22-0.42-2.85-1.11c-0.72-0.81-1.021-2.1-1.021-3.81v-7.92h-2.25v-2.01h2.25v-2.7
		L434.564,407.536z"/>
	<path d="M442.604,418.756c0.06,3.569,2.31,5.039,4.979,5.039c1.891,0,3.061-0.33,4.021-0.75l0.479,1.891
		c-0.93,0.42-2.55,0.93-4.859,0.93c-4.47,0-7.14-2.97-7.14-7.35s2.579-7.8,6.81-7.8c4.77,0,6,4.14,6,6.81
		c0,0.54-0.03,0.93-0.09,1.23H442.604z M450.343,416.865c0.031-1.649-0.689-4.26-3.659-4.26c-2.7,0-3.84,2.43-4.05,4.26H450.343z"/>
</g>
<g enable-background="new    ">
	<path d="M131.718,443.536v3.479h3.78v2.01h-3.78v7.83c0,1.8,0.51,2.819,1.98,2.819c0.72,0,1.14-0.06,1.53-0.18l0.12,2.01
		c-0.51,0.181-1.32,0.36-2.34,0.36c-1.23,0-2.22-0.42-2.85-1.11c-0.72-0.81-1.02-2.1-1.02-3.81v-7.92h-2.25v-2.01h2.25v-2.7
		L131.718,443.536z"/>
	<path d="M138.468,440.236h2.64v9.089h0.06c0.42-0.749,1.08-1.439,1.89-1.89c0.78-0.45,1.71-0.72,2.7-0.72
		c1.95,0,5.07,1.2,5.07,6.18v8.64h-2.64v-8.34c0-2.34-0.87-4.29-3.36-4.29c-1.71,0-3.03,1.2-3.54,2.61
		c-0.15,0.39-0.18,0.78-0.18,1.26v8.76h-2.64V440.236z"/>
	<path d="M156.587,454.756c0.06,3.569,2.31,5.039,4.98,5.039c1.89,0,3.06-0.33,4.02-0.75l0.48,1.891c-0.93,0.42-2.55,0.93-4.86,0.93
		c-4.47,0-7.14-2.97-7.14-7.35s2.58-7.8,6.81-7.8c4.77,0,6,4.14,6,6.81c0,0.54-0.03,0.93-0.09,1.23H156.587z M164.327,452.865
		c0.03-1.649-0.69-4.26-3.66-4.26c-2.7,0-3.84,2.43-4.05,4.26H164.327z"/>
	<path d="M177.557,447.016l1.95,7.38c0.39,1.62,0.78,3.12,1.05,4.62h0.09c0.33-1.471,0.81-3.03,1.29-4.59l2.37-7.41h2.22l2.25,7.26
		c0.54,1.74,0.96,3.27,1.29,4.74h0.09c0.24-1.471,0.63-3,1.11-4.71l2.07-7.29h2.61l-4.68,14.52h-2.4l-2.22-6.93
		c-0.51-1.62-0.93-3.06-1.29-4.77h-0.06c-0.36,1.739-0.81,3.239-1.32,4.8l-2.34,6.899h-2.4l-4.38-14.52H177.557z"/>
	<path d="M211.427,454.155c0,5.37-3.75,7.71-7.23,7.71c-3.9,0-6.959-2.88-6.959-7.47c0-4.83,3.209-7.68,7.2-7.68
		C208.606,446.716,211.427,449.746,211.427,454.155z M199.937,454.306c0,3.18,1.8,5.579,4.38,5.579c2.52,0,4.41-2.369,4.41-5.64
		c0-2.46-1.23-5.55-4.35-5.55C201.287,448.695,199.937,451.575,199.937,454.306z"/>
	<path d="M214.757,451.546c0-1.71-0.03-3.181-0.12-4.53h2.31l0.12,2.88h0.09c0.66-1.95,2.28-3.18,4.05-3.18
		c0.27,0,0.48,0.03,0.72,0.06v2.49c-0.27-0.06-0.54-0.06-0.9-0.06c-1.86,0-3.18,1.38-3.54,3.359c-0.06,0.36-0.09,0.81-0.09,1.23
		v7.739h-2.64V451.546z"/>
	<path d="M224.687,440.236h2.64v21.299h-2.64V440.236z"/>
	<path d="M244.276,440.236v17.549c0,1.29,0.06,2.76,0.12,3.75h-2.34l-0.12-2.52h-0.09c-0.78,1.619-2.52,2.85-4.89,2.85
		c-3.51,0-6.24-2.97-6.24-7.38c-0.03-4.83,3-7.77,6.51-7.77c2.25,0,3.72,1.05,4.379,2.189h0.06v-8.669H244.276z M241.666,452.926
		c0-0.33-0.03-0.78-0.12-1.11c-0.39-1.649-1.83-3.029-3.81-3.029c-2.73,0-4.35,2.399-4.35,5.579c0,2.94,1.47,5.37,4.29,5.37
		c1.77,0,3.39-1.2,3.87-3.15c0.09-0.359,0.12-0.72,0.12-1.14V452.926z"/>
	<path d="M252.166,440.776c-0.69,2.52-1.98,5.76-2.79,7.14l-1.68,0.18c0.63-1.77,1.44-4.859,1.77-7.02L252.166,440.776z"/>
	<path d="M252.556,458.865c0.81,0.48,2.19,1.02,3.51,1.02c1.89,0,2.79-0.93,2.79-2.159c0-1.26-0.75-1.92-2.67-2.641
		c-2.64-0.96-3.87-2.369-3.87-4.109c0-2.34,1.92-4.26,5.01-4.26c1.47,0,2.76,0.39,3.54,0.899l-0.63,1.92
		c-0.57-0.359-1.62-0.869-2.97-0.869c-1.56,0-2.4,0.899-2.4,1.979c0,1.2,0.84,1.74,2.73,2.49c2.49,0.93,3.81,2.189,3.81,4.35
		c0,2.58-2.01,4.38-5.4,4.38c-1.59,0-3.06-0.42-4.08-1.021L252.556,458.865z"/>
	<path d="M283.576,459.405c0,3.359-0.69,5.37-2.07,6.66c-1.439,1.289-3.48,1.739-5.311,1.739c-1.739,0-3.659-0.42-4.829-1.2
		l0.66-2.039c0.96,0.63,2.46,1.17,4.26,1.17c2.7,0,4.68-1.41,4.68-5.101v-1.59h-0.06c-0.78,1.351-2.37,2.431-4.62,2.431
		c-3.601,0-6.18-3.061-6.18-7.08c0-4.92,3.21-7.68,6.569-7.68c2.52,0,3.87,1.29,4.53,2.49h0.06l0.09-2.19h2.34
		c-0.09,1.021-0.119,2.22-0.119,3.96V459.405z M280.935,452.745c0-0.449-0.029-0.84-0.15-1.17c-0.479-1.56-1.739-2.819-3.689-2.819
		c-2.52,0-4.319,2.13-4.319,5.489c0,2.851,1.47,5.22,4.29,5.22c1.649,0,3.119-1.02,3.659-2.699c0.15-0.45,0.21-0.96,0.21-1.41
		V452.745z"/>
	<path d="M301.065,454.155c0,5.37-3.75,7.71-7.229,7.71c-3.9,0-6.96-2.88-6.96-7.47c0-4.83,3.21-7.68,7.2-7.68
		C298.245,446.716,301.065,449.746,301.065,454.155z M289.576,454.306c0,3.18,1.799,5.579,4.379,5.579c2.521,0,4.41-2.369,4.41-5.64
		c0-2.46-1.23-5.55-4.35-5.55C290.925,448.695,289.576,451.575,289.576,454.306z"/>
	<path d="M304.396,440.236h2.639v21.299h-2.639V440.236z"/>
	<path d="M311.746,461.535v-12.51h-2.01v-2.01h2.01v-0.689c0-2.04,0.479-3.9,1.68-5.07c0.99-0.96,2.31-1.35,3.539-1.35
		c0.961,0,1.74,0.21,2.25,0.42l-0.359,2.04c-0.391-0.181-0.9-0.33-1.68-0.33c-2.25,0-2.82,1.95-2.82,4.199v0.78h3.51v2.01h-3.51
		v12.51H311.746z"/>
	<path d="M336.945,461.025c-0.69,0.33-2.221,0.84-4.17,0.84c-4.381,0-7.23-2.97-7.23-7.41c0-4.47,3.061-7.739,7.8-7.739
		c1.56,0,2.94,0.39,3.66,0.78l-0.601,2.01c-0.629-0.33-1.619-0.69-3.06-0.69c-3.329,0-5.13,2.49-5.13,5.49
		c0,3.359,2.16,5.43,5.04,5.43c1.5,0,2.489-0.36,3.239-0.69L336.945,461.025z"/>
	<path d="M352.994,454.155c0,5.37-3.75,7.71-7.229,7.71c-3.899,0-6.96-2.88-6.96-7.47c0-4.83,3.21-7.68,7.2-7.68
		C350.173,446.716,352.994,449.746,352.994,454.155z M341.504,454.306c0,3.18,1.8,5.579,4.38,5.579c2.52,0,4.41-2.369,4.41-5.64
		c0-2.46-1.23-5.55-4.35-5.55C342.855,448.695,341.504,451.575,341.504,454.306z"/>
	<path d="M368.474,457.545c0,1.53,0.03,2.851,0.12,3.99h-2.34l-0.149-2.37h-0.061c-0.66,1.17-2.221,2.7-4.8,2.7
		c-2.28,0-5.01-1.29-5.01-6.359v-8.49h2.64v8.01c0,2.76,0.87,4.649,3.24,4.649c1.77,0,3-1.229,3.479-2.43
		c0.149-0.359,0.24-0.84,0.24-1.35v-8.88h2.64V457.545z"/>
	<path d="M372.855,451.546c0-1.71-0.03-3.181-0.121-4.53h2.311l0.12,2.88h0.09c0.66-1.95,2.28-3.18,4.05-3.18
		c0.27,0,0.48,0.03,0.72,0.06v2.49c-0.27-0.06-0.54-0.06-0.899-0.06c-1.86,0-3.18,1.38-3.54,3.359c-0.06,0.36-0.091,0.81-0.091,1.23
		v7.739h-2.639V451.546z"/>
	<path d="M382.304,458.865c0.81,0.48,2.189,1.02,3.51,1.02c1.89,0,2.79-0.93,2.79-2.159c0-1.26-0.75-1.92-2.67-2.641
		c-2.64-0.96-3.87-2.369-3.87-4.109c0-2.34,1.92-4.26,5.01-4.26c1.471,0,2.76,0.39,3.54,0.899l-0.63,1.92
		c-0.57-0.359-1.62-0.869-2.971-0.869c-1.559,0-2.399,0.899-2.399,1.979c0,1.2,0.841,1.74,2.729,2.49
		c2.49,0.93,3.811,2.189,3.811,4.35c0,2.58-2.01,4.38-5.4,4.38c-1.59,0-3.06-0.42-4.079-1.021L382.304,458.865z"/>
	<path d="M396.013,454.756c0.061,3.569,2.311,5.039,4.98,5.039c1.891,0,3.061-0.33,4.02-0.75l0.48,1.891
		c-0.93,0.42-2.551,0.93-4.859,0.93c-4.471,0-7.141-2.97-7.141-7.35s2.58-7.8,6.811-7.8c4.77,0,5.999,4.14,5.999,6.81
		c0,0.54-0.03,0.93-0.09,1.23H396.013z M403.753,452.865c0.03-1.649-0.689-4.26-3.66-4.26c-2.699,0-3.84,2.43-4.049,4.26H403.753z"
		/>
	<path d="M409.214,458.865c0.81,0.48,2.189,1.02,3.51,1.02c1.889,0,2.789-0.93,2.789-2.159c0-1.26-0.75-1.92-2.67-2.641
		c-2.64-0.96-3.869-2.369-3.869-4.109c0-2.34,1.92-4.26,5.01-4.26c1.47,0,2.76,0.39,3.539,0.899l-0.629,1.92
		c-0.57-0.359-1.621-0.869-2.971-0.869c-1.56,0-2.4,0.899-2.4,1.979c0,1.2,0.841,1.74,2.73,2.49c2.49,0.93,3.811,2.189,3.811,4.35
		c0,2.58-2.011,4.38-5.4,4.38c-1.59,0-3.061-0.42-4.08-1.021L409.214,458.865z"/>
</g>
<rect x="189.037" y="313.761" fill="none" width="284.21" height="50.877"/>
<g enable-background="new    ">
	<path d="M276.218,350.76c-2.299,0-4.3-0.899-5.55-2.05v1.5h-6.9v-33.002l6.9-3.45v11.851c1.3-1.15,3.05-2.2,5.55-2.2
		c5.602,0,10.201,4.2,10.201,14.001C286.419,345.26,282.719,350.76,276.218,350.76z M274.919,329.909
		c-2.15,0-3.251,0.899-4.251,2.199v9.901c1.05,1.45,2.65,2.25,4.65,2.25c2.65,0,4.101-2.301,4.101-6.7
		C279.419,332.159,277.619,329.909,274.919,329.909z"/>
	<path d="M295.568,321.809c-2.15,0-3.95-1.801-3.95-3.95c0-2.15,1.8-3.95,3.95-3.95s3.95,1.8,3.95,3.95
		C299.518,320.008,297.718,321.809,295.568,321.809z M292.118,350.21v-26.252h6.9v26.252H292.118z"/>
	<path d="M306.218,350.21v-33.002l6.9-3.45v36.452H306.218z"/>
	<path d="M320.318,350.21v-33.002l6.9-3.45v36.452H320.318z"/>
	<path d="M337.868,321.809c-2.149,0-3.95-1.801-3.95-3.95c0-2.15,1.801-3.95,3.95-3.95c2.15,0,3.95,1.8,3.95,3.95
		C341.818,320.008,340.018,321.809,337.868,321.809z M334.417,350.21v-26.252h6.9v26.252H334.417z"/>
	<path d="M358.769,350.76c-6.852,0-11.852-5.601-11.852-13.65c0-8.051,5-13.701,11.852-13.701c6.85,0,11.9,5.65,11.9,13.701
		C370.669,345.159,365.619,350.76,358.769,350.76z M358.769,330.059c-3.301,0-4.852,3-4.852,7.051c0,4.05,1.551,7,4.852,7
		c3.299,0,4.899-3.35,4.899-7C363.668,333.109,362.068,330.059,358.769,330.059z"/>
	<path d="M391.869,350.21v-14.201c0-4.7-1.601-6.1-4.451-6.1c-2.85,0-4.5,1.399-4.5,5.95v14.351h-6.9v-26.252h6.9v1.75
		c1.2-1.25,3.4-2.3,6.15-2.3c6.701,0,9.701,4.601,9.701,12.001v14.801H391.869z"/>
</g>
<g>
	<path fill="#19162B" d="M276.826,709.688l3.229-28.26c0.808-11.594,14.546-11.594,14.546-11.594v-12.711h-45.25v12.711
		c0,0,13.734,0,14.545,11.594l3.229,28.26H276.826z"/>
	<path fill="#19162B" d="M351.402,577.696c0,43.866-35.561,79.427-79.426,79.427c-43.867,0-79.427-35.561-79.427-79.427
		s35.56-79.428,79.427-79.428C315.843,498.27,351.402,533.83,351.402,577.696z M217.419,521.324c1.059-0.959,1.95-1.939,2.402-2.588
		c-1.491,1.315-2.908,2.684-4.276,4.086C216.01,522.527,216.669,522.012,217.419,521.324z M225.12,514.986
		c1.33-0.982,2.364-1.939,2.638-2.438c-0.204,0.14-0.417,0.277-0.622,0.424c-1.703,1.176-3.339,2.423-4.916,3.714
		C222.726,516.581,223.842,515.92,225.12,514.986z M235.938,507.658c-1.954,1.014-3.885,2.117-5.781,3.311
		c0.648-0.116,1.938-0.715,3.333-1.533C234.678,508.725,235.579,508.068,235.938,507.658z M243.396,504.283
		c-1.298,0.514-2.592,1.051-3.862,1.634c0.757-0.235,1.723-0.603,2.68-1.047C242.666,504.665,243.056,504.469,243.396,504.283z
		 M204.02,538.201c0.004-0.037,0.004-0.062,0.008-0.081c-1.12,1.942-2.155,3.929-3.098,5.96c0.247-0.225,0.584-0.666,0.982-1.298
		C202.897,541.218,203.866,539.148,204.02,538.201z M207.311,535.251c1.297-1.597,2.384-3.588,2.43-4.419
		c0.038-0.572-0.46-0.396-1.206,0.332c-1.043,1.439-2.04,2.913-2.981,4.406c-0.131,0.333-0.229,0.614-0.263,0.826
		C205.152,537.328,206.057,536.822,207.311,535.251z M214.066,527.719c1.553-1.56,2.743-3.391,2.642-4.102
		c-0.088-0.646-1.34,0.017-2.785,1.473c-1.417,1.44-2.572,3.209-2.595,3.95C211.324,529.852,212.533,529.264,214.066,527.719z
		 M222.014,520.516c1.774-1.437,2.994-3.062,2.705-3.641c-0.251-0.511-1.788,0.157-3.434,1.498
		c-1.633,1.344-2.831,2.938-2.711,3.549C218.717,522.59,220.25,521.976,222.014,520.516z M230.871,513.99
		c1.916-1.279,3.102-2.651,2.611-3.09c-0.41-0.388-2.225,0.229-4.001,1.407c-1.774,1.184-2.97,2.556-2.677,3.025
		C227.133,515.873,228.943,515.26,230.871,513.99z M240.264,508.412c1.978-1.047,3.047-2.146,2.375-2.468
		c-0.599-0.293-2.587,0.247-4.438,1.204c-1.854,0.983-2.97,2.078-2.502,2.438C236.223,510,238.267,509.463,240.264,508.412z
		 M249.772,503.989c1.966-0.784,2.867-1.596,2.031-1.834c-0.783-0.205-2.884,0.201-4.719,0.927c-1.85,0.73-2.85,1.557-2.194,1.834
		C245.594,505.203,247.791,504.786,249.772,503.989z M253.986,501.422c0.865,0.215,3.14-0.055,5.037-0.576
		c1.559-0.443,2.289-0.902,1.911-1.143c-2.406,0.34-4.81,0.787-7.18,1.348C253.604,501.209,253.669,501.344,253.986,501.422z
		 M197.073,554.106c-0.518,1.697-0.985,3.421-1.387,5.154c0.032-0.078,0.054-0.143,0.097-0.224
		C196.369,557.629,196.938,555.438,197.073,554.106z M197.926,552.221c-0.096,1.299,0.529,1.146,1.417-0.403
		c0.907-1.593,1.692-3.949,1.746-5.211c0.046-1.197-0.63-0.873-1.491,0.676c-0.12,0.22-0.24,0.471-0.363,0.729
		c-0.317,0.799-0.634,1.603-0.927,2.414C198.111,551.102,197.964,551.734,197.926,552.221z M204.422,544.057
		c1.24-1.677,2.209-4.018,2.143-5.188c-0.054-1.115-1.046-0.676-2.205,0.928c-1.124,1.582-2.051,3.771-2.075,4.951
		C202.268,545.984,203.217,545.694,204.422,544.057z M211.046,536.035c1.545-1.692,2.649-3.951,2.456-5.019
		c-0.197-0.987-1.521-0.479-2.97,1.124c-1.414,1.583-2.492,3.731-2.402,4.809C208.222,538.1,209.528,537.711,211.046,536.035z
		 M215.395,529.125c0.236,1.047,1.901,0.579,3.697-1.05c1.826-1.63,3.02-3.712,2.63-4.644c-0.343-0.864-2.016-0.32-3.708,1.208
		C216.341,526.168,215.167,528.175,215.395,529.125z M223.892,521.656c0.44,0.898,2.41,0.42,4.438-1.074
		c2.023-1.486,3.206-3.333,2.623-4.133c-0.53-0.721-2.5-0.197-4.373,1.192C224.691,519.025,223.501,520.833,223.892,521.656z
		 M233.312,514.881c0.621,0.771,2.869,0.316,5.02-0.957c2.133-1.279,3.233-2.846,2.446-3.5c-0.708-0.602-2.909-0.149-4.902,1.028
		C233.883,512.645,232.732,514.189,233.312,514.881z M243.21,509.122c0.831,0.638,3.261,0.295,5.428-0.729
		c2.131-1.012,3.074-2.267,2.111-2.801c-0.892-0.504-3.228-0.17-5.237,0.767C243.481,507.312,242.446,508.548,243.21,509.122z
		 M253.148,504.6c1.011,0.521,3.533,0.336,5.607-0.408c2.056-0.719,2.781-1.669,1.677-2.128c-1.047-0.414-3.442-0.229-5.372,0.438
		C253.083,503.176,252.218,504.121,253.148,504.6z M268.28,501.367c1.888-0.439,2.38-1.104,1.166-1.502
		c-1.154-0.363-3.518-0.329-5.318,0.064c-1.842,0.409-2.499,1.078-1.433,1.477C263.839,501.846,266.353,501.822,268.28,501.367z
		 M271.512,499.529c1.233,0.367,3.674,0.521,5.389,0.319c1.14-0.12,1.63-0.371,1.396-0.618c-2.438-0.203-4.895-0.293-7.346-0.271
		C270.725,499.139,270.895,499.344,271.512,499.529z M194.623,568.883c0.502-1.363,0.865-3.805,0.815-5.365
		c-0.026-0.897-0.193-1.272-0.417-1.131c-0.467,2.41-0.823,4.848-1.058,7.292C194.133,569.854,194.37,569.609,194.623,568.883z
		 M197.694,562.008c0.815-1.557,1.394-4.125,1.282-5.681c-0.112-1.499-0.827-1.417-1.591,0.124
		c-0.738,1.493-1.286,3.877-1.216,5.384C196.223,563.398,196.907,563.5,197.694,562.008z M202.359,554.346
		c1.16-1.69,1.947-4.338,1.746-5.862c-0.201-1.438-1.266-1.229-2.352,0.426c-1.066,1.599-1.812,4.078-1.676,5.561
		C200.205,556.025,201.225,555.982,202.359,554.346z M205.597,546.504c0.247,1.508,1.637,1.354,3.132-0.389
		c1.53-1.78,2.491-4.415,2.144-5.855c-0.333-1.362-1.766-1.058-3.187,0.656C206.304,542.589,205.379,545.08,205.597,546.504z
		 M215.167,532.802c-1.692,1.669-2.773,4.095-2.406,5.432c0.387,1.42,2.167,1.153,3.993-0.587c1.847-1.784,2.936-4.317,2.414-5.661
		C218.689,530.74,216.885,531.111,215.167,532.802z M223.98,524.934c-1.954,1.584-3.097,3.855-2.58,5.08
		c0.568,1.302,2.727,1.004,4.82-0.68c2.113-1.691,3.253-4.039,2.526-5.254C228.094,522.973,225.943,523.348,223.98,524.934z
		 M233.799,517.729c-2.133,1.408-3.275,3.447-2.565,4.533c0.761,1.184,3.229,0.89,5.504-0.629c2.271-1.52,3.36-3.604,2.438-4.666
		C238.324,515.985,235.91,516.318,233.799,517.729z M244.141,511.514c-2.193,1.174-3.255,2.915-2.348,3.886
		c0.975,1.026,3.646,0.819,5.986-0.455c2.306-1.271,3.269-3.045,2.163-3.964C248.907,510.107,246.312,510.348,244.141,511.514z
		 M254.53,506.566c-2.167,0.895-3.054,2.315-1.978,3.154c1.144,0.893,3.943,0.812,6.219-0.167c2.232-0.969,2.997-2.405,1.727-3.209
		C259.316,505.592,256.655,505.678,254.53,506.566z M262.996,505.426c1.29,0.78,4.091,0.873,6.203,0.197
		c2.061-0.664,2.576-1.771,1.217-2.482c-1.301-0.672-3.936-0.727-5.917-0.147C262.464,503.604,261.769,504.697,262.996,505.426z
		 M278.666,503.141c1.818-0.358,2.09-1.183,0.664-1.812c-1.379-0.613-3.894-0.842-5.674-0.521c-1.839,0.321-2.289,1.116-0.966,1.77
		C274.074,503.271,276.765,503.522,278.666,503.141z M286.912,502.004c1.553-0.115,1.596-0.678,0.154-1.27
		c-1.406-0.554-3.738-0.947-5.292-0.877c-1.599,0.085-1.834,0.62-0.45,1.221C282.763,501.699,285.287,502.113,286.912,502.004z
		 M292.937,501.874c-1.238-0.345-2.477-0.665-3.73-0.946C290.33,501.326,291.778,501.688,292.937,501.874z M194.527,579.357
		c0.386-1.214,0.506-3.692,0.255-5.454c-0.228-1.71-0.714-2.021-1.078-0.745l0,0c-0.104,2.013-0.12,4.036-0.076,6.062
		C193.867,580.16,194.234,580.279,194.527,579.357z M197.073,573.15c0.714-1.437,1.05-4.113,0.733-5.938
		c-0.293-1.753-1.078-1.946-1.73-0.479c-0.642,1.409-0.943,3.901-0.692,5.628C195.64,574.143,196.393,574.518,197.073,573.15z
		 M199.958,559.455c-0.961,1.575-1.479,4.236-1.17,5.994c0.333,1.824,1.425,2.078,2.456,0.518c1.078-1.634,1.634-4.483,1.236-6.326
		C202.086,557.887,200.958,557.828,199.958,559.455z M205.542,551.46c-1.333,1.704-2.075,4.469-1.653,6.228
		c0.417,1.835,1.926,1.953,3.34,0.228c1.477-1.771,2.232-4.725,1.704-6.535C208.427,549.653,206.894,549.703,205.542,551.46z
		 M212.838,543.025c-1.68,1.757-2.6,4.553-2.059,6.268c0.572,1.805,2.48,1.809,4.284-0.014c1.846-1.862,2.781-4.812,2.085-6.56
		C216.488,541.061,214.557,541.209,212.838,543.025z M221.749,534.49c-2.005,1.746-3.051,4.479-2.348,6.108
		c0.742,1.734,3.066,1.66,5.187-0.166c2.167-1.846,3.202-4.69,2.32-6.342C226.074,532.547,223.76,532.732,221.749,534.49z
		 M229.481,532.049c0.93,1.618,3.61,1.529,5.99-0.191c2.371-1.734,3.425-4.373,2.333-5.891c-1.013-1.43-3.658-1.26-5.882,0.378
		C229.688,527.974,228.604,530.527,229.481,532.049z M240.577,524.112c1.132,1.482,4.062,1.447,6.546-0.089
		c2.464-1.521,3.418-3.866,2.155-5.237c-1.192-1.302-4.043-1.198-6.381,0.216C240.557,520.427,239.514,522.713,240.577,524.112z
		 M252.086,517.217c1.313,1.342,4.388,1.412,6.848,0.148c2.406-1.236,3.197-3.244,1.78-4.48c-1.355-1.159-4.298-1.192-6.597-0.055
		C251.773,513.99,250.85,515.955,252.086,517.217z M264.981,508.08c-2.225,0.846-2.95,2.459-1.561,3.604
		c1.457,1.189,4.535,1.401,6.837,0.468c2.25-0.92,2.803-2.564,1.271-3.664C270.064,507.432,267.148,507.25,264.981,508.08z
		 M274.023,507.643c1.541,1.078,4.512,1.461,6.58,0.836c2.002-0.603,2.279-1.895,0.695-2.887c-1.518-0.961-4.307-1.309-6.266-0.778
		C273.015,505.354,272.537,506.616,274.023,507.643z M289.623,506.287c1.699-0.301,1.737-1.289,0.144-2.197
		c-1.537-0.877-4.129-1.367-5.812-1.135c-1.77,0.262-1.99,1.209-0.459,2.146C285.085,506.076,287.854,506.616,289.623,506.287z
		 M297.177,505.414c1.383-0.057,1.205-0.799-0.358-1.625c-1.521-0.803-3.848-1.44-5.269-1.433c-1.477,0.012-1.465,0.69,0.068,1.557
		C293.21,504.809,295.726,505.477,297.177,505.414z M303.257,505.611c0.062,0.012,0.115,0.016,0.152,0.016
		c-1.992-0.881-4.039-1.668-6.09-2.383c0.213,0.17,0.545,0.383,1.012,0.625C299.878,504.682,302.108,505.477,303.257,505.611z
		 M195.554,589.916c0.302-1.02,0.179-3.414-0.281-5.307c-0.445-1.851-1.009-2.418-1.274-1.316c-0.054,0.213-0.082,0.482-0.097,0.776
		c0.155,1.726,0.363,3.439,0.63,5.167C194.906,590.365,195.327,590.699,195.554,589.916z M197.652,584.656
		c0.614-1.244,0.683-3.916,0.154-5.913c-0.51-1.954-1.383-2.418-1.927-1.097c-0.537,1.258-0.579,3.75-0.127,5.631
		C196.223,585.208,197.073,585.834,197.652,584.656z M199.273,570.969c-0.869,1.472-1.134,4.21-0.598,6.172
		c0.541,2.023,1.738,2.563,2.677,1.15c0.984-1.483,1.278-4.396,0.652-6.48C201.402,569.795,200.17,569.438,199.273,570.969z
		 M203.31,569.969c0.646,2.092,2.248,2.515,3.584,0.885c1.387-1.685,1.92-4.815,1.17-6.944c-0.726-2.039-2.368-2.271-3.654-0.564
		C203.163,565.001,202.672,567.941,203.31,569.969z M211.429,554.956c-1.642,1.788-2.352,4.866-1.604,6.913
		c0.781,2.121,2.843,2.426,4.589,0.638c1.804-1.857,2.534-5.114,1.642-7.226C215.187,553.244,213.108,553.113,211.429,554.956z
		 M220.262,546.119c-1.997,1.846-2.89,4.966-1.989,6.975c0.938,2.117,3.441,2.316,5.558,0.441c2.187-1.933,3.07-5.199,1.993-7.271
		C224.791,544.295,222.301,544.242,220.262,546.119z M230.651,537.283c-2.294,1.799-3.279,4.842-2.21,6.797
		c1.124,2.039,4.006,2.193,6.435,0.316c2.458-1.9,3.418-5.05,2.145-7.021C235.822,535.494,232.96,535.451,230.651,537.283z
		 M242.125,528.932c-2.464,1.665-3.469,4.5-2.221,6.357c1.324,1.945,4.495,2.104,7.098,0.348c2.592-1.753,3.522-4.678,2.071-6.52
		C247.707,527.352,244.597,527.282,242.125,528.932z M254.067,521.551c-2.507,1.426-3.418,3.976-2.001,5.697
		c1.479,1.816,4.82,2.047,7.439,0.525c2.579-1.515,3.371-4.121,1.78-5.824C259.779,520.331,256.554,520.149,254.067,521.551z
		 M265.797,515.507c-2.414,1.116-3.132,3.317-1.595,4.913c1.629,1.656,4.978,2.012,7.465,0.788c2.426-1.21,3.008-3.444,1.316-4.989
		C271.367,514.719,268.161,514.402,265.797,515.507z M276.75,510.969c-2.209,0.801-2.699,2.623-1.065,4.082
		c1.707,1.52,4.937,2.025,7.181,1.12c2.172-0.869,2.487-2.728,0.745-4.128C281.938,510.688,278.878,510.209,276.75,510.969z
		 M285.996,511.251c1.738,1.39,4.742,2.047,6.662,1.476c1.836-0.557,1.885-2.039,0.155-3.329c-1.673-1.243-4.493-1.869-6.335-1.408
		C284.553,508.459,284.315,509.934,285.996,511.251z M300.835,510.74c1.49-0.273,1.31-1.443-0.371-2.615
		c-1.631-1.143-4.176-1.899-5.713-1.706c-1.604,0.197-1.592,1.333,0.068,2.554C296.559,510.217,299.259,511.02,300.835,510.74z
		 M307.361,510.016c1.17-0.047,0.785-0.95-0.812-2.022c-1.565-1.041-3.799-1.902-5.021-1.933c-1.294-0.034-1.055,0.822,0.557,1.939
		C303.755,509.146,306.141,510.043,307.361,510.016z M312.32,510.262c-1.892-1.144-3.839-2.205-5.809-3.189
		c0.234,0.267,0.66,0.622,1.298,1.036C309.367,509.131,311.375,510.093,312.32,510.262z M197.655,600.197
		c0.236-0.772-0.124-2.993-0.788-4.937c-0.656-1.911-1.324-2.704-1.503-1.818c-0.006,0.062-0.019,0.12-0.022,0.186
		c0.475,2.19,1.035,4.337,1.699,6.492C197.32,600.499,197.547,600.564,197.655,600.197z M199.383,596.104
		c0.521-0.995,0.347-3.521-0.406-5.622c-0.734-2.044-1.703-2.773-2.159-1.678c-0.44,1.052-0.239,3.452,0.437,5.399
		C197.926,596.189,198.891,597.043,199.383,596.104z M199.734,583.092c-0.761,1.283-0.765,3.971-0.004,6.058
		c0.757,2.127,2.062,2.923,2.9,1.735c0.889-1.25,0.907-4.104,0.054-6.329C201.857,582.389,200.541,581.739,199.734,583.092z
		 M203.878,582.934c0.877,2.261,2.58,2.943,3.815,1.519c1.302-1.514,1.561-4.654,0.59-6.982c-0.949-2.271-2.699-2.801-3.897-1.217
		C203.244,577.762,203.025,580.732,203.878,582.934z M209.946,575.58c1.007,2.344,3.178,2.924,4.846,1.256
		c1.73-1.729,2.229-5.111,1.104-7.514c-1.077-2.32-3.29-2.73-4.904-0.961C209.439,570.072,208.968,573.285,209.946,575.58z
		 M219.586,559.656c-1.97,1.846-2.647,5.225-1.522,7.551c1.16,2.414,3.793,2.893,5.882,1.047c2.139-1.9,2.846-5.428,1.564-7.844
		C224.267,558.08,221.605,557.752,219.586,559.656z M229.986,550.519c-2.317,1.899-3.151,5.325-1.868,7.647
		c1.332,2.417,4.383,2.818,6.828,0.877c2.472-1.971,3.311-5.508,1.846-7.893C235.39,548.854,232.346,548.575,229.986,550.519z
		 M239.742,548.904c1.502,2.358,4.886,2.729,7.559,0.816c2.673-1.927,3.546-5.353,1.927-7.646c-1.557-2.204-4.901-2.486-7.465-0.629
		C239.209,543.291,238.294,546.621,239.742,548.904z M252.348,539.958c1.65,2.265,5.238,2.673,7.976,0.905
		c2.719-1.754,3.5-4.944,1.75-7.104c-1.685-2.097-5.167-2.44-7.794-0.78C251.63,534.656,250.757,537.777,252.348,539.958z
		 M265.179,531.898c1.761,2.139,5.376,2.629,8.021,1.104c2.596-1.499,3.188-4.333,1.358-6.364c-1.761-1.942-5.24-2.397-7.767-1.021
		C264.202,527.032,263.469,529.84,265.179,531.898z M278.597,519.701c-2.391,1.082-2.913,3.514-1.129,5.43
		c1.839,1.982,5.318,2.604,7.729,1.387c2.338-1.161,2.686-3.62,0.836-5.479C284.212,519.238,280.91,518.639,278.597,519.701z
		 M289.147,515.357c-2.081,0.756-2.349,2.791-0.548,4.549c1.861,1.822,5.083,2.592,7.164,1.711c1.98-0.838,2.076-2.904,0.23-4.596
		C294.21,515.371,291.152,514.626,289.147,515.357z M304.253,514.518c-1.724-1.509-4.457-2.378-6.109-1.961
		c-1.754,0.452-1.762,2.109,0.025,3.716c1.828,1.665,4.721,2.561,6.414,2C306.199,517.752,306.041,516.047,304.253,514.518z
		 M311.603,516.346c1.24-0.271,0.865-1.627-0.814-3.024c-1.642-1.378-4.024-2.354-5.343-2.189c-1.394,0.183-1.157,1.504,0.562,2.979
		C307.759,515.623,310.285,516.623,311.603,516.346z M316.921,515.596c0.914-0.051,0.363-1.143-1.197-2.41
		c-1.541-1.259-3.576-2.284-4.577-2.332c-1.069-0.043-0.638,1.005,0.987,2.349C313.785,514.568,315.947,515.646,316.921,515.596z
		 M319.703,515.334c-1.269-0.989-2.58-1.928-3.895-2.836c0.238,0.236,0.541,0.507,0.896,0.784
		C317.725,514.109,318.849,514.877,319.703,515.334z M199.502,605.343c-0.638-1.433-1.244-2.353-1.545-2.422
		c0.81,2.298,1.722,4.577,2.753,6.812c0.004-0.002,0.008-0.002,0.008-0.015C200.904,609.208,200.355,607.234,199.502,605.343z
		 M202.194,606.887c0.463-0.737,0.062-3.013-0.893-5.094c-0.945-2.047-2.011-3.004-2.394-2.144c-0.363,0.8,0.054,3.005,0.911,4.924
		C200.703,606.513,201.765,607.559,202.194,606.887z M201.429,595.119c-0.672,1.03-0.437,3.557,0.526,5.646
		c0.981,2.115,2.386,3.112,3.14,2.205c0.811-0.977,0.583-3.604-0.471-5.862C203.565,594.902,202.148,594.002,201.429,595.119z
		 M205.696,595.783c1.098,2.286,2.912,3.217,4.048,2.043c1.208-1.248,1.212-4.236,0.022-6.644c-1.181-2.38-3.028-3.168-4.128-1.8
		C204.596,590.674,204.616,593.523,205.696,595.783z M211.796,582.42c-1.465,1.54-1.677,4.719-0.468,7.125
		c1.22,2.445,3.496,3.271,5.067,1.824c1.646-1.531,1.897-4.84,0.572-7.381C215.661,581.504,213.336,580.807,211.796,582.42z
		 M220.049,574.336c-1.912,1.766-2.353,5.211-1.013,7.725c1.372,2.564,4.114,3.291,6.122,1.596c2.099-1.762,2.581-5.35,1.102-7.973
		C224.807,573.111,222.018,572.531,220.049,574.336z M230.283,565.411c-2.305,1.911-2.951,5.526-1.472,8.105
		c1.531,2.64,4.716,3.271,7.13,1.388c2.456-1.928,3.132-5.674,1.499-8.335C235.838,563.971,232.639,563.468,230.283,565.411z
		 M242.149,556.053c-2.595,1.947-3.376,5.631-1.742,8.228c1.676,2.659,5.209,3.243,7.902,1.264c2.723-1.998,3.495-5.771,1.723-8.404
		C248.297,554.562,244.771,554.095,242.149,556.053z M255.036,546.837c-2.753,1.882-3.56,5.466-1.808,8.014
		c1.808,2.632,5.565,3.203,8.386,1.265c2.812-1.933,3.564-5.573,1.695-8.139C261.483,545.485,257.775,544.971,255.036,546.837z
		 M268.157,538.341c-2.72,1.684-3.453,5.036-1.607,7.507c1.893,2.538,5.702,3.152,8.462,1.381c2.731-1.742,3.35-5.134,1.422-7.575
		C274.541,537.283,270.845,536.695,268.157,538.341z M280.712,531.037c-2.557,1.397-3.098,4.426-1.2,6.77
		c1.946,2.402,5.614,3.121,8.168,1.597c2.483-1.464,2.899-4.517,0.946-6.786C286.726,530.384,283.188,529.689,280.712,531.037z
		 M292.041,525.236c-2.248,1.061-2.553,3.707-0.652,5.889c1.945,2.24,5.334,3.08,7.555,1.878c2.12-1.146,2.287-3.794,0.375-5.894
		C297.443,525.039,294.207,524.204,292.041,525.236z M301.658,525.996c1.889,2.059,4.907,3.032,6.731,2.155
		c1.728-0.837,1.622-3.074-0.201-4.989c-1.796-1.896-4.685-2.848-6.465-2.145C299.837,521.752,299.804,523.973,301.658,525.996z
		 M310.069,522.42c1.8,1.89,4.418,2.967,5.831,2.388c1.316-0.538,0.993-2.398-0.727-4.144c-1.688-1.727-4.193-2.777-5.604-2.369
		C308.08,518.725,308.292,520.574,310.069,522.42z M321.537,522.803c0.961-0.293,0.439-1.819-1.154-3.397
		c-1.568-1.562-3.689-2.688-4.74-2.519c-1.131,0.186-0.706,1.681,0.963,3.367C318.289,521.957,320.498,523.1,321.537,522.803z
		 M325.522,521.899c0.642-0.09-0.022-1.333-1.478-2.771c-1.446-1.417-3.213-2.576-3.961-2.592c-0.808-0.021-0.209,1.189,1.328,2.716
		C322.96,520.797,324.812,521.996,325.522,521.899z M205.859,616.619c0.417-0.451-0.163-2.398-1.275-4.375
		c-1.12-1.951-2.278-3.07-2.618-2.484c-0.298,0.545,0.277,2.469,1.302,4.269C204.307,615.862,205.473,617.018,205.859,616.619z
		 M204.187,606.555c-0.6,0.754-0.163,2.99,0.985,4.998c1.15,2.017,2.646,3.14,3.325,2.521c0.745-0.676,0.329-2.963-0.919-5.129
		C206.342,606.803,204.831,605.736,204.187,606.555z M208.562,607.973c1.278,2.197,3.175,3.291,4.226,2.41
		c1.126-0.942,0.907-3.616-0.476-5.967c-1.359-2.334-3.29-3.338-4.31-2.252C207.056,603.188,207.299,605.771,208.562,607.973z
		 M213.708,596.49c-1.368,1.285-1.341,4.248,0.062,6.628c1.417,2.386,3.75,3.409,5.213,2.239c1.557-1.226,1.584-4.279,0.065-6.812
		C217.546,596.037,215.151,595.131,213.708,596.49z M221.501,589.492c-1.812,1.567-2.029,4.869-0.49,7.406
		c1.551,2.569,4.352,3.479,6.268,2.03c1.997-1.517,2.278-4.942,0.618-7.614C226.264,588.676,223.397,587.869,221.501,589.492z
		 M231.403,581.301c-2.243,1.791-2.699,5.396-1.035,8.066c1.7,2.704,4.948,3.52,7.276,1.801c2.407-1.771,2.912-5.479,1.136-8.257
		C237.008,580.16,233.706,579.453,231.403,581.301z M241.685,580.713c1.824,2.793,5.442,3.521,8.111,1.614
		c2.695-1.943,3.363-5.825,1.475-8.647c-1.87-2.789-5.52-3.44-8.153-1.463C240.549,574.15,239.893,577.963,241.685,580.713z
		 M254.488,571.369c1.903,2.828,5.771,3.508,8.628,1.512c2.838-1.994,3.569-5.914,1.603-8.717c-1.946-2.773-5.785-3.42-8.59-1.426
		C253.337,564.703,252.61,568.573,254.488,571.369z M268.052,561.869c1.967,2.797,5.89,3.49,8.737,1.549
		c2.814-1.932,3.477-5.709,1.479-8.446c-1.967-2.704-5.828-3.388-8.62-1.515C266.813,555.334,266.094,559.104,268.052,561.869z
		 M281.484,552.848c2.006,2.711,5.787,3.465,8.467,1.688c2.6-1.734,3.103-5.265,1.116-7.875c-1.95-2.576-5.647-3.338-8.271-1.699
		C280.113,546.632,279.52,550.166,281.484,552.848z M301.812,546.741c2.256-1.465,2.518-4.64,0.605-7.076
		c-1.896-2.431-5.283-3.302-7.598-1.966c-2.395,1.39-2.779,4.576-0.824,7.127C295.96,547.4,299.462,548.258,301.812,546.741z
		 M305.175,531.94c-2.016,1.062-2.141,3.857-0.262,6.244c1.881,2.398,5.014,3.373,6.955,2.159c1.848-1.146,1.857-3.923,0.03-6.184
		C310.1,531.914,307.091,530.918,305.175,531.94z M313.596,527.723c-1.606,0.746-1.462,3.142,0.31,5.322
		c1.78,2.229,4.491,3.307,5.986,2.406c1.417-0.842,1.178-3.209-0.525-5.279C317.681,528.109,315.102,527.021,313.596,527.723z
		 M320.895,529.41c1.668,2.022,3.917,3.193,5.005,2.574c1.023-0.564,0.572-2.555-0.988-4.437c-1.556-1.869-3.729-3.031-4.838-2.615
		C318.863,525.402,319.237,527.395,320.895,529.41z M330.113,529.77c0.67-0.326,0.07-1.979-1.355-3.69
		c-1.424-1.688-3.217-2.894-3.979-2.691c-0.856,0.23-0.313,1.889,1.216,3.703C327.535,528.932,329.369,530.145,330.113,529.77z
		 M327.921,522.822c-0.539,0.038,0.146,1.395,1.541,3.051c1.394,1.654,2.875,2.878,3.324,2.715c0.077-0.025,0.119-0.104,0.115-0.224
		c-1.549-1.933-3.163-3.773-4.847-5.521C328.009,522.83,327.962,522.822,327.921,522.822z M210.157,624.957
		c0.409-0.188-0.277-1.76-1.521-3.551c-1.255-1.781-2.5-3.002-2.816-2.662c-0.05,0.055-0.062,0.149-0.05,0.293
		c0.594,0.924,1.206,1.861,1.842,2.77c0.734,1.062,1.495,2.103,2.279,3.109C210,624.971,210.088,624.994,210.157,624.957z
		 M211.432,619.475c-1.378-1.981-2.969-3.172-3.561-2.643c-0.548,0.467,0.04,2.353,1.313,4.199c1.274,1.821,2.847,3.022,3.472,2.688
		C213.363,623.344,212.811,621.443,211.432,619.475z M211.39,613.87c-0.877,0.714-0.453,2.946,0.95,4.954
		c1.41,2.021,3.353,3.203,4.33,2.623c1.062-0.613,0.68-2.874-0.827-5.052C214.333,614.229,212.34,613.094,211.39,613.87z
		 M217.19,615.473c1.553,2.213,3.913,3.326,5.284,2.466c1.467-0.894,1.313-3.552-0.329-5.91c-1.648-2.367-4.082-3.438-5.45-2.379
		C215.422,610.648,215.649,613.244,217.19,615.473z M223.988,610.741c1.676,2.418,4.504,3.435,6.295,2.282
		c1.905-1.222,2.009-4.275,0.24-6.81c-1.788-2.561-4.682-3.522-6.474-2.168C222.327,605.338,222.312,608.335,223.988,610.741z
		 M232.872,604.558c1.803,2.592,5.063,3.512,7.28,2.053c2.312-1.529,2.673-4.96,0.788-7.651c-1.876-2.699-5.221-3.562-7.45-1.923
		C231.349,598.609,231.072,601.979,232.872,604.558z M253.121,590.48c-1.946-2.802-5.654-3.572-8.235-1.72
		c-2.525,1.818-3.028,5.504-1.116,8.23c1.901,2.733,5.523,3.537,8.103,1.807C254.515,597.019,255.078,593.295,253.121,590.48z
		 M256.3,588.279c1.97,2.821,5.831,3.563,8.651,1.637c2.835-1.949,3.519-5.854,1.537-8.725c-2.001-2.869-5.91-3.584-8.725-1.593
		C254.986,581.551,254.333,585.451,256.3,588.279z M269.821,578.867c1.996,2.872,5.944,3.572,8.813,1.578
		c2.85-2,3.55-5.938,1.564-8.797c-1.99-2.862-5.934-3.57-8.783-1.589C268.535,572.049,267.824,575.992,269.821,578.867z
		 M283.494,569.357c1.979,2.848,5.812,3.575,8.547,1.634c2.685-1.911,3.282-5.729,1.336-8.521c-1.936-2.792-5.721-3.561-8.446-1.698
		C282.162,562.66,281.501,566.512,283.494,569.357z M305.25,554.215c-1.861-2.678-5.326-3.535-7.76-1.912
		c-2.511,1.681-2.996,5.291-1.072,8.053c1.926,2.771,5.479,3.568,7.92,1.8C306.697,560.436,307.119,556.883,305.25,554.215z
		 M315.283,547.231c-1.753-2.512-4.82-3.473-6.859-2.146c-2.135,1.384-2.375,4.659-0.549,7.292c1.84,2.635,4.982,3.538,7.029,2.033
		C316.867,552.951,317.029,549.746,315.283,547.231z M323.428,547.992c1.511-1.155,1.419-3.976-0.188-6.296
		c-1.623-2.337-4.246-3.393-5.841-2.387c-1.718,1.084-1.714,3.962,0.013,6.441C319.13,548.217,321.826,549.217,323.428,547.992z
		 M329.141,537.576c-1.483-2.136-3.657-3.279-4.845-2.55c-1.285,0.771-1.029,3.245,0.564,5.539c1.584,2.273,3.812,3.366,4.982,2.447
		C330.937,542.137,330.617,539.707,329.141,537.576z M334.328,539.355c0.715-0.605,0.223-2.681-1.121-4.615
		c-1.354-1.938-3.123-3.121-3.935-2.664c-0.899,0.514-0.433,2.606,1.013,4.7C331.748,538.857,333.541,540.023,334.328,539.355z
		 M337.15,536.877c0.418-0.379-0.212-2.145-1.439-3.887c-1.205-1.756-2.635-2.953-3.137-2.699c-0.562,0.29,0.051,2.044,1.371,3.936
		C335.263,536.116,336.691,537.32,337.15,536.877z M212.155,625.666c-0.506,0.23,0.177,1.713,1.525,3.328
		c1.344,1.584,2.948,2.801,3.55,2.699c0.676-0.101,0.026-1.586-1.413-3.31C214.359,626.662,212.727,625.426,212.155,625.666z
		 M219.96,626.725c-1.588-1.924-3.604-3.108-4.497-2.647c-0.811,0.428-0.27,2.223,1.218,3.996c1.483,1.774,3.433,2.957,4.348,2.672
		C222.026,630.424,221.54,628.635,219.96,626.725z M225.861,623.869c-1.73-2.105-4.16-3.244-5.438-2.508
		c-1.174,0.68-0.815,2.828,0.799,4.783c1.619,1.952,3.963,3.09,5.249,2.549C227.839,628.117,227.572,625.955,225.861,623.869z
		 M233.787,625.316c1.776-0.875,1.752-3.433-0.078-5.703c-1.834-2.308-4.712-3.337-6.411-2.314
		c-1.595,0.969-1.457,3.508,0.281,5.664C229.33,625.113,232.095,626.152,233.787,625.316z M243.056,620.447
		c2.183-1.193,2.43-4.171,0.517-6.621c-1.93-2.482-5.237-3.402-7.354-2.064c-2.031,1.297-2.155,4.229-0.289,6.572
		C237.776,620.664,240.967,621.605,243.056,620.447z M254.184,614.027c2.529-1.511,3.008-4.865,1.054-7.474
		c-1.985-2.627-5.639-3.433-8.13-1.8c-2.428,1.583-2.792,4.909-0.849,7.436C248.177,614.676,251.734,615.504,254.184,614.027z
		 M266.766,606.203c2.776-1.781,3.431-5.427,1.472-8.148c-1.996-2.75-5.859-3.473-8.628-1.61c-2.715,1.835-3.299,5.477-1.306,8.149
		C260.27,607.227,264.055,607.953,266.766,606.203z M281.839,588.762c-1.961-2.819-5.879-3.502-8.742-1.521
		c-2.862,1.971-3.555,5.829-1.568,8.604c1.955,2.743,5.824,3.392,8.651,1.452C283.014,595.357,283.768,591.539,281.839,588.762z
		 M295.166,579.25c-1.873-2.816-5.658-3.512-8.439-1.549c-2.811,2.003-3.516,5.912-1.587,8.742c1.916,2.784,5.692,3.406,8.437,1.422
		C296.308,585.884,297.011,582.029,295.166,579.25z M307.4,570.134c-1.77-2.757-5.248-3.519-7.773-1.681
		c-2.596,1.886-3.198,5.709-1.354,8.514c1.823,2.781,5.346,3.453,7.838,1.514C308.567,576.604,309.13,572.861,307.4,570.134z
		 M317.091,569.721c2.062-1.69,2.422-5.179,0.812-7.798c-1.631-2.646-4.692-3.495-6.84-1.888c-2.248,1.668-2.665,5.263-0.935,7.998
		C311.841,570.74,314.966,571.489,317.091,569.721z M326.087,562.023c1.621-1.444,1.726-4.615,0.266-7.093
		c-1.491-2.489-4.087-3.443-5.812-2.115c-1.809,1.398-1.981,4.666-0.387,7.288C321.733,562.688,324.395,563.537,326.087,562.023z
		 M332.679,549.309c-1.344-2.307-3.492-3.355-4.77-2.315c-1.355,1.104-1.283,3.989,0.172,6.449c1.438,2.43,3.631,3.387,4.887,2.141
		C334.143,554.416,334.022,551.611,332.679,549.309z M337.824,550.467c0.787-0.895,0.442-3.332-0.766-5.452
		c-1.217-2.128-2.93-3.226-3.814-2.466c-0.947,0.824-0.646,3.331,0.672,5.603C335.229,550.398,336.973,551.438,337.824,550.467z
		 M340.897,546.598c0.463-0.655-0.039-2.753-1.14-4.673c-1.086-1.938-2.438-3.075-2.984-2.562c-0.596,0.58-0.102,2.711,1.088,4.801
		C339.048,546.23,340.403,547.315,340.897,546.598z M338.812,537.259c-0.307,0.374,0.327,2.184,1.395,4.071
		c1.065,1.877,2.097,2.993,2.324,2.494c0-0.008,0-0.013,0-0.013c-1.06-2.231-2.222-4.43-3.511-6.584
		C338.928,537.193,338.862,537.201,338.812,537.259z M220.531,635.537c-1.402-1.383-2.955-2.533-3.584-2.646
		c1.704,1.679,3.46,3.265,5.288,4.769C222.111,637.26,221.49,636.475,220.531,635.537z M220.022,632.484
		c-0.773,0.172-0.182,1.53,1.344,3.028c1.501,1.47,3.418,2.631,4.298,2.564c0.939-0.055,0.421-1.392-1.174-2.99
		C222.868,633.479,220.875,632.299,220.022,632.484z M224.703,631.125c-1.112,0.398-0.668,2.061,0.989,3.709
		c1.618,1.633,3.897,2.73,5.113,2.465c1.278-0.283,0.951-1.932-0.761-3.688C228.299,631.834,225.903,630.717,224.703,631.125z
		 M237.391,630.855c-1.839-1.955-4.643-2.984-6.239-2.277c-1.501,0.656-1.262,2.668,0.514,4.498
		c1.734,1.789,4.403,2.801,5.979,2.268C239.306,634.787,239.209,632.775,237.391,630.855z M246.64,626.619
		c-1.919-2.133-5.117-3.047-7.114-2.035c-1.912,0.961-1.923,3.387-0.058,5.387c1.834,1.955,4.89,2.867,6.839,2.017
		C248.359,631.115,248.517,628.707,246.64,626.619z M256.755,627.074c2.388-1.205,2.816-4.021,0.911-6.279
		c-1.95-2.302-5.488-3.087-7.858-1.742c-2.298,1.299-2.569,4.109-0.638,6.291C251.062,627.469,254.438,628.244,256.755,627.074z
		 M270.099,613.484c-1.926-2.453-5.685-3.113-8.346-1.484c-2.606,1.596-3.116,4.805-1.175,7.145c1.912,2.3,5.535,2.941,8.115,1.453
		C271.339,619.068,271.977,615.89,270.099,613.484z M281.582,612.723c2.75-1.769,3.541-5.239,1.734-7.755
		c-1.857-2.577-5.663-3.171-8.48-1.312c-2.781,1.846-3.474,5.369-1.564,7.858C275.132,613.943,278.855,614.477,281.582,612.723z
		 M294.701,603.844c2.7-1.92,3.512-5.55,1.819-8.135c-1.75-2.645-5.444-3.209-8.22-1.246c-2.799,1.969-3.571,5.695-1.737,8.295
		C288.348,605.287,291.99,605.777,294.701,603.844z M307.214,594.501c2.484-1.943,3.223-5.62,1.662-8.211
		c-1.61-2.653-5.01-3.249-7.594-1.302c-2.623,1.984-3.365,5.763-1.65,8.416C301.302,595.992,304.701,596.482,307.214,594.501z
		 M318.427,585.266c2.128-1.854,2.699-5.401,1.275-7.963c-1.449-2.606-4.445-3.278-6.687-1.469
		c-2.313,1.867-2.913,5.559-1.336,8.207C313.201,586.641,316.242,587.174,318.427,585.266z M327.8,576.658
		c1.716-1.665,2.059-5.002,0.781-7.463c-1.299-2.521-3.84-3.294-5.65-1.699c-1.9,1.664-2.283,5.137-0.865,7.736
		C323.447,577.766,326.013,578.398,327.8,576.658z M335.123,569.049c1.279-1.429,1.375-4.477,0.232-6.809
		c-1.163-2.388-3.221-3.256-4.602-1.924c-1.451,1.396-1.599,4.575-0.323,7.071C331.669,569.832,333.783,570.555,335.123,569.049z
		 M340.396,562.627c0.877-1.179,0.753-3.894-0.271-6.076c-1.037-2.217-2.67-3.176-3.629-2.112c-1.022,1.129-0.928,3.963,0.2,6.291
		C337.812,563.039,339.464,563.87,340.396,562.627z M340.33,549.835c-0.646,0.868-0.341,3.341,0.672,5.53
		c0.996,2.133,2.252,3.051,2.812,2.055c0.537-0.936,0.208-3.303-0.699-5.318C342.184,550.055,340.928,549.031,340.33,549.835z
		 M342.559,546.416c-0.333,0.63,0.14,2.77,1.042,4.774c0.9,1.974,1.828,2.941,2.081,2.181c0.245-0.709-0.224-2.776-1.046-4.614
		C343.81,546.883,342.863,545.836,342.559,546.416z M229.067,641.5c-1.595-1.291-3.553-2.395-4.352-2.449
		c-0.287-0.021-0.367,0.104-0.291,0.32c1.955,1.5,3.975,2.885,6.038,4.172C231.032,643.492,230.476,642.65,229.067,641.5z
		 M229.156,638.865c-1.051,0.125-0.58,1.326,1.042,2.658c1.591,1.293,3.773,2.313,4.904,2.27c1.206-0.045,0.847-1.203-0.814-2.59
		C232.585,639.773,230.272,638.721,229.156,638.865z M235.185,637.643c-1.386,0.369-1.108,1.861,0.61,3.312
		c1.7,1.434,4.218,2.363,5.689,2.102c1.544-0.284,1.407-1.733-0.335-3.274C239.345,638.209,236.667,637.24,235.185,637.643z
		 M243.072,639.229c1.761,1.576,4.635,2.39,6.453,1.845c1.889-0.576,1.997-2.386,0.209-4.068c-1.842-1.719-4.886-2.567-6.744-1.873
		C241.218,635.791,241.268,637.627,243.072,639.229z M259.211,637.617c2.229-0.896,2.596-3.099,0.808-4.924
		c-1.862-1.886-5.205-2.578-7.435-1.568c-2.14,0.99-2.34,3.215-0.498,4.984C253.89,637.811,257.068,638.49,259.211,637.617z
		 M270.365,632.602c2.48-1.237,3.098-3.827,1.344-5.797c-1.811-2.053-5.359-2.606-7.885-1.268c-2.46,1.315-2.924,3.943-1.078,5.867
		C264.533,633.27,267.943,633.799,270.365,632.602z M282.539,626.023c2.631-1.521,3.441-4.47,1.776-6.586
		c-1.728-2.185-5.333-2.654-8.041-0.998c-2.672,1.61-3.353,4.614-1.556,6.698C276.457,627.141,279.953,627.545,282.539,626.023z
		 M297.146,610.938c-1.592-2.31-5.105-2.688-7.84-0.85c-2.717,1.839-3.551,5.146-1.852,7.366c1.631,2.143,5.063,2.447,7.683,0.688
		C297.761,616.389,298.667,613.159,297.146,610.938z M307.416,609.359c2.461-1.886,3.359-5.266,1.988-7.566
		c-1.417-2.391-4.681-2.766-7.268-0.831c-2.607,1.963-3.477,5.462-1.932,7.786C301.701,610.992,304.925,611.264,307.416,609.359z
		 M318.655,600.197c2.179-1.899,2.962-5.308,1.749-7.641c-1.251-2.414-4.125-2.843-6.431-0.923
		c-2.354,1.951-3.144,5.504-1.749,7.888C313.553,601.843,316.441,602.125,318.655,600.197z M328.308,591.191
		c1.794-1.805,2.395-5.119,1.335-7.433c-1.088-2.391-3.515-2.908-5.431-1.131c-1.973,1.838-2.588,5.312-1.383,7.729
		C324.012,592.682,326.46,593.045,328.308,591.191z M336.054,582.798c1.363-1.633,1.742-4.747,0.814-7.001
		c-0.955-2.313-2.912-2.938-4.398-1.371c-1.533,1.638-1.932,4.933-0.881,7.303C332.613,584.029,334.617,584.502,336.054,582.798z
		 M341.789,575.34c0.971-1.408,1.103-4.274,0.295-6.422c-0.822-2.195-2.355-2.936-3.406-1.604c-1.108,1.395-1.275,4.414-0.358,6.709
		C339.205,576.252,340.753,576.815,341.789,575.34z M342.921,561.395c-0.723,1.146-0.652,3.857,0.144,6.032
		c0.783,2.116,1.946,2.796,2.593,1.558c0.602-1.184,0.531-3.759-0.183-5.771C344.746,561.143,343.601,560.32,342.921,561.395z
		 M345.475,556.658c-0.392,0.904-0.132,3.299,0.582,5.33c0.688,1.985,1.515,2.747,1.84,1.742c0.315-0.954,0.038-3.226-0.592-5.106
		C346.656,556.713,345.833,555.824,345.475,556.658z M346.908,555.373c0.149,0.664,0.344,1.371,0.57,2.062
		C347.292,556.756,347.107,556.064,346.908,555.373z M238.503,646.688c-1.618-1.077-3.817-2.028-4.875-2.102
		c-0.598-0.031-0.668,0.225-0.286,0.664c2.001,1.133,4.048,2.164,6.126,3.098C240.371,648.391,239.997,647.699,238.503,646.688z
		 M239.291,644.451c-1.313,0.135-1.008,1.143,0.638,2.254c1.595,1.082,3.955,1.906,5.321,1.844c1.425-0.055,1.29-1.026-0.351-2.186
		C243.199,645.178,240.672,644.316,239.291,644.451z M246.547,643.203c-1.649,0.383-1.563,1.688,0.14,2.908
		c1.648,1.17,4.321,1.877,5.998,1.584c1.754-0.328,1.846-1.592,0.165-2.857C251.116,643.535,248.27,642.805,246.547,643.203z
		 M262.364,641.91c-1.729-1.426-4.844-2.021-6.919-1.308c-1.992,0.681-2.151,2.322-0.413,3.662c1.677,1.289,4.608,1.851,6.586,1.252
		C263.668,644.914,264.024,643.285,262.364,641.91z M273.228,637.43c-1.66-1.571-4.963-2.012-7.331-0.963
		c-2.294,1.014-2.727,3.037-1.003,4.5c1.656,1.41,4.792,1.812,7.029,0.904C274.235,640.93,274.835,638.943,273.228,637.43z
		 M285.074,631.404c-1.57-1.73-4.929-2.023-7.49-0.66c-2.514,1.34-3.178,3.746-1.528,5.365c1.571,1.545,4.793,1.782,7.233,0.551
		C285.75,635.396,286.563,633.053,285.074,631.404z M295.177,629.994c2.502-1.529,3.465-4.217,2.119-5.998
		c-1.409-1.873-4.696-2.059-7.313-0.42c-2.606,1.617-3.461,4.367-1.946,6.129C289.498,631.393,292.682,631.523,295.177,629.994z
		 M306.979,622.146c2.405-1.738,3.422-4.679,2.247-6.57c-1.225-1.988-4.294-2.139-6.827-0.312c-2.55,1.82-3.508,4.863-2.142,6.752
		C301.553,623.834,304.57,623.881,306.979,622.146z M318.041,613.518c2.178-1.842,3.133-4.92,2.137-6.896
		c-1.031-2.086-3.758-2.236-6.061-0.35c-2.332,1.92-3.296,5.138-2.105,7.146C313.132,615.346,315.847,615.384,318.041,613.518z
		 M327.789,604.623c1.846-1.834,2.657-4.943,1.83-6.967c-0.861-2.125-3.166-2.363-5.129-0.502c-2.012,1.899-2.857,5.171-1.85,7.262
		C323.58,606.424,325.89,606.501,327.789,604.623z M335.818,595.938c1.473-1.733,2.098-4.762,1.405-6.801
		c-0.726-2.108-2.563-2.461-4.128-0.727c-1.627,1.789-2.278,4.99-1.451,7.117C332.439,597.562,334.315,597.734,335.818,595.938z
		 M342.001,587.847c1.074-1.567,1.473-4.431,0.899-6.423c-0.606-2.074-2.026-2.545-3.174-1.004
		c-1.202,1.602-1.636,4.646-0.946,6.754C339.444,589.21,340.897,589.488,342.001,587.847z M344.423,573.44
		c-0.812,1.374-1,4.193-0.428,6.24c0.557,1.981,1.613,2.396,2.353,0.953c0.722-1.381,0.879-4.017,0.396-5.938
		C346.228,572.713,345.191,572.127,344.423,573.44z M347.371,567.562c-0.453,1.146-0.438,3.688,0.053,5.66
		c0.474,1.895,1.199,2.41,1.615,1.188c0.396-1.167,0.371-3.557-0.07-5.381C348.533,567.16,347.811,566.477,347.371,567.562z
		 M349.529,568.629c-0.189-1.709-0.425-3.415-0.729-5.123c-0.03,1.12,0.164,2.848,0.514,4.299
		C349.382,568.122,349.464,568.399,349.529,568.629z M248.375,650.857c-1.573-0.847-3.925-1.591-5.214-1.646
		c-0.656-0.031-0.873,0.144-0.688,0.435c2.287,0.918,4.612,1.729,6.975,2.432C249.846,651.912,249.479,651.457,248.375,650.857z
		 M249.874,648.982c-1.523,0.159-1.421,0.998,0.158,1.854c1.521,0.826,3.967,1.41,5.5,1.312c1.606-0.104,1.699-0.904,0.157-1.793
		C254.094,649.441,251.468,648.814,249.874,648.982z M258.064,647.57c-1.822,0.43-1.966,1.545-0.371,2.479
		c1.529,0.904,4.206,1.34,6.026,0.984c1.876-0.379,2.204-1.455,0.694-2.422C262.839,647.604,259.98,647.135,258.064,647.57z
		 M266.739,647.984c1.502,0.985,4.356,1.271,6.411,0.61c2.125-0.672,2.695-2.086,1.26-3.159c-1.515-1.119-4.547-1.435-6.726-0.677
		C265.577,645.502,265.179,646.939,266.739,647.984z M283.609,644.678c2.278-0.973,3.09-2.737,1.762-3.926
		c-1.391-1.248-4.473-1.408-6.863-0.318c-2.332,1.052-2.988,2.849-1.506,4.006C278.427,645.539,281.365,645.645,283.609,644.678z
		 M294.679,639.307c2.354-1.282,3.337-3.391,2.174-4.713c-1.232-1.393-4.257-1.393-6.751-0.014
		c-2.438,1.369-3.312,3.514-1.947,4.805C289.425,640.604,292.349,640.57,294.679,639.307z M308.253,627.219
		c-1.039-1.553-3.881-1.465-6.317,0.16c-2.448,1.623-3.461,4.104-2.274,5.516c1.115,1.359,3.885,1.226,6.194-0.293
		C308.158,631.076,309.238,628.666,308.253,627.219z M316.546,624.854c2.136-1.69,3.222-4.327,2.414-5.894
		c-0.84-1.661-3.364-1.571-5.646,0.209c-2.286,1.8-3.355,4.526-2.363,6.104C311.892,626.75,314.396,626.564,316.546,624.854z
		 M326.216,616.5c1.865-1.769,2.859-4.535,2.244-6.207c-0.66-1.757-2.805-1.711-4.809,0.123c-2.023,1.87-3.047,4.767-2.24,6.451
		C322.162,618.469,324.316,618.292,326.216,616.5z M334.451,607.973c1.522-1.75,2.377-4.546,1.899-6.282
		c-0.509-1.812-2.246-1.87-3.882-0.082c-1.676,1.83-2.551,4.797-1.94,6.569C331.126,609.86,332.884,609.756,334.451,607.973z
		 M342.455,593.535c-0.384-1.835-1.705-2.021-2.951-0.349c-1.303,1.73-1.975,4.632-1.502,6.454c0.439,1.75,1.795,1.738,3.004,0.034
		C342.171,598.02,342.826,595.293,342.455,593.535z M344.697,585.49c-0.927,1.545-1.382,4.33-1.033,6.164
		c0.346,1.758,1.32,1.869,2.17,0.309c0.822-1.506,1.248-4.098,0.965-5.847C346.505,584.309,345.562,584.012,344.697,585.49z
		 M348.128,578.719c-0.558,1.334-0.809,3.926-0.526,5.729c0.267,1.733,0.913,1.971,1.438,0.591c0.489-1.331,0.719-3.729,0.485-5.438
		C349.291,577.854,348.667,577.43,348.128,578.719z M349.981,578.199c0.022-1.461,0-2.92-0.058-4.373
		c-0.141,1.234-0.129,2.978,0.054,4.337C349.978,578.176,349.981,578.188,349.981,578.199z M253.017,652.75
		c-0.39-0.002-0.657,0.035-0.819,0.094c2.302,0.599,4.63,1.078,6.983,1.472c-0.157-0.136-0.433-0.294-0.846-0.468
		C256.887,653.252,254.477,652.77,253.017,652.75z M260.536,652.271c-1.685,0.221-1.819,0.885-0.371,1.481
		c1.388,0.576,3.806,0.896,5.466,0.725c1.707-0.18,2.035-0.827,0.68-1.438C264.886,652.387,262.282,652.053,260.536,652.271z
		 M269.339,650.564c-1.937,0.493-2.322,1.426-0.913,2.09c1.353,0.629,3.92,0.787,5.798,0.354c1.93-0.438,2.493-1.362,1.208-2.055
		C274.082,650.236,271.339,650.051,269.339,650.564z M285.485,647.471c-1.22-0.813-4.021-0.813-6.221-0.012
		c-2.144,0.791-2.781,2.035-1.449,2.785c1.248,0.707,3.903,0.695,5.956-0.021C285.869,649.479,286.66,648.25,285.485,647.471z
		 M296.126,642.574c-1.062-0.953-3.819-0.812-6.141,0.309c-2.268,1.101-3.121,2.672-1.936,3.525
		c1.123,0.809,3.766,0.646,5.921-0.367C296.162,645.012,297.13,643.455,296.126,642.574z M304.396,640.514
		c2.17-1.293,3.282-3.166,2.473-4.166c-0.889-1.09-3.479-0.834-5.806,0.554c-2.295,1.379-3.333,3.291-2.306,4.268
		C299.71,642.084,302.236,641.793,304.396,640.514z M314.569,633.83c2.06-1.494,3.214-3.646,2.583-4.781
		c-0.68-1.231-2.996-0.92-5.206,0.672c-2.217,1.603-3.345,3.802-2.511,4.929C310.197,635.691,312.494,635.316,314.569,633.83z
		 M323.974,626.291c1.854-1.639,2.975-3.979,2.533-5.252c-0.494-1.354-2.479-1.059-4.469,0.66c-1.994,1.746-3.133,4.188-2.508,5.44
		C320.123,628.322,322.108,627.932,323.974,626.291z M334.517,612.758c-0.316-1.469-1.932-1.236-3.607,0.51
		c-1.711,1.795-2.761,4.382-2.316,5.771c0.404,1.295,2.039,0.936,3.635-0.771C333.794,616.582,334.818,614.128,334.517,612.758z
		 M340.958,604.582c-0.205-1.525-1.412-1.422-2.746,0.285c-1.366,1.75-2.258,4.387-1.984,5.87c0.271,1.398,1.529,1.124,2.805-0.567
		C340.275,608.517,341.125,606.033,340.958,604.582z M344.272,602.354c0.915-1.568,1.571-4.006,1.476-5.495
		c-0.101-1.558-0.953-1.593-1.928,0c-1.007,1.637-1.711,4.256-1.552,5.784C342.427,604.113,343.326,603.959,344.272,602.354z
		 M347.757,589.521c-0.664,1.477-1.151,3.985-1.074,5.543c0.064,1.395,0.568,1.476,1.145,0.305c0.45-1.894,0.834-3.807,1.143-5.73
		C348.899,588.256,348.375,588.16,347.757,589.521z M276.146,654.42c-1.2-0.395-3.676-0.461-5.486-0.16
		c-1.572,0.256-2.036,0.705-1.226,1.056c2.308,0.065,4.627,0.038,6.94-0.097C276.912,654.965,276.875,654.658,276.146,654.42z
		 M279.688,652.191c-1.953,0.565-2.554,1.344-1.382,1.764c1.115,0.375,3.482,0.271,5.345-0.234c1.912-0.528,2.661-1.307,1.653-1.733
		C284.224,651.514,281.694,651.607,279.688,652.191z M289.501,648.785c-2.084,0.85-2.907,1.916-1.859,2.406
		c0.975,0.455,3.352,0.186,5.329-0.589c2.001-0.797,2.952-1.868,2.089-2.387C294.128,647.664,291.643,647.92,289.501,648.785z
		 M305.033,643.145c-0.746-0.688-3.098-0.293-5.275,0.851c-2.141,1.133-3.156,2.516-2.268,3.104
		c0.811,0.533,3.102,0.142,5.108-0.901C304.621,645.131,305.712,643.771,305.033,643.145z M314.771,636.92
		c-0.538-0.811-2.678-0.344-4.786,1.039c-2.089,1.371-3.237,3.051-2.542,3.77c0.639,0.648,2.739,0.154,4.691-1.12
		C314.091,639.33,315.265,637.666,314.771,636.92z M323.826,629.814c-0.334-0.968-2.183-0.48-4.119,1.075
		c-1.947,1.568-3.135,3.519-2.649,4.367c0.45,0.777,2.29,0.24,4.097-1.221C322.949,632.59,324.144,630.689,323.826,629.814z
		 M328.46,623.15c-1.701,1.684-2.869,3.84-2.57,4.823c0.277,0.92,1.8,0.375,3.387-1.186c1.571-1.557,2.707-3.639,2.553-4.644
		C331.658,621.068,330.153,621.514,328.46,623.15z M335.914,615.125c-1.408,1.707-2.468,3.994-2.332,5.113
		c0.121,1.039,1.313,0.557,2.631-1.062c1.291-1.576,2.312-3.755,2.279-4.874C338.441,613.109,337.306,613.464,335.914,615.125z
		 M341.878,607.188c-1.096,1.653-2.002,4.006-1.994,5.215c0.014,1.146,0.855,0.757,1.891-0.834c0.997-1.55,1.838-3.754,1.9-4.951
		C343.74,605.347,342.937,605.582,341.878,607.188z M344.712,604.793c-0.012,0.232-0.008,0.414,0.029,0.545
		c0.853-2.24,1.605-4.5,2.262-6.801c-0.188,0.17-0.443,0.541-0.723,1.101C345.509,601.179,344.794,603.512,344.712,604.793z
		 M282.736,654.586c-0.664,0.053-1.383,0.146-2.066,0.254C281.361,654.768,282.053,654.678,282.736,654.586z M293.934,651.789
		c-0.8-0.24-3.048,0.096-4.998,0.746c-1.601,0.521-2.396,1.08-2.082,1.354c2.453-0.479,4.894-1.086,7.315-1.805
		C294.21,651.963,294.141,651.855,293.934,651.789z M303.105,647.771c-0.626-0.343-2.762,0.141-4.759,1.043
		c-1.985,0.916-2.958,1.842-2.196,2.108c0.387,0.135,1.186,0.056,2.139-0.197c1.098-0.385,2.184-0.811,3.265-1.258
		C302.905,648.746,303.596,648.027,303.105,647.771z M307.853,643.879c-1.971,1.148-3.094,2.367-2.512,2.728
		c0.529,0.344,2.445-0.238,4.265-1.302c1.828-1.069,2.981-2.291,2.597-2.703C311.765,642.141,309.822,642.721,307.853,643.879z
		 M317.053,637.855c-1.862,1.358-3.079,2.842-2.681,3.34c0.332,0.438,2.03-0.222,3.756-1.478c1.728-1.262,2.934-2.719,2.721-3.252
		C320.593,635.869,318.906,636.502,317.053,637.855z M325.541,630.996c-1.679,1.5-2.899,3.219-2.703,3.854
		c0.178,0.558,1.596-0.104,3.151-1.506c1.546-1.391,2.738-3.067,2.673-3.735C328.593,628.879,327.208,629.5,325.541,630.996z
		 M335.401,622.34c0.07-0.854-1.017-0.299-2.413,1.271c-1.441,1.578-2.607,3.491-2.572,4.25c0.016,0.405,0.367,0.369,0.912,0.012
		c1.381-1.635,2.698-3.311,3.936-5.033C335.339,622.652,335.382,622.479,335.401,622.34z M339.144,616.043
		c-1.154,1.597-2.193,3.625-2.298,4.508c0,0.008,0,0.008,0,0.027c1.288-1.941,2.495-3.943,3.6-5.979
		C340.137,614.808,339.684,615.299,339.144,616.043z M313.642,643.199c0.417-0.273,0.834-0.529,1.248-0.812
		c-0.251,0.15-0.51,0.32-0.789,0.494C313.943,642.99,313.792,643.092,313.642,643.199z"/>
</g>
</svg>
