<?xml version="1.0" encoding="utf-8"?>
<!-- Generator: Adobe Illustrator 15.1.0, SVG Export Plug-In . SVG Version: 6.00 Build 0)  -->
<!DOCTYPE svg PUBLIC "-//W3C//DTD SVG 1.1//EN" "http://www.w3.org/Graphics/SVG/1.1/DTD/svg11.dtd">
<svg version="1.1" id="Layer_1" xmlns="http://www.w3.org/2000/svg" xmlns:xlink="http://www.w3.org/1999/xlink" x="0px" y="0px"
	 width="536.378px" height="780.521px" viewBox="0 0 536.378 780.521" enable-background="new 0 0 536.378 780.521"
	 xml:space="preserve">
<rect x="165.537" y="232.964" fill="none" width="335.21" height="115.885"/>
<g enable-background="new    ">
	<path d="M194.05,298.573v-45.538h-10.8v-9.27c7.02-0.36,11.609-2.97,12.87-8.189h10.439v62.997H194.05z"/>
	<path d="M245.258,299.563c-17.189,0-26.369-13.319-26.369-32.489c0-19.169,9.27-32.488,26.459-32.488
		c17.189,0,26.458,13.14,26.458,32.309S262.448,299.563,245.258,299.563z M245.258,246.915c-9.629,0-13.589,8.729-13.589,19.979
		s4.05,20.339,13.68,20.339c9.629,0,13.679-8.909,13.679-20.159C259.028,255.825,254.888,246.915,245.258,246.915z"/>
	<path d="M286.479,309.913h-8.46l1.35-26.549h14.67L286.479,309.913z"/>
	<path d="M326.529,299.563c-17.189,0-26.369-13.319-26.369-32.489c0-19.169,9.27-32.488,26.459-32.488s26.459,13.14,26.459,32.309
		S343.718,299.563,326.529,299.563z M326.529,246.915c-9.63,0-13.59,8.729-13.59,19.979s4.05,20.339,13.68,20.339
		c9.629,0,13.68-8.909,13.68-20.159C340.298,255.825,336.158,246.915,326.529,246.915z"/>
	<path d="M388.447,299.563c-17.189,0-26.368-13.319-26.368-32.489c0-19.169,9.27-32.488,26.458-32.488
		c17.189,0,26.459,13.14,26.459,32.309S405.636,299.563,388.447,299.563z M388.447,246.915c-9.629,0-13.589,8.729-13.589,19.979
		s4.05,20.339,13.679,20.339c9.631,0,13.68-8.909,13.68-20.159C402.216,255.825,398.078,246.915,388.447,246.915z"/>
	<path d="M450.367,299.563c-17.189,0-26.369-13.319-26.369-32.489c0-19.169,9.27-32.488,26.459-32.488s26.459,13.14,26.459,32.309
		S467.556,299.563,450.367,299.563z M450.367,246.915c-9.63,0-13.59,8.729-13.59,19.979s4.05,20.339,13.68,20.339
		c9.629,0,13.68-8.909,13.68-20.159C464.136,255.825,459.996,246.915,450.367,246.915z"/>
</g>
<rect x="-19.884" y="403.235" fill="none" width="587.719" height="62.175"/>
<g enable-background="new    ">
	<path d="M100.219,421.056c0,1.26,0.06,2.489,0.21,3.479h-2.37l-0.21-1.83h-0.09c-0.81,1.14-2.37,2.16-4.44,2.16
		c-2.94,0-4.44-2.07-4.44-4.17c0-3.51,3.12-5.43,8.73-5.399v-0.301c0-1.17-0.33-3.359-3.3-3.329c-1.38,0-2.79,0.39-3.81,1.08
		l-0.6-1.771c1.2-0.75,2.97-1.26,4.8-1.26c4.44,0,5.52,3.03,5.52,5.91V421.056z M97.669,417.125c-2.88-0.06-6.15,0.45-6.15,3.271
		c0,1.739,1.14,2.52,2.46,2.52c1.92,0,3.15-1.2,3.57-2.43c0.09-0.3,0.12-0.6,0.12-0.84V417.125z"/>
	<path d="M104.479,413.945c0-1.529-0.06-2.729-0.12-3.93h2.31l0.12,2.37h0.09c0.81-1.38,2.16-2.67,4.59-2.67
		c1.95,0,3.45,1.2,4.08,2.91h0.06c0.45-0.84,1.05-1.44,1.65-1.891c0.87-0.659,1.8-1.02,3.18-1.02c1.95,0,4.8,1.26,4.8,6.3v8.52
		h-2.58v-8.189c0-2.82-1.05-4.47-3.15-4.47c-1.53,0-2.67,1.109-3.15,2.369c-0.12,0.391-0.21,0.841-0.21,1.32v8.97h-2.58v-8.699
		c0-2.311-1.02-3.96-3.03-3.96c-1.62,0-2.85,1.319-3.27,2.64c-0.15,0.36-0.21,0.84-0.21,1.29v8.729h-2.58V413.945z"/>
	<path d="M142.639,417.155c0,5.37-3.75,7.71-7.23,7.71c-3.9,0-6.959-2.88-6.959-7.47c0-4.83,3.209-7.68,7.2-7.68
		C139.818,409.716,142.639,412.746,142.639,417.155z M131.149,417.306c0,3.18,1.8,5.579,4.38,5.579c2.52,0,4.41-2.369,4.41-5.64
		c0-2.46-1.23-5.55-4.35-5.55C132.499,411.695,131.149,414.575,131.149,417.306z"/>
	<path d="M158.118,420.545c0,1.53,0.03,2.851,0.12,3.99h-2.34l-0.15-2.37h-0.06c-0.66,1.17-2.22,2.7-4.8,2.7
		c-2.28,0-5.01-1.29-5.01-6.359v-8.49h2.64v8.01c0,2.76,0.87,4.649,3.24,4.649c1.77,0,3-1.229,3.48-2.43
		c0.15-0.359,0.24-0.84,0.24-1.35v-8.88h2.64V420.545z"/>
	<path d="M162.499,413.945c0-1.529-0.03-2.729-0.12-3.93h2.34l0.15,2.4h0.06c0.72-1.351,2.4-2.7,4.8-2.7c2.01,0,5.13,1.2,5.13,6.18
		v8.64h-2.64v-8.37c0-2.34-0.87-4.289-3.36-4.289c-1.71,0-3.06,1.229-3.54,2.699c-0.12,0.33-0.18,0.78-0.18,1.23v8.729h-2.64
		V413.945z"/>
	<path d="M182.208,406.536v3.479h3.78v2.01h-3.78v7.83c0,1.8,0.51,2.819,1.98,2.819c0.72,0,1.14-0.06,1.53-0.18l0.12,2.01
		c-0.51,0.181-1.32,0.36-2.34,0.36c-1.23,0-2.22-0.42-2.85-1.11c-0.72-0.81-1.02-2.1-1.02-3.81v-7.92h-2.25v-2.01h2.25v-2.7
		L182.208,406.536z"/>
	<path d="M196.368,410.016l1.95,7.38c0.39,1.62,0.78,3.12,1.05,4.62h0.09c0.33-1.471,0.81-3.03,1.29-4.59l2.37-7.41h2.22l2.25,7.26
		c0.54,1.74,0.96,3.27,1.29,4.74h0.09c0.24-1.471,0.63-3,1.11-4.71l2.07-7.29h2.61l-4.68,14.52h-2.4l-2.22-6.93
		c-0.51-1.62-0.93-3.06-1.29-4.77h-0.06c-0.36,1.739-0.81,3.239-1.32,4.8l-2.34,6.899h-2.4l-4.38-14.52H196.368z"/>
	<path d="M227.478,421.056c0,1.26,0.06,2.489,0.21,3.479h-2.37l-0.21-1.83h-0.09c-0.81,1.14-2.37,2.16-4.44,2.16
		c-2.94,0-4.44-2.07-4.44-4.17c0-3.51,3.12-5.43,8.73-5.399v-0.301c0-1.17-0.33-3.359-3.3-3.329c-1.38,0-2.79,0.39-3.81,1.08
		l-0.6-1.771c1.2-0.75,2.97-1.26,4.8-1.26c4.44,0,5.52,3.03,5.52,5.91V421.056z M224.928,417.125c-2.88-0.06-6.15,0.45-6.15,3.271
		c0,1.739,1.14,2.52,2.46,2.52c1.92,0,3.15-1.2,3.57-2.43c0.09-0.3,0.12-0.6,0.12-0.84V417.125z"/>
	<path d="M231.378,421.865c0.81,0.48,2.19,1.02,3.51,1.02c1.89,0,2.79-0.93,2.79-2.159c0-1.26-0.75-1.92-2.67-2.641
		c-2.64-0.96-3.87-2.369-3.87-4.109c0-2.34,1.92-4.26,5.01-4.26c1.47,0,2.76,0.39,3.54,0.899l-0.63,1.92
		c-0.57-0.359-1.62-0.869-2.97-0.869c-1.56,0-2.4,0.899-2.4,1.979c0,1.2,0.84,1.74,2.73,2.49c2.49,0.93,3.81,2.189,3.81,4.35
		c0,2.58-2.01,4.38-5.4,4.38c-1.59,0-3.06-0.42-4.08-1.021L231.378,421.865z"/>
	<path d="M246.797,406.536v3.479h3.78v2.01h-3.78v7.83c0,1.8,0.51,2.819,1.98,2.819c0.72,0,1.14-0.06,1.53-0.18l0.12,2.01
		c-0.51,0.181-1.32,0.36-2.34,0.36c-1.23,0-2.22-0.42-2.85-1.11c-0.72-0.81-1.02-2.1-1.02-3.81v-7.92h-2.25v-2.01h2.25v-2.7
		L246.797,406.536z"/>
	<path d="M254.837,417.756c0.06,3.569,2.31,5.039,4.98,5.039c1.89,0,3.06-0.33,4.02-0.75l0.48,1.891c-0.93,0.42-2.55,0.93-4.86,0.93
		c-4.47,0-7.14-2.97-7.14-7.35s2.58-7.8,6.81-7.8c4.77,0,6,4.14,6,6.81c0,0.54-0.03,0.93-0.09,1.23H254.837z M262.577,415.865
		c0.03-1.649-0.69-4.26-3.66-4.26c-2.7,0-3.84,2.43-4.05,4.26H262.577z"/>
	<path d="M280.906,403.236v17.549c0,1.29,0.061,2.76,0.121,3.75h-2.34l-0.121-2.52h-0.09c-0.779,1.619-2.52,2.85-4.889,2.85
		c-3.511,0-6.24-2.97-6.24-7.38c-0.03-4.83,3-7.77,6.51-7.77c2.25,0,3.72,1.05,4.379,2.189h0.061v-8.669H280.906z M278.296,415.926
		c0-0.33-0.029-0.78-0.119-1.11c-0.391-1.649-1.83-3.029-3.811-3.029c-2.73,0-4.35,2.399-4.35,5.579c0,2.94,1.47,5.37,4.289,5.37
		c1.771,0,3.391-1.2,3.871-3.15c0.09-0.359,0.119-0.72,0.119-1.14V415.926z"/>
	<path d="M294.617,405.936c0,0.9-0.63,1.62-1.68,1.62c-0.961,0-1.59-0.72-1.59-1.62c0-0.899,0.66-1.649,1.649-1.649
		C293.957,404.286,294.617,405.006,294.617,405.936z M291.677,424.535v-14.52h2.639v14.52H291.677z"/>
	<path d="M298.697,413.945c0-1.529-0.029-2.729-0.12-3.93h2.34l0.149,2.4h0.061c0.721-1.351,2.4-2.7,4.8-2.7
		c2.011,0,5.13,1.2,5.13,6.18v8.64h-2.64v-8.37c0-2.34-0.87-4.289-3.36-4.289c-1.709,0-3.06,1.229-3.539,2.699
		c-0.121,0.33-0.181,0.78-0.181,1.23v8.729h-2.64V413.945z"/>
	<path d="M322.755,410.016l1.951,7.38c0.389,1.62,0.779,3.12,1.049,4.62h0.09c0.33-1.471,0.811-3.03,1.291-4.59l2.369-7.41h2.221
		l2.25,7.26c0.539,1.74,0.959,3.27,1.289,4.74h0.09c0.24-1.471,0.631-3,1.11-4.71l2.069-7.29h2.61l-4.68,14.52h-2.399l-2.221-6.93
		c-0.51-1.62-0.93-3.06-1.289-4.77h-0.061c-0.359,1.739-0.811,3.239-1.32,4.8l-2.34,6.899h-2.399l-4.38-14.52H322.755z"/>
	<path d="M353.866,421.056c0,1.26,0.06,2.489,0.21,3.479h-2.37l-0.21-1.83h-0.09c-0.811,1.14-2.37,2.16-4.439,2.16
		c-2.94,0-4.44-2.07-4.44-4.17c0-3.51,3.12-5.43,8.729-5.399v-0.301c0-1.17-0.33-3.359-3.299-3.329c-1.381,0-2.791,0.39-3.811,1.08
		l-0.6-1.771c1.199-0.75,2.969-1.26,4.799-1.26c4.44,0,5.521,3.03,5.521,5.91V421.056z M351.316,417.125
		c-2.881-0.06-6.15,0.45-6.15,3.271c0,1.739,1.141,2.52,2.461,2.52c1.92,0,3.149-1.2,3.569-2.43c0.09-0.3,0.12-0.6,0.12-0.84
		V417.125z"/>
	<path d="M361.185,406.536v3.479h3.78v2.01h-3.78v7.83c0,1.8,0.511,2.819,1.98,2.819c0.721,0,1.141-0.06,1.529-0.18l0.121,2.01
		c-0.51,0.181-1.32,0.36-2.34,0.36c-1.23,0-2.221-0.42-2.85-1.11c-0.721-0.81-1.021-2.1-1.021-3.81v-7.92h-2.25v-2.01h2.25v-2.7
		L361.185,406.536z"/>
	<path d="M369.226,417.756c0.06,3.569,2.31,5.039,4.979,5.039c1.89,0,3.06-0.33,4.021-0.75l0.479,1.891
		c-0.931,0.42-2.55,0.93-4.86,0.93c-4.469,0-7.139-2.97-7.139-7.35s2.579-7.8,6.809-7.8c4.77,0,6,4.14,6,6.81
		c0,0.54-0.029,0.93-0.09,1.23H369.226z M376.965,415.865c0.03-1.649-0.69-4.26-3.659-4.26c-2.701,0-3.84,2.43-4.051,4.26H376.965z"
		/>
	<path d="M382.786,414.546c0-1.71-0.03-3.181-0.12-4.53h2.311l0.119,2.88h0.09c0.66-1.95,2.28-3.18,4.051-3.18
		c0.27,0,0.479,0.03,0.719,0.06v2.49c-0.27-0.06-0.539-0.06-0.899-0.06c-1.86,0-3.18,1.38-3.54,3.359
		c-0.06,0.36-0.09,0.81-0.09,1.23v7.739h-2.64V414.546z"/>
	<path d="M398.955,403.236h2.641v21.299h-2.641V403.236z"/>
	<path d="M407.504,417.756c0.06,3.569,2.31,5.039,4.979,5.039c1.891,0,3.061-0.33,4.021-0.75l0.479,1.891
		c-0.93,0.42-2.55,0.93-4.859,0.93c-4.47,0-7.14-2.97-7.14-7.35s2.579-7.8,6.81-7.8c4.77,0,6,4.14,6,6.81
		c0,0.54-0.03,0.93-0.09,1.23H407.504z M415.244,415.865c0.031-1.649-0.689-4.26-3.659-4.26c-2.7,0-3.84,2.43-4.05,4.26H415.244z"/>
	<path d="M431.264,421.056c0,1.26,0.06,2.489,0.21,3.479h-2.37l-0.21-1.83h-0.09c-0.811,1.14-2.37,2.16-4.439,2.16
		c-2.94,0-4.44-2.07-4.44-4.17c0-3.51,3.12-5.43,8.729-5.399v-0.301c0-1.17-0.33-3.359-3.299-3.329c-1.381,0-2.791,0.39-3.811,1.08
		l-0.6-1.771c1.199-0.75,2.969-1.26,4.799-1.26c4.44,0,5.521,3.03,5.521,5.91V421.056z M428.714,417.125
		c-2.881-0.06-6.15,0.45-6.15,3.271c0,1.739,1.141,2.52,2.461,2.52c1.92,0,3.149-1.2,3.569-2.43c0.09-0.3,0.12-0.6,0.12-0.84
		V417.125z"/>
	<path d="M438.134,416.676h0.061c0.359-0.511,0.84-1.141,1.26-1.65l4.289-5.01h3.15l-5.58,5.97l6.391,8.55h-3.24l-4.98-6.96
		l-1.35,1.5v5.46h-2.609v-21.299h2.609V416.676z"/>
	<path d="M449.234,421.865c0.811,0.48,2.19,1.02,3.51,1.02c1.891,0,2.791-0.93,2.791-2.159c0-1.26-0.75-1.92-2.67-2.641
		c-2.641-0.96-3.871-2.369-3.871-4.109c0-2.34,1.92-4.26,5.01-4.26c1.471,0,2.76,0.39,3.541,0.899l-0.631,1.92
		c-0.57-0.359-1.619-0.869-2.97-0.869c-1.56,0-2.399,0.899-2.399,1.979c0,1.2,0.84,1.74,2.729,2.49c2.489,0.93,3.81,2.189,3.81,4.35
		c0,2.58-2.01,4.38-5.399,4.38c-1.59,0-3.06-0.42-4.079-1.021L449.234,421.865z"/>
</g>
<g enable-background="new    ">
	<path d="M232.847,457.056c0,1.26,0.06,2.489,0.21,3.479h-2.37l-0.21-1.83h-0.09c-0.81,1.14-2.37,2.16-4.44,2.16
		c-2.94,0-4.44-2.07-4.44-4.17c0-3.51,3.12-5.43,8.73-5.399v-0.301c0-1.17-0.33-3.359-3.3-3.329c-1.38,0-2.79,0.39-3.81,1.08
		l-0.6-1.771c1.2-0.75,2.97-1.26,4.8-1.26c4.44,0,5.52,3.03,5.52,5.91V457.056z M230.297,453.125c-2.88-0.06-6.15,0.45-6.15,3.271
		c0,1.739,1.14,2.52,2.46,2.52c1.92,0,3.15-1.2,3.57-2.43c0.09-0.3,0.12-0.6,0.12-0.84V453.125z"/>
	<path d="M237.107,449.945c0-1.529-0.03-2.729-0.12-3.93h2.34l0.15,2.4h0.06c0.72-1.351,2.4-2.7,4.8-2.7c2.01,0,5.13,1.2,5.13,6.18
		v8.64h-2.64v-8.37c0-2.34-0.87-4.289-3.36-4.289c-1.71,0-3.06,1.229-3.54,2.699c-0.12,0.33-0.18,0.78-0.18,1.23v8.729h-2.64
		V449.945z"/>
	<path d="M253.756,449.945c0-1.529-0.03-2.729-0.12-3.93h2.34l0.15,2.4h0.06c0.72-1.351,2.4-2.7,4.8-2.7c2.01,0,5.13,1.2,5.13,6.18
		v8.64h-2.64v-8.37c0-2.34-0.87-4.289-3.36-4.289c-1.71,0-3.06,1.229-3.54,2.699c-0.12,0.33-0.18,0.78-0.18,1.23v8.729h-2.64
		V449.945z"/>
	<path d="M282.556,456.545c0,1.53,0.029,2.851,0.119,3.99h-2.34l-0.149-2.37h-0.06c-0.66,1.17-2.221,2.7-4.801,2.7
		c-2.279,0-5.01-1.29-5.01-6.359v-8.49h2.641v8.01c0,2.76,0.869,4.649,3.239,4.649c1.771,0,3-1.229,3.479-2.43
		c0.15-0.359,0.24-0.84,0.24-1.35v-8.88h2.641V456.545z"/>
	<path d="M297.136,457.056c0,1.26,0.06,2.489,0.209,3.479h-2.369l-0.211-1.83h-0.09c-0.81,1.14-2.369,2.16-4.439,2.16
		c-2.939,0-4.439-2.07-4.439-4.17c0-3.51,3.119-5.43,8.729-5.399v-0.301c0-1.17-0.33-3.359-3.3-3.329c-1.381,0-2.79,0.39-3.811,1.08
		l-0.6-1.771c1.2-0.75,2.971-1.26,4.8-1.26c4.44,0,5.521,3.03,5.521,5.91V457.056z M294.585,453.125
		c-2.879-0.06-6.149,0.45-6.149,3.271c0,1.739,1.14,2.52,2.46,2.52c1.92,0,3.15-1.2,3.57-2.43c0.09-0.3,0.119-0.6,0.119-0.84
		V453.125z"/>
	<path d="M301.396,439.236h2.64v21.299h-2.64V439.236z"/>
	<path d="M308.476,439.236h2.64v21.299h-2.64V439.236z"/>
	<path d="M316.515,446.016l3.15,8.58c0.359,0.96,0.72,2.1,0.96,2.97h0.06c0.271-0.87,0.57-1.98,0.93-3.03l2.881-8.52h2.789
		l-3.959,10.35c-1.891,4.979-3.18,7.5-4.98,9.09c-1.32,1.109-2.58,1.56-3.24,1.68l-0.659-2.189c0.659-0.21,1.53-0.63,2.31-1.29
		c0.721-0.57,1.59-1.59,2.221-2.94c0.119-0.27,0.209-0.479,0.209-0.63c0-0.149-0.06-0.359-0.209-0.689l-5.34-13.38H316.515z"/>
</g>
<g>
	<path fill="#19162B" d="M325.096,640.33l-24.828-1.815l-13.927-7.267c-32.701,1.814-44.208-6.056-44.208-6.056v3.632
		c6.661,0.605,10.9,7.873,10.9,7.873l-1.816,13.927c-43.6,12.719-55.105-5.449-55.105-5.449l0.605-15.744l13.321-6.662
		c6.056-37.544,36.334-35.728,36.334-35.728v-4.845l-2.422-5.449l-5.297-3.028v-8.336l15.635-10.667l-0.814-8.062l-4.681-2.604
		l-18.167,8.479c-25.433-4.239-4.239-22.406-4.239-22.406l21.195-1.817c-1.817-4.843,3.633-7.871,3.633-7.871
		c9.083-4.238,21.8-1.211,21.8-1.211l0.604,3.025l21.194-11.505c29.067,7.873,4.239,23.011,4.239,23.011l-22.405,2.424l-4.844,7.871
		l1.21,10.294l15.744,9.084v9.688l-6.057,7.267l7.268,10.901l43.602,6.056C352.951,627.007,325.096,640.33,325.096,640.33z
		 M223.442,642.146c-12.374-0.182-22.439,2.108-22.484,5.119c-0.043,3.01,9.95,5.599,22.323,5.779
		c12.374,0.183,22.44-2.109,22.484-5.12C245.81,644.917,235.815,642.33,223.442,642.146z"/>
	<path fill="#19162B" d="M224.929,677.431c0,0-13.515,14.61-11.797,26.095c0,0,1.328,8.28,9.847,8.28c0,0,9.062,0.819,9.764-10.486
		c0,0,0.158-4.747-4.218-11.623C228.524,689.695,225.087,684.619,224.929,677.431z"/>
</g>
</svg>
