<?xml version="1.0" encoding="utf-8"?>
<!-- Generator: Adobe Illustrator 15.1.0, SVG Export Plug-In . SVG Version: 6.00 Build 0)  -->
<!DOCTYPE svg PUBLIC "-//W3C//DTD SVG 1.1//EN" "http://www.w3.org/Graphics/SVG/1.1/DTD/svg11.dtd">
<svg version="1.1" id="Layer_1" xmlns="http://www.w3.org/2000/svg" xmlns:xlink="http://www.w3.org/1999/xlink" x="0px" y="0px"
	 width="536.378px" height="780.521px" viewBox="0 0 536.378 780.521" enable-background="new 0 0 536.378 780.521"
	 xml:space="preserve">
<rect x="130.958" y="187.35" fill="none" width="380.723" height="157.991"/>
<g enable-background="new    ">
	<path d="M276.12,333.147V231.949h-24v-20.6c15.6-0.8,25.799-6.601,28.6-18.2h23.199v139.998H276.12z"/>
	<path d="M353.119,333.147V231.949h-24v-20.6c15.6-0.8,25.801-6.601,28.6-18.2h23.2v139.998H353.119z"/>
</g>
<rect x="-17.884" y="391.2" fill="none" width="587.719" height="29.578"/>
<g enable-background="new    ">
	<path d="M63.76,409.021c0,1.26,0.06,2.489,0.21,3.479H61.6l-0.21-1.83H61.3c-0.81,1.14-2.37,2.16-4.44,2.16
		c-2.94,0-4.44-2.07-4.44-4.17c0-3.51,3.12-5.43,8.73-5.399v-0.301c0-1.17-0.33-3.359-3.3-3.329c-1.38,0-2.79,0.39-3.81,1.08
		l-0.6-1.771c1.2-0.75,2.97-1.26,4.8-1.26c4.44,0,5.52,3.03,5.52,5.91V409.021z M61.21,405.09c-2.88-0.06-6.15,0.45-6.15,3.271
		c0,1.739,1.14,2.52,2.46,2.52c1.92,0,3.15-1.2,3.57-2.43c0.09-0.3,0.12-0.6,0.12-0.84V405.09z"/>
	<path d="M68.02,401.91c0-1.529-0.06-2.729-0.12-3.93h2.31l0.12,2.37h0.09c0.81-1.38,2.16-2.67,4.59-2.67c1.95,0,3.45,1.2,4.08,2.91
		h0.06c0.45-0.84,1.05-1.44,1.65-1.891c0.87-0.659,1.8-1.02,3.18-1.02c1.95,0,4.8,1.26,4.8,6.3v8.52h-2.58v-8.189
		c0-2.82-1.05-4.47-3.15-4.47c-1.53,0-2.67,1.109-3.15,2.369c-0.12,0.391-0.21,0.841-0.21,1.32v8.97h-2.58v-8.699
		c0-2.311-1.02-3.96-3.03-3.96c-1.62,0-2.85,1.319-3.27,2.64c-0.15,0.36-0.21,0.84-0.21,1.29v8.729h-2.58V401.91z"/>
	<path d="M106.18,405.12c0,5.37-3.75,7.71-7.23,7.71c-3.9,0-6.959-2.88-6.959-7.47c0-4.83,3.209-7.68,7.2-7.68
		C103.359,397.681,106.18,400.711,106.18,405.12z M94.69,405.271c0,3.18,1.8,5.579,4.38,5.579c2.52,0,4.41-2.369,4.41-5.64
		c0-2.46-1.23-5.55-4.35-5.55C96.04,399.66,94.69,402.54,94.69,405.271z"/>
	<path d="M121.659,408.51c0,1.53,0.03,2.851,0.12,3.99h-2.34l-0.15-2.37h-0.06c-0.66,1.17-2.22,2.7-4.8,2.7
		c-2.28,0-5.01-1.29-5.01-6.359v-8.49h2.64v8.01c0,2.76,0.87,4.649,3.24,4.649c1.77,0,3-1.229,3.48-2.43
		c0.15-0.359,0.24-0.84,0.24-1.35v-8.88h2.64V408.51z"/>
	<path d="M126.04,401.91c0-1.529-0.03-2.729-0.12-3.93h2.34l0.15,2.4h0.06c0.72-1.351,2.4-2.7,4.8-2.7c2.01,0,5.13,1.2,5.13,6.18
		v8.64h-2.64v-8.37c0-2.34-0.87-4.289-3.36-4.289c-1.71,0-3.06,1.229-3.54,2.699c-0.12,0.33-0.18,0.78-0.18,1.23v8.729h-2.64V401.91
		z"/>
	<path d="M145.749,394.501v3.479h3.78v2.01h-3.78v7.83c0,1.8,0.51,2.819,1.98,2.819c0.72,0,1.14-0.06,1.53-0.18l0.12,2.01
		c-0.51,0.181-1.32,0.36-2.34,0.36c-1.23,0-2.22-0.42-2.85-1.11c-0.72-0.81-1.02-2.1-1.02-3.81v-7.92h-2.25v-2.01h2.25v-2.7
		L145.749,394.501z"/>
	<path d="M161.799,393.9c0,0.9-0.63,1.62-1.68,1.62c-0.96,0-1.59-0.72-1.59-1.62c0-0.899,0.66-1.649,1.65-1.649
		C161.139,392.251,161.799,392.971,161.799,393.9z M158.859,412.5v-14.52h2.64v14.52H158.859z"/>
	<path d="M165.879,401.91c0-1.529-0.03-2.729-0.12-3.93h2.34l0.15,2.4h0.06c0.72-1.351,2.4-2.7,4.8-2.7c2.01,0,5.13,1.2,5.13,6.18
		v8.64h-2.64v-8.37c0-2.34-0.87-4.289-3.36-4.289c-1.71,0-3.06,1.229-3.54,2.699c-0.12,0.33-0.18,0.78-0.18,1.23v8.729h-2.64V401.91
		z"/>
	<path d="M199.088,409.021c0,1.26,0.06,2.489,0.21,3.479h-2.37l-0.21-1.83h-0.09c-0.81,1.14-2.37,2.16-4.44,2.16
		c-2.94,0-4.44-2.07-4.44-4.17c0-3.51,3.12-5.43,8.73-5.399v-0.301c0-1.17-0.33-3.359-3.3-3.329c-1.38,0-2.79,0.39-3.81,1.08
		l-0.6-1.771c1.2-0.75,2.97-1.26,4.8-1.26c4.44,0,5.52,3.03,5.52,5.91V409.021z M196.538,405.09c-2.88-0.06-6.15,0.45-6.15,3.271
		c0,1.739,1.14,2.52,2.46,2.52c1.92,0,3.15-1.2,3.57-2.43c0.09-0.3,0.12-0.6,0.12-0.84V405.09z"/>
	<path d="M203.348,401.91c0-1.529-0.03-2.729-0.12-3.93h2.34l0.15,2.4h0.06c0.72-1.351,2.4-2.7,4.8-2.7c2.01,0,5.13,1.2,5.13,6.18
		v8.64h-2.64v-8.37c0-2.34-0.87-4.289-3.36-4.289c-1.71,0-3.06,1.229-3.54,2.699c-0.12,0.33-0.18,0.78-0.18,1.23v8.729h-2.64V401.91
		z"/>
	<path d="M236.557,409.021c0,1.26,0.06,2.489,0.21,3.479h-2.37l-0.21-1.83h-0.09c-0.81,1.14-2.37,2.16-4.44,2.16
		c-2.94,0-4.44-2.07-4.44-4.17c0-3.51,3.12-5.43,8.73-5.399v-0.301c0-1.17-0.33-3.359-3.3-3.329c-1.38,0-2.79,0.39-3.81,1.08
		l-0.6-1.771c1.2-0.75,2.97-1.26,4.8-1.26c4.44,0,5.52,3.03,5.52,5.91V409.021z M234.007,405.09c-2.88-0.06-6.149,0.45-6.149,3.271
		c0,1.739,1.14,2.52,2.46,2.52c1.92,0,3.15-1.2,3.57-2.43c0.09-0.3,0.12-0.6,0.12-0.84V405.09z"/>
	<path d="M241.598,397.98l2.85,8.13c0.48,1.35,0.87,2.55,1.17,3.75h0.09c0.33-1.2,0.75-2.4,1.23-3.75l2.82-8.13h2.76l-5.7,14.52
		h-2.52l-5.52-14.52H241.598z"/>
	<path d="M256.177,405.721c0.06,3.569,2.31,5.039,4.98,5.039c1.89,0,3.06-0.33,4.02-0.75l0.48,1.891c-0.93,0.42-2.55,0.93-4.86,0.93
		c-4.47,0-7.14-2.97-7.14-7.35s2.58-7.8,6.81-7.8c4.77,0,6,4.14,6,6.81c0,0.54-0.03,0.93-0.09,1.23H256.177z M263.917,403.83
		c0.03-1.649-0.69-4.26-3.66-4.26c-2.7,0-3.84,2.43-4.05,4.26H263.917z"/>
	<path d="M269.738,402.511c0-1.71-0.031-3.181-0.121-4.53h2.311l0.12,2.88h0.09c0.66-1.95,2.28-3.18,4.05-3.18
		c0.27,0,0.48,0.03,0.721,0.06v2.49c-0.271-0.06-0.541-0.06-0.9-0.06c-1.86,0-3.18,1.38-3.54,3.359
		c-0.06,0.36-0.091,0.81-0.091,1.23v7.739h-2.639V402.511z"/>
	<path d="M289.597,409.021c0,1.26,0.061,2.489,0.21,3.479h-2.37l-0.21-1.83h-0.09c-0.81,1.14-2.37,2.16-4.44,2.16
		c-2.939,0-4.439-2.07-4.439-4.17c0-3.51,3.12-5.43,8.73-5.399v-0.301c0-1.17-0.33-3.359-3.301-3.329c-1.38,0-2.789,0.39-3.81,1.08
		l-0.601-1.771c1.201-0.75,2.971-1.26,4.801-1.26c4.439,0,5.52,3.03,5.52,5.91V409.021z M287.046,405.09
		c-2.879-0.06-6.148,0.45-6.148,3.271c0,1.739,1.139,2.52,2.459,2.52c1.92,0,3.15-1.2,3.57-2.43c0.09-0.3,0.119-0.6,0.119-0.84
		V405.09z"/>
	<path d="M306.277,410.37c0,3.359-0.69,5.37-2.07,6.66c-1.439,1.289-3.48,1.739-5.311,1.739c-1.739,0-3.659-0.42-4.829-1.2
		l0.66-2.039c0.96,0.63,2.46,1.17,4.26,1.17c2.7,0,4.68-1.41,4.68-5.101v-1.59h-0.06c-0.78,1.351-2.37,2.431-4.62,2.431
		c-3.601,0-6.18-3.061-6.18-7.08c0-4.92,3.21-7.68,6.569-7.68c2.52,0,3.87,1.29,4.529,2.49h0.061l0.09-2.19h2.34
		c-0.09,1.021-0.119,2.22-0.119,3.96V410.37z M303.636,403.71c0-0.449-0.029-0.84-0.15-1.17c-0.479-1.56-1.739-2.819-3.689-2.819
		c-2.52,0-4.319,2.13-4.319,5.489c0,2.851,1.47,5.22,4.29,5.22c1.649,0,3.119-1.02,3.66-2.699c0.149-0.45,0.209-0.96,0.209-1.41
		V403.71z"/>
	<path d="M312.097,405.721c0.06,3.569,2.31,5.039,4.979,5.039c1.89,0,3.06-0.33,4.021-0.75l0.479,1.891
		c-0.931,0.42-2.55,0.93-4.86,0.93c-4.469,0-7.139-2.97-7.139-7.35s2.579-7.8,6.809-7.8c4.77,0,6,4.14,6,6.81
		c0,0.54-0.029,0.93-0.09,1.23H312.097z M319.836,403.83c0.03-1.649-0.69-4.26-3.659-4.26c-2.701,0-3.84,2.43-4.051,4.26H319.836z"
		/>
	<path d="M336.906,395.461h-0.061l-3.389,1.83l-0.51-2.011l4.26-2.279h2.249V412.5h-2.55V395.461z"/>
	<path d="M358.205,395.221h-7.439l-0.75,5.01c0.451-0.06,0.871-0.09,1.59-0.09c1.531,0,3,0.3,4.2,1.05
		c1.53,0.84,2.79,2.55,2.79,4.979c0,3.811-3.029,6.66-7.26,6.66c-2.13,0-3.9-0.6-4.859-1.2l0.66-2.01
		c0.81,0.479,2.399,1.08,4.199,1.08c2.46,0,4.62-1.62,4.59-4.229c0-2.521-1.71-4.29-5.58-4.29c-1.14,0-2.01,0.09-2.729,0.18
		l1.26-9.359h9.329V395.221z"/>
	<path d="M374.945,402.54c0,6.63-2.49,10.29-6.779,10.29c-3.811,0-6.42-3.57-6.48-10.02c0-6.57,2.85-10.14,6.811-10.14
		C372.576,392.671,374.945,396.331,374.945,402.54z M364.355,402.841c0,5.069,1.561,7.949,3.96,7.949c2.67,0,3.96-3.149,3.96-8.13
		c0-4.8-1.199-7.949-3.96-7.949C366.035,394.711,364.355,397.53,364.355,402.841z"/>
	<path d="M384.544,391.201h2.641V412.5h-2.641V391.201z"/>
	<path d="M391.625,391.201h2.609v9.119h0.061c0.93-1.62,2.609-2.64,4.949-2.64c3.631,0,6.15,3,6.15,7.38c0,5.189-3.3,7.77-6.54,7.77
		c-2.1,0-3.78-0.811-4.89-2.7h-0.061l-0.149,2.37h-2.25c0.06-0.99,0.12-2.46,0.12-3.75V391.201z M394.234,406.681
		c0,0.329,0.03,0.659,0.121,0.96c0.479,1.829,2.039,3.09,3.959,3.09c2.79,0,4.41-2.25,4.41-5.58c0-2.91-1.5-5.399-4.35-5.399
		c-1.77,0-3.45,1.26-3.99,3.239c-0.09,0.33-0.15,0.69-0.15,1.11V406.681z"/>
	<path d="M415.054,402.721c0-1.86-0.061-3.36-0.121-4.74h2.34l0.15,2.49h0.061c1.05-1.771,2.789-2.79,5.16-2.79
		c3.539,0,6.18,2.97,6.18,7.35c0,5.22-3.211,7.8-6.631,7.8c-1.92,0-3.6-0.84-4.469-2.28h-0.061v7.89h-2.609V402.721z
		 M417.664,406.59c0,0.391,0.029,0.75,0.12,1.08c0.479,1.83,2.069,3.09,3.96,3.09c2.789,0,4.41-2.279,4.41-5.609
		c0-2.88-1.531-5.37-4.32-5.37c-1.8,0-3.51,1.26-3.99,3.24c-0.09,0.33-0.18,0.72-0.18,1.05V406.59z"/>
	<path d="M433.593,405.721c0.061,3.569,2.311,5.039,4.98,5.039c1.89,0,3.06-0.33,4.02-0.75l0.48,1.891
		c-0.931,0.42-2.551,0.93-4.86,0.93c-4.47,0-7.14-2.97-7.14-7.35s2.58-7.8,6.81-7.8c4.771,0,5.999,4.14,5.999,6.81
		c0,0.54-0.029,0.93-0.09,1.23H433.593z M441.333,403.83c0.029-1.649-0.69-4.26-3.66-4.26c-2.699,0-3.84,2.43-4.05,4.26H441.333z"/>
	<path d="M447.153,402.511c0-1.71-0.03-3.181-0.12-4.53h2.311l0.119,2.88h0.09c0.66-1.95,2.281-3.18,4.051-3.18
		c0.27,0,0.48,0.03,0.719,0.06v2.49c-0.27-0.06-0.539-0.06-0.898-0.06c-1.861,0-3.181,1.38-3.541,3.359
		c-0.06,0.36-0.09,0.81-0.09,1.23v7.739h-2.64V402.511z"/>
	<path d="M456.603,409.83c0.811,0.48,2.189,1.02,3.51,1.02c1.891,0,2.791-0.93,2.791-2.159c0-1.26-0.75-1.92-2.67-2.641
		c-2.641-0.96-3.871-2.369-3.871-4.109c0-2.34,1.92-4.26,5.01-4.26c1.471,0,2.76,0.39,3.541,0.899l-0.631,1.92
		c-0.57-0.359-1.619-0.869-2.969-0.869c-1.561,0-2.4,0.899-2.4,1.979c0,1.2,0.84,1.74,2.73,2.49c2.488,0.93,3.809,2.189,3.809,4.35
		c0,2.58-2.01,4.38-5.398,4.38c-1.592,0-3.061-0.42-4.08-1.021L456.603,409.83z"/>
	<path d="M481.982,405.12c0,5.37-3.75,7.71-7.229,7.71c-3.9,0-6.961-2.88-6.961-7.47c0-4.83,3.211-7.68,7.201-7.68
		C479.164,397.681,481.982,400.711,481.982,405.12z M470.494,405.271c0,3.18,1.799,5.579,4.379,5.579c2.52,0,4.41-2.369,4.41-5.64
		c0-2.46-1.23-5.55-4.35-5.55C471.843,399.66,470.494,402.54,470.494,405.271z"/>
	<path d="M485.312,401.91c0-1.529-0.029-2.729-0.119-3.93h2.34l0.15,2.4h0.061c0.719-1.351,2.398-2.7,4.799-2.7
		c2.01,0,5.131,1.2,5.131,6.18v8.64h-2.641v-8.37c0-2.34-0.869-4.289-3.359-4.289c-1.711,0-3.061,1.229-3.541,2.699
		c-0.119,0.33-0.18,0.78-0.18,1.23v8.729h-2.641V401.91z"/>
</g>
<g>
	<path fill="#19162B" d="M263.396,591.178v84.933c-0.79,8.3-10.267,8.3-10.267,8.3c-8.296-1.189-9.882-7.907-9.882-7.907V531.93
		c-1.977-5.14-4.34,0-4.34,0v51.746c-0.796,6.322-7.911,6.322-7.911,6.322c-7.107-1.189-7.89-6.322-7.89-6.322v-61.229
		c4.347-21.727,21.727-20.938,21.727-20.938h20.54h0.796h20.526c0,0,17.393-0.789,21.732,20.938v61.229c0,0-0.795,5.133-7.908,6.322
		c0,0-7.109,0-7.891-6.322V531.93c0,0-2.375-5.14-4.354,0v144.572c0,0-1.58,6.718-9.868,7.907c0,0-9.49,0-10.26-8.3v-84.933
		C268.147,591.178,265.967,586.241,263.396,591.178z"/>
	<path fill="#19162B" d="M282.753,478.206c0,8.941-7.252,16.199-16.199,16.199c-8.948,0-16.199-7.258-16.199-16.199
		s7.251-16.192,16.199-16.192C275.501,462.014,282.753,469.265,282.753,478.206z"/>
</g>
</svg>
