<?xml version="1.0" encoding="utf-8"?>
<!-- Generator: Adobe Illustrator 15.1.0, SVG Export Plug-In . SVG Version: 6.00 Build 0)  -->
<!DOCTYPE svg PUBLIC "-//W3C//DTD SVG 1.1//EN" "http://www.w3.org/Graphics/SVG/1.1/DTD/svg11.dtd">
<svg version="1.1" id="Layer_1" xmlns="http://www.w3.org/2000/svg" xmlns:xlink="http://www.w3.org/1999/xlink" x="0px" y="0px"
	 width="536.378px" height="780.521px" viewBox="0 0 536.378 780.521" enable-background="new 0 0 536.378 780.521"
	 xml:space="preserve">
<rect x="189.576" y="217.174" fill="none" width="271.486" height="117.604"/>
<g enable-background="new    ">
	<path d="M229.015,336.777V235.579h-24v-20.6c15.6-0.8,25.8-6.601,28.6-18.2h23.2v139.998H229.015z"/>
	<path d="M301.415,338.978c-10.2,0-18.8-8.601-18.8-18.8c0-10.2,8.6-18.8,18.8-18.8s18.8,8.6,18.8,18.8
		C320.214,330.377,311.615,338.978,301.415,338.978z"/>
	<path d="M393.611,338.978c-31.199,0-55.599-17.4-55.599-56.6c0-36.799,21.6-87.799,94.198-87.799v27.2
		c-32.399,0-52.999,11.399-60.999,32.799c9-5.999,17.8-8.8,31.999-8.8c27.801,0,49.4,14.2,49.4,45.2
		C452.611,322.178,426.611,338.978,393.611,338.978z M396.211,271.179c-19,0-29.2,6.399-29.2,20.999c0,13,9.6,20.8,27.801,20.8
		c18.6,0,29.398-8,29.398-20.999C424.21,277.778,413.811,271.179,396.211,271.179z"/>
</g>
<path fill="#19162B" d="M273.785,450.253l16.953,14.205c0,0,6.414,7.332,5.041,14.205l-4.123,2.748l0.455,5.04
	c0,0,18.33,36.654-5.955,75.143l-2.291,2.292l9.164,4.123c0,0,63.688-5.498,75.602,43.985c0,0-0.918,8.248-3.209,10.538
	c0,0,3.209,20.618-23.364,38.945l-5.5,1.374l2.291,19.702c0,0,7.332,12.372-8.707,25.658c0,0-21.531,12.83-41.69,0L251.793,676.6
	c0,0-16.038-13.746-5.042-36.195c0,0-5.956-14.205-1.831-15.578l-1.834-12.83l-9.621-13.744l-7.332-8.248v-2.749l-5.042-5.956
	c0,0-15.576,7.33-31.614-6.415c0,0-8.248-10.538-14.203-47.651l-3.208-23.364l-6.413-3.667l-2.75-2.292l0.458-6.871
	c0,0-1.832-6.415,9.621-11.913c11.457-5.5,91.181-28.868,91.181-28.868S269.205,447.964,273.785,450.253z M297.152,585.42
	c0,0-16.953,5.957-17.412,7.33c0,0-23.366,16.038,14.664,27.492c0,0,34.822,16.493,50.4-7.789c0,0,5.5-17.87-28.408-26.574
	C316.396,585.879,306.316,582.67,297.152,585.42z"/>
<rect x="143.748" y="389.2" fill="none" width="263.158" height="35.087"/>
<g enable-background="new    ">
	<path d="M156.963,408.208c0,1.344,0.064,2.656,0.224,3.712h-2.528l-0.224-1.952h-0.096c-0.864,1.216-2.528,2.304-4.736,2.304
		c-3.136,0-4.735-2.207-4.735-4.447c0-3.744,3.328-5.792,9.311-5.76v-0.319c0-1.248-0.352-3.584-3.52-3.552
		c-1.472,0-2.976,0.416-4.064,1.151l-0.64-1.888c1.28-0.8,3.167-1.344,5.12-1.344c4.735,0,5.887,3.231,5.887,6.304V408.208z
		 M154.243,404.017c-3.072-0.064-6.56,0.479-6.56,3.487c0,1.856,1.216,2.688,2.624,2.688c2.048,0,3.36-1.28,3.808-2.592
		c0.096-0.32,0.128-0.641,0.128-0.896V404.017z"/>
	<path d="M162.34,396.433l3.04,8.672c0.512,1.439,0.928,2.72,1.248,4h0.096c0.352-1.28,0.8-2.561,1.312-4l3.008-8.672h2.944
		l-6.08,15.487h-2.688l-5.888-15.487H162.34z"/>
	<path d="M177.892,404.688c0.064,3.808,2.464,5.376,5.312,5.376c2.016,0,3.264-0.353,4.288-0.801l0.512,2.017
		c-0.992,0.447-2.72,0.991-5.184,0.991c-4.768,0-7.616-3.167-7.616-7.839s2.752-8.319,7.264-8.319c5.087,0,6.399,4.415,6.399,7.264
		c0,0.575-0.032,0.991-0.096,1.312H177.892z M186.147,402.673c0.032-1.76-0.736-4.544-3.904-4.544c-2.88,0-4.096,2.592-4.32,4.544
		H186.147z"/>
	<path d="M192.355,401.265c0-1.824-0.032-3.392-0.128-4.832h2.464l0.128,3.072h0.096c0.704-2.08,2.432-3.392,4.32-3.392
		c0.288,0,0.512,0.032,0.768,0.063v2.656c-0.288-0.064-0.576-0.064-0.96-0.064c-1.984,0-3.392,1.473-3.776,3.584
		c-0.064,0.384-0.096,0.864-0.096,1.312v8.256h-2.816V401.265z"/>
	<path d="M213.539,408.208c0,1.344,0.064,2.656,0.224,3.712h-2.528l-0.224-1.952h-0.096c-0.864,1.216-2.528,2.304-4.736,2.304
		c-3.136,0-4.735-2.207-4.735-4.447c0-3.744,3.328-5.792,9.311-5.76v-0.319c0-1.248-0.352-3.584-3.52-3.552
		c-1.472,0-2.976,0.416-4.064,1.151l-0.64-1.888c1.28-0.8,3.167-1.344,5.12-1.344c4.735,0,5.887,3.231,5.887,6.304V408.208z
		 M210.819,404.017c-3.072-0.064-6.56,0.479-6.56,3.487c0,1.856,1.216,2.688,2.624,2.688c2.048,0,3.36-1.28,3.808-2.592
		c0.096-0.32,0.128-0.641,0.128-0.896V404.017z"/>
	<path d="M231.331,409.648c0,3.583-0.736,5.728-2.208,7.104c-1.536,1.376-3.712,1.855-5.664,1.855c-1.856,0-3.904-0.448-5.151-1.28
		l0.704-2.176c1.024,0.672,2.624,1.248,4.544,1.248c2.879,0,4.992-1.504,4.992-5.439v-1.696h-0.064
		c-0.832,1.44-2.528,2.592-4.927,2.592c-3.84,0-6.592-3.264-6.592-7.551c0-5.248,3.424-8.191,7.008-8.191
		c2.688,0,4.127,1.376,4.832,2.655h0.064l0.096-2.336h2.496c-0.096,1.088-0.128,2.368-0.128,4.224V409.648z M228.515,402.545
		c0-0.48-0.032-0.896-0.16-1.248c-0.512-1.664-1.855-3.008-3.936-3.008c-2.688,0-4.608,2.271-4.608,5.855
		c0,3.04,1.568,5.567,4.576,5.567c1.76,0,3.328-1.088,3.904-2.88c0.16-0.479,0.224-1.023,0.224-1.504V402.545z"/>
	<path d="M237.539,404.688c0.064,3.808,2.464,5.376,5.312,5.376c2.016,0,3.264-0.353,4.288-0.801l0.512,2.017
		c-0.992,0.447-2.72,0.991-5.184,0.991c-4.768,0-7.616-3.167-7.616-7.839s2.752-8.319,7.264-8.319c5.087,0,6.399,4.415,6.399,7.264
		c0,0.575-0.032,0.991-0.096,1.312H237.539z M245.794,402.673c0.032-1.76-0.736-4.544-3.904-4.544c-2.88,0-4.096,2.592-4.32,4.544
		H245.794z"/>
	<path d="M262.178,392.722v3.711h4.032v2.145h-4.032v8.352c0,1.919,0.544,3.008,2.112,3.008c0.768,0,1.216-0.064,1.632-0.192
		l0.128,2.144c-0.544,0.192-1.408,0.384-2.496,0.384c-1.312,0-2.368-0.447-3.04-1.184c-0.768-0.864-1.088-2.24-1.088-4.063v-8.447
		h-2.399v-2.145h2.399v-2.879L262.178,392.722z"/>
	<path d="M283.201,404.049c0,5.728-3.999,8.223-7.711,8.223c-4.16,0-7.423-3.071-7.423-7.967c0-5.151,3.423-8.191,7.679-8.191
		C280.194,396.113,283.201,399.345,283.201,404.049z M270.947,404.208c0,3.393,1.92,5.952,4.672,5.952
		c2.688,0,4.703-2.528,4.703-6.016c0-2.624-1.312-5.92-4.64-5.92C272.386,398.225,270.947,401.297,270.947,404.208z"/>
	<path d="M289.89,392.081c0,0.96-0.672,1.729-1.792,1.729c-1.024,0-1.696-0.769-1.696-1.729s0.705-1.76,1.76-1.76
		C289.186,390.321,289.89,391.09,289.89,392.081z M286.754,411.92v-15.487h2.815v15.487H286.754z"/>
	<path d="M294.242,389.201h2.816v22.719h-2.816V389.201z"/>
	<path d="M303.362,404.688c0.063,3.808,2.464,5.376,5.312,5.376c2.016,0,3.264-0.353,4.287-0.801l0.513,2.017
		c-0.992,0.447-2.72,0.991-5.184,0.991c-4.769,0-7.616-3.167-7.616-7.839s2.752-8.319,7.264-8.319c5.088,0,6.4,4.415,6.4,7.264
		c0,0.575-0.033,0.991-0.097,1.312H303.362z M311.617,402.673c0.032-1.76-0.735-4.544-3.903-4.544c-2.88,0-4.096,2.592-4.319,4.544
		H311.617z"/>
	<path d="M321.217,392.722v3.711h4.032v2.145h-4.032v8.352c0,1.919,0.544,3.008,2.112,3.008c0.768,0,1.215-0.064,1.631-0.192
		l0.129,2.144c-0.545,0.192-1.408,0.384-2.496,0.384c-1.312,0-2.367-0.447-3.04-1.184c-0.768-0.864-1.088-2.24-1.088-4.063v-8.447
		h-2.399v-2.145h2.399v-2.879L321.217,392.722z"/>
	<path d="M335.49,411.92v-13.343h-2.145v-2.145h2.145v-0.672c0-2.176,0.735-4.096,2.176-5.343c1.215-1.024,2.814-1.568,4.991-1.568
		c1.792,0,3.456,0.384,4.64,1.023v22.047h-2.816v-20.479c-0.479-0.256-1.215-0.416-2.303-0.416c-2.912,0-3.904,2.144-3.904,4.607
		v0.8h3.615v2.145h-3.615v13.343H335.49z"/>
	<path d="M364.896,407.664c0,1.632,0.031,3.04,0.128,4.256h-2.495l-0.16-2.527h-0.064c-0.704,1.247-2.367,2.879-5.119,2.879
		c-2.432,0-5.344-1.375-5.344-6.783v-9.056h2.815v8.544c0,2.943,0.928,4.96,3.456,4.96c1.888,0,3.199-1.312,3.711-2.592
		c0.16-0.385,0.256-0.896,0.256-1.44v-9.472h2.816V407.664z"/>
	<path d="M369.185,409.072c0.863,0.512,2.336,1.088,3.744,1.088c2.016,0,2.975-0.992,2.975-2.304c0-1.344-0.799-2.048-2.848-2.816
		c-2.815-1.023-4.127-2.527-4.127-4.384c0-2.495,2.047-4.543,5.344-4.543c1.567,0,2.943,0.416,3.775,0.96l-0.672,2.048
		c-0.608-0.384-1.729-0.928-3.168-0.928c-1.664,0-2.561,0.96-2.561,2.111c0,1.28,0.896,1.855,2.912,2.656
		c2.656,0.991,4.064,2.336,4.064,4.64c0,2.751-2.145,4.671-5.76,4.671c-1.696,0-3.264-0.447-4.352-1.088L369.185,409.072z"/>
	<path d="M382.241,389.201h2.815v9.695h0.064c0.447-0.8,1.152-1.535,2.016-2.016c0.832-0.479,1.824-0.768,2.88-0.768
		c2.079,0,5.407,1.279,5.407,6.592v9.215h-2.815v-8.896c0-2.496-0.929-4.575-3.584-4.575c-1.823,0-3.231,1.279-3.775,2.783
		c-0.16,0.416-0.192,0.832-0.192,1.344v9.344h-2.815V389.201z"/>
</g>
</svg>
