<?xml version="1.0" encoding="utf-8"?>
<!-- Generator: Adobe Illustrator 15.1.0, SVG Export Plug-In . SVG Version: 6.00 Build 0)  -->
<!DOCTYPE svg PUBLIC "-//W3C//DTD SVG 1.1//EN" "http://www.w3.org/Graphics/SVG/1.1/DTD/svg11.dtd">
<svg version="1.1" id="Layer_1" xmlns="http://www.w3.org/2000/svg" xmlns:xlink="http://www.w3.org/1999/xlink" x="0px" y="0px"
	 width="536.378px" height="780.521px" viewBox="0 0 536.378 780.521" enable-background="new 0 0 536.378 780.521"
	 xml:space="preserve">
<g enable-background="new    ">
	<path d="M286.319,333.147V231.949h-24v-20.6c15.6-0.8,25.799-6.601,28.6-18.2h23.199v139.998H286.319z"/>
</g>
<rect x="-17.884" y="389.2" fill="none" width="587.719" height="91.228"/>
<g>
	<g enable-background="new    ">
		<path d="M110.945,407.021c0,1.26,0.06,2.489,0.21,3.479h-2.37l-0.21-1.83h-0.09c-0.81,1.14-2.37,2.16-4.44,2.16
			c-2.94,0-4.44-2.07-4.44-4.17c0-3.51,3.12-5.43,8.73-5.399v-0.301c0-1.17-0.33-3.359-3.3-3.329c-1.38,0-2.79,0.39-3.81,1.08
			l-0.6-1.771c1.2-0.75,2.97-1.26,4.8-1.26c4.44,0,5.52,3.03,5.52,5.91V407.021z M108.396,403.09c-2.88-0.06-6.15,0.45-6.15,3.271
			c0,1.739,1.14,2.52,2.46,2.52c1.92,0,3.15-1.2,3.57-2.43c0.09-0.3,0.12-0.6,0.12-0.84V403.09z"/>
		<path d="M115.206,399.91c0-1.529-0.06-2.729-0.12-3.93h2.31l0.12,2.37h0.09c0.81-1.38,2.16-2.67,4.59-2.67
			c1.95,0,3.45,1.2,4.08,2.91h0.06c0.45-0.84,1.05-1.44,1.65-1.891c0.87-0.659,1.8-1.02,3.18-1.02c1.95,0,4.8,1.26,4.8,6.3v8.52
			h-2.58v-8.189c0-2.82-1.05-4.47-3.15-4.47c-1.53,0-2.67,1.109-3.15,2.369c-0.12,0.391-0.21,0.841-0.21,1.32v8.97h-2.58v-8.699
			c0-2.311-1.02-3.96-3.03-3.96c-1.62,0-2.85,1.319-3.27,2.64c-0.15,0.36-0.21,0.84-0.21,1.29v8.729h-2.58V399.91z"/>
		<path d="M153.365,403.12c0,5.37-3.75,7.71-7.23,7.71c-3.9,0-6.959-2.88-6.959-7.47c0-4.83,3.209-7.68,7.2-7.68
			C150.545,395.681,153.365,398.711,153.365,403.12z M141.875,403.271c0,3.18,1.8,5.579,4.38,5.579c2.52,0,4.41-2.369,4.41-5.64
			c0-2.46-1.23-5.55-4.35-5.55C143.226,397.66,141.875,400.54,141.875,403.271z"/>
		<path d="M168.845,406.51c0,1.53,0.03,2.851,0.12,3.99h-2.34l-0.15-2.37h-0.06c-0.66,1.17-2.22,2.7-4.8,2.7
			c-2.28,0-5.01-1.29-5.01-6.359v-8.49h2.64v8.01c0,2.76,0.87,4.649,3.24,4.649c1.77,0,3-1.229,3.48-2.43
			c0.15-0.359,0.24-0.84,0.24-1.35v-8.88h2.64V406.51z"/>
		<path d="M173.225,399.91c0-1.529-0.03-2.729-0.12-3.93h2.34l0.15,2.4h0.06c0.72-1.351,2.4-2.7,4.8-2.7c2.01,0,5.13,1.2,5.13,6.18
			v8.64h-2.64v-8.37c0-2.34-0.87-4.289-3.36-4.289c-1.71,0-3.06,1.229-3.54,2.699c-0.12,0.33-0.18,0.78-0.18,1.23v8.729h-2.64
			V399.91z"/>
		<path d="M192.935,392.501v3.479h3.78v2.01h-3.78v7.83c0,1.8,0.51,2.819,1.98,2.819c0.72,0,1.14-0.06,1.53-0.18l0.12,2.01
			c-0.51,0.181-1.32,0.36-2.34,0.36c-1.23,0-2.22-0.42-2.85-1.11c-0.72-0.81-1.02-2.1-1.02-3.81v-7.92h-2.25v-2.01h2.25v-2.7
			L192.935,392.501z"/>
		<path d="M208.984,391.9c0,0.9-0.63,1.62-1.68,1.62c-0.96,0-1.59-0.72-1.59-1.62c0-0.899,0.66-1.649,1.65-1.649
			C208.324,390.251,208.984,390.971,208.984,391.9z M206.044,410.5v-14.52h2.64v14.52H206.044z"/>
		<path d="M213.064,399.91c0-1.529-0.03-2.729-0.12-3.93h2.34l0.15,2.4h0.06c0.72-1.351,2.4-2.7,4.8-2.7c2.01,0,5.13,1.2,5.13,6.18
			v8.64h-2.64v-8.37c0-2.34-0.87-4.289-3.36-4.289c-1.71,0-3.06,1.229-3.54,2.699c-0.12,0.33-0.18,0.78-0.18,1.23v8.729h-2.64
			V399.91z"/>
		<path d="M249.213,403.12c0,5.37-3.75,7.71-7.23,7.71c-3.9,0-6.959-2.88-6.959-7.47c0-4.83,3.209-7.68,7.2-7.68
			C246.393,395.681,249.213,398.711,249.213,403.12z M237.724,403.271c0,3.18,1.8,5.579,4.38,5.579c2.52,0,4.41-2.369,4.41-5.64
			c0-2.46-1.23-5.55-4.35-5.55C239.074,397.66,237.724,400.54,237.724,403.271z"/>
		<path d="M252.543,399.91c0-1.529-0.03-2.729-0.12-3.93h2.34l0.15,2.4h0.06c0.72-1.351,2.4-2.7,4.8-2.7c2.01,0,5.13,1.2,5.13,6.18
			v8.64h-2.64v-8.37c0-2.34-0.87-4.289-3.36-4.289c-1.71,0-3.06,1.229-3.54,2.699c-0.12,0.33-0.18,0.78-0.18,1.23v8.729h-2.64
			V399.91z"/>
		<path d="M270.664,403.721c0.06,3.569,2.31,5.039,4.979,5.039c1.89,0,3.06-0.33,4.021-0.75l0.479,1.891
			c-0.931,0.42-2.55,0.93-4.86,0.93c-4.469,0-7.139-2.97-7.139-7.35s2.58-7.8,6.809-7.8c4.77,0,6,4.14,6,6.81
			c0,0.54-0.029,0.93-0.09,1.23H270.664z M278.403,401.83c0.03-1.649-0.69-4.26-3.659-4.26c-2.701,0-3.84,2.43-4.051,4.26H278.403z"
			/>
		<path d="M287.013,414.76c1.23-0.09,2.25-0.42,2.88-1.14c0.72-0.811,1.021-1.95,1.021-5.43v-12.21h2.639v13.229
			c0,2.82-0.449,4.649-1.739,5.97c-1.17,1.17-3.09,1.65-4.5,1.65L287.013,414.76z M293.853,391.9c0,0.87-0.6,1.62-1.68,1.62
			c-0.961,0-1.59-0.75-1.59-1.62c0-0.899,0.66-1.649,1.649-1.649S293.853,391.001,293.853,391.9z"/>
		<path d="M310.023,406.51c0,1.53,0.029,2.851,0.119,3.99h-2.34l-0.149-2.37h-0.06c-0.66,1.17-2.221,2.7-4.801,2.7
			c-2.279,0-5.01-1.29-5.01-6.359v-8.49h2.641v8.01c0,2.76,0.869,4.649,3.239,4.649c1.771,0,3-1.229,3.479-2.43
			c0.15-0.359,0.24-0.84,0.24-1.35v-8.88h2.641V406.51z"/>
		<path d="M326.822,408.37c0,3.359-0.689,5.37-2.069,6.66c-1.44,1.289-3.479,1.739-5.31,1.739c-1.74,0-3.66-0.42-4.83-1.2
			l0.66-2.039c0.96,0.63,2.459,1.17,4.26,1.17c2.699,0,4.68-1.41,4.68-5.101v-1.59h-0.061c-0.779,1.351-2.369,2.431-4.619,2.431
			c-3.6,0-6.18-3.061-6.18-7.08c0-4.92,3.209-7.68,6.569-7.68c2.521,0,3.87,1.29,4.53,2.49h0.06l0.091-2.19h2.34
			c-0.09,1.021-0.121,2.22-0.121,3.96V408.37z M324.183,401.71c0-0.449-0.031-0.84-0.15-1.17c-0.48-1.56-1.74-2.819-3.689-2.819
			c-2.521,0-4.32,2.13-4.32,5.489c0,2.851,1.47,5.22,4.289,5.22c1.65,0,3.121-1.02,3.66-2.699c0.15-0.45,0.211-0.96,0.211-1.41
			V401.71z"/>
		<path d="M350.671,403.12c0,5.37-3.75,7.71-7.229,7.71c-3.899,0-6.96-2.88-6.96-7.47c0-4.83,3.21-7.68,7.2-7.68
			C347.851,395.681,350.671,398.711,350.671,403.12z M339.182,403.271c0,3.18,1.8,5.579,4.38,5.579c2.52,0,4.41-2.369,4.41-5.64
			c0-2.46-1.23-5.55-4.35-5.55C340.533,397.66,339.182,400.54,339.182,403.271z"/>
		<path d="M354.272,410.5v-12.51h-2.01v-2.01h2.01v-0.689c0-2.04,0.479-3.9,1.68-5.07c0.99-0.96,2.31-1.35,3.54-1.35
			c0.96,0,1.74,0.21,2.25,0.42l-0.359,2.04c-0.391-0.181-0.9-0.33-1.681-0.33c-2.25,0-2.819,1.95-2.819,4.199v0.78h3.51v2.01h-3.51
			v12.51H354.272z"/>
		<path d="M370.171,395.98l1.95,7.38c0.39,1.62,0.78,3.12,1.05,4.62h0.09c0.33-1.471,0.811-3.03,1.29-4.59l2.37-7.41h2.22l2.25,7.26
			c0.54,1.74,0.96,3.27,1.29,4.74h0.09c0.24-1.471,0.63-3,1.109-4.71l2.07-7.29h2.609l-4.68,14.52h-2.399l-2.22-6.93
			c-0.51-1.62-0.93-3.06-1.29-4.77h-0.06c-0.36,1.739-0.811,3.239-1.32,4.8l-2.34,6.899h-2.4l-4.379-14.52H370.171z"/>
		<path d="M401.281,407.021c0,1.26,0.061,2.489,0.211,3.479h-2.371l-0.209-1.83h-0.09c-0.811,1.14-2.371,2.16-4.44,2.16
			c-2.94,0-4.44-2.07-4.44-4.17c0-3.51,3.121-5.43,8.73-5.399v-0.301c0-1.17-0.33-3.359-3.301-3.329c-1.379,0-2.789,0.39-3.809,1.08
			l-0.601-1.771c1.2-0.75,2.97-1.26,4.8-1.26c4.439,0,5.52,3.03,5.52,5.91V407.021z M398.732,403.09
			c-2.881-0.06-6.15,0.45-6.15,3.271c0,1.739,1.14,2.52,2.46,2.52c1.92,0,3.149-1.2,3.569-2.43c0.09-0.3,0.121-0.6,0.121-0.84
			V403.09z"/>
		<path d="M408.601,392.501v3.479h3.779v2.01h-3.779v7.83c0,1.8,0.51,2.819,1.98,2.819c0.72,0,1.14-0.06,1.529-0.18l0.12,2.01
			c-0.51,0.181-1.319,0.36-2.34,0.36c-1.229,0-2.22-0.42-2.85-1.11c-0.72-0.81-1.021-2.1-1.021-3.81v-7.92h-2.25v-2.01h2.25v-2.7
			L408.601,392.501z"/>
		<path d="M416.64,403.721c0.061,3.569,2.311,5.039,4.98,5.039c1.891,0,3.061-0.33,4.02-0.75l0.48,1.891
			c-0.93,0.42-2.551,0.93-4.859,0.93c-4.471,0-7.141-2.97-7.141-7.35s2.58-7.8,6.811-7.8c4.77,0,5.999,4.14,5.999,6.81
			c0,0.54-0.03,0.93-0.09,1.23H416.64z M424.38,401.83c0.03-1.649-0.689-4.26-3.66-4.26c-2.699,0-3.84,2.43-4.049,4.26H424.38z"/>
		<path d="M430.201,400.511c0-1.71-0.029-3.181-0.12-4.53h2.31l0.121,2.88h0.09c0.66-1.95,2.279-3.18,4.049-3.18
			c0.271,0,0.48,0.03,0.721,0.06v2.49c-0.27-0.06-0.54-0.06-0.9-0.06c-1.859,0-3.18,1.38-3.539,3.359
			c-0.061,0.36-0.091,0.81-0.091,1.23v7.739h-2.64V400.511z"/>
	</g>
	<g>
		<path d="M283.602,493.727l-0.519,2.593c4.667,2.333,4.407,4.407,4.407,4.407c4.927,1.296,26.964,17.371,26.964,17.371
			c10.629,7,10.629,11.926,10.629,11.926c12.447,52.114,8.557,103.188,8.557,103.188c-6.482,26.187-16.594,29.299-16.594,29.299
			c-7.777,5.185-33.185,11.407-33.185,11.407c-9.075,1.815-14.26-5.186-14.26-5.186c-4.927-7-10.112,0-10.112,0
			c-4.149,7.778-14.259,3.89-14.259,3.89c-4.408-0.777-24.891-9.593-24.891-9.593c-15.038-6.741-18.149-32.149-18.149-32.149
			c-0.259-4.926,1.297-37.853,1.297-37.853c1.21-5.791,16.594-77.521,16.594-77.521c3.11-7.778,29.815-17.111,29.815-17.111v-1.297
			c1.815-0.26,3.111-1.557,3.111-1.557l0.26-1.036l-0.778-1.556l2.074-3.11l0.535-4.514l24.627,3.731L283.602,493.727z
			 M242.378,522.245c0,0-7.52-8.815-12.705,2.594c0,0-5.704,27.741-2.333,42.26c0,0,1.296,3.89,3.89,1.815l2.852-1.036
			C234.081,567.878,236.415,570.21,242.378,522.245z"/>
		<path d="M253.915,490.745c0,0,11.153,0.129,27.354,0.129v-8.814h-26.824L253.915,490.745z"/>
	</g>
</g>
</svg>
