<?xml version="1.0" encoding="utf-8"?>
<!-- Generator: Adobe Illustrator 15.1.0, SVG Export Plug-In . SVG Version: 6.00 Build 0)  -->
<!DOCTYPE svg PUBLIC "-//W3C//DTD SVG 1.1//EN" "http://www.w3.org/Graphics/SVG/1.1/DTD/svg11.dtd">
<svg version="1.1" id="Layer_1" xmlns="http://www.w3.org/2000/svg" xmlns:xlink="http://www.w3.org/1999/xlink" x="0px" y="0px"
	 width="536.378px" height="780.521px" viewBox="0 0 536.378 780.521" enable-background="new 0 0 536.378 780.521"
	 xml:space="preserve">
<rect x="163.537" y="201.337" fill="none" width="335.21" height="91.324"/>
<g enable-background="new    ">
	<path d="M245.643,288.815v-60.718h-14.399v-12.359c9.36-0.479,15.479-3.96,17.159-10.919h13.92v83.996H245.643z"/>
	<path d="M340.201,271.656v17.159H324v-17.159h-45.958v-15.119l44.518-51.718h17.641v51.237h11.039v15.6H340.201z M316.921,233.498
		l-12,14.039c-2.641,3.12-6.119,6.96-7.92,8.76c2.881,0,11.88-0.24,16.68-0.24H324v-13.68c0-4.8,0.36-15.239,0.36-18.358
		C322.8,226.178,319.681,230.258,316.921,233.498z"/>
	<path d="M369.961,290.136v-16.319c19.438,0,31.798-6.84,36.599-19.68c-5.4,3.6-10.68,5.28-19.199,5.28
		c-16.68,0-29.639-8.52-29.639-27.119c0-18.72,15.6-28.799,35.398-28.799c18.719,0,33.358,10.439,33.358,33.959
		C426.479,259.536,413.519,290.136,369.961,290.136z M392.4,219.099c-11.159,0-17.639,4.8-17.639,12.6
		c0,8.52,6.24,12.479,16.799,12.479c11.4,0,17.52-3.84,17.52-12.599C409.08,223.778,403.32,219.099,392.4,219.099z"/>
</g>
<rect x="-19.884" y="401.235" fill="none" width="587.719" height="61.55"/>
<g enable-background="new    ">
	<path d="M69.664,419.056c0,1.26,0.06,2.489,0.21,3.479h-2.37l-0.21-1.83h-0.09c-0.81,1.14-2.37,2.16-4.44,2.16
		c-2.94,0-4.44-2.07-4.44-4.17c0-3.51,3.12-5.43,8.73-5.399v-0.301c0-1.17-0.33-3.359-3.3-3.329c-1.38,0-2.79,0.39-3.81,1.08
		l-0.6-1.771c1.2-0.75,2.97-1.26,4.8-1.26c4.44,0,5.52,3.03,5.52,5.91V419.056z M67.114,415.125c-2.88-0.06-6.15,0.45-6.15,3.271
		c0,1.739,1.14,2.52,2.46,2.52c1.92,0,3.15-1.2,3.57-2.43c0.09-0.3,0.12-0.6,0.12-0.84V415.125z"/>
	<path d="M73.924,411.945c0-1.529-0.06-2.729-0.12-3.93h2.31l0.12,2.37h0.09c0.81-1.38,2.16-2.67,4.59-2.67
		c1.95,0,3.45,1.2,4.08,2.91h0.06c0.45-0.84,1.05-1.44,1.65-1.891c0.87-0.659,1.8-1.02,3.18-1.02c1.95,0,4.8,1.26,4.8,6.3v8.52
		h-2.58v-8.189c0-2.82-1.05-4.47-3.15-4.47c-1.53,0-2.67,1.109-3.15,2.369c-0.12,0.391-0.21,0.841-0.21,1.32v8.97h-2.58v-8.699
		c0-2.311-1.02-3.96-3.03-3.96c-1.62,0-2.85,1.319-3.27,2.64c-0.15,0.36-0.21,0.84-0.21,1.29v8.729h-2.58V411.945z"/>
	<path d="M112.084,415.155c0,5.37-3.75,7.71-7.23,7.71c-3.9,0-6.959-2.88-6.959-7.47c0-4.83,3.209-7.68,7.2-7.68
		C109.264,407.716,112.084,410.746,112.084,415.155z M100.594,415.306c0,3.18,1.8,5.579,4.38,5.579c2.52,0,4.41-2.369,4.41-5.64
		c0-2.46-1.23-5.55-4.35-5.55C101.944,409.695,100.594,412.575,100.594,415.306z"/>
	<path d="M127.563,418.545c0,1.53,0.03,2.851,0.12,3.99h-2.34l-0.15-2.37h-0.06c-0.66,1.17-2.22,2.7-4.8,2.7
		c-2.28,0-5.01-1.29-5.01-6.359v-8.49h2.64v8.01c0,2.76,0.87,4.649,3.24,4.649c1.77,0,3-1.229,3.48-2.43
		c0.15-0.359,0.24-0.84,0.24-1.35v-8.88h2.64V418.545z"/>
	<path d="M131.944,411.945c0-1.529-0.03-2.729-0.12-3.93h2.34l0.15,2.4h0.06c0.72-1.351,2.4-2.7,4.8-2.7c2.01,0,5.13,1.2,5.13,6.18
		v8.64h-2.64v-8.37c0-2.34-0.87-4.289-3.36-4.289c-1.71,0-3.06,1.229-3.54,2.699c-0.12,0.33-0.18,0.78-0.18,1.23v8.729h-2.64
		V411.945z"/>
	<path d="M151.653,404.536v3.479h3.78v2.01h-3.78v7.83c0,1.8,0.51,2.819,1.98,2.819c0.72,0,1.14-0.06,1.53-0.18l0.12,2.01
		c-0.51,0.181-1.32,0.36-2.34,0.36c-1.23,0-2.22-0.42-2.85-1.11c-0.72-0.81-1.02-2.1-1.02-3.81v-7.92h-2.25v-2.01h2.25v-2.7
		L151.653,404.536z"/>
	<path d="M168.123,416.176l-2.1,6.359h-2.7l6.9-20.219h3.12l6.9,20.219h-2.79l-2.16-6.359H168.123z M174.783,414.136l-2.01-5.82
		c-0.45-1.319-0.75-2.52-1.05-3.689h-0.06c-0.3,1.17-0.6,2.43-1.02,3.66l-1.98,5.85H174.783z"/>
	<path d="M183.034,411.945c0-1.529-0.06-2.729-0.12-3.93h2.31l0.12,2.37h0.09c0.81-1.38,2.16-2.67,4.59-2.67
		c1.95,0,3.45,1.2,4.08,2.91h0.06c0.45-0.84,1.05-1.44,1.65-1.891c0.87-0.659,1.8-1.02,3.18-1.02c1.95,0,4.8,1.26,4.8,6.3v8.52
		h-2.58v-8.189c0-2.82-1.05-4.47-3.15-4.47c-1.53,0-2.67,1.109-3.15,2.369c-0.12,0.391-0.21,0.841-0.21,1.32v8.97h-2.58v-8.699
		c0-2.311-1.02-3.96-3.03-3.96c-1.62,0-2.85,1.319-3.27,2.64c-0.15,0.36-0.21,0.84-0.21,1.29v8.729h-2.58V411.945z"/>
	<path d="M209.523,415.756c0.06,3.569,2.31,5.039,4.98,5.039c1.89,0,3.06-0.33,4.02-0.75l0.48,1.891c-0.93,0.42-2.55,0.93-4.86,0.93
		c-4.47,0-7.14-2.97-7.14-7.35s2.58-7.8,6.81-7.8c4.77,0,6,4.14,6,6.81c0,0.54-0.03,0.93-0.09,1.23H209.523z M217.263,413.865
		c0.03-1.649-0.69-4.26-3.66-4.26c-2.7,0-3.84,2.43-4.05,4.26H217.263z"/>
	<path d="M223.083,412.546c0-1.71-0.03-3.181-0.12-4.53h2.31l0.12,2.88h0.09c0.66-1.95,2.28-3.18,4.05-3.18
		c0.27,0,0.48,0.03,0.72,0.06v2.49c-0.27-0.06-0.54-0.06-0.9-0.06c-1.86,0-3.18,1.38-3.54,3.359c-0.06,0.36-0.09,0.81-0.09,1.23
		v7.739h-2.64V412.546z"/>
	<path d="M235.953,403.936c0,0.9-0.63,1.62-1.68,1.62c-0.96,0-1.59-0.72-1.59-1.62c0-0.899,0.66-1.649,1.65-1.649
		C235.293,402.286,235.953,403.006,235.953,403.936z M233.013,422.535v-14.52h2.64v14.52H233.013z"/>
	<path d="M250.382,422.025c-0.69,0.33-2.22,0.84-4.17,0.84c-4.38,0-7.229-2.97-7.229-7.41c0-4.47,3.06-7.739,7.799-7.739
		c1.56,0,2.94,0.39,3.66,0.78l-0.6,2.01c-0.63-0.33-1.62-0.69-3.06-0.69c-3.33,0-5.129,2.49-5.129,5.49c0,3.359,2.16,5.43,5.04,5.43
		c1.5,0,2.49-0.36,3.24-0.69L250.382,422.025z"/>
	<path d="M263.672,419.056c0,1.26,0.06,2.489,0.21,3.479h-2.37l-0.21-1.83h-0.09c-0.81,1.14-2.37,2.16-4.44,2.16
		c-2.94,0-4.44-2.07-4.44-4.17c0-3.51,3.12-5.43,8.73-5.399v-0.301c0-1.17-0.33-3.359-3.3-3.329c-1.38,0-2.79,0.39-3.81,1.08
		l-0.6-1.771c1.2-0.75,2.97-1.26,4.8-1.26c4.44,0,5.52,3.03,5.52,5.91V419.056z M261.122,415.125c-2.88-0.06-6.149,0.45-6.149,3.271
		c0,1.739,1.14,2.52,2.46,2.52c1.92,0,3.15-1.2,3.57-2.43c0.09-0.3,0.12-0.6,0.12-0.84V415.125z"/>
	<path d="M267.933,411.945c0-1.529-0.03-2.729-0.12-3.93h2.339l0.15,2.4h0.061c0.72-1.351,2.399-2.7,4.799-2.7
		c2.011,0,5.131,1.2,5.131,6.18v8.64h-2.641v-8.37c0-2.34-0.869-4.289-3.359-4.289c-1.71,0-3.061,1.229-3.54,2.699
		c-0.12,0.33-0.181,0.78-0.181,1.23v8.729h-2.639V411.945z"/>
	<path d="M284.222,419.865c0.811,0.48,2.19,1.02,3.51,1.02c1.891,0,2.791-0.93,2.791-2.159c0-1.26-0.75-1.92-2.67-2.641
		c-2.641-0.96-3.871-2.369-3.871-4.109c0-2.34,1.92-4.26,5.01-4.26c1.471,0,2.76,0.39,3.541,0.899l-0.631,1.92
		c-0.57-0.359-1.619-0.869-2.97-0.869c-1.56,0-2.399,0.899-2.399,1.979c0,1.2,0.84,1.74,2.729,2.49c2.489,0.93,3.81,2.189,3.81,4.35
		c0,2.58-2.01,4.38-5.399,4.38c-1.59,0-3.06-0.42-4.079-1.021L284.222,419.865z"/>
	<path d="M313.171,422.025c-0.689,0.33-2.219,0.84-4.17,0.84c-4.379,0-7.229-2.97-7.229-7.41c0-4.47,3.059-7.739,7.799-7.739
		c1.561,0,2.939,0.39,3.66,0.78l-0.6,2.01c-0.631-0.33-1.621-0.69-3.061-0.69c-3.33,0-5.129,2.49-5.129,5.49
		c0,3.359,2.159,5.43,5.039,5.43c1.5,0,2.49-0.36,3.24-0.69L313.171,422.025z"/>
	<path d="M329.222,415.155c0,5.37-3.75,7.71-7.23,7.71c-3.9,0-6.959-2.88-6.959-7.47c0-4.83,3.209-7.68,7.199-7.68
		C326.402,407.716,329.222,410.746,329.222,415.155z M317.732,415.306c0,3.18,1.8,5.579,4.38,5.579c2.521,0,4.409-2.369,4.409-5.64
		c0-2.46-1.229-5.55-4.35-5.55C319.082,409.695,317.732,412.575,317.732,415.306z"/>
	<path d="M332.552,401.236h2.639v21.299h-2.639V401.236z"/>
	<path d="M339.632,401.236h2.639v21.299h-2.639V401.236z"/>
	<path d="M348.181,415.756c0.061,3.569,2.311,5.039,4.98,5.039c1.89,0,3.06-0.33,4.02-0.75l0.48,1.891
		c-0.931,0.42-2.551,0.93-4.86,0.93c-4.47,0-7.14-2.97-7.14-7.35s2.58-7.8,6.81-7.8c4.771,0,5.999,4.14,5.999,6.81
		c0,0.54-0.029,0.93-0.09,1.23H348.181z M355.921,413.865c0.029-1.649-0.69-4.26-3.66-4.26c-2.699,0-3.84,2.43-4.05,4.26H355.921z"
		/>
	<path d="M372.091,422.025c-0.69,0.33-2.221,0.84-4.17,0.84c-4.381,0-7.23-2.97-7.23-7.41c0-4.47,3.061-7.739,7.8-7.739
		c1.56,0,2.94,0.39,3.66,0.78l-0.601,2.01c-0.629-0.33-1.619-0.69-3.06-0.69c-3.329,0-5.13,2.49-5.13,5.49
		c0,3.359,2.16,5.43,5.04,5.43c1.5,0,2.489-0.36,3.239-0.69L372.091,422.025z"/>
	<path d="M378.75,404.536v3.479h3.78v2.01h-3.78v7.83c0,1.8,0.511,2.819,1.979,2.819c0.721,0,1.141-0.06,1.531-0.18l0.119,2.01
		c-0.51,0.181-1.32,0.36-2.34,0.36c-1.23,0-2.22-0.42-2.85-1.11c-0.721-0.81-1.02-2.1-1.02-3.81v-7.92h-2.25v-2.01h2.25v-2.7
		L378.75,404.536z"/>
	<path d="M388.441,403.936c0,0.9-0.631,1.62-1.681,1.62c-0.96,0-1.59-0.72-1.59-1.62c0-0.899,0.66-1.649,1.649-1.649
		C387.781,402.286,388.441,403.006,388.441,403.936z M385.5,422.535v-14.52h2.64v14.52H385.5z"/>
	<path d="M393.541,408.016l2.85,8.13c0.48,1.35,0.87,2.55,1.17,3.75h0.09c0.33-1.2,0.75-2.4,1.23-3.75l2.82-8.13h2.76l-5.7,14.52
		h-2.521l-5.52-14.52H393.541z"/>
	<path d="M408.121,415.756c0.06,3.569,2.31,5.039,4.979,5.039c1.89,0,3.06-0.33,4.021-0.75l0.479,1.891
		c-0.931,0.42-2.55,0.93-4.86,0.93c-4.469,0-7.139-2.97-7.139-7.35s2.579-7.8,6.809-7.8c4.77,0,6,4.14,6,6.81
		c0,0.54-0.029,0.93-0.09,1.23H408.121z M415.86,413.865c0.03-1.649-0.69-4.26-3.659-4.26c-2.701,0-3.84,2.43-4.051,4.26H415.86z"/>
	<path d="M421.68,401.236h2.64v21.299h-2.64V401.236z"/>
	<path d="M429.72,408.016l3.149,8.58c0.36,0.96,0.72,2.1,0.96,2.97h0.061c0.27-0.87,0.569-1.98,0.93-3.03l2.879-8.52h2.791
		l-3.961,10.35c-1.889,4.979-3.18,7.5-4.979,9.09c-1.32,1.109-2.58,1.56-3.24,1.68l-0.66-2.189c0.66-0.21,1.529-0.63,2.31-1.29
		c0.72-0.57,1.591-1.59,2.22-2.94c0.121-0.27,0.211-0.479,0.211-0.63c0-0.149-0.061-0.359-0.211-0.689l-5.34-13.38H429.72z"/>
	<path d="M461.398,418.545c0,1.53,0.031,2.851,0.121,3.99h-2.34l-0.15-2.37h-0.061c-0.66,1.17-2.22,2.7-4.799,2.7
		c-2.281,0-5.01-1.29-5.01-6.359v-8.49h2.639v8.01c0,2.76,0.871,4.649,3.24,4.649c1.77,0,3-1.229,3.48-2.43
		c0.15-0.359,0.24-0.84,0.24-1.35v-8.88h2.639V418.545z"/>
	<path d="M465.419,419.865c0.809,0.48,2.189,1.02,3.51,1.02c1.889,0,2.789-0.93,2.789-2.159c0-1.26-0.75-1.92-2.67-2.641
		c-2.639-0.96-3.869-2.369-3.869-4.109c0-2.34,1.92-4.26,5.01-4.26c1.469,0,2.76,0.39,3.539,0.899l-0.629,1.92
		c-0.57-0.359-1.621-0.869-2.971-0.869c-1.561,0-2.4,0.899-2.4,1.979c0,1.2,0.84,1.74,2.73,2.49c2.49,0.93,3.811,2.189,3.811,4.35
		c0,2.58-2.01,4.38-5.4,4.38c-1.59,0-3.061-0.42-4.08-1.021L465.419,419.865z"/>
	<path d="M479.128,415.756c0.061,3.569,2.311,5.039,4.98,5.039c1.889,0,3.059-0.33,4.02-0.75l0.48,1.891
		c-0.93,0.42-2.551,0.93-4.861,0.93c-4.469,0-7.139-2.97-7.139-7.35s2.58-7.8,6.809-7.8c4.771,0,6,4.14,6,6.81
		c0,0.54-0.029,0.93-0.09,1.23H479.128z M486.869,413.865c0.029-1.649-0.689-4.26-3.66-4.26c-2.699,0-3.84,2.43-4.051,4.26H486.869z
		"/>
</g>
<g enable-background="new    ">
	<path d="M210.122,439.936c0,0.9-0.63,1.62-1.68,1.62c-0.96,0-1.59-0.72-1.59-1.62c0-0.899,0.66-1.649,1.65-1.649
		C209.462,438.286,210.122,439.006,210.122,439.936z M207.182,458.535v-14.52h2.64v14.52H207.182z"/>
	<path d="M214.202,447.945c0-1.529-0.03-2.729-0.12-3.93h2.34l0.15,2.4h0.06c0.72-1.351,2.4-2.7,4.8-2.7c2.01,0,5.13,1.2,5.13,6.18
		v8.64h-2.64v-8.37c0-2.34-0.87-4.289-3.36-4.289c-1.71,0-3.06,1.229-3.54,2.699c-0.12,0.33-0.18,0.78-0.18,1.23v8.729h-2.64
		V447.945z"/>
	<path d="M250.351,451.155c0,5.37-3.75,7.71-7.23,7.71c-3.9,0-6.959-2.88-6.959-7.47c0-4.83,3.209-7.68,7.2-7.68
		C247.531,443.716,250.351,446.746,250.351,451.155z M238.861,451.306c0,3.18,1.8,5.579,4.38,5.579c2.52,0,4.41-2.369,4.41-5.64
		c0-2.46-1.23-5.55-4.35-5.55C240.211,445.695,238.861,448.575,238.861,451.306z"/>
	<path d="M253.681,447.945c0-1.529-0.03-2.729-0.12-3.93h2.34l0.15,2.4h0.06c0.72-1.351,2.4-2.7,4.8-2.7c2.01,0,5.13,1.2,5.13,6.18
		v8.64h-2.64v-8.37c0-2.34-0.87-4.289-3.36-4.289c-1.71,0-3.06,1.229-3.54,2.699c-0.12,0.33-0.18,0.78-0.18,1.23v8.729h-2.64
		V447.945z"/>
	<path d="M271.8,451.756c0.061,3.569,2.311,5.039,4.98,5.039c1.891,0,3.061-0.33,4.02-0.75l0.48,1.891
		c-0.93,0.42-2.551,0.93-4.859,0.93c-4.471,0-7.141-2.97-7.141-7.35s2.58-7.8,6.811-7.8c4.77,0,5.999,4.14,5.999,6.81
		c0,0.54-0.03,0.93-0.09,1.23H271.8z M279.541,449.865c0.03-1.649-0.689-4.26-3.66-4.26c-2.699,0-3.84,2.43-4.049,4.26H279.541z"/>
	<path d="M292.681,444.016l3.149,8.58c0.36,0.96,0.72,2.1,0.96,2.97h0.061c0.27-0.87,0.569-1.98,0.93-3.03l2.879-8.52h2.791
		l-3.961,10.35c-1.889,4.979-3.18,7.5-4.979,9.09c-1.32,1.109-2.58,1.56-3.24,1.68l-0.66-2.189c0.66-0.21,1.529-0.63,2.31-1.29
		c0.72-0.57,1.591-1.59,2.22-2.94c0.121-0.27,0.211-0.479,0.211-0.63c0-0.149-0.061-0.359-0.211-0.689l-5.34-13.38H292.681z"/>
	<path d="M307.02,451.756c0.06,3.569,2.31,5.039,4.979,5.039c1.891,0,3.061-0.33,4.021-0.75l0.479,1.891
		c-0.93,0.42-2.55,0.93-4.859,0.93c-4.47,0-7.14-2.97-7.14-7.35s2.579-7.8,6.81-7.8c4.77,0,6,4.14,6,6.81
		c0,0.54-0.03,0.93-0.09,1.23H307.02z M314.759,449.865c0.031-1.649-0.689-4.26-3.659-4.26c-2.7,0-3.84,2.43-4.05,4.26H314.759z"/>
	<path d="M330.78,455.056c0,1.26,0.06,2.489,0.21,3.479h-2.37l-0.21-1.83h-0.09c-0.811,1.14-2.37,2.16-4.439,2.16
		c-2.94,0-4.44-2.07-4.44-4.17c0-3.51,3.12-5.43,8.729-5.399v-0.301c0-1.17-0.33-3.359-3.299-3.329c-1.381,0-2.791,0.39-3.811,1.08
		l-0.6-1.771c1.199-0.75,2.969-1.26,4.799-1.26c4.44,0,5.521,3.03,5.521,5.91V455.056z M328.23,451.125
		c-2.881-0.06-6.15,0.45-6.15,3.271c0,1.739,1.141,2.52,2.461,2.52c1.92,0,3.149-1.2,3.569-2.43c0.09-0.3,0.12-0.6,0.12-0.84
		V451.125z"/>
	<path d="M335.041,448.546c0-1.71-0.031-3.181-0.121-4.53h2.311l0.12,2.88h0.09c0.66-1.95,2.28-3.18,4.05-3.18
		c0.27,0,0.48,0.03,0.721,0.06v2.49c-0.271-0.06-0.541-0.06-0.9-0.06c-1.86,0-3.18,1.38-3.54,3.359
		c-0.06,0.36-0.091,0.81-0.091,1.23v7.739h-2.639V448.546z"/>
</g>
<rect x="189.037" y="313.761" fill="none" width="284.21" height="50.877"/>
<g enable-background="new    ">
	<path d="M270.72,349.16c-1.15,0.899-3.201,1.6-5.351,1.6c-4.25,0-7-3.3-7-7.9v-12.4h-4.4v-6.501h4.4v-6.75l6.9-3.45v10.2h6.3v6.501
		h-6.3v10.551c0,2.5,0.9,3.149,2.55,3.149c1.25,0,2.2-0.55,3.9-2L270.72,349.16z"/>
	<path d="M293.519,332.009c-1.1-1-2.45-1.7-4-1.7c-2.701,0-4.451,1.15-4.451,5.7v14.201h-6.9v-26.252h6.9v1.75
		c1.201-1.25,2.951-2.3,5.4-2.3c2.25,0,3.951,0.9,4.852,1.851L293.519,332.009z"/>
	<path d="M303.268,321.809c-2.149,0-3.95-1.801-3.95-3.95c0-2.15,1.801-3.95,3.95-3.95c2.15,0,3.95,1.8,3.95,3.95
		C307.218,320.008,305.418,321.809,303.268,321.809z M299.818,350.21v-26.252h6.9v26.252H299.818z"/>
	<path d="M313.917,350.21v-33.002l6.9-3.45v36.452H313.917z"/>
	<path d="M328.017,350.21v-33.002l6.9-3.45v36.452H328.017z"/>
	<path d="M345.568,321.809c-2.15,0-3.95-1.801-3.95-3.95c0-2.15,1.8-3.95,3.95-3.95s3.95,1.8,3.95,3.95
		C349.518,320.008,347.718,321.809,345.568,321.809z M342.118,350.21v-26.252h6.9v26.252H342.118z"/>
	<path d="M366.468,350.76c-6.851,0-11.852-5.601-11.852-13.65c0-8.051,5.001-13.701,11.852-13.701c6.85,0,11.9,5.65,11.9,13.701
		C378.369,345.159,373.318,350.76,366.468,350.76z M366.468,330.059c-3.301,0-4.851,3-4.851,7.051c0,4.05,1.55,7,4.851,7
		c3.3,0,4.9-3.35,4.9-7C371.369,333.109,369.768,330.059,366.468,330.059z"/>
	<path d="M399.568,350.21v-14.201c0-4.7-1.6-6.1-4.45-6.1s-4.501,1.399-4.501,5.95v14.351h-6.9v-26.252h6.9v1.75
		c1.201-1.25,3.4-2.3,6.15-2.3c6.701,0,9.701,4.601,9.701,12.001v14.801H399.568z"/>
</g>
<path fill="#19162B" d="M425.351,530.967c-1.129-0.18-1.4,0.781-2.152,0c0.289-1.246-0.533-1.377-0.357-2.512
	c-0.949,0-2.047,0.139-2.51-0.357c-0.596-3.823-2.113-6.727-2.865-10.395c-1.418-0.014-2.078-0.787-3.227-1.076
	c-0.883,0.792-1.57,1.773-2.867,2.152c-1.01-0.062-0.445-1.704-1.793-1.435c-1.408,3.46-3.922,8.931-2.148,13.261
	c-0.92,1.469-1.881,2.897-1.791,5.376c-1.289-0.295-1.734,0.81-2.51,0c-0.355,1.078-0.266,2.603-1.434,2.866
	c-3.717,0.659-7.867,2.329-11.828,3.229c-1.896,0.43-3.869,0.113-5.375,1.076c-1.74,1.105-2.342,3.659-3.584,5.375
	c-0.863,1.188-2.645,1.37-2.15,3.225c1.656,0.572,1.346,2.494,1.435,3.584c-3.382,4.873-9.672,2.499-15.053,5.019
	c0.103,1.69,1.183,2.401,1.792,3.581c-4.619,6.254-11.278,10.463-18.637,13.979c-1.137-1.492-4.738-0.521-5.375-2.509
	c1.861-1.784,1.502-6.667,4.3-6.451c-0.347-4.671-0.96-9.075-3.94-11.108c-2.35,0.281-2.027,3.228-3.943,3.941
	c-1.428,0.231-1.027-1.363-1.074-2.509c4.105-1.062,1.351-7.396,2.15-9.317c-0.945,0.107-0.926-0.75-1.076-1.434
	c-3.862-0.019-7.164-4.308-9.317-0.361c-0.313,1.151,1.183,0.493,1.075,1.438c-1.24-0.284-1.514,0.396-2.149,0.716
	c-0.272,2.18,0.978,3.653-1.075,3.94c-0.549-1.721,1.521-3.07,0-3.584c-3.291,3.605-3.47,7.438-3.942,13.621
	c3.993,3.862,2.808,13.531-2.509,15.051c-7.508-6.746-3.299-20.628-1.435-28.312c-1.456,1.771-2.954,5.399-4.659,5.732
	c1.205-3.453,3.391-5.928,4.303-9.679c3.068,0.784,4.816-1.53,8.6-2.506c3.188,0.523,6.001-0.031,8.242-0.357
	c-1.62-0.292-2.062-1.763-1.79-3.941c-1.914,0.053-3.343,1.491-5.017,0.715c0-0.715,0-1.435,0-2.151
	c-5.221,0.583-7.926,3.946-12.545,3.229c-0.606-2.904-4.709-3.498-5.733-2.152c0.55-2.313,2.422-3.311,3.583-5.018
	c-3.54,0.045-4.788,2.381-6.452,4.303c-2.449,1.371-5.3,2.346-7.524,3.943c-0.383-1.357-2.125,0.01-2.51-0.72
	c0.319-0.757,1.092-1.059,1.076-2.147c-1.838-0.681-4.196,2.908-6.811,1.434c2.613-1.451,3.682-4.709,6.094-6.451
	c2.023-1.465,4.975-1.181,6.451-3.586c-2.111-0.416-5.478-0.146-6.812-1.433c-1.853,1.909-5.599,1.707-6.093-0.715
	c-3.079,0.943-5.682-3.45-8.602-0.72c-1.484-0.545-2.586-1.475-4.658-1.433c-1.563-1.065-0.094-5.164-2.866-5.019
	c-0.821,0.371,0.17,2.558-0.72,2.865c-53.078,0.992-97.886-8.196-138.335-18.636c1.664,2.624,0.154,5.796,0.715,7.886
	c-1.706-1.356-0.857-2.488-0.715-3.586c-1.444-0.245-0.882,1.511-2.152,1.435c-3.686-0.615-5.714-2.888-8.602-4.301
	c-0.26,3.34-0.564,8.93,1.076,11.471c-0.625-0.028-1.116,0.079-1.435,0.356c-0.384,1.341,0.89,1.021,0.717,2.151
	c-1.48,0.938-2.013,2.786-0.358,3.581c-1.152-0.312-0.743,0.93-1.433,1.076c-2.49,8.145-5.395,15.87-10.036,21.863
	c0.097,2.127-0.391,3.672-0.715,5.375c2.146,5.557-2.61,9.919-4.302,13.976c4.043,2.571,0.285,7.295,0.717,10.755
	c0.188,1.496,2.747,3.762,2.866,6.091c0.116,2.276,0.335,2.984,1.792,4.304c-1.895,3.066-0.045,7.052,2.152,8.241
	c-0.198,1.235-1.648,1.219-1.792,2.51c0.146,4.706,4.711,8.443,5.016,12.542c0.141,1.892-1.716,3.259-0.357,5.019
	c6.271-0.181,6.951,5.233,11.468,6.809c0.213,1.143-0.673,1.11,0,1.791c4.173,0.966,5.658,4.616,5.377,10.036
	c4.393,1.579,10.438,1.508,15.41,2.511c-0.005,0.711-0.979,0.453-0.717,1.433c5.636,2.78,10.938,6.622,16.127,9.676
	c6.686,3.938,14.581,4.896,24.728,6.094c0.182-1.253,0.163-2.707,0.717-3.585c3.5,0.565,6.927,1.197,10.752,1.435
	c2.481,3.134,4.373,6.856,8.242,8.603c2.025,2.162,1.384,4.517,2.15,7.527c1.015,3.978,6.058,4.911,9.317,7.167
	c2.563-1.621,2.239-6.126,6.095-6.452c7.59,0.894,11.299,5.664,12.543,12.903c2.584,1.355,3.245,4.64,5.733,6.09
	c-1.581,9.02,8.58,11.221,14.693,12.546c-1.129-4.771-0.88-9.491-0.357-14.693c6.049-4.108,13.418-6.893,18.278-12.188
	c5.104-4.265,14.084-1.104,19.354-1.075c-0.203-2.013-2.398-0.062-2.868-1.43c2.247-2.083,4.036,1.412,6.093,1.79
	c0.08,0.677-0.402,0.791-0.358,1.434c1.249,0.545,2.225,1.36,3.942,1.435c0.887-0.667,1.346-1.761,2.867-1.791
	c1.184,0.715-0.891,1.529,0,1.791c2.842-0.883,0.639-2.731,2.866-3.585c0.54,1.706,5.362,3.977,5.735,1.433
	c-1.008-1.381-3.979-0.801-4.659-2.505c1.122-0.948,2.54-1.265,1.792-3.942c-1.592-0.16-0.889,1.979-2.868,1.434
	c1.597-4.266,5.332-3.728,10.394-3.942c0.707-0.607,0.135-2.495,1.437-2.509c0.749,0.59,1.731,2.624,0.356,3.224
	c5.922-1.933,14.551-3.519,17.561,2.152c3.176-0.269,6.07-1.576,6.452-3.585c6.134-0.64,5.741,5.25,10.751,5.735
	c3.002,2.443-0.418,9.12,2.509,11.467c0.878-0.999-0.272-2.412,0-2.51c0.536,0.062,1.321-0.128,1.435,0.36
	c0.148,1.701-1.354,1.753-1.435,3.225c1.864,2.075,3.372,4.513,4.659,7.166c1.014,0.3,0.929-0.503,1.793-0.356
	c0.73,1.18,1.113,2.707,1.79,3.941c3.147-0.718,4.491,2.722,5.376,5.376c1.359-0.44,3.708-1.772,4.658-1.434
	c-0.478,2.158-4.063,3.1-3.941,4.661c2.498-1.805,4.791-3.814,5.377-7.527c-1.275-0.559-0.217,1.218-1.074,1.075
	c2.707-9.394-2.471-15.828-5.734-21.506c0.004-0.711,0.978-0.454,0.716-1.433c-5.423-4.855-11.144-14.583-7.884-24.013
	c0.759-2.189,3.182-3.422,3.225-5.732c3.415-1.128,4.303-4.778,7.17-6.451c-0.205-4.744,2.375-6.705,6.449-7.166
	c-0.316-7.102,8.749-5.747,8.961-10.396c-0.281,0.63-3.104,1.065-3.585,0c1.496,1.194,2.501-1.922,1.076-2.509
	c2.317,0.666,4.802-0.375,5.017-2.866c-0.57-0.981-2.188,0.836-2.865-0.36c1.273,0.083,2.146-0.239,2.508-1.072l-0.18-0.538
	l0.537,0.177c-1.521-2.301-2.738-4.902-3.941-7.525c-0.814,0.006-1.729-0.095-2.268,0.184c1.426-1.18-1.646-2.572-0.958-3.408
	c0.359,0,0.427,0.292,0.716,0.357c-0.207-2.658-1.004-4.728-2.865-5.732c0.963,0.246,0.692-0.74,1.074-1.076
	c-2.488-1.593-2.875-8.241-0.356-8.604c-1.626,1.503,1.034,3.294-0.718,5.021c1.606,0.021,0.59,0.512,0.718,2.507
	c1.905,0.125,1.515,2.548,2.866,3.228c0.523-1.272-1.152-2.146-0.359-2.509c3.762,1.322-0.688,6.565,2.15,8.604
	c0.713-4.627,4.031-8.965,2.148-13.979c-2.511-0.716-2.869-3.582-4.3-5.377c0.972,1.416,2.349,2.434,4.659,2.506
	c0.146,0.868-0.654,0.781-0.359,1.795c2.695-2.544,4.818-7.229,3.588-12.546c-0.428-0.878-1.355,0.735-1.795-0.357
	c0.73-0.104,0.705-0.968,1.436-1.075l-0.18-0.969l0.539-0.822c2.529-5.114,9.912-5.375,14.334-8.6
	c0.447-1.076-0.172-1.795,1.434-2.152c0.205,1.16-0.107,1.803-0.717,2.152c1.627-0.885,2.408-2.609,4.66-2.867
	c-0.057-1.858-0.559-3.269-2.51-3.227c0.17,1.145,1.836,0.791,1.791,2.15c-3.102,2.745-3.732-3.335-6.092-2.509
	c0.221-3.162-0.188-7.488,1.434-12.188c1.994,0.344,3.338-1.836,5.018-2.866c0.26-1.242-0.393-3.396,0-3.582
	c0.42,0.535,1.488,0.42,1.434,1.434c-0.85,0.538-1.322,0.546-0.717,1.791c1.807-0.431,0.971-2.888,2.148-3.941
	c-0.1,0.937-0.117,1.794,1.078,1.433c0.678-2.108-0.436-0.999-0.719-2.15C423.394,539.109,428.667,533.646,425.351,530.967z"/>
<rect x="161.35" y="595.724" fill="none" width="201.003" height="41.892"/>
<g enable-background="new    ">
	<path fill="#6BBDC4" d="M214.867,624.221v-20.954h-4.848v-2.854c2.815-0.195,5.121-1.134,5.629-3.558h3.323v27.365H214.867z"/>
</g>
<g enable-background="new    ">
	<path fill="#6BBDC4" d="M243.324,631.453h-4.261l2.971-7.623l-7.545-20.133h4.417l3.362,10.047c0.626,1.798,1.564,4.848,1.798,5.98
		c0.352-1.212,1.212-4.144,1.837-5.902l3.479-10.125h4.261L243.324,631.453z"/>
</g>
<g enable-background="new    ">
	<path fill="#6BBDC4" d="M274.441,615.386h-13.565c0.43,3.948,2.658,5.629,5.16,5.629c1.72,0,3.088-0.625,4.457-1.642l2.385,2.58
		c-1.798,1.721-3.948,2.697-7.076,2.697c-4.808,0-8.874-3.87-8.874-10.672c0-6.959,3.675-10.712,8.992-10.712
		c5.825,0,8.639,4.73,8.639,10.281C274.558,614.291,274.48,614.956,274.441,615.386z M265.645,606.902
		c-2.697,0-4.339,1.877-4.691,5.16h9.539C270.297,609.248,268.968,606.902,265.645,606.902z"/>
</g>
<g enable-background="new    ">
	<path fill="#6BBDC4" d="M291.327,624.221v-2.033c-1.407,1.408-3.401,2.463-5.63,2.463c-3.322,0-7.115-1.876-7.115-6.919
		c0-4.574,3.52-6.646,8.171-6.646c1.915,0,3.44,0.273,4.574,0.781v-1.524c0-2.229-1.368-3.479-3.87-3.479
		c-2.111,0-3.754,0.391-5.355,1.29l-1.564-3.049c1.955-1.212,4.145-1.838,7.037-1.838c4.574,0,7.701,2.229,7.701,6.881v14.073
		H291.327z M291.327,615.464c-1.095-0.547-2.502-0.899-4.691-0.899c-2.58,0-4.222,1.173-4.222,3.05c0,2.032,1.289,3.4,3.948,3.4
		c2.149,0,4.026-1.329,4.965-2.619V615.464z"/>
</g>
<g enable-background="new    ">
	<path fill="#6BBDC4" d="M312.201,607.958c-0.859-0.469-1.759-0.743-3.088-0.743c-2.541,0-4.027,1.799-4.027,5.278v11.728h-4.025
		v-20.523h4.025v1.954c0.939-1.368,2.658-2.385,4.691-2.385c1.643,0,2.658,0.313,3.479,0.86L312.201,607.958z"/>
</g>
</svg>
