<?xml version="1.0" encoding="utf-8"?>
<!-- Generator: Adobe Illustrator 15.1.0, SVG Export Plug-In . SVG Version: 6.00 Build 0)  -->
<!DOCTYPE svg PUBLIC "-//W3C//DTD SVG 1.1//EN" "http://www.w3.org/Graphics/SVG/1.1/DTD/svg11.dtd">
<svg version="1.1" id="Layer_1" xmlns="http://www.w3.org/2000/svg" xmlns:xlink="http://www.w3.org/1999/xlink" x="0px" y="0px"
	 width="536.378px" height="780.521px" viewBox="0 0 536.378 780.521" enable-background="new 0 0 536.378 780.521"
	 xml:space="preserve">
<rect x="163.537" y="201.337" fill="none" width="335.21" height="91.324"/>
<g enable-background="new    ">
	<path d="M263.402,290.136c-12.6,0-23.879-4.92-33.239-16.08l12.719-10.319c6.96,7.319,13.56,9.96,22.079,9.96
		c11.04,0,16.2-3.96,16.2-10.68c0-6.479-4.439-9.6-12.359-9.6h-9.96v-16.439h9c6.96,0,9.839-3,9.839-8.52
		c0-4.32-3.479-8.52-14.039-8.52c-6.48,0-11.759,2.279-16.439,7.079l-12.239-11.159c8.04-8.399,16.439-12.359,28.918-12.359
		c17.16,0,30.838,7.92,30.838,23.759c0,9.12-4.799,14.64-9.719,17.159c5.399,2.04,13.199,7.32,13.199,18.359
		C298.201,280.896,284.281,290.136,263.402,290.136z"/>
	<path d="M372.48,271.656v17.159h-16.2v-17.159h-45.958v-15.119l44.518-51.718h17.641v51.237h11.039v15.6H372.48z M349.201,233.498
		l-12,14.039c-2.641,3.12-6.119,6.96-7.92,8.76c2.881,0,11.88-0.24,16.68-0.24h10.319v-13.68c0-4.8,0.36-15.239,0.36-18.358
		C355.08,226.178,351.96,230.258,349.201,233.498z"/>
	<path d="M405.72,288.815v-60.718h-14.398v-12.359c9.359-0.479,15.479-3.96,17.158-10.919h13.92v83.996H405.72z"/>
</g>
<rect x="-19.884" y="400.235" fill="none" width="587.719" height="62.156"/>
<g enable-background="new    ">
	<path d="M84.034,414.756c0.06,3.569,2.31,5.039,4.98,5.039c1.89,0,3.06-0.33,4.02-0.75l0.48,1.891c-0.93,0.42-2.55,0.93-4.86,0.93
		c-4.47,0-7.14-2.97-7.14-7.35s2.58-7.8,6.81-7.8c4.77,0,6,4.14,6,6.81c0,0.54-0.03,0.93-0.09,1.23H84.034z M91.773,412.865
		c0.03-1.649-0.69-4.26-3.66-4.26c-2.7,0-3.84,2.43-4.05,4.26H91.773z"/>
	<path d="M97.234,418.865c0.81,0.48,2.19,1.02,3.51,1.02c1.89,0,2.79-0.93,2.79-2.159c0-1.26-0.75-1.92-2.67-2.641
		c-2.64-0.96-3.87-2.369-3.87-4.109c0-2.34,1.92-4.26,5.01-4.26c1.47,0,2.76,0.39,3.54,0.899l-0.63,1.92
		c-0.57-0.359-1.62-0.869-2.97-0.869c-1.56,0-2.4,0.899-2.4,1.979c0,1.2,0.84,1.74,2.73,2.49c2.49,0.93,3.81,2.189,3.81,4.35
		c0,2.58-2.01,4.38-5.4,4.38c-1.59,0-3.06-0.42-4.08-1.021L97.234,418.865z"/>
	<path d="M112.653,403.536v3.479h3.78v2.01h-3.78v7.83c0,1.8,0.51,2.819,1.98,2.819c0.72,0,1.14-0.06,1.53-0.18l0.12,2.01
		c-0.51,0.181-1.32,0.36-2.34,0.36c-1.23,0-2.22-0.42-2.85-1.11c-0.72-0.81-1.02-2.1-1.02-3.81v-7.92h-2.25v-2.01h2.25v-2.7
		L112.653,403.536z"/>
	<path d="M122.343,402.936c0,0.9-0.63,1.62-1.68,1.62c-0.96,0-1.59-0.72-1.59-1.62c0-0.899,0.66-1.649,1.65-1.649
		C121.683,401.286,122.343,402.006,122.343,402.936z M119.403,421.535v-14.52h2.64v14.52H119.403z"/>
	<path d="M126.423,410.945c0-1.529-0.06-2.729-0.12-3.93h2.31l0.12,2.37h0.09c0.81-1.38,2.16-2.67,4.59-2.67
		c1.95,0,3.45,1.2,4.08,2.91h0.06c0.45-0.84,1.05-1.44,1.65-1.891c0.87-0.659,1.8-1.02,3.18-1.02c1.95,0,4.8,1.26,4.8,6.3v8.52
		h-2.58v-8.189c0-2.82-1.05-4.47-3.15-4.47c-1.53,0-2.67,1.109-3.15,2.369c-0.12,0.391-0.21,0.841-0.21,1.32v8.97h-2.58v-8.699
		c0-2.311-1.02-3.96-3.03-3.96c-1.62,0-2.85,1.319-3.27,2.64c-0.15,0.36-0.21,0.84-0.21,1.29v8.729h-2.58V410.945z"/>
	<path d="M161.643,418.056c0,1.26,0.06,2.489,0.21,3.479h-2.37l-0.21-1.83h-0.09c-0.81,1.14-2.37,2.16-4.44,2.16
		c-2.94,0-4.44-2.07-4.44-4.17c0-3.51,3.12-5.43,8.73-5.399v-0.301c0-1.17-0.33-3.359-3.3-3.329c-1.38,0-2.79,0.39-3.81,1.08
		l-0.6-1.771c1.2-0.75,2.97-1.26,4.8-1.26c4.44,0,5.52,3.03,5.52,5.91V418.056z M159.093,414.125c-2.88-0.06-6.149,0.45-6.149,3.271
		c0,1.739,1.14,2.52,2.46,2.52c1.92,0,3.15-1.2,3.57-2.43c0.09-0.3,0.12-0.6,0.12-0.84V414.125z"/>
	<path d="M168.963,403.536v3.479h3.78v2.01h-3.78v7.83c0,1.8,0.51,2.819,1.98,2.819c0.72,0,1.14-0.06,1.53-0.18l0.12,2.01
		c-0.51,0.181-1.32,0.36-2.34,0.36c-1.23,0-2.22-0.42-2.85-1.11c-0.72-0.81-1.02-2.1-1.02-3.81v-7.92h-2.25v-2.01h2.25v-2.7
		L168.963,403.536z"/>
	<path d="M177.003,414.756c0.06,3.569,2.31,5.039,4.98,5.039c1.89,0,3.06-0.33,4.02-0.75l0.48,1.891c-0.93,0.42-2.55,0.93-4.86,0.93
		c-4.47,0-7.14-2.97-7.14-7.35s2.58-7.8,6.81-7.8c4.77,0,6,4.14,6,6.81c0,0.54-0.03,0.93-0.09,1.23H177.003z M184.743,412.865
		c0.03-1.649-0.69-4.26-3.66-4.26c-2.7,0-3.84,2.43-4.05,4.26H184.743z"/>
	<path d="M203.072,400.236v17.549c0,1.29,0.06,2.76,0.12,3.75h-2.34l-0.12-2.52h-0.09c-0.78,1.619-2.52,2.85-4.89,2.85
		c-3.51,0-6.24-2.97-6.24-7.38c-0.03-4.83,3-7.77,6.51-7.77c2.25,0,3.72,1.05,4.379,2.189h0.06v-8.669H203.072z M200.462,412.926
		c0-0.33-0.03-0.78-0.12-1.11c-0.39-1.649-1.83-3.029-3.81-3.029c-2.73,0-4.35,2.399-4.35,5.579c0,2.94,1.47,5.37,4.29,5.37
		c1.77,0,3.39-1.2,3.87-3.15c0.09-0.359,0.12-0.72,0.12-1.14V412.926z"/>
	<path d="M217.022,403.536v3.479h3.78v2.01h-3.78v7.83c0,1.8,0.51,2.819,1.98,2.819c0.72,0,1.14-0.06,1.53-0.18l0.12,2.01
		c-0.51,0.181-1.32,0.36-2.34,0.36c-1.23,0-2.22-0.42-2.85-1.11c-0.72-0.81-1.02-2.1-1.02-3.81v-7.92h-2.25v-2.01h2.25v-2.7
		L217.022,403.536z"/>
	<path d="M236.732,414.155c0,5.37-3.75,7.71-7.23,7.71c-3.9,0-6.959-2.88-6.959-7.47c0-4.83,3.209-7.68,7.2-7.68
		C233.912,406.716,236.732,409.746,236.732,414.155z M225.242,414.306c0,3.18,1.8,5.579,4.38,5.579c2.52,0,4.41-2.369,4.41-5.64
		c0-2.46-1.23-5.55-4.35-5.55C226.592,408.695,225.242,411.575,225.242,414.306z"/>
	<path d="M243.242,403.536v3.479h3.78v2.01h-3.78v7.83c0,1.8,0.51,2.819,1.98,2.819c0.72,0,1.14-0.06,1.53-0.18l0.12,2.01
		c-0.51,0.181-1.32,0.36-2.34,0.36c-1.23,0-2.22-0.42-2.85-1.11c-0.72-0.81-1.02-2.1-1.02-3.81v-7.92h-2.25v-2.01h2.25v-2.7
		L243.242,403.536z"/>
	<path d="M260.191,418.056c0,1.26,0.06,2.489,0.21,3.479h-2.37l-0.21-1.83h-0.09c-0.81,1.14-2.37,2.16-4.44,2.16
		c-2.94,0-4.44-2.07-4.44-4.17c0-3.51,3.12-5.43,8.73-5.399v-0.301c0-1.17-0.33-3.359-3.3-3.329c-1.38,0-2.79,0.39-3.81,1.08
		l-0.6-1.771c1.2-0.75,2.97-1.26,4.8-1.26c4.44,0,5.52,3.03,5.52,5.91V418.056z M257.642,414.125c-2.88-0.06-6.15,0.45-6.15,3.271
		c0,1.739,1.14,2.52,2.46,2.52c1.92,0,3.15-1.2,3.57-2.43c0.09-0.3,0.12-0.6,0.12-0.84V414.125z"/>
	<path d="M264.452,400.236h2.64v21.299h-2.64V400.236z"/>
	<path d="M278.941,407.016l1.95,7.38c0.39,1.62,0.78,3.12,1.05,4.62h0.09c0.33-1.471,0.811-3.03,1.29-4.59l2.37-7.41h2.22l2.25,7.26
		c0.54,1.74,0.96,3.27,1.29,4.74h0.09c0.24-1.471,0.63-3,1.109-4.71l2.07-7.29h2.609l-4.68,14.52h-2.399l-2.22-6.93
		c-0.51-1.62-0.93-3.06-1.29-4.77h-0.06c-0.36,1.739-0.811,3.239-1.32,4.8l-2.34,6.899h-2.4l-4.379-14.52H278.941z"/>
	<path d="M310.05,418.056c0,1.26,0.061,2.489,0.211,3.479h-2.371l-0.209-1.83h-0.09c-0.811,1.14-2.371,2.16-4.44,2.16
		c-2.94,0-4.44-2.07-4.44-4.17c0-3.51,3.121-5.43,8.73-5.399v-0.301c0-1.17-0.33-3.359-3.301-3.329c-1.379,0-2.789,0.39-3.809,1.08
		l-0.601-1.771c1.2-0.75,2.97-1.26,4.8-1.26c4.439,0,5.52,3.03,5.52,5.91V418.056z M307.501,414.125
		c-2.881-0.06-6.15,0.45-6.15,3.271c0,1.739,1.14,2.52,2.46,2.52c1.92,0,3.149-1.2,3.569-2.43c0.09-0.3,0.121-0.6,0.121-0.84
		V414.125z"/>
	<path d="M317.371,403.536v3.479h3.779v2.01h-3.779v7.83c0,1.8,0.51,2.819,1.98,2.819c0.72,0,1.14-0.06,1.529-0.18l0.12,2.01
		c-0.51,0.181-1.319,0.36-2.34,0.36c-1.229,0-2.22-0.42-2.85-1.11c-0.72-0.81-1.021-2.1-1.021-3.81v-7.92h-2.25v-2.01h2.25v-2.7
		L317.371,403.536z"/>
	<path d="M325.411,414.756c0.06,3.569,2.31,5.039,4.979,5.039c1.891,0,3.061-0.33,4.021-0.75l0.479,1.891
		c-0.93,0.42-2.55,0.93-4.859,0.93c-4.47,0-7.14-2.97-7.14-7.35s2.579-7.8,6.81-7.8c4.77,0,6,4.14,6,6.81
		c0,0.54-0.03,0.93-0.09,1.23H325.411z M333.15,412.865c0.031-1.649-0.689-4.26-3.659-4.26c-2.7,0-3.84,2.43-4.05,4.26H333.15z"/>
	<path d="M338.97,411.546c0-1.71-0.029-3.181-0.119-4.53h2.31l0.12,2.88h0.09c0.66-1.95,2.279-3.18,4.05-3.18
		c0.271,0,0.479,0.03,0.72,0.06v2.49c-0.27-0.06-0.539-0.06-0.9-0.06c-1.859,0-3.18,1.38-3.539,3.359
		c-0.061,0.36-0.09,0.81-0.09,1.23v7.739h-2.641V411.546z"/>
	<path d="M358.08,402.936c0,0.9-0.629,1.62-1.68,1.62c-0.96,0-1.59-0.72-1.59-1.62c0-0.899,0.66-1.649,1.65-1.649
		C357.419,401.286,358.08,402.006,358.08,402.936z M355.14,421.535v-14.52h2.64v14.52H355.14z"/>
	<path d="M362.16,410.945c0-1.529-0.029-2.729-0.119-3.93h2.34l0.15,2.4h0.059c0.721-1.351,2.4-2.7,4.801-2.7
		c2.01,0,5.129,1.2,5.129,6.18v8.64h-2.639v-8.37c0-2.34-0.871-4.289-3.36-4.289c-1.71,0-3.06,1.229-3.54,2.699
		c-0.12,0.33-0.18,0.78-0.18,1.23v8.729h-2.641V410.945z"/>
	<path d="M395.699,412.056h-7.83v7.29h8.76v2.189H385.23v-20.219h10.949v2.189h-8.311v6.39h7.83V412.056z"/>
	<path d="M410.128,418.056c0,1.26,0.061,2.489,0.211,3.479h-2.371l-0.209-1.83h-0.09c-0.811,1.14-2.371,2.16-4.44,2.16
		c-2.94,0-4.44-2.07-4.44-4.17c0-3.51,3.121-5.43,8.73-5.399v-0.301c0-1.17-0.33-3.359-3.301-3.329c-1.379,0-2.789,0.39-3.809,1.08
		l-0.601-1.771c1.2-0.75,2.97-1.26,4.8-1.26c4.439,0,5.52,3.03,5.52,5.91V418.056z M407.58,414.125
		c-2.881-0.06-6.15,0.45-6.15,3.271c0,1.739,1.14,2.52,2.46,2.52c1.92,0,3.149-1.2,3.569-2.43c0.09-0.3,0.121-0.6,0.121-0.84
		V414.125z"/>
	<path d="M414.389,411.546c0-1.71-0.03-3.181-0.12-4.53h2.311l0.119,2.88h0.09c0.66-1.95,2.28-3.18,4.051-3.18
		c0.27,0,0.479,0.03,0.719,0.06v2.49c-0.27-0.06-0.539-0.06-0.899-0.06c-1.86,0-3.18,1.38-3.54,3.359
		c-0.06,0.36-0.09,0.81-0.09,1.23v7.739h-2.64V411.546z"/>
	<path d="M428.098,403.536v3.479h3.78v2.01h-3.78v7.83c0,1.8,0.511,2.819,1.979,2.819c0.721,0,1.141-0.06,1.531-0.18l0.119,2.01
		c-0.51,0.181-1.32,0.36-2.34,0.36c-1.23,0-2.22-0.42-2.85-1.11c-0.721-0.81-1.02-2.1-1.02-3.81v-7.92h-2.25v-2.01h2.25v-2.7
		L428.098,403.536z"/>
	<path d="M434.848,400.236h2.64v9.089h0.061c0.42-0.749,1.08-1.439,1.89-1.89c0.78-0.45,1.71-0.72,2.7-0.72
		c1.949,0,5.069,1.2,5.069,6.18v8.64h-2.64v-8.34c0-2.34-0.87-4.29-3.359-4.29c-1.711,0-3.031,1.2-3.541,2.61
		c-0.149,0.39-0.18,0.78-0.18,1.26v8.76h-2.64V400.236z"/>
	<path d="M453.808,400.776c-0.689,2.52-1.98,5.76-2.79,7.14l-1.68,0.18c0.63-1.77,1.44-4.859,1.771-7.02L453.808,400.776z"/>
	<path d="M454.199,418.865c0.809,0.48,2.189,1.02,3.51,1.02c1.889,0,2.789-0.93,2.789-2.159c0-1.26-0.75-1.92-2.67-2.641
		c-2.64-0.96-3.869-2.369-3.869-4.109c0-2.34,1.92-4.26,5.01-4.26c1.47,0,2.76,0.39,3.539,0.899l-0.629,1.92
		c-0.57-0.359-1.621-0.869-2.971-0.869c-1.56,0-2.4,0.899-2.4,1.979c0,1.2,0.841,1.74,2.73,2.49c2.49,0.93,3.811,2.189,3.811,4.35
		c0,2.58-2.011,4.38-5.4,4.38c-1.59,0-3.061-0.42-4.08-1.021L454.199,418.865z"/>
</g>
<g enable-background="new    ">
	<path d="M210.691,454.056c0,1.26,0.06,2.489,0.21,3.479h-2.37l-0.21-1.83h-0.09c-0.81,1.14-2.37,2.16-4.44,2.16
		c-2.94,0-4.44-2.07-4.44-4.17c0-3.51,3.12-5.43,8.73-5.399v-0.301c0-1.17-0.33-3.359-3.3-3.329c-1.38,0-2.79,0.39-3.81,1.08
		l-0.6-1.771c1.2-0.75,2.97-1.26,4.8-1.26c4.44,0,5.52,3.03,5.52,5.91V454.056z M208.142,450.125c-2.88-0.06-6.15,0.45-6.15,3.271
		c0,1.739,1.14,2.52,2.46,2.52c1.92,0,3.15-1.2,3.57-2.43c0.09-0.3,0.12-0.6,0.12-0.84V450.125z"/>
	<path d="M218.011,439.536v3.479h3.78v2.01h-3.78v7.83c0,1.8,0.51,2.819,1.98,2.819c0.72,0,1.14-0.06,1.53-0.18l0.12,2.01
		c-0.51,0.181-1.32,0.36-2.34,0.36c-1.23,0-2.22-0.42-2.85-1.11c-0.72-0.81-1.02-2.1-1.02-3.81v-7.92h-2.25v-2.01h2.25v-2.7
		L218.011,439.536z"/>
	<path d="M224.761,446.945c0-1.529-0.06-2.729-0.12-3.93h2.31l0.12,2.37h0.09c0.81-1.38,2.16-2.67,4.59-2.67
		c1.95,0,3.45,1.2,4.08,2.91h0.06c0.45-0.84,1.05-1.44,1.65-1.891c0.87-0.659,1.8-1.02,3.18-1.02c1.95,0,4.8,1.26,4.8,6.3v8.52
		h-2.58v-8.189c0-2.82-1.05-4.47-3.15-4.47c-1.53,0-2.67,1.109-3.15,2.369c-0.12,0.391-0.21,0.841-0.21,1.32v8.97h-2.58v-8.699
		c0-2.311-1.02-3.96-3.03-3.96c-1.62,0-2.85,1.319-3.27,2.64c-0.15,0.36-0.21,0.84-0.21,1.29v8.729h-2.58V446.945z"/>
	<path d="M262.921,450.155c0,5.37-3.75,7.71-7.23,7.71c-3.9,0-6.959-2.88-6.959-7.47c0-4.83,3.209-7.68,7.2-7.68
		C260.101,442.716,262.921,445.746,262.921,450.155z M251.431,450.306c0,3.18,1.8,5.579,4.38,5.579c2.52,0,4.41-2.369,4.41-5.64
		c0-2.46-1.23-5.55-4.35-5.55C252.781,444.695,251.431,447.575,251.431,450.306z"/>
	<path d="M265.892,454.865c0.81,0.48,2.19,1.02,3.51,1.02c1.889,0,2.789-0.93,2.789-2.159c0-1.26-0.75-1.92-2.67-2.641
		c-2.64-0.96-3.87-2.369-3.87-4.109c0-2.34,1.92-4.26,5.01-4.26c1.47,0,2.76,0.39,3.539,0.899l-0.629,1.92
		c-0.57-0.359-1.621-0.869-2.971-0.869c-1.56,0-2.4,0.899-2.4,1.979c0,1.2,0.84,1.74,2.73,2.49c2.49,0.93,3.811,2.189,3.811,4.35
		c0,2.58-2.011,4.38-5.4,4.38c-1.59,0-3.06-0.42-4.08-1.021L265.892,454.865z"/>
	<path d="M278.131,447.756c0-1.86-0.06-3.36-0.12-4.74h2.34l0.15,2.49h0.06c1.05-1.771,2.79-2.79,5.16-2.79
		c3.54,0,6.18,2.97,6.18,7.35c0,5.22-3.21,7.8-6.63,7.8c-1.92,0-3.6-0.84-4.47-2.28h-0.06v7.89h-2.61V447.756z M280.742,451.625
		c0,0.391,0.029,0.75,0.119,1.08c0.48,1.83,2.07,3.09,3.961,3.09c2.789,0,4.409-2.279,4.409-5.609c0-2.88-1.53-5.37-4.319-5.37
		c-1.801,0-3.51,1.26-3.99,3.24c-0.09,0.33-0.18,0.72-0.18,1.05V451.625z"/>
	<path d="M295.201,436.236h2.64v9.089h0.06c0.42-0.749,1.08-1.439,1.891-1.89c0.779-0.45,1.71-0.72,2.699-0.72
		c1.951,0,5.07,1.2,5.07,6.18v8.64h-2.64v-8.34c0-2.34-0.87-4.29-3.36-4.29c-1.709,0-3.029,1.2-3.539,2.61
		c-0.15,0.39-0.181,0.78-0.181,1.26v8.76h-2.64V436.236z"/>
	<path d="M313.32,450.756c0.061,3.569,2.311,5.039,4.98,5.039c1.891,0,3.061-0.33,4.02-0.75l0.48,1.891
		c-0.93,0.42-2.551,0.93-4.859,0.93c-4.471,0-7.141-2.97-7.141-7.35s2.58-7.8,6.811-7.8c4.77,0,5.999,4.14,5.999,6.81
		c0,0.54-0.03,0.93-0.09,1.23H313.32z M321.06,448.865c0.03-1.649-0.689-4.26-3.66-4.26c-2.699,0-3.84,2.43-4.049,4.26H321.06z"/>
	<path d="M326.88,447.546c0-1.71-0.029-3.181-0.12-4.53h2.31l0.121,2.88h0.09c0.66-1.95,2.279-3.18,4.049-3.18
		c0.271,0,0.48,0.03,0.721,0.06v2.49c-0.27-0.06-0.54-0.06-0.9-0.06c-1.859,0-3.18,1.38-3.539,3.359
		c-0.061,0.36-0.091,0.81-0.091,1.23v7.739h-2.64V447.546z"/>
	<path d="M337.86,450.756c0.06,3.569,2.31,5.039,4.979,5.039c1.891,0,3.061-0.33,4.021-0.75l0.479,1.891
		c-0.93,0.42-2.55,0.93-4.859,0.93c-4.47,0-7.14-2.97-7.14-7.35s2.579-7.8,6.81-7.8c4.77,0,6,4.14,6,6.81
		c0,0.54-0.03,0.93-0.09,1.23H337.86z M345.599,448.865c0.031-1.649-0.689-4.26-3.659-4.26c-2.7,0-3.84,2.43-4.05,4.26H345.599z"/>
</g>
<rect x="189.037" y="313.761" fill="none" width="284.21" height="50.877"/>
<g enable-background="new    ">
	<path d="M286.496,350.21v-14.201c0-4.7-1.35-6.1-4.2-6.1s-4.251,1.399-4.251,5.95v14.351h-6.9v-14.201c0-4.7-1.35-6.1-4.2-6.1
		s-4.25,1.399-4.25,5.95v14.351h-6.9v-26.252h6.9v1.75c1.2-1.25,3-2.3,5.75-2.3c3.35,0,5.3,0.95,7.25,3.351
		c1.801-1.851,4-3.351,8.351-3.351c6.7,0,9.351,4.601,9.351,12.001v14.801H286.496z"/>
	<path d="M303.543,321.809c-2.149,0-3.95-1.801-3.95-3.95c0-2.15,1.801-3.95,3.95-3.95c2.15,0,3.95,1.8,3.95,3.95
		C307.494,320.008,305.694,321.809,303.543,321.809z M300.093,350.21v-26.252h6.9v26.252H300.093z"/>
	<path d="M314.193,350.21v-33.002l6.9-3.45v36.452H314.193z"/>
	<path d="M328.292,350.21v-33.002l6.9-3.45v36.452H328.292z"/>
	<path d="M345.843,321.809c-2.15,0-3.95-1.801-3.95-3.95c0-2.15,1.8-3.95,3.95-3.95s3.95,1.8,3.95,3.95
		C349.793,320.008,347.994,321.809,345.843,321.809z M342.393,350.21v-26.252h6.9v26.252H342.393z"/>
	<path d="M366.744,350.76c-6.851,0-11.852-5.601-11.852-13.65c0-8.051,5.001-13.701,11.852-13.701c6.85,0,11.9,5.65,11.9,13.701
		C378.644,345.159,373.593,350.76,366.744,350.76z M366.744,330.059c-3.301,0-4.851,3-4.851,7.051c0,4.05,1.55,7,4.851,7
		c3.3,0,4.9-3.35,4.9-7C371.644,333.109,370.043,330.059,366.744,330.059z"/>
	<path d="M399.843,350.21v-14.201c0-4.7-1.6-6.1-4.449-6.1c-2.851,0-4.501,1.399-4.501,5.95v14.351h-6.9v-26.252h6.9v1.75
		c1.2-1.25,3.4-2.3,6.15-2.3c6.7,0,9.7,4.601,9.7,12.001v14.801H399.843z"/>
</g>
<g>
	<circle fill="#19162B" cx="238.701" cy="566.854" r="42.167"/>
	<polygon fill="#19162B" points="249.707,520.176 226.471,520.176 238.09,491.233 	"/>
	<polygon fill="#19162B" points="263.566,526.699 279.059,542.19 294.141,513.146 	"/>
	<polygon fill="#19162B" points="284.766,578.064 284.766,555.643 314.525,566.854 	"/>
	<polygon fill="#19162B" points="278.854,591.924 263.566,607.416 294.141,620.867 	"/>
	<polygon fill="#19162B" points="249.707,613.121 226.471,613.121 238.09,644.511 	"/>
	<polygon fill="#19162B" points="213.834,606.396 198.75,590.293 182.852,620.867 	"/>
	<polygon fill="#19162B" points="192.686,578.064 192.957,555.643 163.537,566.854 	"/>
	<polygon fill="#19162B" points="213.834,525.883 198.343,542.19 185.706,513.146 	"/>
</g>
<path fill="#19162B" d="M328.199,624.793c0,0-38.959,42.116-34.006,75.219c0,0,3.827,23.872,28.385,23.872
	c0,0,26.123,2.366,28.146-30.229c0,0,0.456-13.683-12.16-33.504C338.562,660.149,328.656,645.513,328.199,624.793z"/>
</svg>
