<?xml version="1.0" encoding="utf-8"?>
<!-- Generator: Adobe Illustrator 15.1.0, SVG Export Plug-In . SVG Version: 6.00 Build 0)  -->
<!DOCTYPE svg PUBLIC "-//W3C//DTD SVG 1.1//EN" "http://www.w3.org/Graphics/SVG/1.1/DTD/svg11.dtd">
<svg version="1.1" id="Layer_1" xmlns="http://www.w3.org/2000/svg" xmlns:xlink="http://www.w3.org/1999/xlink" x="0px" y="0px"
	 width="536.378px" height="780.521px" viewBox="0 0 536.378 780.521" enable-background="new 0 0 536.378 780.521"
	 xml:space="preserve">
<rect x="130.958" y="187.35" fill="none" width="380.723" height="157.991"/>
<g enable-background="new    ">
	<path d="M295.419,304.548v28.6H268.42v-28.6h-76.599v-25.199l74.199-86.199h29.399v85.398h18.4v26H295.419z M256.62,240.949
		l-20,23.399c-4.4,5.2-10.2,11.6-13.2,14.6c4.8,0,19.8-0.4,27.799-0.4h17.2v-22.799c0-8,0.6-25.4,0.6-30.6
		C266.42,228.749,261.22,235.549,256.62,240.949z"/>
	<path d="M390.619,335.348c-38.199,0-58.599-29.6-58.599-72.199s20.6-72.199,58.799-72.199c38.2,0,58.8,29.2,58.8,71.8
		C449.619,305.348,428.818,335.348,390.619,335.348z M390.619,218.35c-21.399,0-30.199,19.399-30.199,44.399
		c0,24.999,9,45.199,30.399,45.199s30.399-19.8,30.399-44.8S412.019,218.35,390.619,218.35z"/>
</g>
<rect x="-19.884" y="400.2" fill="none" width="587.719" height="29.578"/>
<g enable-background="new    ">
	<path d="M88.204,406.98l2.85,8.13c0.48,1.35,0.87,2.55,1.17,3.75h0.09c0.33-1.2,0.75-2.4,1.23-3.75l2.82-8.13h2.76l-5.7,14.52
		h-2.52l-5.52-14.52H88.204z"/>
	<path d="M114.454,414.12c0,5.37-3.75,7.71-7.23,7.71c-3.9,0-6.959-2.88-6.959-7.47c0-4.83,3.209-7.68,7.2-7.68
		C111.633,406.681,114.454,409.711,114.454,414.12z M102.964,414.271c0,3.18,1.8,5.579,4.38,5.579c2.52,0,4.41-2.369,4.41-5.64
		c0-2.46-1.23-5.55-4.35-5.55C104.314,408.66,102.964,411.54,102.964,414.271z"/>
	<path d="M117.784,400.201h2.64V421.5h-2.64V400.201z"/>
	<path d="M137.013,417.51c0,1.53,0.03,2.851,0.12,3.99h-2.34l-0.15-2.37h-0.06c-0.66,1.17-2.22,2.7-4.8,2.7
		c-2.28,0-5.01-1.29-5.01-6.359v-8.49h2.64v8.01c0,2.76,0.87,4.649,3.24,4.649c1.77,0,3-1.229,3.48-2.43
		c0.15-0.359,0.24-0.84,0.24-1.35v-8.88h2.64V417.51z"/>
	<path d="M141.394,410.91c0-1.529-0.06-2.729-0.12-3.93h2.31l0.12,2.37h0.09c0.81-1.38,2.16-2.67,4.59-2.67
		c1.95,0,3.45,1.2,4.08,2.91h0.06c0.45-0.84,1.05-1.44,1.65-1.891c0.87-0.659,1.8-1.02,3.18-1.02c1.95,0,4.8,1.26,4.8,6.3v8.52
		h-2.58v-8.189c0-2.82-1.05-4.47-3.15-4.47c-1.53,0-2.67,1.109-3.15,2.369c-0.12,0.391-0.21,0.841-0.21,1.32v8.97h-2.58v-8.699
		c0-2.311-1.02-3.96-3.03-3.96c-1.62,0-2.85,1.319-3.27,2.64c-0.15,0.36-0.21,0.84-0.21,1.29v8.729h-2.58V410.91z"/>
	<path d="M167.883,414.721c0.06,3.569,2.31,5.039,4.98,5.039c1.89,0,3.06-0.33,4.02-0.75l0.48,1.891c-0.93,0.42-2.55,0.93-4.86,0.93
		c-4.47,0-7.14-2.97-7.14-7.35s2.58-7.8,6.81-7.8c4.77,0,6,4.14,6,6.81c0,0.54-0.03,0.93-0.09,1.23H167.883z M175.623,412.83
		c0.03-1.649-0.69-4.26-3.66-4.26c-2.7,0-3.84,2.43-4.05,4.26H175.623z"/>
	<path d="M200.942,414.12c0,5.37-3.75,7.71-7.23,7.71c-3.9,0-6.959-2.88-6.959-7.47c0-4.83,3.209-7.68,7.2-7.68
		C198.122,406.681,200.942,409.711,200.942,414.12z M189.453,414.271c0,3.18,1.8,5.579,4.38,5.579c2.52,0,4.41-2.369,4.41-5.64
		c0-2.46-1.23-5.55-4.35-5.55C190.803,408.66,189.453,411.54,189.453,414.271z"/>
	<path d="M204.543,421.5v-12.51h-2.01v-2.01h2.01v-0.689c0-2.04,0.48-3.9,1.68-5.07c0.99-0.96,2.31-1.35,3.54-1.35
		c0.96,0,1.74,0.21,2.25,0.42l-0.36,2.04c-0.39-0.181-0.9-0.33-1.68-0.33c-2.25,0-2.82,1.95-2.82,4.199v0.78h3.51v2.01h-3.51v12.51
		H204.543z"/>
	<path d="M229.592,418.021c0,1.26,0.06,2.489,0.21,3.479h-2.37l-0.21-1.83h-0.09c-0.81,1.14-2.37,2.16-4.44,2.16
		c-2.94,0-4.44-2.07-4.44-4.17c0-3.51,3.12-5.43,8.73-5.399v-0.301c0-1.17-0.33-3.359-3.3-3.329c-1.38,0-2.79,0.39-3.81,1.08
		l-0.6-1.771c1.2-0.75,2.97-1.26,4.8-1.26c4.44,0,5.52,3.03,5.52,5.91V418.021z M227.042,414.09c-2.88-0.06-6.15,0.45-6.15,3.271
		c0,1.739,1.14,2.52,2.46,2.52c1.92,0,3.15-1.2,3.57-2.43c0.09-0.3,0.12-0.6,0.12-0.84V414.09z"/>
	<path d="M233.852,410.91c0-1.529-0.03-2.729-0.12-3.93h2.34l0.15,2.4h0.06c0.72-1.351,2.4-2.7,4.8-2.7c2.01,0,5.13,1.2,5.13,6.18
		v8.64h-2.64v-8.37c0-2.34-0.87-4.289-3.36-4.289c-1.71,0-3.06,1.229-3.54,2.699c-0.12,0.33-0.18,0.78-0.18,1.23v8.729h-2.64V410.91
		z"/>
	<path d="M267.061,418.021c0,1.26,0.06,2.489,0.21,3.479h-2.37l-0.21-1.83h-0.09c-0.81,1.14-2.37,2.16-4.44,2.16
		c-2.94,0-4.44-2.07-4.44-4.17c0-3.51,3.12-5.43,8.73-5.399v-0.301c0-1.17-0.33-3.359-3.3-3.329c-1.38,0-2.79,0.39-3.81,1.08
		l-0.6-1.771c1.2-0.75,2.97-1.26,4.8-1.26c4.44,0,5.52,3.03,5.52,5.91V418.021z M264.511,414.09c-2.88-0.06-6.149,0.45-6.149,3.271
		c0,1.739,1.14,2.52,2.46,2.52c1.92,0,3.15-1.2,3.57-2.43c0.09-0.3,0.12-0.6,0.12-0.84V414.09z"/>
	<path d="M272.101,406.98l2.85,8.13c0.48,1.35,0.871,2.55,1.17,3.75h0.091c0.33-1.2,0.75-2.4,1.229-3.75l2.82-8.13h2.76
		l-5.699,14.52h-2.521l-5.52-14.52H272.101z"/>
	<path d="M286.681,414.721c0.061,3.569,2.311,5.039,4.98,5.039c1.89,0,3.06-0.33,4.02-0.75l0.48,1.891
		c-0.931,0.42-2.551,0.93-4.86,0.93c-4.47,0-7.14-2.97-7.14-7.35s2.58-7.8,6.81-7.8c4.771,0,5.999,4.14,5.999,6.81
		c0,0.54-0.029,0.93-0.09,1.23H286.681z M294.421,412.83c0.029-1.649-0.69-4.26-3.66-4.26c-2.699,0-3.84,2.43-4.05,4.26H294.421z"/>
	<path d="M300.242,411.511c0-1.71-0.031-3.181-0.121-4.53h2.311l0.12,2.88h0.09c0.66-1.95,2.28-3.18,4.05-3.18
		c0.27,0,0.48,0.03,0.721,0.06v2.49c-0.271-0.06-0.541-0.06-0.9-0.06c-1.86,0-3.18,1.38-3.54,3.359
		c-0.06,0.36-0.091,0.81-0.091,1.23v7.739h-2.639V411.511z"/>
	<path d="M320.101,418.021c0,1.26,0.061,2.489,0.21,3.479h-2.37l-0.21-1.83h-0.09c-0.81,1.14-2.37,2.16-4.44,2.16
		c-2.939,0-4.439-2.07-4.439-4.17c0-3.51,3.12-5.43,8.73-5.399v-0.301c0-1.17-0.33-3.359-3.301-3.329c-1.38,0-2.789,0.39-3.81,1.08
		l-0.601-1.771c1.201-0.75,2.971-1.26,4.801-1.26c4.439,0,5.52,3.03,5.52,5.91V418.021z M317.55,414.09
		c-2.879-0.06-6.148,0.45-6.148,3.271c0,1.739,1.139,2.52,2.459,2.52c1.92,0,3.15-1.2,3.57-2.43c0.09-0.3,0.119-0.6,0.119-0.84
		V414.09z"/>
	<path d="M336.781,419.37c0,3.359-0.69,5.37-2.07,6.66c-1.439,1.289-3.48,1.739-5.311,1.739c-1.739,0-3.659-0.42-4.829-1.2
		l0.66-2.039c0.96,0.63,2.46,1.17,4.26,1.17c2.7,0,4.68-1.41,4.68-5.101v-1.59h-0.06c-0.78,1.351-2.37,2.431-4.62,2.431
		c-3.601,0-6.18-3.061-6.18-7.08c0-4.92,3.21-7.68,6.569-7.68c2.52,0,3.87,1.29,4.529,2.49h0.061l0.09-2.19h2.34
		c-0.09,1.021-0.119,2.22-0.119,3.96V419.37z M334.14,412.71c0-0.449-0.029-0.84-0.15-1.17c-0.479-1.56-1.739-2.819-3.689-2.819
		c-2.52,0-4.319,2.13-4.319,5.489c0,2.851,1.47,5.22,4.29,5.22c1.649,0,3.119-1.02,3.66-2.699c0.149-0.45,0.209-0.96,0.209-1.41
		V412.71z"/>
	<path d="M342.601,414.721c0.06,3.569,2.31,5.039,4.979,5.039c1.89,0,3.06-0.33,4.021-0.75l0.479,1.891
		c-0.931,0.42-2.55,0.93-4.86,0.93c-4.469,0-7.139-2.97-7.139-7.35s2.579-7.8,6.809-7.8c4.77,0,6,4.14,6,6.81
		c0,0.54-0.029,0.93-0.09,1.23H342.601z M350.34,412.83c0.03-1.649-0.69-4.26-3.659-4.26c-2.701,0-3.84,2.43-4.051,4.26H350.34z"/>
	<path d="M362.52,400.201h2.61v9.119h0.06c0.93-1.62,2.61-2.64,4.95-2.64c3.629,0,6.149,3,6.149,7.38c0,5.189-3.3,7.77-6.54,7.77
		c-2.1,0-3.779-0.811-4.89-2.7h-0.06l-0.15,2.37h-2.25c0.061-0.99,0.12-2.46,0.12-3.75V400.201z M365.13,415.681
		c0,0.329,0.029,0.659,0.119,0.96c0.48,1.829,2.041,3.09,3.961,3.09c2.789,0,4.409-2.25,4.409-5.58c0-2.91-1.5-5.399-4.351-5.399
		c-1.77,0-3.449,1.26-3.989,3.239c-0.09,0.33-0.149,0.69-0.149,1.11V415.681z"/>
	<path d="M389.79,418.021c0,1.26,0.06,2.489,0.21,3.479h-2.37l-0.21-1.83h-0.09c-0.811,1.14-2.37,2.16-4.439,2.16
		c-2.94,0-4.44-2.07-4.44-4.17c0-3.51,3.12-5.43,8.729-5.399v-0.301c0-1.17-0.33-3.359-3.299-3.329c-1.381,0-2.791,0.39-3.811,1.08
		l-0.6-1.771c1.199-0.75,2.969-1.26,4.799-1.26c4.44,0,5.521,3.03,5.521,5.91V418.021z M387.24,414.09
		c-2.881-0.06-6.15,0.45-6.15,3.271c0,1.739,1.141,2.52,2.461,2.52c1.92,0,3.149-1.2,3.569-2.43c0.09-0.3,0.12-0.6,0.12-0.84V414.09
		z"/>
	<path d="M397.109,403.501v3.479h3.78v2.01h-3.78v7.83c0,1.8,0.511,2.819,1.98,2.819c0.721,0,1.141-0.06,1.529-0.18l0.121,2.01
		c-0.51,0.181-1.32,0.36-2.34,0.36c-1.23,0-2.221-0.42-2.85-1.11c-0.721-0.81-1.021-2.1-1.021-3.81v-7.92h-2.25v-2.01h2.25v-2.7
		L397.109,403.501z"/>
	<path d="M403.859,400.201h2.641v9.089h0.06c0.42-0.749,1.08-1.439,1.89-1.89c0.78-0.45,1.711-0.72,2.7-0.72
		c1.95,0,5.069,1.2,5.069,6.18v8.64h-2.639v-8.34c0-2.34-0.871-4.29-3.36-4.29c-1.71,0-3.03,1.2-3.54,2.61
		c-0.15,0.39-0.18,0.78-0.18,1.26v8.76h-2.641V400.201z"/>
	<path d="M423.569,403.501v3.479h3.78v2.01h-3.78v7.83c0,1.8,0.511,2.819,1.979,2.819c0.721,0,1.141-0.06,1.531-0.18l0.119,2.01
		c-0.51,0.181-1.32,0.36-2.34,0.36c-1.23,0-2.22-0.42-2.85-1.11c-0.721-0.81-1.02-2.1-1.02-3.81v-7.92h-2.25v-2.01h2.25v-2.7
		L423.569,403.501z"/>
	<path d="M442.468,417.51c0,1.53,0.031,2.851,0.121,3.99h-2.34l-0.15-2.37h-0.061c-0.66,1.17-2.22,2.7-4.799,2.7
		c-2.281,0-5.01-1.29-5.01-6.359v-8.49h2.639v8.01c0,2.76,0.871,4.649,3.24,4.649c1.77,0,3-1.229,3.48-2.43
		c0.149-0.359,0.24-0.84,0.24-1.35v-8.88h2.639V417.51z"/>
	<path d="M446.849,400.201h2.609v9.119h0.061c0.93-1.62,2.609-2.64,4.949-2.64c3.631,0,6.15,3,6.15,7.38c0,5.189-3.3,7.77-6.54,7.77
		c-2.1,0-3.78-0.811-4.89-2.7h-0.061l-0.149,2.37h-2.25c0.06-0.99,0.12-2.46,0.12-3.75V400.201z M449.458,415.681
		c0,0.329,0.03,0.659,0.121,0.96c0.479,1.829,2.039,3.09,3.959,3.09c2.79,0,4.41-2.25,4.41-5.58c0-2.91-1.5-5.399-4.35-5.399
		c-1.77,0-3.45,1.26-3.99,3.239c-0.09,0.33-0.15,0.69-0.15,1.11V415.681z"/>
</g>
<path fill="#19162B" d="M163.297,625.917C164.402,628.681,164.402,628.681,163.297,625.917c-2.412-6.026-7.233-55.433-13.258-77.125
	c-6.027-21.693-22.898-20.487-22.898-20.487h277.251c0,0-16.872-1.203-22.896,20.488c-6.024,21.692-10.861,65.899-13.271,71.927
	c-2.41,6.026,0.014,5.197,0.014,5.197 M371.931,528.292V492.14c0,0-10.395-27.115-26.663,0v5.424h3.163l1.809-4.973
	c0,0,9.941-16.269,15.816-0.451l0.904,36.152H371.931z M345.268,626.185c6.778,0,13.332,27.116,13.332,27.116h13.331v-5.875
	c-0.451-9.491-7.684-4.066-7.684-4.066c-1.354-10.396-10.846-17.175-10.846-17.175S338.488,626.185,345.268,626.185z
	 M178.098,626.185c0,0-9.491,6.779-10.846,17.175c0,0-7.231-5.425-7.683,4.066v5.875H172.9c0,0,6.553-27.116,13.332-27.116
	C193.011,626.185,178.098,626.185,178.098,626.185z"/>
</svg>
