<?xml version="1.0" encoding="utf-8"?>
<!-- Generator: Adobe Illustrator 15.1.0, SVG Export Plug-In . SVG Version: 6.00 Build 0)  -->
<!DOCTYPE svg PUBLIC "-//W3C//DTD SVG 1.1//EN" "http://www.w3.org/Graphics/SVG/1.1/DTD/svg11.dtd">
<svg version="1.1" id="Layer_1" xmlns="http://www.w3.org/2000/svg" xmlns:xlink="http://www.w3.org/1999/xlink" x="0px" y="0px"
	 width="536.378px" height="780.521px" viewBox="0 0 536.378 780.521" enable-background="new 0 0 536.378 780.521"
	 xml:space="preserve">
<rect x="163.537" y="201.337" fill="none" width="335.21" height="91.324"/>
<g enable-background="new    ">
	<path d="M276.96,290.136c-21.718,0-35.158-9.96-35.158-26.52c0-11.64,6.959-17.639,13.319-20.398c-6-3.24-9.72-8.521-9.72-14.76
		c0-16.56,13.919-24.959,31.558-24.959c16.561,0,31.559,7.8,31.559,24.239c0,5.999-3.239,11.879-9.719,15.479
		c6.479,2.999,13.319,8.879,13.319,19.559C312.12,279.696,298.68,290.136,276.96,290.136z M276.96,251.377
		c-12.599,0-18.359,4.68-18.359,11.88c0,7.68,7.68,12.119,18.359,12.119c11.52,0,18.359-4.32,18.359-12
		S289.681,251.377,276.96,251.377z M276.96,218.019c-10.439,0-14.759,4.56-14.759,9.959c0,5.4,5.04,9.6,14.759,9.6
		c10.32,0,14.76-3.959,14.76-9.479C291.72,222.698,288,218.019,276.96,218.019z"/>
	<path d="M335.402,290.136c-6.12,0-11.279-5.16-11.279-11.28c0-6.119,5.159-11.279,11.279-11.279c6.119,0,11.279,5.16,11.279,11.279
		C346.681,284.976,341.521,290.136,335.402,290.136z"/>
	<path d="M384.601,288.815h-17.16c0-27.239,9.119-50.158,24.719-68.037h-42.718v-15.959h62.997v16.199
		C395.4,237.697,384.601,259.776,384.601,288.815z"/>
</g>
<rect x="-19.884" y="401.235" fill="none" width="587.719" height="61.55"/>
<g enable-background="new    ">
	<path d="M132.813,419.056c0,1.26,0.06,2.489,0.21,3.479h-2.37l-0.21-1.83h-0.09c-0.81,1.14-2.37,2.16-4.44,2.16
		c-2.94,0-4.44-2.07-4.44-4.17c0-3.51,3.12-5.43,8.73-5.399v-0.301c0-1.17-0.33-3.359-3.3-3.329c-1.38,0-2.79,0.39-3.81,1.08
		l-0.6-1.771c1.2-0.75,2.97-1.26,4.8-1.26c4.44,0,5.52,3.03,5.52,5.91V419.056z M130.264,415.125c-2.88-0.06-6.15,0.45-6.15,3.271
		c0,1.739,1.14,2.52,2.46,2.52c1.92,0,3.15-1.2,3.57-2.43c0.09-0.3,0.12-0.6,0.12-0.84V415.125z"/>
	<path d="M137.074,411.945c0-1.529-0.06-2.729-0.12-3.93h2.31l0.12,2.37h0.09c0.81-1.38,2.16-2.67,4.59-2.67
		c1.95,0,3.45,1.2,4.08,2.91h0.06c0.45-0.84,1.05-1.44,1.65-1.891c0.87-0.659,1.8-1.02,3.18-1.02c1.95,0,4.8,1.26,4.8,6.3v8.52
		h-2.58v-8.189c0-2.82-1.05-4.47-3.15-4.47c-1.53,0-2.67,1.109-3.15,2.369c-0.12,0.391-0.21,0.841-0.21,1.32v8.97h-2.58v-8.699
		c0-2.311-1.02-3.96-3.03-3.96c-1.62,0-2.85,1.319-3.27,2.64c-0.15,0.36-0.21,0.84-0.21,1.29v8.729h-2.58V411.945z"/>
	<path d="M175.233,415.155c0,5.37-3.75,7.71-7.23,7.71c-3.9,0-6.959-2.88-6.959-7.47c0-4.83,3.209-7.68,7.2-7.68
		C172.413,407.716,175.233,410.746,175.233,415.155z M163.744,415.306c0,3.18,1.8,5.579,4.38,5.579c2.52,0,4.41-2.369,4.41-5.64
		c0-2.46-1.23-5.55-4.35-5.55C165.094,409.695,163.744,412.575,163.744,415.306z"/>
	<path d="M190.713,418.545c0,1.53,0.03,2.851,0.12,3.99h-2.34l-0.15-2.37h-0.06c-0.66,1.17-2.22,2.7-4.8,2.7
		c-2.28,0-5.01-1.29-5.01-6.359v-8.49h2.64v8.01c0,2.76,0.87,4.649,3.24,4.649c1.77,0,3-1.229,3.48-2.43
		c0.15-0.359,0.24-0.84,0.24-1.35v-8.88h2.64V418.545z"/>
	<path d="M195.093,411.945c0-1.529-0.03-2.729-0.12-3.93h2.34l0.15,2.4h0.06c0.72-1.351,2.4-2.7,4.8-2.7c2.01,0,5.13,1.2,5.13,6.18
		v8.64h-2.64v-8.37c0-2.34-0.87-4.289-3.36-4.289c-1.71,0-3.06,1.229-3.54,2.699c-0.12,0.33-0.18,0.78-0.18,1.23v8.729h-2.64
		V411.945z"/>
	<path d="M214.803,404.536v3.479h3.78v2.01h-3.78v7.83c0,1.8,0.51,2.819,1.98,2.819c0.72,0,1.14-0.06,1.53-0.18l0.12,2.01
		c-0.51,0.181-1.32,0.36-2.34,0.36c-1.23,0-2.22-0.42-2.85-1.11c-0.72-0.81-1.02-2.1-1.02-3.81v-7.92h-2.25v-2.01h2.25v-2.7
		L214.803,404.536z"/>
	<path d="M241.052,415.155c0,5.37-3.75,7.71-7.23,7.71c-3.9,0-6.959-2.88-6.959-7.47c0-4.83,3.209-7.68,7.2-7.68
		C238.232,407.716,241.052,410.746,241.052,415.155z M229.562,415.306c0,3.18,1.8,5.579,4.38,5.579c2.52,0,4.41-2.369,4.41-5.64
		c0-2.46-1.23-5.55-4.35-5.55C230.913,409.695,229.562,412.575,229.562,415.306z"/>
	<path d="M244.652,422.535v-12.51h-2.01v-2.01h2.01v-0.689c0-2.04,0.48-3.9,1.68-5.07c0.99-0.96,2.31-1.35,3.54-1.35
		c0.96,0,1.74,0.21,2.25,0.42l-0.36,2.04c-0.39-0.181-0.9-0.33-1.68-0.33c-2.25,0-2.82,1.95-2.82,4.199v0.78h3.51v2.01h-3.51v12.51
		H244.652z"/>
	<path d="M259.502,401.236h2.61v9.119h0.06c0.93-1.62,2.61-2.64,4.95-2.64c3.63,0,6.149,3,6.149,7.38c0,5.189-3.299,7.77-6.54,7.77
		c-2.1,0-3.78-0.811-4.89-2.7h-0.06l-0.15,2.37h-2.25c0.06-0.99,0.12-2.46,0.12-3.75V401.236z M262.112,416.716
		c0,0.329,0.03,0.659,0.12,0.96c0.48,1.829,2.04,3.09,3.959,3.09c2.791,0,4.41-2.25,4.41-5.58c0-2.91-1.5-5.399-4.35-5.399
		c-1.77,0-3.45,1.26-3.99,3.239c-0.09,0.33-0.15,0.69-0.15,1.11V416.716z"/>
	<path d="M289.711,415.155c0,5.37-3.75,7.71-7.229,7.71c-3.9,0-6.96-2.88-6.96-7.47c0-4.83,3.21-7.68,7.2-7.68
		C286.891,407.716,289.711,410.746,289.711,415.155z M278.222,415.306c0,3.18,1.799,5.579,4.379,5.579c2.521,0,4.41-2.369,4.41-5.64
		c0-2.46-1.23-5.55-4.35-5.55C279.572,409.695,278.222,412.575,278.222,415.306z"/>
	<path d="M296.221,404.536v3.479h3.78v2.01h-3.78v7.83c0,1.8,0.511,2.819,1.979,2.819c0.721,0,1.141-0.06,1.531-0.18l0.119,2.01
		c-0.51,0.181-1.32,0.36-2.34,0.36c-1.23,0-2.22-0.42-2.85-1.11c-0.721-0.81-1.02-2.1-1.02-3.81v-7.92h-2.25v-2.01h2.25v-2.7
		L296.221,404.536z"/>
	<path d="M306.151,404.536v3.479h3.78v2.01h-3.78v7.83c0,1.8,0.511,2.819,1.979,2.819c0.721,0,1.141-0.06,1.531-0.18l0.119,2.01
		c-0.51,0.181-1.32,0.36-2.34,0.36c-1.23,0-2.22-0.42-2.85-1.11c-0.721-0.81-1.02-2.1-1.02-3.81v-7.92h-2.25v-2.01h2.25v-2.7
		L306.151,404.536z"/>
	<path d="M312.901,401.236h2.64v21.299h-2.64V401.236z"/>
	<path d="M321.451,415.756c0.061,3.569,2.311,5.039,4.98,5.039c1.89,0,3.06-0.33,4.02-0.75l0.48,1.891
		c-0.931,0.42-2.551,0.93-4.86,0.93c-4.47,0-7.14-2.97-7.14-7.35s2.58-7.8,6.81-7.8c4.771,0,5.999,4.14,5.999,6.81
		c0,0.54-0.029,0.93-0.09,1.23H321.451z M329.191,413.865c0.029-1.649-0.69-4.26-3.66-4.26c-2.699,0-3.84,2.43-4.05,4.26H329.191z"
		/>
	<path d="M347.52,401.236v17.549c0,1.29,0.06,2.76,0.12,3.75h-2.34l-0.12-2.52h-0.09c-0.78,1.619-2.521,2.85-4.89,2.85
		c-3.51,0-6.24-2.97-6.24-7.38c-0.029-4.83,3-7.77,6.51-7.77c2.25,0,3.721,1.05,4.38,2.189h0.06v-8.669H347.52z M344.91,413.926
		c0-0.33-0.029-0.78-0.119-1.11c-0.391-1.649-1.83-3.029-3.811-3.029c-2.729,0-4.35,2.399-4.35,5.579c0,2.94,1.471,5.37,4.29,5.37
		c1.771,0,3.39-1.2,3.87-3.15c0.09-0.359,0.119-0.72,0.119-1.14V413.926z"/>
	<path d="M359.339,408.016l1.951,7.38c0.389,1.62,0.779,3.12,1.049,4.62h0.09c0.33-1.471,0.811-3.03,1.291-4.59l2.369-7.41h2.221
		l2.25,7.26c0.539,1.74,0.959,3.27,1.289,4.74h0.09c0.24-1.471,0.631-3,1.11-4.71l2.069-7.29h2.61l-4.68,14.52h-2.399l-2.221-6.93
		c-0.51-1.62-0.93-3.06-1.289-4.77h-0.061c-0.359,1.739-0.811,3.239-1.32,4.8l-2.34,6.899h-2.399l-4.38-14.52H359.339z"/>
	<path d="M390.45,419.056c0,1.26,0.06,2.489,0.21,3.479h-2.37l-0.21-1.83h-0.09c-0.811,1.14-2.37,2.16-4.439,2.16
		c-2.94,0-4.44-2.07-4.44-4.17c0-3.51,3.12-5.43,8.729-5.399v-0.301c0-1.17-0.33-3.359-3.299-3.329c-1.381,0-2.791,0.39-3.811,1.08
		l-0.6-1.771c1.199-0.75,2.969-1.26,4.799-1.26c4.44,0,5.521,3.03,5.521,5.91V419.056z M387.9,415.125
		c-2.881-0.06-6.15,0.45-6.15,3.271c0,1.739,1.141,2.52,2.461,2.52c1.92,0,3.149-1.2,3.569-2.43c0.09-0.3,0.12-0.6,0.12-0.84
		V415.125z"/>
	<path d="M397.769,404.536v3.479h3.78v2.01h-3.78v7.83c0,1.8,0.511,2.819,1.98,2.819c0.721,0,1.141-0.06,1.529-0.18l0.121,2.01
		c-0.51,0.181-1.32,0.36-2.34,0.36c-1.23,0-2.221-0.42-2.85-1.11c-0.721-0.81-1.021-2.1-1.021-3.81v-7.92h-2.25v-2.01h2.25v-2.7
		L397.769,404.536z"/>
	<path d="M405.81,415.756c0.06,3.569,2.31,5.039,4.979,5.039c1.89,0,3.06-0.33,4.021-0.75l0.479,1.891
		c-0.931,0.42-2.55,0.93-4.86,0.93c-4.469,0-7.139-2.97-7.139-7.35s2.579-7.8,6.809-7.8c4.77,0,6,4.14,6,6.81
		c0,0.54-0.029,0.93-0.09,1.23H405.81z M413.549,413.865c0.03-1.649-0.69-4.26-3.659-4.26c-2.701,0-3.84,2.43-4.051,4.26H413.549z"
		/>
	<path d="M419.37,412.546c0-1.71-0.03-3.181-0.12-4.53h2.311l0.119,2.88h0.09c0.66-1.95,2.28-3.18,4.051-3.18
		c0.27,0,0.479,0.03,0.719,0.06v2.49c-0.27-0.06-0.539-0.06-0.899-0.06c-1.86,0-3.18,1.38-3.54,3.359
		c-0.06,0.36-0.09,0.81-0.09,1.23v7.739h-2.64V412.546z"/>
</g>
<g enable-background="new    ">
	<path d="M137.778,452.176l-2.1,6.359h-2.7l6.9-20.219h3.12l6.9,20.219h-2.79l-2.16-6.359H137.778z M144.438,450.136l-2.01-5.82
		c-0.45-1.319-0.75-2.52-1.05-3.689h-0.06c-0.3,1.17-0.6,2.43-1.02,3.66l-1.98,5.85H144.438z"/>
	<path d="M152.688,447.945c0-1.529-0.06-2.729-0.12-3.93h2.31l0.12,2.37h0.09c0.81-1.38,2.16-2.67,4.59-2.67
		c1.95,0,3.45,1.2,4.08,2.91h0.06c0.45-0.84,1.05-1.44,1.65-1.891c0.87-0.659,1.8-1.02,3.18-1.02c1.95,0,4.8,1.26,4.8,6.3v8.52
		h-2.58v-8.189c0-2.82-1.05-4.47-3.15-4.47c-1.53,0-2.67,1.109-3.15,2.369c-0.12,0.391-0.21,0.841-0.21,1.32v8.97h-2.58v-8.699
		c0-2.311-1.02-3.96-3.03-3.96c-1.62,0-2.85,1.319-3.27,2.64c-0.15,0.36-0.21,0.84-0.21,1.29v8.729h-2.58V447.945z"/>
	<path d="M179.178,451.756c0.06,3.569,2.31,5.039,4.98,5.039c1.89,0,3.06-0.33,4.02-0.75l0.48,1.891c-0.93,0.42-2.55,0.93-4.86,0.93
		c-4.47,0-7.14-2.97-7.14-7.35s2.58-7.8,6.81-7.8c4.77,0,6,4.14,6,6.81c0,0.54-0.03,0.93-0.09,1.23H179.178z M186.917,449.865
		c0.03-1.649-0.69-4.26-3.66-4.26c-2.7,0-3.84,2.43-4.05,4.26H186.917z"/>
	<path d="M192.738,448.546c0-1.71-0.03-3.181-0.12-4.53h2.31l0.12,2.88h0.09c0.66-1.95,2.28-3.18,4.05-3.18
		c0.27,0,0.48,0.03,0.72,0.06v2.49c-0.27-0.06-0.54-0.06-0.9-0.06c-1.86,0-3.18,1.38-3.54,3.359c-0.06,0.36-0.09,0.81-0.09,1.23
		v7.739h-2.64V448.546z"/>
	<path d="M205.608,439.936c0,0.9-0.63,1.62-1.68,1.62c-0.96,0-1.59-0.72-1.59-1.62c0-0.899,0.66-1.649,1.65-1.649
		C204.948,438.286,205.608,439.006,205.608,439.936z M202.668,458.535v-14.52h2.64v14.52H202.668z"/>
	<path d="M220.037,458.025c-0.69,0.33-2.22,0.84-4.17,0.84c-4.38,0-7.229-2.97-7.229-7.41c0-4.47,3.06-7.739,7.799-7.739
		c1.56,0,2.94,0.39,3.66,0.78l-0.6,2.01c-0.63-0.33-1.62-0.69-3.06-0.69c-3.33,0-5.129,2.49-5.129,5.49c0,3.359,2.16,5.43,5.04,5.43
		c1.5,0,2.49-0.36,3.24-0.69L220.037,458.025z"/>
	<path d="M233.327,455.056c0,1.26,0.06,2.489,0.21,3.479h-2.37l-0.21-1.83h-0.09c-0.81,1.14-2.37,2.16-4.44,2.16
		c-2.94,0-4.44-2.07-4.44-4.17c0-3.51,3.12-5.43,8.73-5.399v-0.301c0-1.17-0.33-3.359-3.3-3.329c-1.38,0-2.79,0.39-3.81,1.08
		l-0.6-1.771c1.2-0.75,2.97-1.26,4.8-1.26c4.44,0,5.52,3.03,5.52,5.91V455.056z M230.777,451.125c-2.88-0.06-6.149,0.45-6.149,3.271
		c0,1.739,1.14,2.52,2.46,2.52c1.92,0,3.15-1.2,3.57-2.43c0.09-0.3,0.12-0.6,0.12-0.84V451.125z"/>
	<path d="M237.587,447.945c0-1.529-0.03-2.729-0.12-3.93h2.34l0.15,2.4h0.06c0.72-1.351,2.4-2.7,4.8-2.7c2.01,0,5.13,1.2,5.13,6.18
		v8.64h-2.64v-8.37c0-2.34-0.87-4.289-3.36-4.289c-1.71,0-3.06,1.229-3.54,2.699c-0.12,0.33-0.18,0.78-0.18,1.23v8.729h-2.64
		V447.945z"/>
	<path d="M253.877,455.865c0.81,0.48,2.19,1.02,3.51,1.02c1.89,0,2.79-0.93,2.79-2.159c0-1.26-0.75-1.92-2.67-2.641
		c-2.64-0.96-3.87-2.369-3.87-4.109c0-2.34,1.92-4.26,5.01-4.26c1.47,0,2.76,0.39,3.54,0.899l-0.63,1.92
		c-0.57-0.359-1.62-0.869-2.97-0.869c-1.56,0-2.4,0.899-2.4,1.979c0,1.2,0.84,1.74,2.73,2.49c2.49,0.93,3.81,2.189,3.81,4.35
		c0,2.58-2.01,4.38-5.4,4.38c-1.59,0-3.06-0.42-4.08-1.021L253.877,455.865z"/>
	<path d="M284.986,437.236v17.549c0,1.29,0.061,2.76,0.12,3.75h-2.34l-0.12-2.52h-0.09c-0.779,1.619-2.52,2.85-4.89,2.85
		c-3.511,0-6.239-2.97-6.239-7.38c-0.031-4.83,2.999-7.77,6.51-7.77c2.249,0,3.719,1.05,4.379,2.189h0.061v-8.669H284.986z
		 M282.376,449.926c0-0.33-0.03-0.78-0.12-1.11c-0.39-1.649-1.83-3.029-3.81-3.029c-2.73,0-4.35,2.399-4.35,5.579
		c0,2.94,1.469,5.37,4.289,5.37c1.77,0,3.391-1.2,3.87-3.15c0.09-0.359,0.12-0.72,0.12-1.14V449.926z"/>
	<path d="M289.396,448.546c0-1.71-0.029-3.181-0.119-4.53h2.31l0.12,2.88h0.09c0.66-1.95,2.279-3.18,4.05-3.18
		c0.271,0,0.479,0.03,0.72,0.06v2.49c-0.27-0.06-0.539-0.06-0.9-0.06c-1.859,0-3.18,1.38-3.539,3.359
		c-0.061,0.36-0.09,0.81-0.09,1.23v7.739h-2.641V448.546z"/>
	<path d="M302.266,439.936c0,0.9-0.63,1.62-1.681,1.62c-0.959,0-1.59-0.72-1.59-1.62c0-0.899,0.66-1.649,1.65-1.649
		C301.606,438.286,302.266,439.006,302.266,439.936z M299.326,458.535v-14.52h2.641v14.52H299.326z"/>
	<path d="M306.346,447.945c0-1.529-0.03-2.729-0.12-3.93h2.34l0.15,2.4h0.06c0.72-1.351,2.399-2.7,4.8-2.7
		c2.01,0,5.13,1.2,5.13,6.18v8.64h-2.64v-8.37c0-2.34-0.87-4.289-3.359-4.289c-1.711,0-3.061,1.229-3.541,2.699
		c-0.119,0.33-0.18,0.78-0.18,1.23v8.729h-2.64V447.945z"/>
	<path d="M325.606,450.676h0.06c0.36-0.511,0.84-1.141,1.26-1.65l4.291-5.01h3.149l-5.58,5.97l6.39,8.55h-3.24l-4.979-6.96
		l-1.351,1.5v5.46h-2.61v-21.299h2.61V450.676z"/>
	<path d="M344.386,444.016l3.149,8.58c0.36,0.96,0.72,2.1,0.96,2.97h0.061c0.27-0.87,0.569-1.98,0.93-3.03l2.879-8.52h2.791
		l-3.961,10.35c-1.889,4.979-3.18,7.5-4.979,9.09c-1.32,1.109-2.58,1.56-3.24,1.68l-0.66-2.189c0.66-0.21,1.529-0.63,2.31-1.29
		c0.72-0.57,1.591-1.59,2.22-2.94c0.121-0.27,0.211-0.479,0.211-0.63c0-0.149-0.061-0.359-0.211-0.689l-5.34-13.38H344.386z"/>
	<path d="M358.725,451.756c0.06,3.569,2.31,5.039,4.979,5.039c1.891,0,3.061-0.33,4.021-0.75l0.479,1.891
		c-0.93,0.42-2.55,0.93-4.859,0.93c-4.47,0-7.14-2.97-7.14-7.35s2.579-7.8,6.81-7.8c4.77,0,6,4.14,6,6.81
		c0,0.54-0.03,0.93-0.09,1.23H358.725z M366.464,449.865c0.031-1.649-0.689-4.26-3.659-4.26c-2.7,0-3.84,2.43-4.05,4.26H366.464z"/>
	<path d="M382.485,455.056c0,1.26,0.06,2.489,0.21,3.479h-2.37l-0.21-1.83h-0.09c-0.811,1.14-2.37,2.16-4.439,2.16
		c-2.94,0-4.44-2.07-4.44-4.17c0-3.51,3.12-5.43,8.729-5.399v-0.301c0-1.17-0.33-3.359-3.3-3.329c-1.38,0-2.79,0.39-3.81,1.08
		l-0.6-1.771c1.199-0.75,2.97-1.26,4.799-1.26c4.44,0,5.521,3.03,5.521,5.91V455.056z M379.935,451.125
		c-2.88-0.06-6.15,0.45-6.15,3.271c0,1.739,1.141,2.52,2.461,2.52c1.92,0,3.149-1.2,3.569-2.43c0.09-0.3,0.12-0.6,0.12-0.84V451.125
		z"/>
	<path d="M386.746,448.546c0-1.71-0.03-3.181-0.121-4.53h2.311l0.12,2.88h0.09c0.66-1.95,2.28-3.18,4.05-3.18
		c0.27,0,0.48,0.03,0.72,0.06v2.49c-0.27-0.06-0.54-0.06-0.899-0.06c-1.86,0-3.18,1.38-3.54,3.359c-0.06,0.36-0.091,0.81-0.091,1.23
		v7.739h-2.639V448.546z"/>
	<path d="M396.675,437.236h2.639v21.299h-2.639V437.236z"/>
	<path d="M404.714,444.016l3.15,8.58c0.359,0.96,0.72,2.1,0.96,2.97h0.06c0.271-0.87,0.57-1.98,0.93-3.03l2.881-8.52h2.789
		l-3.959,10.35c-1.891,4.979-3.18,7.5-4.98,9.09c-1.32,1.109-2.58,1.56-3.24,1.68l-0.659-2.189c0.659-0.21,1.53-0.63,2.31-1.29
		c0.721-0.57,1.59-1.59,2.221-2.94c0.119-0.27,0.209-0.479,0.209-0.63c0-0.149-0.06-0.359-0.209-0.689l-5.34-13.38H404.714z"/>
</g>
<rect x="189.037" y="313.761" fill="none" width="284.21" height="50.877"/>
<g enable-background="new    ">
	<path d="M276.218,350.76c-2.299,0-4.3-0.899-5.55-2.05v1.5h-6.9v-33.002l6.9-3.45v11.851c1.3-1.15,3.05-2.2,5.55-2.2
		c5.602,0,10.201,4.2,10.201,14.001C286.419,345.26,282.719,350.76,276.218,350.76z M274.919,329.909
		c-2.15,0-3.251,0.899-4.251,2.199v9.901c1.05,1.45,2.65,2.25,4.65,2.25c2.65,0,4.101-2.301,4.101-6.7
		C279.419,332.159,277.619,329.909,274.919,329.909z"/>
	<path d="M295.568,321.809c-2.15,0-3.95-1.801-3.95-3.95c0-2.15,1.8-3.95,3.95-3.95s3.95,1.8,3.95,3.95
		C299.518,320.008,297.718,321.809,295.568,321.809z M292.118,350.21v-26.252h6.9v26.252H292.118z"/>
	<path d="M306.218,350.21v-33.002l6.9-3.45v36.452H306.218z"/>
	<path d="M320.318,350.21v-33.002l6.9-3.45v36.452H320.318z"/>
	<path d="M337.868,321.809c-2.149,0-3.95-1.801-3.95-3.95c0-2.15,1.801-3.95,3.95-3.95c2.15,0,3.95,1.8,3.95,3.95
		C341.818,320.008,340.018,321.809,337.868,321.809z M334.417,350.21v-26.252h6.9v26.252H334.417z"/>
	<path d="M358.769,350.76c-6.852,0-11.852-5.601-11.852-13.65c0-8.051,5-13.701,11.852-13.701c6.85,0,11.9,5.65,11.9,13.701
		C370.669,345.159,365.619,350.76,358.769,350.76z M358.769,330.059c-3.301,0-4.852,3-4.852,7.051c0,4.05,1.551,7,4.852,7
		c3.299,0,4.899-3.35,4.899-7C363.668,333.109,362.068,330.059,358.769,330.059z"/>
	<path d="M391.869,350.21v-14.201c0-4.7-1.601-6.1-4.451-6.1c-2.85,0-4.5,1.399-4.5,5.95v14.351h-6.9v-26.252h6.9v1.75
		c1.2-1.25,3.4-2.3,6.15-2.3c6.701,0,9.701,4.601,9.701,12.001v14.801H391.869z"/>
</g>
<path fill="#19162B" d="M295.639,574.145v79.232l3.964,3.932c2.84,41.002-7.896,38.756-7.896,38.756
	c-12.918,11.233-21.906,0-21.906,0l-4.271-0.562l-3.59,3.369c-19.096,6.179-24.713-6.739-24.713-6.739
	c-6.177-7.862-5.765-35.947-5.765-35.947l3.519-4.492v-77.548h-3.37c-2.248-40.475,21.905-54.444,21.905-54.444l1.122-6.179h-3.37
	v-16.881c15.165-7.33,29.206,0,29.206,0v18.565h-2.808v5.054c27.522,25.275,21.344,53.885,21.344,53.885H295.639z M269.632,578.694
	c0,0-25.269,27.314-22.056,48.786c0,0,2.482,15.482,18.411,15.482c0,0,16.943,1.535,18.253-19.607c0,0,0.297-8.872-7.887-21.729
	C276.354,601.626,269.93,592.133,269.632,578.694z"/>
</svg>
