<?xml version="1.0" encoding="utf-8"?>
<!-- Generator: Adobe Illustrator 15.1.0, SVG Export Plug-In . SVG Version: 6.00 Build 0)  -->
<!DOCTYPE svg PUBLIC "-//W3C//DTD SVG 1.1//EN" "http://www.w3.org/Graphics/SVG/1.1/DTD/svg11.dtd">
<svg version="1.1" id="Layer_1" xmlns="http://www.w3.org/2000/svg" xmlns:xlink="http://www.w3.org/1999/xlink" x="0px" y="0px"
	 width="536.378px" height="780.521px" viewBox="0 0 536.378 780.521" enable-background="new 0 0 536.378 780.521"
	 xml:space="preserve">
<rect x="165.537" y="232.964" fill="none" width="335.21" height="115.885"/>
<g enable-background="new    ">
	<path d="M172,298.573c0.36-21.6,13.589-30.959,28.979-37.708c5.4-2.341,7.11-4.86,7.11-7.561c0-3.239-2.79-6.39-10.35-6.39
		c-7.47,0-13.5,3.33-17.909,7.56l-8.1-9.449c6.66-6.75,15.569-10.439,25.559-10.439c14.939,0,23.399,6.029,23.399,18.089
		c0,10.17-5.49,14.58-16.2,19.529c-11.159,5.13-15.479,9.359-16.649,14.22h33.479v12.149H172z"/>
	<path d="M256.959,299.563c-17.189,0-26.369-13.319-26.369-32.489c0-19.169,9.27-32.488,26.458-32.488s26.458,13.14,26.458,32.309
		S274.148,299.563,256.959,299.563z M256.959,246.915c-9.629,0-13.589,8.729-13.589,19.979s4.05,20.339,13.679,20.339
		c9.63,0,13.679-8.909,13.679-20.159C270.728,255.825,266.589,246.915,256.959,246.915z"/>
	<path d="M298.179,309.913h-8.459l1.35-26.549h14.67L298.179,309.913z"/>
	<path d="M338.229,299.563c-17.188,0-26.368-13.319-26.368-32.489c0-19.169,9.27-32.488,26.459-32.488
		c17.188,0,26.458,13.14,26.458,32.309S355.418,299.563,338.229,299.563z M338.229,246.915c-9.63,0-13.589,8.729-13.589,19.979
		s4.049,20.339,13.68,20.339c9.629,0,13.679-8.909,13.679-20.159C351.999,255.825,347.859,246.915,338.229,246.915z"/>
	<path d="M400.148,299.563c-17.189,0-26.369-13.319-26.369-32.489c0-19.169,9.27-32.488,26.459-32.488s26.459,13.14,26.459,32.309
		S417.337,299.563,400.148,299.563z M400.148,246.915c-9.629,0-13.59,8.729-13.59,19.979s4.051,20.339,13.68,20.339
		c9.63,0,13.68-8.909,13.68-20.159C413.917,255.825,409.778,246.915,400.148,246.915z"/>
	<path d="M462.067,299.563c-17.188,0-26.368-13.319-26.368-32.489c0-19.169,9.27-32.488,26.459-32.488
		c17.188,0,26.458,13.14,26.458,32.309S479.256,299.563,462.067,299.563z M462.067,246.915c-9.63,0-13.589,8.729-13.589,19.979
		s4.049,20.339,13.68,20.339c9.629,0,13.679-8.909,13.679-20.159C475.836,255.825,471.697,246.915,462.067,246.915z"/>
</g>
<rect x="-19.884" y="403.235" fill="none" width="587.719" height="62.175"/>
<g enable-background="new    ">
	<path d="M58.069,421.056c0,1.26,0.06,2.489,0.21,3.479h-2.37l-0.21-1.83h-0.09c-0.81,1.14-2.37,2.16-4.44,2.16
		c-2.94,0-4.44-2.07-4.44-4.17c0-3.51,3.12-5.43,8.73-5.399v-0.301c0-1.17-0.33-3.359-3.3-3.329c-1.38,0-2.79,0.39-3.81,1.08
		l-0.6-1.771c1.2-0.75,2.97-1.26,4.8-1.26c4.44,0,5.52,3.03,5.52,5.91V421.056z M55.52,417.125c-2.88-0.06-6.15,0.45-6.15,3.271
		c0,1.739,1.14,2.52,2.46,2.52c1.92,0,3.15-1.2,3.57-2.43c0.09-0.3,0.12-0.6,0.12-0.84V417.125z"/>
	<path d="M62.33,413.945c0-1.529-0.06-2.729-0.12-3.93h2.31l0.12,2.37h0.09c0.81-1.38,2.16-2.67,4.59-2.67
		c1.95,0,3.45,1.2,4.08,2.91h0.06c0.45-0.84,1.05-1.44,1.65-1.891c0.87-0.659,1.8-1.02,3.18-1.02c1.95,0,4.8,1.26,4.8,6.3v8.52
		h-2.58v-8.189c0-2.82-1.05-4.47-3.15-4.47c-1.53,0-2.67,1.109-3.15,2.369c-0.12,0.391-0.21,0.841-0.21,1.32v8.97h-2.58v-8.699
		c0-2.311-1.02-3.96-3.03-3.96c-1.62,0-2.85,1.319-3.27,2.64c-0.15,0.36-0.21,0.84-0.21,1.29v8.729h-2.58V413.945z"/>
	<path d="M100.489,417.155c0,5.37-3.75,7.71-7.23,7.71c-3.9,0-6.959-2.88-6.959-7.47c0-4.83,3.209-7.68,7.2-7.68
		C97.669,409.716,100.489,412.746,100.489,417.155z M89,417.306c0,3.18,1.8,5.579,4.38,5.579c2.52,0,4.41-2.369,4.41-5.64
		c0-2.46-1.23-5.55-4.35-5.55C90.35,411.695,89,414.575,89,417.306z"/>
	<path d="M115.969,420.545c0,1.53,0.03,2.851,0.12,3.99h-2.34l-0.15-2.37h-0.06c-0.66,1.17-2.22,2.7-4.8,2.7
		c-2.28,0-5.01-1.29-5.01-6.359v-8.49h2.64v8.01c0,2.76,0.87,4.649,3.24,4.649c1.77,0,3-1.229,3.48-2.43
		c0.15-0.359,0.24-0.84,0.24-1.35v-8.88h2.64V420.545z"/>
	<path d="M120.349,413.945c0-1.529-0.03-2.729-0.12-3.93h2.34l0.15,2.4h0.06c0.72-1.351,2.4-2.7,4.8-2.7c2.01,0,5.13,1.2,5.13,6.18
		v8.64h-2.64v-8.37c0-2.34-0.87-4.289-3.36-4.289c-1.71,0-3.06,1.229-3.54,2.699c-0.12,0.33-0.18,0.78-0.18,1.23v8.729h-2.64
		V413.945z"/>
	<path d="M140.059,406.536v3.479h3.78v2.01h-3.78v7.83c0,1.8,0.51,2.819,1.98,2.819c0.72,0,1.14-0.06,1.53-0.18l0.12,2.01
		c-0.51,0.181-1.32,0.36-2.34,0.36c-1.23,0-2.22-0.42-2.85-1.11c-0.72-0.81-1.02-2.1-1.02-3.81v-7.92h-2.25v-2.01h2.25v-2.7
		L140.059,406.536z"/>
	<path d="M163.368,421.056c0,1.26,0.06,2.489,0.21,3.479h-2.37l-0.21-1.83h-0.09c-0.81,1.14-2.37,2.16-4.44,2.16
		c-2.94,0-4.44-2.07-4.44-4.17c0-3.51,3.12-5.43,8.73-5.399v-0.301c0-1.17-0.33-3.359-3.3-3.329c-1.38,0-2.79,0.39-3.81,1.08
		l-0.6-1.771c1.2-0.75,2.97-1.26,4.8-1.26c4.44,0,5.52,3.03,5.52,5.91V421.056z M160.818,417.125c-2.88-0.06-6.15,0.45-6.15,3.271
		c0,1.739,1.14,2.52,2.46,2.52c1.92,0,3.15-1.2,3.57-2.43c0.09-0.3,0.12-0.6,0.12-0.84V417.125z"/>
	<path d="M167.628,413.945c0-1.529-0.03-2.729-0.12-3.93h2.34l0.15,2.4h0.06c0.72-1.351,2.4-2.7,4.8-2.7c2.01,0,5.13,1.2,5.13,6.18
		v8.64h-2.64v-8.37c0-2.34-0.87-4.289-3.36-4.289c-1.71,0-3.06,1.229-3.54,2.699c-0.12,0.33-0.18,0.78-0.18,1.23v8.729h-2.64
		V413.945z"/>
	<path d="M200.837,421.056c0,1.26,0.06,2.489,0.21,3.479h-2.37l-0.21-1.83h-0.09c-0.81,1.14-2.37,2.16-4.44,2.16
		c-2.94,0-4.44-2.07-4.44-4.17c0-3.51,3.12-5.43,8.73-5.399v-0.301c0-1.17-0.33-3.359-3.3-3.329c-1.38,0-2.79,0.39-3.81,1.08
		l-0.6-1.771c1.2-0.75,2.97-1.26,4.8-1.26c4.44,0,5.52,3.03,5.52,5.91V421.056z M198.287,417.125c-2.88-0.06-6.149,0.45-6.149,3.271
		c0,1.739,1.14,2.52,2.46,2.52c1.92,0,3.15-1.2,3.57-2.43c0.09-0.3,0.12-0.6,0.12-0.84V417.125z"/>
	<path d="M205.878,410.016l2.85,8.13c0.48,1.35,0.87,2.55,1.17,3.75h0.09c0.33-1.2,0.75-2.4,1.23-3.75l2.82-8.13h2.76l-5.7,14.52
		h-2.52l-5.52-14.52H205.878z"/>
	<path d="M220.458,417.756c0.06,3.569,2.31,5.039,4.98,5.039c1.89,0,3.06-0.33,4.02-0.75l0.48,1.891c-0.93,0.42-2.55,0.93-4.86,0.93
		c-4.47,0-7.14-2.97-7.14-7.35s2.58-7.8,6.81-7.8c4.77,0,6,4.14,6,6.81c0,0.54-0.03,0.93-0.09,1.23H220.458z M228.197,415.865
		c0.03-1.649-0.69-4.26-3.66-4.26c-2.7,0-3.84,2.43-4.05,4.26H228.197z"/>
	<path d="M234.018,414.546c0-1.71-0.03-3.181-0.12-4.53h2.31l0.12,2.88h0.09c0.66-1.95,2.28-3.18,4.05-3.18
		c0.27,0,0.48,0.03,0.72,0.06v2.49c-0.27-0.06-0.54-0.06-0.9-0.06c-1.86,0-3.18,1.38-3.54,3.359c-0.06,0.36-0.09,0.81-0.09,1.23
		v7.739h-2.64V414.546z"/>
	<path d="M253.877,421.056c0,1.26,0.06,2.489,0.21,3.479h-2.37l-0.21-1.83h-0.09c-0.81,1.14-2.37,2.16-4.44,2.16
		c-2.94,0-4.44-2.07-4.44-4.17c0-3.51,3.12-5.43,8.73-5.399v-0.301c0-1.17-0.33-3.359-3.3-3.329c-1.38,0-2.79,0.39-3.81,1.08
		l-0.6-1.771c1.2-0.75,2.97-1.26,4.8-1.26c4.44,0,5.52,3.03,5.52,5.91V421.056z M251.327,417.125c-2.88-0.06-6.149,0.45-6.149,3.271
		c0,1.739,1.14,2.52,2.46,2.52c1.92,0,3.15-1.2,3.57-2.43c0.09-0.3,0.12-0.6,0.12-0.84V417.125z"/>
	<path d="M270.556,422.405c0,3.359-0.689,5.37-2.069,6.66c-1.44,1.289-3.48,1.739-5.31,1.739c-1.74,0-3.66-0.42-4.83-1.2l0.66-2.039
		c0.96,0.63,2.459,1.17,4.26,1.17c2.7,0,4.68-1.41,4.68-5.101v-1.59h-0.06c-0.78,1.351-2.37,2.431-4.62,2.431
		c-3.6,0-6.18-3.061-6.18-7.08c0-4.92,3.209-7.68,6.569-7.68c2.52,0,3.87,1.29,4.53,2.49h0.06l0.09-2.19h2.34
		c-0.09,1.021-0.121,2.22-0.121,3.96V422.405z M267.917,415.745c0-0.449-0.03-0.84-0.15-1.17c-0.48-1.56-1.74-2.819-3.689-2.819
		c-2.52,0-4.32,2.13-4.32,5.489c0,2.851,1.47,5.22,4.29,5.22c1.65,0,3.12-1.02,3.66-2.699c0.15-0.45,0.21-0.96,0.21-1.41V415.745z"
		/>
	<path d="M276.376,417.756c0.061,3.569,2.311,5.039,4.98,5.039c1.891,0,3.061-0.33,4.02-0.75l0.48,1.891
		c-0.93,0.42-2.551,0.93-4.859,0.93c-4.471,0-7.141-2.97-7.141-7.35s2.58-7.8,6.811-7.8c4.77,0,5.999,4.14,5.999,6.81
		c0,0.54-0.03,0.93-0.09,1.23H276.376z M284.117,415.865c0.03-1.649-0.689-4.26-3.66-4.26c-2.699,0-3.84,2.43-4.049,4.26H284.117z"
		/>
	<path d="M296.296,414.756c0-1.86-0.061-3.36-0.12-4.74h2.34l0.149,2.49h0.061c1.051-1.771,2.79-2.79,5.16-2.79
		c3.539,0,6.18,2.97,6.18,7.35c0,5.22-3.21,7.8-6.63,7.8c-1.92,0-3.6-0.84-4.47-2.28h-0.061v7.89h-2.609V414.756z M298.906,418.625
		c0,0.391,0.03,0.75,0.121,1.08c0.479,1.83,2.069,3.09,3.959,3.09c2.79,0,4.41-2.279,4.41-5.609c0-2.88-1.529-5.37-4.32-5.37
		c-1.799,0-3.51,1.26-3.989,3.24c-0.091,0.33-0.181,0.72-0.181,1.05V418.625z"/>
	<path d="M314.835,417.756c0.061,3.569,2.311,5.039,4.98,5.039c1.891,0,3.061-0.33,4.02-0.75l0.48,1.891
		c-0.93,0.42-2.551,0.93-4.859,0.93c-4.471,0-7.141-2.97-7.141-7.35s2.58-7.8,6.811-7.8c4.77,0,5.999,4.14,5.999,6.81
		c0,0.54-0.03,0.93-0.09,1.23H314.835z M322.576,415.865c0.03-1.649-0.689-4.26-3.66-4.26c-2.699,0-3.84,2.43-4.049,4.26H322.576z"
		/>
	<path d="M328.396,414.546c0-1.71-0.029-3.181-0.12-4.53h2.31l0.121,2.88h0.09c0.66-1.95,2.279-3.18,4.049-3.18
		c0.271,0,0.48,0.03,0.721,0.06v2.49c-0.27-0.06-0.54-0.06-0.9-0.06c-1.859,0-3.18,1.38-3.539,3.359
		c-0.061,0.36-0.091,0.81-0.091,1.23v7.739h-2.64V414.546z"/>
	<path d="M337.845,421.865c0.811,0.48,2.19,1.02,3.51,1.02c1.891,0,2.791-0.93,2.791-2.159c0-1.26-0.75-1.92-2.67-2.641
		c-2.641-0.96-3.871-2.369-3.871-4.109c0-2.34,1.92-4.26,5.01-4.26c1.471,0,2.76,0.39,3.541,0.899l-0.631,1.92
		c-0.57-0.359-1.619-0.869-2.97-0.869c-1.56,0-2.399,0.899-2.399,1.979c0,1.2,0.84,1.74,2.729,2.49c2.489,0.93,3.81,2.189,3.81,4.35
		c0,2.58-2.01,4.38-5.399,4.38c-1.59,0-3.06-0.42-4.079-1.021L337.845,421.865z"/>
	<path d="M363.225,417.155c0,5.37-3.75,7.71-7.229,7.71c-3.9,0-6.96-2.88-6.96-7.47c0-4.83,3.21-7.68,7.2-7.68
		C360.405,409.716,363.225,412.746,363.225,417.155z M351.736,417.306c0,3.18,1.799,5.579,4.379,5.579c2.521,0,4.41-2.369,4.41-5.64
		c0-2.46-1.23-5.55-4.35-5.55C353.085,411.695,351.736,414.575,351.736,417.306z"/>
	<path d="M366.556,413.945c0-1.529-0.031-2.729-0.121-3.93h2.34l0.15,2.4h0.061c0.72-1.351,2.399-2.7,4.799-2.7
		c2.011,0,5.131,1.2,5.131,6.18v8.64h-2.641v-8.37c0-2.34-0.869-4.289-3.359-4.289c-1.71,0-3.061,1.229-3.54,2.699
		c-0.12,0.33-0.181,0.78-0.181,1.23v8.729h-2.639V413.945z"/>
	<path d="M390.615,410.016l1.95,7.38c0.39,1.62,0.78,3.12,1.05,4.62h0.09c0.33-1.471,0.811-3.03,1.29-4.59l2.37-7.41h2.22l2.25,7.26
		c0.54,1.74,0.96,3.27,1.29,4.74h0.09c0.24-1.471,0.63-3,1.109-4.71l2.07-7.29h2.609l-4.68,14.52h-2.399l-2.22-6.93
		c-0.51-1.62-0.93-3.06-1.29-4.77h-0.06c-0.36,1.739-0.811,3.239-1.32,4.8l-2.34,6.899h-2.4l-4.379-14.52H390.615z"/>
	<path d="M414.585,405.936c0,0.9-0.631,1.62-1.681,1.62c-0.96,0-1.59-0.72-1.59-1.62c0-0.899,0.66-1.649,1.649-1.649
		C413.925,404.286,414.585,405.006,414.585,405.936z M411.645,424.535v-14.52h2.64v14.52H411.645z"/>
	<path d="M418.665,403.236h2.64v21.299h-2.64V403.236z"/>
	<path d="M425.745,403.236h2.64v21.299h-2.64V403.236z"/>
	<path d="M451.693,403.236v17.549c0,1.29,0.061,2.76,0.121,3.75h-2.34l-0.121-2.52h-0.09c-0.779,1.619-2.52,2.85-4.889,2.85
		c-3.511,0-6.24-2.97-6.24-7.38c-0.03-4.83,3-7.77,6.51-7.77c2.25,0,3.719,1.05,4.379,2.189h0.061v-8.669H451.693z M449.083,415.926
		c0-0.33-0.029-0.78-0.119-1.11c-0.391-1.649-1.83-3.029-3.811-3.029c-2.73,0-4.35,2.399-4.35,5.579c0,2.94,1.47,5.37,4.289,5.37
		c1.77,0,3.391-1.2,3.871-3.15c0.09-0.359,0.119-0.72,0.119-1.14V415.926z"/>
	<path d="M456.103,414.546c0-1.71-0.029-3.181-0.119-4.53h2.311l0.119,2.88h0.09c0.66-1.95,2.281-3.18,4.051-3.18
		c0.27,0,0.479,0.03,0.719,0.06v2.49c-0.27-0.06-0.539-0.06-0.898-0.06c-1.861,0-3.182,1.38-3.541,3.359
		c-0.061,0.36-0.09,0.81-0.09,1.23v7.739h-2.641V414.546z"/>
	<path d="M468.974,405.936c0,0.9-0.631,1.62-1.68,1.62c-0.961,0-1.59-0.72-1.59-1.62c0-0.899,0.658-1.649,1.648-1.649
		C468.314,404.286,468.974,405.006,468.974,405.936z M466.033,424.535v-14.52h2.641v14.52H466.033z"/>
	<path d="M473.052,413.945c0-1.529-0.029-2.729-0.119-3.93h2.34l0.15,2.4h0.061c0.719-1.351,2.398-2.7,4.799-2.7
		c2.01,0,5.131,1.2,5.131,6.18v8.64h-2.641v-8.37c0-2.34-0.871-4.289-3.359-4.289c-1.711,0-3.061,1.229-3.541,2.699
		c-0.119,0.33-0.18,0.78-0.18,1.23v8.729h-2.641V413.945z"/>
	<path d="M492.314,416.676h0.059c0.361-0.511,0.842-1.141,1.262-1.65l4.289-5.01h3.15l-5.58,5.97l6.389,8.55h-3.238l-4.98-6.96
		l-1.35,1.5v5.46h-2.611v-21.299h2.611V416.676z"/>
</g>
<g enable-background="new    ">
	<path d="M184.248,441.936c0,0.9-0.63,1.62-1.68,1.62c-0.96,0-1.59-0.72-1.59-1.62c0-0.899,0.66-1.649,1.65-1.649
		C183.587,440.286,184.248,441.006,184.248,441.936z M181.308,460.535v-14.52h2.64v14.52H181.308z"/>
	<path d="M188.328,449.945c0-1.529-0.03-2.729-0.12-3.93h2.34l0.15,2.4h0.06c0.72-1.351,2.4-2.7,4.8-2.7c2.01,0,5.13,1.2,5.13,6.18
		v8.64h-2.64v-8.37c0-2.34-0.87-4.289-3.36-4.289c-1.71,0-3.06,1.229-3.54,2.699c-0.12,0.33-0.18,0.78-0.18,1.23v8.729h-2.64
		V449.945z"/>
	<path d="M214.517,442.536v3.479h3.78v2.01h-3.78v7.83c0,1.8,0.51,2.819,1.98,2.819c0.72,0,1.14-0.06,1.53-0.18l0.12,2.01
		c-0.51,0.181-1.32,0.36-2.34,0.36c-1.23,0-2.22-0.42-2.85-1.11c-0.72-0.81-1.02-2.1-1.02-3.81v-7.92h-2.25v-2.01h2.25v-2.7
		L214.517,442.536z"/>
	<path d="M221.267,439.236h2.64v9.089h0.06c0.42-0.749,1.08-1.439,1.89-1.89c0.78-0.45,1.71-0.72,2.7-0.72
		c1.95,0,5.07,1.2,5.07,6.18v8.64h-2.64v-8.34c0-2.34-0.87-4.29-3.36-4.29c-1.71,0-3.03,1.2-3.54,2.61
		c-0.15,0.39-0.18,0.78-0.18,1.26v8.76h-2.64V439.236z"/>
	<path d="M239.386,453.756c0.06,3.569,2.31,5.039,4.98,5.039c1.89,0,3.06-0.33,4.02-0.75l0.48,1.891c-0.93,0.42-2.55,0.93-4.86,0.93
		c-4.47,0-7.14-2.97-7.14-7.35s2.58-7.8,6.81-7.8c4.77,0,6,4.14,6,6.81c0,0.54-0.03,0.93-0.09,1.23H239.386z M247.126,451.865
		c0.03-1.649-0.69-4.26-3.66-4.26c-2.7,0-3.84,2.43-4.05,4.26H247.126z"/>
	<path d="M255.886,441.936c0,0.9-0.63,1.62-1.68,1.62c-0.96,0-1.59-0.72-1.59-1.62c0-0.899,0.66-1.649,1.65-1.649
		C255.226,440.286,255.886,441.006,255.886,441.936z M252.946,460.535v-14.52h2.64v14.52H252.946z"/>
	<path d="M259.966,450.546c0-1.71-0.03-3.181-0.12-4.53h2.31l0.12,2.88h0.09c0.66-1.95,2.28-3.18,4.05-3.18
		c0.27,0,0.48,0.03,0.72,0.06v2.49c-0.27-0.06-0.54-0.06-0.9-0.06c-1.86,0-3.18,1.38-3.54,3.359c-0.06,0.36-0.09,0.81-0.09,1.23
		v7.739h-2.64V450.546z"/>
	<path d="M276.136,439.236h2.639v21.299h-2.639V439.236z"/>
	<path d="M286.156,441.936c0,0.9-0.631,1.62-1.681,1.62c-0.96,0-1.59-0.72-1.59-1.62c0-0.899,0.66-1.649,1.649-1.649
		C285.496,440.286,286.156,441.006,286.156,441.936z M283.215,460.535v-14.52h2.64v14.52H283.215z"/>
	<path d="M290.505,460.535v-12.51h-2.01v-2.01h2.01v-0.689c0-2.04,0.48-3.9,1.68-5.07c0.99-0.96,2.311-1.35,3.54-1.35
		c0.96,0,1.739,0.21,2.25,0.42l-0.36,2.04c-0.39-0.181-0.9-0.33-1.68-0.33c-2.25,0-2.82,1.95-2.82,4.199v0.78h3.51v2.01h-3.51v12.51
		H290.505z"/>
	<path d="M300.076,453.756c0.06,3.569,2.31,5.039,4.979,5.039c1.89,0,3.06-0.33,4.021-0.75l0.479,1.891
		c-0.931,0.42-2.55,0.93-4.86,0.93c-4.469,0-7.139-2.97-7.139-7.35s2.579-7.8,6.809-7.8c4.771,0,6,4.14,6,6.81
		c0,0.54-0.029,0.93-0.09,1.23H300.076z M307.815,451.865c0.03-1.649-0.69-4.26-3.659-4.26c-2.7,0-3.84,2.43-4.051,4.26H307.815z"/>
	<path d="M316.815,442.536v3.479h3.78v2.01h-3.78v7.83c0,1.8,0.511,2.819,1.979,2.819c0.721,0,1.141-0.06,1.53-0.18l0.12,2.01
		c-0.51,0.181-1.32,0.36-2.34,0.36c-1.23,0-2.22-0.42-2.85-1.11c-0.721-0.81-1.02-2.1-1.02-3.81v-7.92h-2.25v-2.01h2.25v-2.7
		L316.815,442.536z"/>
	<path d="M326.505,441.936c0,0.9-0.631,1.62-1.681,1.62c-0.96,0-1.59-0.72-1.59-1.62c0-0.899,0.66-1.649,1.649-1.649
		C325.845,440.286,326.505,441.006,326.505,441.936z M323.565,460.535v-14.52h2.64v14.52H323.565z"/>
	<path d="M330.585,449.945c0-1.529-0.061-2.729-0.121-3.93h2.311l0.12,2.37h0.09c0.81-1.38,2.159-2.67,4.59-2.67
		c1.95,0,3.45,1.2,4.079,2.91h0.061c0.45-0.84,1.051-1.44,1.65-1.891c0.869-0.659,1.8-1.02,3.18-1.02c1.949,0,4.8,1.26,4.8,6.3v8.52
		h-2.58v-8.189c0-2.82-1.05-4.47-3.149-4.47c-1.53,0-2.67,1.109-3.15,2.369c-0.12,0.391-0.21,0.841-0.21,1.32v8.97h-2.58v-8.699
		c0-2.311-1.02-3.96-3.03-3.96c-1.619,0-2.85,1.319-3.27,2.64c-0.15,0.36-0.209,0.84-0.209,1.29v8.729h-2.58V449.945z"/>
	<path d="M357.075,453.756c0.06,3.569,2.31,5.039,4.979,5.039c1.891,0,3.061-0.33,4.021-0.75l0.479,1.891
		c-0.93,0.42-2.55,0.93-4.859,0.93c-4.47,0-7.14-2.97-7.14-7.35s2.579-7.8,6.81-7.8c4.77,0,6,4.14,6,6.81
		c0,0.54-0.03,0.93-0.09,1.23H357.075z M364.814,451.865c0.031-1.649-0.689-4.26-3.659-4.26c-2.7,0-3.84,2.43-4.05,4.26H364.814z"/>
</g>
<g>
	<path fill="#19162B" d="M208.331,613.545v67.512c-0.628,6.599-8.161,6.599-8.161,6.599c-6.594-0.945-7.855-6.285-7.855-6.285
		V566.45c-1.572-4.086-3.45,0-3.45,0v41.133c-0.633,5.025-6.288,5.025-6.288,5.025c-5.649-0.945-6.272-5.025-6.272-5.025V558.91
		c3.455-17.271,17.271-16.644,17.271-16.644h16.327h0.633h16.316c0,0,13.826-0.627,17.275,16.644v48.672c0,0-0.633,4.08-6.287,5.025
		c0,0-5.65,0-6.272-5.025v-41.133c0,0-1.888-4.086-3.46,0v114.92c0,0-1.256,5.34-7.845,6.285c0,0-7.543,0-8.155-6.599v-67.512
		C212.107,613.545,210.375,609.621,208.331,613.545z"/>
	<path fill="#19162B" d="M223.718,523.744c0,7.106-5.764,12.877-12.876,12.877c-7.112,0-12.876-5.771-12.876-12.877
		c0-7.107,5.764-12.871,12.876-12.871C217.954,510.873,223.718,516.637,223.718,523.744z"/>
</g>
<path fill="#19162B" d="M279.468,549.275c0,0,53.675-16.808,107.348,1.627l-11.385,101.383
	c-51.309,15.147-84.094-1.205-84.094-1.205l-11.387-101.383 M337.729,562.336c0,0-29.992,32.422-26.181,57.906
	c0,0,2.947,18.377,21.853,18.377c0,0,20.111,1.822,21.667-23.271c0,0,0.352-10.532-9.361-25.793
	C345.707,589.555,338.08,578.287,337.729,562.336z"/>
</svg>
