<?xml version="1.0" encoding="utf-8"?>
<!-- Generator: Adobe Illustrator 15.1.0, SVG Export Plug-In . SVG Version: 6.00 Build 0)  -->
<!DOCTYPE svg PUBLIC "-//W3C//DTD SVG 1.1//EN" "http://www.w3.org/Graphics/SVG/1.1/DTD/svg11.dtd">
<svg version="1.1" id="Layer_1" xmlns="http://www.w3.org/2000/svg" xmlns:xlink="http://www.w3.org/1999/xlink" x="0px" y="0px"
	 width="536.378px" height="780.521px" viewBox="0 0 536.378 780.521" enable-background="new 0 0 536.378 780.521"
	 xml:space="preserve">
<g enable-background="new    ">
	<path d="M73.925,397.102c0,1.26,0.06,2.489,0.21,3.479h-2.37l-0.21-1.83h-0.09c-0.81,1.14-2.37,2.16-4.44,2.16
		c-2.94,0-4.44-2.07-4.44-4.17c0-3.51,3.12-5.43,8.73-5.399v-0.301c0-1.17-0.33-3.359-3.3-3.329c-1.38,0-2.79,0.39-3.81,1.08
		l-0.6-1.771c1.2-0.75,2.97-1.26,4.8-1.26c4.44,0,5.52,3.03,5.52,5.91V397.102z M71.375,393.171c-2.88-0.06-6.15,0.45-6.15,3.271
		c0,1.739,1.14,2.52,2.46,2.52c1.92,0,3.15-1.2,3.57-2.43c0.09-0.3,0.12-0.6,0.12-0.84V393.171z"/>
	<path d="M78.185,389.991c0-1.529-0.06-2.729-0.12-3.93h2.31l0.12,2.37h0.09c0.81-1.38,2.16-2.67,4.59-2.67
		c1.95,0,3.45,1.2,4.08,2.91h0.06c0.45-0.84,1.05-1.44,1.65-1.891c0.87-0.659,1.8-1.02,3.18-1.02c1.95,0,4.8,1.26,4.8,6.3v8.52
		h-2.58v-8.189c0-2.82-1.05-4.47-3.15-4.47c-1.53,0-2.67,1.109-3.15,2.369c-0.12,0.391-0.21,0.841-0.21,1.32v8.97h-2.58v-8.699
		c0-2.311-1.02-3.96-3.03-3.96c-1.62,0-2.85,1.319-3.27,2.64c-0.15,0.36-0.21,0.84-0.21,1.29v8.729h-2.58V389.991z"/>
	<path d="M116.345,393.201c0,5.37-3.75,7.71-7.23,7.71c-3.9,0-6.959-2.88-6.959-7.47c0-4.83,3.209-7.68,7.2-7.68
		C113.524,385.762,116.345,388.792,116.345,393.201z M104.855,393.352c0,3.18,1.8,5.579,4.38,5.579c2.52,0,4.41-2.369,4.41-5.64
		c0-2.46-1.23-5.55-4.35-5.55C106.205,387.741,104.855,390.621,104.855,393.352z"/>
	<path d="M131.824,396.591c0,1.53,0.03,2.851,0.12,3.99h-2.34l-0.15-2.37h-0.06c-0.66,1.17-2.22,2.7-4.8,2.7
		c-2.28,0-5.01-1.29-5.01-6.359v-8.49h2.64v8.01c0,2.76,0.87,4.649,3.24,4.649c1.77,0,3-1.229,3.48-2.43
		c0.15-0.359,0.24-0.84,0.24-1.35v-8.88h2.64V396.591z"/>
	<path d="M136.205,389.991c0-1.529-0.03-2.729-0.12-3.93h2.34l0.15,2.4h0.06c0.72-1.351,2.4-2.7,4.8-2.7c2.01,0,5.13,1.2,5.13,6.18
		v8.64h-2.64v-8.37c0-2.34-0.87-4.289-3.36-4.289c-1.71,0-3.06,1.229-3.54,2.699c-0.12,0.33-0.18,0.78-0.18,1.23v8.729h-2.64
		V389.991z"/>
	<path d="M155.914,382.582v3.479h3.78v2.01h-3.78v7.83c0,1.8,0.51,2.819,1.98,2.819c0.72,0,1.14-0.06,1.53-0.18l0.12,2.01
		c-0.51,0.181-1.32,0.36-2.34,0.36c-1.23,0-2.22-0.42-2.85-1.11c-0.72-0.81-1.02-2.1-1.02-3.81v-7.92h-2.25v-2.01h2.25v-2.7
		L155.914,382.582z"/>
	<path d="M181.173,396.591c0,1.53,0.03,2.851,0.12,3.99h-2.34l-0.15-2.37h-0.06c-0.66,1.17-2.22,2.7-4.8,2.7
		c-2.28,0-5.01-1.29-5.01-6.359v-8.49h2.64v8.01c0,2.76,0.87,4.649,3.24,4.649c1.77,0,3-1.229,3.48-2.43
		c0.15-0.359,0.24-0.84,0.24-1.35v-8.88h2.64V396.591z"/>
	<path d="M185.194,397.911c0.81,0.48,2.19,1.02,3.51,1.02c1.89,0,2.79-0.93,2.79-2.159c0-1.26-0.75-1.92-2.67-2.641
		c-2.64-0.96-3.87-2.369-3.87-4.109c0-2.34,1.92-4.26,5.01-4.26c1.47,0,2.76,0.39,3.54,0.899l-0.63,1.92
		c-0.57-0.359-1.62-0.869-2.97-0.869c-1.56,0-2.4,0.899-2.4,1.979c0,1.2,0.84,1.74,2.73,2.49c2.49,0.93,3.81,2.189,3.81,4.35
		c0,2.58-2.01,4.38-5.4,4.38c-1.59,0-3.06-0.42-4.08-1.021L185.194,397.911z"/>
	<path d="M198.903,393.802c0.06,3.569,2.31,5.039,4.98,5.039c1.89,0,3.06-0.33,4.02-0.75l0.48,1.891c-0.93,0.42-2.55,0.93-4.86,0.93
		c-4.47,0-7.14-2.97-7.14-7.35s2.58-7.8,6.81-7.8c4.77,0,6,4.14,6,6.81c0,0.54-0.03,0.93-0.09,1.23H198.903z M206.643,391.911
		c0.03-1.649-0.69-4.26-3.66-4.26c-2.7,0-3.84,2.43-4.05,4.26H206.643z"/>
	<path d="M224.973,379.282v17.549c0,1.29,0.06,2.76,0.12,3.75h-2.34l-0.12-2.52h-0.09c-0.78,1.619-2.52,2.85-4.89,2.85
		c-3.51,0-6.24-2.97-6.24-7.38c-0.03-4.83,3-7.77,6.51-7.77c2.25,0,3.72,1.05,4.379,2.189h0.06v-8.669H224.973z M222.363,391.972
		c0-0.33-0.03-0.78-0.12-1.11c-0.39-1.649-1.83-3.029-3.81-3.029c-2.73,0-4.35,2.399-4.35,5.579c0,2.94,1.47,5.37,4.29,5.37
		c1.77,0,3.39-1.2,3.87-3.15c0.09-0.359,0.12-0.72,0.12-1.14V391.972z"/>
	<path d="M238.923,382.582v3.479h3.78v2.01h-3.78v7.83c0,1.8,0.51,2.819,1.98,2.819c0.72,0,1.14-0.06,1.53-0.18l0.12,2.01
		c-0.51,0.181-1.32,0.36-2.34,0.36c-1.23,0-2.22-0.42-2.85-1.11c-0.72-0.81-1.02-2.1-1.02-3.81v-7.92h-2.25v-2.01h2.25v-2.7
		L238.923,382.582z"/>
	<path d="M258.633,393.201c0,5.37-3.75,7.71-7.23,7.71c-3.9,0-6.959-2.88-6.959-7.47c0-4.83,3.209-7.68,7.2-7.68
		C255.812,385.762,258.633,388.792,258.633,393.201z M247.143,393.352c0,3.18,1.8,5.579,4.38,5.579c2.52,0,4.41-2.369,4.41-5.64
		c0-2.46-1.23-5.55-4.35-5.55C248.493,387.741,247.143,390.621,247.143,393.352z"/>
	<path d="M268.593,400.581v-12.51h-2.01v-2.01h2.01v-0.689c0-2.04,0.48-3.9,1.68-5.07c0.99-0.96,2.31-1.35,3.539-1.35
		c0.961,0,1.74,0.21,2.25,0.42l-0.359,2.04c-0.391-0.181-0.9-0.33-1.68-0.33c-2.25,0-2.82,1.95-2.82,4.199v0.78h3.51v2.01h-3.51
		v12.51H268.593z"/>
	<path d="M277.083,390.592c0-1.71-0.03-3.181-0.12-4.53h2.311l0.119,2.88h0.09c0.66-1.95,2.28-3.18,4.051-3.18
		c0.27,0,0.479,0.03,0.719,0.06v2.49c-0.27-0.06-0.539-0.06-0.899-0.06c-1.86,0-3.18,1.38-3.54,3.359
		c-0.06,0.36-0.09,0.81-0.09,1.23v7.739h-2.64V390.592z"/>
	<path d="M296.943,397.102c0,1.26,0.06,2.489,0.209,3.479h-2.369l-0.211-1.83h-0.09c-0.81,1.14-2.369,2.16-4.439,2.16
		c-2.939,0-4.439-2.07-4.439-4.17c0-3.51,3.119-5.43,8.729-5.399v-0.301c0-1.17-0.33-3.359-3.3-3.329c-1.381,0-2.79,0.39-3.811,1.08
		l-0.6-1.771c1.2-0.75,2.971-1.26,4.8-1.26c4.44,0,5.521,3.03,5.521,5.91V397.102z M294.392,393.171
		c-2.879-0.06-6.149,0.45-6.149,3.271c0,1.739,1.14,2.52,2.46,2.52c1.92,0,3.15-1.2,3.57-2.43c0.09-0.3,0.119-0.6,0.119-0.84
		V393.171z"/>
	<path d="M311.552,400.071c-0.69,0.33-2.221,0.84-4.17,0.84c-4.381,0-7.23-2.97-7.23-7.41c0-4.47,3.061-7.739,7.8-7.739
		c1.56,0,2.94,0.39,3.66,0.78l-0.601,2.01c-0.629-0.33-1.619-0.69-3.06-0.69c-3.329,0-5.13,2.49-5.13,5.49
		c0,3.359,2.16,5.43,5.04,5.43c1.5,0,2.489-0.36,3.239-0.69L311.552,400.071z"/>
	<path d="M317.251,392.722h0.061c0.359-0.511,0.84-1.141,1.26-1.65l4.29-5.01h3.149l-5.58,5.97l6.391,8.55h-3.24l-4.979-6.96
		l-1.351,1.5v5.46h-2.609v-21.299h2.609V392.722z"/>
	<path d="M345.271,397.102c0,1.26,0.061,2.489,0.211,3.479h-2.371l-0.209-1.83h-0.09c-0.811,1.14-2.371,2.16-4.44,2.16
		c-2.94,0-4.44-2.07-4.44-4.17c0-3.51,3.121-5.43,8.73-5.399v-0.301c0-1.17-0.33-3.359-3.301-3.329c-1.379,0-2.789,0.39-3.809,1.08
		l-0.601-1.771c1.2-0.75,2.97-1.26,4.8-1.26c4.439,0,5.52,3.03,5.52,5.91V397.102z M342.722,393.171
		c-2.881-0.06-6.15,0.45-6.15,3.271c0,1.739,1.14,2.52,2.46,2.52c1.92,0,3.149-1.2,3.569-2.43c0.09-0.3,0.121-0.6,0.121-0.84
		V393.171z"/>
	<path d="M356.941,386.062l1.951,7.38c0.389,1.62,0.779,3.12,1.049,4.62h0.09c0.33-1.471,0.811-3.03,1.291-4.59l2.369-7.41h2.221
		l2.25,7.26c0.539,1.74,0.959,3.27,1.289,4.74h0.09c0.24-1.471,0.631-3,1.11-4.71l2.069-7.29h2.61l-4.68,14.52h-2.399l-2.221-6.93
		c-0.51-1.62-0.93-3.06-1.289-4.77h-0.061c-0.359,1.739-0.811,3.239-1.32,4.8l-2.34,6.899h-2.399l-4.38-14.52H356.941z"/>
	<path d="M379.141,393.802c0.06,3.569,2.31,5.039,4.979,5.039c1.891,0,3.061-0.33,4.021-0.75l0.479,1.891
		c-0.93,0.42-2.55,0.93-4.859,0.93c-4.47,0-7.14-2.97-7.14-7.35s2.579-7.8,6.81-7.8c4.77,0,6,4.14,6,6.81
		c0,0.54-0.03,0.93-0.09,1.23H379.141z M386.88,391.911c0.031-1.649-0.689-4.26-3.659-4.26c-2.7,0-3.84,2.43-4.05,4.26H386.88z"/>
	<path d="M392.701,379.282h2.641v21.299h-2.641V379.282z"/>
	<path d="M399.781,379.282h2.64v21.299h-2.64V379.282z"/>
	<path d="M426.36,393.201c0,5.37-3.75,7.71-7.229,7.71c-3.9,0-6.96-2.88-6.96-7.47c0-4.83,3.21-7.68,7.2-7.68
		C423.54,385.762,426.36,388.792,426.36,393.201z M414.871,393.352c0,3.18,1.799,5.579,4.379,5.579c2.521,0,4.41-2.369,4.41-5.64
		c0-2.46-1.23-5.55-4.35-5.55C416.22,387.741,414.871,390.621,414.871,393.352z"/>
	<path d="M429.691,389.991c0-1.529-0.031-2.729-0.121-3.93h2.34l0.15,2.4h0.061c0.72-1.351,2.399-2.7,4.799-2.7
		c2.011,0,5.131,1.2,5.131,6.18v8.64h-2.641v-8.37c0-2.34-0.869-4.289-3.359-4.289c-1.71,0-3.061,1.229-3.54,2.699
		c-0.12,0.33-0.181,0.78-0.181,1.23v8.729h-2.639V389.991z"/>
	<path d="M456.689,400.071c-0.689,0.33-2.219,0.84-4.17,0.84c-4.379,0-7.229-2.97-7.229-7.41c0-4.47,3.059-7.739,7.799-7.739
		c1.561,0,2.939,0.39,3.66,0.78l-0.6,2.01c-0.631-0.33-1.621-0.69-3.061-0.69c-3.33,0-5.129,2.49-5.129,5.49
		c0,3.359,2.159,5.43,5.039,5.43c1.5,0,2.49-0.36,3.24-0.69L456.689,400.071z"/>
	<path d="M461.07,393.802c0.061,3.569,2.311,5.039,4.98,5.039c1.889,0,3.059-0.33,4.02-0.75l0.48,1.891
		c-0.93,0.42-2.551,0.93-4.861,0.93c-4.469,0-7.139-2.97-7.139-7.35s2.58-7.8,6.809-7.8c4.771,0,6,4.14,6,6.81
		c0,0.54-0.029,0.93-0.09,1.23H461.07z M468.81,391.911c0.029-1.649-0.689-4.26-3.66-4.26c-2.699,0-3.84,2.43-4.05,4.26H468.81z"/>
</g>
<g>
	<line fill="none" x1="351.909" y1="628.217" x2="286.51" y2="628.217"/>
	<polygon fill="#19162B" points="282.62,589.155 203.207,589.155 203.207,591.112 205.164,591.112 205.164,612.628 280.272,612.628 
		280.272,591.896 282.229,591.896 	"/>
	
		<line fill="none" stroke="#19162B" stroke-width="3" stroke-miterlimit="10" x1="261.313" y1="590.719" x2="249.579" y2="433.068"/>
	<line fill="none" stroke="#19162B" stroke-width="3" stroke-miterlimit="10" x1="242.928" y1="433.459" x2="242.928" y2="591.5"/>
	
		<line fill="none" stroke="#19162B" stroke-width="3" stroke-miterlimit="10" x1="223.143" y1="593.097" x2="236.053" y2="436.226"/>
	
		<line fill="none" stroke="#19162B" stroke-width="8" stroke-miterlimit="10" x1="262.668" y1="530.085" x2="222.878" y2="530.085"/>
	<rect x="231.944" y="431.894" fill="#19162B" width="22.116" height="5.087"/>
	<rect x="229.117" y="445.978" fill="#19162B" width="28.075" height="7.433"/>
	<rect x="229.809" y="458.104" fill="#19162B" width="26.209" height="1.955"/>
	<path fill="none" stroke="#19162B" stroke-width="3" stroke-miterlimit="10" d="M243.018,611.033v33.057
		c0,0-1.564,33.448,33.448,33.448s41.663,0.194,41.663,0.194"/>
	<polygon fill="#19162B" points="292.61,674.152 289.871,665.935 295.348,657.331 289.871,662.414 287.522,656.548 295.348,638.553 
		295.738,629.553 292.61,639.334 288.698,645.203 284.395,623.295 286.74,648.722 283.612,655.372 285.176,662.024 277.743,660.066 
		273.44,651.071 275.395,659.677 269.137,662.805 276.178,663.197 284.395,664.762 287.133,674.542 292.217,677.28 297.303,677.28 
		299.258,667.109 307.084,665.935 310.212,669.846 310.212,665.935 316.471,653.025 307.866,662.024 301.215,663.197 
		303.561,649.504 308.255,640.898 300.042,647.94 296.914,663.978 	"/>
	<polygon fill="#19162B" points="296.895,682.427 299.631,690.639 294.157,699.248 299.631,694.16 301.979,700.03 294.157,718.023 
		293.766,727.021 296.895,717.24 300.809,711.374 305.11,733.28 302.762,707.853 305.891,701.202 304.328,694.553 311.762,696.51 
		316.065,705.505 314.108,696.9 320.368,693.769 313.325,693.379 305.11,691.814 302.373,682.034 297.288,679.296 292.202,679.296 
		290.247,689.468 282.42,690.639 279.291,686.728 279.291,690.639 273.033,703.55 281.639,694.553 288.288,693.379 285.942,707.071 
		281.247,715.676 289.463,708.636 292.592,692.596 	"/>
</g>
<g enable-background="new    ">
	<path d="M335.033,249.75v17.159h-16.199V249.75h-45.958v-15.119l44.519-51.718h17.639v51.237h11.039v15.6H335.033z
		 M311.753,211.592l-11.999,14.039c-2.64,3.12-6.12,6.96-7.919,8.76c2.879,0,11.879-0.24,16.679-0.24h10.319v-13.68
		c0-4.8,0.359-15.239,0.359-18.358C317.634,204.272,314.513,208.352,311.753,211.592z"/>
</g>
<g enable-background="new    ">
	<path d="M268.148,328.304v-14.201c0-4.7-1.35-6.1-4.2-6.1c-2.851,0-4.25,1.399-4.25,5.95v14.351h-6.9v-14.201
		c0-4.7-1.35-6.1-4.2-6.1s-4.25,1.399-4.25,5.95v14.351h-6.9v-26.252h6.9v1.75c1.2-1.25,3-2.3,5.75-2.3c3.35,0,5.3,0.95,7.25,3.351
		c1.8-1.851,4-3.351,8.351-3.351c6.7,0,9.351,4.601,9.351,12.001v14.801H268.148z"/>
	<path d="M285.196,299.903c-2.149,0-3.95-1.801-3.95-3.95c0-2.15,1.801-3.95,3.95-3.95c2.15,0,3.95,1.8,3.95,3.95
		C289.146,298.102,287.346,299.903,285.196,299.903z M281.746,328.304v-26.252h6.9v26.252H281.746z"/>
	<path d="M295.845,328.304v-33.002l6.9-3.45v36.452H295.845z"/>
	<path d="M309.945,328.304v-33.002l6.9-3.45v36.452H309.945z"/>
	<path d="M327.496,299.903c-2.15,0-3.95-1.801-3.95-3.95c0-2.15,1.8-3.95,3.95-3.95s3.95,1.8,3.95,3.95
		C331.446,298.102,329.646,299.903,327.496,299.903z M324.045,328.304v-26.252h6.9v26.252H324.045z"/>
	<path d="M348.396,328.854c-6.851,0-11.852-5.601-11.852-13.65c0-8.051,5.001-13.701,11.852-13.701c6.85,0,11.9,5.65,11.9,13.701
		C360.296,323.253,355.246,328.854,348.396,328.854z M348.396,308.153c-3.301,0-4.851,3-4.851,7.051c0,4.05,1.55,7,4.851,7
		c3.3,0,4.9-3.35,4.9-7C353.296,311.204,351.696,308.153,348.396,308.153z"/>
	<path d="M381.496,328.304v-14.201c0-4.7-1.6-6.1-4.449-6.1c-2.851,0-4.501,1.399-4.501,5.95v14.351h-6.9v-26.252h6.9v1.75
		c1.2-1.25,3.4-2.3,6.15-2.3c6.7,0,9.7,4.601,9.7,12.001v14.801H381.496z"/>
</g>
</svg>
