<?xml version="1.0" encoding="utf-8"?>
<!-- Generator: Adobe Illustrator 15.1.0, SVG Export Plug-In . SVG Version: 6.00 Build 0)  -->
<!DOCTYPE svg PUBLIC "-//W3C//DTD SVG 1.1//EN" "http://www.w3.org/Graphics/SVG/1.1/DTD/svg11.dtd">
<svg version="1.1" id="Layer_1" xmlns="http://www.w3.org/2000/svg" xmlns:xlink="http://www.w3.org/1999/xlink" x="0px" y="0px"
	 width="536.378px" height="780.521px" viewBox="0 0 536.378 780.521" enable-background="new 0 0 536.378 780.521"
	 xml:space="preserve">
<rect x="165.537" y="232.964" fill="none" width="335.21" height="115.885"/>
<g enable-background="new    ">
	<path d="M175.405,313.152c0.44-26.4,16.61-37.84,35.42-46.09c6.6-2.86,8.69-5.94,8.69-9.24c0-3.96-3.41-7.811-12.65-7.811
		c-9.13,0-16.5,4.07-21.89,9.24l-9.9-11.55c8.14-8.25,19.03-12.76,31.24-12.76c18.26,0,28.6,7.369,28.6,22.109
		c0,12.431-6.71,17.82-19.8,23.87c-13.64,6.271-18.92,11.44-20.35,17.381h40.92v14.85H175.405z"/>
	<path d="M259.444,327.013h-10.34l1.65-32.45h17.93L259.444,327.013z"/>
	<path d="M309.273,314.362c-17.16,0-30.58-9.57-30.58-31.13c0-20.24,11.881-48.29,51.811-48.29v14.96
		c-17.82,0-29.15,6.27-33.551,18.04c4.951-3.301,9.791-4.84,17.601-4.84c15.29,0,27.17,7.81,27.17,24.859
		C341.723,305.122,327.423,314.362,309.273,314.362z M310.703,277.072c-10.449,0-16.06,3.52-16.06,11.55
		c0,7.15,5.28,11.44,15.29,11.44c10.23,0,16.17-4.4,16.17-11.551C326.103,280.702,320.383,277.072,310.703,277.072z"/>
	<path d="M384.183,314.362c-21.01,0-32.23-16.28-32.23-39.71c0-23.431,11.33-39.71,32.34-39.71s32.34,16.06,32.34,39.489
		C416.632,297.862,405.193,314.362,384.183,314.362z M384.183,250.012c-11.771,0-16.61,10.67-16.61,24.42
		c0,13.751,4.95,24.86,16.72,24.86c11.771,0,16.721-10.89,16.721-24.64S395.953,250.012,384.183,250.012z"/>
	<path d="M459.861,314.362c-21.01,0-32.229-16.28-32.229-39.71c0-23.431,11.33-39.71,32.341-39.71c21.01,0,32.34,16.06,32.34,39.489
		C492.312,297.862,480.872,314.362,459.861,314.362z M459.861,250.012c-11.77,0-16.609,10.67-16.609,24.42
		c0,13.751,4.95,24.86,16.721,24.86c11.77,0,16.719-10.89,16.719-24.64S471.632,250.012,459.861,250.012z"/>
</g>
<rect x="-19.884" y="411.235" fill="none" width="587.719" height="62.175"/>
<g enable-background="new    ">
	<path d="M113.673,429.056c0,1.26,0.06,2.489,0.21,3.479h-2.37l-0.21-1.83h-0.09c-0.81,1.14-2.37,2.16-4.44,2.16
		c-2.94,0-4.44-2.07-4.44-4.17c0-3.51,3.12-5.43,8.73-5.399v-0.301c0-1.17-0.33-3.359-3.3-3.329c-1.38,0-2.79,0.39-3.81,1.08
		l-0.6-1.771c1.2-0.75,2.97-1.26,4.8-1.26c4.44,0,5.52,3.03,5.52,5.91V429.056z M111.123,425.125c-2.88-0.06-6.15,0.45-6.15,3.271
		c0,1.739,1.14,2.52,2.46,2.52c1.92,0,3.15-1.2,3.57-2.43c0.09-0.3,0.12-0.6,0.12-0.84V425.125z"/>
	<path d="M117.933,421.945c0-1.529-0.06-2.729-0.12-3.93h2.31l0.12,2.37h0.09c0.81-1.38,2.16-2.67,4.59-2.67
		c1.95,0,3.45,1.2,4.08,2.91h0.06c0.45-0.84,1.05-1.44,1.65-1.891c0.87-0.659,1.8-1.02,3.18-1.02c1.95,0,4.8,1.26,4.8,6.3v8.52
		h-2.58v-8.189c0-2.82-1.05-4.47-3.15-4.47c-1.53,0-2.67,1.109-3.15,2.369c-0.12,0.391-0.21,0.841-0.21,1.32v8.97h-2.58v-8.699
		c0-2.311-1.02-3.96-3.03-3.96c-1.62,0-2.85,1.319-3.27,2.64c-0.15,0.36-0.21,0.84-0.21,1.29v8.729h-2.58V421.945z"/>
	<path d="M156.093,425.155c0,5.37-3.75,7.71-7.23,7.71c-3.9,0-6.959-2.88-6.959-7.47c0-4.83,3.209-7.68,7.2-7.68
		C153.272,417.716,156.093,420.746,156.093,425.155z M144.603,425.306c0,3.18,1.8,5.579,4.38,5.579c2.52,0,4.41-2.369,4.41-5.64
		c0-2.46-1.23-5.55-4.35-5.55C145.953,419.695,144.603,422.575,144.603,425.306z"/>
	<path d="M171.572,428.545c0,1.53,0.03,2.851,0.12,3.99h-2.34l-0.15-2.37h-0.06c-0.66,1.17-2.22,2.7-4.8,2.7
		c-2.28,0-5.01-1.29-5.01-6.359v-8.49h2.64v8.01c0,2.76,0.87,4.649,3.24,4.649c1.77,0,3-1.229,3.48-2.43
		c0.15-0.359,0.24-0.84,0.24-1.35v-8.88h2.64V428.545z"/>
	<path d="M175.953,421.945c0-1.529-0.03-2.729-0.12-3.93h2.34l0.15,2.4h0.06c0.72-1.351,2.4-2.7,4.8-2.7c2.01,0,5.13,1.2,5.13,6.18
		v8.64h-2.64v-8.37c0-2.34-0.87-4.289-3.36-4.289c-1.71,0-3.06,1.229-3.54,2.699c-0.12,0.33-0.18,0.78-0.18,1.23v8.729h-2.64
		V421.945z"/>
	<path d="M195.662,414.536v3.479h3.78v2.01h-3.78v7.83c0,1.8,0.51,2.819,1.98,2.819c0.72,0,1.14-0.06,1.53-0.18l0.12,2.01
		c-0.51,0.181-1.32,0.36-2.34,0.36c-1.23,0-2.22-0.42-2.85-1.11c-0.72-0.81-1.02-2.1-1.02-3.81v-7.92h-2.25v-2.01h2.25v-2.7
		L195.662,414.536z"/>
	<path d="M208.772,421.945c0-1.529-0.03-2.729-0.12-3.93h2.34l0.15,2.4h0.06c0.72-1.351,2.4-2.7,4.8-2.7c2.01,0,5.13,1.2,5.13,6.18
		v8.64h-2.64v-8.37c0-2.34-0.87-4.289-3.36-4.289c-1.71,0-3.06,1.229-3.54,2.699c-0.12,0.33-0.18,0.78-0.18,1.23v8.729h-2.64
		V421.945z"/>
	<path d="M226.892,425.756c0.06,3.569,2.31,5.039,4.98,5.039c1.89,0,3.06-0.33,4.02-0.75l0.48,1.891c-0.93,0.42-2.55,0.93-4.86,0.93
		c-4.47,0-7.14-2.97-7.14-7.35s2.58-7.8,6.81-7.8c4.77,0,6,4.14,6,6.81c0,0.54-0.03,0.93-0.09,1.23H226.892z M234.631,423.865
		c0.03-1.649-0.69-4.26-3.66-4.26c-2.7,0-3.84,2.43-4.05,4.26H234.631z"/>
	<path d="M241.921,425.756c0.06,3.569,2.31,5.039,4.98,5.039c1.89,0,3.06-0.33,4.02-0.75l0.48,1.891c-0.93,0.42-2.55,0.93-4.86,0.93
		c-4.47,0-7.14-2.97-7.14-7.35s2.58-7.8,6.81-7.8c4.77,0,6,4.14,6,6.81c0,0.54-0.03,0.93-0.09,1.23H241.921z M249.661,423.865
		c0.03-1.649-0.69-4.26-3.66-4.26c-2.7,0-3.84,2.43-4.05,4.26H249.661z"/>
	<path d="M267.991,411.236v17.549c0,1.29,0.06,2.76,0.12,3.75h-2.34l-0.12-2.52h-0.09c-0.78,1.619-2.52,2.85-4.89,2.85
		c-3.51,0-6.24-2.97-6.24-7.38c-0.03-4.83,3-7.77,6.51-7.77c2.25,0,3.72,1.05,4.379,2.189h0.06v-8.669H267.991z M265.381,423.926
		c0-0.33-0.03-0.78-0.12-1.11c-0.39-1.649-1.83-3.029-3.81-3.029c-2.73,0-4.35,2.399-4.35,5.579c0,2.94,1.47,5.37,4.29,5.37
		c1.77,0,3.39-1.2,3.87-3.15c0.09-0.359,0.12-0.72,0.12-1.14V423.926z"/>
	<path d="M273.871,425.756c0.061,3.569,2.311,5.039,4.98,5.039c1.891,0,3.061-0.33,4.02-0.75l0.48,1.891
		c-0.93,0.42-2.551,0.93-4.859,0.93c-4.471,0-7.141-2.97-7.141-7.35s2.58-7.8,6.811-7.8c4.77,0,5.999,4.14,5.999,6.81
		c0,0.54-0.03,0.93-0.09,1.23H273.871z M281.611,423.865c0.03-1.649-0.689-4.26-3.66-4.26c-2.699,0-3.84,2.43-4.049,4.26H281.611z"
		/>
	<path d="M299.941,411.236v17.549c0,1.29,0.06,2.76,0.119,3.75h-2.34l-0.119-2.52h-0.09c-0.78,1.619-2.521,2.85-4.891,2.85
		c-3.51,0-6.239-2.97-6.239-7.38c-0.03-4.83,2.999-7.77,6.51-7.77c2.249,0,3.72,1.05,4.38,2.189h0.06v-8.669H299.941z
		 M297.331,423.926c0-0.33-0.03-0.78-0.12-1.11c-0.39-1.649-1.83-3.029-3.81-3.029c-2.729,0-4.35,2.399-4.35,5.579
		c0,2.94,1.47,5.37,4.29,5.37c1.77,0,3.39-1.2,3.869-3.15c0.09-0.359,0.12-0.72,0.12-1.14V423.926z"/>
	<path d="M313.89,414.536v3.479h3.779v2.01h-3.779v7.83c0,1.8,0.51,2.819,1.98,2.819c0.72,0,1.14-0.06,1.529-0.18l0.12,2.01
		c-0.51,0.181-1.319,0.36-2.34,0.36c-1.229,0-2.22-0.42-2.85-1.11c-0.72-0.81-1.021-2.1-1.021-3.81v-7.92h-2.25v-2.01h2.25v-2.7
		L313.89,414.536z"/>
	<path d="M333.6,425.155c0,5.37-3.75,7.71-7.229,7.71c-3.9,0-6.96-2.88-6.96-7.47c0-4.83,3.21-7.68,7.2-7.68
		C330.78,417.716,333.6,420.746,333.6,425.155z M322.111,425.306c0,3.18,1.799,5.579,4.379,5.579c2.521,0,4.41-2.369,4.41-5.64
		c0-2.46-1.23-5.55-4.35-5.55C323.46,419.695,322.111,422.575,322.111,425.306z"/>
	<path d="M343.291,422.756c0-1.86-0.061-3.36-0.121-4.74h2.34l0.15,2.49h0.061c1.05-1.771,2.789-2.79,5.16-2.79
		c3.539,0,6.18,2.97,6.18,7.35c0,5.22-3.211,7.8-6.631,7.8c-1.92,0-3.6-0.84-4.469-2.28H345.9v7.89h-2.609V422.756z M345.9,426.625
		c0,0.391,0.029,0.75,0.12,1.08c0.479,1.83,2.069,3.09,3.96,3.09c2.789,0,4.41-2.279,4.41-5.609c0-2.88-1.531-5.37-4.32-5.37
		c-1.8,0-3.51,1.26-3.99,3.24c-0.09,0.33-0.18,0.72-0.18,1.05V426.625z"/>
	<path d="M360.359,422.546c0-1.71-0.029-3.181-0.119-4.53h2.31l0.12,2.88h0.09c0.66-1.95,2.279-3.18,4.05-3.18
		c0.271,0,0.479,0.03,0.72,0.06v2.49c-0.27-0.06-0.539-0.06-0.9-0.06c-1.859,0-3.18,1.38-3.539,3.359
		c-0.061,0.36-0.09,0.81-0.09,1.23v7.739h-2.641V422.546z"/>
	<path d="M383.009,425.155c0,5.37-3.75,7.71-7.23,7.71c-3.899,0-6.959-2.88-6.959-7.47c0-4.83,3.209-7.68,7.199-7.68
		C380.189,417.716,383.009,420.746,383.009,425.155z M371.519,425.306c0,3.18,1.801,5.579,4.381,5.579
		c2.52,0,4.409-2.369,4.409-5.64c0-2.46-1.229-5.55-4.35-5.55C372.87,419.695,371.519,422.575,371.519,425.306z"/>
	<path d="M398.849,411.236v17.549c0,1.29,0.06,2.76,0.119,3.75h-2.34l-0.119-2.52h-0.09c-0.78,1.619-2.521,2.85-4.891,2.85
		c-3.51,0-6.239-2.97-6.239-7.38c-0.03-4.83,2.999-7.77,6.51-7.77c2.249,0,3.72,1.05,4.38,2.189h0.06v-8.669H398.849z
		 M396.239,423.926c0-0.33-0.03-0.78-0.12-1.11c-0.39-1.649-1.83-3.029-3.81-3.029c-2.729,0-4.35,2.399-4.35,5.579
		c0,2.94,1.47,5.37,4.29,5.37c1.77,0,3.39-1.2,3.869-3.15c0.09-0.359,0.12-0.72,0.12-1.14V423.926z"/>
	<path d="M415.409,428.545c0,1.53,0.03,2.851,0.12,3.99h-2.34l-0.15-2.37h-0.06c-0.66,1.17-2.22,2.7-4.8,2.7
		c-2.28,0-5.01-1.29-5.01-6.359v-8.49h2.64v8.01c0,2.76,0.87,4.649,3.239,4.649c1.771,0,3-1.229,3.48-2.43
		c0.15-0.359,0.24-0.84,0.24-1.35v-8.88h2.64V428.545z"/>
	<path d="M430.138,432.025c-0.689,0.33-2.219,0.84-4.17,0.84c-4.379,0-7.229-2.97-7.229-7.41c0-4.47,3.059-7.739,7.799-7.739
		c1.561,0,2.939,0.39,3.66,0.78l-0.6,2.01c-0.631-0.33-1.621-0.69-3.061-0.69c-3.33,0-5.129,2.49-5.129,5.49
		c0,3.359,2.159,5.43,5.039,5.43c1.5,0,2.49-0.36,3.24-0.69L430.138,432.025z"/>
	<path d="M434.519,425.756c0.061,3.569,2.311,5.039,4.98,5.039c1.89,0,3.06-0.33,4.02-0.75l0.48,1.891
		c-0.931,0.42-2.551,0.93-4.86,0.93c-4.47,0-7.14-2.97-7.14-7.35s2.58-7.8,6.81-7.8c4.771,0,5.999,4.14,5.999,6.81
		c0,0.54-0.029,0.93-0.09,1.23H434.519z M442.259,423.865c0.029-1.649-0.69-4.26-3.66-4.26c-2.699,0-3.84,2.43-4.05,4.26H442.259z"
		/>
</g>
<g enable-background="new    ">
	<path d="M202.877,465.056c0,1.26,0.06,2.489,0.21,3.479h-2.37l-0.21-1.83h-0.09c-0.81,1.14-2.37,2.16-4.44,2.16
		c-2.94,0-4.44-2.07-4.44-4.17c0-3.51,3.12-5.43,8.73-5.399v-0.301c0-1.17-0.33-3.359-3.3-3.329c-1.38,0-2.79,0.39-3.81,1.08
		l-0.6-1.771c1.2-0.75,2.97-1.26,4.8-1.26c4.44,0,5.52,3.03,5.52,5.91V465.056z M200.327,461.125c-2.88-0.06-6.15,0.45-6.15,3.271
		c0,1.739,1.14,2.52,2.46,2.52c1.92,0,3.15-1.2,3.57-2.43c0.09-0.3,0.12-0.6,0.12-0.84V461.125z"/>
	<path d="M213.137,465.865c0.81,0.48,2.19,1.02,3.51,1.02c1.89,0,2.79-0.93,2.79-2.159c0-1.26-0.75-1.92-2.67-2.641
		c-2.64-0.96-3.87-2.369-3.87-4.109c0-2.34,1.92-4.26,5.01-4.26c1.47,0,2.76,0.39,3.54,0.899l-0.63,1.92
		c-0.57-0.359-1.62-0.869-2.97-0.869c-1.56,0-2.4,0.899-2.4,1.979c0,1.2,0.84,1.74,2.73,2.49c2.49,0.93,3.81,2.189,3.81,4.35
		c0,2.58-2.01,4.38-5.4,4.38c-1.59,0-3.06-0.42-4.08-1.021L213.137,465.865z"/>
	<path d="M228.316,449.936c0,0.9-0.63,1.62-1.68,1.62c-0.96,0-1.59-0.72-1.59-1.62c0-0.899,0.66-1.649,1.65-1.649
		C227.656,448.286,228.316,449.006,228.316,449.936z M225.376,468.535v-14.52h2.64v14.52H225.376z"/>
	<path d="M232.396,457.945c0-1.529-0.03-2.729-0.12-3.93h2.34l0.15,2.4h0.06c0.72-1.351,2.4-2.7,4.8-2.7c2.01,0,5.13,1.2,5.13,6.18
		v8.64h-2.64v-8.37c0-2.34-0.87-4.289-3.36-4.289c-1.71,0-3.06,1.229-3.54,2.699c-0.12,0.33-0.18,0.78-0.18,1.23v8.729h-2.64
		V457.945z"/>
	<path d="M261.466,466.405c0,3.359-0.69,5.37-2.07,6.66c-1.44,1.289-3.48,1.739-5.31,1.739c-1.74,0-3.66-0.42-4.83-1.2l0.66-2.039
		c0.96,0.63,2.459,1.17,4.26,1.17c2.7,0,4.68-1.41,4.68-5.101v-1.59h-0.06c-0.78,1.351-2.37,2.431-4.62,2.431
		c-3.6,0-6.18-3.061-6.18-7.08c0-4.92,3.209-7.68,6.569-7.68c2.52,0,3.87,1.29,4.53,2.49h0.06l0.09-2.19h2.34
		c-0.09,1.021-0.12,2.22-0.12,3.96V466.405z M258.826,459.745c0-0.449-0.03-0.84-0.15-1.17c-0.48-1.56-1.74-2.819-3.689-2.819
		c-2.52,0-4.32,2.13-4.32,5.489c0,2.851,1.47,5.22,4.29,5.22c1.65,0,3.12-1.02,3.66-2.699c0.15-0.45,0.21-0.96,0.21-1.41V459.745z"
		/>
	<path d="M265.816,447.236h2.64v21.299h-2.64V447.236z"/>
	<path d="M274.366,461.756c0.06,3.569,2.31,5.039,4.979,5.039c1.891,0,3.061-0.33,4.021-0.75l0.479,1.891
		c-0.93,0.42-2.55,0.93-4.859,0.93c-4.47,0-7.14-2.97-7.14-7.35s2.579-7.8,6.81-7.8c4.77,0,6,4.14,6,6.81
		c0,0.54-0.03,0.93-0.09,1.23H274.366z M282.105,459.865c0.031-1.649-0.689-4.26-3.659-4.26c-2.7,0-3.84,2.43-4.05,4.26H282.105z"/>
	<path d="M293.925,465.865c0.811,0.48,2.189,1.02,3.51,1.02c1.89,0,2.79-0.93,2.79-2.159c0-1.26-0.75-1.92-2.67-2.641
		c-2.64-0.96-3.87-2.369-3.87-4.109c0-2.34,1.92-4.26,5.01-4.26c1.471,0,2.76,0.39,3.54,0.899l-0.63,1.92
		c-0.57-0.359-1.62-0.869-2.971-0.869c-1.559,0-2.399,0.899-2.399,1.979c0,1.2,0.841,1.74,2.729,2.49
		c2.49,0.93,3.811,2.189,3.811,4.35c0,2.58-2.01,4.38-5.4,4.38c-1.59,0-3.06-0.42-4.08-1.021L293.925,465.865z"/>
	<path d="M309.345,450.536v3.479h3.779v2.01h-3.779v7.83c0,1.8,0.51,2.819,1.979,2.819c0.72,0,1.14-0.06,1.53-0.18l0.119,2.01
		c-0.51,0.181-1.319,0.36-2.34,0.36c-1.229,0-2.219-0.42-2.85-1.11c-0.72-0.81-1.02-2.1-1.02-3.81v-7.92h-2.25v-2.01h2.25v-2.7
		L309.345,450.536z"/>
	<path d="M317.384,461.756c0.061,3.569,2.311,5.039,4.98,5.039c1.891,0,3.061-0.33,4.02-0.75l0.48,1.891
		c-0.93,0.42-2.551,0.93-4.859,0.93c-4.471,0-7.141-2.97-7.141-7.35s2.58-7.8,6.811-7.8c4.77,0,5.999,4.14,5.999,6.81
		c0,0.54-0.03,0.93-0.09,1.23H317.384z M325.125,459.865c0.03-1.649-0.689-4.26-3.66-4.26c-2.699,0-3.84,2.43-4.049,4.26H325.125z"
		/>
	<path d="M341.144,465.056c0,1.26,0.061,2.489,0.211,3.479h-2.371l-0.209-1.83h-0.09c-0.811,1.14-2.371,2.16-4.44,2.16
		c-2.94,0-4.44-2.07-4.44-4.17c0-3.51,3.121-5.43,8.73-5.399v-0.301c0-1.17-0.33-3.359-3.301-3.329c-1.379,0-2.789,0.39-3.809,1.08
		l-0.601-1.771c1.2-0.75,2.97-1.26,4.8-1.26c4.439,0,5.52,3.03,5.52,5.91V465.056z M338.595,461.125
		c-2.881-0.06-6.15,0.45-6.15,3.271c0,1.739,1.14,2.52,2.46,2.52c1.92,0,3.149-1.2,3.569-2.43c0.09-0.3,0.121-0.6,0.121-0.84
		V461.125z"/>
	<path d="M348.015,460.676h0.06c0.36-0.511,0.84-1.141,1.26-1.65l4.29-5.01h3.15l-5.58,5.97l6.39,8.55h-3.24l-4.979-6.96l-1.35,1.5
		v5.46h-2.61v-21.299h2.61V460.676z"/>
</g>
<path fill="#19162B" d="M178.399,563.903v3.087c0,0,11.57,10.764,17.323,30.973c0.123,0.432,0.243,0.865,0.359,1.305
	c5.613,21.052,7.017,24.14,7.017,24.14s7.017,11.226,16.84,12.629l4.771,10.385c0,0,0.842,5.896,0,6.736
	c-0.842,0.842-3.648,12.63-3.648,12.63l-3.93,5.333l-0.28,2.245c0,0,4.21,3.294,16.84,1.928l1.403-3.893l1.684,0.562l6.456-1.965
	l2.245-1.403l3.087-0.842v-5.333c0,0-5.894-7.017-3.368-19.366l5.613-17.12h1.404c0,0,4.21-0.562,5.613-0.562
	c1.403,0,10.385,0.562,10.385,0.562l7.296,1.402l7.859,1.123c0,0,5.895,1.684,6.736,2.246c0.842,0.561,7.857,3.929,7.857,3.929
	s4.49-5.333,8.701-6.175s6.455-1.123,6.455-1.123l9.543-3.928c0,0,13.752-12.352,21.893-5.054c0,0,8.42,10.945-1.965,17.121
	c0,0,0.562,5.895,0,8.14c-0.562,2.246-2.525,10.815-2.525,10.815l-3.039,8.83c0,0-2.574,3.93-3.137,5.053
	c-0.561,1.123-3.93,7.312-3.93,7.312h7.065h6.688l4.062-0.333l1.27-5.015v-10.666l3.647-7.018l1.685-6.734l1.686-1.686l6.174,5.052
	c0,0-0.561,5.333,0,7.578c0.562,2.246,0,9.543,0,9.543l0.25,1.965v3.931l-2.775,3.383l-4.211,2.791c0,0,0.844,8.98,16.279,0
	l3.088-3.124c0,0,0.842-3.05,0-3.894c-0.843-0.842-1.123-3.087-1.402-4.21c-0.281-1.122-1.123-5.331-1.123-5.331v-7.429v-8.569
	v-3.089l1.965,3.931c0,0,3.648,5.332,4.21,6.174s4.21,3.93,4.21,3.93l2.807,0.281c0,0,1.123-3.369,1.684-4.491
	c0.562-1.122-0.561-5.052,0-5.894c0.562-0.842-1.684-8.701-1.684-8.701l-1.965-9.262l-1.684-8.701l-0.562-9.262l-1.123-8.701
	l-1.965-11.788l1.403-5.895l-0.28-11.227l-0.842-9.263l-0.562-10.386l-3.647-4.21c0,0-0.281-5.895-32.839-4.21l-31.996,2.78
	c0,0-26.383,0.814-28.348,0c-1.965-0.815-23.856-3.083-23.856-3.083s-9.823-4.469-10.666-4.749
	c-0.842-0.281-8.139-2.246-8.139-2.246l-11.788-2.525c0,0-13.472-10.666-36.487-9.262c0,0-6.736-3.088-2.246-5.613
	c0,0,3.368-3.368-4.771-3.088c0,0-7.803-2.769-13.635,0.752c-0.327,0.197-0.647,0.414-0.959,0.651c0,0-2.526-1.685-11.507-0.562
	c0,0-0.561,1.965,7.017,5.053c0,0-6.474-1.686-7.026,1.401c0,0-8.429,1.686,0,8.142c0,0,3.939,0,0.29,4.49l-4.036,5.052
	l-4.945,3.087l-2.526,3.93l-1.684,3.368l1.684,5.333l3.087,0.842l3.929,1.685l6.175-0.28l6.456,3.087l4.49,2.246
	C169.979,565.588,174.189,565.868,178.399,563.903z"/>
</svg>
