<?xml version="1.0" encoding="utf-8"?>
<!-- Generator: Adobe Illustrator 15.1.0, SVG Export Plug-In . SVG Version: 6.00 Build 0)  -->
<!DOCTYPE svg PUBLIC "-//W3C//DTD SVG 1.1//EN" "http://www.w3.org/Graphics/SVG/1.1/DTD/svg11.dtd">
<svg version="1.1" id="Layer_1" xmlns="http://www.w3.org/2000/svg" xmlns:xlink="http://www.w3.org/1999/xlink" x="0px" y="0px"
	 width="77.333px" height="108.667px" viewBox="0 0 77.333 108.667" enable-background="new 0 0 77.333 108.667"
	 xml:space="preserve">
<g id="_x32_vb4RQ_1_">
	<g>
		<path fill-rule="evenodd" clip-rule="evenodd" d="M45.257,10.579c5.108,2.079,11.311,4.983,15.9,7.988
			c4.815,3.157,5.336,13.858,6.644,18.993c1.784,6.968,3.627,13.905,5.599,20.822c3.679,12.878,4.896,27.54-1.046,39.989
			c-2.441,5.125-10.726,7.119-16.143,8.381c-2.877,0.666-5.785,0.911-8.734,0.748c-1.772-0.666-4.319-6.2-6.778-3.545
			c-5.982,6.45-11.228,3.235-19.117,1.594c-6.169-1.284-11.33-0.853-15.124-6.421c-6.795-9.979-4.842-24.965-4.276-36.199
			c0.599-11.907-0.59-31.744,9.984-39.443C17.739,19.43,27.112,15.406,28.76,9c0.994-3.854-1.422-5.961,3.434-6.782
			c3.871-0.651,7.976-0.324,11.833,0.243C44.221,3.245,45.392,10.375,45.257,10.579z M51.901,36.653
			c0.769,4.112,0.999,11.608,5.423,13.874c5.826,2.989,3.636-12.174,3.303-14.154c-0.657-3.872-1.442-10.329-4.792-13.002
			C48.347,22.566,51.133,32.572,51.901,36.653C52.587,40.334,50.771,30.643,51.901,36.653z"/>
	</g>
</g>
<text transform="matrix(1 0 0 1 12.5107 72.3115)" fill="#F5F5F5" font-family="'Interstate-Bold'" font-size="11.7884">12 Billion</text>
<rect x="-265.333" y="356.333" fill="#6ABDC4" width="31" height="31"/>
</svg>
