<?xml version="1.0" encoding="utf-8"?>
<!-- Generator: Adobe Illustrator 15.1.0, SVG Export Plug-In . SVG Version: 6.00 Build 0)  -->
<!DOCTYPE svg PUBLIC "-//W3C//DTD SVG 1.1//EN" "http://www.w3.org/Graphics/SVG/1.1/DTD/svg11.dtd">
<svg version="1.1" id="Layer_1" xmlns="http://www.w3.org/2000/svg" xmlns:xlink="http://www.w3.org/1999/xlink" x="0px" y="0px"
	 width="536.378px" height="780.521px" viewBox="0 0 536.378 780.521" enable-background="new 0 0 536.378 780.521"
	 xml:space="preserve">
<g>
	<path fill="#6ABCC3" d="M330.795,47.392l-2.106,10.53c18.959,9.479,17.903,17.903,17.903,17.903
		c20.01,5.263,109.521,70.558,109.521,70.558c43.176,28.433,43.176,48.442,43.176,48.442
		c50.553,211.678,34.752,419.134,34.752,419.134c-26.328,106.364-67.396,119.005-67.396,119.005
		C435.049,754.024,331.852,779.3,331.852,779.3c-36.861,7.373-57.922-21.062-57.922-21.062c-20.01-28.435-41.069,0-41.069,0
		c-16.853,31.595-57.922,15.798-57.922,15.798c-17.903-3.157-101.101-38.964-101.101-38.964
		c-61.081-27.384-73.72-130.586-73.72-130.586c-1.052-20.011,5.267-153.751,5.267-153.751
		c4.915-23.522,67.401-314.881,67.401-314.881c12.635-31.595,121.105-69.508,121.105-69.508v-5.267
		c7.373-1.051,12.637-6.318,12.637-6.318l1.055-4.212l-3.161-6.318l8.424-12.636l2.175-18.333l100.026,15.161L330.795,47.392z
		 M163.352,163.23c0,0-30.543-35.806-51.604,10.534c0,0-23.17,112.683-9.479,171.655c0,0,5.267,15.797,15.798,7.373l11.584-4.212
		C129.651,348.581,139.13,358.056,163.352,163.23z"/>
	<path fill="#19152B" d="M210.215,35.279c0,0,45.303,0.528,111.104,0.528V0H212.368L210.215,35.279z"/>
</g>
<rect x="56.69" y="386.761" fill="none" width="434" height="82"/>
<text transform="matrix(1 0 0 1 72.1382 408.6309)"><tspan x="0" y="0" font-family="'Interstate-Regular'" font-size="30">number of gallons the United </tspan><tspan x="53.969" y="36" font-family="'Interstate-Regular'" font-size="30">States uses each day</tspan></text>
<text transform="matrix(1 0 0 1 206.8838 288.8154)" font-family="'Interstate-Bold'" font-size="120">400</text>
<text transform="matrix(1 0 0 1 260.418 350.21)" font-family="'Interstate-Bold'" font-size="50">billion</text>
<path fill="#19162B" d="M415.859,537.077c-1.018-0.161-1.264,0.705-1.941,0c0.26-1.123-0.482-1.243-0.322-2.268
	c-0.857-0.002-1.85,0.123-2.268-0.321c-0.537-3.453-1.908-6.072-2.586-9.385c-1.279-0.015-1.877-0.712-2.914-0.972
	c-0.795,0.715-1.418,1.603-2.588,1.943c-0.912-0.06-0.402-1.539-1.617-1.295c-1.273,3.123-3.541,8.061-1.939,11.972
	c-0.832,1.325-1.697,2.616-1.617,4.854c-1.162-0.269-1.566,0.729-2.268,0c-0.32,0.975-0.238,2.349-1.293,2.588
	c-3.355,0.596-7.104,2.102-10.68,2.912c-1.711,0.391-3.492,0.104-4.852,0.972c-1.571,1.001-2.114,3.308-3.236,4.853
	c-0.777,1.074-2.388,1.24-1.939,2.911c1.494,0.52,1.214,2.253,1.293,3.237c-3.053,4.398-8.731,2.256-13.59,4.529
	c0.094,1.526,1.066,2.17,1.619,3.233c-4.17,5.646-10.184,9.447-16.824,12.621c-1.026-1.348-4.278-0.471-4.854-2.266
	c1.682-1.61,1.355-6.02,3.881-5.824c-0.312-4.217-0.865-8.193-3.557-10.031c-2.121,0.254-1.832,2.916-3.562,3.561
	c-1.289,0.212-0.927-1.229-0.97-2.266c3.707-0.957,1.22-6.677,1.941-8.412c-0.854,0.099-0.835-0.676-0.972-1.295
	c-3.486-0.016-6.469-3.886-8.412-0.323c-0.283,1.041,1.066,0.442,0.972,1.296c-1.12-0.257-1.366,0.357-1.94,0.646
	c-0.246,1.967,0.883,3.299-0.972,3.56c-0.495-1.555,1.374-2.773,0-3.236c-2.972,3.254-3.132,6.713-3.56,12.295
	c3.605,3.488,2.535,12.218-2.266,13.59c-6.777-6.092-2.979-18.624-1.294-25.561c-1.313,1.6-2.668,4.877-4.206,5.176
	c1.088-3.117,3.061-5.352,3.883-8.736c2.771,0.708,4.35-1.382,7.764-2.262c2.878,0.473,5.418-0.028,7.441-0.324
	c-1.463-0.262-1.861-1.59-1.617-3.56c-1.728,0.049-3.017,1.349-4.527,0.646c0-0.646,0-1.293,0-1.94
	c-4.713,0.524-7.154,3.562-11.324,2.912c-0.548-2.62-4.252-3.158-5.178-1.94c0.496-2.091,2.188-2.989,3.234-4.53
	c-3.195,0.039-4.322,2.147-5.824,3.884c-2.211,1.237-4.783,2.118-6.793,3.56c-0.346-1.224-1.92,0.011-2.267-0.648
	c0.288-0.682,0.985-0.953,0.972-1.938c-1.658-0.614-3.787,2.626-6.146,1.294c2.359-1.31,3.322-4.25,5.5-5.824
	c1.828-1.322,4.49-1.064,5.824-3.235c-1.906-0.377-4.943-0.133-6.148-1.295c-1.671,1.725-5.054,1.543-5.5-0.646
	c-2.779,0.854-5.129-3.112-7.765-0.648c-1.341-0.491-2.337-1.332-4.206-1.294c-1.412-0.962-0.085-4.66-2.588-4.529
	c-0.741,0.337,0.152,2.311-0.648,2.59c-47.918,0.895-88.372-7.4-124.889-16.824c1.502,2.368,0.14,5.231,0.646,7.117
	c-1.54-1.228-0.774-2.246-0.646-3.236c-1.303-0.224-0.795,1.363-1.942,1.295c-3.327-0.555-5.158-2.606-7.765-3.883
	c-0.235,3.015-0.509,8.061,0.971,10.354c-0.564-0.024-1.007,0.074-1.295,0.324c-0.346,1.208,0.804,0.921,0.647,1.941
	c-1.336,0.848-1.817,2.518-0.323,3.233c-1.04-0.282-0.67,0.841-1.294,0.972c-2.248,7.354-4.87,14.326-9.061,19.735
	c0.088,1.922-0.353,3.315-0.646,4.855c1.938,5.014-2.356,8.954-3.883,12.616c3.65,2.319,0.257,6.584,0.647,9.708
	c0.169,1.35,2.48,3.396,2.588,5.5c0.105,2.055,0.302,2.693,1.618,3.883c-1.71,2.771-0.041,6.367,1.942,7.44
	c-0.179,1.115-1.488,1.101-1.618,2.267c0.132,4.25,4.253,7.623,4.529,11.324c0.127,1.705-1.549,2.938-0.323,4.529
	c5.662-0.163,6.275,4.725,10.353,6.146c0.193,1.031-0.608,1.001,0,1.616c3.768,0.87,5.108,4.167,4.854,9.06
	c3.967,1.426,9.424,1.359,13.912,2.267c-0.004,0.644-0.883,0.41-0.647,1.293c5.088,2.51,9.875,5.979,14.559,8.736
	c6.036,3.555,13.164,4.42,22.325,5.5c0.165-1.13,0.147-2.441,0.647-3.234c3.159,0.509,6.253,1.078,9.708,1.294
	c2.24,2.829,3.948,6.188,7.441,7.767c1.828,1.952,1.248,4.075,1.94,6.795c0.917,3.591,5.469,4.435,8.412,6.47
	c2.314-1.463,2.021-5.529,5.502-5.823c6.852,0.805,10.201,5.112,11.324,11.647c2.333,1.226,2.93,4.188,5.176,5.498
	c-1.427,8.145,7.746,10.13,13.267,11.326c-1.021-4.308-0.795-8.568-0.324-13.265c5.461-3.71,12.115-6.224,16.502-11.004
	c4.606-3.852,12.716-0.996,17.474-0.972c-0.185-1.816-2.167-0.057-2.59-1.291c2.028-1.88,3.644,1.275,5.5,1.616
	c0.071,0.611-0.363,0.715-0.324,1.294c1.128,0.492,2.009,1.229,3.56,1.294c0.803-0.602,1.217-1.588,2.59-1.616
	c1.068,0.646-0.805,1.382,0,1.616c2.563-0.796,0.576-2.466,2.588-3.236c0.486,1.542,4.843,3.592,5.178,1.295
	c-0.908-1.247-3.591-0.725-4.206-2.263c1.015-0.854,2.293-1.141,1.618-3.56c-1.438-0.145-0.803,1.786-2.59,1.294
	c1.441-3.851,4.814-3.364,9.384-3.56c0.638-0.549,0.12-2.252,1.296-2.266c0.676,0.534,1.562,2.369,0.322,2.911
	c5.347-1.745,13.135-3.178,15.854,1.942c2.866-0.241,5.479-1.424,5.824-3.236c5.537-0.577,5.184,4.74,9.705,5.179
	c2.711,2.206-0.377,8.233,2.266,10.353c0.793-0.902-0.246-2.179,0-2.267c0.484,0.058,1.193-0.115,1.295,0.326
	c0.135,1.535-1.223,1.582-1.295,2.91c1.684,1.874,3.045,4.073,4.207,6.47c0.914,0.271,0.838-0.454,1.617-0.322
	c0.661,1.065,1.006,2.443,1.617,3.56c2.841-0.648,4.055,2.457,4.854,4.854c1.229-0.397,3.348-1.601,4.205-1.294
	c-0.431,1.948-3.668,2.798-3.559,4.208c2.255-1.63,4.324-3.442,4.854-6.796c-1.15-0.505-0.195,1.1-0.972,0.972
	c2.445-8.48-2.229-14.29-5.176-19.416c0.003-0.642,0.882-0.409,0.646-1.294c-4.896-4.383-10.06-13.165-7.115-21.676
	c0.685-1.979,2.871-3.09,2.91-5.176c3.082-1.02,3.883-4.314,6.473-5.824c-0.186-4.283,2.145-6.054,5.822-6.472
	c-0.287-6.408,7.897-5.188,8.09-9.384c-0.254,0.566-2.801,0.964-3.236,0c1.352,1.08,2.258-1.735,0.973-2.264
	c2.092,0.601,4.334-0.339,4.527-2.59c-0.516-0.886-1.975,0.755-2.586-0.324c1.148,0.073,1.938-0.218,2.264-0.97l-0.162-0.486
	l0.484,0.162c-1.374-2.077-2.473-4.429-3.559-6.796c-0.735,0.005-1.562-0.085-2.047,0.167c1.287-1.067-1.486-2.324-0.864-3.077
	c0.323,0,0.384,0.263,0.646,0.323c-0.187-2.402-0.904-4.271-2.586-5.178c0.869,0.224,0.625-0.668,0.971-0.97
	c-2.248-1.438-2.597-7.44-0.324-7.768c-1.467,1.354,0.937,2.973-0.645,4.531c1.449,0.02,0.531,0.461,0.645,2.264
	c1.723,0.113,1.369,2.3,2.589,2.912c0.474-1.149-1.04-1.938-0.324-2.264c3.396,1.192-0.622,5.926,1.942,7.766
	c0.643-4.175,3.64-8.093,1.938-12.62c-2.267-0.644-2.591-3.23-3.882-4.851c0.877,1.276,2.119,2.192,4.206,2.262
	c0.134,0.781-0.591,0.705-0.324,1.619c2.433-2.297,4.351-6.527,3.238-11.326c-0.386-0.793-1.224,0.665-1.62-0.322
	c0.66-0.096,0.637-0.875,1.296-0.971l-0.161-0.875l0.485-0.742c2.284-4.617,8.948-4.853,12.94-7.766
	c0.404-0.969-0.154-1.617,1.293-1.941c0.186,1.048-0.096,1.627-0.645,1.941c1.469-0.797,2.174-2.355,4.205-2.588
	c-0.049-1.678-0.504-2.949-2.266-2.912c0.154,1.033,1.658,0.713,1.617,1.94c-2.799,2.479-3.369-3.011-5.5-2.266
	c0.199-2.854-0.166-6.76,1.295-11.001c1.799,0.311,3.014-1.657,4.529-2.588c0.234-1.122-0.354-3.069,0-3.235
	c0.381,0.484,1.346,0.381,1.293,1.295c-0.768,0.486-1.193,0.491-0.646,1.616c1.629-0.387,0.875-2.605,1.939-3.558
	c-0.09,0.844-0.105,1.62,0.973,1.294c0.613-1.906-0.391-0.903-0.646-1.942C414.093,544.429,418.853,539.498,415.859,537.077z"/>
<text transform="matrix(1 0 0 1 205.7808 621.6016)" fill="#6BBDC4" font-family="'Interstate-Regular'" font-size="41.7067">2</text>
<text transform="matrix(1 0 0 1 232.1807 621.6016)" fill="#6BBDC4" font-family="'Interstate-Regular'" font-size="41.7067">4</text>
<text transform="matrix(1 0 0 1 259.999 621.6016)" fill="#6BBDC4" font-family="'Interstate-Regular'" font-size="41.7067"> </text>
<text transform="matrix(1 0 0 1 271.2593 621.6016)" fill="#6BBDC4" font-family="'Interstate-Regular'" font-size="41.7067">h</text>
<text transform="matrix(1 0 0 1 295.0308 621.6016)" fill="#6BBDC4" font-family="'Interstate-Regular'" font-size="41.7067">r</text>
<text transform="matrix(1 0 0 1 312.4644 621.6016)" fill="#6BBDC4" font-family="'Interstate-Regular'" font-size="41.7067">s</text>
</svg>
