<?xml version="1.0" encoding="utf-8"?>
<!-- Generator: Adobe Illustrator 15.1.0, SVG Export Plug-In . SVG Version: 6.00 Build 0)  -->
<!DOCTYPE svg PUBLIC "-//W3C//DTD SVG 1.1//EN" "http://www.w3.org/Graphics/SVG/1.1/DTD/svg11.dtd">
<svg version="1.1" id="Layer_1" xmlns="http://www.w3.org/2000/svg" xmlns:xlink="http://www.w3.org/1999/xlink" x="0px" y="0px"
	 width="536.378px" height="780.521px" viewBox="0 0 536.378 780.521" enable-background="new 0 0 536.378 780.521"
	 xml:space="preserve">
<g>
	<path fill="#6ABCC3" d="M330.795,47.392l-2.106,10.53c18.959,9.479,17.903,17.903,17.903,17.903
		c20.01,5.263,109.521,70.558,109.521,70.558c43.176,28.433,43.176,48.442,43.176,48.442
		c50.553,211.678,34.752,419.134,34.752,419.134c-26.328,106.364-67.396,119.005-67.396,119.005
		C435.049,754.024,331.852,779.3,331.852,779.3c-36.861,7.373-57.922-21.062-57.922-21.062c-20.01-28.435-41.069,0-41.069,0
		c-16.853,31.595-57.922,15.798-57.922,15.798c-17.903-3.157-101.101-38.964-101.101-38.964
		c-61.081-27.384-73.72-130.586-73.72-130.586c-1.052-20.011,5.267-153.751,5.267-153.751
		c4.915-23.522,67.401-314.881,67.401-314.881c12.635-31.595,121.105-69.508,121.105-69.508v-5.267
		c7.373-1.051,12.637-6.318,12.637-6.318l1.055-4.212l-3.161-6.318l8.424-12.636l2.175-18.333l100.026,15.161L330.795,47.392z
		 M163.352,163.23c0,0-30.543-35.806-51.604,10.534c0,0-23.17,112.683-9.479,171.655c0,0,5.267,15.797,15.798,7.373l11.584-4.212
		C129.651,348.581,139.13,358.056,163.352,163.23z"/>
	<path fill="#19152B" d="M210.215,35.279c0,0,45.303,0.528,111.104,0.528V0H212.368L210.215,35.279z"/>
</g>
<text transform="matrix(1 0 0 1 226.5635 288.8154)" font-family="'Interstate-Bold'" font-size="120">149 </text>
<text transform="matrix(1 0 0 1 252.7188 350.21)" font-family="'Interstate-Bold'" font-size="50">trillion</text>
<path fill="#19162B" d="M425.351,530.967c-1.129-0.18-1.4,0.781-2.152,0c0.289-1.246-0.533-1.377-0.357-2.512
	c-0.949,0-2.047,0.139-2.51-0.357c-0.596-3.823-2.113-6.727-2.865-10.395c-1.418-0.014-2.078-0.787-3.227-1.076
	c-0.883,0.792-1.57,1.773-2.867,2.152c-1.01-0.062-0.445-1.704-1.793-1.435c-1.408,3.46-3.922,8.931-2.148,13.261
	c-0.92,1.469-1.881,2.897-1.791,5.376c-1.289-0.295-1.734,0.81-2.51,0c-0.355,1.078-0.266,2.603-1.434,2.866
	c-3.717,0.659-7.867,2.329-11.828,3.229c-1.896,0.43-3.869,0.113-5.375,1.076c-1.74,1.105-2.342,3.659-3.584,5.375
	c-0.863,1.188-2.645,1.37-2.15,3.225c1.656,0.572,1.346,2.494,1.435,3.584c-3.382,4.873-9.672,2.499-15.053,5.019
	c0.103,1.69,1.183,2.401,1.792,3.581c-4.619,6.254-11.278,10.463-18.637,13.979c-1.137-1.492-4.738-0.521-5.375-2.509
	c1.861-1.784,1.502-6.667,4.3-6.451c-0.347-4.671-0.96-9.075-3.94-11.108c-2.35,0.281-2.027,3.228-3.943,3.941
	c-1.428,0.231-1.027-1.363-1.074-2.509c4.105-1.062,1.351-7.396,2.15-9.317c-0.945,0.107-0.926-0.75-1.076-1.434
	c-3.862-0.019-7.164-4.308-9.317-0.361c-0.313,1.151,1.183,0.493,1.075,1.438c-1.24-0.284-1.514,0.396-2.149,0.716
	c-0.272,2.18,0.978,3.653-1.075,3.94c-0.549-1.721,1.521-3.07,0-3.584c-3.291,3.605-3.47,7.438-3.942,13.621
	c3.993,3.862,2.808,13.531-2.509,15.051c-7.508-6.746-3.299-20.628-1.435-28.312c-1.456,1.771-2.954,5.399-4.659,5.732
	c1.205-3.453,3.391-5.928,4.303-9.679c3.068,0.784,4.816-1.53,8.6-2.506c3.188,0.523,6.001-0.031,8.242-0.357
	c-1.62-0.292-2.062-1.763-1.79-3.941c-1.914,0.053-3.343,1.491-5.017,0.715c0-0.715,0-1.435,0-2.151
	c-5.221,0.583-7.926,3.946-12.545,3.229c-0.606-2.904-4.709-3.498-5.733-2.152c0.55-2.313,2.422-3.311,3.583-5.018
	c-3.54,0.045-4.788,2.381-6.452,4.303c-2.449,1.371-5.3,2.346-7.524,3.943c-0.383-1.357-2.125,0.01-2.51-0.72
	c0.319-0.757,1.092-1.059,1.076-2.147c-1.838-0.681-4.196,2.908-6.811,1.434c2.613-1.451,3.682-4.709,6.094-6.451
	c2.023-1.465,4.975-1.181,6.451-3.586c-2.111-0.416-5.478-0.146-6.812-1.433c-1.853,1.909-5.599,1.707-6.093-0.715
	c-3.079,0.943-5.682-3.45-8.602-0.72c-1.484-0.545-2.586-1.475-4.658-1.433c-1.563-1.065-0.094-5.164-2.866-5.019
	c-0.821,0.371,0.17,2.558-0.72,2.865c-53.078,0.992-97.886-8.196-138.335-18.636c1.664,2.624,0.154,5.796,0.715,7.886
	c-1.706-1.356-0.857-2.488-0.715-3.586c-1.444-0.245-0.882,1.511-2.152,1.435c-3.686-0.615-5.714-2.888-8.602-4.301
	c-0.26,3.34-0.564,8.93,1.076,11.471c-0.625-0.028-1.116,0.079-1.435,0.356c-0.384,1.341,0.89,1.021,0.717,2.151
	c-1.48,0.938-2.013,2.786-0.358,3.581c-1.152-0.312-0.743,0.93-1.433,1.076c-2.49,8.145-5.395,15.87-10.036,21.863
	c0.097,2.127-0.391,3.672-0.715,5.375c2.146,5.557-2.61,9.919-4.302,13.976c4.043,2.571,0.285,7.295,0.717,10.755
	c0.188,1.496,2.747,3.762,2.866,6.091c0.116,2.276,0.335,2.984,1.792,4.304c-1.895,3.066-0.045,7.052,2.152,8.241
	c-0.198,1.235-1.648,1.219-1.792,2.51c0.146,4.706,4.711,8.443,5.016,12.542c0.141,1.892-1.716,3.259-0.357,5.019
	c6.271-0.181,6.951,5.233,11.468,6.809c0.213,1.143-0.673,1.11,0,1.791c4.173,0.966,5.658,4.616,5.377,10.036
	c4.393,1.579,10.438,1.508,15.41,2.511c-0.005,0.711-0.979,0.453-0.717,1.433c5.636,2.78,10.938,6.622,16.127,9.676
	c6.686,3.938,14.581,4.896,24.728,6.094c0.182-1.253,0.163-2.707,0.717-3.585c3.5,0.565,6.927,1.197,10.752,1.435
	c2.481,3.134,4.373,6.856,8.242,8.603c2.025,2.162,1.384,4.517,2.15,7.527c1.015,3.978,6.058,4.911,9.317,7.167
	c2.563-1.621,2.239-6.126,6.095-6.452c7.59,0.894,11.299,5.664,12.543,12.903c2.584,1.355,3.245,4.64,5.733,6.09
	c-1.581,9.02,8.58,11.221,14.693,12.546c-1.129-4.771-0.88-9.491-0.357-14.693c6.049-4.108,13.418-6.893,18.278-12.188
	c5.104-4.265,14.084-1.104,19.354-1.075c-0.203-2.013-2.398-0.062-2.868-1.43c2.247-2.083,4.036,1.412,6.093,1.79
	c0.08,0.677-0.402,0.791-0.358,1.434c1.249,0.545,2.225,1.36,3.942,1.435c0.887-0.667,1.346-1.761,2.867-1.791
	c1.184,0.715-0.891,1.529,0,1.791c2.842-0.883,0.639-2.731,2.866-3.585c0.54,1.706,5.362,3.977,5.735,1.433
	c-1.008-1.381-3.979-0.801-4.659-2.505c1.122-0.948,2.54-1.265,1.792-3.942c-1.592-0.16-0.889,1.979-2.868,1.434
	c1.597-4.266,5.332-3.728,10.394-3.942c0.707-0.607,0.135-2.495,1.437-2.509c0.749,0.59,1.731,2.624,0.356,3.224
	c5.922-1.933,14.551-3.519,17.561,2.152c3.176-0.269,6.07-1.576,6.452-3.585c6.134-0.64,5.741,5.25,10.751,5.735
	c3.002,2.443-0.418,9.12,2.509,11.467c0.878-0.999-0.272-2.412,0-2.51c0.536,0.062,1.321-0.128,1.435,0.36
	c0.148,1.701-1.354,1.753-1.435,3.225c1.864,2.075,3.372,4.513,4.659,7.166c1.014,0.3,0.929-0.503,1.793-0.356
	c0.73,1.18,1.113,2.707,1.79,3.941c3.147-0.718,4.491,2.722,5.376,5.376c1.359-0.44,3.708-1.772,4.658-1.434
	c-0.478,2.158-4.063,3.1-3.941,4.661c2.498-1.805,4.791-3.814,5.377-7.527c-1.275-0.559-0.217,1.218-1.074,1.075
	c2.707-9.394-2.471-15.828-5.734-21.506c0.004-0.711,0.978-0.454,0.716-1.433c-5.423-4.855-11.144-14.583-7.884-24.013
	c0.759-2.189,3.182-3.422,3.225-5.732c3.415-1.128,4.303-4.778,7.17-6.451c-0.205-4.744,2.375-6.705,6.449-7.166
	c-0.316-7.102,8.749-5.747,8.961-10.396c-0.281,0.63-3.104,1.065-3.585,0c1.496,1.194,2.501-1.922,1.076-2.509
	c2.317,0.666,4.802-0.375,5.017-2.866c-0.57-0.981-2.188,0.836-2.865-0.36c1.273,0.083,2.146-0.239,2.508-1.072l-0.18-0.538
	l0.537,0.177c-1.521-2.301-2.738-4.902-3.941-7.525c-0.814,0.006-1.729-0.095-2.268,0.184c1.426-1.18-1.646-2.572-0.958-3.408
	c0.359,0,0.427,0.292,0.716,0.357c-0.207-2.658-1.004-4.728-2.865-5.732c0.963,0.246,0.692-0.74,1.074-1.076
	c-2.488-1.593-2.875-8.241-0.356-8.604c-1.626,1.503,1.034,3.294-0.718,5.021c1.606,0.021,0.59,0.512,0.718,2.507
	c1.905,0.125,1.515,2.548,2.866,3.228c0.523-1.272-1.152-2.146-0.359-2.509c3.762,1.322-0.688,6.565,2.15,8.604
	c0.713-4.627,4.031-8.965,2.148-13.979c-2.511-0.716-2.869-3.582-4.3-5.377c0.972,1.416,2.349,2.434,4.659,2.506
	c0.146,0.868-0.654,0.781-0.359,1.795c2.695-2.544,4.818-7.229,3.588-12.546c-0.428-0.878-1.355,0.735-1.795-0.357
	c0.73-0.104,0.705-0.968,1.436-1.075l-0.18-0.969l0.539-0.822c2.529-5.114,9.912-5.375,14.334-8.6
	c0.447-1.076-0.172-1.795,1.434-2.152c0.205,1.16-0.107,1.803-0.717,2.152c1.627-0.885,2.408-2.609,4.66-2.867
	c-0.057-1.858-0.559-3.269-2.51-3.227c0.17,1.145,1.836,0.791,1.791,2.15c-3.102,2.745-3.732-3.335-6.092-2.509
	c0.221-3.162-0.188-7.488,1.434-12.188c1.994,0.344,3.338-1.836,5.018-2.866c0.26-1.242-0.393-3.396,0-3.582
	c0.42,0.535,1.488,0.42,1.434,1.434c-0.85,0.538-1.322,0.546-0.717,1.791c1.807-0.431,0.971-2.888,2.148-3.941
	c-0.1,0.937-0.117,1.794,1.078,1.433c0.678-2.108-0.436-0.999-0.719-2.15C423.394,539.109,428.667,533.646,425.351,530.967z"/>
<text transform="matrix(1 0 0 1 209.2764 624.2207)" fill="#6BBDC4" font-family="'Interstate-Regular'" font-size="39.0903">1</text>
<text transform="matrix(1 0 0 1 222.6455 624.2207)" fill="#6BBDC4" font-family="'Interstate-Regular'" font-size="39.0903"> </text>
<text transform="matrix(1 0 0 1 233.1992 624.2207)" fill="#6BBDC4" font-family="'Interstate-Regular'" font-size="39.0903">y</text>
<text transform="matrix(1 0 0 1 254.9336 624.2207)" fill="#6BBDC4" font-family="'Interstate-Regular'" font-size="39.0903">e</text>
<text transform="matrix(1 0 0 1 276.5884 624.2207)" fill="#6BBDC4" font-family="'Interstate-Regular'" font-size="39.0903">a</text>
<text transform="matrix(1 0 0 1 298.0884 624.2207)" fill="#6BBDC4" font-family="'Interstate-Regular'" font-size="39.0903">r</text>
<rect x="56.69" y="386.761" fill="none" width="434" height="82"/>
<text transform="matrix(1 0 0 1 72.1382 408.6309)"><tspan x="0" y="0" font-family="'Interstate-Regular'" font-size="30">number of gallons the United </tspan><tspan x="47.939" y="36" font-family="'Interstate-Regular'" font-size="30">States uses each year</tspan></text>
</svg>
