<?xml version="1.0" encoding="utf-8"?>
<!-- Generator: Adobe Illustrator 15.1.0, SVG Export Plug-In . SVG Version: 6.00 Build 0)  -->
<!DOCTYPE svg PUBLIC "-//W3C//DTD SVG 1.1//EN" "http://www.w3.org/Graphics/SVG/1.1/DTD/svg11.dtd">
<svg version="1.1" id="Layer_1" xmlns="http://www.w3.org/2000/svg" xmlns:xlink="http://www.w3.org/1999/xlink" x="0px" y="0px"
	 width="536.378px" height="780.521px" viewBox="0 0 536.378 780.521" enable-background="new 0 0 536.378 780.521"
	 xml:space="preserve">
<rect x="163.537" y="201.337" fill-rule="evenodd" clip-rule="evenodd" fill="none" width="335.21" height="91.324"/>
<text transform="matrix(1 0 0 1 232.623 288.8154)" font-family="'Interstate-Bold'" font-size="120">8.5</text>
<rect x="-19.884" y="404.235" fill="none" width="587.72" height="62.157"/>
<text transform="matrix(1 0 0 1 50.4648 425.5352)"><tspan x="0" y="0" font-family="'MyriadPro-Regular'" font-size="30">total volume of tanks in the Georgia </tspan><tspan x="34.079" y="36" font-family="'MyriadPro-Regular'" font-size="30">Aquarium, largest in the world</tspan></text>
<rect x="189.037" y="313.761" fill="none" width="284.211" height="50.877"/>
<text transform="matrix(1 0 0 1 252.4434 350.2104)" font-family="'Interstate-Bold'" font-size="50">million</text>
<g>
	<path fill="#19162B" d="M137.009,541.39c0,0,53.229-6.493,102.564-2.597c0,0,79.192,11.035,90.879,9.736
		c0,0,42.193,3.896,80.491-5.844v144.759H137.009V541.39z M366.929,619.613c0,0-20.431-24.883-81.01-28.7
		c0,0-0.889-21.233-10.481-24.219c0,0-9.416,23.392-15.812,28.366c0,0-29.134,5.973-36.596,6.803l-1.065-2.323
		c0,0-3.376,3.153-4.264,3.485c-0.891,0.332-15.279,2.155-15.279,2.155s-14.924-24.883-21.673-29.196c0,0,4.795,28.037,3.73,30.689
		c0,0-7.817,23.392-10.481,24.72c0,0,10.836-1.825,24.515-18.58c0,0,2.844-3.649,14.036,1.991v3.647c0,0,4.796-0.332,5.687-1.657
		l8.882,2.157l-6.22,5.475l13.325-0.666c0,0,6.928-0.329,8.527,6.637c0,0,1.954,0.83,3.553-1.325l5.863,2.321
		c0,0-25.229,8.792-37.841,11.78c0,0-0.888,2.155,16.167,1.159c0,0,23.271-2.653,34.996-7.465c0,0,17.41,6.804,41.394,5.642
		c0,0,15.99,12.275,15.811,14.431c0,0,8.527,0.498-0.532-15.759c0,0,19.897-0.83,25.583-8.958
		C347.742,632.224,363.729,631.892,366.929,619.613z"/>
	<polyline fill="none" stroke="#19162B" stroke-miterlimit="10" points="410.943,687.444 410.943,507.634 137.009,507.634 
		137.009,687.444 	"/>
</g>
</svg>
