<?xml version="1.0" encoding="utf-8"?>
<!-- Generator: Adobe Illustrator 15.1.0, SVG Export Plug-In . SVG Version: 6.00 Build 0)  -->
<!DOCTYPE svg PUBLIC "-//W3C//DTD SVG 1.1//EN" "http://www.w3.org/Graphics/SVG/1.1/DTD/svg11.dtd">
<svg version="1.1" xmlns="http://www.w3.org/2000/svg" xmlns:xlink="http://www.w3.org/1999/xlink" x="0px" y="0px"
	 width="536.378px" height="780.521px" viewBox="0 0 536.378 780.521" enable-background="new 0 0 536.378 780.521"
	 xml:space="preserve">
<g id="Layer_2">
	<g>
		<path fill="#6ABCC3" d="M330.795,47.392l-2.106,10.53c18.959,9.479,17.903,17.903,17.903,17.903
			c20.01,5.263,109.521,70.558,109.521,70.558c43.176,28.433,43.176,48.442,43.176,48.442
			c50.553,211.678,34.752,419.134,34.752,419.134c-26.328,106.364-67.396,119.005-67.396,119.005
			C435.049,754.024,331.852,779.3,331.852,779.3c-36.861,7.373-57.922-21.062-57.922-21.062c-20.01-28.435-41.069,0-41.069,0
			c-16.853,31.595-57.922,15.798-57.922,15.798c-17.903-3.157-101.101-38.964-101.101-38.964
			c-61.081-27.384-73.72-130.586-73.72-130.586c-1.052-20.011,5.267-153.751,5.267-153.751
			c4.915-23.522,67.401-314.881,67.401-314.881c12.635-31.595,121.105-69.508,121.105-69.508v-5.267
			c7.373-1.051,12.637-6.318,12.637-6.318l1.055-4.212l-3.161-6.318l8.424-12.636l2.175-18.333l100.026,15.161L330.795,47.392z
			 M163.352,163.23c0,0-30.543-35.806-51.604,10.534c0,0-23.17,112.683-9.479,171.655c0,0,5.267,15.797,15.798,7.373l11.584-4.212
			C129.651,348.581,139.13,358.056,163.352,163.23z"/>
		<path fill="#19152B" d="M210.215,35.279c0,0,45.303,0.528,111.104,0.528V0H212.368L210.215,35.279z"/>
	</g>
	<rect x="56.69" y="386.761" fill="none" width="434" height="82"/>
	<text transform="matrix(1 0 0 1 75.1978 408.6309)"><tspan x="0" y="0" font-family="'Interstate-Regular'" font-size="30">number of gallons estimated </tspan><tspan x="32.175" y="36" font-family="'Interstate-Regular'" font-size="30">to be in the atmosphere</tspan></text>
</g>
<g id="Layer_1">
	<text transform="matrix(1 0 0 1 227.6436 288.8154)" font-family="'Interstate-Bold'" font-size="120">341</text>
	<text transform="matrix(1 0 0 1 206.4434 350.21)" font-family="'Interstate-Bold'" font-size="50">quadrillion</text>
	<g>
		<circle fill="#19162B" cx="-344.495" cy="503.446" r="29.611"/>
		<polygon fill="#19162B" points="-336.766,470.666 -353.083,470.666 -344.924,450.343 		"/>
		<polygon fill="#19162B" points="-327.035,475.248 -316.154,486.127 -305.563,465.73 		"/>
		<polygon fill="#19162B" points="-312.146,511.318 -312.146,495.573 -291.249,503.445 		"/>
		<polygon fill="#19162B" points="-316.298,521.051 -327.035,531.931 -305.563,541.376 		"/>
		<polygon fill="#19162B" points="-336.766,535.937 -353.083,535.937 -344.924,557.979 		"/>
		<polygon fill="#19162B" points="-361.958,531.214 -372.55,519.904 -383.714,541.376 		"/>
		<polygon fill="#19162B" points="-376.809,511.318 -376.618,495.573 -397.278,503.445 		"/>
		<polygon fill="#19162B" points="-361.958,474.675 -372.836,486.127 -381.709,465.73 		"/>
	</g>
	<path fill="#6ABCC3" d="M332.856,566.558c2.801-5.677,4.381-12.063,4.381-18.82c0-23.545-19.088-42.632-42.634-42.632
		c-12.946,0-24.537,5.78-32.356,14.894c-6.888-4.78-15.246-7.587-24.264-7.587c-23.545,0-42.63,19.087-42.63,42.631
		c0,2.676,0.259,5.292,0.73,7.831c-21.448,2.229-38.174,20.357-38.174,42.398c0,23.543,19.087,42.63,42.63,42.63
		c10.4,0,19.926-3.729,27.327-9.918c7.537,6.732,17.479,10.83,28.383,10.83c13.081,0,24.782-5.897,32.601-15.174
		c7.782,10.323,20.143,17.001,34.066,17.001c23.543,0,42.63-19.088,42.63-42.63C365.545,587.892,351.603,571.039,332.856,566.558z"
		/>
</g>
</svg>
