<?xml version="1.0" encoding="utf-8"?>
<!-- Generator: Adobe Illustrator 15.1.0, SVG Export Plug-In . SVG Version: 6.00 Build 0)  -->
<!DOCTYPE svg PUBLIC "-//W3C//DTD SVG 1.1//EN" "http://www.w3.org/Graphics/SVG/1.1/DTD/svg11.dtd">
<svg version="1.1" id="Layer_1" xmlns="http://www.w3.org/2000/svg" xmlns:xlink="http://www.w3.org/1999/xlink" x="0px" y="0px"
	 width="536.378px" height="780.521px" viewBox="0 0 536.378 780.521" enable-background="new 0 0 536.378 780.521"
	 xml:space="preserve">
<g>
	<g>
		<path fill="#6ABCC3" d="M329.795,47.392l-2.106,10.53c18.959,9.479,17.903,17.903,17.903,17.903
			c20.01,5.263,109.521,70.558,109.521,70.558c43.176,28.433,43.176,48.442,43.176,48.442
			c50.553,211.678,34.752,419.134,34.752,419.134c-26.328,106.364-67.396,119.005-67.396,119.005
			C434.049,754.024,330.852,779.3,330.852,779.3c-36.861,7.373-57.922-21.062-57.922-21.062c-20.01-28.435-41.069,0-41.069,0
			c-16.853,31.595-57.922,15.798-57.922,15.798c-17.903-3.157-101.101-38.964-101.101-38.964
			c-61.081-27.384-73.72-130.586-73.72-130.586c-1.052-20.011,5.267-153.751,5.267-153.751
			C9.3,427.212,71.786,135.853,71.786,135.853c12.635-31.595,121.105-69.508,121.105-69.508v-5.267
			c7.373-1.051,12.637-6.318,12.637-6.318l1.055-4.212l-3.161-6.318l8.424-12.636l2.175-18.333l100.026,15.161L329.795,47.392z
			 M162.352,163.23c0,0-30.543-35.806-51.604,10.534c0,0-23.17,112.683-9.479,171.655c0,0,5.267,15.797,15.798,7.373l11.584-4.212
			C128.651,348.581,138.13,358.056,162.352,163.23z"/>
	</g>
	<path fill="#19152B" d="M209.215,35.279c0,0,45.303,0.528,111.104,0.528V0H211.368L209.215,35.279z"/>
</g>
<text transform="matrix(1 0 0 1 166.3301 298.5732)" font-family="'Interstate-Bold'" font-size="90">20,000 </text>
<rect x="32.689" y="390.261" fill="none" width="468" height="66.5"/>
<text transform="matrix(1 0 0 1 61.1626 412.1309)"><tspan x="0" y="0" font-family="'Interstate-Regular'" font-size="30">number of gallons an average </tspan><tspan x="0.239" y="36" font-family="'Interstate-Regular'" font-size="30">person drinks in their lifetime</tspan></text>
<g>
	<path fill="#19162B" d="M208.331,613.545v67.512c-0.628,6.599-8.161,6.599-8.161,6.599c-6.594-0.945-7.855-6.285-7.855-6.285
		V566.45c-1.572-4.086-3.45,0-3.45,0v41.133c-0.633,5.025-6.288,5.025-6.288,5.025c-5.649-0.945-6.272-5.025-6.272-5.025V558.91
		c3.455-17.271,17.271-16.644,17.271-16.644h16.327h0.633h16.316c0,0,13.826-0.627,17.275,16.644v48.672c0,0-0.633,4.08-6.287,5.025
		c0,0-5.65,0-6.272-5.025v-41.133c0,0-1.888-4.086-3.46,0v114.92c0,0-1.256,5.34-7.845,6.285c0,0-7.543,0-8.155-6.599v-67.512
		C212.107,613.545,210.375,609.621,208.331,613.545z"/>
	<path fill="#19162B" d="M223.718,523.744c0,7.106-5.764,12.877-12.876,12.877c-7.112,0-12.876-5.771-12.876-12.877
		c0-7.107,5.764-12.871,12.876-12.871C217.954,510.873,223.718,516.637,223.718,523.744z"/>
</g>
<path fill="#19162B" d="M279.468,549.275c0,0,53.675-16.808,107.348,1.627l-11.385,101.383
	c-51.309,15.147-84.094-1.205-84.094-1.205l-11.387-101.383 M337.729,562.336c0,0-29.992,32.422-26.181,57.906
	c0,0,2.947,18.377,21.853,18.377c0,0,20.111,1.822,21.667-23.271c0,0,0.352-10.532-9.361-25.793
	C345.707,589.555,338.08,578.287,337.729,562.336z"/>
</svg>
