<?xml version="1.0" encoding="utf-8"?>
<!-- Generator: Adobe Illustrator 15.1.0, SVG Export Plug-In . SVG Version: 6.00 Build 0)  -->
<!DOCTYPE svg PUBLIC "-//W3C//DTD SVG 1.1//EN" "http://www.w3.org/Graphics/SVG/1.1/DTD/svg11.dtd">
<svg version="1.1" id="Layer_1" xmlns="http://www.w3.org/2000/svg" xmlns:xlink="http://www.w3.org/1999/xlink" x="0px" y="0px"
	 width="536.378px" height="780.521px" viewBox="0 0 536.378 780.521" enable-background="new 0 0 536.378 780.521"
	 xml:space="preserve">
<g>
	<g>
		<path fill="#6ABCC3" d="M329.795,47.392l-2.106,10.53c18.959,9.479,17.903,17.903,17.903,17.903
			c20.01,5.263,109.521,70.558,109.521,70.558c43.176,28.433,43.176,48.442,43.176,48.442
			c50.553,211.678,34.752,419.134,34.752,419.134c-26.328,106.364-67.396,119.005-67.396,119.005
			C434.049,754.024,330.852,779.3,330.852,779.3c-36.861,7.373-57.922-21.062-57.922-21.062c-20.01-28.435-41.069,0-41.069,0
			c-16.853,31.595-57.922,15.798-57.922,15.798c-17.903-3.157-101.101-38.964-101.101-38.964
			c-61.081-27.384-73.72-130.586-73.72-130.586c-1.052-20.011,5.267-153.751,5.267-153.751
			C9.3,427.212,71.786,135.853,71.786,135.853c12.635-31.595,121.105-69.508,121.105-69.508v-5.267
			c7.373-1.051,12.637-6.318,12.637-6.318l1.055-4.212l-3.161-6.318l8.424-12.636l2.175-18.333l100.026,15.161L329.795,47.392z
			 M162.352,163.23c0,0-30.543-35.806-51.604,10.534c0,0-23.17,112.683-9.479,171.655c0,0,5.267,15.797,15.798,7.373l11.584-4.212
			C128.651,348.581,138.13,358.056,162.352,163.23z"/>
	</g>
	<path fill="#19152B" d="M209.215,35.279c0,0,45.303,0.528,111.104,0.528V0H211.368L209.215,35.279z"/>
</g>
<text transform="matrix(1 0 0 1 211.6836 288.8154)" font-family="'Interstate-Bold'" font-size="120">326 </text>
<rect x="32.689" y="381.761" fill="none" width="468" height="82"/>
<text transform="matrix(1 0 0 1 126.2461 403.6309)" font-family="'Interstate-Regular'" font-size="30">total water on Earth</text>
<text transform="matrix(1 0 0 1 213.1182 350.21)" font-family="'Interstate-Bold'" font-size="50">quintillion</text>
<path fill="#19162B" d="M372.468,586.821c0,58.921-47.772,106.693-106.699,106.693c-58.934,0-106.703-47.772-106.703-106.693
	c0-58.936,47.769-106.702,106.703-106.702C324.695,480.119,372.468,527.887,372.468,586.821z M284.898,533.004h-1.225l-0.354-0.866
	l-0.69,2.101c-5.101-0.179-4.752-2.809-4.752-2.809l-2.109-0.702h2.471l-0.184-1.229c-2.109-1.753-7.547,3.337-7.547,3.337
	c0-1.579,4.742-5.09,4.742-5.09c8.779,0.522,9.131-2.109,9.131-2.109c3.328,0,1.752-3.333,1.752-3.333l-1.406-0.184l-1.053-0.696
	l-2.457,1.4l1.928-2.808l-4.906-1.58l1.053-0.88l-4.92-4.031c0.346,2.63-1.758,2.45-1.758,2.45l-1.05-0.875l-1.411-1.229l0.174-1.06
	c-1.753,0-3.685-1.932-3.685-1.932l-4.044,0.529c1.415,4.219-1.397,4.219-1.397,4.219c6.146,4.387-1.232,5.613-1.232,5.613
	c1.588,0.347,1.232,3.339,1.232,3.339s-0.178,1.054-0.699,1.578c-0.534,0.534-1.411-0.167-1.411-0.167l-1.401-2.646l-1.233-2.461
	c0,0,1.757,0,0.882,0c-0.882,0-7.026-3.149-7.026-3.149l-2.105-0.707l0.876-1.931l-1.405-1.056l0.529-1.927l1.753-0.707l2.63-1.932
	l3.866-1.931l-0.876,1.931l1.758,0.347l1.579-0.697c0,0,2.638,1.4,2.638,0.352c0-1.06-4.92-2.808-4.92-2.808l0.524-0.882
	l3.689-0.178l0.351-1.047c0.343-2.107-2.459-1.588-2.459-1.588c-0.348,1.688-2.284,1.764-2.284,1.764l-0.347-2.11l-1.229,0.704
	l-0.534-3.159l-2.099,0.698l0.876,1.584l-0.876,1.406h-0.886l0.356-2.11l-0.877,0.175l-0.529,0.872l-0.877,0.886l-2.103-0.174
	l-1.763-0.882c0,0-0.877,0-1.401,0c-0.53,0-0.704,1.401-0.704,1.401l-0.346-1.055h-1.763l-0.877-1.574
	c-0.876-3.688-8.605-3.511-8.605-3.511v-1.585c-1.054-0.704-0.168-2.979-0.168-2.979l-5.451,0.346
	c-1.225-0.177-2.981,2.808-2.981,2.808l-0.882-1.23l-2.282,1.23c0.352,2.987-4.035,2.283-4.035,2.283
	c-2.11,0.183-5.442,4.214-5.442,4.214c0,2.108-7.555,2.812-7.555,2.812l3.689-0.177l3.337-0.872l3.16-1.229l3.332-0.355
	c0,0,0.351,1.409,0.351,2.457c0,1.059,0,1.405,0,1.936c0,0.523,0.535,1.05,0.535,1.579c0,0.524-0.708,1.401-0.708,1.401
	l-0.698,2.282l-0.886,2.112l-0.872,1.575l-0.525,1.936l-0.876,1.229l0.347,0.877l1.054,1.578v1.412l-0.168,0.872l-1.233,0.352
	h-1.055l-1.229,2.461c0,0,1.575,0,0,0.703c-1.588,0.697-5.62,7.371-5.62,7.371l-0.529,1.412l-0.881,10.006
	c2.639,1.045,2.11,3.684,2.11,3.684v5.792c2.985,4.22-0.348,3.518-0.348,3.518l0.525,0.87c3.155,2.816,1.579,5.973,1.579,5.973
	c0.881,0.355,3.164,3.693,3.164,3.693l0.343-1.056l-1.576-2.812l-0.182-1.928l-0.688-3.159l-0.179-1.938l-0.177-1.407l-0.704-1.399
	v-1.402l0.522-2.46l1.054,0.881l0.173,1.229v1.575l1.068,1.578l0.516,2.287l0.526,1.229l0.711,1.055l0.343,1.229l-0.521,1.404
	l0.521,1.057l0.881,0.88l1.406,1.581l0.702,2.633l0.352,2.451l-0.179,1.581l0.877,1.761l1.406,1.401l1.411,1.4
	c0,0,1.921,1.59,2.456,2.288c0.521,0.703,2.982,2.109,2.982,2.109s2.984,1.405,3.514,1.223c0.525-0.177,2.63-0.352,2.63-0.352
	l2.638,1.405l2.982,3.338h1.227l1.936,0.184c2.11,2.451,3.685,0.521,3.685,0.521l0.881,1.935l1.054,0.877l0.708,3.688
	c0,0,1.046,1.224,1.402,0.524c0.346-0.704,3.413,2.894,3.413,2.894l1.503,0.62l1.93,1.402l1.402,0.886l0.173-1.415l1.229-0.873
	l1.231-0.701l0.877,1.401l2.109,8.075c0,2.817-2.853,1.998-2.853,1.998c-0.739,4.456-2.419,2.575-2.419,2.575
	c0.355,3.149-1.023,5.049-1.023,5.049l1.731-0.141v2.455l-2.108,1.406l-1.703,2.295c0,0,5.917,3.681,5.917,5.789
	c0,2.104,4.216,7.362,4.216,7.362v2.11l10.533,5.268c1.41,10.189-3.861,17.567-3.861,17.567c1.054,10.888-3.165,8.422-3.165,8.422
	l-0.342,6.149l2.45-1.585l-1.756,5.971v3.16l2.469,2.812l7.016-1.761c-8.43-0.696,1.402-5.264,1.402-5.264l-1.402-1.756l2.109-1.579
	l0.352-2.282h4.216l1.403-2.111l7.373-3.161l-1.059-3.507l5.971,1.404l9.832-9.832l0.357-3.861l7.377-5.273
	c11.229,0,11.229-15.799,11.229-15.799c8.429-8.075,7.73-14.402,7.73-14.402l-2.807-0.348l-4.215-2.46l-7.031,1.05l-1.053-2.108
	l-2.103-1.041h-1.752l-2.461,1.393l0.698-2.446h-1.754l-1.758,2.096l1.055,1.757l-3.157-2.104l1.752-3.158l1.758-1.755l-0.352-1.757
	l-1.406-1.405l-3.513-2.104l-2.106-0.707h-2.454l-2.105-0.347l-1.412-0.354l-1.4-1.756l-2.113-2.11c0,0-2.807-1.054-4.561-1.404
	c-1.752-0.349-1.932-2.503-1.932-2.503l-3.689,0.743l-2.104,0.356h-1.752c0,0-3.521-2.108-5.976-2.812c-2.458-0.698-1.758,0-2.809,0
	c-1.054,0-2.109,0.352-2.109,0.352h-1.397l-2.469,0.702l-0.351,1.758l-2.101,2.461v2.104l-2.108-1.4l-1.406-1.763l-2.105,1.763
	h-2.108c0,0-1.402-0.704-2.457-1.763c-1.054-1.052-1.054-1.402-1.054-1.402l-1.407-2.108v-2.808l0.352-3.164l-1.753-2.099
	l-1.757,0.351h-1.406l-3.511-1.766v-1.397l1.056-1.758l1.751-2.1l0.704-2.114v-1.758l-5.971,0.352l-2.108,4.565l-5.616-0.353
	c-3.862-2.104-2.105-13.69-2.105-13.69l1.406-1.406v-1.761l1.055-2.105l3.232-0.515c1.479-0.516,7.998,2.273,7.998,2.273
	l-1.402-2.812c0,0,0,0,0-1.051c0-1.061,9.131,1.051,9.131,1.051l1.405,1.4l1.055,2.108l0.702,1.757l0.7,2.108l0.354,2.457
	l2.101-0.703l0.708-2.804v-3.167l-1.762-3.854l0.708-2.117l2.105-2.446l3.167-1.41l2.448-2.11c-1.398-1.405-0.694-5.966-0.694-5.966
	l1.758,1.748c0.341-5.608,7.016-5.259,6.67-7.372c-0.356-2.104,6.322-5.259,6.322-5.259l-1.056,2.804l1.754,0.351l1.761-1.404
	l2.45-1.749l1.406-0.704L284.898,533.004z M293.16,511.765c0-1.057-1.406-2.99-1.406-2.99l-0.174-1.752
	c-1.578-1.755-0.184-2.278-0.184-2.278c1.934-0.175,1.061-2.987,1.061-2.987c2.81-0.702,1.224-3.341,1.224-3.341l-2.101-0.169
	l1.226-1.06h-2.457l-2.283-1.229c1.229-2.46-2.808-2.283-2.808-2.283v-0.881c0,0-0.877-0.52-1.584-0.692
	c-0.696-0.183-3.688-2.466-3.688-2.466l-2.106,0.173L277,490.519l-0.877-1.057l-3.154-0.173l-0.881,2.283h-1.057l-1.227-0.709
	l-1.406,2.636l-2.104,0.876l2.456,0.877h-2.288l1.406,1.059c6.322,0,8.43,3.16,8.43,3.16s-5.619-0.175,0.179,0.707
	c5.793,0.876,2.985,3.856,2.985,3.856l3.164,2.986l1.045,0.174v0.711l5.441,3.68l1.232-0.173
	C292.634,513.169,293.16,511.765,293.16,511.765z M270.326,509.307l3.866,1.053c1.06-0.877-1.054-2.453-1.054-2.453
	c-4.037-0.711-2.457-2.113-2.457-2.113l3.511,1.759l1.406-1.936l-5.792-2.102l0.701-1.055l-1.049-0.529l-1.761-1.229
	c-1.754,0-3.512-1.937-3.512-1.937s-2.108-0.173-3.164-0.173c-1.054,0-1.575,1.761-1.575,1.761v-2.284h-0.886l-1.05,0.879
	l-0.352,0.872v1.232l1.054,0.702l0.527,1.226l-2.284,1.763l0.703,1.049l3.689-0.177l0.351-1.047l-0.88-0.534l0.702-0.697
	l-1.575-0.877l3.333,0.173l0.352-0.702c5.97,2.812,2.812,4.743,2.812,4.743v0.693l-3.688,0.184l0.343,1.05l3.698,0.174l1.223,1.236
	l2.808,1.224h1.764L270.326,509.307z M266.295,579.015l-8.255-4.039l-0.881-0.175c0,0-5.615-2.983-8.426,0.349l4.912-0.693
	l-0.175,1.045l8.254,2.812l-1.405,1.573L266.295,579.015z M266.295,582.526c0,0,2.104-0.175,2.99-0.175
	c0.866,0,2.446,1.056,2.446,1.056l1.406-1.056l3.692-0.351l-3.34-2.115h-4.919C271.732,582.354,266.295,582.526,266.295,582.526z
	 M305.275,491.74l-1.4-0.877l-2.11-0.87l-1.931,0.351h-0.887c0,0,12.121,6.496,12.824,7.727c0.699,1.227,2.109,2.983,2.109,2.983
	s3.338,2.114,4.381,2.283c1.055,0.178,2.293,0.697,2.293,0.697l-2.109-2.456l7.195,4.739l-5.268-4.911c0,0-12.47-6.324-12.814-7.73
	c-0.352-1.399,9.482,4.57,9.482,4.57l-0.354-1.237l3.867,2.635l4.383,3.693l1.756,1.752l0.531,2.105l-0.356,0.711l-4.564-3.162
	l5.268,4.562v1.576l2.814,0.882l0.35,2.281v1.056c0,0,0.346,0.351,0.525,0.875c0.174,0.525,0.174,2.11,0.174,2.11
	s5.268,1.748,6.5,6.14l-1.58,1.06l-1.232,1.411c0,0,1.752,2.455,2.109,2.976c0.352,0.529,3.857,4.747,4.209,5.269
	c0.361,0.525-1.223,0.184,0.361,0.525c1.578,0.352,2.281,0.179,2.281,0.179l1.928-1.051c0,0,0.182-1.931,0-2.456
	c-0.18-0.54-1.928-3.339-1.928-3.339l-1.055-1.936c0,0-0.355-1.228-0.707-1.756c-0.349-0.524-1.748-2.456-1.748-2.456l0.866-0.88
	l-0.866-2.453l4.557,2.802c0,0,0.701,1.057,1.062,1.586c0.345,0.521-2.286-3.341-2.286-3.341l-4.568-3.512
	c0,0,1.752,0.886,2.465,1.059c0.693,0.175,2.104,1.58,2.104,1.58l-0.178-0.886c0,0-10.01-14.397-34.945-25.98
	C308.781,492.626,306.152,492.974,305.275,491.74z M329.507,515.274v-2.105l-1.938-2.286l-0.877,0.529c0,0-0.881-1.401-2.807-1.931
	c-1.936-0.524-4.748-2.287-4.748-2.287l-1.92-1.045l-0.357,1.218c0,0,6.154,3.866,7.729,4.218c1.58,0.353,2.104,2.99,2.104,2.99
	h1.408l0.877,1.753L329.507,515.274z M325.289,515.631l-0.174-1.758l-2.1-2.461l-1.941-0.704v1.057l0.354,1.404l1.589,0.526
	l1.223,1.936C324.238,515.631,324.938,516.502,325.289,515.631z M349.346,529.151c0,0-1.406,1.753-1.231,2.277
	c0.174,0.521,0.174,2.989,0.174,2.989l-0.349,2.453c0,0-1.403,1.23-2.28,0c-0.877-1.229,0.172,3.162,0.172,3.162l0.36,3.512
	l1.226,3.342c0,0,2.106,3.332,0.522,4.561l0.699,13.693c0,0,1.405,1.402,1.584,2.985c0.174,1.581,2.812,5.096,0.707,8.25
	c0,0,2.978,2.465,1.926,4.392c0,0,5.097,4.041,4.565,6.67c-0.524,2.645,0.351-0.877,0.351-0.877s4.047,2.986,4.047,4.743
	c0,1.753,0.349-0.702,0.349-0.702l0.877,0.348l1.578-2.63l1.229-0.349l2.811-5.271l0.881,1.938h0.877
	c0,0,0.703-23.007-14.045-49.173l-1.936-1.406h-1.582C352.855,534.06,351.625,530.375,349.346,529.151z"/>
</svg>
