<?xml version="1.0" encoding="utf-8"?>
<!-- Generator: Adobe Illustrator 15.1.0, SVG Export Plug-In . SVG Version: 6.00 Build 0)  -->
<!DOCTYPE svg PUBLIC "-//W3C//DTD SVG 1.1//EN" "http://www.w3.org/Graphics/SVG/1.1/DTD/svg11.dtd">
<svg version="1.1" id="Layer_1" xmlns="http://www.w3.org/2000/svg" xmlns:xlink="http://www.w3.org/1999/xlink" x="0px" y="0px"
	 width="536.378px" height="780.521px" viewBox="0 0 536.378 780.521" enable-background="new 0 0 536.378 780.521"
	 xml:space="preserve">
<g>
	<g>
		<path fill="#6ABCC3" d="M329.795,47.392l-2.106,10.53c18.959,9.479,17.903,17.903,17.903,17.903
			c20.01,5.263,109.521,70.558,109.521,70.558c43.176,28.433,43.176,48.442,43.176,48.442
			c50.553,211.678,34.752,419.134,34.752,419.134c-26.328,106.364-67.396,119.005-67.396,119.005
			C434.049,754.024,330.852,779.3,330.852,779.3c-36.861,7.373-57.922-21.062-57.922-21.062c-20.01-28.435-41.069,0-41.069,0
			c-16.853,31.595-57.922,15.798-57.922,15.798c-17.903-3.157-101.101-38.964-101.101-38.964
			c-61.081-27.384-73.72-130.586-73.72-130.586c-1.052-20.011,5.267-153.751,5.267-153.751
			C9.3,427.212,71.786,135.853,71.786,135.853c12.635-31.595,121.105-69.508,121.105-69.508v-5.267
			c7.373-1.051,12.637-6.318,12.637-6.318l1.055-4.212l-3.161-6.318l8.424-12.636l2.175-18.333l100.026,15.161L329.795,47.392z
			 M162.352,163.23c0,0-30.543-35.806-51.604,10.534c0,0-23.17,112.683-9.479,171.655c0,0,5.267,15.797,15.798,7.373l11.584-4.212
			C128.651,348.581,138.13,358.056,162.352,163.23z"/>
	</g>
	<path fill="#19152B" d="M209.215,35.279c0,0,45.303,0.528,111.104,0.528V0H211.368L209.215,35.279z"/>
</g>
<rect x="32.689" y="381.761" fill="none" width="468" height="88"/>
<text transform="matrix(1 0 0 1 88.3267 403.6309)"><tspan x="0" y="0" font-family="'Interstate-Regular'" font-size="30">number of gallons wasted </tspan><tspan x="-9.18" y="36" font-family="'Interstate-Regular'" font-size="30"> from leaky pipes everyday</tspan></text>
<g>
	<path fill="#19162B" d="M325.096,640.33l-24.828-1.815l-13.927-7.267c-32.701,1.814-44.208-6.056-44.208-6.056v3.632
		c6.661,0.605,10.9,7.873,10.9,7.873l-1.816,13.927c-43.6,12.719-55.105-5.449-55.105-5.449l0.605-15.744l13.321-6.662
		c6.056-37.544,36.334-35.728,36.334-35.728v-4.845l-2.422-5.449l-5.297-3.028v-8.336l15.635-10.667l-0.814-8.062l-4.681-2.604
		l-18.167,8.479c-25.433-4.239-4.239-22.406-4.239-22.406l21.195-1.817c-1.817-4.843,3.633-7.871,3.633-7.871
		c9.083-4.238,21.8-1.211,21.8-1.211l0.604,3.025l21.194-11.505c29.067,7.873,4.239,23.011,4.239,23.011l-22.405,2.424l-4.844,7.871
		l1.21,10.294l15.744,9.084v9.688l-6.057,7.267l7.268,10.901l43.602,6.056C352.951,627.007,325.096,640.33,325.096,640.33z
		 M223.442,642.146c-12.374-0.182-22.439,2.108-22.484,5.119c-0.043,3.01,9.95,5.599,22.323,5.779
		c12.374,0.183,22.44-2.109,22.484-5.12C245.81,644.917,235.815,642.33,223.442,642.146z"/>
	<path fill="#19162B" d="M224.929,677.431c0,0-13.515,14.61-11.797,26.095c0,0,1.328,8.28,9.847,8.28c0,0,9.062,0.819,9.764-10.486
		c0,0,0.158-4.747-4.218-11.623C228.524,689.695,225.087,684.619,224.929,677.431z"/>
</g>
<text transform="matrix(1 0 0 1 296.6401 288.8154)" font-family="'Interstate-Bold'" font-size="120">7</text>
<text transform="matrix(1 0 0 1 463.0815 288.8154)" font-family="'Interstate-Bold'" font-size="70"> </text>
<text transform="matrix(1 0 0 1 251.0439 350.21)" font-family="'Interstate-Bold'" font-size="50">billion</text>
</svg>
