<?xml version="1.0" encoding="utf-8"?>
<!-- Generator: Adobe Illustrator 15.1.0, SVG Export Plug-In . SVG Version: 6.00 Build 0)  -->
<!DOCTYPE svg PUBLIC "-//W3C//DTD SVG 1.1//EN" "http://www.w3.org/Graphics/SVG/1.1/DTD/svg11.dtd">
<svg version="1.1" id="Layer_1" xmlns="http://www.w3.org/2000/svg" xmlns:xlink="http://www.w3.org/1999/xlink" x="0px" y="0px"
	 width="536.378px" height="780.521px" viewBox="0 0 536.378 780.521" enable-background="new 0 0 536.378 780.521"
	 xml:space="preserve">
<g>
	<g>
		<path fill="#6ABCC3" d="M329.795,47.392l-2.106,10.53c18.959,9.479,17.903,17.903,17.903,17.903
			c20.01,5.263,109.521,70.558,109.521,70.558c43.176,28.433,43.176,48.442,43.176,48.442
			c50.553,211.678,34.752,419.134,34.752,419.134c-26.328,106.364-67.396,119.005-67.396,119.005
			C434.049,754.024,330.852,779.3,330.852,779.3c-36.861,7.373-57.922-21.062-57.922-21.062c-20.01-28.435-41.069,0-41.069,0
			c-16.853,31.595-57.922,15.798-57.922,15.798c-17.903-3.157-101.101-38.964-101.101-38.964
			c-61.081-27.384-73.72-130.586-73.72-130.586c-1.052-20.011,5.267-153.751,5.267-153.751
			C9.3,427.212,71.786,135.853,71.786,135.853c12.635-31.595,121.105-69.508,121.105-69.508v-5.267
			c7.373-1.051,12.637-6.318,12.637-6.318l1.055-4.212l-3.161-6.318l8.424-12.636l2.175-18.333l100.026,15.161L329.795,47.392z
			 M162.352,163.23c0,0-30.543-35.806-51.604,10.534c0,0-23.17,112.683-9.479,171.655c0,0,5.267,15.797,15.798,7.373l11.584-4.212
			C128.651,348.581,138.13,358.056,162.352,163.23z"/>
	</g>
	<path fill="#19152B" d="M209.215,35.279c0,0,45.303,0.528,111.104,0.528V0H211.368L209.215,35.279z"/>
</g>
<rect x="32.689" y="381.761" fill="none" width="468" height="82"/>
<text transform="matrix(1 0 0 1 54.3218 403.6309)"><tspan x="0" y="0" font-family="'Interstate-Regular'" font-size="30">amount that flows through the </tspan><tspan x="19.8" y="36" font-family="'Interstate-Regular'" font-size="30">Mississippi river per second </tspan></text>
<text transform="matrix(1 0 0 1 251.9434 288.8154)" font-family="'Interstate-Bold'" font-size="120">1.6</text>
<text transform="matrix(1 0 0 1 410.3403 288.8154)" font-family="'Interstate-Bold'" font-size="70"> </text>
<text transform="matrix(1 0 0 1 252.4434 350.21)" font-family="'Interstate-Bold'" font-size="50">million</text>
<path fill="#19162B" d="M316.314,711.947l-2.378-76.781l14.948-130.799l-4.758-5.437l-82.216-0.68l2.378,5.096l-2.038,2.379
	l-7.474-1.021l-3.738,7.812l1.019,6.456l-0.339,5.775l-8.833,4.077l-1.019,3.397l-4.077,0.68l2.038,7.134l-7.475,6.456l4.757,7.812
	l-7.814,1.021l-2.377,4.076v5.774l3.396,5.438c0,0-1.697,6.793-1.358,7.812c0.339,1.021,1.019,5.099,1.019,5.099l-2.379,2.718
	l1.019,6.454c0,0,0,3.739,0.68,5.437c0.68,1.699,1.699,10.871,1.699,10.871s2.718,4.417,3.058,6.456
	c0.339,2.038,2.038,7.475,2.038,7.475l-2.379,3.737l-5.096,2.716l2.038,4.758c0,0-1.019,2.379-1.358,3.397
	c-0.339,1.02-3.737,5.096-3.737,6.114c0,1.02-3.058,3.737-3.736,4.757c-0.68,1.021-3.059,3.396-3.398,4.416
	c-0.339,1.021-1.699,2.039-2.038,4.417c-0.341,2.379-3.059,6.795-3.398,7.813c-0.339,1.02-1.019,2.038-1.699,3.736
	c-0.678,1.699-2.377,5.775-2.377,5.775l2.038,4.418l1.358,4.756h71.006l-1.699,8.153l-1.697,5.774l2.039,7.814l4.415,5.775
	l3.398,8.493l4.415,2.719l4.078-4.417l2.378-6.454l2.038,0.678l-0.68,2.719l14.27-4.417c0,0,2.718-3.396,6.795,2.379l3.736-1.02
	l5.437,2.379L316.314,711.947z"/>
<text transform="matrix(1 0 0 1 239.3906 616.0195)" fill="#6BBDC4" font-family="'Interstate-Regular'" font-size="35.4043">M</text>
<text transform="matrix(1 0 0 1 267.9966 616.0195)" fill="#6BBDC4" font-family="'Interstate-Regular'" font-size="35.4043">S</text>
</svg>
