<?xml version="1.0" encoding="utf-8"?>
<!-- Generator: Adobe Illustrator 15.1.0, SVG Export Plug-In . SVG Version: 6.00 Build 0)  -->
<!DOCTYPE svg PUBLIC "-//W3C//DTD SVG 1.1//EN" "http://www.w3.org/Graphics/SVG/1.1/DTD/svg11.dtd">
<svg version="1.1" id="Layer_1" xmlns="http://www.w3.org/2000/svg" xmlns:xlink="http://www.w3.org/1999/xlink" x="0px" y="0px"
	 width="536.378px" height="780.521px" viewBox="0 0 536.378 780.521" enable-background="new 0 0 536.378 780.521"
	 xml:space="preserve">
<g>
	<g>
		<path fill="#6ABCC3" d="M329.795,47.392l-2.106,10.53c18.959,9.479,17.903,17.903,17.903,17.903
			c20.01,5.263,109.521,70.558,109.521,70.558c43.176,28.433,43.176,48.442,43.176,48.442
			c50.553,211.678,34.752,419.134,34.752,419.134c-26.328,106.364-67.396,119.005-67.396,119.005
			C434.049,754.024,330.852,779.3,330.852,779.3c-36.861,7.373-57.922-21.062-57.922-21.062c-20.01-28.435-41.069,0-41.069,0
			c-16.853,31.595-57.922,15.798-57.922,15.798c-17.903-3.157-101.101-38.964-101.101-38.964
			c-61.081-27.384-73.72-130.586-73.72-130.586c-1.052-20.011,5.267-153.751,5.267-153.751
			C9.3,427.212,71.786,135.853,71.786,135.853c12.635-31.595,121.105-69.508,121.105-69.508v-5.267
			c7.373-1.051,12.637-6.318,12.637-6.318l1.055-4.212l-3.161-6.318l8.424-12.636l2.175-18.333l100.026,15.161L329.795,47.392z
			 M162.352,163.23c0,0-30.543-35.806-51.604,10.534c0,0-23.17,112.683-9.479,171.655c0,0,5.267,15.797,15.798,7.373l11.584-4.212
			C128.651,348.581,138.13,358.056,162.352,163.23z"/>
	</g>
	<path fill="#19152B" d="M209.215,35.279c0,0,45.303,0.528,111.104,0.528V0H211.368L209.215,35.279z"/>
</g>
<rect x="32.689" y="381.761" fill="none" width="468" height="82"/>
<text transform="matrix(1 0 0 1 42.5767 403.6309)"><tspan x="0" y="0" font-family="'Interstate-Regular'" font-size="30">amount in an Olympic swimming </tspan><tspan x="194.488" y="36" font-family="'Interstate-Regular'" font-size="30">pool</tspan></text>
<text transform="matrix(1 0 0 1 210.3037 288.8154)" font-family="'Interstate-Bold'" font-size="120">660</text>
<text transform="matrix(1 0 0 1 451.9819 288.8154)" font-family="'Interstate-Bold'" font-size="70"> </text>
<text transform="matrix(1 0 0 1 221.0439 350.21)" font-family="'Interstate-Bold'" font-size="50">thousand</text>
<g>
	<rect x="131.308" y="481.699" fill="#19162B" stroke="#19162B" stroke-miterlimit="10" width="285.338" height="174.167"/>
	<g>
		<path fill="none" stroke="#6BBDC4" stroke-width="2" stroke-miterlimit="10" d="M311.646,557.032
			c0.668-15.085,13.061-27.112,28.249-27.112c15.61,0,28.271,12.707,28.271,28.389c0,15.68-12.66,28.391-28.271,28.391
			c-15.062,0-27.374-11.821-28.228-26.732"/>
		<path fill="none" stroke="#6BBDC4" stroke-width="2" stroke-miterlimit="10" d="M328.451,584.278
			c-9.438-4.201-16.158-13.437-16.783-24.312"/>
		<path fill="none" stroke="#6BBDC4" stroke-width="2" stroke-miterlimit="10" d="M328.451,584.278
			c-9.438-4.201-16.158-13.437-16.783-24.312"/>
		<path fill="none" stroke="#6BBDC4" stroke-width="2" stroke-miterlimit="10" d="M341.181,586.672
			c-0.43,0.016-0.857,0.026-1.286,0.026c-4.071,0-7.946-0.861-11.442-2.42"/>
		<path fill="none" stroke="#6BBDC4" stroke-width="2" stroke-miterlimit="10" d="M311.646,557.032
			c0.668-15.085,13.061-27.112,28.249-27.112c15.61,0,28.271,12.707,28.271,28.389c0,15.248-11.97,27.685-26.984,28.363"/>
		<path fill="none" stroke="#6BBDC4" stroke-width="2" stroke-miterlimit="10" d="M311.646,557.032
			c0.668-15.085,13.061-27.112,28.249-27.112c15.61,0,28.271,12.707,28.271,28.389c0,15.248-11.97,27.685-26.984,28.363"/>
		<path fill="none" stroke="#6BBDC4" stroke-width="2" stroke-miterlimit="10" d="M334.283,587.844
			c-0.599,15.152-13.02,27.246-28.25,27.246c-15.611,0-28.271-12.714-28.271-28.392c0-13.563,9.478-24.903,22.137-27.716"/>
		<path fill="none" stroke="#6BBDC4" stroke-width="2" stroke-miterlimit="10" d="M302.688,558.504
			c1.097-0.131,2.216-0.195,3.345-0.195c14.641,0,26.68,11.172,28.129,25.485"/>
		<path fill="none" stroke="#6BBDC4" stroke-width="2" stroke-miterlimit="10" d="M278.436,580.51
			c2.378-10.719,10.787-19.153,21.464-21.526"/>
		<path fill="none" stroke="#6BBDC4" stroke-width="2" stroke-miterlimit="10" d="M278.571,593.457
			c-0.526-2.165-0.809-4.43-0.809-6.759c0-2.122,0.237-4.196,0.673-6.188"/>
		<path fill="none" stroke="#6BBDC4" stroke-width="2" stroke-miterlimit="10" d="M334.283,587.844
			c-0.599,15.152-13.02,27.246-28.25,27.246c-13.289,0-24.443-9.219-27.462-21.633"/>
		<path fill="none" stroke="#6BBDC4" stroke-width="2" stroke-miterlimit="10" d="M244.747,556.637
			c0.863-14.903,13.168-26.717,28.223-26.717c15.617,0,28.275,12.707,28.275,28.389c0,13.557-9.468,24.89-22.115,27.718"/>
		<path fill="none" stroke="#6BBDC4" stroke-width="2" stroke-miterlimit="10" d="M276.558,586.472
			c-1.174,0.151-2.374,0.228-3.588,0.228c-14.935,0-27.164-11.626-28.201-26.359"/>
		<path fill="none" stroke="#6BBDC4" stroke-width="2" stroke-miterlimit="10" d="M209.437,586.536
			c-1.015,0.108-2.04,0.162-3.084,0.162c-15.618,0-28.269-12.707-28.269-28.391c0-15.678,12.651-28.389,28.269-28.389
			c15.613,0,28.271,12.711,28.271,28.389c0,13.226-9.006,24.336-21.187,27.488"/>
		<path fill="none" stroke="#6BBDC4" stroke-width="2" stroke-miterlimit="10" d="M233.37,566.702
			c-2.878,9.352-10.445,16.637-19.933,19.095"/>
		<path fill="none" stroke="#6BBDC4" stroke-width="2" stroke-miterlimit="10" d="M233.825,551.6
			c0.521,2.148,0.799,4.396,0.799,6.709c0,2.92-0.439,5.744-1.254,8.395"/>
		<path fill="none" stroke="#6BBDC4" stroke-width="2" stroke-miterlimit="10" d="M233.825,551.6
			c0.521,2.148,0.799,4.396,0.799,6.709c0,2.92-0.439,5.744-1.254,8.395"/>
		<path fill="none" stroke="#6BBDC4" stroke-width="2" stroke-miterlimit="10" d="M233.825,551.6
			c0.521,2.148,0.799,4.396,0.799,6.709c0,2.92-0.439,5.744-1.254,8.395"/>
		<path fill="none" stroke="#6BBDC4" stroke-width="2" stroke-miterlimit="10" d="M233.37,566.702
			c-2.878,9.352-10.445,16.637-19.933,19.095"/>
		<path fill="none" stroke="#6BBDC4" stroke-width="2" stroke-miterlimit="10" d="M233.37,566.702
			c-2.878,9.352-10.445,16.637-19.933,19.095"/>
		<path fill="none" stroke="#6BBDC4" stroke-width="2" stroke-miterlimit="10" d="M209.437,586.536
			c-1.015,0.108-2.04,0.162-3.084,0.162c-15.618,0-28.269-12.707-28.269-28.391c0-15.678,12.651-28.389,28.269-28.389
			c13.312,0,24.478,9.238,27.473,21.68"/>
		<path fill="none" stroke="#6BBDC4" stroke-width="2" stroke-miterlimit="10" d="M209.437,586.536
			c-1.015,0.108-2.04,0.162-3.084,0.162c-15.618,0-28.269-12.707-28.269-28.391c0-15.678,12.651-28.389,28.269-28.389
			c13.312,0,24.478,9.238,27.473,21.68"/>
		<path fill="none" stroke="#6BBDC4" stroke-width="2" stroke-miterlimit="10" d="M302.688,558.504
			c1.097-0.131,2.216-0.195,3.345-0.195c14.641,0,26.68,11.172,28.129,25.485"/>
		<path fill="none" stroke="#6BBDC4" stroke-width="2" stroke-miterlimit="10" d="M341.181,586.672
			c-0.43,0.016-0.857,0.026-1.286,0.026c-4.071,0-7.946-0.861-11.442-2.42"/>
		<path fill="none" stroke="#6BBDC4" stroke-width="2" stroke-miterlimit="10" d="M244.747,556.637
			c0.863-14.903,13.168-26.717,28.223-26.717c15.617,0,28.275,12.707,28.275,28.389c0,13.557-9.468,24.89-22.115,27.718"/>
		<path fill="none" stroke="#6BBDC4" stroke-width="2" stroke-miterlimit="10" d="M300.464,564.933
			c-2.498,10.502-10.813,18.744-21.334,21.094"/>
		<path fill="none" stroke="#6BBDC4" stroke-width="2" stroke-miterlimit="10" d="M300.896,553.891
			c0.229,1.439,0.35,2.916,0.35,4.418c0,2.281-0.271,4.501-0.781,6.624"/>
		<path fill="none" stroke="#6BBDC4" stroke-width="2" stroke-miterlimit="10" d="M244.747,556.637
			c0.863-14.903,13.168-26.717,28.223-26.717c14.119,0,25.822,10.389,27.927,23.971"/>
		<path fill="none" stroke="#6BBDC4" stroke-width="2" stroke-miterlimit="10" d="M268.036,587.596
			c-0.762,14.998-13.116,26.924-28.238,26.924c-15.613,0-28.271-12.714-28.271-28.39c0-13.209,8.983-24.308,21.148-27.482"/>
		<path fill="none" stroke="#6BBDC4" stroke-width="2" stroke-miterlimit="10" d="M236.571,557.923
			c1.055-0.124,2.141-0.185,3.227-0.185c15.078,0,27.401,11.851,28.227,26.783"/>
		<path fill="none" stroke="#6BBDC4" stroke-width="2" stroke-miterlimit="10" d="M250.371,559.785
			c9.907,4.018,17.034,13.507,17.653,24.736"/>
		<path fill="none" stroke="#6BBDC4" stroke-width="2" stroke-miterlimit="10" d="M240.523,557.745
			c3.475,0.091,6.785,0.809,9.848,2.04"/>
		<path fill="none" stroke="#6BBDC4" stroke-width="2" stroke-miterlimit="10" d="M236.571,557.923
			c1.055-0.124,2.141-0.185,3.227-0.185c0.244,0,0.488,0,0.726,0.007"/>
		<path fill="none" stroke="#6BBDC4" stroke-width="2" stroke-miterlimit="10" d="M262.412,584.653
			c-9.794-3.963-16.861-13.268-17.644-24.314"/>
		<path fill="none" stroke="#6BBDC4" stroke-width="2" stroke-miterlimit="10" d="M262.412,584.653
			c-9.794-3.963-16.861-13.268-17.644-24.314"/>
		<path fill="none" stroke="#6BBDC4" stroke-width="2" stroke-miterlimit="10" d="M273.897,586.683
			c-0.31,0.013-0.619,0.017-0.929,0.017c-3.729,0-7.295-0.727-10.557-2.045"/>
		<path fill="none" stroke="#6BBDC4" stroke-width="2" stroke-miterlimit="10" d="M250.371,559.785
			c9.907,4.018,17.034,13.507,17.653,24.736"/>
		<path fill="none" stroke="#6BBDC4" stroke-width="2" stroke-miterlimit="10" d="M250.371,559.785
			c9.907,4.018,17.034,13.507,17.653,24.736"/>
		<path fill="none" stroke="#6BBDC4" stroke-width="2" stroke-miterlimit="10" d="M268.036,587.596
			c-0.762,14.998-13.116,26.924-28.238,26.924"/>
		<path fill="none" stroke="#6BBDC4" stroke-width="2" stroke-miterlimit="10" d="M276.558,586.472
			c-0.875,0.113-1.76,0.186-2.66,0.211"/>
		<path fill="none" stroke="#6BBDC4" stroke-width="2" stroke-miterlimit="10" d="M276.558,586.472
			c-0.875,0.113-1.76,0.186-2.66,0.211"/>
		<path fill="none" stroke="#6BBDC4" stroke-width="2" stroke-miterlimit="10" d="M268.036,587.596
			c-0.762,14.998-13.116,26.924-28.238,26.924c-15.613,0-28.271-12.714-28.271-28.39c0-13.209,8.983-24.308,21.148-27.482"/>
		<path fill="none" stroke="#6BBDC4" stroke-width="2" stroke-miterlimit="10" d="M278.436,580.51
			c2.378-10.719,10.787-19.153,21.464-21.526"/>
		<path fill="none" stroke="#6BBDC4" stroke-width="2" stroke-miterlimit="10" d="M302.688,558.504
			c1.097-0.131,2.216-0.195,3.345-0.195c14.641,0,26.68,11.172,28.129,25.485"/>
		<path fill="none" stroke="#6BBDC4" stroke-width="2" stroke-miterlimit="10" d="M302.688,558.504
			c1.097-0.131,2.216-0.195,3.345-0.195c14.641,0,26.68,11.172,28.129,25.485"/>
		<path fill="none" stroke="#6BBDC4" stroke-width="2" stroke-miterlimit="10" d="M302.688,558.504
			c1.097-0.131,2.216-0.195,3.345-0.195c14.641,0,26.68,11.172,28.129,25.485"/>
		<path fill="none" stroke="#6BBDC4" stroke-width="2" stroke-miterlimit="10" d="M278.436,580.51
			c2.378-10.719,10.787-19.153,21.464-21.526"/>
		<path fill="none" stroke="#6BBDC4" stroke-width="2" stroke-miterlimit="10" d="M334.283,587.844
			c-0.599,15.152-13.02,27.246-28.25,27.246c-13.289,0-24.443-9.219-27.462-21.633"/>
		<path fill="none" stroke="#6BBDC4" stroke-width="2" stroke-miterlimit="10" d="M334.283,587.844
			c-0.599,15.152-13.02,27.246-28.25,27.246c-13.289,0-24.443-9.219-27.462-21.633"/>
		<path fill="none" stroke="#6BBDC4" stroke-width="2" stroke-miterlimit="10" d="M300.896,553.891
			c0.229,1.439,0.35,2.916,0.35,4.418c0,2.281-0.271,4.501-0.781,6.624"/>
		<path fill="none" stroke="#6BBDC4" stroke-width="2" stroke-miterlimit="10" d="M300.896,553.891
			c0.229,1.439,0.35,2.916,0.35,4.418c0,2.281-0.271,4.501-0.781,6.624"/>
		<path fill="none" stroke="#6BBDC4" stroke-width="2" stroke-miterlimit="10" d="M278.571,593.457
			c-0.526-2.165-0.809-4.43-0.809-6.759c0-2.122,0.237-4.196,0.673-6.188"/>
		<path fill="none" stroke="#6BBDC4" stroke-width="2" stroke-miterlimit="10" d="M268.036,587.596
			c-0.762,14.998-13.116,26.924-28.238,26.924c-15.613,0-28.271-12.714-28.271-28.39c0-13.209,8.983-24.308,21.148-27.482"/>
		<path fill="none" stroke="#6BBDC4" stroke-width="2" stroke-miterlimit="10" d="M233.825,551.6
			c0.521,2.148,0.799,4.396,0.799,6.709c0,2.92-0.439,5.744-1.254,8.395"/>
		<path fill="none" stroke="#6BBDC4" stroke-width="2" stroke-miterlimit="10" d="M233.825,551.6
			c0.521,2.148,0.799,4.396,0.799,6.709c0,2.92-0.439,5.744-1.254,8.395"/>
		<path fill="none" stroke="#6BBDC4" stroke-width="2" stroke-miterlimit="10" d="M233.825,551.6
			c0.521,2.148,0.799,4.396,0.799,6.709c0,2.92-0.439,5.744-1.254,8.395"/>
		<path fill="none" stroke="#6BBDC4" stroke-width="2" stroke-miterlimit="10" d="M240.523,557.745
			c3.475,0.091,6.785,0.809,9.848,2.04"/>
		<path fill="none" stroke="#6BBDC4" stroke-width="2" stroke-miterlimit="10" d="M236.571,557.923
			c1.055-0.124,2.141-0.185,3.227-0.185c0.244,0,0.488,0,0.726,0.007"/>
		<path fill="none" stroke="#6BBDC4" stroke-width="2" stroke-miterlimit="10" d="M236.571,557.923
			c1.055-0.124,2.141-0.185,3.227-0.185c0.244,0,0.488,0,0.726,0.007"/>
		<path fill="none" stroke="#6BBDC4" stroke-width="2" stroke-miterlimit="10" d="M240.523,557.745
			c3.475,0.091,6.785,0.809,9.848,2.04"/>
		<path fill="none" stroke="#6BBDC4" stroke-width="2" stroke-miterlimit="10" d="M278.571,593.457
			c-0.526-2.165-0.809-4.43-0.809-6.759c0-2.122,0.237-4.196,0.673-6.188"/>
		<path fill="none" stroke="#6BBDC4" stroke-width="2" stroke-miterlimit="10" d="M278.571,593.457
			c-0.526-2.165-0.809-4.43-0.809-6.759c0-2.122,0.237-4.196,0.673-6.188"/>
		<path fill="none" stroke="#6BBDC4" stroke-width="2" stroke-miterlimit="10" d="M240.523,557.745
			c3.475,0.091,6.785,0.809,9.848,2.04"/>
		<path fill="none" stroke="#6BBDC4" stroke-width="2" stroke-miterlimit="10" d="M273.897,586.683
			c-0.31,0.013-0.619,0.017-0.929,0.017c-3.729,0-7.295-0.727-10.557-2.045"/>
		<path fill="none" stroke="#6BBDC4" stroke-width="2" stroke-miterlimit="10" d="M273.897,586.683
			c-0.31,0.013-0.619,0.017-0.929,0.017c-3.729,0-7.295-0.727-10.557-2.045"/>
		<path fill="none" stroke="#6BBDC4" stroke-width="2" stroke-miterlimit="10" d="M273.897,586.683
			c-0.31,0.013-0.619,0.017-0.929,0.017c-3.729,0-7.295-0.727-10.557-2.045"/>
		<path fill="none" stroke="#6BBDC4" stroke-width="2" stroke-miterlimit="10" d="M341.181,586.672
			c-0.43,0.016-0.857,0.026-1.286,0.026c-4.071,0-7.946-0.861-11.442-2.42"/>
		<path fill="none" stroke="#6BBDC4" stroke-width="2" stroke-miterlimit="10" d="M341.181,586.672
			c-0.43,0.016-0.857,0.026-1.286,0.026c-4.071,0-7.946-0.861-11.442-2.42"/>
	</g>
</g>
</svg>
