<?xml version="1.0" encoding="utf-8"?>
<!-- Generator: Adobe Illustrator 15.1.0, SVG Export Plug-In . SVG Version: 6.00 Build 0)  -->
<!DOCTYPE svg PUBLIC "-//W3C//DTD SVG 1.1//EN" "http://www.w3.org/Graphics/SVG/1.1/DTD/svg11.dtd">
<svg version="1.1" id="Layer_1" xmlns="http://www.w3.org/2000/svg" xmlns:xlink="http://www.w3.org/1999/xlink" x="0px" y="0px"
	 width="536.378px" height="780.521px" viewBox="0 0 536.378 780.521" enable-background="new 0 0 536.378 780.521"
	 xml:space="preserve">
<g>
	<g>
		<path fill="#6ABCC3" d="M329.795,47.392l-2.106,10.53c18.959,9.479,17.903,17.903,17.903,17.903
			c20.01,5.263,109.521,70.558,109.521,70.558c43.176,28.433,43.176,48.442,43.176,48.442
			c50.553,211.678,34.752,419.134,34.752,419.134c-26.328,106.364-67.396,119.005-67.396,119.005
			C434.049,754.024,330.852,779.3,330.852,779.3c-36.861,7.373-57.922-21.062-57.922-21.062c-20.01-28.435-41.069,0-41.069,0
			c-16.853,31.595-57.922,15.798-57.922,15.798c-17.903-3.157-101.101-38.964-101.101-38.964
			c-61.081-27.384-73.72-130.586-73.72-130.586c-1.052-20.011,5.267-153.751,5.267-153.751
			C9.3,427.212,71.786,135.853,71.786,135.853c12.635-31.595,121.105-69.508,121.105-69.508v-5.267
			c7.373-1.051,12.637-6.318,12.637-6.318l1.055-4.212l-3.161-6.318l8.424-12.636l2.175-18.333l100.026,15.161L329.795,47.392z
			 M162.352,163.23c0,0-30.543-35.806-51.604,10.534c0,0-23.17,112.683-9.479,171.655c0,0,5.267,15.797,15.798,7.373l11.584-4.212
			C128.651,348.581,138.13,358.056,162.352,163.23z"/>
	</g>
	<path fill="#19152B" d="M209.215,35.279c0,0,45.303,0.528,111.104,0.528V0H211.368L209.215,35.279z"/>
</g>
<rect x="32.689" y="381.761" fill="none" width="468" height="82"/>
<text transform="matrix(1 0 0 1 96.8467 403.6309)" font-family="'Interstate-Regular'" font-size="30">volume of Lake Superior</text>
<text transform="matrix(1 0 0 1 292.4429 288.8154)" font-family="'Interstate-Bold'" font-size="120">3 </text>
<text transform="matrix(1 0 0 1 207.168 350.21)" font-family="'Interstate-Bold'" font-size="50">quadrillion</text>
<path fill="#19162B" d="M329.625,515.781l-6.254,4.376l1.25-4.376l-9.067,2.188l-12.507-2.188l-8.442-4.066l-19.073-5.939
	l-2.816-3.128l-5.628,1.876l-2.814,1.878l2.188,5.002l3.804,1.25l9.331-1.25l5.628,1.563l3.754,2.814l-5.004,1.562l-8.132-1.562
	l-4.062,4.376l-5.629,4.064h-4.691l3.128,4.38l-5.63,1.873v-2.5l-5.316,6.881l-1.874-2.19l7.816-10.319l1.876-5.629l-0.938-3.75
	c0,0-0.938-2.504-2.502-2.504c-1.563,0-6.252,4.691-6.252,4.691l2.188,5.003l-2.188,5.314l-2.504,2.814v2.188
	c0,0,0.939,0.313,0,1.565c-0.937,1.248-1.25,4.377-1.874,5.314c-0.626,0.938-4.69,2.813-4.69,2.813h-4.378l7.818-12.822
	l-5.942,0.939c0,0-4.69,2.188-5.628,2.502c-0.94,0.312-4.692,0.938-4.692,0.938s-1.25,6.564,0,8.441c0,0-1.562,3.441-2.5,3.752
	c-0.94,0.313-1.564,5.004-1.564,5.004l-1.563,4.376l-6.254,3.44l-4.379,2.502l-5.628,3.752l-13.13,5.629
	c0,0-25.331,2.815-43.153,26.269l-15.634,14.383l-17.511,11.259c0,0-2.188,5.312,5.002,7.189l19.386-4.377
	c0,0,7.192-1.564,9.38-2.188c2.19-0.624,7.192-3.129,7.192-3.129l6.568-3.438l4.064,2.188l0.624,5.003c0,0-3.438,3.438-4.064,4.38
	c-0.624,0.936-3.438,4.688-3.438,4.688h-3.44l1.25,5.002l7.504-1.562l1.878-3.439l5.628,5.003h7.192c0,0,13.445-3.438,14.384-3.75
	c0.937-0.312,3.75-8.132,14.07-7.818l3.126-1.25h5.003l9.693-5.94c0,0,2.814-2.502,3.753-2.502c0.938,0,5.939-1.252,5.939-1.252
	l1.878-4.063l5.314-5.316l7.192-4.062l4.692-5.63l6.563-3.754c0,0,11.885-3.128,12.82-3.128c0.939,0,5.004,0.626,5.004,0.626
	s2.813,2.188,1.877,2.502c-0.938,0.312-5.316,1.876-7.504,3.129c-2.19,1.252-5.842,4.377-6.83,6.255
	c-0.988,1.874-8.181,10.004-8.181,10.004s-2.5,3.439-3.126,5.004c-0.624,1.562-3.126,5.315-3.126,6.565
	c0,1.252-0.312,6.881-0.312,6.881s4.064-3.755,4.376-5.002c0.314-1.253,2.502-3.129,3.44-4.066c0.938-0.938,5.004-3.441,5.004-3.441
	l-0.938,4.381c0,0,9.691-0.312,11.568,0c1.875,0.313,8.443,3.438,8.443,3.438l2.813,3.128l2.188,4.69c0,0,3.125,4.062,4.062,4.376
	c0.939,0.312,1.25,4.691,1.25,4.691s2.814-0.938,3.755,0c0.938,0.938,3.438-0.312,4.688,0c1.25,0.312,4.064-1.563,5.316-1.563
	c1.25,0,2.502-0.228,3.128,1.92c0.624,2.146,3.438,4.96,3.438,4.96l3.752-2.5l1.563-4.694l4.376,1.566l1.879,1.562l14.381-10.005
	l4.066,1.248c0,0,9.38-1.248,11.57-1.874c2.188-0.626,10.007-0.938,10.941-0.626c0.94,0.312,4.066-1.562,7.192-2.502
	c3.128-0.938,7.506-1.874,9.382-1.874c1.874,0,4.378-0.94,4.378-0.94s-1.878,8.442-1.878,9.384c0,0.936,1.878,6.252,1.878,6.252
	s1.875-0.624,4.063-0.624c2.189,0,5.316-0.938,6.254-1.566c0.939-0.624,2.502-0.624,3.754-2.812c1.25-2.188,3.125-6.253,3.125-6.253
	l3.439-4.063l-6.877,2.813l-0.314-4.691c0,0,0-3.75,1.564-3.75c1.562,0,5.627,1.25,5.627,1.25s3.754-5.318-2.502-6.255
	c-6.254-0.938-6.254-0.938-6.254-0.938l-5.939-1.563l-1.563-2.813l3.753-4.379c0,0,1.875-3.438,1.875-4.378c0-0.936,0-3.438,0-4.688
	c0-1.249-4.375-7.506-4.375-7.506l-4.691-5.628l-6.879-4.378c0,0-1.252-2.375-0.312-4.472c0.938-2.093,1.25-3.347,2.188-5.847
	c0.938-2.502,0.627-6.254,0.627-6.254l4.689-3.44l-18.137,0.938l-5.939,2.503c0,0-14.699,0.938-23.453-10.945l-1.563-6.254
	c0,0-0.938-2.813-1.563-5.002s-3.127-7.506-3.752-8.756c-0.627-1.25-3.127-7.816-3.439-9.068c-0.312-1.25-2.188-3.438-2.188-3.438
	L329.625,515.781z"/>
</svg>
