<?xml version="1.0" encoding="utf-8"?>
<!-- Generator: Adobe Illustrator 15.1.0, SVG Export Plug-In . SVG Version: 6.00 Build 0)  -->
<!DOCTYPE svg PUBLIC "-//W3C//DTD SVG 1.1//EN" "http://www.w3.org/Graphics/SVG/1.1/DTD/svg11.dtd">
<svg version="1.1" id="Layer_1" xmlns="http://www.w3.org/2000/svg" xmlns:xlink="http://www.w3.org/1999/xlink" x="0px" y="0px"
	 width="536.378px" height="780.521px" viewBox="0 0 536.378 780.521" enable-background="new 0 0 536.378 780.521"
	 xml:space="preserve">
<g>
	<g>
		<path fill="#6ABCC3" d="M329.795,47.392l-2.106,10.53c18.959,9.479,17.903,17.903,17.903,17.903
			c20.01,5.263,109.521,70.558,109.521,70.558c43.176,28.433,43.176,48.442,43.176,48.442
			c50.553,211.678,34.752,419.134,34.752,419.134c-26.328,106.364-67.396,119.005-67.396,119.005
			C434.049,754.024,330.852,779.3,330.852,779.3c-36.861,7.373-57.922-21.062-57.922-21.062c-20.01-28.435-41.069,0-41.069,0
			c-16.853,31.595-57.922,15.798-57.922,15.798c-17.903-3.157-101.101-38.964-101.101-38.964
			c-61.081-27.384-73.72-130.586-73.72-130.586c-1.052-20.011,5.267-153.751,5.267-153.751
			C9.3,427.212,71.786,135.853,71.786,135.853c12.635-31.595,121.105-69.508,121.105-69.508v-5.267
			c7.373-1.051,12.637-6.318,12.637-6.318l1.055-4.212l-3.161-6.318l8.424-12.636l2.175-18.333l100.026,15.161L329.795,47.392z
			 M162.352,163.23c0,0-30.543-35.806-51.604,10.534c0,0-23.17,112.683-9.479,171.655c0,0,5.267,15.797,15.798,7.373l11.584-4.212
			C128.651,348.581,138.13,358.056,162.352,163.23z"/>
	</g>
	<path fill="#19152B" d="M209.215,35.279c0,0,45.303,0.528,111.104,0.528V0H211.368L209.215,35.279z"/>
</g>
<rect x="32.689" y="390.261" fill="none" width="468" height="59.5"/>
<text transform="matrix(1 0 0 1 49.8149 409.9434)"><tspan x="0" y="0" font-family="'Interstate-Regular'" font-size="27">number of gallons needed to cover </tspan><tspan x="-15.255" y="32.4" font-family="'Interstate-Regular'" font-size="27">the entire U.S. with one foot of water</tspan></text>
<text transform="matrix(1 0 0 1 195.2695 288.8154)" font-family="'Interstate-Bold'" font-size="120">790</text>
<text transform="matrix(1 0 0 1 235.7646 350.21)" font-family="'Interstate-Bold'" font-size="50">trillion</text>
</svg>
