<?xml version="1.0" encoding="utf-8"?>
<!-- Generator: Adobe Illustrator 15.1.0, SVG Export Plug-In . SVG Version: 6.00 Build 0)  -->
<!DOCTYPE svg PUBLIC "-//W3C//DTD SVG 1.1//EN" "http://www.w3.org/Graphics/SVG/1.1/DTD/svg11.dtd">
<svg version="1.1" id="Layer_1" xmlns="http://www.w3.org/2000/svg" xmlns:xlink="http://www.w3.org/1999/xlink" x="0px" y="0px"
	 width="536.378px" height="780.521px" viewBox="0 0 536.378 780.521" enable-background="new 0 0 536.378 780.521"
	 xml:space="preserve">
<g>
	<path fill="#40A09D" d="M330.796,47.392l-2.105,10.53c18.959,9.479,17.902,17.903,17.902,17.903
		c20.01,5.263,109.521,70.558,109.521,70.558c43.176,28.433,43.176,48.442,43.176,48.442
		c50.553,211.678,34.752,419.134,34.752,419.134c-26.328,106.364-67.396,119.005-67.396,119.005
		C435.05,754.024,331.853,779.3,331.853,779.3c-36.861,7.373-57.922-21.062-57.922-21.062c-24.242-29.478-41.069,0-41.069,0
		c-16.853,31.595-57.922,15.798-57.922,15.798c-17.903-3.157-101.101-38.964-101.101-38.964
		c-61.081-27.385-73.72-130.586-73.72-130.586c-1.052-20.012,5.267-153.751,5.267-153.751
		c4.915-23.522,67.401-314.881,67.401-314.881c12.635-31.594,121.105-69.507,121.105-69.507V61.08
		c7.373-1.051,12.637-6.318,12.637-6.318l1.055-4.212l-3.161-6.318l8.424-12.636l2.175-18.333l100.026,15.161L330.796,47.392z
		 M129.652,348.58c0,0.001,9.479,9.476,33.701-185.35c0,0,0.184-16.469-29.615-13.114c-8.173,0.92-16.322,7.118-21.989,23.648
		c0,0-23.17,112.683-9.479,171.655C102.27,345.419,114.615,361.899,129.652,348.58z"/>
	<path fill="#19152B" d="M210.216,35.279c0,0,45.303,0.528,111.104,0.528V0H212.369L210.216,35.279z"/>
</g>
<rect x="163.537" y="201.337" fill="none" width="335.21" height="91.324"/>
<rect x="-21.884" y="409.516" fill="none" width="587.719" height="34.201"/>
<rect x="189.037" y="313.761" fill="none" width="284.21" height="50.877"/>
</svg>
