<?xml version="1.0" encoding="utf-8"?>
<!-- Generator: Adobe Illustrator 15.1.0, SVG Export Plug-In . SVG Version: 6.00 Build 0)  -->
<!DOCTYPE svg PUBLIC "-//W3C//DTD SVG 1.1//EN" "http://www.w3.org/Graphics/SVG/1.1/DTD/svg11.dtd">
<svg version="1.1" id="Layer_1" xmlns="http://www.w3.org/2000/svg" xmlns:xlink="http://www.w3.org/1999/xlink" x="0px" y="0px"
	 width="536.378px" height="780.521px" viewBox="0 0 536.378 780.521" enable-background="new 0 0 536.378 780.521"
	 xml:space="preserve">
<g>
	<path fill="#6ABCC3" d="M330.796,47.392l-2.106,10.53c18.959,9.479,17.904,17.903,17.904,17.903
		c20.009,5.263,109.521,70.558,109.521,70.558c43.176,28.433,43.176,48.442,43.176,48.442
		c50.553,211.678,34.752,419.134,34.752,419.134c-26.328,106.364-67.396,119.005-67.396,119.005
		C435.05,754.024,331.853,779.3,331.853,779.3c-36.861,7.373-57.922-21.063-57.922-21.063c-20.01-28.434-41.069,0-41.069,0
		c-16.853,31.595-57.922,15.798-57.922,15.798c-17.903-3.157-101.101-38.964-101.101-38.964
		c-61.081-27.383-73.72-130.586-73.72-130.586c-1.052-20.01,5.267-153.751,5.267-153.751
		c4.915-23.522,67.401-314.881,67.401-314.881c12.635-31.594,121.105-69.507,121.105-69.507v-5.267
		c7.373-1.051,12.637-6.318,12.637-6.318l1.055-4.212l-3.161-6.318l8.424-12.636l2.175-18.333l100.027,15.161L330.796,47.392z
		 M163.353,163.23c0,0-30.543-35.806-51.604,10.534c0,0-23.17,112.683-9.479,171.655c0,0,5.267,15.797,15.798,7.373l11.584-4.212
		C129.652,348.581,139.131,358.056,163.353,163.23z"/>
	<path fill="#19152B" d="M210.216,35.279c0,0,45.303,0.528,111.104,0.528V0H212.369L210.216,35.279z"/>
</g>
<rect x="163.537" y="201.337" fill="none" width="335.21" height="91.324"/>
<rect x="-21.884" y="409.516" fill="none" width="587.719" height="34.201"/>
<rect x="189.037" y="313.761" fill="none" width="284.21" height="50.877"/>
</svg>
