<?xml version="1.0" encoding="utf-8"?>
<!-- Generator: Adobe Illustrator 15.1.0, SVG Export Plug-In . SVG Version: 6.00 Build 0)  -->
<!DOCTYPE svg PUBLIC "-//W3C//DTD SVG 1.1//EN" "http://www.w3.org/Graphics/SVG/1.1/DTD/svg11.dtd">
<svg version="1.1" id="Layer_1" xmlns="http://www.w3.org/2000/svg" xmlns:xlink="http://www.w3.org/1999/xlink" x="0px" y="0px"
	 width="536.379px" height="780.521px" viewBox="0 0 536.379 780.521" enable-background="new 0 0 536.379 780.521"
	 xml:space="preserve">
<g>
	<path fill="#6ABCC3" d="M330.795,47.392l-2.105,10.53c18.959,9.479,17.902,17.903,17.902,17.903
		c20.01,5.263,109.521,70.558,109.521,70.558c43.176,28.433,43.176,48.442,43.176,48.442
		c50.553,211.678,34.752,419.134,34.752,419.134c-26.328,106.364-67.396,119.005-67.396,119.005
		C435.049,754.024,331.852,779.3,331.852,779.3c-36.859,7.373-57.922-21.062-57.922-21.062c-20.01-28.437-41.069,0-41.069,0
		c-16.853,31.595-57.922,15.798-57.922,15.798c-17.903-3.157-101.101-38.964-101.101-38.964
		c-61.081-27.386-73.72-130.586-73.72-130.586c-1.052-20.013,5.267-153.751,5.267-153.751
		c4.915-23.522,67.401-314.881,67.401-314.881c12.635-31.595,121.105-69.508,121.105-69.508v-5.267
		c7.373-1.051,12.637-6.318,12.637-6.318l1.055-4.212l-3.161-6.318l8.424-12.636l2.175-18.333l100.026,15.161L330.795,47.392z
		 M163.352,163.23c0,0-30.543-35.806-51.604,10.534c0,0-23.17,112.683-9.479,171.655c0,0,5.267,15.797,15.798,7.373l11.584-4.212
		C129.651,348.581,139.13,358.056,163.352,163.23z"/>
	<path fill="#19152B" d="M210.215,35.279c0,0,45.303,0.528,111.104,0.528V0H212.369L210.215,35.279z"/>
</g>
<rect x="56.69" y="386.761" fill="none" width="434" height="82"/>
<text transform="matrix(1 0 0 1 75.8584 408.6309)" font-family="'Interstate-Regular'" font-size="30">number of gallons needed to </text>
<text transform="matrix(1 0 0 1 114.8574 444.6309)" font-family="'Interstate-Regular'" font-size="30">fill the Goodyear Blimp</text>
<text transform="matrix(1 0 0 1 233.1895 288.8154)" font-family="'Interstate-Bold'" font-size="120">1.5</text>
<text transform="matrix(1 0 0 1 233.9893 350.21)" font-family="'Interstate-Bold'" font-size="50">million</text>
<g>
	<path d="M156.239,519.428c-5.667-12.334-15.334-10.118-15.334-10.118l-22.666,0.118c-4.334-0.271-3.667,4.666-3.667,4.666v24.334
		c-31.333,10-27,20.333-27,20.333c6.333,13.8,40.333,20.333,40.333,20.333l0.667,3l-15-4.666v18.333
		c0,3.667,3.333,4.333,3.333,4.333l17.334,2c19.667,3,25.333-14.666,25.333-14.666c43,13.334,125.334,17.333,125.334,17.333
		l9.334,14.333c1.334,2.666,3.666,2.667,3.666,2.667h25.666c3.334-0.667,3.668-3,3.668-3l2-12.333
		c124.334,5.334,135.998-38.001,135.998-38.001l2.334-1.666c2.334-2.667-2.334-4.333-2.334-4.333c-23.334-43-136-44-136-44
		c-94-5.333-166.666,10-166.666,10L156.239,519.428z"/>
	<path fill="none" stroke="#6ABCC3" stroke-miterlimit="10" d="M465.238,568.427c-4.668-4.334,0-5.999,0-5.999"/>
</g>
<g>
	<path fill="#6ABDC4" stroke="#000000" stroke-miterlimit="10" d="M422.804,554.831c-0.828-2.605-3.3-4.446-6.017-4.477
		l-19.299-0.21l-0.534-0.006c-0.357-0.002-0.671,0.236-0.763,0.583l-6.532,25.058c-0.06,0.229-0.01,0.478,0.133,0.67
		c0.149,0.188,0.374,0.303,0.611,0.304l11.327,0.129c0.346,0.004,0.646-0.223,0.736-0.559c0,0,0.737-2.76,1.292-4.832
		c0.867,2.079,2.064,4.944,2.064,4.944c0.126,0.298,0.417,0.495,0.733,0.497l11.872,0.133c0.248,0.002,0.469-0.112,0.598-0.309
		c0.088-0.135,0.126-0.299,0.112-0.465c-0.007-0.076-0.023-0.149-0.05-0.225c0,0-2.565-7.117-2.869-8.179
		c0.847-0.457,2.176-1.262,3.404-2.39c1.834-1.682,2.881-3.409,3.392-5.608c0.168-0.72,0.252-1.396,0.26-2.068
		C423.285,556.849,423.131,555.869,422.804,554.831 M410.69,556.182c-0.085,0.433-0.206,1.085-0.494,2.288
		c-0.52,2.156-0.567,2.538-1.019,3.038c-0.496,0.557-1.107,0.787-1.581,0.771c-0.141,0.002-0.637-0.009-1.387-0.011
		c0.359-1.391,1.613-6.138,1.8-6.854c0.688,0.008,1.7,0.02,1.7,0.02c0.279,0.002,0.713,0.101,0.864,0.235
		C410.723,555.806,410.737,555.946,410.69,556.182"/>
	<path fill="#6ABDC4" stroke="#000000" stroke-miterlimit="10" d="M203.798,547.933c-3.218-0.036-7.163,1.235-10.302,3.319
		c-4.652,3.086-7.368,7.027-8.298,12.053c-0.121,0.648-0.183,1.306-0.189,1.958c-0.032,2.882,1.067,5.647,3.015,7.588
		c2.055,2.046,5.413,3.354,8.554,3.329c2.349-0.02,4.276-0.26,7.171-1.429c4.196-1.7,8.179-5.31,10.396-9.431
		c2.242-4.167,2.099-9.422-0.349-12.774C211.064,548.793,206.851,547.966,203.798,547.933 M196.914,570.475
		c-0.209-0.265-0.277-0.646-0.185-1.046c0.237-1.049,2.628-9.729,3.612-13.227c0.008-0.032,0.414-1.438,0.414-1.438
		c0.213-0.792,0.958-1.4,1.909-1.414c0.938-0.014,1.201,0.756,1.098,1.305c-0.536,2.847-2.812,10.76-3.583,13.499
		c-0.001,0.003-0.292,1.049-0.292,1.049c-0.154,0.59-0.838,1.65-2.111,1.637C197.39,570.834,197.101,570.714,196.914,570.475"/>
	<path fill="#6ABDC4" stroke="#000000" stroke-miterlimit="10" d="M339.952,550.292c0.001-0.111-0.021-0.227-0.069-0.331
		c-0.126-0.276-0.399-0.454-0.702-0.456l-5.751-0.063c-0.229-0.003-0.448,0.097-0.596,0.269c0,0-4.77,5.503-6.143,7.088
		c-0.464-1.826-1.833-6.86-1.833-6.86c-0.072-0.341-0.364-0.582-0.719-0.587l-12.146-0.146c-0.246-0.003-0.477,0.108-0.627,0.301
		c-0.105,0.137-0.161,0.301-0.164,0.471c-0.001,0.068,0.01,0.142,0.027,0.209c0,0,3.654,12.743,3.757,13.128
		c-0.1,0.388-3.068,11.665-3.068,11.665c-0.016,0.062-0.024,0.126-0.025,0.189c-0.001,0.173,0.054,0.341,0.162,0.48
		c0.144,0.191,0.366,0.303,0.61,0.306l12.077,0.134c0.354,0.003,0.67-0.231,0.76-0.575c0,0,2.842-11.055,2.931-11.384
		c0.218-0.259,11.334-13.341,11.334-13.341C339.889,550.645,339.95,550.472,339.952,550.292"/>
	<path fill="#6ABDC4" stroke="#000000" stroke-miterlimit="10" d="M312.811,548.321c0.739-0.243,1.512-0.594,1.797-1.415
		c0,0,0.024-0.14,0.047-0.272c1.142-0.278,2.082-0.807,2.787-1.607c0,0,0.425-0.486,0.586-0.669
		c4.303,0.398,8.646,0.364,12.129-1.62c0.021-0.013,0.064-0.041,0.085-0.053l0.023-0.019c1.957-1.358,3.139-3.304,3.16-5.196
		l0.011-0.852c0.004-0.237-0.102-0.465-0.284-0.614c-0.184-0.151-0.425-0.208-0.654-0.157l-0.833,0.175
		c-6.899,1.464-15.063,0.853-20.605,0.265c-0.021-0.003-0.07-0.005-0.095-0.007l-1.687-0.091c-4.192-0.109-9.551-0.419-12.637,4.073
		c-0.44,0.581-0.801,1.333-0.993,1.633c-0.192,0.305-0.462-1.114-1.331-0.654c-1.951,1.028-3.822,2.036-5.62,3.048
		c-0.029,0.016-4.01,2.212-4.01,2.212c-0.471,0.259-0.77,0.581-0.777,1.181c0,0.054,0.005,0.106,0.016,0.163
		c0.129,0.58,0.146,0.776,0.561,1.489l1.812,3.106c0.405,0.617,0.629,0.697,0.942,0.809l0.033,0.494
		c0.063,1.008-0.108,2.155-0.306,3.34l-0.198,1.19c-0.034,0.201,0.016,0.404,0.13,0.57c-0.339,0.157-0.619,0.439-0.775,0.806
		c0.01-0.024,0.021-0.051,0.035-0.073c-1.945,3.455-3.635,7.467-5.168,12.259c-0.686,1.424-1.886,2.711-3.05,3.955
		c-0.005,0.006-1.271,1.394-1.271,1.394c-0.286,0.332-1.104,1.285-1.119,2.607c-0.004,0.324,0.041,0.648,0.132,0.965
		c0.198,0.624,0.524,1.034,0.904,1.291c-0.024,0.072-0.051,0.142-0.052,0.216c-0.002,0.119,0.023,0.237,0.078,0.352
		c0,0,0.299,0.609,0.299,0.611l0.109,0.239c0.568,1.411,1.609,1.479,2.178,1.392l0.075-0.011c0.06-0.012,0.114-0.024,0.169-0.046
		l0.07-0.028c3.143-1.23,6.052-2.946,8.642-5.098c0.029-0.023,0.055-0.045,3.172-2.985c4.733-4.499,9.622-9.146,14.992-12.074
		c0.002,0,0.571-0.312,0.571-0.312c0.365-0.201,0.513-0.65,0.329-1.026l-0.286-0.581c-0.243-0.498-0.603-1.009-0.994-1.407
		c0,0-0.087-0.087-0.179-0.182c-0.018-0.082-0.04-0.165-0.086-0.244l-3.034-5.401c0,0,0.061-0.109,0.132-0.282
		c0.377,0.228,0.831,0.386,1.39,0.281l0.358-0.066c0.259-0.049,0.477-0.221,0.576-0.463l0.296-0.697
		c0.156-0.37,0.308-0.761,0.438-1.173c0.023,0.005,0.04,0.02,0.062,0.024l0.363,0.082c0.259,0.062,0.528-0.015,0.718-0.198
		l0.267-0.261c0.801-0.777,1.17-1.872,1.424-2.838c0.12-0.34,0.182-0.696,0.188-1.093c0,0-0.006-0.084-0.007-0.112
		c0.994,0.2,1.908,0.214,2.73,0.028C311.806,548.642,312.665,548.369,312.811,548.321"/>
	<path fill="#6ABDC4" stroke="#000000" stroke-miterlimit="10" d="M385.114,550.012l-9.6-0.114
		c-0.271-0.003-0.524,0.136-0.669,0.364l-0.203,0.32l0,0l-15.625,24.637c-0.152,0.24-0.161,0.544-0.026,0.789
		c0.133,0.249,0.393,0.407,0.674,0.408l5.204,0.059c0.27,0.002,0.52-0.133,0.666-0.361c0,0,1.87-2.936,2.251-3.536l6.835,0.075
		c0.062,0.961,0.21,3.211,0.21,3.211c0.026,0.405,0.362,0.724,0.77,0.727l11.571,0.129c0.219,0.003,0.43-0.089,0.579-0.249
		c0.147-0.159,0.225-0.377,0.204-0.595l-2.072-25.148C385.85,550.325,385.517,550.018,385.114,550.012 M371.517,566.65l2.322-3.684
		l0.294,3.713L371.517,566.65z"/>
	<path fill="#6ABDC4" stroke="#000000" stroke-miterlimit="10" d="M358.371,571.097c0.004-0.174-0.054-0.343-0.159-0.481
		c-0.143-0.191-0.368-0.304-0.608-0.306c0,0-6.401-0.079-7.994-0.097c0.037-0.128,1.116-4.069,1.37-4.986
		c0.967,0.01,5.239,0.062,5.239,0.062c0.361,0.004,0.678-0.243,0.766-0.591l1.188-4.739c0.014-0.06,0.021-0.12,0.021-0.181
		c0.004-0.174-0.053-0.346-0.161-0.485c-0.145-0.189-0.371-0.303-0.608-0.304c0,0-3.348-0.039-4.72-0.054
		c0.274-1.002,0.63-2.301,0.812-2.964c1.05,0.017,8.408,0.101,8.408,0.101c0.362,0.004,0.681-0.242,0.765-0.595l1.169-4.744
		c0.055-0.23,0.001-0.475-0.143-0.663c-0.145-0.188-0.369-0.3-0.607-0.302l-0.859-0.01l-19.641-0.217
		c-0.356-0.003-0.669,0.234-0.76,0.58l-6.662,25.061c-0.061,0.231-0.012,0.479,0.132,0.672c0.146,0.191,0.375,0.304,0.616,0.306
		l20.456,0.225c0.357,0.002,0.671-0.237,0.761-0.581l1.196-4.518C358.362,571.225,358.37,571.158,358.371,571.097"/>
	<path fill="#6ABDC4" stroke="#000000" stroke-miterlimit="10" d="M421.408,555.272c-0.629-1.994-2.505-3.434-4.637-3.456
		c-0.632-0.008-19.301-0.21-19.301-0.21l-2.092,8.02l-4.087,15.676l9.894,0.113l2.252-8.432l3.552,8.496l10.396,0.114l-2.903-8.467
		c1.145-0.488,2.847-1.503,4.156-2.704c1.825-1.671,2.583-3.258,2.958-4.863C421.977,557.922,421.828,556.586,421.408,555.272
		 M412.223,555.916c-0.082,0.487-0.155,0.854-0.62,2.857c-0.382,1.646-0.524,2.784-1.175,3.54c-0.784,0.908-1.347,1.274-2.532,1.41
		c-0.444,0.052-1.934-0.006-3.578-0.023l1.026-3.965l1.529-5.796l2.766,0.032C411.394,553.99,412.36,555.099,412.223,555.916"/>
	<line fill="none" stroke="#000000" stroke-miterlimit="10" x1="406.572" y1="564.047" x2="406.578" y2="563.588"/>
	<polygon fill="#6ABDC4" stroke="#000000" stroke-miterlimit="10" points="361.399,554.603 362.231,551.219 343.122,551.01 
		336.822,574.711 355.876,574.919 356.711,571.759 347.702,571.65 349.866,563.75 355.699,563.821 356.543,560.439 350.795,560.375 
		352.407,554.499 	"/>
	<path fill="#6ABDC4" stroke="#000000" stroke-miterlimit="10" d="M285.493,547.723c2.831-1.49,5.699-3.239,8.901-4.885
		c0.065-0.035,0.622,0.798,0.608,0.858c-0.257,1.259-0.38,2.551,0.147,3.781c0.073,0.181,0.002,0.202-0.094,0.271l-7.131,4.05
		c-0.215,0.116-0.266,0.095-0.368-0.096l-2.161-3.706C285.296,547.84,285.366,547.796,285.493,547.723"/>
	<path fill="#6ABDC4" stroke="#000000" stroke-miterlimit="10" d="M295.545,552.538c0.104-1.012,0.308-2.296,0.503-3.305
		c-1.848,0.805-3.608,1.98-5.372,3.06C292.33,552.406,293.889,552.703,295.545,552.538"/>
	<path fill="#6ABDC4" stroke="#000000" stroke-miterlimit="10" d="M294.235,554.361l-5.505-0.713
		c0.076,1.199-0.123,2.48-0.323,3.676C290.283,556.583,292.24,555.429,294.235,554.361"/>
	<path fill="#6ABDC4" stroke="#000000" stroke-miterlimit="10" d="M293.785,568.424c3.163-2.902,6.872-5.246,10.301-7.411
		l-1.98-3.52c-0.93,0.815-1.775,2.46-3.07,2.905c-1.454-1.399-2.445-2.974-2.976-4.819c-2.403,1.165-4.808,2.24-7.031,3.592
		c1.342,3.141,3.051,6.195,4.482,9.251C293.581,568.609,293.584,568.624,293.785,568.424"/>
	<path fill="#6ABDC4" stroke="#000000" stroke-miterlimit="10" d="M287.814,560.535c1.435,3.051,3.146,6.016,4.484,9.158
		c-4.377,4.359-8.672,9.548-14.577,11.222c-0.368,0.088-0.55-0.283-0.637-0.561c-0.264-0.922,0.204-1.654,0.671-2.198
		c1.586-1.819,3.538-3.542,4.578-5.737c1.34-4.214,2.955-8.331,5.118-12.164C287.506,560.067,287.644,560.156,287.814,560.535"/>
	<path fill="#6ABDC4" stroke="#000000" stroke-miterlimit="10" d="M300.076,565.377c-6.949,4.418-11.551,11.994-18.953,15.675
		c-1.018,0.447-2.125,0.798-2.96,1.429c0.271,0.375,0.263,1.016,0.816,0.933c2.955-1.16,5.734-2.781,8.243-4.863
		c5.675-5.262,11.639-11.534,18.4-15.218c-0.186-0.369-0.455-0.745-0.726-1.021L300.076,565.377"/>
	<path fill="#6ABDC4" stroke="#000000" stroke-miterlimit="10" d="M311.709,547.128c0.553-0.176,1.788-0.464,1.482-0.902
		c-0.645-0.1-1.194-0.38-1.463-0.843c1.746,0.114,3.495-0.049,4.616-1.322c-0.917-0.286-2.02-0.484-2.375-1.317
		c0.092-0.183,0.186-0.182,0.279-0.273c4.955,0.616,10.921,1.424,15.183-1.006c1.3-0.902,2.515-2.358,2.533-4.014
		c-6.545,1.388-14.173,1.02-21.062,0.289c-4.87-0.062-10.93-0.776-13.567,4.152c-1.04,2.194-0.892,5.231,0.649,7.09
		c-0.396,2.204-0.708,4.956,0.369,6.992c0.271,0.557,0.722,1.392,1.362,1.491c0.935-1.095,1.687-2.462,2.071-3.929
		c0.484-2.017,1.188,0.656,2.108,0.486c0.379-0.918,0.854-1.83,0.775-2.934c0.282-0.958,0.943,0.431,1.554,0.572
		c0.558-0.546,0.849-1.462,1.038-2.194c0.383-0.916-0.248-1.936,0.312-2.663C308.765,547.275,310.32,547.664,311.709,547.128"/>
	<path fill="#6ABDC4" stroke="#000000" stroke-miterlimit="10" d="M212.617,553.403c-2.353-3.228-6.052-3.979-8.836-4.01
		c-2.817-0.03-6.471,1.081-9.478,3.074c-3.823,2.536-6.248,5.688-7.337,9.671c-0.129,0.469-0.24,0.942-0.331,1.432
		c-0.668,3.611,0.691,6.524,2.419,8.246c1.938,1.93,4.979,2.922,7.511,2.902c2.142-0.017,3.907-0.223,6.634-1.324
		c3.892-1.576,7.618-4.974,9.657-8.765C214.931,560.777,214.661,556.206,212.617,553.403 M205.169,554.985
		c-0.683,3.573-3.685,13.878-3.872,14.599c-0.236,0.896-1.506,2.737-3.541,2.714c-1.836-0.019-2.816-1.587-2.455-3.194
		c0.132-0.582,1.042-3.971,1.768-6.577c1.036-3.72,2.183-7.808,2.276-8.15c0.181-0.67,0.681-1.529,1.575-2.009
		c1.102-0.598,2.396-0.668,3.382,0.052C204.889,552.847,205.397,553.788,205.169,554.985"/>
	<path fill="#6ABDC4" stroke="#000000" stroke-miterlimit="10" d="M333.731,550.906l-7.766,8.963
		c-0.634-2.481-2.434-9.067-2.434-9.067l-10.657-0.126l3.625,12.635l-2.947,11.193l10.677,0.117l2.878-11.185l10.608-12.486
		L333.731,550.906"/>
	<path fill="#6ABDC4" stroke="#000000" stroke-miterlimit="10" d="M384.478,551.464l-8.6-0.101l-14.971,23.605l3.598,0.039
		l2.484-3.898l4.949,0.054l4.055,0.045l0.255,3.93l10.189,0.111L384.478,551.464z M371.972,568.115l-3.052-0.034l5.996-9.483
		l0.781,9.559L371.972,568.115z"/>
	<path fill="#6ABDC4" stroke="#000000" stroke-miterlimit="10" d="M301.206,548.654c-0.556,0.085-1.101-0.291-1.279-0.843
		c0.107-1.103-1.733-0.94-1.263-2.039c0.735,0.101,1.284,0.384,2.11,0.395c0.064,0.567,0.34,2.079,0.436,2.213L301.206,548.654"/>
	<path fill="#6ABDC4" stroke="#000000" stroke-miterlimit="10" d="M301.035,548.855c-0.571-0.007-1.104-0.412-1.289-0.987
		l-0.011-0.038l0.004-0.038c0.037-0.382-0.212-0.561-0.628-0.811c-0.394-0.237-0.93-0.562-0.618-1.285l0.057-0.131l0.142,0.021
		c0.306,0.041,0.58,0.114,0.846,0.181c0.394,0.105,0.768,0.205,1.242,0.211l0.166,0.001l0.017,0.166
		c0.073,0.622,0.331,1.98,0.409,2.137l0.034,0.05l-0.006,0.051l-0.004,0.435l-0.16,0.024
		C301.168,548.853,301.102,548.856,301.035,548.855z M300.118,547.787c0.142,0.396,0.507,0.676,0.901,0.69l0.001-0.06
		c-0.136-0.342-0.338-1.553-0.412-2.068c-0.442-0.026-0.811-0.123-1.171-0.217c-0.216-0.059-0.424-0.111-0.644-0.152
		c-0.075,0.305,0.127,0.444,0.513,0.679C299.686,546.888,300.155,547.171,300.118,547.787z"/>
	<path fill="#6ABDC4" stroke="#000000" stroke-miterlimit="10" d="M307.182,541.281c-0.562,0.819-1.453,1.49-2.553,1.2
		c-0.557,0.544-1.338,0.96-2.165,0.854c-0.639-0.099-1.377-0.201-1.644-0.756c0.921-0.079,2.118-0.251,2.499-1.348
		c0.377-0.73,1.289,0.015,1.844-0.346c0.555-0.268,0.836-0.634,1.209-0.997c0.824,0.104,1.647,0.389,2.57,0.216
		c0.367,0.098,0.086,0.463-0.006,0.646C308.472,541.113,307.822,541.29,307.182,541.281"/>
	<path fill="#6ABDC4" stroke="#000000" stroke-miterlimit="10" d="M302.689,543.542c-0.082-0.001-0.164-0.008-0.249-0.018
		l-0.057-0.01c-0.67-0.105-1.431-0.224-1.733-0.853l-0.119-0.245l0.272-0.023c0.954-0.085,2.001-0.254,2.335-1.223
		c0.164-0.323,0.416-0.465,0.772-0.462c0.146,0.002,0.295,0.026,0.438,0.049c0.296,0.048,0.558,0.07,0.712-0.029
		c0.431-0.21,0.687-0.47,0.956-0.747c0.074-0.074,0.147-0.149,0.225-0.227l0.065-0.062l0.09,0.013
		c0.232,0.028,0.466,0.071,0.702,0.115c0.594,0.109,1.24,0.208,1.809,0.102l0.042-0.009l0.04,0.013
		c0.187,0.048,0.265,0.153,0.299,0.231c0.086,0.21-0.044,0.437-0.141,0.604l-0.097,0.139c-0.453,0.354-1.095,0.558-1.771,0.57
		c-0.704,0.979-1.647,1.422-2.595,1.219C304.303,543.041,303.595,543.551,302.689,543.542z M301.174,542.737
		c0.292,0.253,0.787,0.331,1.269,0.405l0.051,0.009c0.063,0.009,0.132,0.014,0.2,0.015c0.834,0.009,1.488-0.51,1.805-0.82
		l0.075-0.073l0.103,0.028c0.152,0.037,0.302,0.06,0.45,0.061c0.937,0.011,1.592-0.74,1.899-1.187l0.057-0.083l0.103,0.001
		c0.618,0.007,1.196-0.164,1.604-0.467c0.013-0.019,0.021-0.035,0.032-0.055c0.037-0.063,0.122-0.213,0.116-0.268l0,0
		c-0.002,0-0.004-0.002-0.008-0.002c-0.612,0.104-1.29,0.003-1.901-0.111c-0.197-0.035-0.393-0.074-0.59-0.101
		c-0.053,0.053-0.103,0.104-0.153,0.156c-0.28,0.287-0.568,0.584-1.039,0.811c-0.211,0.14-0.604,0.131-0.957,0.073
		c-0.13-0.021-0.258-0.044-0.381-0.046c-0.215,0-0.333,0.063-0.42,0.234C303.111,542.41,301.975,542.648,301.174,542.737z"/>
	<path fill="#6ABDC4" stroke="#000000" stroke-miterlimit="10" d="M235.647,548.283c-3.214-0.035-7.162,1.234-10.3,3.318
		c-4.653,3.086-7.368,7.028-8.299,12.056c-0.117,0.646-0.182,1.305-0.189,1.956c-0.032,2.882,1.069,5.647,3.015,7.589
		c2.057,2.046,5.413,3.354,8.554,3.328c2.352-0.021,4.279-0.262,7.173-1.429c4.197-1.7,8.18-5.311,10.394-9.43
		c2.242-4.168,2.101-9.421-0.348-12.774C242.917,549.143,238.701,548.315,235.647,548.283 M228.766,570.826
		c-0.208-0.266-0.276-0.649-0.186-1.048c0.236-1.05,2.63-9.729,3.613-13.226c0.009-0.032,0.413-1.438,0.413-1.438
		c0.215-0.793,0.958-1.4,1.911-1.414c0.937-0.015,1.198,0.755,1.096,1.304c-0.534,2.848-2.812,10.761-3.582,13.5
		c-0.002,0.003-0.292,1.05-0.292,1.05c-0.153,0.588-0.839,1.649-2.113,1.636C229.241,571.184,228.953,571.063,228.766,570.826"/>
	<path fill="#6ABDC4" stroke="#000000" stroke-miterlimit="10" d="M244.467,553.754c-2.35-3.228-6.052-3.98-8.835-4.009
		c-2.816-0.031-6.471,1.08-9.478,3.075c-3.822,2.534-6.25,5.685-7.338,9.67c-0.127,0.467-0.239,0.942-0.331,1.432
		c-0.666,3.61,0.691,6.522,2.419,8.244c1.938,1.93,4.977,2.922,7.508,2.903c2.145-0.017,3.91-0.224,6.638-1.326
		c3.893-1.573,7.617-4.972,9.656-8.765C246.78,561.127,246.511,556.556,244.467,553.754 M237.018,555.335
		c-0.68,3.575-3.685,13.878-3.872,14.599c-0.236,0.897-1.505,2.737-3.538,2.716c-1.838-0.021-2.818-1.589-2.455-3.196
		c0.131-0.581,1.041-3.971,1.766-6.576c1.036-3.719,2.184-7.809,2.276-8.15c0.18-0.671,0.682-1.528,1.573-2.01
		c1.102-0.598,2.397-0.667,3.386,0.053C236.74,553.196,237.248,554.14,237.018,555.335"/>
	<path fill="#6ABDC4" stroke="#000000" stroke-miterlimit="10" d="M179.504,574.828c0.36,0.009,0.681-0.23,0.771-0.58l0.132-0.514
		c-0.002,0.01,3.419-12.748,3.419-12.748c0.064-0.232,0.016-0.483-0.128-0.675c-0.146-0.194-0.374-0.308-0.615-0.311l-10.814-0.118
		c-0.353-0.003-0.664,0.23-0.759,0.57c0,0-2.095,7.55-2.362,8.508c-0.97-0.01-1.717,0.045-2.134-0.153
		c-0.084-0.035-0.799-0.381-0.793-0.903l0.029-0.191c0-0.002,2.675-9.512,3.517-12.51c0.12-0.424,0.512-1.074,0.969-1.375
		c1.088-0.721,2.371-0.824,3.14-0.807c1.469,0.041,2.423,0.416,3.932,1.551l0.542,0.407c0.342,0.259,0.827,0.19,1.087-0.148
		l2.523-3.291c0.253-0.331,0.202-0.804-0.118-1.071l-0.5-0.419c-1.645-1.381-4.691-2.32-7.76-2.397
		c-3.724-0.096-7.526,1.02-10.441,3.057c-2.904,2.035-5.117,4.375-6.579,6.954c-0.74,1.304-1.318,2.879-1.587,4.318
		c-0.375,2.022-0.22,3.693,0.533,5.765c0.479,1.32,1.23,2.537,2.11,3.432c2.398,2.424,6.075,3.091,6.787,3.199
		c1.601,0.248,3.202,0.335,4.699,0.345L179.504,574.828"/>
	<path fill="#6ABDC4" stroke="#000000" stroke-miterlimit="10" d="M271.277,548.992c-2.922-0.23-4.354-0.277-7.77-0.314
		c-3.437-0.038-9.014,0.07-9.05,0.072h0.002l-0.498,0.016c-0.339,0.009-0.634,0.239-0.726,0.564l-0.137,0.479
		c-0.26,0.924-2.526,8.933-3.453,12.494l-3.205,12.048c-0.062,0.232-0.013,0.479,0.133,0.67c0.144,0.193,0.369,0.305,0.607,0.308
		l0.875,0.014c0.001,0,12.457,0.162,12.457,0.162c4.695,0.052,9.084-1.412,12.694-4.228c4.041-3.154,6.51-7.778,6.605-12.364
		C279.974,551.24,273.121,549.138,271.277,548.992 M267.655,554.702c-0.161,0.778-0.652,2.978-1.367,5.684
		c0.002-0.007-2.004,7.289-2.004,7.289c0.001-0.003-0.315,1.123-0.315,1.123c-0.075,0.274-0.53,0.918-1.179,1.247
		c-0.171,0.087-0.533,0.188-0.997,0.182l-1.226-0.014c0.455-1.678,4.123-15.249,4.399-16.277l1.633,0.019
		c0.574,0.006,0.833,0.133,0.992,0.316C267.685,554.379,267.666,554.644,267.655,554.702"/>
	<path fill="#6ABDC4" stroke="#000000" stroke-miterlimit="10" d="M271.166,550.45c-2.857-0.228-4.222-0.272-7.675-0.309
		c-3.448-0.04-8.987,0.067-8.987,0.067s-2.46,8.683-3.445,12.464c-0.015,0.058-0.03,0.12-0.045,0.179
		c-1,3.829-2.938,11.032-2.938,11.032l12.454,0.16c4.403,0.049,8.447-1.317,11.777-3.919c3.194-2.49,5.948-6.582,6.043-11.239
		C278.486,552.473,272.888,550.583,271.166,550.45 M269.158,554.613c-0.051,0.379-0.664,3.135-1.456,6.145
		c-0.961,3.66-2.129,7.708-2.325,8.43c-0.193,0.712-0.94,1.66-1.924,2.161c-0.468,0.238-1.101,0.345-1.678,0.339l-3.108-0.035
		c0.476-1.762,1.399-5.172,2.35-8.691c1.144-4.225,2.327-8.607,2.836-10.498l2.764,0.03c1.018,0.012,1.672,0.363,2.126,0.845
		C269.082,553.696,269.241,554.006,269.158,554.613"/>
	<path fill="#6ABDC4" stroke="#000000" stroke-miterlimit="10" d="M178.991,573.369l3.192-11.917l-0.991-0.011l-8.412-0.093
		l-2.503,9.016c-1.592-0.018-3.024,0.027-3.652-0.198c-0.289-0.104-2.312-0.956-1.778-2.853c0.27-0.947,2.717-9.655,3.543-12.592
		c0.219-0.779,0.899-1.803,1.936-2.367c1.108-0.608,2.378-0.826,3.595-0.794c1.896,0.05,3.129,0.607,4.773,1.845l1.715-2.239
		c-0.398-0.336-0.935-0.658-1.578-0.944c-1.368-0.611-3.22-1.062-5.279-1.112c-2.844-0.072-6.493,0.646-9.564,2.793
		c-2.893,2.027-4.896,4.273-6.147,6.478c-0.682,1.202-1.187,2.613-1.42,3.865c-0.346,1.861-0.147,3.307,0.468,4.997
		c0.42,1.152,1.064,2.182,1.779,2.904c1.908,1.934,4.875,2.613,5.964,2.783c1.521,0.235,3.053,0.316,4.494,0.326L178.991,573.369"/>
	<path fill="#6ABDC4" stroke="#000000" stroke-miterlimit="10" d="M422.301,572.589c1.225,0.015,2.311,0.908,2.295,2.279
		c-0.015,1.38-1.117,2.254-2.342,2.242c-1.23-0.015-2.314-0.914-2.299-2.293C419.971,573.444,421.072,572.576,422.301,572.589
		 M422.258,576.625c0.935,0.011,1.71-0.73,1.722-1.764c0.013-1.028-0.749-1.778-1.684-1.79c-0.952-0.01-1.715,0.725-1.726,1.753
		C420.558,575.857,421.306,576.615,422.258,576.625 M421.388,573.562l0.958,0.013c0.633,0.007,0.985,0.21,0.98,0.761
		c-0.003,0.465-0.299,0.645-0.672,0.67l0.664,1.112l-0.525-0.007l-0.604-1.086l-0.312-0.004l-0.013,1.081l-0.503-0.006
		L421.388,573.562z M421.88,574.625l0.447,0.006c0.281,0.003,0.493-0.036,0.496-0.345c0.004-0.271-0.284-0.316-0.515-0.319
		l-0.422-0.005L421.88,574.625z"/>
</g>
</svg>
