<?xml version="1.0" encoding="utf-8"?>
<!-- Generator: Adobe Illustrator 15.1.0, SVG Export Plug-In . SVG Version: 6.00 Build 0)  -->
<!DOCTYPE svg PUBLIC "-//W3C//DTD SVG 1.1//EN" "http://www.w3.org/Graphics/SVG/1.1/DTD/svg11.dtd">
<svg version="1.1" id="Layer_1" xmlns="http://www.w3.org/2000/svg" xmlns:xlink="http://www.w3.org/1999/xlink" x="0px" y="0px"
	 width="536.378px" height="780.521px" viewBox="0 0 536.378 780.521" enable-background="new 0 0 536.378 780.521"
	 xml:space="preserve">
<rect x="165.537" y="232.964" fill-rule="evenodd" clip-rule="evenodd" fill="none" width="335.21" height="115.885"/>
<text transform="matrix(1 0 0 1 169.165 298.5732)" font-family="'Interstate-Bold'" font-size="90">39,000 </text>
<rect x="-19.884" y="403.235" fill="none" width="587.72" height="62.175"/>
<text transform="matrix(1 0 0 1 73.6084 424.5352)"><tspan x="0" y="0" font-family="'MyriadPro-Regular'" font-size="30">amount needed to manufacture</tspan><tspan x="141.044" y="36" font-family="'MyriadPro-Regular'" font-size="30">a new car</tspan></text>
<path fill-rule="evenodd" clip-rule="evenodd" fill="#19162B" stroke="#19162B" stroke-miterlimit="10" d="M343.082,542.948
	c2.981,3.982,11.926,15.932,11.926,15.932l31.304,10.353c19.379,20.71,13.416,46.999,13.416,46.999l-5.962,3.981
	c-0.744,20.709-14.907,25.487-14.907,25.487c-17.144,4.78-24.596-11.149-24.596-11.149l-79.75,27.081
	c-3.725,24.694-15.652,27.082-15.652,27.082c-14.162,5.577-28.322-10.353-28.322-10.353l-17.143,3.982
	c-5.218,3.982-19.378,0-19.378,0l-76.024-42.218v-14.338l5.962-3.184c8.198-31.067,46.21-40.625,46.21-40.625l7.454-7.17
	c4.471-12.743,36.521-31.861,36.521-31.861c13.416-11.946,67.825-18.319,67.825-18.319
	C311.778,526.221,340.103,538.967,343.082,542.948z M199.233,645.7l-19.378-7.963l-0.744,12.743l19.378,7.967L199.233,645.7z
	 M145.57,617.426l-14.355-7.967l-0.552,12.745l14.354,7.965L145.57,617.426z M261.841,590.74l4.472-23.1
	c1.272-4.969-1.938-7.485-1.938-7.485s0.642,0.229-1.043-0.478c-2.079-0.874-51.43-13.542-51.43-13.542
	c-23.105,11.947-31.303,30.266-31.303,30.266c26.086,26.286,70.806,23.898,70.806,23.898
	C258.114,601.096,261.841,590.74,261.841,590.74z M266.302,600.409l41.305-10.29l-5.351-33.622l-28.464,5.717L266.302,600.409z
	 M306.751,555.582l6.206,33.393l41.306-9.835l-23.113-27.219L306.751,555.582z"/>
</svg>
