<?xml version="1.0" encoding="utf-8"?>
<!-- Generator: Adobe Illustrator 15.1.0, SVG Export Plug-In . SVG Version: 6.00 Build 0)  -->
<!DOCTYPE svg PUBLIC "-//W3C//DTD SVG 1.1//EN" "http://www.w3.org/Graphics/SVG/1.1/DTD/svg11.dtd">
<svg version="1.1" id="Layer_1" xmlns="http://www.w3.org/2000/svg" xmlns:xlink="http://www.w3.org/1999/xlink" x="0px" y="0px"
	 width="536.379px" height="780.521px" viewBox="0 0 536.379 780.521" enable-background="new 0 0 536.379 780.521"
	 xml:space="preserve">
<g>
	<path fill="#6ABCC3" d="M330.795,47.392l-2.105,10.53c18.959,9.479,17.902,17.903,17.902,17.903
		c20.01,5.263,109.521,70.558,109.521,70.558c43.176,28.433,43.176,48.442,43.176,48.442
		c50.553,211.678,34.752,419.134,34.752,419.134c-26.328,106.364-67.396,119.005-67.396,119.005
		C435.049,754.024,331.852,779.3,331.852,779.3c-36.86,7.373-57.922-21.062-57.922-21.062c-20.01-28.436-41.069,0-41.069,0
		c-16.853,31.595-57.922,15.798-57.922,15.798c-17.903-3.157-101.101-38.964-101.101-38.964
		c-61.081-27.385-73.72-130.586-73.72-130.586c-1.052-20.012,5.267-153.751,5.267-153.751
		c4.915-23.522,67.401-314.881,67.401-314.881c12.635-31.595,121.105-69.508,121.105-69.508v-5.267
		c7.373-1.051,12.637-6.318,12.637-6.318l1.055-4.212l-3.161-6.318l8.424-12.636l2.175-18.333l100.026,15.161L330.795,47.392z
		 M163.352,163.23c0,0-30.543-35.806-51.604,10.534c0,0-23.17,112.683-9.479,171.655c0,0,5.267,15.797,15.798,7.373l11.584-4.212
		C129.651,348.581,139.13,358.056,163.352,163.23z"/>
	<path fill="#19152B" d="M210.215,35.279c0,0,45.303,0.528,111.104,0.528V0h-108.95L210.215,35.279z"/>
</g>
<rect x="56.69" y="386.761" fill="none" width="434" height="82"/>
<text transform="matrix(1 0 0 1 75.8584 408.6309)" font-family="'Interstate-Regular'" font-size="30">number of gallons needed to </text>
<text transform="matrix(1 0 0 1 81.4536 444.6309)" font-family="'Interstate-Regular'" font-size="30">fill a standard cement truck</text>
<text transform="matrix(1 0 0 1 165.29 288.8154)" font-family="'Interstate-Bold'" font-size="120">2,019</text>
<g>
	<path stroke="#6ABDC4" stroke-linecap="round" stroke-miterlimit="10" d="M135.749,645.626l86.376-7.857l-3.645-45.012
		l-53.408-0.911c0,0-38.942,24.886-29.323,52.415"/>
	<polygon stroke="#6ABDC4" stroke-linecap="round" stroke-miterlimit="10" points="265.061,635.89 392.665,618.295 383.836,573.396 
		266.73,568.927 	"/>
	<path stroke="#6ABDC4" stroke-linecap="round" stroke-miterlimit="10" d="M411.113,507.603l6.834,18.448c0,0,4.1,2.733,2.049,5.466
		l-23.914,41.34c0,0-4.441,5.979-14.691,4.526l-105.824,7.466l-8.836-57.337L411.113,507.603z"/>
	<path stroke="#6ABDC4" stroke-linecap="round" stroke-miterlimit="10" d="M251.566,529.126c0,0-4.1-6.491,0-13.324l24-18.791
		c0,0,7.432-5.124,14.605-5.466l15.736-6.491c0,0,4.762-1.708,15.354,0l57.055-0.76c0,0,2.732-8.123,15.715-2.998
		c0,0,14.691,7.174,17.082,26.307c0,0-36.311,49.196-45.998,53.296c0,0-56.324,11.485-89.549-4.507S251.566,529.126,251.566,529.126
		z"/>
	<path stroke="#6ABDC4" stroke-linecap="round" stroke-miterlimit="10" d="M111.834,568.073c0,0-11.274,0.342-7.174,11.615v1.538
		v31.431h-4.271c0,0-7.004-0.854-7.516,3.588c0,0-1.538,5.295,1.708,8.199l17.253,18.448c0,0,3.417,3.075,9.054,1.196l14.861,1.537
		c0,0,1.879,0.171,1.196-4.1l0.149-9.054l17.958-22.378c0,0,4.441-2.903,11.103-3.245l36.727-3.587c0,0,6.491,0.171,9.566,8.541
		l8.712,26.818l43.901-2.732l12.128-33.823c0,0,1.879-5.808,10.078-5.808l88.998-5.467c0,0,6.834-1.195,8.883,3.759l7.517,23.744
		c0,0,10.591,1.366,15.203-2.733v-29.894c0,0,0.342-8.712-11.616-8.37l-4.953,0.683l-102.835,5.467c0,0-7.687,1.708-8.37-5.467
		l-8.883-42.363c0,0-1.367-10.591-9.396-8.712l-69.354-2.733c0,0-5.808-1.196-9.737,4.612l-17.253,27.502
		c0,0-1.879,3.929-7.687,4.612L111.834,568.073z"/>
	<polyline stroke="#6ABDC4" stroke-linecap="round" stroke-miterlimit="10" points="104.66,579.688 127.727,590.244 
		125.701,624.615 137.094,632.473 	"/>
	<polygon stroke="#6ABDC4" stroke-linecap="round" stroke-miterlimit="10" points="167.522,557.995 200.149,565.853 
		211.936,537.667 182.213,533.567 	"/>
	<polygon stroke="#6ABDC4" stroke-linecap="round" stroke-miterlimit="10" points="227.48,543.475 254.128,543.475 254.128,564.998 
		217.061,564.998 	"/>
	<polyline fill="none" stroke="#6ABDC4" stroke-linecap="round" stroke-miterlimit="10" points="254.128,564.998 254.128,587.034 
		217.061,588.23 217.061,564.998 	"/>
	<path fill="none" stroke="#6ABDC4" stroke-linecap="round" stroke-miterlimit="10" d="M200.491,577.383v10.848h-45.097
		c0,0-9.566-1.709-9.224,6.661v4.783h-12.128c0,0-6.867,5.157-3.417,17.937c0,0,2.37,7.489,11.291,8.854"/>
	<line stroke="#6ABDC4" stroke-linecap="round" stroke-miterlimit="10" x1="127.727" y1="590.244" x2="200.491" y2="577.383"/>
	<circle stroke="#6ABDC4" stroke-linecap="round" stroke-miterlimit="10" cx="180.893" cy="641.407" r="29.979"/>
	<circle stroke="#6ABDC4" stroke-linecap="round" stroke-miterlimit="10" cx="180.894" cy="641.407" r="18.377"/>
	<circle stroke="#6ABDC4" stroke-linecap="round" stroke-miterlimit="10" cx="180.894" cy="641.407" r="6.149"/>
	<circle stroke="#6ABDC4" stroke-linecap="round" stroke-miterlimit="10" cx="181.359" cy="654.68" r="1.366"/>
	<circle stroke="#6ABDC4" stroke-linecap="round" stroke-miterlimit="10" cx="188.41" cy="651.946" r="1.367"/>
	<circle stroke="#6ABDC4" stroke-linecap="round" stroke-miterlimit="10" cx="192.291" cy="645.628" r="1.366"/>
	<circle stroke="#6ABDC4" stroke-linecap="round" stroke-miterlimit="10" cx="193.658" cy="639.135" r="1.367"/>
	<circle stroke="#6ABDC4" stroke-linecap="round" stroke-miterlimit="10" cx="189.776" cy="632.473" r="1.366"/>
	<circle stroke="#6ABDC4" stroke-linecap="round" stroke-miterlimit="10" cx="182.725" cy="629.739" r="1.367"/>
	<circle stroke="#6ABDC4" stroke-linecap="round" stroke-miterlimit="10" cx="174.744" cy="631.106" r="1.366"/>
	<circle stroke="#6ABDC4" stroke-linecap="round" stroke-miterlimit="10" cx="170.255" cy="636.401" r="1.366"/>
	<circle stroke="#6ABDC4" stroke-linecap="round" stroke-miterlimit="10" cx="170.255" cy="645.628" r="1.366"/>
	<circle stroke="#6ABDC4" stroke-linecap="round" stroke-miterlimit="10" cx="174.744" cy="651.946" r="1.366"/>
	<circle stroke="#6ABDC4" stroke-linecap="round" stroke-miterlimit="10" cx="302.983" cy="628.544" r="27.417"/>
	<circle stroke="#6ABDC4" stroke-linecap="round" stroke-miterlimit="10" cx="302.983" cy="628.544" r="16.806"/>
	<circle stroke="#6ABDC4" stroke-linecap="round" stroke-miterlimit="10" cx="302.983" cy="628.544" r="5.624"/>
	<circle stroke="#6ABDC4" stroke-linecap="round" stroke-miterlimit="10" cx="303.408" cy="640.682" r="1.25"/>
	<circle stroke="#6ABDC4" stroke-linecap="round" stroke-miterlimit="10" cx="309.857" cy="638.182" r="1.25"/>
	<circle stroke="#6ABDC4" stroke-linecap="round" stroke-miterlimit="10" cx="313.407" cy="632.403" r="1.25"/>
	<circle stroke="#6ABDC4" stroke-linecap="round" stroke-miterlimit="10" cx="314.656" cy="626.466" r="1.25"/>
	<circle stroke="#6ABDC4" stroke-linecap="round" stroke-miterlimit="10" cx="311.107" cy="620.372" r="1.25"/>
	<circle stroke="#6ABDC4" stroke-linecap="round" stroke-miterlimit="10" cx="304.658" cy="617.873" r="1.25"/>
	<circle stroke="#6ABDC4" stroke-linecap="round" stroke-miterlimit="10" cx="297.243" cy="619.006" r="1.25"/>
	<circle stroke="#6ABDC4" stroke-linecap="round" stroke-miterlimit="10" cx="293.137" cy="625.216" r="1.25"/>
	<circle stroke="#6ABDC4" stroke-linecap="round" stroke-miterlimit="10" cx="293.254" cy="632.403" r="1.25"/>
	<circle stroke="#6ABDC4" stroke-linecap="round" stroke-miterlimit="10" cx="297.359" cy="638.182" r="1.25"/>
	<ellipse stroke="#6ABDC4" stroke-linecap="round" stroke-miterlimit="10" cx="359.184" cy="623.764" rx="23.659" ry="25.965"/>
	<ellipse stroke="#6ABDC4" stroke-linecap="round" stroke-miterlimit="10" cx="359.184" cy="623.764" rx="14.502" ry="15.917"/>
	<ellipse stroke="#6ABDC4" stroke-linecap="round" stroke-miterlimit="10" cx="359.184" cy="623.764" rx="4.852" ry="5.326"/>
	<ellipse stroke="#6ABDC4" stroke-linecap="round" stroke-miterlimit="10" cx="359.551" cy="635.258" rx="1.078" ry="1.184"/>
	<ellipse stroke="#6ABDC4" stroke-linecap="round" stroke-miterlimit="10" cx="365.115" cy="632.892" rx="1.079" ry="1.184"/>
	<ellipse stroke="#6ABDC4" stroke-linecap="round" stroke-miterlimit="10" cx="368.179" cy="627.419" rx="1.078" ry="1.183"/>
	<ellipse stroke="#6ABDC4" stroke-linecap="round" stroke-miterlimit="10" cx="369.257" cy="621.795" rx="1.079" ry="1.184"/>
	<ellipse stroke="#6ABDC4" stroke-linecap="round" stroke-miterlimit="10" cx="366.194" cy="616.024" rx="1.078" ry="1.186"/>
	<ellipse stroke="#6ABDC4" stroke-linecap="round" stroke-miterlimit="10" cx="360.628" cy="613.657" rx="1.079" ry="1.185"/>
	<ellipse stroke="#6ABDC4" stroke-linecap="round" stroke-miterlimit="10" cx="354.043" cy="614.658" rx="1.078" ry="1.185"/>
	<ellipse stroke="#6ABDC4" stroke-linecap="round" stroke-miterlimit="10" cx="350.499" cy="620.611" rx="1.079" ry="1.184"/>
	<ellipse stroke="#6ABDC4" stroke-linecap="round" stroke-miterlimit="10" cx="350.789" cy="627.419" rx="1.079" ry="1.183"/>
	<ellipse stroke="#6ABDC4" stroke-linecap="round" stroke-miterlimit="10" cx="354.33" cy="632.892" rx="1.078" ry="1.184"/>
	<path fill="none" stroke="#6ABDC4" stroke-linecap="round" stroke-miterlimit="10" d="M254.128,513.796
		c0,0,27.372,5.127,32.049,46.613"/>
	<path fill="none" stroke="#6ABDC4" stroke-linecap="round" stroke-miterlimit="10" d="M321.262,485.054
		c0,0,24.225,11.396,34.148,77.443"/>
</g>
</svg>
