<?xml version="1.0" encoding="utf-8"?>
<!-- Generator: Adobe Illustrator 15.1.0, SVG Export Plug-In . SVG Version: 6.00 Build 0)  -->
<!DOCTYPE svg PUBLIC "-//W3C//DTD SVG 1.1//EN" "http://www.w3.org/Graphics/SVG/1.1/DTD/svg11.dtd">
<svg version="1.1" id="Layer_1" xmlns="http://www.w3.org/2000/svg" xmlns:xlink="http://www.w3.org/1999/xlink" x="0px" y="0px"
	 width="536.378px" height="780.521px" viewBox="0 0 536.378 780.521" enable-background="new 0 0 536.378 780.521"
	 xml:space="preserve">
<g>
	<g>
		<path fill="#6ABCC3" d="M329.795,47.392l-2.106,10.53c18.959,9.479,17.903,17.903,17.903,17.903
			c20.01,5.263,109.521,70.558,109.521,70.558c43.176,28.433,43.176,48.442,43.176,48.442
			c50.553,211.678,34.752,419.134,34.752,419.134c-26.328,106.364-67.396,119.005-67.396,119.005
			C434.049,754.024,330.852,779.3,330.852,779.3c-36.861,7.373-57.922-21.062-57.922-21.062c-20.01-28.435-41.069,0-41.069,0
			c-16.853,31.595-57.922,15.798-57.922,15.798c-17.903-3.157-101.101-38.964-101.101-38.964
			c-61.081-27.384-73.72-130.586-73.72-130.586c-1.052-20.011,5.267-153.751,5.267-153.751
			C9.3,427.212,71.786,135.853,71.786,135.853c12.635-31.595,121.105-69.508,121.105-69.508v-5.267
			c7.373-1.051,12.637-6.318,12.637-6.318l1.055-4.212l-3.161-6.318l8.424-12.636l2.175-18.333l100.026,15.161L329.795,47.392z
			 M162.352,163.23c0,0-30.543-35.806-51.604,10.534c0,0-23.17,112.683-9.479,171.655c0,0,5.267,15.797,15.798,7.373l11.584-4.212
			C128.651,348.581,138.13,358.056,162.352,163.23z"/>
	</g>
	<path fill="#19152B" d="M209.215,35.279c0,0,45.303,0.528,111.104,0.528V0H211.368L209.215,35.279z"/>
</g>
<rect x="32.689" y="381.761" fill="none" width="468" height="82"/>
<text transform="matrix(1 0 0 1 41.8428 403.6309)"><tspan x="0" y="0" font-family="'Interstate-Regular'" font-size="30">number of gallons one American  </tspan><tspan x="53.804" y="36" font-family="'Interstate-Regular'" font-size="30">household uses in a year   </tspan></text>
<text transform="matrix(1 0 0 1 229.2031 288.8154)" font-family="'Interstate-Bold'" font-size="120">127</text>
<text transform="matrix(1 0 0 1 433.0815 288.8154)" font-family="'Interstate-Bold'" font-size="70"> </text>
<g>
	<path fill="#19162B" stroke="#19162B" stroke-miterlimit="10" d="M330.998,677.691H202.888v-90.498h128.109V677.691z
		 M171.154,587.193h189.229l-96.378-81.099L171.154,587.193z M279.433,677.545v-52.448h-27.326v52.448H279.433z M240.938,613.196
		h-28.207v28.208h28.207V613.196z M318.951,613.196h-28.207v28.208h28.207V613.196z"/>
	<line fill="none" stroke="#19162B" stroke-miterlimit="10" x1="226.835" y1="641.404" x2="226.835" y2="613.196"/>
	<line fill="none" stroke="#19162B" stroke-miterlimit="10" x1="212.731" y1="627.301" x2="240.938" y2="627.301"/>
	<line fill="none" stroke="#19162B" stroke-miterlimit="10" x1="304.847" y1="641.404" x2="304.847" y2="613.196"/>
	<line fill="none" stroke="#19162B" stroke-miterlimit="10" x1="290.744" y1="627.301" x2="318.951" y2="627.301"/>
</g>
<text transform="matrix(1 0 0 1 221.0439 350.21)" font-family="'Interstate-Bold'" font-size="50">thousand</text>
</svg>
