<?xml version="1.0" encoding="utf-8"?>
<!-- Generator: Adobe Illustrator 15.1.0, SVG Export Plug-In . SVG Version: 6.00 Build 0)  -->
<!DOCTYPE svg PUBLIC "-//W3C//DTD SVG 1.1//EN" "http://www.w3.org/Graphics/SVG/1.1/DTD/svg11.dtd">
<svg version="1.1" id="Layer_1" xmlns="http://www.w3.org/2000/svg" xmlns:xlink="http://www.w3.org/1999/xlink" x="0px" y="0px"
	 width="536.378px" height="780.521px" viewBox="0 0 536.378 780.521" enable-background="new 0 0 536.378 780.521"
	 xml:space="preserve">
<g>
	<g>
		<path fill="#6ABCC3" d="M329.794,47.392l-2.105,10.53c18.959,9.479,17.902,17.903,17.902,17.903
			c20.011,5.263,109.521,70.558,109.521,70.558c43.176,28.433,43.176,48.442,43.176,48.442
			c50.553,211.678,34.752,419.134,34.752,419.134c-26.328,106.364-67.396,119.005-67.396,119.005
			C434.048,754.024,330.852,779.3,330.852,779.3c-36.86,7.373-57.922-21.062-57.922-21.062c-20.01-28.436-41.069,0-41.069,0
			c-16.853,31.595-57.922,15.798-57.922,15.798c-17.903-3.157-101.101-38.964-101.101-38.964
			c-61.081-27.385-73.72-130.586-73.72-130.586c-1.052-20.012,5.267-153.751,5.267-153.751
			C9.3,427.212,71.786,135.853,71.786,135.853c12.635-31.595,121.105-69.508,121.105-69.508v-5.267
			c7.373-1.051,12.637-6.318,12.637-6.318l1.055-4.212l-3.161-6.318l8.424-12.636l2.175-18.333l100.025,15.161L329.794,47.392z
			 M162.352,163.23c0,0-30.543-35.806-51.604,10.534c0,0-23.17,112.683-9.479,171.655c0,0,5.267,15.797,15.798,7.373l11.584-4.212
			C128.651,348.581,138.13,358.056,162.352,163.23z"/>
	</g>
	<path fill="#19152B" d="M209.215,35.279c0,0,45.303,0.528,111.104,0.528V0H211.368L209.215,35.279z"/>
</g>
<rect x="32.689" y="381.761" fill="none" width="468" height="82"/>
<text transform="matrix(1 0 0 1 122.7393 405.0889)" font-family="'Interstate-Regular'" font-size="32">average toilet flush</text>
<text transform="matrix(1 0 0 1 229.2158 336.7773)" font-family="'Interstate-Bold'" font-size="200">2</text>
<text transform="matrix(1 0 0 1 461.2104 336.7773)" font-family="'Interstate-Bold'" font-size="150"> </text>
<g>
	<path stroke="#6ABCC3" stroke-width="1.7446" stroke-miterlimit="10" d="M182.862,496.304c0,0,5.817,88.431,35.902,84.652
		c0,0,36.279,2.266,46.104-9.071l-24.564-91.138L182.862,496.304z"/>
	<path stroke="#6ABCC3" stroke-width="1.7446" stroke-miterlimit="10" d="M190.42,477.786c0,0-20.029,6.992-15.872,17.006
		c0,0,3.78,10.582,24.565,13.982c0,0,18.895,4.912,35.522,0l63.488-24.941c0,0,14.361-3.086,6.425-15.494l-15.494-15.117
		c0,0-4.62-5.289-17.383,0L190.42,477.786z"/>
	<path stroke="#6ABCC3" stroke-width="1.7446" stroke-miterlimit="10" d="M212.527,515.011c0,0-4.911,0.566-4.344,3.589
		c0,0,0.567,2.268,4.344,2.457c0,0,7.181-0.756,8.314,2.267c0,0,4.159,5.294,7.181-0.941c0,0,2.078-4.829-4.157-8.126
		C223.865,514.256,221.599,513.499,212.527,515.011z"/>
	<ellipse stroke="#6ABCC3" stroke-width="1.7446" stroke-miterlimit="10" cx="239.737" cy="508.165" rx="1.323" ry="2.791"/>
	<ellipse stroke="#6ABCC3" stroke-width="1.7446" stroke-miterlimit="10" cx="296.422" cy="485.628" rx="1.512" ry="2.551"/>
	<path stroke="#6ABCC3" stroke-width="1.7446" stroke-miterlimit="10" d="M281.686,632.728
		c-19.842-7.938-30.043-31.554-30.043-31.554c-2.269-10.392-13.229-16.629-13.229-16.629c-4.157-1.512-4.155-6.046-4.155-6.046
		l53.362-32.311l21.106,25.632"/>
	<path stroke="#6ABCC3" stroke-width="1.7446" stroke-miterlimit="10" d="M253.72,610.998c0,0,3.402,9.637,1.513,17.573
		c0,0-1.891,3.213,1.887,8.883c0,0,1.323,2.454-1.7,5.854c0,0-5.759,10.557,0.144,19.924c0,0,2.124,7.289,15.349,17.302
		c0,0,9.827,6.045,26.644,22.862c0,0,8.124,9.636,25.885,8.124c0,0,18.708,0.569,25.699-16.25c0,0,2.457-6.614,0-14.358
		c0,0-3.401-9.827-3.401-19.275"/>
	<path stroke="#6ABCC3" stroke-width="1.7446" stroke-miterlimit="10" d="M374.071,621.45
		c-0.958,31.426-28.331,40.187-28.331,40.187c-43.082,7.37-68.023-13.225-68.023-13.225c-10.768-6.991-11.715-15.685-11.715-15.685
		c-3.021-9.825-12.282-21.729-12.282-21.729c-3.591-8.691-12.282-17.571-12.282-17.571c-4.913-2.645-3.708-9.177-3.708-9.177"/>
	<path stroke="#6ABCC3" stroke-width="1.7446" stroke-miterlimit="10" d="M263.167,581.14l-5.291,1.703c0,0-4.003,2.262-6.992-1.703
		c0,0-25.319-16.793-17.382-70.184c0,0,9.447-34.87,32.876-40.161c0,0,20.784-6.991,34.39,14.833c0,0,22.295,43.743-7.747,79.455
		L263.167,581.14z"/>
	<path stroke="#6ABCC3" stroke-width="1.7446" stroke-miterlimit="10" d="M260.333,577.554c0,0-3.211-3.591,4.536-5.669
		c0,0,2.474-0.749,3.022,2.834c0,0-1.509,5.66,1.512,6.421c0,0,2.441,1.582,0.941,3.237c-0.219,0.245-0.528,0.491-0.941,0.734
		c-3.211,1.889-11.302,7.937-12.283,0c0,0,1.619-2.835,6.856-2.645C263.976,582.467,261.973,578.905,260.333,577.554z"/>
	<path stroke="#6ABCC3" stroke-width="1.7446" stroke-miterlimit="10" d="M284.898,564.517c0,0-2.267-1.892,3.211-4.724
		c0,0,2.828-1.687,5.29,0c0,0-0.943,7.368,2.647,6.611c0,0,4.723,0.757,2.077,3.969c0,0-12.093,8.502-11.526,0
		C286.597,570.373,289.242,567.728,284.898,564.517z"/>
	<path stroke="#6ABCC3" stroke-width="1.7446" stroke-miterlimit="10" d="M275.829,581.897c0,0-19.275,5.103-16.441,17.952
		c0,0,1.749,28.155,49.34,39.491c0,0,35.689,10.018,58.364-10.393c0,0,25.697-17.95-1.701-43.837c0,0-27.021-22.106-61.597-16.627
		L275.829,581.897z"/>
	<path stroke="#6ABCC3" stroke-width="1.7446" stroke-miterlimit="10" d="M289.242,591.726c0,0-10.203,6.802-3.967,15.492
		c0,0,17.571,22.299,54.04,15.307c0,0,23.053-6.235,13.228-20.784c0,0-7.328-15.913-33.424-18.254
		C319.119,583.486,304.736,581.71,289.242,591.726z"/>
	<path stroke="#6ABCC3" stroke-width="1.7446" stroke-miterlimit="10" d="M283.278,600.958c0,0,15.986-14.798,41.497-10.263
		c0,0,20.7,2.395,29.108,22.202"/>
	<path stroke="#6ABCC3" stroke-width="1.7446" stroke-miterlimit="10" d="M291.984,656.384c0,0-0.732,25.662-8.729,27.361"/>
	<path stroke="#6ABCC3" stroke-width="1.7446" stroke-miterlimit="10" d="M257.406,638.777c0,0,16.686,20.942,30.215,24.455"/>
	<path stroke="#6ABCC3" stroke-width="1.7446" stroke-miterlimit="10" d="M257.406,638.021c0,0,6.328,6.611,11.431,8.312"/>
	<path stroke="#6ABCC3" stroke-width="1.7446" stroke-miterlimit="10" d="M263.12,624.79c0,0,14.695,18.141,35.81,24.188"/>
	<path stroke="#6ABCC3" stroke-width="1.7446" stroke-miterlimit="10" d="M374.071,621.45"/>
</g>
</svg>
