<?xml version="1.0" encoding="utf-8"?>
<!-- Generator: Adobe Illustrator 15.1.0, SVG Export Plug-In . SVG Version: 6.00 Build 0)  -->
<!DOCTYPE svg PUBLIC "-//W3C//DTD SVG 1.1//EN" "http://www.w3.org/Graphics/SVG/1.1/DTD/svg11.dtd">
<svg version="1.1" id="Layer_1" xmlns="http://www.w3.org/2000/svg" xmlns:xlink="http://www.w3.org/1999/xlink" x="0px" y="0px"
	 width="536.378px" height="780.521px" viewBox="0 0 536.378 780.521" enable-background="new 0 0 536.378 780.521"
	 xml:space="preserve">
<g>
	<path fill="#6ABCC3" d="M330.794,47.392l-2.105,10.53c18.959,9.479,17.902,17.903,17.902,17.903
		c20.01,5.263,109.521,70.558,109.521,70.558c43.176,28.433,43.176,48.442,43.176,48.442
		c50.553,211.678,34.752,419.134,34.752,419.134c-26.328,106.364-67.396,119.005-67.396,119.005
		C435.048,754.024,331.851,779.3,331.851,779.3c-36.859,7.373-57.921-21.062-57.921-21.062c-20.01-28.436-41.069,0-41.069,0
		c-16.853,31.595-57.922,15.798-57.922,15.798c-17.903-3.157-101.101-38.964-101.101-38.964
		c-61.081-27.385-73.72-130.586-73.72-130.586c-1.052-20.012,5.267-153.751,5.267-153.751
		c4.915-23.522,67.401-314.881,67.401-314.881c12.635-31.595,121.105-69.508,121.105-69.508v-5.267
		c7.373-1.051,12.637-6.318,12.637-6.318l1.055-4.212l-3.161-6.318l8.424-12.636l2.175-18.333l100.025,15.161L330.794,47.392z
		 M163.352,163.23c0,0-30.543-35.806-51.604,10.534c0,0-23.17,112.683-9.479,171.655c0,0,5.267,15.797,15.798,7.373l11.584-4.212
		C129.651,348.581,139.13,358.056,163.352,163.23z"/>
	<path fill="#19152B" d="M210.215,35.279c0,0,45.303,0.528,111.105,0.528V0H212.368L210.215,35.279z"/>
</g>
<text transform="matrix(1 0 0 1 192.2461 317.751)" fill="#19162B" font-family="'Interstate-Bold'" font-size="150">100 </text>
<path fill="#19162B" d="M392.796,535.902c0.238,0.959,1.164,0.033,0.6,1.793c-0.996,0.299-0.98-0.414-0.898-1.195
	c-0.979,0.879-0.285,2.926-1.789,3.285c-0.506-1.039-0.109-1.045,0.598-1.492c0.047-0.844-0.844-0.748-1.191-1.193
	c-0.326,0.152,0.217,1.947,0,2.982c-1.398,0.859-2.521,2.674-4.182,2.389c-1.35,3.914-1.012,7.52-1.191,10.152
	c1.965-0.689,2.49,4.375,5.072,2.09c0.037-1.135-1.352-0.84-1.492-1.793c1.627-0.035,2.047,1.139,2.092,2.688
	c-1.875,0.217-2.525,1.652-3.881,2.391c0.506-0.291,0.768-0.826,0.596-1.793c-1.336,0.299-0.82,0.896-1.193,1.793
	c-3.684,2.686-9.832,2.9-11.939,7.164l-0.447,0.684l0.148,0.809c-0.609,0.09-0.588,0.811-1.195,0.896
	c0.365,0.91,1.141-0.434,1.494,0.299c1.027,4.43-0.742,8.33-2.988,10.449c-0.244-0.844,0.424-0.771,0.301-1.494
	c-1.926-0.061-3.07-0.908-3.881-2.088c1.189,1.494,1.49,3.883,3.58,4.479c1.568,4.176-1.195,7.791-1.789,11.643
	c-2.365-1.695,1.344-6.064-1.791-7.166c-0.66,0.301,0.734,1.029,0.299,2.09c-1.125-0.564-0.799-2.584-2.389-2.688
	c-0.104-1.662,0.742-2.07-0.596-2.088c1.459-1.439-0.758-2.932,0.596-4.184c-2.096,0.301-1.771,5.838,0.299,7.166
	c-0.316,0.279-0.094,1.104-0.895,0.896c1.551,0.838,2.213,2.561,2.385,4.773c-0.24-0.055-0.295-0.299-0.594-0.299
	c-0.574,0.697,1.982,1.855,0.797,2.84c0.447-0.23,1.209-0.146,1.889-0.152c1.004,2.186,2.018,4.354,3.283,6.27l-0.449-0.146
	l0.15,0.445c-0.299,0.695-1.027,0.963-2.088,0.896c0.564,0.996,1.91-0.52,2.387,0.301c-0.18,2.074-2.248,2.941-4.18,2.387
	c1.188,0.488,0.352,3.084-0.896,2.091c0.402,0.89,2.752,0.522,2.986,0c-0.176,3.87-7.729,2.743-7.463,8.657
	c-3.396,0.386-5.543,2.02-5.373,5.97c-2.391,1.396-3.127,4.437-5.973,5.375c-0.035,1.927-2.055,2.95-2.686,4.774
	c-2.717,7.854,2.049,15.957,6.564,20c0.219,0.816-0.594,0.604-0.598,1.195c2.721,4.729,7.031,10.088,4.775,17.914
	c0.717,0.116-0.166-1.363,0.896-0.896c-0.488,3.093-2.398,4.768-4.479,6.271c-0.104-1.302,2.887-2.084,3.283-3.884
	c-0.793-0.282-2.748,0.828-3.883,1.194c-0.734-2.213-1.854-5.075-4.479-4.479c-0.562-1.029-0.881-2.302-1.492-3.283
	c-0.719-0.123-0.646,0.545-1.492,0.297c-1.07-2.211-2.328-4.24-3.881-5.969c0.066-1.228,1.318-1.271,1.193-2.687
	c-0.092-0.408-0.748-0.25-1.193-0.302c-0.229,0.08,0.73,1.258,0,2.09c-2.438-1.954,0.41-7.516-2.09-9.551
	c-4.174-0.403-3.846-5.312-8.955-4.778c-0.318,1.674-2.729,2.765-5.375,2.985c-2.508-4.724-9.693-3.401-14.627-1.793
	c1.146-0.5,0.326-2.192-0.297-2.685c-1.084,0.011-0.607,1.584-1.195,2.091c-4.217,0.178-7.327-0.271-8.657,3.282
	c1.647,0.453,1.062-1.325,2.392-1.192c0.623,2.229-0.561,2.494-1.494,3.283c0.566,1.42,3.043,0.938,3.881,2.088
	c-0.309,2.119-4.327,0.229-4.776-1.195c-1.854,0.711-0.021,2.252-2.388,2.986c-0.741-0.218,0.984-0.896,0-1.49
	c-1.268,0.025-1.649,0.937-2.389,1.49c-1.434-0.062-2.244-0.74-3.285-1.193c-0.035-0.534,0.365-0.631,0.299-1.192
	c-1.713-0.315-3.202-3.228-5.073-1.491c0.39,1.139,2.22-0.486,2.39,1.19c-4.391-0.022-11.871-2.656-16.121,0.896
	c-4.049,4.41-10.188,6.729-15.227,10.151c-0.436,4.332-0.644,8.265,0.298,12.237c-5.093-1.104-13.557-2.938-12.239-10.448
	c-2.073-1.209-2.624-3.942-4.776-5.073c-1.036-6.029-4.126-10.005-10.448-10.748c-3.212,0.271-2.941,4.023-5.076,5.375
	c-2.716-1.88-6.916-2.656-7.762-5.972c-0.639-2.509-0.104-4.47-1.791-6.271c-3.223-1.453-4.798-4.556-6.865-7.166
	c-3.187-0.195-6.041-0.724-8.957-1.193c-0.461,0.73-0.445,1.943-0.597,2.986c-8.452-0.998-15.029-1.795-20.598-5.076
	c-4.322-2.545-8.739-5.744-13.434-8.061c-0.218-0.814,0.593-0.601,0.597-1.193c-4.141-0.836-9.177-0.772-12.836-2.09
	c0.234-4.517-1.003-7.558-4.479-8.359c-0.561-0.564,0.178-0.541,0-1.491c-3.762-1.312-4.329-5.821-9.552-5.673
	c-1.132-1.465,0.414-2.604,0.297-4.18c-0.254-3.414-4.057-6.526-4.178-10.447c0.119-1.073,1.328-1.061,1.492-2.09
	c-1.829-0.992-3.37-4.311-1.792-6.865c-1.214-1.1-1.396-1.688-1.493-3.584c-0.1-1.939-2.231-3.827-2.388-5.073
	c-0.359-2.883,2.771-6.815-0.597-8.959c1.409-3.379,5.371-7.013,3.583-11.642c0.271-1.418,0.677-2.705,0.596-4.477
	c3.866-4.992,6.286-11.429,8.36-18.214c0.574-0.12,0.233-1.155,1.193-0.896c-1.379-0.662-0.936-2.201,0.298-2.981
	c0.145-0.94-0.917-0.677-0.597-1.793c0.266-0.229,0.675-0.319,1.195-0.297c-1.366-2.115-1.113-6.772-0.896-9.556
	c2.405,1.178,4.095,3.07,7.165,3.582c1.058,0.063,0.589-1.397,1.792-1.192c-0.119,0.913-0.825,1.854,0.596,2.985
	c-0.467-1.74,0.79-4.383-0.596-6.567c33.693,8.694,71.018,16.351,115.23,15.522c0.739-0.258-0.085-2.078,0.599-2.39
	c2.311-0.12,1.086,3.294,2.389,4.183c1.727-0.035,2.645,0.74,3.881,1.192c2.434-2.274,4.6,1.386,7.164,0.599
	c0.412,2.019,3.533,2.187,5.074,0.597c1.111,1.071,3.914,0.849,5.674,1.192c-1.229,2.004-3.688,1.769-5.375,2.985
	c-2.008,1.451-2.896,4.166-5.072,5.375c2.177,1.229,4.141-1.762,5.671-1.194c0.015,0.908-0.63,1.16-0.896,1.791
	c0.318,0.604,1.771-0.533,2.09,0.599c1.854-1.33,4.229-2.144,6.27-3.283c1.387-1.603,2.426-3.547,5.374-3.586
	c-0.967,1.424-2.526,2.252-2.985,4.183c0.854-1.123,4.271-0.629,4.777,1.791c3.848,0.6,6.102-2.203,10.449-2.688
	c0,0.599,0,1.194,0,1.791c1.395,0.647,2.584-0.552,4.178-0.597c-0.225,1.815,0.143,3.041,1.492,3.285
	c-1.867,0.271-4.213,0.733-6.865,0.297c-3.15,0.812-4.607,2.74-7.164,2.088c-0.76,3.125-2.58,5.187-3.582,8.062
	c1.42-0.276,2.668-3.301,3.881-4.774c-1.555,6.399-5.06,17.963,1.193,23.582c4.43-1.267,5.418-9.32,2.09-12.537
	c0.395-5.149,0.543-8.342,3.285-11.346c1.268,0.428-0.457,1.553,0,2.985c1.709-0.239,0.668-1.47,0.895-3.285
	c0.531-0.267,0.758-0.831,1.791-0.596c0.088-0.785-1.158-0.236-0.895-1.195c1.793-3.286,4.545,0.285,7.762,0.302
	c0.125,0.567,0.107,1.283,0.896,1.192c-0.666,1.603,1.629,6.877-1.791,7.763c0.037,0.953-0.297,2.282,0.896,2.09
	c1.596-0.596,1.326-3.051,3.283-3.283c2.482,1.693,2.994,5.361,3.283,9.252c-2.33-0.18-2.031,3.89-3.582,5.375
	c0.529,1.656,3.529,0.847,4.479,2.091c6.129-2.931,11.676-6.437,15.523-11.646c-0.512-0.981-1.408-1.576-1.494-2.981
	c4.48-2.101,9.723-0.123,12.539-4.183c-0.072-0.906,0.186-2.508-1.193-2.983c-0.412-1.546,1.072-1.696,1.791-2.687
	c1.035-1.431,1.537-3.558,2.986-4.479c1.252-0.802,2.895-0.537,4.477-0.896c3.301-0.748,6.758-2.14,9.854-2.688
	c0.973-0.222,0.896-1.489,1.193-2.39c0.646,0.675,1.018-0.246,2.09,0c-0.072-2.063,0.727-3.254,1.494-4.478
	c-1.479-3.608,0.615-8.163,1.789-11.047c1.121-0.226,0.65,1.144,1.492,1.194c1.08-0.315,1.652-1.135,2.389-1.793
	c0.957,0.24,1.508,0.886,2.688,0.896c0.627,3.056,1.891,5.472,2.387,8.658c0.387,0.412,1.299,0.297,2.092,0.297
	c-0.146,0.945,0.537,1.056,0.299,2.095c0.625,0.649,0.854-0.15,1.791,0C399.443,532.465,395.048,537.016,392.796,535.902z
	 M266.57,594.533v32.178c0.292,3.146,3.889,3.146,3.889,3.146c3.142-0.451,3.737-2.996,3.737-2.996V572.09
	c0.75-1.947,1.649,0,1.649,0v19.604c0.296,2.395,2.988,2.395,2.988,2.395c2.694-0.449,2.998-2.395,2.998-2.395v-23.197
	c-1.646-8.23-8.233-7.932-8.233-7.932h-7.777h-0.302h-7.781c0,0-6.585-0.301-8.231,7.932v23.197c0,0,0.297,1.943,2.989,2.395
	c0,0,2.696,0,2.997-2.395V572.09c0,0,0.896-1.947,1.644,0v54.771c0,0,0.602,2.545,3.745,2.996c0,0,3.59,0,3.889-3.146v-32.178
	C265.745,592.664,266.57,594.533,266.57,594.533z M265.968,545.6c-3.391,0-6.138,2.746-6.138,6.137c0,3.387,2.747,6.137,6.138,6.137
	c3.39,0,6.137-2.75,6.137-6.137C272.104,548.346,269.357,545.6,265.968,545.6z"/>
<rect x="56.69" y="386.761" fill="none" width="434.001" height="82"/>
<text transform="matrix(1 0 0 1 137.9761 407.1729)" fill="#19162B" font-family="'Interstate-Regular'" font-size="28">number of gallons an</text>
<text transform="matrix(1 0 0 1 59.998 440.7725)" fill="#19162B" font-family="'Interstate-Regular'" font-size="28">average American uses each day</text>
</svg>
