<?xml version="1.0" encoding="utf-8"?>
<!-- Generator: Adobe Illustrator 15.1.0, SVG Export Plug-In . SVG Version: 6.00 Build 0)  -->
<!DOCTYPE svg PUBLIC "-//W3C//DTD SVG 1.1//EN" "http://www.w3.org/Graphics/SVG/1.1/DTD/svg11.dtd">
<svg version="1.1" id="Layer_1" xmlns="http://www.w3.org/2000/svg" xmlns:xlink="http://www.w3.org/1999/xlink" x="0px" y="0px"
	 width="536.378px" height="780.521px" viewBox="0 0 536.378 780.521" enable-background="new 0 0 536.378 780.521"
	 xml:space="preserve">
<g>
	<path fill="#6ABCC3" d="M329.794,47.392l-2.105,10.53c18.959,9.479,17.902,17.903,17.902,17.903
		c20.01,5.263,109.521,70.558,109.521,70.558c43.176,28.433,43.176,48.442,43.176,48.442
		c50.553,211.678,34.752,419.134,34.752,419.134c-26.328,106.364-67.396,119.005-67.396,119.005
		C434.048,754.024,330.851,779.3,330.851,779.3c-36.859,7.373-57.921-21.062-57.921-21.062c-20.01-28.436-41.069,0-41.069,0
		c-16.853,31.595-57.922,15.798-57.922,15.798c-17.903-3.157-101.101-38.964-101.101-38.964
		c-61.081-27.385-73.72-130.586-73.72-130.586c-1.052-20.012,5.267-153.751,5.267-153.751
		C9.3,427.212,71.786,135.853,71.786,135.853c12.635-31.595,121.105-69.508,121.105-69.508v-5.267
		c7.373-1.051,12.637-6.318,12.637-6.318l1.055-4.212l-3.161-6.318l8.424-12.636l2.175-18.333l100.025,15.161L329.794,47.392z
		 M162.352,163.23c0,0-30.543-35.806-51.604,10.534c0,0-23.17,112.683-9.479,171.655c0,0,5.267,15.797,15.798,7.373l11.584-4.212
		C128.651,348.581,138.13,358.056,162.352,163.23z"/>
	<path fill="#19152B" d="M209.215,35.279c0,0,45.303,0.528,111.105,0.528V0H211.368L209.215,35.279z"/>
</g>
<rect x="49.689" y="381.761" fill="none" width="434" height="82"/>
<text transform="matrix(1 0 0 1 67.3423 403.6309)" fill="#19162B" font-family="'Interstate-Regular'" font-size="30">number of gallons it takes to </text>
<text transform="matrix(1 0 0 1 178.5503 439.6309)" fill="#19162B" font-family="'Interstate-Regular'" font-size="30">fill a bathtub</text>
<g id="Layer_1_1_">
	<text transform="matrix(1 0 0 1 183.0215 333.1475)" fill="#19162B" font-family="'Interstate-Bold'" font-size="200">40</text>
	<text transform="matrix(1 0 0 1 459.6177 333.1475)" fill="#19162B" font-family="'Interstate-Bold'" font-size="150"> </text>
	<path fill="#19162B" d="M163.297,625.917C164.402,628.681,164.402,628.681,163.297,625.917
		c-2.412-6.026-7.233-55.433-13.258-77.125c-6.027-21.693-22.898-20.487-22.898-20.487h277.251c0,0-16.873-1.203-22.896,20.488
		c-6.023,21.692-10.861,65.899-13.271,71.927c-2.408,6.026,0.016,5.197,0.016,5.197 M371.931,528.292V492.14
		c0,0-10.395-27.114-26.664,0v5.425h3.164l1.809-4.974c0,0,9.941-16.269,15.816-0.451l0.904,36.152H371.931L371.931,528.292z
		 M345.267,626.185c6.779,0,13.332,27.116,13.332,27.116h13.332v-5.875c-0.451-9.491-7.684-4.065-7.684-4.065
		c-1.355-10.396-10.846-17.175-10.846-17.175S338.488,626.185,345.267,626.185z M178.098,626.185c0,0-9.491,6.779-10.846,17.176
		c0,0-7.231-5.426-7.683,4.065v5.875H172.9c0,0,6.553-27.116,13.332-27.116C193.011,626.185,178.098,626.185,178.098,626.185z"/>
</g>
</svg>
