<?xml version="1.0" encoding="utf-8"?>
<!-- Generator: Adobe Illustrator 15.1.0, SVG Export Plug-In . SVG Version: 6.00 Build 0)  -->
<!DOCTYPE svg PUBLIC "-//W3C//DTD SVG 1.1//EN" "http://www.w3.org/Graphics/SVG/1.1/DTD/svg11.dtd">
<svg version="1.1" id="Layer_1" xmlns="http://www.w3.org/2000/svg" xmlns:xlink="http://www.w3.org/1999/xlink" x="0px" y="0px"
	 width="536.378px" height="780.521px" viewBox="0 0 536.378 780.521" enable-background="new 0 0 536.378 780.521"
	 xml:space="preserve">
<g>
	<g>
		<path fill="#6ABCC3" d="M329.794,47.392l-2.105,10.53c18.959,9.479,17.902,17.903,17.902,17.903
			c20.01,5.263,109.521,70.558,109.521,70.558c43.176,28.433,43.176,48.442,43.176,48.442
			c50.553,211.678,34.752,419.134,34.752,419.134c-26.328,106.364-67.396,119.005-67.396,119.005
			C434.048,754.024,330.851,779.3,330.851,779.3c-36.859,7.373-57.921-21.062-57.921-21.062c-20.01-28.436-41.069,0-41.069,0
			c-16.853,31.595-57.922,15.798-57.922,15.798c-17.903-3.157-101.101-38.964-101.101-38.964
			c-61.081-27.385-73.72-130.586-73.72-130.586c-1.052-20.012,5.267-153.751,5.267-153.751
			C9.3,427.212,71.786,135.853,71.786,135.853c12.635-31.595,121.105-69.508,121.105-69.508v-5.267
			c7.373-1.051,12.637-6.318,12.637-6.318l1.055-4.212l-3.161-6.318l8.424-12.636l2.175-18.333l100.025,15.161L329.794,47.392z
			 M162.352,163.23c0,0-30.543-35.806-51.604,10.534c0,0-23.17,112.683-9.479,171.655c0,0,5.267,15.797,15.798,7.373l11.584-4.212
			C128.651,348.581,138.13,358.056,162.352,163.23z"/>
	</g>
	<path fill="#19152B" d="M209.215,35.279c0,0,45.303,0.528,111.105,0.528V0H211.368L209.215,35.279z"/>
</g>
<rect x="32.689" y="390.261" fill="none" width="468" height="66.5"/>
<text transform="matrix(1 0 0 1 87.502 412.1309)" fill="#19152B" font-family="'Interstate-Regular'" font-size="30">number of gallons needed</text>
<text transform="matrix(1 0 0 1 90.3521 448.1309)" fill="#19152B" font-family="'Interstate-Regular'" font-size="30">to grow an acre of cotton</text>
<text transform="matrix(1 0 0 1 206.4639 288.8154)" fill="#19152B" font-family="'Interstate-Bold'" font-size="120">800</text>
<text transform="matrix(1 0 0 1 455.8198 288.8154)" font-family="'Interstate-Bold'" font-size="70"> </text>
<text transform="matrix(1 0 0 1 221.0439 350.21)" fill="#19152B" font-family="'Interstate-Bold'" font-size="50">thousand</text>
<g>
	<path fill="#19162B" d="M215.601,684.712c0,0-6.892-28.928,23.229-54.703c0,0,13.5,2.217,18.749-2.157
		c0,0,25.368,14.871,38.49,0.875c0,0,11.372-7.873,14.87-4.374c0,0-4.373-12.247-24.493-6.122c0,0-13.12,7.871-20.994-0.875
		c0,0,12.247-6.122,13.122-13.995c0,0,6.123-11.372,18.369-12.247c0,0-22.742-20.994-35.864,16.621c0,0-6.124,6.121-9.623-2.625
		c0,0,6.998-22.743-13.996-38.488c0,0,6.998,19.244,1.75,20.994c0,0-4.374,18.369,2.625,19.244l-5.249,5.248l-0.875,10.496
		c0,0-36.74,20.993-35.865,68.231C199.845,690.835,206.863,696.958,215.601,684.712z"/>
	<path fill="none" stroke="#19162B" stroke-width="3" stroke-miterlimit="10" d="M261.078,628.727c0,0,6.123,40.239,29.741,18.369
		l6.123-8.747c0,0,11.372,27.993,41.987,10.497c0,0,16.621-9.622,3.5-42.861c0,0,44.613-41.988-18.369-53.359
		c0,0,14.869-33.241-16.621-27.118c0,0-23.618-48.984-55.109,0.875c0,0-20.12-9.622-22.744,1.749c0,0-37.615-9.622-39.364,26.243
		c0,0-1.75,26.243,20.994,31.491c0,0-6.998,19.244,25.368,26.242"/>
</g>
</svg>
