<?xml version="1.0" encoding="utf-8"?>
<!-- Generator: Adobe Illustrator 15.1.0, SVG Export Plug-In . SVG Version: 6.00 Build 0)  -->
<!DOCTYPE svg PUBLIC "-//W3C//DTD SVG 1.1//EN" "http://www.w3.org/Graphics/SVG/1.1/DTD/svg11.dtd">
<svg version="1.1" id="Layer_1" xmlns="http://www.w3.org/2000/svg" xmlns:xlink="http://www.w3.org/1999/xlink" x="0px" y="0px"
	 width="536.379px" height="780.521px" viewBox="0 0 536.379 780.521" enable-background="new 0 0 536.379 780.521"
	 xml:space="preserve">
<g>
	<path fill="#6ABCC3" d="M330.795,47.392l-2.104,10.53c18.959,9.479,17.901,17.903,17.901,17.903
		c20.01,5.263,109.521,70.558,109.521,70.558c43.176,28.433,43.176,48.442,43.176,48.442
		c50.553,211.678,34.752,419.134,34.752,419.134c-26.328,106.364-67.396,119.005-67.396,119.005
		C435.049,754.024,331.852,779.3,331.852,779.3c-36.859,7.373-57.922-21.062-57.922-21.062c-20.01-28.437-41.069,0-41.069,0
		c-16.853,31.595-57.922,15.798-57.922,15.798c-17.903-3.157-101.101-38.964-101.101-38.964
		c-61.081-27.386-73.72-130.586-73.72-130.586c-1.052-20.013,5.267-153.751,5.267-153.751
		c4.915-23.522,67.401-314.881,67.401-314.881c12.635-31.595,121.105-69.508,121.105-69.508v-5.267
		c7.373-1.051,12.637-6.318,12.637-6.318l1.055-4.212l-3.161-6.318l8.424-12.636l2.175-18.333l100.026,15.161L330.795,47.392z
		 M163.352,163.23c0,0-30.543-35.806-51.604,10.534c0,0-23.17,112.683-9.479,171.655c0,0,5.267,15.797,15.798,7.373l11.584-4.212
		C129.651,348.581,139.13,358.056,163.352,163.23z"/>
	<path fill="#19152B" d="M210.215,35.279c0,0,45.303,0.528,111.104,0.528V0h-108.95L210.215,35.279z"/>
</g>
<rect x="56.69" y="386.761" fill="none" width="434" height="82"/>
<text transform="matrix(1 0 0 1 95.6416 406.4434)" font-family="'Interstate-Regular'" font-size="27">number of gallons needed to</text>
<text transform="matrix(1 0 0 1 93.7915 438.8438)" fill="#19152B" font-family="'Interstate-Regular'" font-size="27">fill the Empire State Building</text>
<text transform="matrix(1 0 0 1 195.5693 288.8154)" fill="#19152B" font-family="'Interstate-Bold'" font-size="120">276</text>
<text transform="matrix(1 0 0 1 235.4888 350.21)" fill="#19152B" font-family="'Interstate-Bold'" font-size="50">million</text>
<g>
	<polygon fill="#19152B" points="269.077,452.761 270.835,454.523 270.835,470.997 272.311,470.997 272.311,475.991 
		272.311,482.169 273.781,482.169 273.781,485.407 275.838,485.407 275.838,489.821 279.962,489.821 279.962,495.403 
		282.016,495.403 282.016,512.173 284.956,512.173 284.956,535.702 286.721,535.702 286.721,645.121 289.958,645.121 
		289.958,658.646 291.134,658.646 291.134,669.239 298.488,669.239 298.488,708.354 311.723,708.354 311.723,722.473 
		224.656,722.473 224.656,708.354 237.891,708.354 237.891,669.239 245.244,669.239 245.244,658.646 246.421,658.646 
		246.421,645.114 249.666,645.114 249.666,535.702 251.423,535.702 251.423,512.173 254.37,512.173 254.37,495.403 256.425,495.403 
		256.425,489.821 260.549,489.821 260.549,485.407 262.604,485.407 262.604,482.169 264.075,482.169 264.075,475.991 
		264.075,470.997 265.542,470.997 265.542,454.523 267.308,452.761 	"/>
</g>
</svg>
